<svg width="14" height="14" viewBox="0 0 14 14" version="1.1" xmlns="http://www.w3.org/2000/svg" xmlns:xlink="http://www.w3.org/1999/xlink">
<g id="Canvas" fill="none">
<g id="Deadline icon">
<path d="M 4.11602 1.06356L 3.21653 0L 0 2.67974L 0.899526 3.7433L 4.11602 1.06356Z" fill="#ACCAF6"/>
<path d="M 14 2.68323L 10.7835 0.00348562L 9.88398 1.06704L 13.1005 3.74679L 14 2.68323Z" fill="#ACCAF6"/>
<path d="M 6.99638 1.48758C 3.51388 1.48758 0.699864 4.28896 0.699864 7.74379C 0.699864 11.1986 3.51388 14 6.99638 14C 10.4789 14 13.2999 11.1986 13.2999 7.74379C 13.2999 4.28896 10.4789 1.48758 6.99638 1.48758ZM 6.99989 12.6098C 4.29439 12.6098 2.09988 10.4305 2.09988 7.74382C 2.09988 5.05714 4.29436 2.87786 6.99989 2.87786C 9.70543 2.87786 11.8999 5.05711 11.8999 7.74379C 11.8999 10.4305 9.70891 12.6098 6.99989 12.6098Z" fill="#ACCAF6"/>
<path d="M 7.35025 4.26813L 6.30025 4.26813L 6.30025 8.43894L 9.62177 10.4235L 10.1503 9.56506L 7.35025 7.91759L 7.35025 4.26813Z" fill="#ACCAF6"/>
</g>
</g>
</svg>

