<svg width="14" height="15" viewBox="0 0 14 15" version="1.1" xmlns="http://www.w3.org/2000/svg" xmlns:xlink="http://www.w3.org/1999/xlink">
<g id="Canvas" fill="none">
<g id="Amount icon">
<path d="M 7 0C 3.13436 0 0 3.13436 0 7C 0 10.8656 3.13436 14 7 14C 10.8656 14 14 10.8656 14 7C 14 3.13436 10.8656 0 7 0ZM 7 12.6764C 3.80722 12.6764 1.32 10.0932 1.32 6.99996C 1.32 3.90671 3.83089 1.32639 7 1.32639C 10.4111 1.32639 12.68 4 12.68 7C 12.68 10 10.1928 12.6764 7 12.6764Z" transform="translate(0 0.703613)" fill="#ACCAF6"/>
<path d="M 7.63855 3.73752L 7.57253 3.73752L 7.57253 2.79639L 6.34777 2.79639L 6.34777 3.73752L 6.28175 3.73752C 5.38232 3.73752 4.59961 4.31855 4.59961 5.08762L 4.59961 6.24017C 4.59961 6.9147 5.32457 7.45854 6.18983 7.45854L 6.34777 7.45854L 6.34777 9.33551C 6.06839 9.29513 5.85031 9.10077 5.85031 8.8745L 5.85031 8.40501L 4.59961 8.40501L 4.59961 9.00515C 4.59961 9.77422 5.38352 10.3553 6.28175 10.3553L 6.34777 10.3553L 6.34777 11.2964L 7.57253 11.2964L 7.57253 10.3553L 7.63855 10.3553C 8.53797 10.3553 9.32069 9.76467 9.32069 9.00515L 9.32069 7.72092C 9.32069 7.07403 8.65469 6.51103 7.81297 6.51103L 7.57248 6.51103L 7.57248 4.75726C 7.85539 4.79867 8.07113 4.98456 8.07113 5.20764L 8.07113 5.69629L 9.32183 5.69629L 9.32183 5.08654C 9.32069 4.34619 8.53678 3.73752 7.63855 3.73752ZM 6.34772 6.49829C 6.06834 6.46536 5.85026 6.30814 5.85026 6.09888L 5.85026 5.20872C 5.85026 4.98353 6.07661 4.79657 6.34772 4.75726L 6.34772 6.49829ZM 8.06999 7.927L 8.06999 8.87347C 8.06999 9.10611 7.85424 9.29199 7.57133 9.3334L 7.57133 7.4851C 7.86017 7.54248 8.06999 7.71881 8.06999 7.927Z" transform="translate(0 0.703613)" fill="#ACCAF6"/>
</g>
</g>
</svg>