<?xml version="1.0" encoding="utf-8"?>
<!-- Generator: Adobe Illustrator 21.0.2, SVG Export Plug-In . SVG Version: 6.00 Build 0)  -->
<svg version="1.1" id="Isolation_Mode" xmlns="http://www.w3.org/2000/svg" xmlns:xlink="http://www.w3.org/1999/xlink" x="0px"
	 y="0px" viewBox="0 0 284.9 217.5" style="enable-background:new 0 0 284.9 217.5;" xml:space="preserve">
<style type="text/css">
	.st0{fill:#FFFFFF;}
</style>
<g>
	<path class="st0" d="M142.5,68.2L75.9,1.7C74.8,0.6,73.5,0,72.1,0c-1.5,0-2.8,0.6-3.9,1.7l-8.5,8.5C58.6,11.3,58,12.6,58,14
		c0,1.5,0.6,2.8,1.7,3.9l78.9,78.9c1.1,1.1,2.4,1.7,3.9,1.7c1.5,0,2.8-0.6,3.9-1.7l78.9-78.9c1.1-1.1,1.7-2.4,1.7-3.9
		s-0.6-2.8-1.7-3.9l-8.5-8.5c-1.1-1.1-2.4-1.7-3.9-1.7c-1.5,0-2.8,0.6-3.9,1.7L142.5,68.2z"/>
	<path class="st0" d="M142.5,161.9L30.3,49.7c-1.9-1.9-4.1-2.9-6.6-2.9c-2.5,0-4.7,0.9-6.6,2.9L2.9,63.9C1,65.8,0,68,0,70.5
		c0,2.5,1,4.7,2.9,6.6l133,133c1.9,1.9,4.1,2.9,6.6,2.9c2.5,0,4.7-1,6.6-2.9l133-133c1.9-1.9,2.9-4.1,2.9-6.6c0-2.5-0.9-4.7-2.9-6.6
		l-14.3-14.3c-1.9-1.9-4.1-2.9-6.6-2.9c-2.5,0-4.7,0.9-6.6,2.9L142.5,161.9z"/>
</g>
</svg>
