<svg xmlns="http://www.w3.org/2000/svg" width="30" height="31" viewBox="0 0 30 31">
    <path fill="#9B9DA0" fill-rule="evenodd" d="M15 30.607c-8.284 0-15-6.764-15-15.107S6.716.393 15 .393c8.284 0 15 6.764 15 15.107s-6.716 15.107-15 15.107zm8.953-15.566h-2.511v-2.653a.358.358 0 0 0-.347-.366h-.715a.358.358 0 0 0-.348.366v2.653h-2.511c-.191 0-.347.165-.347.367v.756c0 .202.156.367.347.367h2.511v2.653c0 .203.155.367.348.367h.715a.357.357 0 0 0 .347-.367V16.53h2.51a.358.358 0 0 0 .348-.367v-.755a.358.358 0 0 0-.347-.367zm-8.439 2.326c-.528-.396-1.008-.975-1.016-1.153 0-.324.027-.48.715-1.046.89-.736 1.38-1.703 1.38-2.726 0-.927-.268-1.75-.724-2.329h.354a.333.333 0 0 0 .203-.07l.988-.755a.376.376 0 0 0 .128-.41.35.35 0 0 0-.33-.255h-4.419c-.483 0-.974.09-1.456.266-1.61.586-2.736 2.036-2.736 3.523 0 2.108 1.546 3.706 3.612 3.756-.04.167-.06.332-.06.493 0 .325.077.633.238.93h-.057c-1.97 0-3.748 1.021-4.422 2.54a2.916 2.916 0 0 0-.266 1.19c0 .383.093.752.276 1.099.424.801 1.335 1.423 2.567 1.752.635.17 1.318.256 2.027.256.637 0 1.245-.087 1.806-.259 1.751-.537 2.883-1.899 2.883-3.47 0-1.509-.459-2.412-1.69-3.332zm-5.58 3.452c0-1.097 1.32-2.06 2.824-2.06h.04c.328.005.647.056.948.153l.298.216c.697.502 1.157.832 1.285 1.364.03.133.045.267.045.397 0 1.366-.964 2.059-2.867 2.059-1.443 0-2.572-.935-2.572-2.129zm1.37-10.367a1.13 1.13 0 0 1 .888-.434l.039.001c.976.03 1.91 1.18 2.082 2.563.097.774-.066 1.502-.434 1.945a1.13 1.13 0 0 1-.9.434h-.016c-.956-.03-1.91-1.224-2.081-2.605-.096-.772.057-1.466.421-1.904z" opacity=".505"/>
</svg>
