<svg xmlns="http://www.w3.org/2000/svg" width="30" height="31" viewBox="0 0 30 31">
    <path fill="#9B9DA0" fill-rule="evenodd" d="M15 30.607c-8.284 0-15-6.764-15-15.107S6.716.393 15 .393c8.284 0 15 6.764 15 15.107s-6.716 15.107-15 15.107zm-2.905-17.275H9.73v7.276h2.365v-7.276zm.156-2.25c-.016-.714-.514-1.257-1.323-1.257-.809 0-1.338.543-1.338 1.256 0 .699.513 1.258 1.307 1.258h.016c.824 0 1.338-.56 1.338-1.258zm8.373 5.354c0-2.235-1.167-3.275-2.723-3.275-1.256 0-1.818.706-2.132 1.202v-1.03h-2.365c.031.682 0 7.275 0 7.275h2.365v-4.063c0-.218.016-.435.078-.59.171-.435.56-.885 1.214-.885.856 0 1.198.668 1.198 1.645v3.893h2.365v-4.172z" opacity=".505"/>
</svg>
