<svg width="64" height="32" viewBox="0 0 64 32" xmlns="http://www.w3.org/2000/svg"><title>0066E361-18FF-465F-A5C1-6B0C8F83F947</title><path d="M6.193 16c0-5.472 4.53-9.92 10.103-9.92h13.037V0H16.296C7.301 0 0 7.168 0 16s7.3 16 16.296 16h13.037v-6.08H16.296c-5.573 0-10.103-4.448-10.103-9.92zm12.474 2.667h26.666v-5.334H18.667v5.334zM47.704 0H34.667v6.08h13.037c5.573 0 10.103 4.448 10.103 9.92 0 5.472-4.53 9.92-10.103 9.92H34.667V32h13.037C56.699 32 64 24.832 64 16S56.7 0 47.704 0z" fill-rule="nonzero" fill="#000"/></svg>