<?xml version="1.0" encoding="utf-8"?>
<!-- Generator: Adobe Illustrator 21.0.2, SVG Export Plug-In . SVG Version: 6.00 Build 0)  -->
<svg version="1.1" id="Capa_1" xmlns="http://www.w3.org/2000/svg" xmlns:xlink="http://www.w3.org/1999/xlink" x="0px" y="0px"
	 viewBox="0 0 24 24" style="enable-background:new 0 0 24 24;" xml:space="preserve">
<g>
	<path d="M12,1.5c5.8,0,10.5,4.7,10.5,10.5S17.8,22.5,12,22.5S1.5,17.8,1.5,12S6.2,1.5,12,1.5 M12,0C5.4,0,0,5.4,0,12s5.4,12,12,12
		s12-5.4,12-12S18.6,0,12,0L12,0z M18.7,16l-0.1-0.2c-0.2-0.5-0.7-1-1.2-1.1l-1.8-0.5c-0.5-0.1-1.2,0-1.5,0.4l-0.6,0.6
		c-2.3-0.6-4.2-2.5-4.8-4.8l0.6-0.6c0.4-0.4,0.5-1,0.4-1.5L9.3,6.5c-0.1-0.5-0.6-1-1.1-1.2L8,5.3c-0.5-0.2-1.1,0-1.5,0.4l-1,1
		C5.4,6.8,5.2,7.3,5.2,7.3c0,3,1.2,6,3.3,8.1c2.2,2.2,5.1,3.3,8.1,3.3c0,0,0.5-0.1,0.7-0.3l1-1C18.7,17.2,18.8,16.5,18.7,16z"/>
</g>
</svg>
