<svg xmlns="http://www.w3.org/2000/svg" width="19" height="21" viewBox="0 0 19 21">
    <g fill="#E2EAFF" fill-rule="evenodd">
        <path d="M13.79 10.133c-.869 1.987-2.765 3.648-4.602 3.648-2.245 0-3.876-1.642-4.745-3.627C-.61 12.772.026 19.398.026 19.398c0 .907.715 1.038 1.554 1.038h15.202c.84 0 1.557-.131 1.557-1.038.001 0 .505-6.646-4.549-9.265"/>
        <path d="M9.187 12.704c2.53 0 4.543-3.623 4.543-6.616 0-2.994-2.052-5.421-4.583-5.421s-4.583 2.427-4.583 5.42c0 2.995 2.09 6.617 4.623 6.617"/>
    </g>
</svg>
