<svg width="48" height="62" viewBox="0 0 48 62" version="1.1" xmlns="http://www.w3.org/2000/svg" xmlns:xlink="http://www.w3.org/1999/xlink">
<title>Icon </title>
<desc>Created using Figma</desc>
<g id="Canvas" transform="translate(-3848 -1274)">
<g id="Icon ">
<use xlink:href="#path0_fill" transform="translate(3848 1274)" fill="#708FE7"/>
<use xlink:href="#path1_fill" transform="translate(3848 1274)" fill="#708FE7"/>
<use xlink:href="#path2_fill" transform="translate(3848 1274)" fill="#708FE7"/>
</g>
</g>
<defs>
<path id="path0_fill" d="M 47.4676 21.9307L 42.8236 17.0575L 43.7591 10.3453C 43.9022 9.31864 43.2177 8.36173 42.2115 8.18286L 35.634 7.01222L 32.503 1.0214C 32.0244 0.105748 30.916 -0.259692 29.9992 0.195699L 24.0007 3.17253L 18.0007 0.195699C 17.0832 -0.259692 15.9758 0.106005 15.4969 1.02191L 12.3672 7.01222L 5.78889 8.18286C 4.783 8.36173 4.09819 9.31864 4.24131 10.3453L 5.17652 17.0575L 0.532511 21.9307C -0.177546 22.6759 -0.177546 23.8584 0.532763 24.6036L 5.17652 29.4763L 4.24131 36.1921C 4.09844 37.2185 4.783 38.1754 5.78889 38.3543L 11.0536 39.2912L 11.0536 60.078C 11.0536 60.744 11.3934 61.3627 11.9515 61.7127C 12.2554 61.9036 12.6007 62 12.9468 62C 13.236 62 13.5261 61.9329 13.7934 61.797L 24.001 56.6173L 34.207 61.797C 34.7937 62.0948 35.4908 62.063 36.0489 61.7127C 36.607 61.3624 36.9468 60.7438 36.9468 60.0777L 36.9468 39.2914L 42.2118 38.354C 43.2177 38.1749 43.9022 37.2182 43.7593 36.1916L 42.8239 29.4758L 47.4676 24.6033C 48.1775 23.8586 48.1775 22.6759 47.4676 21.9307ZM 24.8473 52.7492C 24.3147 52.4788 23.6875 52.4786 23.1543 52.7492L 14.8399 56.9684L 14.8399 44.2561L 15.4972 45.5142C 15.9758 46.4303 17.0844 46.7955 18.0012 46.3399L 24.001 43.361L 29.999 46.3399C 30.2665 46.4726 30.5502 46.5357 30.8297 46.5357C 31.5087 46.5357 32.164 46.163 32.5032 45.5144L 33.1605 44.2574L 33.1605 56.9684L 24.8473 52.7492ZM 39.4589 27.4784C 39.0527 27.9046 38.8632 28.4971 38.945 29.0842L 39.7535 34.889L 34.0687 35.901C 33.4937 36.0032 32.9972 36.3694 32.7233 36.893L 30.0171 42.0697L 24.8327 39.4949C 24.5702 39.3647 24.2854 39.2994 24.0007 39.2994C 23.716 39.2994 23.4313 39.3645 23.169 39.4949L 17.9833 42.0697L 15.2781 36.8933C 15.0045 36.3694 14.508 36.0032 13.9327 35.901L 8.2467 34.889L 9.05495 29.084C 9.13673 28.4971 8.94717 27.9043 8.54102 27.4784L 4.5273 23.2669L 8.54128 19.0548C 8.94717 18.6287 9.13673 18.0362 9.05495 17.4493L 8.2467 11.6481L 13.9327 10.6361C 14.508 10.5339 15.0045 10.1674 15.2784 9.64359L 17.9835 4.46566L 23.1695 7.03861C 23.694 7.29898 24.3077 7.29898 24.8322 7.03861L 30.0166 4.46566L 32.7233 9.64385C 32.9969 10.1674 33.4935 10.5336 34.0687 10.6361L 39.7535 11.6479L 38.945 17.4491C 38.8632 18.0362 39.0527 18.6287 39.4586 19.0548L 43.4726 23.2669L 39.4589 27.4784Z"/>
<path id="path1_fill" d="M 24.0008 10.1244C 16.8617 10.1244 11.0535 16.0201 11.0535 23.2671C 11.0535 30.5157 16.8617 36.4127 24.0008 36.4127C 31.139 36.4127 36.9464 30.5157 36.9464 23.2671C 36.9464 16.0201 31.139 10.1244 24.0008 10.1244ZM 24.0008 32.5687C 18.9494 32.5687 14.8398 28.3961 14.8398 23.2671C 14.8398 18.1397 18.9494 13.9684 24.0008 13.9684C 29.0512 13.9684 33.1601 18.1397 33.1601 23.2671C 33.1601 28.3961 29.0512 32.5687 24.0008 32.5687Z"/>
<path id="path2_fill" d="M 27.8599 18.3911L 22.2675 24.0675L 20.1394 21.9094C 19.3998 21.1591 18.2011 21.1598 17.462 21.911C 16.7231 22.6621 16.7239 23.8789 17.4637 24.629L 20.9302 28.1445C 21.2998 28.5194 21.7839 28.7067 22.268 28.7067C 22.7524 28.7067 23.2371 28.5191 23.6066 28.144L 30.5368 21.1096C 31.2764 20.3593 31.2764 19.1422 30.5371 18.3914C 29.798 17.6407 28.5992 17.6405 27.8599 18.3911Z"/>
</defs>
</svg>
