<svg width="8" height="8" viewBox="0 0 8 8" version="1.1" xmlns="http://www.w3.org/2000/svg" xmlns:xlink="http://www.w3.org/1999/xlink">
<title>Logo Scholarshipowl</title>
<desc>Created using Figma</desc>
<g id="Canvas" transform="translate(-1025 5630)">
<g id="Logo Scholarshipowl">
<use xlink:href="#path0_fill" transform="translate(1025 -5630)" fill="#2F2F2F"/>
</g>
</g>
<defs>
<path id="path0_fill" d="M 3.31383 3.83766L 3.8883 3.83766C 4.17199 3.83766 4.39895 3.76491 4.56916 3.61943C 4.74292 3.47039 4.82979 3.28232 4.82979 3.05522C 4.82979 2.78909 4.75354 2.59925 4.60106 2.4857C 4.44857 2.3686 4.20745 2.31005 3.87767 2.31005L 3.31383 2.31005L 3.31383 3.83766ZM 5.62234 3.03393C 5.62234 3.31781 5.5461 3.56975 5.39362 3.78975C 5.24468 4.00621 5.03369 4.16766 4.76064 4.27412L 6.0266 6.37658L 5.13299 6.37658L 4.03191 4.49235L 3.31383 4.49235L 3.31383 6.37658L 2.5266 6.37658L 2.5266 1.63407L 3.91489 1.63407C 4.50354 1.63407 4.9344 1.74939 5.20745 1.98004C 5.48405 2.21069 5.62234 2.56199 5.62234 3.03393ZM 0 4.00266C 0 3.29297 0.177312 2.62763 0.531922 2.00665C 0.886532 1.38567 1.37412 0.895986 1.99469 0.537591C 2.61526 0.179197 3.28369 0 4 0C 4.70922 0 5.37412 0.177423 5.99469 0.532269C 6.61526 0.887115 7.10461 1.37503 7.46277 1.99601C 7.82092 2.61699 8 3.28587 8 4.00266C 8 4.70171 7.82801 5.35817 7.48404 5.97206C 7.14007 6.58594 6.6578 7.0774 6.03724 7.44644C 5.41667 7.81548 4.73759 8 4 8C 3.26596 8 2.58866 7.81725 1.96809 7.45176C 1.34752 7.08272 0.863477 6.59126 0.515959 5.97738C 0.171988 5.36349 0 4.70526 0 4.00266ZM 0.558507 4.00266C 0.558507 4.61654 0.712771 5.19139 1.02128 5.72721C 1.32979 6.25948 1.75 6.67997 2.28192 6.98869C 2.81738 7.29386 3.39007 7.44644 4 7.44644C 4.61702 7.44644 5.18971 7.29208 5.71808 6.98337C 6.24645 6.67465 6.6649 6.25771 6.97341 5.73253C 7.28546 5.20381 7.44149 4.62719 7.44149 4.00266C 7.44149 3.38523 7.28723 2.81215 6.97872 2.28343C 6.67021 1.75471 6.25178 1.33599 5.72341 1.02728C 5.19859 0.715014 4.62411 0.558882 4 0.558882C 3.38298 0.558882 2.81029 0.71324 2.28192 1.02196C 1.75355 1.33067 1.33334 1.74939 1.02128 2.27811C 0.712771 2.80328 0.558507 3.37813 0.558507 4.00266Z"/>
</defs>
</svg>
