<svg width="62" height="62" viewBox="0 0 62 62" version="1.1" xmlns="http://www.w3.org/2000/svg" xmlns:xlink="http://www.w3.org/1999/xlink">
<title>icon sad</title>
<desc>Created using Figma</desc>
<g id="Canvas" transform="translate(-5332 -1274)">
<g id="icon sad">
<use xlink:href="#path0_fill" transform="translate(5332 1274)" fill="#708FE7"/>
<use xlink:href="#path1_fill" transform="translate(5332 1274)" fill="#708FE7"/>
<use xlink:href="#path2_fill" transform="translate(5332 1274)" fill="#708FE7"/>
<use xlink:href="#path3_fill" transform="translate(5332 1274)" fill="#708FE7"/>
</g>
</g>
<defs>
<path id="path0_fill" d="M 44.273 46.0761C 43.7167 45.6636 30.5098 36.0916 17.1215 46.0761L 14.8056 42.9693C 30.5459 31.226 46.4338 42.8539 46.5928 42.9712L 44.273 46.0761Z"/>
<path id="path1_fill" d="M 44.5172 28.9452L 40.9392 25.3669L 37.3613 28.9452L 34.6215 26.2054L 38.1995 22.6271L 34.6215 19.0487L 37.3613 16.309L 40.9392 19.8872L 44.5172 16.309L 47.2568 19.0487L 43.6788 22.6271L 47.2568 26.2054L 44.5172 28.9452Z"/>
<path id="path2_fill" d="M 24.6387 28.9452L 21.0607 25.3669L 17.4827 28.9452L 14.7431 26.2054L 18.3211 22.6271L 14.7431 19.0487L 17.4827 16.309L 21.0607 19.8872L 24.6387 16.309L 27.3784 19.0487L 23.8004 22.6271L 27.3784 26.2054L 24.6387 28.9452Z"/>
<path id="path3_fill" d="M 53.2585 62L 8.74137 62C 3.92232 62 0 58.0777 0 53.2585L 0 8.74149C 0 3.92131 3.92232 0 8.74149 0L 53.2585 0C 58.0777 0 62 3.92131 62 8.74149L 62 53.2586C 62 58.0777 58.0777 62 53.2585 62ZM 58.125 8.74149C 58.125 6.05854 55.9416 3.875 53.2585 3.875L 8.74137 3.875C 6.05841 3.875 3.87487 6.05854 3.87487 8.74149L 3.87487 53.2586C 3.87487 55.9416 6.05841 58.1251 8.74137 58.1251L 53.2585 58.1251C 55.9415 58.1251 58.125 55.9416 58.125 53.2586L 58.125 8.74149Z"/>
</defs>
</svg>
