<svg xmlns="http://www.w3.org/2000/svg" width="20" height="24" viewBox="0 0 20 24">
    <g fill="#8BA4EC" fill-rule="evenodd">
        <path d="M4.67 17.698a.813.813 0 0 0-.316-.063l-1.135-.375c-.882-.25-1.512-1.125-1.386-2v-1.374c0-.5-.126-.874-.378-1.249l-1.009-1c-.504-.75-.504-1.624 0-2.374l.757-1.124c.252-.375.378-.75.378-1.25V5.516c0-.874.504-1.75 1.386-1.999l1.135-.375c.504-.125.882-.375 1.134-.874l.63-1C6.37.517 7.38.143 8.261.517l1.008.375c.504.125 1.009.125 1.387 0l1.008-.375c.882-.374 1.89 0 2.395.75l.63 1c.252.374.63.624 1.134.874l1.135.375c.882.25 1.512 1.125 1.386 2V6.89c0 .5.126.874.378 1.249l.757 1.124c.504.75.504 1.625 0 2.374l-.505 1c-.252.375-.378.75-.378 1.25v1.374c0 .874-.504 1.749-1.386 1.999l-1.135.375a2.646 2.646 0 0 0-.552.24v5.81l-5.29-2.321-5.563 2.322v-5.988zm5.28-14.36c-3.919 0-6.997 3.052-6.997 6.936s3.078 6.935 6.996 6.935c3.919 0 6.997-3.051 6.997-6.935 0-3.884-3.078-6.936-6.997-6.936z"/>
        <path d="M9.95 4.561c3.226 0 5.762 2.514 5.762 5.713 0 3.198-2.536 5.712-5.763 5.712s-5.762-2.514-5.762-5.712c0-3.2 2.535-5.713 5.762-5.713z"/>
    </g>
</svg>
