<svg width="18" height="18" viewBox="0 0 18 18" version="1.1" xmlns="http://www.w3.org/2000/svg" xmlns:xlink="http://www.w3.org/1999/xlink">
<title>icon search</title>
<desc>Created using Figma</desc>
<g id="Canvas" transform="translate(-2633 1507)">
<g id="icon search">
<use xlink:href="#path0_fill" transform="translate(2633 -1507)" fill="#708FE7"/>
</g>
</g>
<defs>
<path id="path0_fill" d="M 17.8443 17.082L 13.4691 12.7078C 14.6427 11.3588 15.3533 9.59867 15.3533 7.67494C 15.3533 3.44036 11.9082 0 7.67665 0C 3.44112 0 2.97428e-11 3.44435 2.97428e-11 7.67494C 2.97428e-11 11.9055 3.44511 15.3499 7.67665 15.3499C 9.6008 15.3499 11.3613 14.6395 12.7106 13.4661L 17.0858 17.8404C 17.1896 17.9441 17.3293 18 17.4651 18C 17.6008 18 17.7405 17.9481 17.8443 17.8404C 18.0519 17.6328 18.0519 17.2896 17.8443 17.082ZM 1.07385 7.67494C 1.07385 4.03503 4.03593 1.07761 7.67265 1.07761C 11.3134 1.07761 14.2715 4.03902 14.2715 7.67494C 14.2715 11.3109 11.3134 14.2763 7.67265 14.2763C 4.03593 14.2763 1.07385 11.3149 1.07385 7.67494Z"/>
</defs>
</svg>

