<svg xmlns="http://www.w3.org/2000/svg" width="20" height="20" viewBox="0 0 20 20">
    <path fill="#E2EAFF" fill-rule="evenodd" d="M10.023.229C4.61.229.229 4.62.229 10.033c0 5.411 4.382 9.804 9.794 9.804 5.421 0 9.814-4.393 9.814-9.804 0-5.412-4.393-9.804-9.814-9.804zm.01 17.647a7.841 7.841 0 0 1-7.843-7.843 7.841 7.841 0 0 1 7.843-7.843 7.841 7.841 0 0 1 7.843 7.843 7.841 7.841 0 0 1-7.843 7.843zm3.431-8.824c.814 0 1.47-.657 1.47-1.47 0-.814-.656-1.47-1.47-1.47s-1.47.656-1.47 1.47c0 .813.656 1.47 1.47 1.47zm-6.863 0c.814 0 1.47-.657 1.47-1.47 0-.814-.656-1.47-1.47-1.47-.813 0-1.47.656-1.47 1.47 0 .813.657 1.47 1.47 1.47zm3.432 6.373c2.284 0 4.225-1.432 5.01-3.432H5.022c.784 2 2.725 3.432 5.01 3.432z"/>
</svg>
