<svg width="20" height="20" viewBox="0 0 20 20" version="1.1" xmlns="http://www.w3.org/2000/svg" xmlns:xlink="http://www.w3.org/1999/xlink">
<title>Icon Phone</title>
<desc>Created using Figma</desc>
<g id="Canvas" transform="translate(-2075 5998)">
<g id="Icon Phone">
<use xlink:href="#path0_fill" transform="translate(2075 -5998)" fill="#2F2F2F"/>
<use xlink:href="#path1_fill" transform="translate(2075 -5998)" fill="#2F2F2F"/>
<use xlink:href="#path2_fill" transform="translate(2075 -5998)" fill="#2F2F2F"/>
</g>
</g>
<defs>
<path id="path0_fill" d="M 15.2055 13.2304C 14.5521 12.5853 13.7363 12.5853 13.0871 13.2304C 12.5918 13.7215 12.0965 14.2126 11.6096 14.712C 11.4764 14.8493 11.364 14.8785 11.2017 14.7869C 10.8812 14.6121 10.54 14.4706 10.232 14.2792C 8.79613 13.3761 7.59334 12.2149 6.52789 10.9081C 5.99933 10.2589 5.52903 9.56385 5.20024 8.78143C 5.13365 8.62328 5.14613 8.51924 5.27515 8.39022C 5.77042 7.91161 6.2532 7.42052 6.74015 6.92942C 7.41854 6.24689 7.41854 5.44782 6.73598 4.76112C 6.34893 4.36991 5.96187 3.98703 5.57481 3.59582C 5.17527 3.19628 4.77988 2.79259 4.37618 2.39721C 3.72276 1.76046 2.90702 1.76046 2.25777 2.40138C 1.75834 2.89247 1.27972 3.39605 0.771963 3.87882C 0.301666 4.32413 0.0644373 4.86933 0.0144944 5.50609C -0.064582 6.54238 0.189295 7.5204 0.547219 8.47346C 1.27972 10.4462 2.39511 12.1983 3.74773 13.8047C 5.57481 15.9772 7.75565 17.696 10.3069 18.9362C 11.4556 19.4939 12.6459 19.9226 13.9403 19.9933C 14.8309 20.0433 15.605 19.8185 16.2251 19.1235C 16.6497 18.6491 17.1283 18.2162 17.5778 17.7626C 18.2437 17.0884 18.2478 16.2727 17.5861 15.6068C 16.7953 14.8119 16.0004 14.0211 15.2055 13.2304Z"/>
<path id="path1_fill" d="M 14.4105 9.91345L 15.9463 9.65126C 15.7049 8.24041 15.039 6.96273 14.0276 5.94725C 12.958 4.87766 11.6054 4.20345 10.1154 3.99536L 9.89902 5.53939C 11.0519 5.7017 12.1007 6.22193 12.9289 7.05013C 13.7113 7.83255 14.2232 8.82306 14.4105 9.91345Z"/>
<path id="path2_fill" d="M 16.812 3.23789C 15.039 1.46496 12.7957 0.34543 10.3194 0L 10.103 1.54403C 12.2422 1.84368 14.1816 2.81338 15.7132 4.34077C 17.1657 5.79324 18.1188 7.6286 18.4642 9.64707L 20 9.38488C 19.5963 7.04594 18.4934 4.92342 16.812 3.23789Z"/>
</defs>
</svg>
