<svg width="14" height="18" viewBox="0 0 14 18" version="1.1" xmlns="http://www.w3.org/2000/svg" xmlns:xlink="http://www.w3.org/1999/xlink">
<title>Vector</title>
<desc>Created using Figma</desc>
<g id="Canvas" transform="translate(-12522 -252)">
<g id="Vector">
<use xlink:href="#path0_fill" transform="translate(12522 252.25)" fill="#6FA5FF"/>
<use xlink:href="#path1_fill" transform="translate(12522 252.25)" fill="#6FA5FF"/>
<use xlink:href="#path2_fill" transform="translate(12522 252.25)" fill="#6FA5FF"/>
<use xlink:href="#path3_fill" transform="translate(12522 252.25)" fill="#6FA5FF"/>
</g>
</g>
<defs>
<path id="path0_fill" d="M 3.82524 4.14583L 3.00617 3C 3.00617 3 1.36104 4.05556 0.618979 5.82639C -0.123082 7.59722 -0.333099 9.63194 0.75199 11.9722C 1.83708 14.3125 4.24527 15.4028 5.19735 15.4653L 5.19735 17.5L 8.92866 14.8611L 5.20435 12.2361L 5.20435 14.0833C 5.20435 14.0833 3.47521 13.6319 2.34812 11.9097C 1.22103 10.1875 1.15802 8.29861 1.78807 6.61111C 2.41813 4.92361 3.82524 4.14583 3.82524 4.14583Z"/>
<path id="path1_fill" d="M 10.1747 13.3542L 10.9938 14.5C 10.9938 14.5 12.6389 13.4444 13.381 11.6736C 14.123 9.90278 14.333 7.86806 13.248 5.52778C 12.1629 3.1875 9.76167 2.09028 8.80259 2.03472L 8.80259 0L 5.07129 2.63889L 8.79559 5.26389L 8.79559 3.40972C 8.79559 3.40972 10.5247 3.86111 11.6518 5.58333C 12.7789 7.30555 12.8419 9.19444 12.2119 10.8819C 11.5818 12.5694 10.1747 13.3542 10.1747 13.3542Z"/>
<path id="path2_fill" d="M 7.0044 9.61872L 2.5 8.08319L 7.0044 6.45001L 11.5002 8.08319L 7.0044 9.61872Z"/>
<path id="path3_fill" d="M 9.607 10.95C 9.607 10.95 9.21308 10.5328 7.00369 10.5328C 4.79431 10.5328 4.40039 10.95 4.40039 10.95L 4.40039 7.92328L 9.61556 7.92328L 9.61556 10.95L 9.607 10.95Z"/>
</defs>
</svg>
