<svg xmlns="http://www.w3.org/2000/svg" width="30" height="31" viewBox="0 0 30 31">
    <path fill="#9B9DA0" fill-rule="evenodd" d="M15 30.607c-8.284 0-15-6.764-15-15.107S6.716.393 15 .393c8.284 0 15 6.764 15 15.107s-6.716 15.107-15 15.107zm-.089-17.681l.031.522-.516-.064c-1.878-.245-3.519-1.077-4.912-2.475l-.681-.693-.176.512c-.371 1.142-.134 2.347.64 3.158.413.448.32.512-.392.245-.248-.085-.464-.15-.485-.117-.072.075.175 1.045.371 1.43.269.533.816 1.056 1.414 1.365l.506.245-.599.011c-.577 0-.598.01-.536.235.206.693 1.021 1.43 1.93 1.75l.64.223-.558.342a5.708 5.708 0 0 1-2.766.79c-.464.01-.846.052-.846.084 0 .107 1.26.705 1.992.94 2.198.693 4.81.394 6.77-.79 1.393-.843 2.786-2.518 3.437-4.14.35-.864.701-2.442.701-3.2 0-.49.031-.555.61-1.141.34-.342.66-.715.722-.822.103-.203.093-.203-.434-.021-.877.32-1 .277-.567-.203.32-.341.701-.96.701-1.141 0-.032-.154.021-.33.117-.186.107-.598.267-.908.363l-.557.181-.506-.352c-.279-.192-.67-.405-.877-.47-.527-.149-1.332-.127-1.806.043-1.29.48-2.106 1.718-2.013 3.073z" opacity=".505"/>
</svg>
