<svg width="19" height="18" viewBox="0 0 19 18" version="1.1" xmlns="http://www.w3.org/2000/svg" xmlns:xlink="http://www.w3.org/1999/xlink">
<title>Icon Logout</title>
<desc>Created using Figma</desc>
<g id="Canvas" transform="translate(-3746 4646)">
<g id="Icon Logout">
<use xlink:href="#path0_fill" transform="matrix(-1 0 0 1 3765 -4646)" fill="#C2C2C2"/>
</g>
</g>
<defs>
<path id="path0_fill" fill-rule="evenodd" d="M 4.58746 1.71094C 6.14459 0.591553 7.98737 0 9.91583 0C 14.9249 0 19.0001 4.03735 19.0001 9C 19.0001 13.9626 14.9249 18 9.91583 18C 7.98737 18 6.14459 17.4084 4.58746 16.2891C 4.409 16.1606 4.36041 15.918 4.47614 15.7322L 5.93878 13.3811C 6.00031 13.2822 6.10065 13.2131 6.21564 13.1907C 6.33038 13.168 6.44977 13.1941 6.54474 13.2622C 7.45514 13.9165 8.53229 14.2625 9.65997 14.2625C 12.5889 14.2625 14.9717 11.9016 14.9717 9C 14.9717 6.09814 12.5889 3.73755 9.65997 3.73755C 8.53229 3.73755 7.45514 4.08325 6.54474 4.73755C 6.44977 4.80566 6.33038 4.83154 6.21564 4.80908C 6.10065 4.78662 6.00031 4.71753 5.93878 4.6189L 4.47614 2.26782C 4.36041 2.08203 4.409 1.83911 4.58746 1.71094ZM 5.76251 11.9473C 5.84869 12.0752 5.85675 12.2397 5.78326 12.3757C 5.71002 12.5112 5.56744 12.5959 5.41193 12.5959L 2.56012 12.5959C 2.41925 12.5959 2.28766 12.5264 2.20953 12.4102L 0.0708618 9.23169C -0.0236206 9.09155 -0.0236206 8.90894 0.0708618 8.76855L 2.20978 5.59009C 2.2879 5.47412 2.41949 5.4043 2.56012 5.4043L 5.41193 5.4043C 5.5672 5.4043 5.71002 5.48901 5.78326 5.62476C 5.85675 5.7605 5.84869 5.92505 5.76251 6.05322L 4.77325 7.52319L 10.7589 7.52319C 11.5809 7.52319 12.2496 8.18579 12.2496 9.00024C 12.2496 9.81445 11.5809 10.4771 10.7589 10.4771L 4.77325 10.4771L 5.76251 11.9473Z"/>
</defs>
</svg>
