<svg width="16" height="20" viewBox="0 0 16 20" version="1.1" xmlns="http://www.w3.org/2000/svg" xmlns:xlink="http://www.w3.org/1999/xlink">
<title>icone Scholarship</title>
<desc>Created using Figma</desc>
<g id="Canvas" transform="translate(-3556 4896)">
<g id="icone Scholarship">
<use xlink:href="#path0_fill" transform="translate(3556 -4896)" fill="#708FE7"/>
<use xlink:href="#path1_fill" transform="translate(3556 -4896)" fill="#708FE7"/>
</g>
</g>
<defs>
<path id="path0_fill" d="M 16 17.2727L 16 0L 2.66669 0L 2.66669 1.81818L 14.2222 1.81818L 14.2222 17.2727L 16 17.2727Z"/>
<path id="path1_fill" d="M 0 2.91817L 0 19.8091C 0 19.9145 0.0817776 20 0.183111 20L 13.1493 20C 13.2515 20 13.3333 19.9155 13.3333 19.8091L 13.3333 2.91817C 13.3333 2.81271 13.2515 2.72726 13.1502 2.72726L 0.183111 2.72726C 0.0817776 2.72726 0 2.8118 0 2.91817ZM 1.77777 5.45453L 11.5555 5.45453L 11.5555 6.36362L 1.77777 6.36362L 1.77777 5.45453ZM 1.77777 8.18181L 11.5555 8.18181L 11.5555 9.0909L 1.77777 9.0909L 1.77777 8.18181ZM 1.77777 10.9091L 11.5555 10.9091L 11.5555 11.8182L 1.77777 11.8182L 1.77777 10.9091ZM 1.77777 13.6364L 11.5555 13.6364L 11.5555 14.5455L 1.77777 14.5455L 1.77777 13.6364ZM 1.77777 16.3636L 7.99998 16.3636L 7.99998 17.2727L 1.77777 17.2727L 1.77777 16.3636Z"/>
</defs>
</svg>
