<?xml version="1.0" encoding="UTF-8" standalone="no"?>
<svg width="165px" height="165px" viewBox="0 0 165 165" version="1.1" xmlns="http://www.w3.org/2000/svg" xmlns:xlink="http://www.w3.org/1999/xlink">
    <!-- Generator: Sketch 39.1 (31720) - http://www.bohemiancoding.com/sketch -->
    <title>Icon</title>
    <desc>Created with Sketch.</desc>
    <defs>
        <path d="M81.1099094,162.171668 C36.3139947,162.171668 0,125.86889 0,81.0866788 C0,36.3055941 36.3139947,0 81.1099094,0 C125.903571,0 162.219819,36.3055941 162.219819,81.0866788 C162.219819,125.86889 125.903571,162.171668 81.1099094,162.171668 Z" id="path-1"></path>
        <filter x="-50%" y="-50%" width="200%" height="200%" filterUnits="objectBoundingBox" id="filter-3">
            <feGaussianBlur stdDeviation="1" in="SourceAlpha" result="shadowBlurInner1"></feGaussianBlur>
            <feOffset dx="0" dy="1" in="shadowBlurInner1" result="shadowOffsetInner1"></feOffset>
            <feComposite in="shadowOffsetInner1" in2="SourceAlpha" operator="arithmetic" k2="-1" k3="1" result="shadowInnerInner1"></feComposite>
            <feColorMatrix values="0 0 0 0 0   0 0 0 0 0   0 0 0 0 0  0 0 0 0.31640625 0" type="matrix" in="shadowInnerInner1"></feColorMatrix>
        </filter>
    </defs>
    <g id="Version-1" stroke="none" stroke-width="1" fill="none" fill-rule="evenodd">
        <g id="Desktop-HD-v1" transform="translate(-890.000000, -354.000000)">
            <g id="BODY1-" transform="translate(0.000000, 60.000000)">
                <g id="OFFERS" transform="translate(562.000000, 295.500000)">
                    <g id="2" transform="translate(275.176163, 0.000000)">
                        <g id="Icon" transform="translate(53.963945, 0.000000)">
                            <mask id="mask-2" fill="white">
                                <use xlink:href="#path-1"></use>
                            </mask>
                            <g id="Mask">
                                <use fill="#4E8EEC" fill-rule="evenodd" xlink:href="#path-1"></use>
                                <use fill="black" fill-opacity="1" filter="url(#filter-3)" xlink:href="#path-1"></use>
                                <use stroke="#FFFFFF" stroke-width="2" xlink:href="#path-1"></use>
                            </g>
                            <g id="icon" mask="url(#mask-2)">
                                <g transform="translate(-45.483238, 18.601321)">
                                    <path d="M91.6903132,80.535641 C90.2493309,81.7947855 86.8690827,83.2331677 85.5133922,84.6088166 C96.8167985,86.5849118 108.883342,88.6416638 118.148723,90.8686917 C126.73177,84.6132976 136.544815,80.4773887 146.972858,78.3534225 C137.011675,79.845576 127.48144,83.130106 118.938794,88.4579453 C110.674469,85.8186708 101.629051,83.1032204 91.6903132,80.535641" id="Fill-5" fill="#CBCCCB"></path>
                                    <path d="M84.5392703,36.6493016 C82.9860619,37.7695369 79.4846097,38.8897722 78.007715,40.1354739 C89.0821802,43.1466665 100.906315,46.3057301 109.924799,49.3841368 C119.05102,43.948755 129.205232,40.7359201 139.785903,39.5843181 C129.73045,40.1489167 119.935362,42.5417394 110.934834,47.0540473 C102.948829,43.6664557 94.1996873,40.126512 84.5392703,36.6493016" id="Fill-6" fill="#CBCCCB"></path>
                                    <path d="M170.65704,76.3997321 C171.949884,77.5289293 174.975498,78.8194404 176.187539,80.0516993 C166.06924,81.8216711 155.264117,83.6588571 146.968369,85.6573569 C139.287619,80.0561803 130.502565,76.3504418 121.165359,74.4505226 C130.085084,75.7858432 138.614263,78.7253407 146.263589,83.4975432 C153.66153,81.1360871 161.75976,78.702936 170.65704,76.3997321" id="Fill-7" fill="#F2F2F1"></path>
                                    <path d="M114.27468,104.929886 C116.739164,106.816362 117.69533,108.433982 118.040986,109.285361 L118.175657,109.442194 L118.498868,109.652798 C118.314818,108.99858 117.457411,106.919424 114.036761,104.481791 L113.987382,104.598296 L114.27468,104.929886" id="Fill-8" fill="#ED9A48"></path>
                                    <path d="M113.951469,104.692396 L113.884134,104.876114 C113.551945,105.767822 113.578879,106.466848 114.539534,107.071776 L118.081388,109.37946 L118.175657,109.442194 L118.040986,109.285361 C117.69533,108.433982 116.739164,106.816362 114.27468,104.929886 L113.987382,104.598296 L113.951469,104.692396" id="Fill-9" fill="#F5C487"></path>
                                    <path d="M114.072674,104.387692 L114.036761,104.481791 C117.457411,106.919424 118.314818,108.99858 118.498868,109.652798 L124.375024,114.030677 L134.156645,120.702799 C135.153212,121.330131 138.282074,120.147162 139.489626,119.47054 C138.76689,119.188241 137.281018,119.197203 136.688464,118.292053 C135.638028,116.674433 132.150043,116.082949 130.219755,114.442924 C128.289468,112.798419 126.354691,110.764071 125.70378,110.607238 C125.052869,110.445924 120.756856,107.089699 120.258573,106.180068 C120.065544,105.830555 119.796201,105.279399 119.540326,104.737205 L119.513392,104.719281 C118.202592,103.894788 114.710117,103.016524 114.072674,104.387692" id="Fill-10" fill="#F9D6BD"></path>
                                    <path d="M120.258573,106.180068 C120.756856,107.089699 125.052869,110.445924 125.70378,110.607238 C126.354691,110.764071 128.289468,112.798419 130.219755,114.442924 C132.150043,116.082949 135.638028,116.674433 136.688464,118.292053 C137.281018,119.197203 138.76689,119.188241 139.489626,119.47054 L139.84426,119.224088 L140.320099,118.672933 C140.854294,117.525812 139.256196,117.239031 138.124957,116.526562 L131.795409,112.534043 L124.069769,107.61845 L119.540326,104.737205 C119.796201,105.279399 120.065544,105.830555 120.258573,106.180068" id="Fill-11" fill="#ED9A48"></path>
                                    <path d="M118.893904,105.315247 C120.922951,106.986638 121.67711,108.384691 121.937474,109.110604 L122.045211,109.245032 L122.314554,109.433232 C122.179882,108.877595 121.524482,107.09418 118.705364,104.925405 L118.664963,105.023985 L118.893904,105.315247" id="Fill-12" fill="#ED9A48"></path>
                                    <path d="M118.629051,105.100161 L118.561715,105.256994 C118.247482,106.000831 118.242993,106.587834 119.037553,107.130028 L121.389811,108.787976 L121.968897,109.191261 L122.045211,109.245032 L121.937474,109.110604 C121.67711,108.384691 120.922951,106.986638 118.893904,105.315247 L118.664963,105.023985 L118.629051,105.100161" id="Fill-13" fill="#F5C487"></path>
                                    <path d="M118.741277,104.849229 L118.705364,104.925405 C121.524482,107.09418 122.179882,108.877595 122.314554,109.433232 L127.149251,113.322689 L135.225037,119.268898 C136.046531,119.833496 138.748934,118.932827 139.803859,118.404076 C139.202327,118.139701 137.931929,118.103853 137.465068,117.315207 C136.630107,115.917154 133.685295,115.307746 132.105153,113.855921 C130.520521,112.408577 128.953846,110.625162 128.406183,110.47281 C127.85852,110.320458 124.325644,107.345113 123.935097,106.560948 C123.78247,106.260725 123.575974,105.790226 123.378456,105.324208 L123.356011,105.306285 C122.274152,104.566929 119.33383,103.71555 118.741277,104.849229" id="Fill-14" fill="#DDB097"></path>
                                    <path d="M128.406183,110.47281 C128.953846,110.625162 130.520521,112.408577 132.105153,113.855921 C133.685295,115.307746 136.630107,115.917154 137.465068,117.315207 C137.931929,118.103853 139.202327,118.139701 139.803859,118.404076 L140.113603,118.206915 L140.540062,117.75434 C141.033856,116.80438 139.687144,116.513119 138.748934,115.876825 L133.514712,112.301034 L123.378456,105.324208 C123.575974,105.790226 123.78247,106.260725 123.935097,106.560948 C124.325644,107.345113 127.85852,110.320458 128.406183,110.47281 Z" id="Fill-15" fill="#F9D6BD"></path>
                                    <path d="M122.372911,106.381711 C124.72068,107.546755 125.766626,108.738686 126.184107,109.388422 L126.323268,109.495965 L126.624033,109.621431 C126.368158,109.110604 125.335678,107.51987 122.09908,106.04564 L122.081123,106.148702 L122.372911,106.381711" id="Fill-16" fill="#ED9A48"></path>
                                    <path d="M122.063167,106.23384 L122.031744,106.395153 C121.892584,107.192761 122.022766,107.766321 122.916085,108.115835 L125.578087,109.195742 L126.233487,109.460117 L126.323268,109.495965 L126.184107,109.388422 C125.766626,108.738686 124.72068,107.546755 122.372911,106.381711 L122.081123,106.148702 L122.063167,106.23384" id="Fill-17" fill="#F5C487"></path>
                                    <path d="M126.624033,109.621431 L132.21289,112.314477 L141.415425,116.28011 C142.636444,116.75509 145.217643,115.944039 145.545343,114.7073 C145.814685,113.672202 145.154796,112.596776 144.099871,112.18453 L138.192293,109.885807 L126.722792,105.369018 C125.501773,104.894038 122.440247,104.723762 122.117036,105.960502 L122.09908,106.04564 C125.335678,107.51987 126.368158,109.110604 126.624033,109.621431" id="Fill-18" fill="#F9D6BD"></path>
                                    <path d="M170.742332,106.310016 C168.143177,104.687915 165.418329,102.994119 162.630634,101.268957 C164.938002,102.935867 167.169055,104.553487 169.341751,106.135259 C169.808611,106.206954 170.275472,106.229359 170.742332,106.310016" id="Fill-19" fill="#E4E5E3"></path>
                                    <path d="" id="Fill-20" fill="#E4E5E3"></path>
                                    <path d="M143.422026,106.327939 C152.772699,105.194261 162.518408,105.835036 172.142913,108.174087 C171.231638,107.510908 170.275472,106.816362 169.341751,106.135259 C160.547719,104.8089 151.794088,104.862671 143.422026,106.327939" id="Fill-21" fill="#E4E5E3"></path>
                                    <polyline id="Fill-22" fill="#E4E5E3" points="141.43787 106.641605 141.783526 106.578872 141.43787 106.641605"></polyline>
                                    <path d="M90.2358638,113.385422 C89.1584939,115.307746 88.094591,117.247993 87.2326951,119.394364 C98.6752616,118.439924 108.820495,118.865613 117.838979,119.627373 C125.398525,111.485503 135.516824,107.259975 146.398261,106.42652 C136.042042,106.776033 126.152684,110.015754 118.368686,116.943289 C110.144762,115.415288 100.834491,114.003792 90.2358638,113.385422" id="Fill-23" fill="#E4E5E3"></path>
                                    <path d="M148.710117,106.354825 C158.473782,105.982907 168.677373,108.183049 178.301878,111.848459 C176.169583,110.127778 173.925062,108.304034 171.55036,106.359306 C166.006393,102.308535 159.847429,97.796227 152.624561,92.7820536 C128.114395,85.7380139 102.212626,91.4198475 90.2358638,113.385422 C100.834491,114.003792 110.144762,115.415288 118.368686,116.943289 C126.157173,110.020235 136.042042,106.776033 146.398261,106.42652 L146.802274,106.404115 C147.439718,106.386192 148.072673,106.350344 148.710117,106.354825" id="Fill-24" fill="#CBCCCB"></path>
                                    <path d="M144.961767,88.0501796 C153.077954,92.3205167 160.906842,96.5415634 168.479855,100.690915 C150.510223,103.527351 133.038873,108.241301 116.375552,114.702819 C108.506262,111.248013 100.358652,107.752879 91.9057872,104.244302 C108.847429,97.0479098 126.633011,91.6035661 144.961767,88.0501796" id="Fill-25" fill="#FFFFFF"></path>
                                    <path d="M147.498076,20.728517 C157.136048,26.6702452 166.414896,32.6164544 175.357067,38.5312969 C154.375287,37.4737948 133.514712,38.5357779 113.112019,41.6186655 C103.545872,36.6268969 93.6295791,31.648571 83.3317181,26.7240165 C104.317987,22.6418789 125.816006,20.6120125 147.498076,20.728517" id="Fill-26" fill="#FFFFFF"></path>
                                    <path d="M91.9057872,104.244302 C89.0462678,78.4071938 86.1867485,52.5656052 83.3317181,26.7240165 C93.6295791,31.648571 103.545872,36.6268969 113.112019,41.6186655 C114.198367,65.9770626 115.284715,90.3399406 116.375552,114.702819 C108.506262,111.248013 100.358652,107.752879 91.9057872,104.244302" id="Fill-27" fill="#D7D8D7"></path>
                                    <path d="M168.479855,100.690915 C170.769266,79.9710424 173.063166,59.2511696 175.357067,38.5312969 C154.375287,37.4737948 133.514712,38.5357779 113.112019,41.6186655 C114.198367,65.9770626 115.284715,90.3399406 116.375552,114.702819 C133.038873,108.241301 150.510223,103.527351 168.479855,100.690915" id="Fill-28" fill="#F2F2F1"></path>
                                    <path d="M113.664171,53.9950255 C123.54904,52.1668014 133.564091,50.8314809 143.664434,50.0069877 C133.537157,51.6470122 123.562507,53.8605972 113.780886,56.625338 C113.744974,55.7470735 113.704572,54.868809 113.664171,53.9950255" id="Fill-29" fill="#D7D8D7"></path>
                                    <path d="M115.30716,91.7200705 C125.497284,88.7940159 135.902882,86.4549645 146.465596,84.7253211 C123.674733,89.8918465 130.367894,88.4086549 115.405919,93.9112509 C115.374496,93.1808574 115.338583,92.450464 115.30716,91.7200705" id="Fill-30" fill="#D7D8D7"></path>
                                    <path d="M173.413312,56.0741822 C163.348881,56.0965869 153.338319,56.629819 143.431004,57.6604355 C153.315873,57.4184646 163.241144,57.6111451 173.175392,58.2474388 C173.256195,57.5215263 173.332509,56.8000947 173.413312,56.0741822" id="Fill-31" fill="#D7D8D7"></path>
                                    <path d="M169.422554,92.1816075 C163.155852,92.9747341 156.93853,93.9874269 150.788543,95.2196857 C156.893639,94.7581488 163.030159,94.4668876 169.180146,94.354864 C169.260948,93.6289516 169.341751,92.90752 169.422554,92.1816075" id="Fill-32" fill="#D7D8D7"></path>
                                    <path d="M86.2361279,52.9778518 C91.0708255,55.2003987 95.8202313,57.4319075 100.479856,59.6634162 C95.8875669,58.3370576 91.2458981,57.0420656 86.5458718,55.7784401 C86.4426238,54.8464043 86.3393759,53.9143685 86.2361279,52.9778518" id="Fill-33" fill="#BFC0BF"></path>
                                    <path d="M90.5366296,91.917232 C96.6013245,94.5475445 102.508903,97.1733761 108.277321,99.7947268 C102.562771,97.9933884 96.7494628,96.2144547 90.8194392,94.4713685 C90.7251693,93.6199897 90.6308994,92.7686108 90.5366296,91.917232" id="Fill-34" fill="#BFC0BF"></path>
                                    <path d="M147.498076,20.7240361 C143.821551,20.7061123 140.162982,20.8360596 136.499924,20.9391212 C122.242729,21.342406 108.097759,22.6642837 94.1413298,24.8957924 C95.9504135,27.1273012 97.8178547,29.3095197 99.7616096,31.4155621 C113.264646,34.9241391 126.799106,37.4155425 140.49966,38.7822296 C149.594458,38.2265929 158.747613,38.0966456 167.932192,38.3430974 C170.405654,38.4058306 172.874627,38.4058306 175.357067,38.5312969 C166.414896,32.6119734 157.136048,26.6657643 147.498076,20.7240361" id="Fill-35" fill="#E4E5E3"></path>
                                    <path d="M143.009034,94.9508292 L138.820759,95.6498561 C137.532404,95.8649413 136.091422,95.2465714 135.157701,94.054641 C134.753687,93.5393327 134.578615,92.9792151 134.672884,92.52664 C135.418065,92.4639068 137.842148,92.1681647 139.09459,91.0120818 L142.057358,90.465407 C143.345712,90.2503218 144.611622,91.0837769 144.876476,92.3160357 C145.13684,93.5482946 144.297389,94.7357441 143.009034,94.9508292" id="Fill-36" fill="#F9D6BD"></path>
                                    <path d="M138.690577,91.0882578 C137.64463,91.7872847 136.172224,92.0919887 135.265438,92.2129741 L134.762665,92.2712263 L134.704308,92.4370212 L134.672884,92.52664 C135.418065,92.4639068 137.842148,92.1681647 139.09459,91.0120818 L138.690577,91.0882578 Z" id="Fill-37" fill="#F9D6BD"></path>
                                    <path d="M135.265438,92.2129741 C136.172224,92.0919887 137.64463,91.7872847 138.690577,91.0882578 L137.514448,91.3078239 L136.405654,91.5139472 L135.736787,91.6394136 C135.305839,91.7066277 135.02303,91.8948273 134.852446,92.1367981 L134.762665,92.2712263 L135.265438,92.2129741" id="Fill-38" fill="#F5C487"></path>
                                    <path d="M146.802274,100.00085 L141.62641,94.7626297 L141.603964,94.7536678 L141.550096,94.9105008 L140.495171,93.66928 C139.673677,92.7103586 139.929552,91.4780997 141.074258,90.9538296 C142.308744,90.38475 142.84294,90.2637646 143.77666,90.613278 C144.589177,90.770111 145.469029,91.0479293 146.35337,91.3705571 C148.521577,92.1816075 151.008506,94.9373864 152.099343,95.4168471 C152.889414,95.7618796 152.696386,96.3623258 153.854558,97.1644143 C151.847957,98.9030195 149.437342,99.9694835 147.215266,100.605777 L146.802274,100.00085" id="Fill-39" fill="#F9D6BD"></path>
                                    <path d="M153.854558,97.1644143 C152.696386,96.3623258 152.889414,95.7618796 152.099343,95.4168471 C151.008506,94.9373864 148.521577,92.1816075 146.35337,91.3705571 C149.616903,92.5669685 152.992662,94.5475445 153.688464,94.7850344 C154.137368,94.9418674 154.698498,95.2510523 155.358387,95.6005657 C154.891527,96.1741262 154.393243,96.6983964 153.854558,97.1644143" id="Fill-40" fill="#DDB097"></path>
                                    <path d="" id="Fill-41" fill="#F0A948"></path>
                                    <path d="M168.560658,105.055352 L168.327228,107.076256 L168.295804,107.363037 L167.667339,112.825304 L151.138688,113.609469 C148.256724,113.743897 145.469029,114.532543 143.000056,115.903711 L139.624297,117.781225 C138.506526,118.404076 137.016164,118.193472 136.199159,117.198703 C135.368686,116.18601 135.498868,114.823804 136.351786,113.99483 C135.893904,113.255475 135.880437,112.390653 136.23956,111.682664 C135.687408,110.889538 135.422554,110.602757 135.853502,109.845478 C134.996095,109.975426 134.722264,109.366018 134.722264,109.366018 C134.722264,109.366018 144.43655,105.041909 147.462163,103.374999 C148.2253,102.95379 147.785374,101.564699 147.215266,100.605777 C149.437342,99.9694835 151.847957,98.9030195 153.854558,97.1644143 C154.379776,97.5273705 155.160869,97.9306552 156.489626,98.3742684 C160.184107,99.6020464 166.881756,103.948559 168.560658,105.055352" id="Fill-42" fill="#F9D6BD"></path>
                                    <path d="M168.955694,101.61847 L168.569636,104.956771 L168.560658,105.055352 C166.881756,103.948559 160.184107,99.6020464 156.489626,98.3742684 C155.160869,97.9306552 154.379776,97.5273705 153.854558,97.1644143 C154.393243,96.6983964 154.891527,96.1741262 155.358387,95.6005657 C156.206816,96.0531408 157.239296,96.57293 158.586008,96.9672528 C160.978667,97.6752416 168.955694,101.61847 168.955694,101.61847" id="Fill-43" fill="#DDB097"></path>
                                    <path d="M167.667339,112.825304 C167.667339,112.825304 156.871194,114.312977 155.192293,114.931347 C153.513391,115.545236 149.922158,116.678914 148.849277,117.046351 C147.776396,117.413788 138.704044,120.389133 136.104889,120.021696 C133.505734,119.654259 140.31112,117.014984 140.31112,117.014984 L152.898393,110.553467 L167.667339,112.825304" id="Fill-44" fill="#EAC3A9"></path>
                                    <polyline id="Fill-45" fill="#F0EFEE" points="163.142385 106.144221 170.571748 106.28313 172.650175 96.9045197 170.455033 115.684145 162.038081 115.581083 163.142385 106.144221"></polyline>
                                    <polyline id="Fill-46" fill="#E3B571" points="163.142385 106.144221 163.142385 106.144221 163.63169 101.967983 163.142385 106.144221"></polyline>
                                    <polyline id="Fill-47" fill="#E3E3DE" points="163.950412 99.2211663 163.950412 99.2211663 164.233222 96.805939 163.950412 99.2211663"></polyline>
                                    <polyline id="Fill-48" fill="#DFA065" points="163.63169 101.967983 163.63169 101.967983 163.950412 99.2211663 163.63169 101.967983"></polyline>
                                    <g id="Group-54" stroke-width="1" fill="none" transform="translate(163.038746, 95.226842)">
                                        <polyline id="Fill-49" fill="#FFFFFF" points="0.103638884 10.9173788 1.19447594 1.5790971 9.61142855 1.67767781 7.53300238 11.056288 0.103638884 10.9173788"></polyline>
                                        <polyline id="Fill-51" fill="#50606D" points="6.76986535 0.911436845 111.687741 0.0555770508 111.544091 12.2840659 4.6824611 11.0204405 6.76986535 0.911436845"></polyline>
                                        <polyline id="Fill-52" fill="#697782" points="38.5444597 11.8942241 5.98524021 11.056288 5.96882724 11.056288 4.6824611 11.0204405 5.6364647 0.911436845 38.5444597 0.324433531 38.5444597 11.8942241"></polyline>
                                        <polygon id="Fill-53" fill="#50606D" points="111.544091 12.2840659 111.391464 25.5924617 2.59056781 21.1339251 4.6824611 11.0204405"></polygon>
                                    </g>
                                    <path d="M148.728073,19.433525 C157.670244,26.5178932 167.75263,32.26246 178.557753,36.465583 C154.168791,37.9218889 130.533988,35.4304855 106.890207,29.972699 C98.3610287,21.2169396 90.9585995,11.2737308 85.0465319,0.39848617 C106.050757,9.6381872 126.893376,16.0145667 148.728073,19.433525" id="Fill-58" fill="#FFFFFF"></path>
                                    <path d="M138.537949,17.5828962 C120.361821,13.9174862 102.760289,8.19084315 85.0465319,0.39848617 C90.9585995,11.2737308 98.3610287,21.2169396 106.890207,29.972699 C110.665491,30.8464825 114.445264,31.6082426 118.225037,32.3251932 C127.176185,28.59705 134.27336,23.5156625 138.537949,17.5828962" id="Fill-59" fill="#FBFAF9"></path>
                                    <path d="M113.664171,53.9950255 C113.664171,53.9950255 89.7375802,43.1645903 88.417802,42.5955107 C87.1025129,42.0264312 113.780886,56.625338 113.780886,56.625338 L113.664171,53.9950255" id="Fill-60" fill="#BFC0BF"></path>
                                    <polyline id="Fill-61" fill="#BFC0BF" points="115.30716 91.7200705 109.520786 89.927694 115.405919 93.9112509 115.30716 91.7200705"></polyline>
                                    <path d="M160.624033,67.0390457 C160.624033,67.0390457 135.943283,67.5588349 115.096175,73.3750967 C103.029632,68.7418034 92.3906037,64.6865515 92.3906037,64.6865515 C92.3906037,64.6865515 99.4473767,77.1570112 113.219756,87.0016393 C119.971274,78.8463261 135.633539,71.7888435 160.624033,67.0390457" id="Fill-62" fill="#CBCCCB"></path>
                                    <path d="M160.103304,67.0345647 C160.103304,67.0345647 135.418065,67.2541309 114.503622,72.8239409 C102.495436,68.0472575 91.9057872,63.8665392 91.9057872,63.8665392 C91.9057872,63.8665392 98.8099328,76.4176559 112.461108,86.4280788 C119.315874,78.3534225 135.058942,71.4841395 160.103304,67.0345647" id="Fill-63" fill="#FFFFFF"></path>
                                </g>
                            </g>
                        </g>
                    </g>
                </g>
            </g>
        </g>
    </g>
</svg>