<?xml version="1.0" encoding="UTF-8" standalone="no"?>
<svg width="164px" height="164px" viewBox="0 0 164 164" version="1.1" xmlns="http://www.w3.org/2000/svg" xmlns:xlink="http://www.w3.org/1999/xlink">
    <!-- Generator: Sketch 39.1 (31720) - http://www.bohemiancoding.com/sketch -->
    <title>icon</title>
    <desc>Created with Sketch.</desc>
    <defs>
        <path d="M81.1483644,161.346678 C36.6359681,161.346678 0.551808878,125.273664 0.551808878,80.7748847 C0.551808878,36.2772246 36.6359681,0.201412699 81.1483644,0.201412699 C125.658522,0.201412699 161.74492,36.2772246 161.74492,80.7748847 C161.74492,125.273664 125.658522,161.346678 81.1483644,161.346678 Z" id="path-1"></path>
        <filter x="-50%" y="-50%" width="200%" height="200%" filterUnits="objectBoundingBox" id="filter-3">
            <feGaussianBlur stdDeviation="1" in="SourceAlpha" result="shadowBlurInner1"></feGaussianBlur>
            <feOffset dx="0" dy="1" in="shadowBlurInner1" result="shadowOffsetInner1"></feOffset>
            <feComposite in="shadowOffsetInner1" in2="SourceAlpha" operator="arithmetic" k2="-1" k3="1" result="shadowInnerInner1"></feComposite>
            <feColorMatrix values="0 0 0 0 0   0 0 0 0 0   0 0 0 0 0  0 0 0 0.31640625 0" type="matrix" in="shadowInnerInner1"></feColorMatrix>
        </filter>
    </defs>
    <g id="Version-1" stroke="none" stroke-width="1" fill="none" fill-rule="evenodd">
        <g id="Desktop-HD-v1" transform="translate(-1189.000000, -354.000000)">
            <g id="BODY1-" transform="translate(0.000000, 60.000000)">
                <g id="OFFERS" transform="translate(562.000000, 295.500000)">
                    <g id="3" transform="translate(620.153401, 0.000000)">
                        <g id="icon" transform="translate(7.424512, 0.000000)">
                            <mask id="mask-2" fill="white">
                                <use xlink:href="#path-1"></use>
                            </mask>
                            <g id="Mask">
                                <use fill="#4E8EEC" fill-rule="evenodd" xlink:href="#path-1"></use>
                                <use fill="black" fill-opacity="1" filter="url(#filter-3)" xlink:href="#path-1"></use>
                                <use stroke="#FFFFFF" stroke-width="2" xlink:href="#path-1"></use>
                            </g>
                            <g id="Icon" mask="url(#mask-2)">
                                <g transform="translate(0.000000, 16.000000)">
                                    <polyline id="Fill-3" fill="#EBC3A9" points="80.8785888 113.308395 63.7217064 97.3806622 63.7217064 77.3340004 98.0282014 77.3340004 98.0282014 97.3806622 80.8785888 113.308395"></polyline>
                                    <path d="M63.7217064,86.2745286 C67.7661749,90.8073253 73.4269768,96.8573624 80.8729345,96.5858389 C88.3253543,96.8565396 93.9813097,90.8106165 98.0282014,86.2794654 L98.0282014,77.3340004 L63.7217064,77.3340004 L63.7217064,86.2745286" id="Fill-4" fill="#DDB097"></path>
                                    <path d="M52.6044666,48.23491 C52.6044666,48.23491 44.9630302,7.1649246 80.8729345,7.1649246 C116.792532,7.1649246 109.14948,48.23491 109.14948,48.23491 C109.14948,48.23491 112.892653,44.7709284 112.730293,49.7307576 C112.563086,54.6963463 111.420909,58.167733 111.420909,58.167733 C111.420909,58.167733 110.94029,63.961057 105.739105,66.6055313 C105.739105,66.6055313 104.763328,76.5416455 100.705127,80.679499 C96.6380416,84.8198209 90.1412052,94.2564965 80.8729345,93.9207947 C71.6167803,94.2564965 65.1102507,84.8198209 61.0520502,80.679499 C56.9873877,76.5416455 56.0148412,66.6055313 56.0148412,66.6055313 C50.8136564,63.961057 50.3281909,58.167733 50.3281909,58.167733 C50.3281909,58.167733 49.1916686,54.6963463 49.0309238,49.7307576 C48.8645247,44.7709284 52.6044666,48.23491 52.6044666,48.23491 Z" id="Fill-5" fill="#F9D6BD"></path>
                                    <path d="M147.650687,120.363069 C145.377643,119.707299 109.481471,106.297329 104.437799,104.144066 L81.0256017,110.241002 L57.3137239,104.144066 C52.2740916,106.297329 16.3714572,119.707299 14.0992204,120.363069 C11.8237525,121.034472 10.3625095,124.83251 9.87058197,126.327535 C9.50870422,127.429262 4.19443258,147.711244 0.323633108,163.553406 C0.431873327,163.662838 0.536074732,163.770625 0.642699425,163.879234 C21.4022041,184.24761 49.5705094,196.826553 80.6257591,197.014974 L81.9626066,197.015797 C110.380511,196.861111 136.383204,186.326822 156.51023,168.943559 C158.176645,167.293025 159.824481,165.616984 161.516744,163.914614 C157.635444,148.000869 152.243627,127.436667 151.87771,126.327535 C151.398707,124.83251 149.929386,121.034472 147.650687,120.363069 Z" id="Fill-6" fill="#A6DAE9"></path>
                                    <path d="M78.9334959,112.412367 L68.4430801,127.439959 L55.5980356,104.843444 L62.9074815,96.7438162 L78.9334959,112.412367 L78.9334959,112.412367 Z M82.8107575,112.412367 L93.3060199,127.439959 L106.151064,104.841799 L98.7406482,96.7438162 L82.8107575,112.412367 L82.8107575,112.412367 Z" id="Fill-7" fill="#D3CDCD"></path>
                                    <path d="M80.4448843,110.121696 L69.9544684,125.148464 L56.3517424,104.194255 L64.4188698,94.4523216 L80.4448843,110.121696 L80.4448843,110.121696 Z M84.3221458,110.121696 L94.8174083,125.148464 L108.420134,104.194255 L100.252037,94.4523216 L84.3221458,110.121696 L84.3221458,110.121696 Z" id="Fill-9" fill="#FCFCFC"></path>
                                    <path d="M81.1289953,5.46420017 C53.4049596,5.46420017 50.1876402,32.1426176 50.9017025,40.2447141 C51.387168,45.7640462 51.8839421,44.2879457 53.042274,47.263185 C54.2014137,50.2359558 51.2789278,53.4094895 55.7054681,53.4094895 C55.7054681,53.4094895 55.7070836,48.4866863 55.6747731,47.2269818 C55.4720246,39.4424856 57.0285836,32.4059131 60.2038993,29.1073141 C64.2863326,24.8666108 71.0456919,29.6849186 80.1847206,29.6849186 C89.9150316,29.6849186 97.4353035,23.9360257 101.844073,29.0628829 C104.797254,32.4972437 105.863501,37.7104948 106.19953,46.4584881 C106.247996,47.7190153 106.255266,53.4744906 106.255266,53.4744906 C110.100217,52.9561275 107.381287,51.1887564 108.538811,48.2151628 C109.697951,45.2399235 110.192302,45.7640462 110.680998,40.2447141 C111.394253,32.1426176 108.251248,5.46420017 81.1289953,5.46420017" id="Fill-10" fill="#634335"></path>
                                    <path d="M51.4033233,55.412181 C51.7498535,60.0601695 50.6674513,63.9347275 48.9840736,64.0655524 C47.3006959,64.1955546 45.655283,60.531633 45.3087527,55.8828217 C44.9622225,51.2348332 46.0446247,47.3602752 47.7288102,47.230273 C49.4113801,47.1002709 51.056793,50.7625468 51.4033233,55.412181" id="Fill-11" fill="#5E5E5E"></path>
                                    <path d="M111.28682,64.4465081 C110.275501,66.4788203 105.327954,75.4489692 95.0241315,79.7982818 C94.902967,81.197862 93.326214,82.5233904 91.2139142,82.8969409 C88.8528235,83.3165681 86.7243684,82.3851602 86.4561912,80.814438 C86.1872061,79.2470069 87.8810848,77.6400815 90.2429833,77.2204543 C91.8892039,76.9283608 93.4069903,77.2838097 94.2809897,78.0531263 C101.681713,74.9133274 106.168835,69.0961422 108.248824,65.7991888 L111.28682,64.4465081" id="Fill-12" fill="#232323"></path>
                                    <path d="M54.2046447,54.9859714 C55.0907606,63.0000284 56.8080643,69.4351352 54.694149,69.4976679 C51.4679443,69.5922897 49.2417499,63.6599128 48.3564419,55.6475013 C47.4703261,47.6359127 48.3564419,40.4750976 51.4857151,40.48168 C53.6012459,40.4866168 53.3193367,46.9743827 54.2046447,54.9859714" id="Fill-13" fill="#232323"></path>
                                    <path d="M110.16403,55.412181 C109.818308,60.0601695 110.90071,63.9347275 112.584895,64.0655524 C114.267465,64.1955546 115.912878,60.531633 116.258601,55.8828217 C116.606746,51.2348332 115.522729,47.3602752 113.840159,47.230273 C112.156781,47.1002709 110.51056,50.7625468 110.16403,55.412181" id="Fill-14" fill="#5E5E5E"></path>
                                    <path d="M117.710958,37.0975099 C117.710958,37.0975099 113.223836,0.878744332 80.7840806,0.878744332 C48.3435177,0.878744332 43.8572029,37.0975099 43.8572029,37.0975099 C39.1681397,52.4262453 45.0841947,64.8694265 45.1940504,66.0912822 C47.5099064,69.6383664 47.0478661,66.0912822 47.0478661,66.0912822 C44.5397625,48.9853022 45.0341134,45.0482115 46.4137723,37.9737903 C52.3233651,7.66436327 74.1919282,5.88711858 80.8276998,5.88711858 C87.4650869,5.88711858 109.182598,7.35252265 115.155197,37.9737903 C116.534048,45.0482115 117.027591,48.9853022 114.521103,66.0912822 C114.521103,66.0912822 114.059063,69.6383664 116.374111,66.0912822 C116.483967,64.8694265 122.400829,52.4262453 117.710958,37.0975099" id="Fill-15" fill="#C4C4C4"></path>
                                    <path d="M53.4049596,69.5717197 C52.1521194,69.7000763 49.4978108,69.2607019 49.354029,67.8018802 C49.354029,67.8018802 47.562411,60.7899917 46.9905149,54.9933765 C46.4186189,49.1967614 46.996977,43.9300284 46.996977,43.9300284 C46.8531953,42.4712067 49.2716372,40.5228199 50.5236695,40.3944634 C50.5236695,40.3944634 50.3443462,48.2447835 51.03983,55.2830016 C51.734506,62.3212197 53.4049596,69.5717197 53.4049596,69.5717197" id="Fill-16" fill="#AFAFAF"></path>
                                    <path d="M107.362709,54.9859714 C106.478208,63.0000284 104.760097,69.4351352 106.874012,69.4976679 C110.100217,69.5922897 112.326411,63.6599128 113.212527,55.6475013 C114.097835,47.6359127 113.212527,40.4750976 110.083254,40.48168 C107.966915,40.4866168 108.248824,46.9743827 107.362709,54.9859714" id="Fill-17" fill="#232323"></path>
                                    <path d="M108.164009,69.5717197 C109.416042,69.7000763 112.07035,69.2607019 112.214132,67.8018802 C112.214132,67.8018802 114.00575,60.7899917 114.576838,54.9933765 C115.149542,49.1967614 114.570376,43.9300284 114.570376,43.9300284 C114.714966,42.4712067 112.297332,40.5228199 111.043684,40.3944634 C111.043684,40.3944634 111.223815,48.2447835 110.528331,55.2830016 C109.833655,62.3212197 108.164009,69.5717197 108.164009,69.5717197" id="Fill-18" fill="#AFAFAF"></path>
                                </g>
                            </g>
                        </g>
                    </g>
                </g>
            </g>
        </g>
    </g>
</svg>