<svg width="44" height="35" viewBox="0 0 44 35" fill="none" xmlns="http://www.w3.org/2000/svg">
<path d="M1.95459 9.59082V29.5117C1.95459 32.2168 10.7192 34.409 21.5228 34.409C32.3263 34.409 41.0752 32.2199 41.091 29.5117V9.59082H1.95459Z" fill="#D1DDF1" stroke="#506FC6" stroke-width="0.7" stroke-miterlimit="10"/>
<path d="M40.8321 18.9488C40.0242 19.0911 39.7591 17.5316 38.9384 17.3007C37.7896 16.9844 37.1457 17.7467 36.5871 18.566C36.0285 19.3853 35.817 20.3754 34.6745 20.4419C33.3741 20.5178 33.4783 19.3442 32.6419 18.7115C30.4326 17.0413 27.9077 19.2493 25.8909 20.0654C25.1239 20.3818 24.0414 20.9733 23.1671 20.793C22.1729 20.5874 21.9615 19.6763 21.3871 18.9393C20.5538 17.8733 19.8942 17.6202 18.6254 18.0283C17.161 18.4964 17.0978 19.4138 16.1163 20.3217C13.746 22.5106 12.4962 18.7811 10.7161 18.1801C8.35212 17.383 8.43418 21.976 5.98185 20.037C4.54579 18.895 4.52686 17.4842 2.68682 17.674C2.43175 17.6948 2.17639 17.6374 1.95459 17.5095V27.5466C1.95459 30.2828 10.7192 32.5003 21.5228 32.5003C32.3263 32.5003 41.0752 30.286 41.091 27.5466V18.3193C41.0162 18.5337 40.9298 18.7439 40.8321 18.9488Z" fill="white" stroke="#506FC6" stroke-width="0.7" stroke-miterlimit="10"/>
<path d="M40.8321 23.7164C40.0242 23.8617 39.7591 22.304 38.9384 22.0733C37.7896 21.7573 37.1457 22.5157 36.5871 23.3372C36.0285 24.1588 35.817 25.1478 34.6745 25.2141C33.3741 25.29 33.4783 24.1177 32.6419 23.4857C30.4326 21.8174 27.9077 24.0229 25.8909 24.8381C25.1239 25.1541 24.0414 25.745 23.1671 25.5649C22.1729 25.3595 21.9615 24.4463 21.3871 23.7132C20.5538 22.6484 19.8942 22.3956 18.6254 22.8001C17.161 23.2709 17.0978 24.1872 16.1163 25.0909C13.746 27.2775 12.4962 23.5552 10.7161 22.9549C8.35212 22.1586 8.43418 26.7466 5.98185 24.8097C4.54579 23.669 4.52686 22.2597 2.68682 22.4462C2.43207 22.4679 2.17674 22.4117 1.95459 22.285V29.4609C1.95459 32.1941 10.7192 34.4091 21.5228 34.4091C32.3263 34.4091 41.0752 32.1972 41.091 29.4609V23.0908C41.0175 23.3044 40.931 23.5133 40.8321 23.7164Z" fill="#D1DDF1" stroke="#506FC6" stroke-width="0.7" stroke-miterlimit="10"/>
<g style="mix-blend-mode:multiply">
<path d="M21.5228 28.9742C10.7224 28.9742 1.95459 26.7101 1.95459 23.9092V26.4773C1.95459 29.2782 10.7192 31.5455 21.5228 31.5455C32.3263 31.5455 41.0752 29.2815 41.091 26.4773V23.9092C41.0752 26.7069 32.32 28.9742 21.5228 28.9742Z" fill="#8FABE4"/>
</g>
<path d="M2.09518 9.77224C1.5268 10.3872 1.92151 11.8386 1.52996 12.5828C1.06893 13.4622 0.459502 15.4394 1.90572 15.5778C2.43306 15.627 2.11728 14.1695 2.59725 14.1111C3.12021 14.0534 3.64834 14.1612 4.10347 14.4186C4.98447 14.8183 5.99808 15.218 6.94539 14.7845C8.06321 14.2648 9.10209 14.028 10.0494 15.1504C10.6494 15.8576 11.5967 18.3699 12.8913 17.2168C13.8386 16.3712 11.944 15.0335 13.4597 14.8921C14.5617 14.7906 15.4648 15.75 15.6543 16.7371C15.7617 17.2875 15.5122 17.921 15.7269 18.4499C15.9108 18.8125 16.2087 19.1085 16.5773 19.2949C16.9459 19.4812 17.3659 19.5482 17.7763 19.4861C19.3867 19.1786 18.9857 17.6196 18.212 16.7371C17.9247 16.4081 17.3089 16.1221 17.2868 15.6393C17.2616 15.0981 17.8868 14.8767 18.351 14.9044C19.4877 14.972 19.9298 16.2728 20.9371 16.6295C21.9261 16.9419 22.9986 16.8883 23.9495 16.4788C24.3853 16.2974 25.1337 15.8084 25.6294 15.9376C26.2957 16.1129 26.3146 16.8109 27.2083 16.6633C28.1019 16.5157 28.9103 15.9284 29.8292 16.3558C31.1806 16.9862 30.6975 18.4253 30.2965 19.4062C29.766 20.7038 30.0786 22.8778 31.7869 21.6232C32.3196 21.2661 32.734 20.7657 32.9796 20.1831C33.2252 19.6005 33.2914 18.9608 33.17 18.3422C33.0374 17.5366 31.9511 16.1129 32.649 15.4394C33.3468 14.766 34.8025 15.5163 35.2383 16.1836C35.573 16.7063 36.1856 17.6534 37.0634 17.0477C37.4739 16.7617 37.5276 15.7285 37.7928 15.2857C38.5602 14.0004 39.3717 15.6762 40.2558 15.8822C41.6231 16.1897 40.5053 18.3884 42.201 18.5698C44.2187 18.7881 41.781 14.0403 41.7621 13.3177C41.6989 11.116 41.541 10.0797 41.1653 9.59082" fill="#89A3EB"/>
<path d="M2.09518 9.77224C1.5268 10.3872 1.92151 11.8386 1.52996 12.5828C1.06893 13.4622 0.459502 15.4394 1.90572 15.5778C2.43306 15.627 2.11728 14.1695 2.59725 14.1111C3.12021 14.0534 3.64834 14.1612 4.10347 14.4186C4.98447 14.8183 5.99808 15.218 6.94539 14.7845C8.06321 14.2648 9.10209 14.028 10.0494 15.1504C10.6494 15.8576 11.5967 18.3699 12.8913 17.2168C13.8386 16.3712 11.944 15.0335 13.4597 14.8921C14.5617 14.7906 15.4648 15.75 15.6543 16.7371C15.7617 17.2875 15.5122 17.921 15.7269 18.4499C15.9108 18.8125 16.2087 19.1085 16.5773 19.2949C16.9459 19.4812 17.3659 19.5482 17.7763 19.4861C19.3867 19.1786 18.9857 17.6196 18.212 16.7371C17.9247 16.4081 17.3089 16.1221 17.2868 15.6393C17.2616 15.0981 17.8868 14.8767 18.351 14.9044C19.4877 14.972 19.9298 16.2728 20.9371 16.6295C21.9261 16.9419 22.9986 16.8883 23.9495 16.4788C24.3853 16.2974 25.1337 15.8084 25.6294 15.9376C26.2957 16.1129 26.3146 16.8109 27.2083 16.6633C28.1019 16.5157 28.9103 15.9284 29.8292 16.3558C31.1806 16.9862 30.6975 18.4253 30.2965 19.4062C29.766 20.7038 30.0786 22.8778 31.7869 21.6232C32.3196 21.2661 32.734 20.7657 32.9796 20.1831C33.2252 19.6005 33.2914 18.9608 33.17 18.3422C33.0374 17.5366 31.9511 16.1129 32.649 15.4394C33.3468 14.766 34.8025 15.5163 35.2383 16.1836C35.573 16.7063 36.1856 17.6534 37.0634 17.0477C37.4739 16.7617 37.5276 15.7285 37.7928 15.2857C38.5602 14.0004 39.3717 15.6762 40.2558 15.8822C41.6231 16.1897 40.5053 18.3884 42.201 18.5698C44.2187 18.7881 41.781 14.0403 41.7621 13.3177C41.6989 11.116 41.541 10.0797 41.1653 9.59082" stroke="#506FC6" stroke-width="0.7" stroke-miterlimit="10"/>
<path d="M41.091 9.59285C41.091 11.1746 32.3295 12.4548 21.5228 12.4548C10.7161 12.4548 1.95459 11.1746 1.95459 9.59285C1.95459 8.01106 10.7161 6.72754 21.5228 6.72754C32.3295 6.72754 41.091 8.01106 41.091 9.59285Z" fill="#89A3EB" stroke="#506FC6" stroke-width="0.7" stroke-miterlimit="10"/>
<path d="M2.01609 12.285C1.65973 13.0003 0.69916 15.3126 1.68202 15.4338C2.34043 15.5225 1.73235 14.5669 1.69451 14.2706C1.62711 13.7842 1.66537 12.9138 1.9361 12.4691" fill="white" fill-opacity="0.6"/>
<path d="M9.62461 14.0585C9.95098 14.2488 10.2518 14.5338 10.5029 14.8908C10.7759 15.2814 11.0129 15.6999 11.2951 16.0731C11.5774 16.4464 11.9092 16.8794 12.2999 16.9613C12.7756 17.083 12.9763 16.7954 12.7969 16.1624C12.7007 16.5037 12.1176 16.3933 11.8724 16.3135C11.5597 16.207 11.2715 15.9416 11.0711 15.5759C10.7247 15.0179 10.2419 13.6953 9.5949 14.0469" fill="white" fill-opacity="0.6"/>
<path d="M16.3162 18.1816C16.3162 18.4967 16.3488 18.7188 16.6835 18.922C16.8187 19.0074 16.975 19.0695 17.1424 19.1042C17.3097 19.1389 17.4843 19.1455 17.6551 19.1234C17.8876 19.0838 18.3571 18.8049 18.1137 18.5708C17.8702 18.3366 17.4812 18.5845 17.2443 18.6104C16.9661 18.6396 16.3097 18.5828 16.2727 18.3022" fill="white" fill-opacity="0.6"/>
<path d="M32.4061 18.1816C32.6545 19.1276 31.7574 19.6846 31.0414 20.1121C30.7141 20.3106 30.3108 20.8153 30.8661 21.0166C31.3336 21.1876 31.7866 20.5506 31.9766 20.2279C32.3126 19.6764 32.6428 18.9593 32.4354 18.2975" fill="white" fill-opacity="0.6"/>
<path d="M42.4522 16.2725C42.6457 16.5198 42.772 16.7942 42.8236 17.0794C42.8904 17.3264 43.0712 17.6619 42.9697 17.941C42.9359 18.0023 42.8823 18.056 42.8138 18.0972C42.7452 18.1384 42.6641 18.1657 42.5779 18.1764C42.4918 18.1871 42.4034 18.181 42.3212 18.1586C42.239 18.1363 42.1657 18.0983 42.108 18.0484C41.9545 17.8882 42.108 17.7939 42.3036 17.7713C42.4992 17.7487 42.6602 17.8524 42.7468 17.6601C42.9177 17.283 42.5735 16.6156 42.4026 16.2725" fill="white" fill-opacity="0.6"/>
<path d="M9.59084 7.09739C9.59084 7.94859 8.52365 8.6361 7.20448 8.6361C5.88531 8.6361 4.81812 7.94859 4.81812 7.09739C4.81812 6.24619 5.72227 5.48502 7.15631 5.89698C8.51995 5.46047 9.59084 6.24619 9.59084 7.09739Z" fill="#6D87D1" stroke="#506FC6" stroke-width="0.7" stroke-miterlimit="10"/>
<path d="M7.80665 6.78353C7.98436 6.65904 8.286 6.74704 8.48008 6.98314C8.67416 7.21924 8.69052 7.50685 8.51281 7.62704C8.3351 7.74724 8.03113 7.66353 7.83705 7.42958C7.64297 7.19563 7.62894 6.90802 7.80665 6.78353Z" fill="white"/>
<path d="M6.8254 5.6823C6.8254 5.4985 6.45487 4.00592 7.154 2.97917C7.19411 2.94992 7.24084 2.92906 7.29088 2.91808C7.34091 2.9071 7.393 2.90627 7.44343 2.91565C7.49385 2.92504 7.54137 2.9444 7.58259 2.97237C7.6238 3.00033 7.65769 3.0362 7.68184 3.07741C7.09247 3.85472 6.85819 4.80878 7.02815 5.73934C6.98271 5.79955 6.86036 5.77736 6.8254 5.6823Z" fill="#506FC6" stroke="#506FC6" stroke-width="0.3" stroke-miterlimit="10"/>
<path d="M19.1363 5.62866C19.1363 6.76225 18.0654 7.68146 16.7499 7.68146C15.4344 7.68146 14.3635 6.76225 14.3635 5.62866C14.3635 4.49507 15.2658 3.47516 16.7003 4.02734C18.0753 3.44918 19.1363 4.49832 19.1363 5.62866Z" fill="#6D87D1" stroke="#506FC6" stroke-width="0.7" stroke-miterlimit="10"/>
<path d="M18.0586 5.71622C17.8792 5.84077 17.5767 5.75263 17.3827 5.52461C17.1887 5.29659 17.1741 4.99959 17.3514 4.87504C17.5288 4.75049 17.8313 4.83863 18.0253 5.06665C18.2193 5.29467 18.236 5.59167 18.0586 5.71622Z" fill="white"/>
<path d="M16.38 3.77409C16.3643 3.58992 16.0053 2.09388 16.695 1.06535C16.7361 1.03756 16.7833 1.01796 16.8335 1.00786C16.8837 0.997761 16.9357 0.997389 16.986 1.00677C17.0364 1.01615 17.0839 1.03507 17.1255 1.06227C17.1671 1.08947 17.2018 1.12432 17.2273 1.16452C16.6381 1.94519 16.4068 2.90037 16.5816 3.83076C16.5375 3.89026 16.4147 3.8676 16.38 3.77409Z" fill="#506FC6" stroke="#506FC6" stroke-width="0.3" stroke-miterlimit="10"/>
<path d="M28.6817 5.62798C28.6817 6.7634 27.8276 7.68146 26.7726 7.68146C25.7176 7.68146 24.8635 6.7634 24.8635 5.62798C24.8635 4.49257 25.588 3.48043 26.733 4.02867C27.825 3.44799 28.6817 4.49581 28.6817 5.62798Z" fill="#6D87D1" stroke="#506FC6" stroke-width="0.7" stroke-miterlimit="10"/>
<path d="M27.603 6.67082C27.4254 6.79511 27.1226 6.70524 26.9283 6.47961C26.7341 6.25398 26.7195 5.95569 26.897 5.82949C27.0745 5.70329 27.3774 5.79507 27.5716 6.0207C27.7659 6.24633 27.7805 6.54271 27.603 6.67082Z" fill="white"/>
<path d="M26.88 4.69622C26.8643 4.45461 26.5053 2.46127 27.195 1.08707C27.2361 1.05004 27.2833 1.02393 27.3335 1.01047C27.3837 0.997017 27.4357 0.996522 27.486 1.00902C27.5364 1.02152 27.5839 1.04673 27.6255 1.08297C27.6671 1.11921 27.7018 1.16565 27.7273 1.2192C27.1322 2.25645 26.8962 3.53005 27.069 4.77173C27.0375 4.85478 26.9147 4.82458 26.88 4.69622Z" fill="#506FC6" stroke="#506FC6" stroke-width="0.3" stroke-miterlimit="10"/>
<path d="M38.2273 6.58493C38.2273 7.71623 37.1573 8.63654 35.8391 8.63654C34.521 8.63654 33.4546 7.71623 33.4546 6.58493C33.4546 5.45364 34.3617 4.43511 35.791 4.98439C37.1573 4.40237 38.2273 5.45 38.2273 6.58493Z" fill="#6D87D1" stroke="#506FC6" stroke-width="0.7" stroke-miterlimit="10"/>
<path d="M37.1439 6.67091C36.9674 6.79558 36.668 6.7053 36.4729 6.471C36.2779 6.23669 36.2663 5.94436 36.4428 5.82613C36.6192 5.7079 36.9071 5.78959 37.1137 6.02604C37.3203 6.26249 37.3203 6.54408 37.1439 6.67091Z" fill="white"/>
<path d="M35.4636 5.68283C35.4636 5.499 35.089 4.00613 35.7893 2.97919C35.8295 2.94993 35.8763 2.92906 35.9264 2.91808C35.9766 2.9071 36.0287 2.90627 36.0792 2.91566C36.1298 2.92504 36.1774 2.94441 36.2186 2.97238C36.2599 3.00035 36.2939 3.03622 36.3181 3.07744C35.7279 3.85495 35.4944 4.80954 35.6667 5.73988C35.6514 5.75424 35.632 5.76448 35.6107 5.76944C35.5893 5.7744 35.5668 5.77389 35.5458 5.76797C35.5247 5.76206 35.5059 5.75097 35.4914 5.73593C35.4769 5.7209 35.4673 5.70252 35.4636 5.68283Z" fill="#506FC6" stroke="#506FC6" stroke-width="0.3" stroke-miterlimit="10"/>
<path d="M30.4142 10.6343C29.1327 10.4354 27.7614 10.6343 26.4543 10.6343C24.9837 10.6523 23.5164 10.6192 22.0458 10.6343C18.8612 10.6734 15.6894 10.9174 12.5016 10.8873C12.4882 10.8903 12.4763 10.8974 12.4678 10.9075C12.4592 10.9176 12.4546 10.9301 12.4546 10.943C12.4546 10.956 12.4592 10.9685 12.4678 10.9786C12.4763 10.9887 12.4882 10.9958 12.5016 10.9988C15.4908 11.6465 18.4639 11.5139 21.5108 11.4266C22.9781 11.3814 24.4487 11.4266 25.9192 11.4266C27.3898 11.4266 29.043 11.5681 30.4302 11.0651C30.6128 11.0078 30.6801 10.6764 30.4142 10.6343Z" fill="white" fill-opacity="0.6"/>
<g style="mix-blend-mode:multiply">
<path d="M28.233 30.1117C28.233 30.0741 28.2181 30.038 28.1914 30.0113C28.1648 29.9847 28.1287 29.9697 28.091 29.9697C28.0533 29.9697 28.0172 29.9847 27.9906 30.0113C27.9639 30.038 27.949 30.0741 27.949 30.1117C27.949 30.1494 27.9639 30.1855 27.9906 30.2122C28.0172 30.2388 28.0533 30.2538 28.091 30.2538C28.1287 30.2538 28.1648 30.2388 28.1914 30.2122C28.2181 30.1855 28.233 30.1494 28.233 30.1117Z" fill="white" fill-opacity="0.63"/>
</g>
<g style="mix-blend-mode:multiply">
<path d="M29.7227 27.3506C29.7227 27.2913 29.7051 27.2333 29.6722 27.184C29.6392 27.1347 29.5924 27.0963 29.5376 27.0736C29.4828 27.0509 29.4225 27.045 29.3644 27.0565C29.3062 27.0681 29.2528 27.0967 29.2109 27.1386C29.1689 27.1805 29.1404 27.234 29.1288 27.2921C29.1172 27.3503 29.1232 27.4106 29.1459 27.4653C29.1686 27.5201 29.207 27.567 29.2563 27.5999C29.3056 27.6328 29.3636 27.6504 29.4229 27.6504C29.4622 27.6504 29.5012 27.6427 29.5376 27.6276C29.574 27.6125 29.607 27.5905 29.6349 27.5626C29.6627 27.5348 29.6848 27.5017 29.6999 27.4653C29.7149 27.429 29.7227 27.39 29.7227 27.3506Z" fill="white" fill-opacity="0.63"/>
</g>
<g style="mix-blend-mode:multiply">
<path d="M29.9341 29.0984C29.9341 29.0558 29.9214 29.0142 29.8977 28.9788C29.874 28.9435 29.8403 28.916 29.8009 28.8998C29.7615 28.8837 29.7182 28.8796 29.6764 28.8882C29.6347 28.8967 29.5965 28.9174 29.5666 28.9478C29.5367 28.9781 29.5166 29.0166 29.5086 29.0585C29.5007 29.1003 29.5054 29.1436 29.5221 29.1827C29.5389 29.2219 29.5669 29.2552 29.6026 29.2784C29.6383 29.3016 29.6801 29.3136 29.7227 29.313C29.7507 29.313 29.7784 29.3074 29.8043 29.2966C29.8302 29.2858 29.8536 29.2699 29.8733 29.2499C29.893 29.23 29.9085 29.2063 29.9189 29.1803C29.9294 29.1542 29.9345 29.1264 29.9341 29.0984Z" fill="white" fill-opacity="0.63"/>
</g>
<g style="mix-blend-mode:multiply">
<path d="M24.8212 28.0041C24.8204 27.9779 24.8093 27.953 24.7905 27.9347C24.7716 27.9164 24.7464 27.9062 24.7202 27.9063C24.6968 27.9104 24.6757 27.9227 24.6605 27.9408C24.6453 27.959 24.637 27.982 24.637 28.0057C24.637 28.0294 24.6453 28.0523 24.6605 28.0705C24.6757 28.0887 24.6968 28.1009 24.7202 28.1051C24.747 28.1051 24.7726 28.0944 24.7916 28.0755C24.8105 28.0566 24.8212 28.0309 24.8212 28.0041Z" fill="white" fill-opacity="0.63"/>
</g>
<g style="mix-blend-mode:multiply">
<path d="M32.7083 30.635C32.7083 30.567 32.6881 30.5005 32.6503 30.4439C32.6125 30.3873 32.5588 30.3432 32.4959 30.3172C32.4331 30.2912 32.3639 30.2844 32.2972 30.2976C32.2304 30.3109 32.1691 30.3437 32.121 30.3918C32.0729 30.4399 32.0401 30.5012 32.0269 30.5679C32.0136 30.6346 32.0204 30.7038 32.0465 30.7667C32.0725 30.8295 32.1166 30.8833 32.1732 30.9211C32.2297 30.9589 32.2962 30.979 32.3643 30.979C32.4555 30.979 32.543 30.9428 32.6075 30.8783C32.672 30.8138 32.7083 30.7263 32.7083 30.635Z" fill="white" fill-opacity="0.63"/>
</g>
<g style="mix-blend-mode:multiply">
<path d="M31.6981 28.0066C31.6981 27.9838 31.6936 27.9612 31.6849 27.9402C31.6762 27.9191 31.6634 27.9 31.6472 27.8839C31.6311 27.8677 31.612 27.8549 31.5909 27.8462C31.5699 27.8375 31.5473 27.833 31.5245 27.833C31.4829 27.8387 31.4447 27.8592 31.4171 27.8908C31.3895 27.9225 31.3743 27.963 31.3743 28.005C31.3743 28.047 31.3895 28.0876 31.4171 28.1192C31.4447 28.1508 31.4829 28.1714 31.5245 28.177C31.57 28.177 31.6137 28.1592 31.6461 28.1273C31.6786 28.0954 31.6973 28.0521 31.6981 28.0066Z" fill="white" fill-opacity="0.63"/>
</g>
<g style="mix-blend-mode:multiply">
<path d="M29.8488 25.3651C29.844 25.3347 29.8285 25.3069 29.805 25.2869C29.7816 25.2669 29.7518 25.2559 29.721 25.2559C29.6901 25.2559 29.6603 25.2669 29.6369 25.2869C29.6134 25.3069 29.5979 25.3347 29.5931 25.3651C29.5902 25.3836 29.5913 25.4025 29.5964 25.4205C29.6015 25.4384 29.6104 25.4551 29.6226 25.4693C29.6347 25.4835 29.6498 25.495 29.6668 25.5028C29.6838 25.5106 29.7023 25.5147 29.721 25.5147C29.7396 25.5147 29.7581 25.5106 29.7751 25.5028C29.7921 25.495 29.8072 25.4835 29.8193 25.4693C29.8315 25.4551 29.8404 25.4384 29.8455 25.4205C29.8506 25.4025 29.8517 25.3836 29.8488 25.3651Z" fill="white" fill-opacity="0.63"/>
</g>
<g style="mix-blend-mode:multiply">
<path d="M26.4466 26.2271C26.4466 26.1934 26.4366 26.1604 26.4178 26.1324C26.3991 26.1044 26.3725 26.0825 26.3414 26.0696C26.3102 26.0567 26.276 26.0533 26.2429 26.0599C26.2098 26.0665 26.1795 26.0827 26.1556 26.1066C26.1318 26.1304 26.1156 26.1608 26.109 26.1938C26.1024 26.2269 26.1058 26.2611 26.1187 26.2923C26.1316 26.3234 26.1534 26.35 26.1815 26.3688C26.2095 26.3875 26.2424 26.3975 26.2761 26.3975C26.2985 26.3975 26.3207 26.3931 26.3414 26.3845C26.362 26.376 26.3808 26.3634 26.3967 26.3476C26.4125 26.3318 26.425 26.313 26.4336 26.2923C26.4422 26.2716 26.4466 26.2495 26.4466 26.2271Z" fill="white" fill-opacity="0.63"/>
</g>
<g style="mix-blend-mode:multiply">
<path d="M27.125 28.2185C27.125 28.1621 27.1029 28.108 27.0633 28.0679C27.0237 28.0277 26.97 28.0047 26.9136 28.0039C26.8854 28.0039 26.8575 28.0095 26.8315 28.0202C26.8054 28.031 26.7818 28.0468 26.7618 28.0668C26.7419 28.0867 26.7261 28.1104 26.7153 28.1364C26.7045 28.1624 26.699 28.1903 26.699 28.2185C26.699 28.2467 26.7045 28.2746 26.7153 28.3006C26.7261 28.3267 26.7419 28.3503 26.7618 28.3703C26.7818 28.3902 26.8054 28.406 26.8315 28.4168C26.8575 28.4276 26.8854 28.4331 26.9136 28.4331C26.97 28.4323 27.0237 28.4093 27.0633 28.3692C27.1029 28.329 27.125 28.2749 27.125 28.2185Z" fill="white" fill-opacity="0.63"/>
</g>
<g style="mix-blend-mode:multiply">
<path d="M33.7279 30.4936C33.7279 30.4559 33.7129 30.4198 33.6863 30.3932C33.6597 30.3665 33.6235 30.3516 33.5859 30.3516C33.5482 30.3516 33.5121 30.3665 33.4854 30.3932C33.4588 30.4198 33.4438 30.4559 33.4438 30.4936C33.4438 30.5313 33.4588 30.5674 33.4854 30.594C33.5121 30.6206 33.5482 30.6356 33.5859 30.6356C33.6235 30.6356 33.6597 30.6206 33.6863 30.594C33.7129 30.5674 33.7279 30.5313 33.7279 30.4936Z" fill="white" fill-opacity="0.63"/>
</g>
<g style="mix-blend-mode:multiply">
<path d="M34.8643 30.0549C34.8649 29.9954 34.8478 29.937 34.8151 29.8872C34.7824 29.8374 34.7356 29.7985 34.6807 29.7754C34.6258 29.7523 34.5652 29.7461 34.5068 29.7576C34.4483 29.769 34.3946 29.7976 34.3525 29.8398C34.3104 29.8819 34.2817 29.9356 34.2703 29.9941C34.2588 30.0525 34.265 30.1131 34.2881 30.168C34.3112 30.2229 34.3501 30.2697 34.3999 30.3024C34.4497 30.3351 34.5081 30.3522 34.5676 30.3516C34.6463 30.3516 34.7218 30.3203 34.7774 30.2647C34.833 30.2091 34.8643 30.1336 34.8643 30.0549Z" fill="white" fill-opacity="0.63"/>
</g>
<g style="mix-blend-mode:multiply">
<path d="M35.284 31.0486C35.284 31.006 35.2713 30.9644 35.2476 30.929C35.2238 30.8937 35.1901 30.8662 35.1507 30.85C35.1113 30.8339 35.068 30.8298 35.0263 30.8383C34.9846 30.8469 34.9464 30.8676 34.9165 30.898C34.8866 30.9283 34.8664 30.9668 34.8585 31.0087C34.8506 31.0505 34.8553 31.0938 34.872 31.1329C34.8887 31.1721 34.9167 31.2054 34.9524 31.2286C34.9881 31.2518 35.0299 31.2638 35.0725 31.2632C35.1289 31.2624 35.1827 31.2394 35.2222 31.1992C35.2618 31.1591 35.284 31.105 35.284 31.0486Z" fill="white" fill-opacity="0.63"/>
</g>
<g style="mix-blend-mode:multiply">
<path d="M35.9463 30.3961C35.947 30.3759 35.9415 30.3559 35.9306 30.3388C35.9198 30.3217 35.904 30.3083 35.8855 30.3003C35.8669 30.2923 35.8463 30.29 35.8264 30.2938C35.8066 30.2976 35.7883 30.3073 35.774 30.3216C35.7597 30.3359 35.75 30.3542 35.7462 30.374C35.7424 30.3939 35.7446 30.4145 35.7527 30.4331C35.7607 30.4516 35.7741 30.4674 35.7912 30.4782C35.8083 30.4891 35.8283 30.4946 35.8485 30.4939C35.8744 30.4939 35.8993 30.4836 35.9177 30.4653C35.936 30.4469 35.9463 30.422 35.9463 30.3961Z" fill="white" fill-opacity="0.63"/>
</g>
<g style="mix-blend-mode:multiply">
<path d="M36.9407 31.5479C36.9407 31.4575 36.9048 31.3708 36.8409 31.3069C36.777 31.2429 36.6903 31.207 36.5999 31.207C36.5095 31.207 36.4228 31.2429 36.3589 31.3069C36.2949 31.3708 36.259 31.4575 36.259 31.5479C36.259 31.6383 36.2949 31.725 36.3589 31.7889C36.4228 31.8528 36.5095 31.8887 36.5999 31.8887C36.6903 31.8887 36.777 31.8528 36.8409 31.7889C36.9048 31.725 36.9407 31.6383 36.9407 31.5479Z" fill="white" fill-opacity="0.63"/>
</g>
<g style="mix-blend-mode:multiply">
<path d="M37.493 30.4654C37.493 30.4316 37.483 30.3987 37.4642 30.3707C37.4455 30.3426 37.4189 30.3208 37.3877 30.3079C37.3566 30.295 37.3223 30.2916 37.2893 30.2982C37.2562 30.3048 37.2258 30.321 37.202 30.3448C37.1782 30.3687 37.162 30.399 37.1554 30.4321C37.1488 30.4652 37.1522 30.4994 37.1651 30.5306C37.178 30.5617 37.1998 30.5883 37.2278 30.6071C37.2559 30.6258 37.2888 30.6358 37.3225 30.6358C37.3677 30.6358 37.4111 30.6178 37.443 30.5859C37.475 30.5539 37.493 30.5106 37.493 30.4654Z" fill="white" fill-opacity="0.63"/>
</g>
<g style="mix-blend-mode:multiply">
<path d="M38.279 32.027C38.2796 32.0012 38.2725 31.9758 38.2585 31.954C38.2446 31.9322 38.2244 31.9152 38.2006 31.905C38.1769 31.8948 38.1506 31.892 38.1252 31.8969C38.0998 31.9018 38.0764 31.9141 38.0582 31.9324C38.0399 31.9507 38.0275 31.9741 38.0226 31.9995C38.0177 32.0248 38.0205 32.0511 38.0307 32.0749C38.0409 32.0987 38.058 32.1188 38.0797 32.1328C38.1015 32.1468 38.1269 32.1539 38.1528 32.1533C38.1863 32.1533 38.2184 32.14 38.242 32.1163C38.2657 32.0926 38.279 32.0605 38.279 32.027Z" fill="white" fill-opacity="0.63"/>
</g>
<g style="mix-blend-mode:multiply">
<path d="M38.3672 31.2202C38.3664 31.1747 38.3477 31.1314 38.3153 31.0995C38.2828 31.0677 38.2391 31.0498 38.1936 31.0498C38.1712 31.0498 38.1491 31.0542 38.1284 31.0628C38.1077 31.0713 38.0889 31.0839 38.0731 31.0997C38.0573 31.1155 38.0447 31.1343 38.0362 31.155C38.0276 31.1757 38.0232 31.1979 38.0232 31.2202C38.0232 31.2657 38.041 31.3094 38.0729 31.3419C38.1048 31.3743 38.1481 31.393 38.1936 31.3938C38.2397 31.3938 38.2838 31.3755 38.3164 31.343C38.3489 31.3104 38.3672 31.2663 38.3672 31.2202Z" fill="white" fill-opacity="0.63"/>
</g>
<g style="mix-blend-mode:multiply">
<path d="M39.0488 30.083C39.0495 30.0404 39.0374 29.9986 39.0142 29.9629C38.991 29.9272 38.9577 29.8992 38.9186 29.8825C38.8794 29.8658 38.8362 29.8611 38.7943 29.869C38.7525 29.8769 38.714 29.8971 38.6836 29.927C38.6533 29.9569 38.6325 29.9951 38.624 30.0368C38.6155 30.0785 38.6195 30.1218 38.6357 30.1612C38.6518 30.2006 38.6793 30.2343 38.7147 30.2581C38.75 30.2818 38.7916 30.2945 38.8342 30.2945C38.8906 30.2945 38.9447 30.2723 38.9849 30.2327C39.025 30.1932 39.048 30.1394 39.0488 30.083Z" fill="white" fill-opacity="0.63"/>
</g>
<g style="mix-blend-mode:multiply">
<path d="M15.057 30.4936C15.057 30.4559 15.042 30.4198 15.0154 30.3932C14.9888 30.3665 14.9526 30.3516 14.915 30.3516C14.8773 30.3516 14.8412 30.3665 14.8145 30.3932C14.7879 30.4198 14.7729 30.4559 14.7729 30.4936C14.7729 30.5313 14.7879 30.5674 14.8145 30.594C14.8412 30.6206 14.8773 30.6356 14.915 30.6356C14.9526 30.6356 14.9888 30.6206 15.0154 30.594C15.042 30.5674 15.057 30.5313 15.057 30.4936Z" fill="white" fill-opacity="0.63"/>
</g>
<g style="mix-blend-mode:multiply">
<path d="M16.9569 28.8426C16.9538 28.784 16.9336 28.7275 16.8986 28.6803C16.8637 28.633 16.8157 28.5971 16.7606 28.5769C16.7054 28.5567 16.6455 28.5531 16.5884 28.5667C16.5312 28.5802 16.4793 28.6103 16.439 28.6531C16.3988 28.6959 16.372 28.7495 16.362 28.8074C16.352 28.8653 16.3593 28.9249 16.3828 28.9787C16.4064 29.0325 16.4453 29.0782 16.4946 29.1101C16.5439 29.142 16.6015 29.1588 16.6602 29.1582C16.7008 29.1583 16.741 29.1501 16.7783 29.134C16.8156 29.1179 16.8492 29.0943 16.877 29.0648C16.9048 29.0352 16.9263 29.0002 16.94 28.962C16.9537 28.9238 16.9595 28.8832 16.9569 28.8426Z" fill="white" fill-opacity="0.63"/>
</g>
<g style="mix-blend-mode:multiply">
<path d="M16.4931 30.8351C16.4931 30.779 16.4708 30.7252 16.4311 30.6856C16.3915 30.6459 16.3377 30.6236 16.2816 30.6236C16.2514 30.62 16.2209 30.6227 16.1919 30.6318C16.1629 30.6408 16.1361 30.6559 16.1134 30.676C16.0906 30.6961 16.0724 30.7209 16.0599 30.7486C16.0475 30.7763 16.041 30.8063 16.041 30.8367C16.041 30.8671 16.0475 30.8971 16.0599 30.9248C16.0724 30.9525 16.0906 30.9772 16.1134 30.9974C16.1361 31.0175 16.1629 31.0326 16.1919 31.0416C16.2209 31.0506 16.2514 31.0534 16.2816 31.0497C16.3096 31.0497 16.3374 31.0441 16.3633 31.0333C16.3891 31.0225 16.4126 31.0066 16.4323 30.9867C16.4519 30.9667 16.4674 30.943 16.4779 30.917C16.4883 30.891 16.4935 30.8631 16.4931 30.8351Z" fill="white" fill-opacity="0.63"/>
</g>
<g style="mix-blend-mode:multiply">
<path d="M18.1907 30.1959C18.1913 30.1757 18.1859 30.1557 18.175 30.1386C18.1642 30.1215 18.1484 30.1081 18.1298 30.1001C18.1113 30.0921 18.0907 30.0898 18.0708 30.0936C18.0509 30.0974 18.0327 30.1071 18.0184 30.1214C18.004 30.1357 17.9944 30.154 17.9906 30.1739C17.9868 30.1937 17.989 30.2143 17.9971 30.2329C18.0051 30.2514 18.0185 30.2672 18.0356 30.278C18.0527 30.2889 18.0726 30.2944 18.0929 30.2937C18.1188 30.2937 18.1437 30.2834 18.1621 30.2651C18.1804 30.2467 18.1907 30.2218 18.1907 30.1959Z" fill="white" fill-opacity="0.63"/>
</g>
<g style="mix-blend-mode:multiply">
<path d="M18.8729 28.218C18.8735 28.1505 18.854 28.0843 18.817 28.0278C18.7799 27.9713 18.7269 27.9272 18.6646 27.9009C18.6024 27.8746 18.5338 27.8674 18.4675 27.8802C18.4011 27.893 18.3401 27.9252 18.2921 27.9727C18.2441 28.0203 18.2114 28.081 18.1979 28.1472C18.1845 28.2134 18.1911 28.2821 18.2168 28.3446C18.2425 28.407 18.2862 28.4605 18.3423 28.4981C18.3984 28.5357 18.4645 28.5557 18.532 28.5557C18.6219 28.5557 18.7081 28.5203 18.7719 28.457C18.8357 28.3938 18.872 28.3079 18.8729 28.218Z" fill="white" fill-opacity="0.63"/>
</g>
<g style="mix-blend-mode:multiply">
<path d="M20.7283 26.397C20.7283 26.3634 20.7184 26.3306 20.6998 26.3026C20.6812 26.2747 20.6548 26.2528 20.6238 26.2398C20.5928 26.2268 20.5587 26.2233 20.5258 26.2296C20.4928 26.2359 20.4624 26.2519 20.4385 26.2754C20.4145 26.2989 20.398 26.329 20.3911 26.3618C20.3842 26.3947 20.3871 26.4288 20.3995 26.46C20.412 26.4912 20.4333 26.518 20.4609 26.5371C20.4885 26.5562 20.5212 26.5668 20.5547 26.5674C20.5774 26.5678 20.5999 26.5637 20.6209 26.5553C20.642 26.547 20.6611 26.5345 20.6773 26.5186C20.6934 26.5027 20.7063 26.4838 20.715 26.4629C20.7238 26.442 20.7283 26.4196 20.7283 26.397Z" fill="white" fill-opacity="0.63"/>
</g>
<g style="mix-blend-mode:multiply">
<path d="M21.6342 31.8878C21.6371 31.8694 21.636 31.8505 21.6309 31.8325C21.6258 31.8145 21.6169 31.7978 21.6047 31.7836C21.5926 31.7694 21.5775 31.758 21.5605 31.7502C21.5435 31.7423 21.525 31.7383 21.5064 31.7383C21.4877 31.7383 21.4692 31.7423 21.4522 31.7502C21.4352 31.758 21.4201 31.7694 21.408 31.7836C21.3958 31.7978 21.3869 31.8145 21.3818 31.8325C21.3767 31.8505 21.3756 31.8694 21.3785 31.8878C21.3756 31.9063 21.3767 31.9252 21.3818 31.9432C21.3869 31.9612 21.3958 31.9778 21.408 31.992C21.4201 32.0063 21.4352 32.0177 21.4522 32.0255C21.4692 32.0333 21.4877 32.0374 21.5064 32.0374C21.525 32.0374 21.5435 32.0333 21.5605 32.0255C21.5775 32.0177 21.5926 32.0063 21.6047 31.992C21.6169 31.9778 21.6258 31.9612 21.6309 31.9432C21.636 31.9252 21.6371 31.9063 21.6342 31.8878Z" fill="white" fill-opacity="0.63"/>
</g>
<g style="mix-blend-mode:multiply">
<path d="M19.9112 29.4048C19.9112 29.3596 19.8932 29.3163 19.8612 29.2843C19.8293 29.2523 19.7859 29.2344 19.7407 29.2344C19.6955 29.2344 19.6522 29.2523 19.6202 29.2843C19.5883 29.3163 19.5703 29.3596 19.5703 29.4048C19.5703 29.45 19.5883 29.4934 19.6202 29.5253C19.6522 29.5573 19.6955 29.5752 19.7407 29.5752C19.7859 29.5752 19.8293 29.5573 19.8612 29.5253C19.8932 29.4934 19.9112 29.45 19.9112 29.4048Z" fill="white" fill-opacity="0.63"/>
</g>
<g style="mix-blend-mode:multiply">
<path d="M22.7449 28.3316C22.7441 28.2752 22.7211 28.2214 22.681 28.1819C22.6408 28.1423 22.5867 28.1201 22.5303 28.1201C22.4742 28.1201 22.4204 28.1424 22.3808 28.1821C22.3411 28.2217 22.3188 28.2755 22.3188 28.3316C22.3188 28.3879 22.341 28.4421 22.3806 28.4822C22.4202 28.5224 22.4739 28.5454 22.5303 28.5462C22.587 28.5454 22.6411 28.5225 22.6812 28.4824C22.7212 28.4424 22.7441 28.3882 22.7449 28.3316Z" fill="white" fill-opacity="0.63"/>
</g>
<g style="mix-blend-mode:multiply">
<path d="M16.6628 25.3432C16.6637 25.3811 16.6793 25.4173 16.7065 25.4438C16.7336 25.4704 16.7701 25.4852 16.808 25.4852C16.8457 25.4852 16.8818 25.4703 16.9084 25.4436C16.9351 25.417 16.95 25.3809 16.95 25.3432C16.95 25.3055 16.9351 25.2694 16.9084 25.2428C16.8818 25.2161 16.8457 25.2012 16.808 25.2012C16.7701 25.2012 16.7336 25.216 16.7065 25.2426C16.6793 25.2691 16.6637 25.3052 16.6628 25.3432Z" fill="white" fill-opacity="0.63"/>
</g>
<g style="mix-blend-mode:multiply">
<path d="M14.2169 27.1002C14.2126 27.1419 14.2171 27.1841 14.2302 27.224C14.2432 27.2639 14.2644 27.3006 14.2926 27.3317C14.3207 27.3629 14.355 27.3878 14.3934 27.4049C14.4317 27.4219 14.4732 27.4307 14.5152 27.4307C14.5571 27.4307 14.5986 27.4219 14.637 27.4049C14.6753 27.3878 14.7097 27.3629 14.7378 27.3317C14.7659 27.3006 14.7871 27.2639 14.8002 27.224C14.8132 27.1841 14.8177 27.1419 14.8134 27.1002C14.8058 27.0264 14.7711 26.958 14.716 26.9083C14.6609 26.8586 14.5894 26.8311 14.5152 26.8311C14.441 26.8311 14.3694 26.8586 14.3143 26.9083C14.2592 26.958 14.2245 27.0264 14.2169 27.1002Z" fill="white" fill-opacity="0.63"/>
</g>
<g style="mix-blend-mode:multiply">
<path d="M14.4885 25.4845C14.4881 25.5126 14.4933 25.5404 14.5037 25.5664C14.5142 25.5924 14.5297 25.6161 14.5494 25.6361C14.569 25.6561 14.5925 25.6719 14.6183 25.6827C14.6442 25.6936 14.672 25.6991 14.7 25.6991C14.7302 25.7028 14.7607 25.7 14.7898 25.691C14.8188 25.682 14.8455 25.6669 14.8683 25.6468C14.891 25.6266 14.9092 25.6019 14.9217 25.5742C14.9341 25.5465 14.9406 25.5165 14.9406 25.4861C14.9406 25.4557 14.9341 25.4257 14.9217 25.398C14.9092 25.3703 14.891 25.3456 14.8683 25.3254C14.8455 25.3053 14.8188 25.2902 14.7898 25.2812C14.7607 25.2722 14.7302 25.2694 14.7 25.2731C14.6439 25.2731 14.5901 25.2953 14.5505 25.335C14.5108 25.3747 14.4885 25.4284 14.4885 25.4845Z" fill="white" fill-opacity="0.63"/>
</g>
<g style="mix-blend-mode:multiply">
<path d="M13.1345 26.7602C13.1345 26.7801 13.1404 26.7997 13.1515 26.8163C13.1626 26.8329 13.1784 26.8458 13.1969 26.8535C13.2153 26.8611 13.2356 26.8631 13.2552 26.8592C13.2748 26.8553 13.2928 26.8457 13.3069 26.8316C13.3211 26.8175 13.3307 26.7995 13.3346 26.7799C13.3385 26.7603 13.3365 26.74 13.3288 26.7215C13.3212 26.7031 13.3082 26.6873 13.2916 26.6762C13.275 26.6651 13.2555 26.6592 13.2355 26.6592C13.2087 26.6592 13.183 26.6698 13.1641 26.6888C13.1452 26.7077 13.1345 26.7334 13.1345 26.7602Z" fill="white" fill-opacity="0.63"/>
</g>
<g style="mix-blend-mode:multiply">
<path d="M12.4812 25.3438C12.4812 25.4112 12.5012 25.4771 12.5386 25.5332C12.5761 25.5892 12.6293 25.6329 12.6916 25.6587C12.7539 25.6845 12.8224 25.6912 12.8886 25.6781C12.9547 25.6649 13.0154 25.6325 13.0631 25.5848C13.1107 25.5371 13.1432 25.4764 13.1564 25.4103C13.1695 25.3442 13.1628 25.2756 13.137 25.2133C13.1112 25.1511 13.0675 25.0978 13.0114 25.0604C12.9554 25.0229 12.8895 25.0029 12.8221 25.0029C12.7317 25.0029 12.645 25.0388 12.581 25.1028C12.5171 25.1667 12.4812 25.2534 12.4812 25.3438Z" fill="white" fill-opacity="0.63"/>
</g>
<g style="mix-blend-mode:multiply">
<path d="M11.6133 26.688C11.6133 26.7217 11.6233 26.7547 11.642 26.7827C11.6607 26.8107 11.6873 26.8326 11.7185 26.8455C11.7496 26.8584 11.7839 26.8617 11.817 26.8552C11.85 26.8486 11.8804 26.8324 11.9042 26.8085C11.9281 26.7847 11.9443 26.7543 11.9509 26.7213C11.9574 26.6882 11.9541 26.6539 11.9412 26.6228C11.9283 26.5916 11.9064 26.565 11.8784 26.5463C11.8504 26.5276 11.8174 26.5176 11.7837 26.5176C11.7385 26.5176 11.6952 26.5355 11.6632 26.5675C11.6312 26.5995 11.6133 26.6428 11.6133 26.688Z" fill="white" fill-opacity="0.63"/>
</g>
<g style="mix-blend-mode:multiply">
<path d="M8.95903 24.939C8.95859 24.9557 8.96156 24.9723 8.96775 24.9878C8.97394 25.0033 8.98323 25.0174 8.99504 25.0292C9.00685 25.041 9.02094 25.0503 9.03645 25.0565C9.05196 25.0627 9.06857 25.0656 9.08527 25.0652C9.11875 25.0652 9.15086 25.0519 9.17454 25.0282C9.19821 25.0046 9.21151 24.9725 9.21151 24.939C9.21152 24.9052 9.19832 24.8727 9.17473 24.8486C9.15115 24.8244 9.11904 24.8104 9.08527 24.8096C9.06842 24.8096 9.05174 24.8129 9.03622 24.8195C9.02069 24.826 9.00663 24.8356 8.99487 24.8477C8.9831 24.8597 8.97387 24.874 8.96771 24.8897C8.96156 24.9054 8.9586 24.9221 8.95903 24.939Z" fill="white" fill-opacity="0.63"/>
</g>
<g style="mix-blend-mode:multiply">
<path d="M10.291 25.5132C10.291 25.5469 10.301 25.5799 10.3197 25.6079C10.3385 25.6359 10.3651 25.6578 10.3962 25.6707C10.4274 25.6836 10.4616 25.6869 10.4947 25.6804C10.5278 25.6738 10.5581 25.6575 10.582 25.6337C10.6058 25.6099 10.622 25.5795 10.6286 25.5464C10.6352 25.5134 10.6318 25.4791 10.6189 25.448C10.606 25.4168 10.5842 25.3902 10.5561 25.3715C10.5281 25.3528 10.4952 25.3428 10.4614 25.3428C10.4165 25.3436 10.3736 25.3618 10.3418 25.3936C10.31 25.4254 10.2918 25.4683 10.291 25.5132Z" fill="white" fill-opacity="0.63"/>
</g>
<g style="mix-blend-mode:multiply">
<path d="M10.0353 27.0716C10.0316 27.1018 10.0344 27.1324 10.0434 27.1614C10.0524 27.1904 10.0675 27.2172 10.0876 27.2399C10.1078 27.2626 10.1325 27.2808 10.1602 27.2933C10.1879 27.3058 10.2179 27.3122 10.2483 27.3122C10.2787 27.3122 10.3087 27.3058 10.3364 27.2933C10.3641 27.2808 10.3888 27.2626 10.409 27.2399C10.4291 27.2172 10.4442 27.1904 10.4532 27.1614C10.4623 27.1324 10.465 27.1018 10.4613 27.0716C10.465 27.0415 10.4623 27.0109 10.4532 26.9819C10.4442 26.9529 10.4291 26.9261 10.409 26.9034C10.3888 26.8807 10.3641 26.8624 10.3364 26.85C10.3087 26.8375 10.2787 26.8311 10.2483 26.8311C10.2179 26.8311 10.1879 26.8375 10.1602 26.85C10.1325 26.8624 10.1078 26.8807 10.0876 26.9034C10.0675 26.9261 10.0524 26.9529 10.0434 26.9819C10.0344 27.0109 10.0316 27.0415 10.0353 27.0716Z" fill="white" fill-opacity="0.63"/>
</g>
<g style="mix-blend-mode:multiply">
<path d="M20.965 30.4926C20.965 30.4645 20.9566 30.4371 20.941 30.4137C20.9254 30.3903 20.9032 30.3721 20.8773 30.3614C20.8513 30.3506 20.8228 30.3478 20.7952 30.3533C20.7677 30.3588 20.7424 30.3723 20.7225 30.3922C20.7026 30.412 20.6891 30.4374 20.6836 30.4649C20.6782 30.4925 20.681 30.521 20.6917 30.547C20.7025 30.5729 20.7207 30.5951 20.744 30.6107C20.7674 30.6263 20.7948 30.6346 20.8229 30.6346C20.8606 30.6346 20.8967 30.6197 20.9234 30.593C20.95 30.5664 20.965 30.5303 20.965 30.4926Z" fill="white" fill-opacity="0.63"/>
</g>
<g style="mix-blend-mode:multiply">
<path d="M22.1043 30.0543C22.1081 29.9912 22.0928 29.9284 22.0605 29.8741C22.0282 29.8197 21.9804 29.7764 21.9231 29.7495C21.8659 29.7227 21.8019 29.7137 21.7395 29.7237C21.6771 29.7336 21.6191 29.7621 21.5731 29.8054C21.527 29.8487 21.495 29.9048 21.4812 29.9665C21.4674 30.0281 21.4725 30.0925 21.4957 30.1513C21.5189 30.2101 21.5593 30.2606 21.6115 30.2961C21.6638 30.3317 21.7255 30.3508 21.7887 30.3509C21.8291 30.3531 21.8695 30.347 21.9075 30.3331C21.9455 30.3192 21.9803 30.2977 22.0098 30.27C22.0393 30.2423 22.0629 30.2089 22.0791 30.1718C22.0953 30.1347 22.1039 30.0947 22.1043 30.0543Z" fill="white" fill-opacity="0.63"/>
</g>
<g style="mix-blend-mode:multiply">
<path d="M22.5303 31.0486C22.5303 31.006 22.5176 30.9644 22.4939 30.929C22.4702 30.8937 22.4365 30.8662 22.3971 30.85C22.3577 30.8339 22.3144 30.8298 22.2726 30.8383C22.2309 30.8469 22.1927 30.8676 22.1628 30.898C22.1329 30.9283 22.1127 30.9668 22.1048 31.0087C22.0969 31.0505 22.1016 31.0938 22.1183 31.1329C22.1351 31.1721 22.1631 31.2054 22.1988 31.2286C22.2345 31.2518 22.2763 31.2638 22.3188 31.2632C22.3752 31.2624 22.429 31.2394 22.4686 31.1992C22.5081 31.1591 22.5303 31.105 22.5303 31.0486Z" fill="white" fill-opacity="0.63"/>
</g>
<g style="mix-blend-mode:multiply">
<path d="M23.1834 30.3951C23.184 30.3749 23.1785 30.3549 23.1677 30.3379C23.1568 30.3208 23.1411 30.3073 23.1225 30.2993C23.1039 30.2913 23.0834 30.289 23.0635 30.2928C23.0436 30.2966 23.0253 30.3063 23.011 30.3206C22.9967 30.3349 22.987 30.3532 22.9832 30.3731C22.9794 30.393 22.9817 30.4135 22.9897 30.4321C22.9978 30.4507 23.0112 30.4664 23.0283 30.4773C23.0454 30.4881 23.0653 30.4936 23.0855 30.493C23.1115 30.493 23.1364 30.4826 23.1547 30.4643C23.1731 30.446 23.1834 30.4211 23.1834 30.3951Z" fill="white" fill-opacity="0.63"/>
</g>
<g style="mix-blend-mode:multiply">
<path d="M24.181 31.5479C24.181 31.4805 24.161 31.4146 24.1235 31.3585C24.0861 31.3025 24.0328 31.2588 23.9706 31.233C23.9083 31.2072 23.8397 31.2004 23.7736 31.2136C23.7075 31.2267 23.6468 31.2592 23.5991 31.3069C23.5514 31.3545 23.519 31.4153 23.5058 31.4814C23.4927 31.5475 23.4994 31.616 23.5252 31.6783C23.551 31.7406 23.5947 31.7938 23.6508 31.8313C23.7068 31.8688 23.7727 31.8887 23.8401 31.8887C23.9305 31.8887 24.0172 31.8528 24.0811 31.7889C24.1451 31.725 24.181 31.6383 24.181 31.5479Z" fill="white" fill-opacity="0.63"/>
</g>
<g style="mix-blend-mode:multiply">
<path d="M24.7207 30.4644C24.7207 30.4307 24.7107 30.3977 24.692 30.3697C24.6733 30.3417 24.6467 30.3198 24.6155 30.3069C24.5844 30.294 24.5501 30.2906 24.5171 30.2972C24.484 30.3038 24.4536 30.32 24.4298 30.3439C24.406 30.3677 24.3897 30.3981 24.3832 30.4311C24.3766 30.4642 24.38 30.4985 24.3929 30.5296C24.4058 30.5607 24.4276 30.5874 24.4556 30.6061C24.4837 30.6248 24.5166 30.6348 24.5503 30.6348C24.5955 30.6348 24.6389 30.6168 24.6708 30.5849C24.7028 30.5529 24.7207 30.5096 24.7207 30.4644Z" fill="white" fill-opacity="0.63"/>
</g>
<g style="mix-blend-mode:multiply">
<path d="M25.5192 32.0265C25.5221 32.008 25.521 31.9892 25.5159 31.9712C25.5108 31.9532 25.5019 31.9365 25.4897 31.9223C25.4776 31.9081 25.4625 31.8967 25.4455 31.8888C25.4285 31.881 25.4101 31.877 25.3914 31.877C25.3727 31.877 25.3542 31.881 25.3372 31.8888C25.3202 31.8967 25.3051 31.9081 25.293 31.9223C25.2809 31.9365 25.2719 31.9532 25.2668 31.9712C25.2618 31.9892 25.2606 32.008 25.2635 32.0265C25.2683 32.057 25.2839 32.0847 25.3073 32.1047C25.3307 32.1247 25.3605 32.1358 25.3914 32.1358C25.4222 32.1358 25.452 32.1247 25.4754 32.1047C25.4989 32.0847 25.5144 32.057 25.5192 32.0265Z" fill="white" fill-opacity="0.63"/>
</g>
<g style="mix-blend-mode:multiply">
<path d="M25.6043 31.2183C25.6043 31.1731 25.5863 31.1297 25.5544 31.0978C25.5224 31.0658 25.4791 31.0479 25.4339 31.0479C25.3887 31.0479 25.3453 31.0658 25.3133 31.0978C25.2814 31.1297 25.2634 31.1731 25.2634 31.2183C25.2634 31.2635 25.2814 31.3068 25.3133 31.3388C25.3453 31.3708 25.3887 31.3887 25.4339 31.3887C25.4791 31.3887 25.5224 31.3708 25.5544 31.3388C25.5863 31.3068 25.6043 31.2635 25.6043 31.2183Z" fill="white" fill-opacity="0.63"/>
</g>
<g style="mix-blend-mode:multiply">
<path d="M26.2859 30.083C26.2865 30.0403 26.2744 29.9983 26.251 29.9626C26.2277 29.9268 26.1942 29.8988 26.1549 29.8822C26.1155 29.8655 26.0721 29.861 26.0302 29.8692C25.9883 29.8774 25.9498 29.8979 25.9195 29.9281C25.8893 29.9583 25.8688 29.9968 25.8607 30.0387C25.8525 30.0807 25.857 30.1241 25.8736 30.1634C25.8903 30.2028 25.9183 30.2362 25.954 30.2596C25.9898 30.2829 26.0317 30.2951 26.0744 30.2944C26.1305 30.2944 26.1843 30.2722 26.224 30.2325C26.2636 30.1928 26.2859 30.1391 26.2859 30.083Z" fill="white" fill-opacity="0.63"/>
</g>
<g style="mix-blend-mode:multiply">
<path d="M4.31043 31.4111C4.29227 31.4044 4.27293 31.4015 4.2536 31.4026C4.23428 31.4036 4.21538 31.4086 4.19805 31.4173C4.18073 31.4259 4.16536 31.438 4.15287 31.4528C4.14039 31.4676 4.13106 31.4847 4.12546 31.5033C4.11986 31.5218 4.11811 31.5413 4.1203 31.5605C4.1225 31.5797 4.12861 31.5983 4.13824 31.6151C4.14788 31.6319 4.16085 31.6465 4.17635 31.6581C4.19184 31.6697 4.20955 31.678 4.22837 31.6825C4.26437 31.6933 4.30318 31.6894 4.33631 31.6717C4.36943 31.6539 4.39418 31.6238 4.40511 31.5878C4.41091 31.57 4.41305 31.5512 4.41139 31.5325C4.40974 31.5139 4.40432 31.4958 4.39548 31.4792C4.38663 31.4627 4.37454 31.4482 4.35992 31.4365C4.34531 31.4247 4.32847 31.4161 4.31043 31.4111Z" fill="white" fill-opacity="0.63"/>
</g>
<g style="mix-blend-mode:multiply">
<path d="M4.06426 29.4165C4.02675 29.4054 3.98741 29.4018 3.94851 29.406C3.90961 29.4101 3.87192 29.4219 3.8376 29.4407C3.80328 29.4595 3.77301 29.4848 3.74854 29.5154C3.72406 29.5459 3.70587 29.5809 3.695 29.6185C3.67647 29.6946 3.68689 29.7748 3.72421 29.8436C3.76154 29.9125 3.82312 29.965 3.89698 29.9909C3.93449 30.002 3.97382 30.0056 4.01272 30.0015C4.05162 29.9973 4.08931 29.9855 4.12363 29.9668C4.15795 29.948 4.18822 29.9226 4.2127 29.8921C4.23717 29.8616 4.25537 29.8265 4.26624 29.7889C4.28477 29.7129 4.27435 29.6326 4.23703 29.5638C4.1997 29.495 4.13812 29.4425 4.06426 29.4165Z" fill="white" fill-opacity="0.63"/>
</g>
<g style="mix-blend-mode:multiply">
<path d="M6.73124 31.6827C6.69047 31.6706 6.64704 31.6709 6.60643 31.6835C6.56583 31.6961 6.5299 31.7205 6.50319 31.7536C6.47648 31.7867 6.4602 31.827 6.45642 31.8694C6.45263 31.9117 6.46152 31.9542 6.48195 31.9915C6.50237 32.0288 6.53341 32.0592 6.57113 32.0788C6.60886 32.0985 6.65156 32.1064 6.69382 32.1017C6.73608 32.0971 6.776 32.0799 6.80851 32.0525C6.84102 32.0251 6.86466 31.9887 6.87642 31.9478C6.89208 31.8934 6.88561 31.835 6.85841 31.7854C6.83122 31.7357 6.78551 31.6988 6.73124 31.6827Z" fill="white" fill-opacity="0.63"/>
</g>
<g style="mix-blend-mode:multiply">
<path d="M2.73559 27.0558C2.71701 27.051 2.69746 27.0518 2.67934 27.0581C2.66123 27.0644 2.64535 27.0759 2.63369 27.0911C2.62204 27.1063 2.61511 27.1246 2.61377 27.1437C2.61242 27.1629 2.61673 27.1819 2.62615 27.1986C2.63557 27.2153 2.64968 27.2289 2.66674 27.2376C2.6838 27.2464 2.70306 27.2499 2.72212 27.2478C2.74117 27.2457 2.75918 27.2381 2.77392 27.2258C2.78866 27.2135 2.79948 27.1972 2.80502 27.1789C2.81184 27.1533 2.8084 27.1262 2.79542 27.1032C2.78244 27.0801 2.76096 27.0631 2.73559 27.0558Z" fill="white" fill-opacity="0.63"/>
</g>
<g style="mix-blend-mode:multiply">
<path d="M6.08434 27.8448C6.01978 27.8259 5.95107 27.8265 5.88686 27.8466C5.82265 27.8667 5.76582 27.9053 5.72352 27.9576C5.68122 28.0099 5.65534 28.0736 5.64915 28.1406C5.64296 28.2075 5.65673 28.2749 5.68873 28.334C5.72073 28.3932 5.76953 28.4416 5.82897 28.4731C5.88842 28.5046 5.95585 28.5178 6.02279 28.511C6.08972 28.5043 6.15316 28.4779 6.20511 28.4351C6.25707 28.3924 6.29521 28.3352 6.31474 28.2709C6.34027 28.1838 6.33039 28.0902 6.28724 28.0104C6.24409 27.9306 6.17117 27.8711 6.08434 27.8448Z" fill="white" fill-opacity="0.63"/>
</g>
<g style="mix-blend-mode:multiply">
<path d="M4.32938 27.4283C4.30724 27.4148 4.28231 27.4065 4.25648 27.4041C4.23065 27.4016 4.20461 27.4051 4.18034 27.4143C4.15606 27.4234 4.1342 27.438 4.11642 27.4569C4.09863 27.4758 4.08539 27.4985 4.07771 27.5233C4.07003 27.5481 4.06811 27.5743 4.07209 27.5999C4.07607 27.6255 4.08586 27.6499 4.10069 27.6712C4.11553 27.6925 4.13503 27.7101 4.1577 27.7227C4.18038 27.7353 4.20564 27.7426 4.23154 27.7439C4.25309 27.7502 4.27567 27.7522 4.29798 27.7497C4.32029 27.7472 4.34188 27.7403 4.36153 27.7295C4.38118 27.7186 4.39849 27.704 4.41247 27.6865C4.42645 27.6689 4.43683 27.6487 4.443 27.6272C4.4529 27.5858 4.44666 27.5422 4.42555 27.5053C4.40444 27.4683 4.37005 27.4408 4.32938 27.4283Z" fill="white" fill-opacity="0.63"/>
</g>
<g style="mix-blend-mode:multiply">
<path d="M7.80739 27.7086C7.79143 27.7037 7.77468 27.7021 7.75808 27.7038C7.74149 27.7054 7.7254 27.7104 7.71073 27.7183C7.69605 27.7262 7.68309 27.737 7.6726 27.7499C7.66211 27.7629 7.65429 27.7778 7.64959 27.7938C7.63971 27.8264 7.64312 27.8617 7.65908 27.8918C7.67504 27.9219 7.70225 27.9446 7.7348 27.9547C7.75117 27.9596 7.76833 27.9611 7.7853 27.9593C7.80227 27.9574 7.81871 27.9523 7.83367 27.9441C7.84863 27.9358 7.86182 27.9248 7.87247 27.9114C7.88313 27.8981 7.89104 27.8828 7.89576 27.8664C7.90055 27.8502 7.90205 27.8333 7.90018 27.8165C7.89831 27.7997 7.8931 27.7835 7.88486 27.7688C7.87663 27.7541 7.86553 27.7412 7.85222 27.7309C7.83892 27.7205 7.82367 27.7129 7.80739 27.7086Z" fill="white" fill-opacity="0.63"/>
</g>
<g style="mix-blend-mode:multiply">
<path d="M7.24867 25.3479C7.20516 25.336 7.15877 25.3416 7.1193 25.3634C7.07984 25.3852 7.0504 25.4215 7.03722 25.4646C7.03041 25.4862 7.02795 25.5089 7.02999 25.5314C7.03203 25.5539 7.03853 25.5757 7.0491 25.5957C7.05968 25.6157 7.07412 25.6334 7.09158 25.6477C7.10905 25.662 7.12919 25.6728 7.15084 25.6792C7.19476 25.6912 7.24159 25.6857 7.28157 25.6639C7.32155 25.6422 7.35159 25.6058 7.36545 25.5625C7.37819 25.5185 7.37308 25.4713 7.35121 25.4311C7.32934 25.3909 7.29249 25.361 7.24867 25.3479Z" fill="white" fill-opacity="0.63"/>
</g>
<g style="mix-blend-mode:multiply">
<path d="M4.35453 24.9473C4.31445 24.9361 4.27194 24.9369 4.23233 24.9497C4.19272 24.9625 4.15778 24.9867 4.13187 25.0193C4.10597 25.0519 4.09025 25.0914 4.08671 25.1329C4.08316 25.1744 4.09193 25.216 4.11193 25.2525C4.13192 25.289 4.16225 25.3188 4.19911 25.3381C4.23596 25.3575 4.27771 25.3655 4.31912 25.3612C4.36052 25.357 4.39975 25.3406 4.43187 25.3141C4.464 25.2876 4.4876 25.2523 4.49971 25.2124C4.5079 25.1855 4.51062 25.1572 4.50773 25.1292C4.50484 25.1012 4.49639 25.074 4.48286 25.0493C4.46934 25.0247 4.45102 25.0029 4.42898 24.9854C4.40695 24.9679 4.38163 24.9549 4.35453 24.9473Z" fill="white" fill-opacity="0.63"/>
</g>
<g style="mix-blend-mode:multiply">
<path d="M8.45714 29.5561C8.45714 29.5184 8.44218 29.4823 8.41554 29.4557C8.38891 29.429 8.35278 29.4141 8.31512 29.4141C8.27745 29.4141 8.24132 29.429 8.21469 29.4557C8.18806 29.4823 8.1731 29.5184 8.1731 29.5561C8.1731 29.5938 8.18806 29.6299 8.21469 29.6565C8.24132 29.6831 8.27745 29.6981 8.31512 29.6981C8.35278 29.6981 8.38891 29.6831 8.41554 29.6565C8.44218 29.6299 8.45714 29.5938 8.45714 29.5561Z" fill="white" fill-opacity="0.63"/>
</g>
<g style="mix-blend-mode:multiply">
<path d="M8.62454 27.2532C8.62516 27.1936 8.60803 27.1352 8.57533 27.0854C8.54262 27.0356 8.49583 26.9967 8.44092 26.9736C8.386 26.9505 8.32546 26.9443 8.267 26.9558C8.20855 26.9673 8.15484 26.9959 8.11272 27.038C8.0706 27.0801 8.04198 27.1338 8.03051 27.1923C8.01904 27.2508 8.02525 27.3113 8.04833 27.3662C8.07141 27.4211 8.11033 27.4679 8.16012 27.5006C8.20991 27.5333 8.2683 27.5505 8.32787 27.5498C8.40655 27.5498 8.48201 27.5186 8.53765 27.4629C8.59328 27.4073 8.62454 27.3318 8.62454 27.2532Z" fill="white" fill-opacity="0.63"/>
</g>
<g style="mix-blend-mode:multiply">
<path d="M10.0349 30.1123C10.0355 30.0697 10.0235 30.0279 10.0003 29.9922C9.97709 29.9565 9.9438 29.9285 9.90465 29.9118C9.86549 29.8951 9.82224 29.8904 9.7804 29.8983C9.73857 29.9062 9.70003 29.9264 9.6697 29.9563C9.63937 29.9862 9.61861 30.0244 9.61007 30.0661C9.60153 30.1078 9.6056 30.1511 9.62174 30.1905C9.63789 30.2299 9.66539 30.2636 9.70075 30.2874C9.73611 30.3111 9.77773 30.3238 9.82031 30.3238C9.84834 30.3242 9.87617 30.319 9.90219 30.3086C9.92821 30.2981 9.9519 30.2826 9.97187 30.263C9.99184 30.2433 10.0077 30.2198 10.0185 30.194C10.0293 30.1681 10.0349 30.1403 10.0349 30.1123Z" fill="white" fill-opacity="0.63"/>
</g>
<g style="mix-blend-mode:multiply">
<path d="M10.7895 27.7045C10.7887 27.678 10.7778 27.6527 10.759 27.634C10.7402 27.6152 10.715 27.6043 10.6885 27.6035C10.6622 27.6043 10.6373 27.6153 10.6191 27.6342C10.6008 27.653 10.5906 27.6783 10.5906 27.7045C10.5902 27.7176 10.5924 27.7307 10.5972 27.7429C10.6019 27.7552 10.609 27.7663 10.6181 27.7757C10.6273 27.7852 10.6382 27.7927 10.6503 27.7978C10.6624 27.8029 10.6754 27.8055 10.6885 27.8055C10.7153 27.8055 10.7409 27.7949 10.7599 27.7759C10.7788 27.757 10.7895 27.7313 10.7895 27.7045Z" fill="white" fill-opacity="0.63"/>
</g>
<g style="mix-blend-mode:multiply">
<path d="M11.6861 30.6108C11.6867 30.5427 11.667 30.4758 11.6296 30.4189C11.5922 30.3619 11.5387 30.3173 11.4759 30.2908C11.4131 30.2643 11.3438 30.257 11.2769 30.2699C11.2099 30.2828 11.1484 30.3153 11.0999 30.3633C11.0515 30.4113 11.0184 30.4726 11.0049 30.5394C10.9914 30.6062 10.998 30.6755 11.0239 30.7386C11.0499 30.8016 11.094 30.8556 11.1506 30.8935C11.2072 30.9314 11.2739 30.9517 11.342 30.9517C11.4327 30.9517 11.5198 30.9159 11.5842 30.8521C11.6486 30.7882 11.6852 30.7015 11.6861 30.6108Z" fill="white" fill-opacity="0.63"/>
</g>
<g style="mix-blend-mode:multiply">
<path d="M12.396 28.5025C12.396 28.4688 12.386 28.4358 12.3673 28.4078C12.3486 28.3797 12.322 28.3579 12.2908 28.345C12.2597 28.3321 12.2254 28.3287 12.1924 28.3353C12.1593 28.3419 12.1289 28.3581 12.1051 28.3819C12.0813 28.4058 12.065 28.4361 12.0585 28.4692C12.0519 28.5023 12.0553 28.5365 12.0681 28.5677C12.081 28.5988 12.1029 28.6254 12.1309 28.6442C12.1589 28.6629 12.1919 28.6729 12.2256 28.6729C12.2708 28.6729 12.3142 28.6549 12.3461 28.623C12.3781 28.591 12.396 28.5477 12.396 28.5025Z" fill="white" fill-opacity="0.63"/>
</g>
<g style="mix-blend-mode:multiply">
<path d="M14.5298 32.027C14.5304 32.0012 14.5232 31.9758 14.5093 31.954C14.4953 31.9322 14.4751 31.9152 14.4514 31.905C14.4276 31.8948 14.4013 31.892 14.3759 31.8969C14.3505 31.9018 14.3272 31.9141 14.3089 31.9324C14.2906 31.9507 14.2782 31.9741 14.2733 31.9995C14.2684 32.0248 14.2713 32.0511 14.2815 32.0749C14.2916 32.0987 14.3087 32.1188 14.3305 32.1328C14.3522 32.1468 14.3777 32.1539 14.4035 32.1533C14.437 32.1533 14.4691 32.14 14.4928 32.1163C14.5165 32.0926 14.5298 32.0605 14.5298 32.027Z" fill="white" fill-opacity="0.63"/>
</g>
<g style="mix-blend-mode:multiply">
<path d="M13.5354 30.8218C13.5346 30.7763 13.5159 30.733 13.4835 30.7011C13.451 30.6692 13.4073 30.6514 13.3618 30.6514C13.3166 30.6514 13.2733 30.6693 13.2413 30.7013C13.2094 30.7332 13.1914 30.7766 13.1914 30.8218C13.1914 30.867 13.2094 30.9103 13.2413 30.9423C13.2733 30.9743 13.3166 30.9922 13.3618 30.9922C13.4073 30.9922 13.451 30.9744 13.4835 30.9425C13.5159 30.9106 13.5346 30.8673 13.5354 30.8218Z" fill="white" fill-opacity="0.63"/>
</g>
<g style="mix-blend-mode:multiply">
<path d="M14.9146 28.0047C14.9146 27.9477 14.892 27.8931 14.8517 27.8529C14.8115 27.8126 14.7569 27.79 14.7 27.79C14.643 27.79 14.5885 27.8126 14.5482 27.8529C14.508 27.8931 14.4854 27.9477 14.4854 28.0047C14.4854 28.0616 14.508 28.1162 14.5482 28.1564C14.5885 28.1967 14.643 28.2193 14.7 28.2193C14.7569 28.2193 14.8115 28.1967 14.8517 28.1564C14.892 28.1162 14.9146 28.0616 14.9146 28.0047Z" fill="white" fill-opacity="0.63"/>
</g>
<g style="mix-blend-mode:multiply">
<path d="M31.5248 26.2543C31.5248 26.2262 31.5164 26.1988 31.5008 26.1754C31.4852 26.1521 31.463 26.1339 31.4371 26.1231C31.4111 26.1124 31.3826 26.1096 31.355 26.115C31.3275 26.1205 31.3022 26.134 31.2823 26.1539C31.2625 26.1738 31.2489 26.1991 31.2435 26.2266C31.238 26.2542 31.2408 26.2827 31.2515 26.3087C31.2623 26.3346 31.2805 26.3568 31.3038 26.3724C31.3272 26.388 31.3547 26.3964 31.3828 26.3964C31.4204 26.3964 31.4565 26.3814 31.4832 26.3548C31.5098 26.3281 31.5248 26.292 31.5248 26.2543Z" fill="white" fill-opacity="0.63"/>
</g>
<g style="mix-blend-mode:multiply">
<path d="M32.6639 25.8133C32.6609 25.7548 32.6407 25.6985 32.6059 25.6513C32.5712 25.6041 32.5233 25.5681 32.4683 25.5478C32.4133 25.5275 32.3536 25.5238 32.2965 25.5371C32.2395 25.5504 32.1875 25.5801 32.1472 25.6226C32.1068 25.6651 32.0798 25.7185 32.0694 25.7762C32.0591 25.8339 32.0659 25.8933 32.0889 25.9472C32.112 26.0011 32.1504 26.047 32.1993 26.0793C32.2482 26.1116 32.3055 26.1289 32.3641 26.1289C32.4048 26.129 32.4452 26.1208 32.4826 26.1047C32.5201 26.0887 32.5538 26.0652 32.5819 26.0356C32.61 26.0061 32.6317 25.9712 32.6458 25.9329C32.6599 25.8947 32.6661 25.854 32.6639 25.8133Z" fill="white" fill-opacity="0.63"/>
</g>
<g style="mix-blend-mode:multiply">
<path d="M33.0901 26.8105C33.0907 26.7678 33.0786 26.7259 33.0552 26.6901C33.0319 26.6543 32.9984 26.6263 32.9591 26.6097C32.9197 26.5931 32.8763 26.5886 32.8344 26.5967C32.7925 26.6049 32.754 26.6254 32.7237 26.6556C32.6935 26.6858 32.673 26.7244 32.6649 26.7663C32.6567 26.8082 32.6612 26.8516 32.6778 26.891C32.6945 26.9303 32.7225 26.9638 32.7582 26.9871C32.794 27.0105 32.8359 27.0226 32.8786 27.022C32.9064 27.022 32.9339 27.0165 32.9595 27.0059C32.9852 26.9953 33.0085 26.9797 33.0282 26.96C33.0478 26.9404 33.0634 26.9171 33.074 26.8914C33.0846 26.8658 33.0901 26.8383 33.0901 26.8105Z" fill="white" fill-opacity="0.63"/>
</g>
<g style="mix-blend-mode:multiply">
<path d="M33.7465 26.1535C33.7456 26.1273 33.7346 26.1024 33.7158 26.0841C33.6969 26.0659 33.6717 26.0557 33.6455 26.0557C33.6221 26.0598 33.601 26.0721 33.5858 26.0903C33.5706 26.1084 33.5623 26.1314 33.5623 26.1551C33.5623 26.1788 33.5706 26.2017 33.5858 26.2199C33.601 26.2381 33.6221 26.2503 33.6455 26.2545C33.6722 26.2545 33.6979 26.2439 33.7169 26.2249C33.7358 26.206 33.7465 26.1803 33.7465 26.1535Z" fill="white" fill-opacity="0.63"/>
</g>
<g style="mix-blend-mode:multiply">
<path d="M34.7408 27.2928C34.7402 27.2255 34.7196 27.1599 34.6818 27.1043C34.644 27.0486 34.5905 27.0054 34.5282 26.9801C34.4659 26.9548 34.3974 26.9485 34.3315 26.962C34.2656 26.9755 34.2052 27.0082 34.1578 27.056C34.1105 27.1038 34.0783 27.1646 34.0654 27.2306C34.0525 27.2966 34.0594 27.365 34.0853 27.4271C34.1112 27.4892 34.1549 27.5422 34.2109 27.5796C34.2669 27.6169 34.3326 27.6368 34.3999 27.6368C34.445 27.6368 34.4895 27.6279 34.5311 27.6105C34.5727 27.5932 34.6104 27.5678 34.6421 27.5358C34.6738 27.5039 34.6988 27.4659 34.7157 27.4242C34.7327 27.3825 34.7412 27.3378 34.7408 27.2928Z" fill="white" fill-opacity="0.63"/>
</g>
<g style="mix-blend-mode:multiply">
<path d="M35.2837 26.2261C35.2837 26.1924 35.2737 26.1594 35.255 26.1314C35.2363 26.1034 35.2097 26.0815 35.1785 26.0686C35.1474 26.0557 35.1131 26.0524 35.08 26.0589C35.047 26.0655 35.0166 26.0817 34.9928 26.1056C34.9689 26.1294 34.9527 26.1598 34.9461 26.1928C34.9396 26.2259 34.9429 26.2602 34.9558 26.2913C34.9687 26.3225 34.9906 26.3491 35.0186 26.3678C35.0466 26.3865 35.0796 26.3965 35.1133 26.3965C35.1357 26.3965 35.1578 26.3921 35.1785 26.3835C35.1992 26.375 35.218 26.3624 35.2338 26.3466C35.2496 26.3308 35.2622 26.312 35.2708 26.2913C35.2793 26.2706 35.2837 26.2485 35.2837 26.2261Z" fill="white" fill-opacity="0.63"/>
</g>
<g style="mix-blend-mode:multiply">
<path d="M36.0787 27.7766C36.0779 27.7429 36.0639 27.7108 36.0397 27.6872C36.0156 27.6636 35.9831 27.6504 35.9493 27.6504C35.9189 27.6552 35.8912 27.6707 35.8711 27.6941C35.8511 27.7176 35.8401 27.7474 35.8401 27.7782C35.8401 27.809 35.8511 27.8389 35.8711 27.8623C35.8912 27.8857 35.9189 27.9012 35.9493 27.906C35.9837 27.906 36.0166 27.8924 36.0408 27.8681C36.0651 27.8439 36.0787 27.811 36.0787 27.7766Z" fill="white" fill-opacity="0.63"/>
</g>
<g style="mix-blend-mode:multiply">
<path d="M36.1641 26.978C36.1641 26.9443 36.1541 26.9114 36.1354 26.8834C36.1167 26.8553 36.09 26.8335 36.0589 26.8206C36.0277 26.8077 35.9935 26.8043 35.9604 26.8109C35.9274 26.8175 35.897 26.8337 35.8732 26.8575C35.8493 26.8814 35.8331 26.9117 35.8265 26.9448C35.8199 26.9779 35.8233 27.0121 35.8362 27.0433C35.8491 27.0744 35.871 27.101 35.899 27.1197C35.927 27.1385 35.96 27.1485 35.9937 27.1485C36.0389 27.1485 36.0822 27.1305 36.1142 27.0986C36.1461 27.0666 36.1641 27.0232 36.1641 26.978Z" fill="white" fill-opacity="0.63"/>
</g>
<g style="mix-blend-mode:multiply">
<path d="M36.8616 25.8415C36.8616 25.799 36.8489 25.7573 36.8252 25.722C36.8015 25.6866 36.7678 25.6591 36.7284 25.643C36.689 25.6268 36.6457 25.6228 36.6039 25.6313C36.5622 25.6399 36.524 25.6606 36.4941 25.6909C36.4642 25.7213 36.444 25.7598 36.4361 25.8016C36.4282 25.8435 36.4329 25.8867 36.4496 25.9259C36.4664 25.965 36.4944 25.9983 36.5301 26.0215C36.5658 26.0447 36.6076 26.0568 36.6501 26.0562C36.6782 26.0562 36.7059 26.0506 36.7318 26.0398C36.7577 26.0289 36.7811 26.0131 36.8008 25.9931C36.8205 25.9731 36.836 25.9495 36.8464 25.9234C36.8569 25.8974 36.862 25.8696 36.8616 25.8415Z" fill="white" fill-opacity="0.63"/>
</g>
<g style="mix-blend-mode:multiply">
<path d="M35.6908 27.4506C35.6908 27.432 35.6871 27.4135 35.68 27.3963C35.6728 27.379 35.6624 27.3634 35.6492 27.3502C35.636 27.337 35.6203 27.3265 35.6031 27.3194C35.5859 27.3123 35.5674 27.3086 35.5488 27.3086C35.5301 27.3086 35.5116 27.3123 35.4944 27.3194C35.4772 27.3265 35.4615 27.337 35.4483 27.3502C35.4351 27.3634 35.4247 27.379 35.4175 27.3963C35.4104 27.4135 35.4067 27.432 35.4067 27.4506C35.4067 27.4693 35.4104 27.4877 35.4175 27.505C35.4247 27.5222 35.4351 27.5379 35.4483 27.551C35.4615 27.5642 35.4772 27.5747 35.4944 27.5818C35.5116 27.589 35.5301 27.5926 35.5488 27.5926C35.5674 27.5926 35.5859 27.589 35.6031 27.5818C35.6203 27.5747 35.636 27.5642 35.6492 27.551C35.6624 27.5379 35.6728 27.5222 35.68 27.505C35.6871 27.4877 35.6908 27.4693 35.6908 27.4506Z" fill="white" fill-opacity="0.63"/>
</g>
<g style="mix-blend-mode:multiply">
<path d="M36.8268 27.0086C36.8237 26.95 36.8034 26.8935 36.7685 26.8463C36.7336 26.799 36.6856 26.7631 36.6304 26.7429C36.5753 26.7227 36.5154 26.7191 36.4582 26.7327C36.4011 26.7462 36.3491 26.7763 36.3089 26.8191C36.2687 26.8619 36.2419 26.9156 36.2319 26.9735C36.2219 27.0313 36.2291 27.0909 36.2527 27.1447C36.2763 27.1985 36.3151 27.2442 36.3644 27.2761C36.4138 27.3081 36.4714 27.3248 36.5301 27.3242C36.5706 27.3239 36.6105 27.3153 36.6476 27.2991C36.6847 27.2829 36.7181 27.2593 36.7458 27.2298C36.7735 27.2003 36.795 27.1655 36.8089 27.1275C36.8228 27.0895 36.8289 27.0491 36.8268 27.0086Z" fill="white" fill-opacity="0.63"/>
</g>
<g style="mix-blend-mode:multiply">
<path d="M37.2561 28.0027C37.2561 27.9603 37.2435 27.9188 37.22 27.8835C37.1964 27.8482 37.1629 27.8207 37.1236 27.8044C37.0844 27.7882 37.0413 27.7839 36.9996 27.7922C36.958 27.8005 36.9198 27.8209 36.8898 27.8509C36.8597 27.881 36.8393 27.9192 36.831 27.9608C36.8227 28.0025 36.827 28.0456 36.8432 28.0848C36.8595 28.124 36.887 28.1576 36.9223 28.1811C36.9576 28.2047 36.9991 28.2173 37.0415 28.2173C37.0697 28.2173 37.0976 28.2118 37.1236 28.201C37.1497 28.1902 37.1733 28.1744 37.1933 28.1545C37.2132 28.1345 37.229 28.1109 37.2398 28.0848C37.2506 28.0588 37.2561 28.0309 37.2561 28.0027Z" fill="white" fill-opacity="0.63"/>
</g>
<g style="mix-blend-mode:multiply">
<path d="M37.9096 27.3492C37.9122 27.3347 37.9116 27.3198 37.9078 27.3055C37.904 27.2912 37.8972 27.278 37.8877 27.2666C37.8782 27.2553 37.8663 27.2462 37.853 27.24C37.8396 27.2337 37.825 27.2305 37.8102 27.2305C37.7955 27.2305 37.7809 27.2337 37.7675 27.24C37.7541 27.2462 37.7423 27.2553 37.7328 27.2666C37.7233 27.278 37.7164 27.2912 37.7126 27.3055C37.7088 27.3198 37.7082 27.3347 37.7108 27.3492C37.7082 27.3638 37.7088 27.3787 37.7126 27.393C37.7164 27.4073 37.7233 27.4205 37.7328 27.4319C37.7423 27.4432 37.7541 27.4523 37.7675 27.4585C37.7809 27.4648 37.7955 27.468 37.8102 27.468C37.825 27.468 37.8396 27.4648 37.853 27.4585C37.8663 27.4523 37.8782 27.4432 37.8877 27.4319C37.8972 27.4205 37.904 27.4073 37.9078 27.393C37.9116 27.3787 37.9122 27.3638 37.9096 27.3492Z" fill="white" fill-opacity="0.63"/>
</g>
<g style="mix-blend-mode:multiply">
<path d="M38.9068 28.5015C38.9074 28.4331 38.8877 28.3662 38.8501 28.3092C38.8125 28.2521 38.7589 28.2075 38.6959 28.1811C38.6329 28.1547 38.5634 28.1476 38.4964 28.1608C38.4294 28.1739 38.3678 28.2068 38.3195 28.2551C38.2712 28.3034 38.2384 28.3649 38.2252 28.432C38.212 28.499 38.2191 28.5684 38.2455 28.6314C38.272 28.6944 38.3166 28.7481 38.3736 28.7856C38.4307 28.8232 38.4976 28.8429 38.5659 28.8423C38.6563 28.8423 38.743 28.8064 38.8069 28.7425C38.8708 28.6785 38.9068 28.5919 38.9068 28.5015Z" fill="white" fill-opacity="0.63"/>
</g>
<g style="mix-blend-mode:multiply">
<path d="M39.4466 27.4214C39.4466 27.3877 39.4366 27.3547 39.4179 27.3267C39.3991 27.2987 39.3725 27.2768 39.3414 27.2639C39.3102 27.251 39.276 27.2477 39.2429 27.2543C39.2098 27.2608 39.1795 27.2771 39.1556 27.3009C39.1318 27.3247 39.1156 27.3551 39.109 27.3882C39.1024 27.4212 39.1058 27.4555 39.1187 27.4866C39.1316 27.5178 39.1534 27.5444 39.1815 27.5631C39.2095 27.5818 39.2424 27.5918 39.2761 27.5918C39.3211 27.591 39.364 27.5728 39.3958 27.541C39.4275 27.5092 39.4458 27.4664 39.4466 27.4214Z" fill="white" fill-opacity="0.63"/>
</g>
<g style="mix-blend-mode:multiply">
<path d="M40.2418 28.9718C40.2447 28.9533 40.2436 28.9345 40.2385 28.9165C40.2335 28.8985 40.2245 28.8818 40.2124 28.8676C40.2002 28.8534 40.1852 28.842 40.1682 28.8341C40.1512 28.8263 40.1327 28.8223 40.114 28.8223C40.0953 28.8223 40.0768 28.8263 40.0599 28.8341C40.0429 28.842 40.0278 28.8534 40.0157 28.8676C40.0035 28.8818 39.9946 28.8985 39.9895 28.9165C39.9844 28.9345 39.9833 28.9533 39.9862 28.9718C39.991 29.0023 40.0065 29.03 40.0299 29.05C40.0534 29.0701 40.0832 29.0811 40.114 29.0811C40.1448 29.0811 40.1747 29.0701 40.1981 29.05C40.2215 29.03 40.237 29.0023 40.2418 28.9718Z" fill="white" fill-opacity="0.63"/>
</g>
<g style="mix-blend-mode:multiply">
<path d="M40.3332 28.1767C40.3339 28.1423 40.3242 28.1084 40.3055 28.0795C40.2868 28.0505 40.2599 28.0278 40.2283 28.0141C40.1966 28.0005 40.1616 27.9966 40.1278 28.003C40.0939 28.0093 40.0626 28.0256 40.0381 28.0497C40.0135 28.0739 39.9966 28.1048 39.9897 28.1385C39.9827 28.1723 39.986 28.2074 39.999 28.2393C40.012 28.2712 40.0343 28.2985 40.0629 28.3177C40.0915 28.3369 40.1252 28.3472 40.1596 28.3472C40.2051 28.3472 40.2488 28.3293 40.2813 28.2974C40.3137 28.2656 40.3324 28.2222 40.3332 28.1767Z" fill="white" fill-opacity="0.63"/>
</g>
<g style="mix-blend-mode:multiply">
<path d="M41.0117 27.0371C41.0123 26.9945 41.0003 26.9527 40.9771 26.917C40.9539 26.8813 40.9206 26.8533 40.8815 26.8366C40.8423 26.8199 40.799 26.8152 40.7572 26.8231C40.7154 26.831 40.6768 26.8512 40.6465 26.8811C40.6162 26.911 40.5954 26.9492 40.5869 26.9909C40.5783 27.0326 40.5824 27.0759 40.5985 27.1153C40.6147 27.1547 40.6422 27.1884 40.6776 27.2122C40.7129 27.2359 40.7545 27.2486 40.7971 27.2486C40.8535 27.2486 40.9076 27.2264 40.9478 27.1868C40.9879 27.1473 41.0109 27.0935 41.0117 27.0371Z" fill="white" fill-opacity="0.63"/>
</g>
</svg>
