<svg width="60" height="32" viewBox="0 0 60 32" fill="none" xmlns="http://www.w3.org/2000/svg">
<path fill-rule="evenodd" clip-rule="evenodd" d="M58.3102 17.5066C57.8656 16.7566 57.2346 16.1343 56.4784 15.7002C56.0786 15.4514 55.6767 15.2357 55.2993 14.9592C54.9345 14.7568 54.6233 14.47 54.3918 14.1229C54.3202 14.0185 54.2877 13.8921 54.3 13.7661C54.3123 13.6401 54.3686 13.5224 54.4591 13.4338C54.7106 13.2583 55.1783 13.3493 55.5151 13.341C55.8861 13.3336 56.2478 13.2234 56.5599 13.0228C56.872 12.8221 57.1223 12.5387 57.283 12.2043C57.4537 11.8829 57.5292 11.5195 57.5008 11.1568C57.4724 10.794 57.3412 10.4469 57.1225 10.156C56.6451 9.6682 56.0724 9.28392 55.44 9.02708C55.1682 8.89042 54.9199 8.71117 54.7046 8.49613C54.4475 8.21152 54.3098 7.8388 54.3203 7.45537C54.3267 7.02283 54.4222 6.59626 54.6008 6.20226C54.7764 5.77715 54.9352 5.35516 55.0945 4.9249C55.2404 4.49564 55.2911 4.03977 55.2431 3.58895C55.2384 3.53425 55.2228 3.48103 55.1974 3.43239C55.1719 3.38374 55.137 3.34065 55.0947 3.3056C55.0525 3.27056 55.0037 3.24425 54.9512 3.22823C54.8986 3.21222 54.8435 3.20679 54.7888 3.21228C50.9478 3.90182 47.9774 6.77048 45.8191 9.86761C45.2582 10.6842 44.7049 11.5137 44.2123 12.3676L44.1334 12.3005C43.8907 12.0861 43.5818 11.9616 43.2583 11.9478C43.2201 11.9413 43.1813 11.9389 43.1425 11.9406C43.0676 11.5142 42.9688 11.0924 42.8466 10.677L43.0513 10.6564C43.075 10.6531 43.0968 10.6417 43.113 10.6241C43.1292 10.6066 43.1389 10.584 43.1404 10.5601C43.1418 10.5363 43.135 10.5127 43.1211 10.4933C43.1071 10.4739 43.0869 10.4599 43.0638 10.4537C42.9648 10.422 42.8636 10.3977 42.761 10.3811C42.4971 9.57081 42.1256 8.79955 41.6566 8.08799C40.9329 6.97309 39.9314 6.06589 38.7506 5.4557C37.5448 4.87433 36.2424 4.5198 34.9083 4.40983C33.4501 4.28352 31.9856 4.24612 30.5229 4.29785C28.9307 4.33007 27.3412 4.44432 25.7608 4.64013L25.2375 4.71173C25.08 4.66777 24.9135 4.66758 24.7559 4.71118C24.5529 4.75573 24.3535 4.81564 24.1596 4.89038L23.4468 5.00429C23.4072 5.01007 23.3691 5.02389 23.335 5.04489C23.3009 5.0659 23.2714 5.09365 23.2484 5.12644C23.2254 5.15923 23.2094 5.19637 23.2012 5.23559C23.1931 5.27481 23.193 5.31527 23.2011 5.35451C22.8134 5.57174 22.4808 5.87513 22.229 6.24127C21.8576 6.47398 21.5008 6.72932 21.1607 7.00587C20.2423 7.75016 19.4398 8.62705 18.7796 9.60771C17.9601 10.8043 17.3582 12.1361 17.0016 13.5419C16.8184 13.613 16.6471 13.7117 16.4937 13.8345C16.2454 14.0191 16.0318 14.2463 15.8629 14.5056C15.8643 14.5195 15.8635 14.5334 15.8604 14.547C15.1932 13.9206 14.5301 13.2944 13.8494 12.6838C13.102 12.011 12.3334 11.3451 11.5545 10.7118C10.7756 10.0786 10.041 9.46877 9.24507 8.90919C8.52387 8.35464 7.73055 7.90081 6.88696 7.5602C6.0713 7.22644 5.17833 7.12837 4.30967 7.27714C3.86645 7.34806 3.44673 7.5243 3.08574 7.79105C2.72475 8.05781 2.43304 8.40728 2.23511 8.81014C2.05767 9.20812 2.01525 9.65322 2.11432 10.0776C2.2134 10.5019 2.44852 10.8822 2.78385 11.1604C3.08802 11.3903 3.42325 11.5759 3.77953 11.7116C4.13396 11.8355 4.47469 11.9955 4.79633 12.1893C5.09584 12.3817 5.31641 12.6751 5.41801 13.0163C5.44687 13.1565 5.43889 13.3019 5.39486 13.4381C5.35083 13.5744 5.27224 13.6969 5.16676 13.7938C4.68963 14.329 3.92889 14.5479 3.33716 14.989C2.74543 15.43 2.19437 16.2222 2.47073 17.0612C2.7471 17.9002 3.60253 18.3016 4.38218 18.3827C4.90539 18.4108 5.42985 18.4056 5.9524 18.3672C6.3459 18.3315 6.74244 18.3829 7.11388 18.5175C7.40191 18.617 7.63949 18.8253 7.77564 19.0979C7.82599 19.2417 7.83577 19.3965 7.80391 19.5454C7.77205 19.6943 7.69977 19.8315 7.59502 19.942C7.33306 20.2375 7.00448 20.4664 6.63648 20.6096C6.20609 20.7875 5.79261 21.0038 5.40109 21.256C5.03692 21.4817 4.73835 21.7991 4.53521 22.1763C4.33207 22.5536 4.23146 22.9775 4.24344 23.4058C4.2786 23.8236 4.45323 24.2175 4.73926 24.524C5.0439 24.7946 5.41829 24.9744 5.81995 25.043L5.98723 25.0907C6.05735 25.1129 6.12276 25.1479 6.18016 25.1939C6.18016 25.1939 6.17888 25.2146 6.2037 25.2161C6.22851 25.2176 6.25289 25.2938 6.24977 25.277C6.24665 25.2602 6.27077 25.3406 6.28114 25.3744C6.2609 25.2985 6.27809 25.4241 6.27681 25.4448C6.27383 25.7617 6.24466 26.0779 6.18961 26.3901C6.13143 26.7944 6.23268 27.2056 6.47197 27.5367C6.5983 27.6833 6.75417 27.8017 6.92938 27.884C7.1046 27.9663 7.29521 28.0108 7.48877 28.0144C7.92555 28.0252 8.35854 27.9308 8.75115 27.7391C9.13018 27.5839 9.58486 27.3462 9.952 27.4518C10.0665 27.4877 10.1719 27.548 10.2608 27.6285C10.3038 27.6658 10.3341 27.7156 10.3475 27.7709C10.3475 27.7709 10.3475 27.7709 10.346 27.7957L10.344 27.8288C10.3485 27.7543 10.3396 27.8991 10.3396 27.8991C10.3179 27.9917 10.3286 28.0889 10.37 28.1745C10.4115 28.2601 10.4811 28.3288 10.5672 28.3692C10.6533 28.4095 10.7507 28.419 10.843 28.3961C10.9353 28.3731 11.0169 28.3192 11.0741 28.2432C12.6603 26.1446 14.1074 23.9461 15.5142 21.7286C15.8584 21.1934 16.195 20.6495 16.5113 20.0961C16.7726 20.0955 17.0337 20.1115 17.293 20.1441C17.6537 21.1296 18.1389 22.0649 18.7367 22.9273C20.0914 24.8652 21.9674 26.3797 24.1473 27.2953C26.7466 28.3685 29.5921 28.3401 32.2977 27.6846C33.7599 27.3126 35.1821 26.798 36.5437 26.1481C37.7992 25.6021 38.9754 24.8897 40.0409 24.0301C41.0938 23.1368 41.9028 21.991 42.3921 20.6998C42.7176 19.8309 42.947 18.929 43.0764 18.0102C43.0855 18.0582 43.1054 18.1035 43.1347 18.1425C43.2508 18.3064 43.401 18.4431 43.575 18.5432C44.5813 19.8481 45.6793 21.0796 46.8606 22.2284C48.2046 23.5275 49.6099 24.7764 51.003 26.0203C51.6526 26.5958 52.3638 27.1834 53.2538 27.2921C54.1742 27.366 55.0888 27.0919 55.8169 26.524C56.1617 26.2899 56.452 25.9843 56.6681 25.6279C56.8841 25.2715 57.0208 24.8728 57.0689 24.4588C57.0967 24.0389 56.9752 23.6227 56.7261 23.2836C56.4551 22.9593 56.1271 22.6873 55.7583 22.481C55.4029 22.2944 55.0674 22.0721 54.7571 21.8174C54.6371 21.7093 54.5406 21.5776 54.4737 21.4305C54.4122 21.3 54.3909 21.1542 54.4123 21.0116C54.4621 20.7406 54.7218 20.6362 54.989 20.6111C55.3918 20.607 55.7935 20.654 56.1844 20.7511C56.6582 20.8574 57.1544 20.7939 57.5862 20.5716C57.9105 20.3907 58.1743 20.1181 58.3443 19.7879C58.5228 19.4337 58.6115 19.0411 58.6026 18.6445C58.5937 18.248 58.4874 17.8597 58.2932 17.5139L58.3102 17.5066Z" fill="#506FC6"/>
<path fill-rule="evenodd" clip-rule="evenodd" d="M37.7091 22.7897C37.4047 22.6984 37.0892 22.6497 36.7715 22.6448C36.4406 22.6245 36.1015 22.6036 35.7706 22.5833C35.539 22.569 35.4714 22.9261 35.6988 22.94C36.0463 22.9614 36.3854 22.9823 36.7258 22.9825C37.0534 23.0107 37.3834 22.9905 37.7051 22.9223C37.7197 22.9172 37.7325 22.9078 37.7418 22.8955C37.7511 22.8831 37.7566 22.8683 37.7575 22.8529C37.7585 22.8374 37.7549 22.822 37.7471 22.8086C37.7394 22.7952 37.7279 22.7844 37.714 22.7775L37.7091 22.7897Z" fill="#F59A1C"/>
<path fill-rule="evenodd" clip-rule="evenodd" d="M35.1733 7.52839L36.3248 7.70715C36.698 7.7751 37.0768 7.80812 37.4562 7.80579C37.4771 7.80095 37.4958 7.7895 37.5096 7.77314C37.5235 7.75679 37.5317 7.73641 37.533 7.71503C37.5343 7.69366 37.5287 7.67243 37.5169 7.6545C37.5052 7.63658 37.488 7.62291 37.4679 7.61555C37.1103 7.50054 36.743 7.4182 36.3704 7.36953L35.219 7.19077C35.1744 7.18252 35.1283 7.19234 35.0909 7.21807C35.0535 7.24379 35.0279 7.28332 35.0196 7.32796C35.0114 7.3726 35.0212 7.41868 35.0469 7.45608C35.0726 7.49348 35.1122 7.51912 35.1568 7.52737L35.1733 7.52839Z" fill="#F59A1C"/>
<path fill-rule="evenodd" clip-rule="evenodd" d="M41.4145 16.3426C41.2486 16.2908 41.0726 16.28 40.9016 16.311C40.6957 16.3266 40.4889 16.3278 40.2828 16.3145C39.883 16.2983 39.4868 16.232 39.1035 16.1174C38.8506 16.0437 38.7838 16.4548 39.0325 16.5282C39.434 16.6449 39.8478 16.7136 40.2654 16.7327C40.4665 16.744 40.6682 16.7383 40.8684 16.7158C41.0711 16.7224 41.2708 16.6649 41.439 16.5517C41.4554 16.5389 41.4683 16.5221 41.4764 16.503C41.4844 16.4838 41.4873 16.4628 41.4848 16.4421C41.4823 16.4215 41.4745 16.4018 41.4621 16.3851C41.4497 16.3684 41.4332 16.3551 41.4142 16.3467L41.4145 16.3426Z" fill="#F59A1C"/>
<path fill-rule="evenodd" clip-rule="evenodd" d="M57.6834 19.2617C57.6379 19.3881 57.5717 19.5061 57.4876 19.6108C57.4566 19.6422 57.4292 19.682 57.3983 19.7133L57.3634 19.7402C57.3346 19.7668 57.3039 19.7912 57.2717 19.8135L57.1981 19.8629C56.8313 20.0028 56.4274 20.0117 56.0549 19.8881C55.6495 19.7864 55.2289 19.7605 54.8141 19.8117C54.618 19.8334 54.4281 19.8938 54.2555 19.9893C54.0828 20.0849 53.9309 20.2138 53.8084 20.3685C53.6833 20.5564 53.6045 20.7713 53.5785 20.9956C53.5524 21.2198 53.5798 21.447 53.6585 21.6587C53.654 21.6691 53.6533 21.6808 53.6564 21.6918C53.4625 21.6051 53.2776 21.5065 53.0929 21.4038C52.514 21.0955 51.9676 20.7295 51.4622 20.3113C51.4324 20.2926 51.3968 20.2852 51.3621 20.2908C51.3273 20.2963 51.2957 20.3142 51.2732 20.3413C51.2507 20.3684 51.2389 20.4027 51.2398 20.4379C51.2407 20.473 51.2544 20.5067 51.2783 20.5325C51.7749 20.9934 52.3174 21.4024 52.8971 21.753C53.1783 21.9263 53.4695 22.0829 53.7691 22.2218C53.8705 22.2612 53.975 22.3175 54.0805 22.3572C54.5079 22.7164 54.9826 23.0152 55.4913 23.2452C55.8109 23.3968 56.0756 23.6437 56.2491 23.9519C56.3133 24.0946 56.3447 24.2498 56.3408 24.4063C56.3369 24.5627 56.2979 24.7162 56.2268 24.8555C55.8706 25.5332 55.2726 26.0522 54.5515 26.3093C54.1979 26.4634 53.8118 26.528 53.4273 26.4976C53.0506 26.456 52.6913 26.3165 52.3852 26.093C52.0532 25.856 51.7376 25.5966 51.4408 25.3167L50.3739 24.371C49.7051 23.7694 49.0366 23.1637 48.3733 22.5417C47.082 21.3289 45.8047 20.0921 44.5842 18.8089L44.6669 18.814C45.1091 18.7418 45.5107 18.5131 45.7984 18.1695C46.3571 18.536 46.9155 18.9066 47.4788 19.2651L49.0777 20.2685C49.3534 20.4432 49.6211 20.6133 49.8769 20.7743C50.1312 20.9587 50.4167 21.0958 50.7196 21.179C50.7476 21.1821 50.7758 21.1773 50.8011 21.1651C50.8264 21.1529 50.8477 21.1337 50.8626 21.1099C50.8775 21.0861 50.8854 21.0586 50.8854 21.0305C50.8853 21.0024 50.8774 20.9749 50.8624 20.9511C50.6576 20.715 50.4126 20.5172 50.1386 20.3669C49.8626 20.1963 49.5952 20.0221 49.3189 19.8557L47.7185 18.8771C47.1545 18.5311 46.5896 18.1974 46.0165 17.8633C46.0381 17.8346 46.0567 17.8037 46.072 17.7712C46.2266 17.4851 46.3287 17.1736 46.3735 16.8515C48.5647 17.2759 50.7135 17.8957 52.7941 18.7036C53.1589 18.8464 53.5232 18.9975 53.8793 19.1481C54.0528 19.2294 54.2266 19.3065 54.4048 19.3797C54.5882 19.4846 54.7893 19.5546 54.9982 19.5864C55.1512 19.5958 55.3539 19.4049 55.2062 19.2422C54.9364 19.0134 54.6239 18.8404 54.2868 18.7331C53.9555 18.5841 53.6235 18.4474 53.2951 18.3193C52.6347 18.0545 51.964 17.8222 51.2928 17.5983C49.9378 17.1521 48.5523 16.8046 47.1471 16.5587L46.3989 16.4379C46.3966 16.1163 46.3564 15.7962 46.2791 15.484L46.3494 15.4883C46.8776 15.4046 47.4141 15.3213 47.953 15.2673C48.4919 15.2133 49.0339 15.176 49.5705 15.1592C50.0981 15.1909 50.6277 15.1551 51.1463 15.0527C51.1679 15.0438 51.1865 15.0291 51.2001 15.0101C51.2137 14.9911 51.2217 14.9686 51.2231 14.9453C51.2246 14.922 51.2194 14.8988 51.2082 14.8783C51.1971 14.8578 51.1804 14.8408 51.16 14.8294C50.6261 14.6642 50.0632 14.614 49.5085 14.6821C48.9507 14.6928 48.3938 14.7334 47.8404 14.8037C47.2957 14.8791 46.7557 14.9844 46.2226 15.1193L46.1399 15.1143C46.0506 14.7685 45.9296 14.4317 45.7783 14.1081L45.6287 13.8415C46.2207 13.4628 46.8376 13.0856 47.4503 12.7081C48.5793 12.0561 49.741 11.4624 50.9308 10.9294C51.2684 10.7717 51.6056 10.6222 51.9386 10.4725C52.1135 10.3961 52.2882 10.3238 52.4595 10.2388C52.6236 10.1849 52.7719 10.0914 52.8914 9.9665C52.9048 9.95062 52.9138 9.93154 52.9177 9.91113C52.9215 9.89071 52.92 9.86964 52.9132 9.84999C52.9065 9.83034 52.8948 9.81277 52.8792 9.799C52.8637 9.78523 52.8448 9.77572 52.8245 9.77141C52.5019 9.77146 52.184 9.8487 51.8973 9.99668C51.588 10.0981 51.286 10.2165 50.9785 10.3553C50.3732 10.6128 49.7704 10.8954 49.1788 11.1995C47.9941 11.794 46.8513 12.4686 45.7583 13.2185L45.3724 13.4853C45.1707 13.2073 44.9175 12.9704 44.6266 12.7877C45.155 12.0936 45.6392 11.3762 46.1598 10.6734C46.7318 9.87825 47.3129 9.13766 47.9592 8.41768C49.1109 7.0485 50.5009 5.89907 52.062 5.02499C52.8022 4.62563 53.591 4.32389 54.4088 4.12731C54.3179 4.82368 54.1575 5.50921 53.9301 6.17362C53.7303 6.99164 53.6407 7.90777 54.1266 8.64756C54.5308 9.14373 55.0289 9.55527 55.5923 9.85862C55.8554 10.0236 56.0996 10.2169 56.3208 10.4348C56.4946 10.6126 56.6146 10.8359 56.6673 11.0789C56.7043 11.3533 56.6522 11.6325 56.5187 11.8751C56.4593 11.988 56.383 12.0912 56.2923 12.1808C56.2583 12.2215 56.2198 12.2581 56.1776 12.29L56.0735 12.3625C56.0735 12.3625 55.9965 12.3993 55.996 12.4076C55.6695 12.5165 55.3226 12.5506 54.9811 12.5071C54.7706 12.4893 54.5586 12.5146 54.3582 12.5815C54.1578 12.6484 53.9731 12.7555 53.8155 12.8962C53.6772 13.0488 53.5763 13.2315 53.5208 13.4298C53.4654 13.6282 53.4569 13.8368 53.4961 14.039C53.5973 14.4796 53.8397 14.875 54.1866 15.165C54.8515 15.7622 55.6833 16.1413 56.4153 16.6596C57.0456 17.0533 57.5183 17.6552 57.7513 18.3609C57.8287 18.6597 57.8093 18.9754 57.6958 19.2625L57.6834 19.2617Z" fill="#D1DDF1"/>
<path fill-rule="evenodd" clip-rule="evenodd" d="M57.6833 19.2604C57.6378 19.3868 57.5716 19.5048 57.4874 19.6096C57.4565 19.6409 57.4291 19.6807 57.3981 19.712L57.3633 19.7389C57.3345 19.7655 57.3038 19.7899 57.2716 19.8122L57.1979 19.8616C56.8312 20.0015 56.4273 20.0104 56.0547 19.8868C55.6494 19.7851 55.2287 19.7592 54.814 19.8105C54.6179 19.8321 54.428 19.8925 54.2553 19.9881C54.0827 20.0836 53.9308 20.2125 53.8083 20.3672C53.6832 20.5551 53.6044 20.77 53.5783 20.9943C53.5523 21.2185 53.5797 21.4458 53.6583 21.6574C53.6539 21.6679 53.6532 21.6795 53.6563 21.6905C53.4624 21.6038 53.2775 21.5053 53.0928 21.4026C52.5138 21.0942 51.9675 20.7282 51.462 20.3101C51.4323 20.2913 51.3967 20.284 51.3619 20.2895C51.3272 20.295 51.2956 20.3129 51.2731 20.34C51.2506 20.3671 51.2387 20.4014 51.2397 20.4366C51.2406 20.4718 51.2543 20.5054 51.2782 20.5312C51.7748 20.9921 52.3172 21.4011 52.897 21.7517C53.1781 21.925 53.4693 22.0816 53.769 22.2205C53.8704 22.2599 53.9749 22.3162 54.0804 22.3559C54.5077 22.7152 54.9825 23.014 55.4912 23.2439C55.6997 23.3558 55.8897 23.4991 56.0546 23.6688C55.0752 23.3263 53.6166 22.8089 51.995 22.1737C49.0741 20.9976 47.3559 19.2355 47.1158 19.831C46.8758 20.4265 50.8519 24.6275 55.7532 25.5309C55.4108 25.8757 54.9996 26.1447 54.5464 26.3202C54.1928 26.4743 53.8067 26.5389 53.4222 26.5084C53.0455 26.4668 52.6863 26.3274 52.3802 26.1039C52.0481 25.8669 51.7326 25.6075 51.4357 25.3276L50.3688 24.3819C49.7001 23.7803 49.0316 23.1746 48.3682 22.5525C47.077 21.3398 45.7997 20.1029 44.5792 18.8198L44.6619 18.8249C45.1041 18.7526 45.5057 18.5239 45.7934 18.1804C46.352 18.5469 46.9104 18.9175 47.4738 19.276L49.0727 20.2793C49.3484 20.454 49.6161 20.6241 49.8718 20.7852C50.1262 20.9696 50.4117 21.1067 50.7146 21.1899C50.7425 21.193 50.7708 21.1882 50.7961 21.1759C50.8214 21.1637 50.8427 21.1446 50.8576 21.1208C50.8725 21.097 50.8804 21.0695 50.8803 21.0414C50.8803 21.0133 50.8723 20.9858 50.8573 20.962C50.6526 20.7259 50.4075 20.5281 50.1335 20.3778C49.8576 20.2072 49.5901 20.033 49.3139 19.8666L47.7135 18.888C47.1494 18.542 46.5846 18.2083 46.0115 17.8741C46.0331 17.8454 46.0516 17.8146 46.0669 17.7821C46.2216 17.496 46.3237 17.1845 46.3685 16.8624C48.5597 17.2867 50.7084 17.9066 52.789 18.7145C53.1539 18.8573 53.5182 19.0084 53.8743 19.159C54.0478 19.2402 54.2216 19.3174 54.3997 19.3906C54.5831 19.4954 54.7843 19.5655 54.9931 19.5973C55.1462 19.6067 55.3489 19.4158 55.2011 19.2531C54.9313 19.0243 54.6188 18.8513 54.2817 18.744C53.9505 18.5949 53.6185 18.4583 53.2901 18.3301C52.6297 18.0653 51.959 17.8331 51.2877 17.6092C49.9328 17.163 48.5472 16.8155 47.142 16.5695L46.3939 16.4488C46.3916 16.1272 46.3514 15.807 46.2741 15.4949L46.3444 15.4992C46.8726 15.4154 47.4091 15.3322 47.948 15.2782C48.4869 15.2241 49.0288 15.1869 49.5654 15.1701C50.0931 15.2017 50.6226 15.1659 51.1412 15.0636C51.1628 15.0547 51.1815 15.0399 51.1951 15.0209C51.2087 15.0019 51.2167 14.9795 51.2181 14.9562C51.2195 14.9329 51.2144 14.9097 51.2032 14.8891C51.192 14.8686 51.1753 14.8517 51.155 14.8402C50.621 14.6751 50.0582 14.6249 49.5034 14.693C48.9456 14.7037 48.3888 14.7443 47.8353 14.8146C47.2907 14.8899 46.7506 14.9953 46.2176 15.1302L46.1349 15.1251C46.0479 14.7754 45.9285 14.4344 45.7782 14.1068L45.6286 13.8402C46.2206 13.4615 46.8375 13.0843 47.4502 12.7068C48.5792 12.0548 49.7408 11.4611 50.9306 10.9282C51.2683 10.7704 51.6055 10.6209 51.9385 10.4712C52.1134 10.3948 52.2881 10.3225 52.4593 10.2375C52.6235 10.1836 52.7718 10.0901 52.8912 9.96521C52.9047 9.94934 52.9137 9.93026 52.9175 9.90984C52.9214 9.88942 52.9199 9.86836 52.9131 9.84871C52.9064 9.82905 52.8947 9.81149 52.8791 9.79772C52.8635 9.78394 52.8447 9.77444 52.8244 9.77013C52.5018 9.77018 52.1838 9.84742 51.8972 9.9954C51.5879 10.0968 51.2858 10.2152 50.9784 10.354C50.373 10.6116 49.7703 10.8942 49.1787 11.1982C47.994 11.7927 46.8512 12.4673 45.7582 13.2172L45.3723 13.484C45.1705 13.206 44.9173 12.9692 44.6264 12.7864C44.9605 12.3503 45.2741 11.9087 45.5879 11.4631C45.774 11.5729 45.9835 11.6371 46.1992 11.6504C46.4148 11.6636 46.6306 11.6256 46.8287 11.5394C49.0178 10.8437 52.8906 8.82766 53.4336 9.51699C53.9766 10.2063 51.0221 11.4652 48.4263 12.8333C45.8305 14.2014 48.8043 13.911 51.4902 12.6979C54.1761 11.4848 54.1387 11.2832 55.3243 11.5803C55.7517 11.713 56.2094 11.7122 56.6364 11.578C56.6068 11.6843 56.5671 11.7875 56.5178 11.8862C56.4584 11.9992 56.3821 12.1023 56.2914 12.192C56.2574 12.2326 56.2189 12.2692 56.1767 12.3012L56.0726 12.3736C56.0726 12.3736 55.9956 12.4104 55.9951 12.4187C55.6686 12.5277 55.3217 12.5617 54.9802 12.5182C54.7697 12.5004 54.5577 12.5257 54.3573 12.5926C54.1569 12.6595 53.9722 12.7666 53.8146 12.9073C53.6763 13.0599 53.5754 13.2426 53.5199 13.441C53.4645 13.6393 53.456 13.8479 53.4952 14.0501C53.5964 14.4907 53.8388 14.8861 54.1857 15.1761C54.4485 15.4042 54.7286 15.6116 55.0235 15.7964C53.2553 15.588 48.6232 15.0997 48.3878 15.6872C48.0895 16.4202 52.5778 16.5468 54.6618 17.8291C56.3295 18.8616 56.8809 19.2111 57.7983 18.7403C57.8023 18.9237 57.7655 19.1058 57.6908 19.2733L57.6833 19.2604Z" fill="#A0B9E2"/>
<path fill-rule="evenodd" clip-rule="evenodd" d="M42.1818 18.5824C41.9687 19.8286 41.4924 21.015 40.7845 22.0626C40.0022 23.0962 39.0067 23.9496 37.8657 24.5649C36.6736 25.2469 35.4226 25.8202 34.1278 26.2779L33.9834 26.3313L33.7122 26.2856C33.5302 26.2744 33.3487 26.2549 33.1678 26.2272L32.1239 26.1215C31.4229 26.0451 30.7228 25.9522 30.0197 25.8426C28.6255 25.6281 27.2356 25.3434 25.8705 24.9937C25.0817 24.7916 24.2932 24.5853 23.5193 24.3426C23.373 24.2921 23.2641 24.5096 23.4105 24.5601C24.7575 25.0367 26.1276 25.4452 27.5157 25.784C28.9238 26.1158 30.3502 26.3643 31.7875 26.5284C32.2011 26.5538 32.6122 26.6206 32.9927 26.644C30.7255 27.3985 28.2983 27.5358 25.9604 27.0418C23.8369 26.4894 21.9183 25.3348 20.4359 23.717C19.4492 22.6543 18.6719 21.4149 18.1447 20.0639C18.1551 20.0104 18.1547 19.9554 18.1438 19.902C18.1328 19.8486 18.1114 19.7979 18.0808 19.7528C18.0571 19.712 18.0271 19.6752 17.9921 19.6436C17.7993 19.0753 17.656 18.4914 17.5639 17.8985C17.5667 17.853 17.549 17.8021 17.5436 17.7561C17.7859 17.9329 18.02 18.1092 18.2675 18.2697C18.7067 18.5541 19.1508 18.8264 19.6124 19.0831C20.5182 19.5936 21.4518 20.053 22.4089 20.4591C24.3425 21.2848 26.3588 21.9015 28.4234 22.2986C29.5717 22.547 30.7459 22.654 31.9201 22.6175C31.9459 22.6141 31.9696 22.6019 31.9873 22.5829C32.005 22.5639 32.0156 22.5394 32.0172 22.5134C32.0188 22.4875 32.0113 22.4619 31.9961 22.4409C31.9808 22.4199 31.9587 22.4048 31.9336 22.3983C30.9254 22.1868 29.8996 22.0573 28.8898 21.8707C27.88 21.684 26.8893 21.457 25.9141 21.1811C23.9356 20.6075 22.0179 19.8416 20.1886 18.8944C19.673 18.6385 19.1754 18.3588 18.6739 18.0747L17.9324 17.643C17.7969 17.5516 17.6438 17.4758 17.5078 17.3927C17.3184 15.3405 17.713 13.2765 18.6462 11.4389C18.7509 11.2211 18.8636 11.008 18.9841 10.8037C19.8723 11.4889 20.8046 12.1149 21.775 12.6775C22.8154 13.2695 23.8924 13.7947 24.9994 14.25C27.2058 15.1698 29.5139 15.8233 31.875 16.1965C32.5373 16.2953 33.197 16.3691 33.8665 16.4186C34.2015 16.4392 34.5407 16.4601 34.8716 16.4804C35.0411 16.4909 35.2045 16.4677 35.3663 16.4693C35.5281 16.471 35.7193 16.4661 35.8907 16.4476C35.9302 16.4501 35.969 16.4367 35.9987 16.4105C36.0283 16.3843 36.0463 16.3474 36.0487 16.3079C36.0512 16.2684 36.0378 16.2296 36.0116 16.1999C35.9854 16.1703 35.9485 16.1523 35.909 16.1498C35.6262 16.0909 35.3279 16.0809 35.044 16.0385C34.7602 15.9962 34.4585 15.9734 34.1656 15.943C33.5843 15.8782 32.9998 15.7965 32.4197 15.711C31.2558 15.5388 30.1019 15.3043 28.9631 15.0086C26.6958 14.4165 24.5004 13.5771 22.4166 12.5052C21.2786 11.9285 20.1703 11.295 19.0959 10.6072C20.0821 8.98189 21.4296 7.60581 23.0339 6.58579L23.3922 6.36289C23.5063 6.31144 23.6156 6.2501 23.719 6.17957L23.8541 6.07578C24.9778 6.66202 26.1449 7.16128 27.345 7.56916C28.5633 8.00943 29.8088 8.41401 31.0576 8.76482C33.5618 9.47677 36.1138 10.0083 38.694 10.3554C39.4067 10.4449 40.1238 10.5305 40.8386 10.587C41.2149 10.6101 41.5789 10.6325 41.9511 10.6554C42.3271 11.8775 42.5203 13.1484 42.5245 14.427C42.5297 15.3949 42.4703 16.3621 42.3465 17.3221C42.3303 17.3531 42.3208 17.3872 42.3186 17.4221C42.3165 17.457 42.3217 17.492 42.334 17.5248C42.2866 17.8913 42.2316 18.245 42.1601 18.5976L42.1818 18.5824Z" fill="white"/>
<path fill-rule="evenodd" clip-rule="evenodd" d="M42.1817 18.583C41.9687 19.8292 41.4924 21.0156 40.7845 22.0632C40.0021 23.0968 39.0067 23.9502 37.8657 24.5655C36.6736 25.2475 35.4226 25.8208 34.1277 26.2785L33.9833 26.3319L33.7121 26.2862C33.5301 26.275 33.3487 26.2555 33.1677 26.2278L32.1239 26.1221C31.4228 26.0457 30.7228 25.9528 30.0196 25.8432C28.6254 25.6287 27.2356 25.344 25.8705 24.9943C25.0817 24.7922 24.2931 24.5859 23.5193 24.3432C23.3729 24.2927 23.2641 24.5102 23.4104 24.5607C24.7574 25.0373 26.1276 25.4458 27.5157 25.7846C28.9238 26.1164 30.3502 26.3649 31.7875 26.529C32.2011 26.5544 32.6121 26.6212 32.9926 26.6446C30.7254 27.3991 28.2982 27.5364 25.9604 27.0424C23.8368 26.49 21.9183 25.3354 20.4358 23.7176C19.4491 22.6549 18.6718 21.4155 18.1447 20.0645C18.155 20.011 18.1547 19.956 18.1437 19.9026C18.1328 19.8492 18.1114 19.7985 18.0808 19.7534C18.057 19.7126 18.0271 19.6758 17.992 19.6442C17.7993 19.0759 17.656 18.492 17.5638 17.8991C17.5666 17.8536 17.549 17.8027 17.5435 17.7567C17.7859 17.9335 18.02 18.1098 18.2675 18.2703C18.7067 18.5547 19.1507 18.827 19.6124 19.0837C20.5181 19.5942 21.4518 20.0536 22.4089 20.4597C22.7689 20.6147 23.1337 20.7575 23.5068 20.9008C24.3522 21.2592 25.2261 21.5463 26.1193 21.759C26.8784 21.9717 27.6519 22.1522 28.4224 22.3158C29.5706 22.5641 30.7449 22.6712 31.9191 22.6346C31.9448 22.6312 31.9686 22.619 31.9863 22.6C32.004 22.581 32.0145 22.5565 32.0161 22.5306C32.0177 22.5047 32.0102 22.479 31.995 22.458C31.9798 22.437 31.9577 22.422 31.9326 22.4154C31.3465 22.2922 30.763 22.194 30.1749 22.1039C35.822 21.5462 40.4092 16.8258 42.3085 12.1352C42.441 12.9009 42.5141 13.6757 42.5271 14.4527C42.5323 15.4206 42.4728 16.3878 42.349 17.3478C42.3328 17.3788 42.3233 17.4129 42.3212 17.4478C42.319 17.4827 42.3243 17.5177 42.3366 17.5504C42.2891 17.917 42.2342 18.2707 42.1627 18.6233L42.1817 18.583ZM19.9563 18.7562C19.5299 18.5348 19.1091 18.2889 18.6873 18.0595L17.9458 17.6278C17.8103 17.5365 17.6572 17.4606 17.5212 17.3775C17.4748 16.938 17.4576 16.496 17.4697 16.0542C18.1666 17.0679 19.0039 17.9776 19.9563 18.7562Z" fill="white"/>
<path fill-rule="evenodd" clip-rule="evenodd" d="M42.1819 18.5823C41.9688 19.8285 41.4925 21.015 40.7846 22.0625C40.0022 23.0962 39.0068 23.9496 37.8658 24.5649C36.6737 25.2469 35.4227 25.8202 34.1279 26.2779L33.9834 26.3313L33.7122 26.2855C33.5303 26.2743 33.3488 26.2549 33.1678 26.2271L32.124 26.1214C31.4229 26.0451 30.7229 25.9522 30.0197 25.8425C28.6256 25.6281 27.2357 25.3433 25.8706 24.9937C25.0818 24.7916 24.2933 24.5853 23.5194 24.3426C23.3731 24.2921 23.2642 24.5096 23.4105 24.5601C24.7576 25.0367 26.1277 25.4452 27.5158 25.784C28.9239 26.1158 30.3503 26.3643 31.7876 26.5283C32.2012 26.5538 32.6122 26.6206 32.9927 26.644C30.7255 27.3985 28.2984 27.5358 25.9605 27.0418C23.8369 26.4894 21.9184 25.3348 20.4359 23.717C19.4492 22.6543 18.6719 21.4149 18.1448 20.0639C18.1551 20.0104 18.1548 19.9554 18.1439 19.902C18.1329 19.8486 18.1115 19.7979 18.0809 19.7528C18.0572 19.712 18.0272 19.6751 17.9922 19.6435C17.7994 19.0753 17.6561 18.4914 17.5639 17.8985C17.5667 17.853 17.5491 17.8021 17.5436 17.7561C17.786 17.9329 18.0201 18.1092 18.2676 18.2697C18.7068 18.5541 19.1509 18.8264 19.6125 19.0831C20.5183 19.5936 21.4519 20.053 22.409 20.459C23.1126 20.7639 23.839 21.0369 24.5629 21.2807C25.3512 21.5732 26.1594 21.8088 26.9814 21.9857C27.4641 22.1026 27.9393 22.2066 28.4235 22.2986C29.5717 22.5469 30.746 22.654 31.9202 22.6175C31.946 22.6141 31.9697 22.6018 31.9874 22.5829C32.0051 22.5639 32.0157 22.5393 32.0172 22.5134C32.0188 22.4875 32.0114 22.4619 31.9961 22.4409C31.9809 22.4199 31.9588 22.4048 31.9337 22.3983C31.5237 22.3149 31.138 22.2414 30.7435 22.1756C36.0494 21.5637 40.4017 17.2855 42.4176 12.8594C42.4811 13.3826 42.518 13.9086 42.5283 14.4355C42.5335 15.4034 42.474 16.3706 42.3502 17.3306C42.334 17.3616 42.3245 17.3957 42.3223 17.4306C42.3202 17.4655 42.3254 17.5005 42.3377 17.5333C42.2903 17.8998 42.2353 18.2535 42.1638 18.6061L42.1819 18.5823ZM20.6084 19.0904L20.2063 18.8788C19.6906 18.6229 19.193 18.3432 18.6916 18.0592L17.9501 17.6275C17.8146 17.5361 17.6615 17.4603 17.5254 17.3772C17.4641 16.7918 17.4545 16.2022 17.4968 15.6152C18.3186 16.9484 19.3708 18.125 20.6043 19.0901L20.6084 19.0904ZM26.9946 21.9741C28.2262 22.2484 29.4954 22.3125 30.7484 22.1635L26.9946 21.9741Z" fill="#E4EBF7"/>
<path fill-rule="evenodd" clip-rule="evenodd" d="M36.0404 16.3118C36.0479 16.2912 36.0507 16.2691 36.0487 16.2473C36.0467 16.2254 36.0399 16.2042 36.0287 16.1853C36.0176 16.1664 36.0024 16.1502 35.9843 16.1378C35.9662 16.1254 35.9455 16.1171 35.9239 16.1137C35.641 16.0547 35.3427 16.0447 35.0589 16.0023C34.775 15.96 34.4734 15.9373 34.1805 15.9068C33.5991 15.842 33.0146 15.7604 32.4345 15.6749C31.2706 15.5026 30.1168 15.2681 28.978 14.9724C26.7107 14.3804 24.5153 13.5409 22.4314 12.4691C21.2935 11.8923 20.1852 11.2588 19.1107 10.571C20.0969 8.9457 21.4445 7.56961 23.0488 6.5496L23.407 6.3267C23.5211 6.27525 23.6305 6.21391 23.7338 6.14337L23.8542 6.07605C24.978 6.66229 26.145 7.16155 27.3451 7.56943C28.5635 8.0097 29.809 8.41428 31.0578 8.76509C33.562 9.47704 36.114 10.0086 38.6942 10.3557C39.4069 10.4452 40.124 10.5308 40.8387 10.5872C41.2151 10.6104 41.5791 10.6328 41.9513 10.6557C42.3272 11.8777 42.5205 13.1487 42.5247 14.4273C42.5359 15.1448 42.5098 15.8623 42.4464 16.5771C40.0056 16.5723 36.0357 16.3198 36.0357 16.3198L36.0404 16.3118ZM39.7365 23.2438C39.1641 23.7564 38.5364 24.2038 37.8651 24.5776C36.673 25.2596 35.422 25.8329 34.1272 26.2906L33.9827 26.344L33.7116 26.2982C33.5296 26.287 33.3481 26.2676 33.1672 26.2398L32.1233 26.1341C31.4223 26.0578 30.7222 25.9649 30.0191 25.8552C28.6249 25.6408 27.235 25.356 25.8699 25.0064C25.0811 24.8043 24.2926 24.598 23.5187 24.3553C23.3724 24.3048 23.2635 24.5223 23.4098 24.5728C24.7569 25.0494 26.127 25.4579 27.5151 25.7967C28.9232 26.1285 30.3496 26.377 31.7869 26.541C32.2005 26.5665 32.6116 26.6333 32.9921 26.6567C30.7249 27.4112 28.2977 27.5485 25.9598 27.0545C23.8351 26.4985 21.9166 25.3395 20.436 23.7173C19.4493 22.6546 18.672 21.4152 18.1449 20.0642C18.1552 20.0107 18.1549 19.9557 18.1439 19.9023C18.133 19.8489 18.1116 19.7982 18.081 19.7531C18.0572 19.7123 18.0273 19.6754 17.9922 19.6438C17.7995 19.0756 17.6562 18.4917 17.564 17.8988C17.5668 17.8533 17.5492 17.8024 17.5437 17.7564C17.7861 17.9332 18.0202 18.1095 18.2677 18.27C18.7069 18.5544 19.1509 18.8267 19.6126 19.0834C20.5183 19.5939 21.452 20.0533 22.4091 20.4593C24.3426 21.2851 26.3589 21.9018 28.4236 22.2989C29.5718 22.5472 30.7461 22.6543 31.9203 22.6178C31.9372 22.6176 31.9537 22.6131 31.9684 22.6047C31.983 22.5964 31.9953 22.5845 32.0041 22.5701C32.0129 22.5556 32.0178 22.5392 32.0185 22.5224C32.0192 22.5055 32.0156 22.4888 32.008 22.4737C33.6644 22.5424 37.3425 22.7478 39.7362 23.2479L39.7365 23.2438Z" fill="#7897EE"/>
<path fill-rule="evenodd" clip-rule="evenodd" d="M42.3108 12.1015C42.4433 12.8672 42.5164 13.642 42.5294 14.419C42.5407 15.1365 42.5145 15.8541 42.4512 16.5688C41.6209 16.5676 40.6511 16.5411 39.695 16.4948C40.7779 15.162 41.6595 13.6777 42.3115 12.0891L42.3108 12.1015ZM23.504 20.8834C24.3494 21.2418 25.2232 21.5289 26.1165 21.7416C26.8756 21.9543 27.6491 22.1348 28.4195 22.2984C29.5678 22.5467 30.742 22.6538 31.9162 22.6172C31.9331 22.617 31.9496 22.6126 31.9643 22.6042C31.979 22.5959 31.9913 22.5839 32 22.5695C32.0088 22.5551 32.0138 22.5387 32.0145 22.5219C32.0152 22.505 32.0115 22.4883 32.004 22.4732C33.6604 22.5418 37.3384 22.7473 39.7321 23.2474C39.1598 23.76 38.5321 24.2074 37.8608 24.5812C36.6687 25.2632 35.4177 25.8365 34.1229 26.2942L33.9784 26.3476L33.7072 26.3019C33.5253 26.2907 33.3438 26.2712 33.1628 26.2435L32.119 26.1377C31.4179 26.0614 30.7179 25.9685 30.0147 25.8589C28.6206 25.6444 27.2307 25.3597 25.8656 25.01C25.0768 24.8079 24.2882 24.6016 23.5144 24.3589C23.368 24.3084 23.2592 24.5259 23.4055 24.5764C24.7526 25.053 26.1227 25.4615 27.5108 25.8003C28.9189 26.1321 30.3453 26.3806 31.7826 26.5447C32.1962 26.5701 32.6072 26.6369 32.9877 26.6603C30.7205 27.4148 28.2933 27.5521 25.9555 27.0581C23.8319 26.5003 21.915 25.3399 20.4361 23.717C19.4494 22.6543 18.6721 21.4149 18.145 20.0639C18.1553 20.0104 18.155 19.9554 18.144 19.902C18.133 19.8486 18.1117 19.7979 18.0811 19.7528C18.0573 19.712 18.0274 19.6752 17.9923 19.6436C17.7995 19.0753 17.6563 18.4914 17.5641 17.8985C17.5669 17.853 17.5493 17.8021 17.5438 17.7561C17.7861 17.9329 18.0202 18.1092 18.2678 18.2697C18.7069 18.5541 19.151 18.8264 19.6126 19.0831C20.5184 19.5936 21.452 20.053 22.4092 20.4591C22.7691 20.6141 23.134 20.7569 23.5071 20.9002L23.504 20.8834Z" fill="#7897EE"/>
<path fill-rule="evenodd" clip-rule="evenodd" d="M34.1706 26.2604L34.1292 26.2578L33.9848 26.3112L33.7136 26.2655C33.6459 26.2655 33.5782 26.2613 33.5109 26.253C33.7301 26.2665 33.9258 26.2578 34.1711 26.2521L34.1706 26.2604ZM23.3719 24.3798C23.3226 24.439 23.3209 24.5344 23.4106 24.5607C24.7576 25.0373 26.1278 25.4458 27.5159 25.7846C28.924 26.1164 30.3504 26.3649 31.7877 26.529C32.2013 26.5544 32.6123 26.6212 32.9928 26.6446C30.7256 27.3991 28.2984 27.5364 25.9606 27.0424C23.837 26.49 21.9185 25.3354 20.436 23.7176C20.0093 23.259 19.623 22.7644 19.2815 22.2393C20.5585 23.1134 21.9321 23.8373 23.375 24.3966L23.3719 24.3798Z" fill="#F2EBE7"/>
<path fill-rule="evenodd" clip-rule="evenodd" d="M16.7711 19.316C16.6677 19.3097 16.5808 19.3043 16.4981 19.2992C16.4707 19.2957 16.443 19.294 16.4154 19.2942C16.3434 19.2662 16.277 19.2255 16.2193 19.1742C16.0746 19.0087 15.983 18.8034 15.9567 18.5851C15.9187 18.2619 15.9054 17.9364 15.9169 17.6112C15.9357 17.3051 15.9336 17.002 15.9731 16.6972C16.0227 16.1361 16.1862 15.591 16.4536 15.0952C16.5457 14.9178 16.6605 14.7532 16.7951 14.6055C16.6995 15.1802 16.6471 15.7612 16.6384 16.3437C16.6368 17.3644 16.7769 18.3804 17.0547 19.3625L16.7711 19.316Z" fill="#324782"/>
<path fill-rule="evenodd" clip-rule="evenodd" d="M11.7606 25.9242L10.9192 27.1179C10.8595 27.0496 10.7923 26.9884 10.7187 26.9354C10.5447 26.806 10.3455 26.7143 10.134 26.6662C9.92249 26.6182 9.70328 26.6149 9.49041 26.6564C9.02561 26.7726 8.57065 26.925 8.12972 27.1124C8.08297 27.1311 8.03486 27.1462 7.9858 27.1575L7.95684 27.1558C7.87125 27.1731 7.78454 27.1844 7.69737 27.1896C7.56736 27.1957 7.43741 27.1764 7.31477 27.1329C7.26161 27.1113 7.21287 27.0802 7.17096 27.041C7.17096 27.041 7.17096 27.041 7.17224 27.0203C7.16299 27.0005 7.15162 26.9817 7.13832 26.9643C7.12395 26.9327 7.11208 26.9 7.10281 26.8666C7.10281 26.8666 7.10281 26.8666 7.10408 26.8459L7.10536 26.8252C7.10765 26.788 7.10968 26.7549 7.09104 26.7206C7.09628 26.6808 7.09875 26.6407 7.09841 26.6006C7.12055 26.2408 7.20395 25.8972 7.20515 25.5403C7.20448 25.335 7.15885 25.1324 7.07145 24.9467C7.27686 24.8612 7.47587 24.761 7.66694 24.647L8.32847 24.2186L9.76034 23.3477C10.2349 23.0572 10.7177 22.7672 11.1886 22.4682C11.6772 22.2202 12.119 21.8892 12.4942 21.4899C12.5531 21.4105 12.509 21.25 12.379 21.2711C11.8584 21.4303 11.3705 21.6815 10.9384 22.0128C10.4549 22.3151 9.97545 22.6178 9.4955 22.9287C9.01556 23.2396 8.55757 23.5311 8.09004 23.8427C7.85628 23.9986 7.63078 24.1549 7.40917 24.3156C7.22034 24.4423 7.03986 24.581 6.86885 24.7308C6.81052 24.6515 6.74067 24.5815 6.6616 24.5229C6.49108 24.3977 6.29786 24.3069 6.09269 24.2554C5.92929 24.2122 5.74082 24.1715 5.6149 24.1264C5.48008 24.0761 5.36069 23.9915 5.26849 23.881C5.17628 23.7705 5.11444 23.6379 5.08905 23.4963L5.0727 23.4247C5.0731 23.386 5.07547 23.3473 5.07982 23.3089C5.07187 23.2439 5.07592 23.178 5.09178 23.1145C5.11017 22.9401 5.16731 22.7719 5.25904 22.6224C5.64861 21.8908 6.50314 21.632 7.2061 21.2726C7.90905 20.9131 8.7112 20.2235 8.68158 19.2876C8.66605 18.9538 8.53957 18.6348 8.32218 18.3812C8.48634 18.412 8.64713 18.4302 8.80353 18.4523C9.36709 18.5368 9.92931 18.5755 10.5003 18.6065C11.0672 18.6248 11.6346 18.6139 12.2003 18.574C12.7872 18.5734 13.368 18.4538 13.9074 18.2224C14.0017 18.1742 14.0104 18.0336 13.8951 18.0182C13.3401 17.9731 12.7818 17.9917 12.2311 18.0736C11.6723 18.114 11.1235 18.1259 10.5676 18.1207C10.0147 18.1152 9.46255 18.0813 8.91321 18.019C8.47895 17.9923 8.0415 17.8823 7.61315 17.8269C7.44408 17.7518 7.27061 17.6871 7.09368 17.6331C6.19498 17.3951 5.2578 17.7153 4.35892 17.5479C4.02502 17.4869 3.71862 17.3229 3.48274 17.0789C3.39852 16.986 3.33326 16.8777 3.29063 16.7598C3.29318 16.7185 3.27218 16.6549 3.26097 16.567L3.26428 16.5133C3.26885 16.4604 3.27902 16.4081 3.29463 16.3574C3.29463 16.3574 3.29717 16.316 3.29743 16.3119C3.29768 16.3077 3.33146 16.2309 3.35469 16.1909C3.38302 16.1348 3.41831 16.0826 3.45973 16.0354C3.56067 15.9048 3.67961 15.7891 3.81299 15.6918C4.10701 15.4822 4.4169 15.2959 4.73985 15.1344C5.40635 14.7602 6.096 14.2796 6.26892 13.4931C6.30603 13.3248 6.31667 13.1518 6.30046 12.9803L6.67073 13.3725C7.02391 13.7248 7.39559 14.0581 7.7842 14.3709C8.17473 14.6837 8.58399 14.9723 9.00971 15.2351C9.22593 15.3646 9.45143 15.4781 9.68081 15.596C9.88621 15.7216 10.1165 15.801 10.3557 15.8285C10.3775 15.8263 10.3984 15.8183 10.4162 15.8053C10.434 15.7924 10.448 15.7749 10.4568 15.7548C10.4657 15.7347 10.469 15.7125 10.4665 15.6907C10.464 15.6689 10.4557 15.6481 10.4426 15.6304C10.2733 15.4584 10.0775 15.3146 9.86265 15.2045L9.2763 14.8156C8.87772 14.5461 8.47991 14.2643 8.08337 13.9617C7.68682 13.6592 7.32489 13.3339 6.97174 13.0008C6.61859 12.6677 6.30108 12.2953 5.93062 11.9736C5.91231 11.9538 5.88872 11.9398 5.86264 11.933C5.83657 11.9263 5.80911 11.9271 5.78351 11.9355C5.58067 11.7115 5.34645 11.5181 5.08816 11.3613C4.74212 11.1809 4.38606 11.0204 4.02173 10.8806C3.72871 10.7633 3.4581 10.5964 3.22177 10.3872C3.01003 10.1306 2.90758 9.80116 2.9365 9.46978C2.96542 9.1384 3.12341 8.83165 3.3764 8.61568C3.66573 8.37993 4.0011 8.20719 4.36103 8.10852C4.72097 8.00984 5.09754 7.98741 5.46664 8.04264C7.19347 8.24849 8.63285 9.48283 9.94407 10.5059C11.5078 11.7437 13.0173 13.053 14.5224 14.3661C14.8098 14.6204 15.1145 14.8633 15.4185 15.1186C15.3814 15.1377 15.3497 15.1657 15.3263 15.2002C15.173 15.4647 15.0161 15.7208 14.8618 16.0019C14.8092 16.1149 14.753 16.2194 14.7045 16.3326L14.1536 16.2448C13.6689 16.161 13.1829 16.0979 12.6938 16.018C12.6716 16.0142 12.649 16.0148 12.6271 16.0197C12.6052 16.0246 12.5845 16.0338 12.5662 16.0468C12.5478 16.0597 12.5322 16.0762 12.5202 16.0951C12.5082 16.1141 12.5001 16.1353 12.4963 16.1574C12.4925 16.1795 12.4931 16.2022 12.498 16.224C12.5029 16.2459 12.5122 16.2666 12.5251 16.285C12.538 16.3033 12.5545 16.3189 12.5734 16.3309C12.5924 16.3429 12.6136 16.351 12.6357 16.3548C13.115 16.4591 13.5938 16.5715 14.0783 16.6595L14.5087 16.7482C14.2398 17.2645 14.0268 17.8081 13.8735 18.3697C13.8091 18.6197 13.8075 18.8818 13.8689 19.1325C13.9302 19.3833 14.0526 19.615 14.2251 19.807C14.3873 19.9824 14.5737 20.1336 14.7787 20.2562C14.9405 20.38 15.1283 20.4654 15.3279 20.5059C14.8681 21.2332 14.4079 21.9646 13.9191 22.6901C13.2081 23.7881 12.4813 24.8726 11.7222 25.9426L11.7606 25.9242Z" fill="#D1DDF1"/>
<path fill-rule="evenodd" clip-rule="evenodd" d="M11.7604 25.9225L10.919 27.1162C10.8593 27.0479 10.792 26.9867 10.7185 26.9337C10.6551 26.8839 10.5868 26.8407 10.5147 26.8049C11.6917 24.6106 11.4665 22.7368 10.3081 23.4129C9.5763 23.837 8.19796 25.255 7.05014 26.3676C7.09499 26.0945 7.12303 25.819 7.1341 25.5425C7.13344 25.3372 7.0878 25.1346 7.0004 24.9489C7.20581 24.8634 7.40482 24.7632 7.59589 24.6492L8.32824 24.2169L9.76011 23.3459C10.2346 23.0555 10.7174 22.7655 11.1884 22.4665C11.677 22.2185 12.1188 21.8875 12.494 21.4882C12.5528 21.4087 12.5087 21.2483 12.3787 21.2693C11.8581 21.4286 11.3702 21.6798 10.9382 22.011C10.4546 22.3134 9.97522 22.616 9.49527 22.927C9.01533 23.2379 8.55734 23.5294 8.08981 23.841C7.85605 23.9969 7.63055 24.1532 7.40894 24.3139C7.22011 24.4406 7.03963 24.5792 6.86862 24.7291C6.81029 24.6498 6.74044 24.5798 6.66137 24.5212C6.49085 24.396 6.29763 24.3052 6.09246 24.2537C5.92906 24.2105 5.74059 24.1698 5.61467 24.1247C5.42809 24.0585 5.27328 23.9245 5.18109 23.7493C8.06475 24.1135 13.4419 20.521 12.2727 19.6188C11.611 19.1048 10.0401 19.2656 8.64 19.5531C8.65137 19.4695 8.65656 19.3852 8.65552 19.3008C8.63999 18.9671 8.51351 18.6481 8.29611 18.3945C8.46028 18.4253 8.62107 18.4435 8.77747 18.4656C9.34103 18.5501 9.90325 18.5888 10.4743 18.6198C11.0411 18.6381 11.6085 18.6272 12.1742 18.5873C12.7612 18.5867 13.3419 18.4671 13.8814 18.2357C13.9757 18.1875 13.9843 18.0469 13.869 18.0315C13.314 17.9864 12.7557 18.005 12.205 18.0869C11.6462 18.1273 11.0975 18.1392 10.5415 18.134C9.98866 18.1285 9.43648 18.0946 8.88715 18.0323C8.45288 18.0056 8.01543 17.8956 7.58708 17.8402C7.41802 17.7651 7.24454 17.7004 7.06761 17.6464C6.16892 17.4084 5.23174 17.7286 4.33285 17.5612C3.99896 17.5002 3.69256 17.3362 3.45667 17.0921C3.37246 16.9993 3.3072 16.891 3.26457 16.7731C3.26711 16.7318 3.24611 16.6682 3.23491 16.5803L3.23822 16.5266C3.24279 16.4737 3.25296 16.4214 3.26856 16.3707C3.26856 16.3707 3.27111 16.3293 3.27136 16.3252C3.27162 16.321 3.3054 16.2442 3.32862 16.2042C3.35696 16.1481 3.39225 16.0959 3.43367 16.0487C3.47834 15.9975 3.51448 15.9499 3.54985 15.9147C5.55317 17.0924 14.0632 17.5743 12.7147 17.0222C11.2778 16.4232 9.47767 17.4085 7.81881 15.6251C7.27166 15.0409 6.60448 14.582 5.86315 14.2801C6.05236 14.0571 6.1854 13.7919 6.25113 13.5069C6.28824 13.3386 6.29888 13.1656 6.28267 12.9941L6.65294 13.3863C7.00612 13.7386 7.3778 14.0719 7.76641 14.3847C8.15693 14.6975 8.5662 14.9861 8.99192 15.2489C9.20813 15.3784 9.43364 15.492 9.66302 15.6099C9.86842 15.7354 10.0987 15.8148 10.3379 15.8423C10.3598 15.8401 10.3806 15.8321 10.3984 15.8191C10.4162 15.8062 10.4302 15.7887 10.439 15.7686C10.4479 15.7485 10.4512 15.7264 10.4487 15.7045C10.4462 15.6827 10.4379 15.6619 10.4248 15.6442C10.2555 15.4722 10.0597 15.3284 9.84486 15.2183L9.25851 14.8294C8.85993 14.5599 8.46212 14.2781 8.06558 13.9755C7.66903 13.673 7.3071 13.3477 6.95395 13.0146C6.6008 12.6815 6.28329 12.3091 5.91283 11.9874C5.89452 11.9677 5.87093 11.9536 5.84485 11.9468C5.81878 11.9401 5.79132 11.9409 5.76572 11.9493C5.56288 11.7253 5.32866 11.5319 5.07037 11.3751C4.72433 11.1947 4.36827 11.0342 4.00394 10.8944C3.71092 10.7771 3.44031 10.6102 3.20398 10.401C3.04055 10.2175 2.9384 9.98771 2.91175 9.74348C2.8851 9.49926 2.93528 9.2528 3.0553 9.03844C3.42549 9.67729 4.01827 10.1572 4.72019 10.3863C6.24697 10.8746 7.30796 12.3887 8.69492 13.6655C10.0819 14.9423 11.5474 15.1445 13.4292 15.0569C14.0408 15.0364 14.2334 14.604 14.2138 14.0465L14.5684 14.3548C14.8558 14.6091 15.1606 14.852 15.4645 15.1073C15.4275 15.1263 15.3958 15.1544 15.3723 15.1888C15.2191 15.4534 15.0622 15.7095 14.9079 15.9906C14.8553 16.1036 14.799 16.208 14.7505 16.3213L14.1996 16.2335C13.7149 16.1497 13.2289 16.0866 12.7398 16.0067C12.7177 16.0029 12.695 16.0034 12.6731 16.0084C12.6512 16.0133 12.6305 16.0225 12.6122 16.0355C12.5939 16.0484 12.5783 16.0648 12.5663 16.0838C12.5543 16.1028 12.5461 16.1239 12.5423 16.1461C12.5385 16.1682 12.5391 16.1908 12.544 16.2127C12.549 16.2346 12.5582 16.2553 12.5711 16.2737C12.5841 16.292 12.6005 16.3076 12.6195 16.3196C12.6384 16.3316 12.6596 16.3397 12.6817 16.3435C13.161 16.4477 13.6398 16.5602 14.1243 16.6481L14.5548 16.7369C14.2858 17.2532 14.0728 17.7968 13.9195 18.3584C13.8551 18.6084 13.8535 18.8704 13.9149 19.1212C13.9762 19.372 14.0986 19.6037 14.2711 19.7957C14.4333 19.971 14.6197 20.1223 14.8247 20.2449C14.9865 20.3687 15.1743 20.4541 15.374 20.4946C14.9141 21.2219 14.4539 21.9533 13.9651 22.6788C13.2541 23.7767 12.5273 24.8612 11.7682 25.9313L11.7604 25.9225Z" fill="#A0B9E2"/>
<path fill-rule="evenodd" clip-rule="evenodd" d="M15.1135 17.578L15.039 17.5735C15.0638 17.5086 15.089 17.4354 15.1143 17.3622C15.1102 17.4284 15.1059 17.4987 15.1018 17.5649L15.1135 17.578Z" fill="#AC5E16"/>
<path fill-rule="evenodd" clip-rule="evenodd" d="M28.1124 5.15603C29.6623 5.06454 31.2132 5.02708 32.7542 5.08036C35.2109 5.16503 37.883 5.45808 39.7827 7.17326C40.7081 8.02709 41.4094 9.09527 41.8249 10.2838L41.1285 10.1995C40.4853 10.1267 39.8468 10.0459 39.2044 9.96072C37.9323 9.78699 36.6586 9.57165 35.3918 9.31106C32.8702 8.80807 30.3845 8.13927 27.9509 7.30904C26.6578 6.86832 25.3944 6.35055 24.1005 5.92224C24.302 5.8184 24.4994 5.71429 24.7082 5.6275C24.9169 5.5407 25.1342 5.45028 25.38 5.36991C25.5224 5.34961 25.6725 5.33808 25.7979 5.32503C26.5662 5.2519 27.3295 5.19506 28.0963 5.14674L28.1124 5.15603Z" fill="white"/>
<path fill-rule="evenodd" clip-rule="evenodd" d="M43.4501 12.6778C43.6494 12.7929 43.8003 12.9762 43.875 13.1938C44.0152 13.6113 44.0851 14.0491 44.0818 14.4894L43.9596 14.5857C43.93 14.6083 43.9089 14.6403 43.8997 14.6764C43.8905 14.7126 43.8938 14.7507 43.909 14.7848C43.9242 14.8188 43.9504 14.8468 43.9834 14.8641C44.0164 14.8814 44.0543 14.8871 44.091 14.8802C44.0921 14.9272 44.0892 14.9743 44.0823 15.0208C44.0912 15.3493 44.0956 15.6817 44.0756 16.0084C44.09 16.2533 44.0406 16.4978 43.9323 16.7178C43.8635 16.8036 43.7783 16.8748 43.6817 16.9273C43.5851 16.9798 43.479 17.0126 43.3696 17.0237L43.219 17.0435C43.2253 16.9401 43.2314 16.8408 43.2378 16.7374C43.3755 15.3558 43.3651 13.9634 43.2068 12.584C43.2871 12.5999 43.364 12.6299 43.4338 12.6727L43.4501 12.6778Z" fill="#324782"/>
<path d="M41.4145 16.3426C41.2486 16.2908 41.0726 16.28 40.9016 16.311C40.6957 16.3266 40.4889 16.3278 40.2828 16.3145C39.883 16.2983 39.4868 16.232 39.1035 16.1174C38.8506 16.0437 38.7838 16.4548 39.0325 16.5282C39.434 16.6449 39.8478 16.7136 40.2654 16.7327C40.4665 16.744 40.6682 16.7383 40.8684 16.7158C41.0711 16.7224 41.2708 16.6649 41.439 16.5517C41.4554 16.5389 41.4683 16.5221 41.4764 16.503C41.4844 16.4838 41.4873 16.4628 41.4848 16.4421C41.4823 16.4215 41.4745 16.4018 41.4621 16.3851C41.4497 16.3684 41.4332 16.3551 41.4142 16.3467L41.4145 16.3426Z" fill="#324782"/>
<path d="M35.1733 7.52839L36.3248 7.70715C36.698 7.7751 37.0768 7.80812 37.4562 7.80579C37.4771 7.80095 37.4958 7.7895 37.5096 7.77314C37.5235 7.75679 37.5317 7.73641 37.533 7.71503C37.5343 7.69366 37.5287 7.67243 37.5169 7.6545C37.5052 7.63658 37.488 7.62291 37.4679 7.61555C37.1103 7.50054 36.743 7.4182 36.3704 7.36953L35.219 7.19077C35.1744 7.18252 35.1283 7.19234 35.0909 7.21807C35.0535 7.24379 35.0279 7.28332 35.0196 7.32796C35.0114 7.3726 35.0212 7.41868 35.0469 7.45608C35.0726 7.49348 35.1122 7.51912 35.1568 7.52737L35.1733 7.52839Z" fill="#324782"/>
<path d="M37.7091 22.7897C37.4047 22.6984 37.0892 22.6497 36.7715 22.6448C36.4406 22.6245 36.1015 22.6036 35.7706 22.5833C35.539 22.569 35.4714 22.9261 35.6988 22.94C36.0463 22.9614 36.3854 22.9823 36.7258 22.9825C37.0534 23.0107 37.3834 22.9905 37.7051 22.9223C37.7197 22.9172 37.7325 22.9078 37.7418 22.8955C37.7511 22.8831 37.7566 22.8683 37.7575 22.8529C37.7585 22.8374 37.7549 22.822 37.7471 22.8086C37.7394 22.7952 37.7279 22.7844 37.714 22.7775L37.7091 22.7897Z" fill="#324782"/>
</svg>
