<svg width="29" height="41" viewBox="0 0 29 41" fill="none" xmlns="http://www.w3.org/2000/svg">
<path d="M23.261 38.1398C23.261 38.1398 20.7275 40.232 13.789 40.232C6.85053 40.232 4.75834 38.1398 4.75834 38.1398L1.23584 21.4022L2.37704 22.2087L3.06176 21.3984L3.98232 22.2049L4.99038 21.3984L6.03648 22.281L6.99128 21.3984L7.87381 22.281L8.86285 21.3984L9.70733 22.281L10.7725 21.3984L11.8376 22.4255L12.9179 21.3984L13.8575 22.3532L14.7743 21.3984L15.6568 22.2429L16.5735 21.3984L17.2697 22.1592L18.4451 21.3984L19.107 22.2049L19.9857 21.3984L20.7199 22.1326L21.5644 21.3984L22.4469 22.1592L23.1811 21.3984L24.0256 22.2049L24.7864 21.5088L25.5205 22.3152L26.2661 21.5088L26.928 22.1706L27.7725 21.4098L23.261 38.1398Z" fill="#D1DDF1" stroke="#506FC6" stroke-width="0.7" stroke-linecap="round" stroke-linejoin="round"/>
<g style="mix-blend-mode:multiply">
<path d="M14.7552 38.4475C10.6279 38.2801 6.29132 37.1845 3.84155 33.7686L4.75832 38.1393C4.75832 38.1393 6.85051 40.2315 13.789 40.2315C20.7275 40.2315 23.2609 38.1393 23.2609 38.1393L23.6413 36.7319C20.8626 38.0169 17.8126 38.6058 14.7552 38.4475Z" fill="#AEC5F1"/>
</g>
<g style="mix-blend-mode:multiply">
<path d="M1.85608 24.3423C1.89252 25.0619 2.18534 25.7447 2.68154 26.2671C3.00816 26.5663 3.42116 26.7544 3.86128 26.8043C4.3014 26.8541 4.74602 26.7633 5.13131 26.5448C5.90412 26.0472 6.57009 25.4006 7.09037 24.6428C7.67238 23.882 8.23157 23.1212 9.25104 23.6538C10.0118 24.057 10.4341 24.795 10.8069 25.5253C11.29 26.4611 12.1459 26.7236 13.173 26.503C15.1929 26.0693 15.8358 23.8402 17.7378 23.4217C18.2183 23.3158 18.7152 23.3059 19.1996 23.3928C19.684 23.4796 20.1464 23.6614 20.5603 23.9277C21.5798 24.5059 22.2645 25.5101 23.3106 26.0731C24.0486 26.4535 25.1289 26.9747 25.8022 26.1987C26.2207 25.7193 26.8787 24.9015 26.9434 24.27C26.9898 24.0606 26.9928 23.8438 26.9523 23.6332C26.9117 23.4225 26.8284 23.2224 26.7076 23.0451C26.3652 22.6267 25.6386 22.2843 25.186 22.0257C24.1542 21.3845 23.0086 20.948 21.8118 20.7399C20.0087 20.4736 18.0801 20.7665 16.3189 21.1203C14.7679 21.3886 13.2012 21.5563 11.6285 21.6224C10.4961 21.6675 9.36204 21.6497 8.23157 21.5692C7.04472 21.5273 5.94917 21.7822 4.78896 21.8431C4.21508 21.8655 3.65308 22.0134 3.14245 22.2763C2.63182 22.5391 2.18496 22.9106 1.83325 23.3647L1.85608 24.3423Z" fill="#D5E4FF"/>
</g>
<path d="M2.86792 29.1621L3.7048 33.1335C7.21306 33.9331 10.7996 34.3389 14.3978 34.3431C17.8135 34.3321 21.2196 33.9817 24.5659 33.2971L25.6538 29.2686C23.3562 29.8126 19.674 30.3718 14.2875 30.3718C8.54728 30.3718 4.96392 29.7365 2.86792 29.1621Z" fill="white" stroke="#506FC6" stroke-width="0.7" stroke-linecap="round" stroke-linejoin="round"/>
<path d="M27.9932 20.7024C27.7878 27.1235 22.9795 22.9201 19.0728 22.4978C17.3382 22.3076 15.9231 23.9129 14.1276 24.8107C11.0502 26.3361 9.30038 20.8621 7.17775 22.9391C3.17214 26.8382 1.29297 22.9962 1.01147 20.7024C1.01147 13.665 7.05222 7.95898 14.5042 7.95898C21.9563 7.95898 28.2367 13.6688 27.9932 20.7024Z" fill="#7897EE" stroke="#506FC6" stroke-width="0.7" stroke-linecap="round" stroke-linejoin="round"/>
<g style="mix-blend-mode:multiply">
<path d="M7.00659 11.9298C6.824 12.4319 6.51968 14.973 8.50916 15.2697C10.4987 15.5664 12.6707 13.3677 12.5376 13.3981C14.8542 12.4928 15.1776 15.8669 17.8708 15.9164C20.564 15.9658 19.6435 12.314 21.5074 12.5574C23.3714 12.8009 24.5506 13.6035 25.1973 13.071C22.7209 9.89845 18.042 7.97363 14.5043 7.97363C11.191 7.97363 7.57338 9.59794 5.22632 11.4695C5.69801 12.0515 7.35655 10.9712 7.00659 11.9298Z" fill="#C3D5F2"/>
</g>
<g style="mix-blend-mode:multiply">
<path d="M24.2272 22.722C22.0779 23.0111 20.3129 20.3026 18.2853 20.4396C14.7819 20.6526 15.0862 23.4828 12.9598 23.1861C10.2551 22.8057 11.7501 19.3821 8.93513 19.7054C6.12017 20.0288 6.12018 22.3074 4.13449 22.2123C2.27434 22.121 1.54397 20.044 1.39942 17.6475C1.13475 18.6519 1.00051 19.6862 1 20.7249C1.2815 23.0073 3.16067 26.8607 7.16627 22.9616C9.30031 20.8618 11.0502 26.3358 14.1162 24.8104C15.9231 23.9126 17.3382 22.3074 19.0614 22.4976C22.9795 22.9198 27.7877 27.1232 27.9931 20.7021C28.0112 20.1343 27.9871 19.5659 27.9209 19.0017C27.3769 21.1015 25.9542 22.4861 24.2272 22.722Z" fill="#D5E4FF"/>
</g>
<path d="M4.73185 11.2453C4.20309 10.3628 7.49735 8.12604 9.79497 7.2283C12.3284 6.23546 15.0445 6.39903 15.8814 5.91212C16.7182 5.42521 16.9427 3.83514 16.1895 3.0401C15.4819 3.702 13.8652 2.46189 14.6374 1.5185C15.6988 0.236558 18.6316 1.38156 19.7728 4.40193C20.914 7.4223 24.7447 10.7356 25.2696 11.7969C25.7946 12.8582 25.3533 14.2657 24.4632 13.2082C22.8997 11.3518 21.3211 10.5454 20.1494 10.9714C18.8066 11.4545 19.3316 14.7754 17.0796 14.2695C14.8276 13.7636 14.5271 12.2496 12.9523 12.0746C11.3774 11.8996 10.4607 14.144 8.60432 13.8358C6.74797 13.5277 9.77214 10.709 8.93526 10.3095C8.09838 9.91011 5.2606 12.1316 4.73185 11.2453Z" fill="white" stroke="#506FC6" stroke-width="0.7" stroke-linecap="round" stroke-linejoin="round"/>
<path d="M15.5731 2.22172C15.4742 2.16846 15.2573 2.14564 15.2612 2.00109C15.26 1.98089 15.2532 1.96142 15.2415 1.94496C15.2297 1.9285 15.2135 1.91574 15.1947 1.90815C15.176 1.90057 15.1554 1.89849 15.1355 1.90215C15.1156 1.90581 15.0972 1.91505 15.0824 1.92881C14.8123 2.22172 15.1622 2.55647 15.4628 2.56028C15.504 2.56404 15.5452 2.5537 15.5798 2.53094C15.6144 2.50818 15.6402 2.47436 15.653 2.43501C15.6658 2.39566 15.6649 2.35313 15.6504 2.31438C15.6359 2.27563 15.6086 2.24295 15.5731 2.22172Z" fill="white"/>
<path d="M11.6133 11.1191C11.2284 11.1813 10.8701 11.3545 10.5824 11.6175C10.202 11.8761 9.87104 12.2109 9.48684 12.4734C9.41456 12.519 9.46021 12.6598 9.55151 12.6217C9.95142 12.4918 10.3427 12.3368 10.7231 12.1576C11.1035 11.9484 11.56 11.7772 11.754 11.3626C11.7679 11.3378 11.7751 11.3099 11.7749 11.2816C11.7747 11.2532 11.7671 11.2254 11.7529 11.2008C11.7387 11.1763 11.7184 11.1558 11.6939 11.1415C11.6694 11.1272 11.6416 11.1195 11.6133 11.1191Z" fill="white"/>
<path d="M18.0648 12.4434C17.7833 12.47 17.6159 12.6792 17.3763 12.8238C17.2027 12.9088 17.0088 12.9436 16.8165 12.9241C16.6242 12.9046 16.4413 12.8316 16.2883 12.7134C16.2617 12.6906 16.216 12.7363 16.2389 12.7629C16.3333 12.9406 16.474 13.0896 16.6461 13.194C16.8181 13.2985 17.0152 13.3545 17.2165 13.3563C17.5969 13.3563 18.1713 13.0824 18.255 12.6982C18.2639 12.6686 18.2658 12.6373 18.2604 12.6069C18.255 12.5764 18.2426 12.5476 18.2241 12.5229C18.2056 12.4981 18.1816 12.478 18.1539 12.4642C18.1262 12.4504 18.0957 12.4432 18.0648 12.4434Z" fill="white"/>
<path d="M23.2231 10.9975C22.7292 10.5776 22.1062 10.3399 21.4581 10.3242C21.4124 10.3242 21.4124 10.3813 21.4581 10.3965C22.0188 10.6468 22.5496 10.9595 23.0405 11.3285C23.478 11.6366 23.8584 12.2148 24.3491 12.405C24.4328 12.4392 24.4975 12.3441 24.4822 12.2719C24.3643 11.7317 23.6378 11.298 23.2231 10.9975Z" fill="white"/>
<path d="M25.3417 16.6777C25.277 16.6855 25.2175 16.7167 25.1743 16.7654C25.131 16.8141 25.1072 16.877 25.1072 16.9421C25.1072 17.0072 25.131 17.0701 25.1743 17.1188C25.2175 17.1675 25.277 17.1987 25.3417 17.2065C25.4063 17.1987 25.4659 17.1675 25.5091 17.1188C25.5523 17.0701 25.5762 17.0072 25.5762 16.9421C25.5762 16.877 25.5523 16.8141 25.5091 16.7654C25.4659 16.7167 25.4063 16.6855 25.3417 16.6777Z" fill="#506FC6"/>
<path d="M24.6724 15.243H24.6496C24.2692 15.1327 24.2692 15.7908 24.6496 15.6766H24.6724C24.7229 15.6671 24.7686 15.6403 24.8014 15.6007C24.8342 15.5611 24.8522 15.5113 24.8522 15.4598C24.8522 15.4084 24.8342 15.3586 24.8014 15.319C24.7686 15.2794 24.7229 15.2525 24.6724 15.243Z" fill="#506FC6"/>
<path d="M24.0483 18.0581L24.0103 18.0277C23.9671 17.9843 23.9114 17.9556 23.8511 17.9454C23.7907 17.9353 23.7287 17.9444 23.6738 17.9713C23.6188 17.9982 23.5737 18.0417 23.5447 18.0956C23.5157 18.1495 23.5043 18.2111 23.5122 18.2718C23.52 18.3325 23.5467 18.3892 23.5884 18.434C23.6301 18.4788 23.6848 18.5093 23.7448 18.5214C23.8048 18.5335 23.867 18.5265 23.9228 18.5014C23.9786 18.4763 24.0252 18.4344 24.0559 18.3815C24.0625 18.3638 24.0715 18.3472 24.0826 18.332C24.1075 18.2889 24.1177 18.2388 24.1115 18.1893C24.1054 18.1399 24.0832 18.0938 24.0483 18.0581Z" fill="#506FC6"/>
<path d="M25.1973 19.8994C25.1418 19.8994 25.0886 19.9215 25.0493 19.9607C25.0101 19.9999 24.988 20.0531 24.988 20.1086C24.988 20.1641 25.0101 20.2173 25.0493 20.2566C25.0886 20.2958 25.1418 20.3179 25.1973 20.3179C25.2527 20.3179 25.306 20.2958 25.3452 20.2566C25.3844 20.2173 25.4065 20.1641 25.4065 20.1086C25.4065 20.0531 25.3844 19.9999 25.3452 19.9607C25.306 19.9215 25.2527 19.8994 25.1973 19.8994Z" fill="#506FC6"/>
<path d="M22.2948 16.2553C22.2691 16.2831 22.2504 16.3166 22.2402 16.353C22.2299 16.3895 22.2284 16.4278 22.2359 16.4649C22.2433 16.502 22.2594 16.5368 22.2828 16.5665C22.3063 16.5962 22.3365 16.6199 22.3709 16.6357C22.4092 16.6627 22.4558 16.6752 22.5025 16.6711C22.5492 16.6669 22.5929 16.6463 22.6257 16.6129C22.6765 16.5625 22.7052 16.4942 22.7056 16.4227C22.7038 16.3759 22.6886 16.3306 22.6618 16.2923C22.6349 16.2539 22.5976 16.2241 22.5542 16.2065C22.5108 16.1888 22.4633 16.184 22.4173 16.1927C22.3713 16.2013 22.3288 16.2231 22.2948 16.2553Z" fill="#506FC6"/>
<path d="M9.33461 18.96C9.27811 18.96 9.22393 18.9824 9.18398 19.0224C9.14403 19.0623 9.12158 19.1165 9.12158 19.173C9.12158 19.2295 9.14403 19.2837 9.18398 19.3236C9.22393 19.3636 9.27811 19.386 9.33461 19.386C9.3911 19.386 9.44529 19.3636 9.48524 19.3236C9.52519 19.2837 9.54763 19.2295 9.54763 19.173C9.54763 19.1165 9.52519 19.0623 9.48524 19.0224C9.44529 18.9824 9.3911 18.96 9.33461 18.96Z" fill="#506FC6"/>
<path d="M7.71037 17.8563L7.76363 17.8981C7.71318 17.8477 7.64477 17.8193 7.57343 17.8193C7.50209 17.8193 7.43367 17.8477 7.38323 17.8981C7.33278 17.9486 7.30444 18.017 7.30444 18.0883C7.30444 18.1597 7.33278 18.2281 7.38323 18.2785C7.41564 18.3117 7.45282 18.3399 7.49354 18.3622C7.87014 18.5258 8.08316 17.9514 7.71037 17.8563Z" fill="#506FC6"/>
<path d="M5.96417 19.2261H5.93754C5.45824 19.2261 5.65985 20.0174 6.08589 19.7701C6.13786 19.7419 6.18426 19.7046 6.22284 19.6598C6.375 19.481 6.23805 19.1272 5.96417 19.2261Z" fill="#506FC6"/>
<path d="M5.41656 20.839C5.40897 20.7773 5.37906 20.7204 5.33246 20.6792C5.28587 20.638 5.2258 20.6152 5.16359 20.6152C5.10138 20.6152 5.04131 20.638 4.99472 20.6792C4.94812 20.7204 4.91821 20.7773 4.91062 20.839C4.91062 20.839 4.91062 20.8695 4.91062 20.8847C4.87639 21.2194 5.4622 21.2194 5.42797 20.8847C5.42611 20.869 5.42227 20.8537 5.41656 20.839Z" fill="#506FC6"/>
<path d="M4.6786 17.7805L4.5835 17.6816C4.54416 17.6422 4.49079 17.6201 4.43515 17.6201C4.3795 17.6201 4.32614 17.6422 4.28679 17.6816C4.24745 17.7209 4.22534 17.7743 4.22534 17.8299C4.22534 17.8856 4.24745 17.9389 4.28679 17.9783L4.3857 18.0772C4.42599 18.1107 4.4774 18.1279 4.52975 18.1253C4.58211 18.1228 4.63159 18.1006 4.66842 18.0633C4.70524 18.026 4.72672 17.9763 4.72861 17.9239C4.7305 17.8715 4.71265 17.8203 4.6786 17.7805Z" fill="#506FC6"/>
<path d="M7.2463 19.207C7.19229 19.2141 7.1427 19.2406 7.10677 19.2815C7.07084 19.3225 7.05103 19.3751 7.05103 19.4296C7.05103 19.484 7.07084 19.5367 7.10677 19.5776C7.1427 19.6185 7.19229 19.645 7.2463 19.6521C7.30032 19.645 7.34991 19.6185 7.38584 19.5776C7.42177 19.5367 7.44158 19.484 7.44158 19.4296C7.44158 19.3751 7.42177 19.3225 7.38584 19.2815C7.34991 19.2406 7.30032 19.2141 7.2463 19.207Z" fill="#506FC6"/>
<path d="M6.6565 16.3163C6.64541 16.3036 6.63088 16.2943 6.61465 16.2897C6.597 16.2715 6.57285 16.2611 6.54753 16.2608C6.5222 16.2604 6.49777 16.2701 6.47961 16.2878C6.46145 16.3054 6.45105 16.3296 6.45069 16.3549C6.45034 16.3802 6.46005 16.4047 6.47771 16.4228C6.48543 16.4373 6.49574 16.4502 6.50814 16.4609C6.59563 16.5636 6.74019 16.419 6.6565 16.3163Z" fill="#506FC6"/>
<path d="M23.6909 30.5693C23.6475 30.5693 23.6059 30.5866 23.5753 30.6172C23.5446 30.6479 23.5273 30.6895 23.5273 30.7329C23.5273 30.7763 23.5446 30.8179 23.5753 30.8486C23.6059 30.8792 23.6475 30.8965 23.6909 30.8965C23.7343 30.8965 23.7759 30.8792 23.8066 30.8486C23.8373 30.8179 23.8545 30.7763 23.8545 30.7329C23.8545 30.6895 23.8373 30.6479 23.8066 30.6172C23.7759 30.5866 23.7343 30.5693 23.6909 30.5693Z" fill="#8CB0FB"/>
<path d="M23.1887 31.8216C23.1203 31.6162 22.8083 31.5211 22.679 31.7456C22.6292 31.8024 22.6018 31.8754 22.6018 31.951C22.6018 32.0265 22.6292 32.0995 22.679 32.1564C22.7118 32.1889 22.7517 32.2134 22.7954 32.2282C22.8392 32.243 22.8857 32.2477 22.9316 32.2418C22.9774 32.236 23.0213 32.2197 23.0599 32.1944C23.0985 32.169 23.1309 32.1352 23.1545 32.0955C23.1787 32.0547 23.1942 32.0093 23.2001 31.9621C23.206 31.915 23.2021 31.8672 23.1887 31.8216Z" fill="#8CB0FB"/>
<path d="M23.0975 32.471C23.0763 32.4654 23.054 32.4654 23.0328 32.471C23.0057 32.4803 22.982 32.4977 22.965 32.5208C22.948 32.5439 22.9385 32.5717 22.9377 32.6004V32.6232C22.943 32.6542 22.9591 32.6823 22.9831 32.7025C23.0071 32.7228 23.0376 32.7339 23.069 32.7339C23.1004 32.7339 23.1308 32.7228 23.1548 32.7025C23.1789 32.6823 23.1949 32.6542 23.2002 32.6232V32.6004C23.1989 32.5707 23.1883 32.5423 23.1698 32.5191C23.1514 32.4958 23.1261 32.479 23.0975 32.471Z" fill="#8CB0FB"/>
<path d="M20.7769 31.0491H20.7199C20.6747 31.0427 20.6287 31.0502 20.5879 31.0706C20.5472 31.091 20.5136 31.1233 20.4916 31.1632C20.4732 31.1936 20.4634 31.2285 20.4634 31.264C20.4634 31.2996 20.4732 31.3345 20.4916 31.3648C20.5133 31.4048 20.547 31.437 20.5879 31.4568C20.6289 31.4766 20.6751 31.483 20.7199 31.4752C20.7385 31.4803 20.7583 31.4803 20.7769 31.4752C20.804 31.456 20.8256 31.4302 20.8396 31.4002C20.8536 31.3702 20.8596 31.337 20.8568 31.304C20.8686 31.2821 20.876 31.258 20.8783 31.2332C20.8807 31.2084 20.8781 31.1834 20.8706 31.1597C20.8632 31.1359 20.8511 31.1139 20.835 31.0949C20.8189 31.0759 20.7991 31.0603 20.7769 31.0491Z" fill="#8CB0FB"/>
<path d="M19.1108 32.1829C19.1108 32.1758 19.108 32.169 19.103 32.164C19.098 32.1591 19.0912 32.1563 19.0842 32.1562C19.0771 32.1563 19.0703 32.1591 19.0653 32.164C19.0603 32.169 19.0575 32.1758 19.0575 32.1829C19.0557 32.198 19.0557 32.2134 19.0575 32.2285C19.0575 32.2376 19.0611 32.2463 19.0676 32.2527C19.074 32.2592 19.0827 32.2628 19.0918 32.2628C19.1008 32.2628 19.1096 32.2592 19.116 32.2527C19.1224 32.2463 19.126 32.2376 19.126 32.2285C19.126 32.2285 19.1146 32.1981 19.1108 32.1829Z" fill="#8CB0FB"/>
<path d="M18.5973 33.1413V33.1642C18.6152 33.2271 18.6531 33.2824 18.7053 33.3219C18.7574 33.3613 18.8211 33.3826 18.8865 33.3826C18.9519 33.3826 19.0155 33.3613 19.0676 33.3219C19.1198 33.2824 19.1577 33.2271 19.1756 33.1642V33.1413C19.1882 33.0966 19.1904 33.0496 19.1818 33.0039C19.1733 32.9583 19.1542 32.9152 19.1262 32.8781C19.0982 32.841 19.062 32.811 19.0204 32.7903C18.9788 32.7696 18.9329 32.7588 18.8865 32.7588C18.84 32.7588 18.7942 32.7696 18.7526 32.7903C18.711 32.811 18.6747 32.841 18.6467 32.8781C18.6187 32.9152 18.5996 32.9583 18.5911 33.0039C18.5825 33.0496 18.5847 33.0966 18.5973 33.1413Z" fill="#8CB0FB"/>
<path d="M17.4296 31.2848C17.4296 31.2848 17.4296 31.2619 17.4296 31.2467C17.4165 31.1958 17.3897 31.1494 17.3522 31.1125C17.3146 31.0756 17.2677 31.0497 17.2165 31.0375H17.1823C16.8323 30.931 16.6954 31.3837 16.9427 31.5701C16.9886 31.6146 17.0479 31.6428 17.1114 31.6504C17.175 31.6581 17.2393 31.6447 17.2945 31.6123C17.3497 31.58 17.3928 31.5304 17.4172 31.4713C17.4416 31.4121 17.4459 31.3466 17.4296 31.2848Z" fill="#8CB0FB"/>
<path d="M15.3374 31.1326H15.2918C15.2419 31.1193 15.1897 31.1175 15.139 31.1274C15.0884 31.1374 15.0407 31.1588 14.9996 31.19C14.9585 31.2212 14.925 31.2613 14.9018 31.3074C14.8786 31.3535 14.8663 31.4043 14.8657 31.4559C14.8665 31.5076 14.8789 31.5585 14.902 31.6046C14.9252 31.6508 14.9586 31.6912 14.9995 31.7227C15.0405 31.7541 15.0881 31.7759 15.1387 31.7864C15.1893 31.7968 15.2417 31.7957 15.2918 31.7831H15.3374C15.4176 31.7744 15.4918 31.7364 15.5457 31.6764C15.5995 31.6163 15.6293 31.5385 15.6293 31.4578C15.6293 31.3772 15.5995 31.2994 15.5457 31.2393C15.4918 31.1793 15.4176 31.1413 15.3374 31.1326Z" fill="#8CB0FB"/>
<path d="M13.8726 32.6044H13.8346C13.7942 32.5802 13.7481 32.567 13.7009 32.5664C13.6538 32.5658 13.6073 32.5777 13.5663 32.6009C13.5253 32.6241 13.4912 32.6578 13.4674 32.6985C13.4437 32.7393 13.4312 32.7856 13.4312 32.8327C13.4312 32.8798 13.4437 32.9261 13.4674 32.9668C13.4912 33.0076 13.5253 33.0412 13.5663 33.0644C13.6073 33.0877 13.6538 33.0996 13.7009 33.0989C13.7481 33.0983 13.7942 33.0852 13.8346 33.0609H13.8726C13.9163 33.0409 13.9534 33.0087 13.9793 32.9683C14.0053 32.9278 14.0191 32.8808 14.0191 32.8327C14.0191 32.7846 14.0053 32.7375 13.9793 32.6971C13.9534 32.6566 13.9163 32.6245 13.8726 32.6044Z" fill="#8CB0FB"/>
<path d="M12.0772 31.7218L11.9936 31.6571C11.7996 31.5354 11.6132 31.8397 11.8148 31.9652C12.0012 32.125 12.2522 31.8929 12.0772 31.7218Z" fill="#8CB0FB"/>
<path d="M10.7878 30.5693C10.7828 30.5693 10.7779 30.5713 10.7744 30.5749C10.7708 30.5785 10.7688 30.5833 10.7688 30.5884C10.7688 30.5934 10.7708 30.5982 10.7744 30.6018C10.7779 30.6054 10.7828 30.6074 10.7878 30.6074C10.7929 30.6074 10.7977 30.6054 10.8013 30.6018C10.8048 30.5982 10.8068 30.5934 10.8068 30.5884C10.8068 30.5833 10.8048 30.5785 10.8013 30.5749C10.7977 30.5713 10.7929 30.5693 10.7878 30.5693Z" fill="#8CB0FB"/>
<path d="M9.83283 31.2465C9.79017 31.2195 9.7407 31.2051 9.69018 31.2051C9.63966 31.2051 9.59019 31.2195 9.54753 31.2465C9.54753 31.2465 9.54753 31.2693 9.5171 31.2769C9.49495 31.2953 9.47458 31.3157 9.45623 31.3378C9.44096 31.3585 9.42698 31.3801 9.41439 31.4025C9.37865 31.4552 9.36239 31.5187 9.36842 31.5821C9.37444 31.6455 9.40238 31.7048 9.44741 31.7499C9.49244 31.7949 9.55176 31.8228 9.61516 31.8288C9.67856 31.8349 9.74208 31.8186 9.79479 31.7829C9.81823 31.7721 9.84001 31.758 9.85946 31.741C9.89631 31.7196 9.92861 31.6912 9.95456 31.6573C9.97554 31.6229 9.98906 31.5844 9.99427 31.5443C9.99947 31.5043 9.99623 31.4636 9.98477 31.4249C9.9733 31.3862 9.95386 31.3504 9.92769 31.3196C9.90152 31.2889 9.86921 31.264 9.83283 31.2465Z" fill="#8CB0FB"/>
<path d="M9.39538 32.7571C9.34803 32.8001 9.31699 32.8581 9.30751 32.9214C9.29803 32.9847 9.31068 33.0493 9.34333 33.1043C9.37599 33.1593 9.42663 33.2014 9.48671 33.2234C9.54679 33.2453 9.61262 33.2459 9.67307 33.225C9.71762 33.2111 9.75723 33.1846 9.78719 33.1489C10.0116 32.875 9.62362 32.4832 9.39538 32.7571Z" fill="#8CB0FB"/>
<path d="M7.68361 31.8398C7.65767 31.8268 7.62824 31.8223 7.59959 31.827C7.57094 31.8318 7.54455 31.8456 7.52422 31.8663C7.5039 31.8871 7.4907 31.9137 7.48653 31.9425C7.48236 31.9712 7.48743 32.0005 7.50102 32.0262C7.52487 32.0672 7.55895 32.1013 7.59992 32.1251C7.80153 32.2735 7.9613 31.855 7.68361 31.8398Z" fill="#8CB0FB"/>
<path d="M6.78204 31.6844L6.7478 31.6387C6.61847 31.4409 6.24948 31.5665 6.34458 31.8099C6.36472 31.8636 6.38888 31.9158 6.41686 31.9659C6.58804 32.2512 7.01028 31.9354 6.78204 31.6844Z" fill="#8CB0FB"/>
<path d="M4.89521 30.4667C4.83556 30.4052 4.76077 30.3606 4.67838 30.3373C4.63604 30.3265 4.59119 30.3324 4.553 30.3536C4.51481 30.3748 4.48617 30.4098 4.47296 30.4514C4.42351 30.5884 4.58328 30.634 4.65175 30.7101C4.80771 30.8737 5.06258 30.6112 4.89521 30.4667Z" fill="#8CB0FB"/>
<path d="M4.2029 31.0108C4.15467 31.0233 4.10758 31.0399 4.06215 31.0603C3.86814 31.1478 4.03932 31.4407 4.23333 31.3494L4.29039 31.3266C4.33226 31.315 4.3678 31.2872 4.3892 31.2494C4.4106 31.2116 4.41611 31.1668 4.40451 31.125C4.39291 31.0831 4.36515 31.0475 4.32734 31.0261C4.28953 31.0047 4.24476 30.9992 4.2029 31.0108Z" fill="#8CB0FB"/>
<path d="M5.38982 32.5286L5.36319 32.4868C5.21483 32.2357 4.87247 32.5781 5.12354 32.7302L5.16538 32.753C5.19666 32.7718 5.23333 32.7796 5.26954 32.7752C5.30576 32.7707 5.33944 32.7543 5.36524 32.7285C5.39104 32.7027 5.40748 32.669 5.41193 32.6328C5.41638 32.5965 5.4086 32.5599 5.38982 32.5286Z" fill="#8CB0FB"/>
</svg>
