<svg width="51" height="48" viewBox="0 0 51 48" fill="none" xmlns="http://www.w3.org/2000/svg">
<path fill-rule="evenodd" clip-rule="evenodd" d="M29.7152 24.767C29.2532 24.511 28.8082 24.2241 28.3832 23.9082C29.4107 23.3946 29.9719 22.2266 30.2564 21.1473C30.4282 20.5151 30.5391 19.8637 30.6775 19.2163C30.8084 18.6241 30.9745 18.0415 31.1751 17.4716C31.9892 15.2157 33.493 13.2196 35.6557 12.1492C36.7337 11.6127 37.9328 11.3457 39.1546 11.3699C38.5969 12.07 38.1409 12.8476 37.7995 13.6808C37.4563 14.5477 37.2454 15.4659 37.1736 16.4054C37.1022 17.4097 37.169 18.4243 37.3722 19.4208C37.5792 20.531 37.9169 21.6059 38.1158 22.707C38.3177 23.6862 38.3468 24.6871 38.2018 25.6633C37.5004 25.8663 36.7786 26.0006 36.0465 26.0643C33.8781 26.2792 31.6708 25.827 29.7152 24.767ZM44.9845 14.0777L44.795 13.9684C44.5648 13.8185 44.3198 13.694 44.0645 13.5971C43.5088 13.4082 42.9421 13.2582 42.3685 13.1483C41.3515 12.899 40.0379 12.4434 39.7061 11.3179C40.3721 11.4533 41.0556 11.3975 41.6772 11.1569C42.0195 11.0134 42.3114 10.7749 42.5196 10.4684C42.6406 10.2771 42.862 9.74845 43.1806 9.9967C43.1861 10.0049 43.1932 10.0119 43.2014 10.0172C43.2097 10.0226 43.2188 10.0262 43.2284 10.0278C43.4197 10.3371 43.6003 10.6521 43.7678 10.9746C44.2847 11.9659 44.6914 13.0081 44.9802 14.0816L44.9845 14.0777Z" fill="white"/>
<path fill-rule="evenodd" clip-rule="evenodd" d="M29.5808 24.6221C29.1097 24.3545 28.6551 24.0559 28.2203 23.7284C29.2496 23.2254 29.7963 22.0509 30.065 20.9616C30.0787 20.9111 30.0882 20.856 30.1019 20.8055C31.6422 21.5839 33.475 21.9252 35.636 21.6024C36.3252 21.5008 37.0029 21.3494 37.664 21.1494C37.795 21.667 37.926 22.1846 38.0292 22.6976C38.2501 23.6939 38.2967 24.7091 38.167 25.6963C37.4621 25.8834 36.7362 26.0006 35.9991 26.0465C33.8123 26.227 31.5746 25.7304 29.5808 24.6221ZM44.1717 12.2013C44.1536 12.6756 44.1109 13.1468 44.0436 13.6131C44.2484 13.7017 44.4468 13.8064 44.637 13.9263L44.8216 14.0482C44.6422 13.4223 44.4251 12.8055 44.1717 12.2013Z" fill="#D1DDF1" fill-opacity="0.24"/>
<path fill-rule="evenodd" clip-rule="evenodd" d="M10.7054 33.1851C9.95133 33.6478 9.18872 34.0966 8.42396 34.5429C8.04048 34.7671 7.66148 34.9829 7.2737 35.2023C7.09075 35.3108 6.91014 35.4086 6.72719 35.5171C6.62773 35.5646 6.53204 35.6189 6.44075 35.6798C6.37008 35.7237 6.30798 35.7796 6.25697 35.8453C6.15886 35.889 6.04984 35.907 5.93935 35.8977C5.86097 35.8837 5.78498 35.8543 5.71582 35.8111C5.64666 35.7679 5.58572 35.7119 5.53656 35.6463C5.42101 35.4779 5.42502 35.2018 5.32289 35.0127C6.60848 34.2141 7.8446 33.3607 9.10901 32.5163C10.4529 31.6178 11.799 30.7128 13.1366 29.794C15.7925 27.9793 18.4264 26.1312 21.0381 24.2497C21.7669 23.7233 22.5154 23.1921 23.2423 22.6414C23.3375 22.5557 23.4523 22.4783 23.554 22.3953C23.554 22.3953 23.5734 22.4168 23.5841 22.4288C23.7057 22.5675 23.848 22.6864 24.0051 22.7806L24.4721 23.1256C24.6235 23.2315 24.7749 23.3417 24.9242 23.4408C24.6899 23.6258 24.4778 23.7865 24.248 23.9588C23.6228 24.4265 22.9932 24.8983 22.3636 25.3613C21.1089 26.2921 19.8325 27.2077 18.5455 28.1026C15.9872 29.8698 13.3816 31.5756 10.7185 33.1863L10.7054 33.1851Z" fill="white"/>
<path fill-rule="evenodd" clip-rule="evenodd" d="M10.0653 33.5799C9.53795 34.2489 8.88999 34.574 8.25022 34.9412C7.84829 35.176 7.74912 35.1652 7.34268 35.395C7.15093 35.5086 7.08065 35.7351 6.88891 35.8488C6.78466 35.8985 6.53081 35.785 6.43513 35.8488C6.43513 36.1443 6.0348 36.2337 5.98136 36.3025C5.87853 36.3482 5.72854 35.9245 5.61267 35.9148C5.53047 35.9 5.45076 35.8691 5.3782 35.8237C5.30565 35.7784 5.2417 35.7196 5.1901 35.6507C5.06879 35.474 5.07277 35.1845 4.96551 34.986C5.9432 34.3735 6.90289 33.7364 7.85118 33.096C8.61231 33.2387 9.99837 33.3374 10.7634 33.3646L10.0653 33.5799ZM22.4605 22.9836C22.8885 22.6798 23.3168 22.3623 23.7406 22.0398C23.8403 21.95 23.9606 21.8689 24.0672 21.782C24.0672 21.782 24.0875 21.8046 24.0988 21.8171C24.2264 21.9627 24.3757 22.0875 24.5406 22.1864L25.0192 22.5361C25.1781 22.6473 25.3369 22.763 25.4936 22.867C25.248 23.0609 25.0258 23.2292 24.785 23.4097C24.1298 23.8998 23.4699 24.394 22.8102 24.8791L22.6594 25.0148C22.6858 24.3406 22.6243 23.659 22.4764 22.9873L22.4605 22.9836Z" fill="#D1DDF1"/>
<path fill-rule="evenodd" clip-rule="evenodd" d="M44.7624 19.7368C44.4964 19.2986 44.1914 18.8847 43.8513 18.5004C43.3538 17.922 42.8007 17.3896 42.2621 16.8562C41.2592 15.8588 40.2604 14.8056 39.7598 13.4683C39.5272 12.856 39.4507 12.1995 39.5375 11.5596C39.7906 12.6307 40.8482 13.214 41.838 13.4975C42.4149 13.6677 43.0026 13.768 43.5646 13.9476C43.8416 14.0327 44.1095 14.1479 44.3633 14.2909C44.4914 14.3686 44.6144 14.4547 44.7315 14.5487C44.8166 14.6342 44.9088 14.7121 45.0072 14.7816C45.2731 15.8636 45.3437 16.9787 45.2159 18.0736C45.1345 18.6475 44.9871 19.208 44.7766 19.744L44.7624 19.7368ZM24.1867 16.0313C25.124 15.9371 25.9526 15.3554 26.5772 14.6808C27.399 13.7806 27.8956 12.6359 28.6327 11.6675C28.9934 11.1838 29.4394 10.7714 29.9496 10.4498C30.4515 10.143 31.0039 9.92483 31.5837 9.80439C32.7762 9.56216 34.0177 9.60961 35.206 9.94284C35.8846 10.1195 36.5511 10.3447 37.2003 10.6169C37.7545 10.8396 38.2901 11.1151 38.8484 11.3381C36.7708 11.2362 34.7506 12.2211 33.3195 13.666C32.4994 14.5169 31.8317 15.5043 31.3442 16.587C30.8524 17.6951 30.4886 18.8591 30.2597 20.0572C30.1367 20.7765 29.9163 21.4726 29.6045 22.1265C29.3071 22.7271 28.8298 23.2157 28.2373 23.5258C27.068 22.5876 26.0953 21.425 25.3791 20.1095C24.6974 18.8414 24.2921 17.449 24.191 16.0274L24.1867 16.0313ZM38.2404 6.04421C38.2455 6.09227 38.2659 6.13787 38.2986 6.17418C38.3313 6.2105 38.3745 6.23559 38.4218 6.2457C38.6535 6.33101 38.878 6.436 39.0929 6.55952C38.9891 6.78699 38.9361 7.03576 38.9374 7.2889C38.9484 7.76051 39.0502 8.22836 39.2374 8.66661C39.4474 9.12397 39.5755 9.61273 39.6158 10.1099C39.6236 10.3242 39.5889 10.5366 39.5139 10.7349C39.4361 10.9098 39.3207 11.0644 39.1756 11.1878C39.1393 10.8395 39.0333 10.4999 38.8637 10.1897C38.6961 9.83342 38.4907 9.49535 38.2514 9.18149C37.7601 8.55139 37.147 8.02628 36.4509 7.6393C35.7636 7.25419 35.0048 7.02301 34.2284 6.96217C33.2556 6.89595 32.3126 7.14356 31.3632 7.28472C30.8712 7.37058 30.3682 7.39223 29.8667 7.34915C29.6205 7.32702 29.3766 7.27766 29.1396 7.20197C28.9467 7.14312 28.7739 7.04613 28.5897 6.9754C29.7623 6.23739 31.074 5.73999 32.4516 5.51096C34.3819 5.22688 36.366 5.40965 38.2404 6.04421Z" fill="#7897EE"/>
<path fill-rule="evenodd" clip-rule="evenodd" d="M44.9097 19.6038C44.6464 19.1623 44.3427 18.7465 44.0023 18.3615C43.6609 17.9824 43.3176 17.6011 42.9491 17.2504C43.5913 16.2219 44.0482 15.0904 44.2987 13.9078C44.4125 13.9558 44.5236 14.0099 44.6314 14.0699C44.7558 14.142 44.8753 14.2221 44.9893 14.3097C45.0747 14.3951 45.1676 14.4726 45.2669 14.5414C45.5163 15.6399 45.5648 16.7766 45.4102 17.8967C45.3145 18.4842 45.1514 19.0593 44.9242 19.6109L44.9097 19.6038ZM29.8616 20.9491C27.7954 19.8308 26.3304 17.8702 25.3046 15.739C24.8792 16.0115 24.4006 16.1891 23.9019 16.2592C23.9751 17.7079 24.3607 19.1202 25.0322 20.3998C25.7382 21.727 26.7104 22.8927 27.8889 23.8251C28.5029 23.4959 29.0027 22.9871 29.3204 22.3677C29.5566 21.9175 29.7383 21.4412 29.8616 20.9491Z" fill="#7897EE"/>
<path fill-rule="evenodd" clip-rule="evenodd" d="M38.4561 25.3299C38.7375 23.5624 38.2211 21.766 37.8358 20.0413C37.5974 19.0541 37.4763 18.0431 37.4749 17.0296C37.509 16.1363 37.6656 15.253 37.9403 14.4046C38.2411 13.4162 38.7004 12.4847 39.3003 11.6461C39.3087 11.6353 39.3143 11.6224 39.3164 11.6088C39.3185 11.5951 39.3171 11.5811 39.3123 11.5681C39.3123 11.5681 39.3123 11.5681 39.3232 11.5584C39.0683 12.6852 39.4435 13.9288 40.0167 14.8874C40.8127 16.2067 42.0488 17.201 43.0818 18.3266C43.3807 18.6426 43.6559 18.9803 43.9051 19.3368C44.0854 19.5957 44.2488 19.8658 44.3943 20.1456C43.7586 21.4556 42.8361 22.6036 41.6949 23.5051C40.7151 24.2825 39.6137 24.8936 38.4341 25.3142L38.4561 25.3299ZM26.483 8.98551C27.0215 8.35041 27.643 7.79087 28.331 7.32171C28.3408 7.33645 28.3527 7.34969 28.3664 7.36102C28.7008 7.62164 29.1019 7.78177 29.5224 7.82251C29.9456 7.88772 30.3749 7.89964 30.8002 7.858C31.7582 7.7862 32.6782 7.51131 33.6289 7.46188C34.3928 7.43199 35.1552 7.57307 35.8607 7.87485C36.5661 8.17662 37.1969 8.63149 37.707 9.20634C37.9959 9.51607 38.2438 9.86163 38.4445 10.2344C38.5488 10.4211 38.6406 10.6146 38.7191 10.8135C38.7597 10.9152 38.7896 11.0267 38.8322 11.1306C38.395 10.8799 37.9286 10.6752 37.4706 10.4668C36.9048 10.2102 36.3233 9.99025 35.7298 9.80839C34.5571 9.43256 33.3203 9.30917 32.101 9.44635C30.9057 9.57839 29.7852 10.0826 28.8972 10.8879C27.9732 11.7633 27.4406 12.9386 26.7064 13.9594C26.0833 14.8209 25.1943 15.6569 24.1112 15.7899C24.1 15.3223 24.1245 14.8549 24.1845 14.3917C24.4009 12.3998 25.1988 10.521 26.4787 8.98941L26.483 8.98551ZM42.8508 9.7541C42.7331 9.774 42.6225 9.82327 42.5292 9.89736C42.3917 10.021 42.2803 10.171 42.2017 10.3386C42.098 10.5194 41.9603 10.6782 41.7962 10.8064C41.1474 11.2956 40.3618 11.2281 39.5948 11.2466C39.7617 11.0353 39.8733 10.7854 39.9196 10.5193C39.9793 10.0436 39.9236 9.55942 39.7574 9.10768C39.5636 8.63784 39.4225 8.14832 39.3366 7.64818C39.306 7.43003 39.3181 7.2084 39.3721 6.9956C39.3881 6.91173 39.4149 6.8304 39.452 6.75365C39.6423 6.84321 39.8173 6.95053 40.0112 7.05272C40.5082 7.34293 40.9742 7.68396 41.4014 8.07028C41.9534 8.56838 42.4405 9.13419 42.8508 9.7541Z" fill="#D1DDF1"/>
<path fill-rule="evenodd" clip-rule="evenodd" d="M38.5239 25.2196C38.7756 23.7429 38.4801 22.2514 38.1706 20.7846C39.9922 20.1369 41.5779 18.949 42.7135 17.3813C42.9255 17.5899 43.1353 17.8004 43.3518 18.0409C43.654 18.36 43.9317 18.7015 44.1826 19.0624C44.3641 19.3246 44.5282 19.5984 44.674 19.8822C44.0097 21.2255 43.0541 22.4066 41.8775 23.3387C40.8673 24.1424 39.7346 24.7778 38.5239 25.2196ZM25.1928 15.1697C24.8545 14.4172 24.5565 13.6469 24.2999 12.862C24.1902 13.3084 24.1071 13.7607 24.0513 14.2163C23.9891 14.6864 23.9627 15.1602 23.9724 15.6334C24.4118 15.5721 24.8325 15.4107 25.2017 15.1617L25.1928 15.1697Z" fill="#7897EE" fill-opacity="0.15"/>
<path d="M45.4167 19.7066C46.3024 17.3303 45.9594 14.7737 45.1062 12.4355C44.2011 9.97834 42.6167 7.63948 40.2676 6.36395C40.1259 6.29424 39.9863 6.22255 39.848 6.16548C39.1156 5.76514 38.3417 5.44546 37.5402 5.21205C36.4114 4.89412 35.2422 4.74218 34.0694 4.761C31.5137 4.80163 29.047 5.70879 27.0733 7.33394C25.378 8.77442 24.1736 10.7073 23.6278 12.8635C23.0697 14.9581 23.1483 17.1712 23.8535 19.2202C24.0483 19.7633 24.2851 20.2904 24.562 20.7966C24.2808 20.9455 24.0114 21.1155 23.756 21.3051C23.4365 21.5336 23.1093 21.7493 22.7854 21.9817C22.1415 22.4509 21.4998 22.9181 20.8555 23.3956C19.5679 24.3299 18.2804 25.2642 16.9804 26.1978C14.4076 28.0484 11.8147 29.862 9.20146 31.6385C8.47055 32.1426 7.73376 32.6402 6.98191 33.1474C6.23006 33.6546 5.49457 34.1274 4.75232 34.6496C4.6992 34.6871 4.65625 34.7371 4.62738 34.7954C4.59851 34.8536 4.58462 34.918 4.58697 34.983C4.58933 35.0479 4.60785 35.1112 4.64086 35.1671C4.67387 35.223 4.72033 35.2698 4.77602 35.3032C4.63965 35.8404 5.09411 36.4417 5.58372 36.6127C5.76871 36.6687 5.96438 36.6802 6.15469 36.6461C6.34501 36.6119 6.52455 36.5332 6.67861 36.4163C6.69476 36.4103 6.71178 36.407 6.729 36.4064C6.83187 36.3663 6.93003 36.315 7.02171 36.2534C7.19292 36.1585 7.36022 36.0592 7.52751 35.9598C7.86428 35.7593 8.20476 35.5672 8.5376 35.3622C9.19805 34.9728 9.8572 34.5688 10.5144 34.1627C11.8222 33.3562 13.1233 32.5203 14.4106 31.6691C16.988 29.9669 19.5144 28.1817 21.9897 26.3135C22.6796 25.7871 23.367 25.2537 24.052 24.7133C24.7501 24.1892 25.4149 23.6223 26.0426 23.0158C26.0641 23.0018 26.0832 22.9846 26.0993 22.9647C26.648 23.5722 27.2599 24.1195 27.9247 24.5973C29.7875 25.9559 32.0197 26.7158 34.3253 26.7759C36.6344 26.8125 38.9071 26.1948 40.8807 24.9944C42.8873 23.7798 44.5994 21.9265 45.4265 19.7175L45.4167 19.7066ZM38.3867 25.3256C38.6776 23.552 38.1679 21.7532 37.7894 20.0257C37.5549 19.037 37.4382 18.0239 37.4417 17.0076C37.4801 16.1117 37.6415 15.2253 37.9213 14.3733C38.2279 13.3808 38.6934 12.4446 39.2996 11.6009C39.3081 11.59 39.3137 11.5771 39.3159 11.5634C39.3181 11.5497 39.3167 11.5357 39.312 11.5226C39.312 11.5226 39.312 11.5226 39.3229 11.5128C39.0617 12.6439 39.4324 13.889 40.0031 14.8475C40.7957 16.1665 42.0316 17.1575 43.0631 18.2813C43.3616 18.5967 43.6362 18.9339 43.8846 19.2902C44.0642 19.5489 44.227 19.819 44.3717 20.0988C43.7273 21.4154 42.796 22.5709 41.6462 23.4803C40.659 24.2645 39.5506 24.8825 38.3646 25.3099L38.3867 25.3256ZM44.611 19.6189C44.3514 19.1855 44.0523 18.7769 43.7176 18.3985C43.2282 17.8287 42.6824 17.3057 42.1511 16.7815C41.1619 15.8012 40.1778 14.7652 39.6972 13.4375C39.4738 12.8296 39.4076 12.1752 39.5046 11.5347C39.7414 12.6004 40.7919 13.1663 41.7792 13.4338C42.3545 13.5947 42.9419 13.6856 43.5022 13.8561C43.7775 13.9392 44.0439 14.0499 44.2971 14.1863C44.4242 14.2619 44.5461 14.346 44.6619 14.438C44.7458 14.522 44.8371 14.5984 44.9346 14.6662C45.1839 15.7426 45.2371 16.8552 45.0917 17.9507C45.001 18.5251 44.8445 19.0872 44.6252 19.6259L44.611 19.6189ZM44.7948 14.046L44.6112 13.943C44.3885 13.8011 44.1508 13.6841 43.9024 13.5944C43.3616 13.4204 42.8091 13.2847 42.2492 13.1882C41.2576 12.9641 39.9791 12.5442 39.6752 11.4522C40.3252 11.5718 40.9959 11.5045 41.6093 11.258C41.9474 11.1116 42.2378 10.8734 42.4476 10.5704C42.5697 10.3815 42.7966 9.86148 43.1041 10.0977C43.1093 10.1056 43.1161 10.1123 43.1241 10.1174C43.132 10.1224 43.141 10.1258 43.1503 10.1272C43.332 10.4254 43.5029 10.7293 43.661 11.0409C44.1488 11.9985 44.5277 13.0078 44.7905 14.05L44.7948 14.046ZM42.8723 9.68676C42.754 9.70729 42.6428 9.75721 42.5488 9.83195C42.4102 9.95655 42.2977 10.1075 42.2179 10.2759C42.113 10.4577 41.9741 10.6177 41.8087 10.747C41.1552 11.2406 40.367 11.1767 39.5971 11.1988C39.7656 10.9862 39.8788 10.7351 39.9265 10.4681C39.9887 9.99078 39.9352 9.50559 39.7705 9.05343C39.5782 8.58325 39.4389 8.09309 39.3552 7.59201C39.3255 7.37343 39.3387 7.15114 39.3939 6.93752C39.4103 6.85334 39.4377 6.77166 39.4753 6.69453C39.6659 6.78341 39.841 6.89019 40.0351 6.99172C40.5326 7.28033 40.9986 7.62004 41.4256 8.00536C41.9772 8.50215 42.4634 9.06715 42.8723 9.68676ZM38.2919 6.04695C38.2963 6.09487 38.316 6.14009 38.3482 6.17584C38.3804 6.2116 38.4233 6.23597 38.4705 6.24532C38.7013 6.32686 38.9247 6.42817 39.1381 6.54814C39.0305 6.77696 38.9734 7.02624 38.9707 7.27903C38.9743 7.74986 39.0689 8.21549 39.2495 8.65023C39.4527 9.10368 39.5734 9.58979 39.606 10.0857C39.6103 10.2996 39.5723 10.5123 39.494 10.7115C39.4133 10.8874 39.2952 11.0436 39.1478 11.1692C39.117 10.8218 39.0161 10.4844 38.8511 10.1772C38.6887 9.82407 38.4883 9.48968 38.2534 9.18001C37.7711 8.55848 37.1651 8.04373 36.4736 7.66823C35.791 7.29447 35.0343 7.07556 34.2574 7.02705C33.2836 6.97628 32.3348 7.23845 31.3812 7.39442C30.8869 7.48793 30.3825 7.5175 29.8807 7.48239C29.6343 7.46418 29.3908 7.41873 29.1544 7.34688C28.9621 7.29114 28.7904 7.19701 28.607 7.12928C29.7936 6.37371 31.1158 5.85625 32.4998 5.60577C34.4385 5.29159 36.4238 5.44281 38.2919 6.04695ZM26.4433 8.99847C26.9868 8.35908 27.6133 7.79506 28.306 7.32134C28.3158 7.33607 28.3277 7.34929 28.3413 7.36058C28.6758 7.6203 29.0776 7.77894 29.4994 7.81778C29.9239 7.88113 30.3548 7.89103 30.7818 7.84724C31.7437 7.77066 32.6685 7.49062 33.6229 7.4365C34.3901 7.40172 35.1553 7.5386 35.8628 7.83714C36.5702 8.13568 37.202 8.58836 37.7121 9.16218C38.0006 9.47136 38.2477 9.81666 38.4474 10.1894C38.5512 10.3762 38.6423 10.5698 38.7202 10.7688C38.7605 10.8706 38.79 10.9822 38.8323 11.0862C38.3946 10.837 37.9274 10.6339 37.4688 10.4272C36.9021 10.1726 36.3195 9.95483 35.7247 9.77532C34.5494 9.4041 33.3086 9.2863 32.0842 9.4297C30.8838 9.56782 29.7568 10.0787 28.8616 10.8905C27.93 11.7727 27.3898 12.9537 26.648 13.9808C26.0184 14.8476 25.1222 15.69 24.0345 15.8286C24.0254 15.3598 24.0522 14.891 24.1147 14.4263C24.3415 12.428 25.1513 10.5404 26.4433 8.99847ZM24.0521 16.243C24.9928 16.1341 25.8323 15.5401 26.4688 14.8565C27.3064 13.9445 27.8221 12.7934 28.576 11.8147C28.945 11.3259 29.3984 10.907 29.9148 10.5777C30.4226 10.2634 30.9795 10.0368 31.5624 9.90735C32.7611 9.64661 34.0044 9.67441 35.1899 9.98844C35.8671 10.1541 36.5314 10.3686 37.1776 10.6302C37.7293 10.8438 38.2617 11.1105 38.8176 11.3244C36.7374 11.2554 34.6976 12.271 33.2407 13.7366C32.4055 14.5993 31.7209 15.596 31.2153 16.685C30.705 17.7994 30.3221 18.9677 30.0739 20.1678C29.9382 20.8887 29.7078 21.5885 29.3886 22.2491C29.0771 22.851 28.5903 23.3443 27.9926 23.6639C26.8357 22.7454 25.8794 21.5996 25.1825 20.2971C24.5195 19.0414 24.1354 17.6572 24.0565 16.239L24.0521 16.243ZM24.884 21.3473C24.8613 21.3448 24.8384 21.3443 24.8155 21.3458C24.7941 21.3494 24.7725 21.3517 24.7508 21.3529C24.7793 21.3232 24.8099 21.2956 24.8424 21.2704L24.888 21.3517L24.884 21.3473ZM10.6279 33.1921C9.89285 33.6566 9.15016 34.1081 8.40552 34.5576C8.03211 34.7832 7.66327 35.0009 7.28593 35.2222C7.10773 35.3313 6.93216 35.4302 6.75395 35.5393C6.65749 35.5878 6.56437 35.6426 6.4752 35.7035C6.4063 35.7475 6.34513 35.8025 6.29416 35.8665C6.19913 35.9113 6.09461 35.9322 5.98968 35.9275C5.91552 35.917 5.84419 35.8919 5.77985 35.8536C5.71552 35.8153 5.65948 35.7646 5.61501 35.7043C5.51099 35.5493 5.52476 35.2883 5.43427 35.1132C6.68778 34.3122 7.89615 33.461 9.13113 32.6175C10.4438 31.7199 11.7588 30.8161 13.0662 29.8995C15.6618 28.0889 18.2375 26.2474 20.7934 24.3751C21.5067 23.8513 22.2389 23.3223 22.9513 22.7757C23.0451 22.6912 23.1572 22.614 23.2571 22.5319C23.2571 22.5319 23.2748 22.5515 23.2846 22.5624C23.3954 22.6892 23.5267 22.7964 23.673 22.8798L24.1054 23.189C24.2459 23.2836 24.3861 23.3823 24.5248 23.4706C24.2949 23.6539 24.087 23.8134 23.8619 23.9845C23.2495 24.4491 22.6326 24.9177 22.0162 25.3779C20.7873 26.3028 19.5384 27.2141 18.2801 28.1063C15.7791 29.8685 13.2355 31.5746 10.6403 33.1928L10.6279 33.1921ZM25.7652 22.6024C25.769 22.5965 25.7743 22.5918 25.7805 22.5887L25.7942 22.6039C25.7942 22.6039 25.7942 22.6039 25.779 22.6177L25.7652 22.6024ZM29.6341 24.7633C29.1863 24.5222 28.7557 24.2505 28.3452 23.9503C29.3616 23.4298 29.9334 22.2796 30.2323 21.2211C30.4125 20.6009 30.5334 19.9632 30.6812 19.3289C30.8205 18.7485 30.9943 18.1769 31.2015 17.6171C32.0414 15.4005 33.5522 13.4246 35.6912 12.3394C36.7575 11.7957 37.9373 11.5126 39.1338 11.5133C38.572 12.2053 38.1105 12.973 37.7628 13.7937C37.4103 14.646 37.1864 15.546 37.0984 16.464C37.0096 17.4454 37.056 18.4342 37.2364 19.4027C37.4184 20.4821 37.7291 21.5247 37.9032 22.5954C38.0827 23.5471 38.0924 24.5232 37.9319 25.4785C37.2406 25.6883 36.5311 25.8329 35.8128 25.9102C33.6843 26.1607 31.5302 25.7609 29.6341 24.7633Z" fill="#506FC6"/>
</svg>
