<svg width="320" height="103" viewBox="0 0 320 103" fill="none" xmlns="http://www.w3.org/2000/svg">
<path opacity="0.3" d="M287.079 18.6229L287.869 18.0559C287.465 17.4703 286.926 16.9739 286.289 16.6019L285.673 17.3289C285.316 17.1265 284.927 16.9769 284.52 16.8854L284.67 15.9403C283.932 15.7852 283.165 15.7852 282.427 15.9403L282.577 16.8854C282.17 16.9769 281.781 17.1265 281.424 17.3289L280.808 16.6019C280.169 16.9713 279.629 17.4682 279.228 18.0559L280.018 18.6229C279.801 18.9529 279.639 19.3106 279.536 19.6843L278.517 19.5462C278.348 20.2257 278.348 20.9314 278.517 21.6108L279.536 21.4727C279.639 21.8465 279.801 22.2042 280.018 22.5341L279.228 23.1012C279.629 23.6888 280.169 24.1858 280.808 24.5551L281.424 23.8282C281.781 24.0305 282.17 24.1801 282.577 24.2716L282.427 25.2167C283.165 25.3718 283.932 25.3718 284.67 25.2167L284.52 24.2716C284.927 24.1801 285.316 24.0305 285.673 23.8282L286.289 24.5551C286.926 24.1831 287.465 23.6867 287.869 23.1012L287.079 22.5341C287.293 22.2038 287.453 21.8461 287.553 21.4727L288.58 21.6108C288.749 20.9314 288.749 20.2257 288.58 19.5462L287.553 19.6843C287.453 19.3109 287.293 18.9532 287.079 18.6229ZM283.58 23.0794C283.044 23.0793 282.52 22.9334 282.074 22.6598C281.628 22.3863 281.279 21.9974 281.073 21.5421C280.866 21.0869 280.811 20.5855 280.913 20.1012C281.015 19.6169 281.271 19.1713 281.648 18.8204C282.025 18.4695 282.506 18.2291 283.031 18.1293C283.556 18.0296 284.101 18.075 284.598 18.2598C285.095 18.4446 285.522 18.7606 285.824 19.1681C286.126 19.5755 286.291 20.0561 286.297 20.5494C286.301 20.8803 286.234 21.2086 286.1 21.5154C285.965 21.8222 285.765 22.1013 285.513 22.3366C285.26 22.5719 284.959 22.7588 284.627 22.8863C284.296 23.0137 283.94 23.0794 283.58 23.0794Z" fill="white"/>
<path opacity="0.3" d="M66.2204 15.8408C65.6237 15.8418 65.0408 16.0055 64.5453 16.3114C64.0498 16.6173 63.664 17.0515 63.4366 17.5592C63.2093 18.0669 63.1506 18.6253 63.268 19.1637C63.3854 19.702 63.6736 20.1963 64.0962 20.5839C64.5188 20.9716 65.0568 21.2351 65.6422 21.3413C66.2275 21.4475 66.834 21.3916 67.3848 21.1806C67.9356 20.9695 68.4061 20.6129 68.7367 20.1558C69.0673 19.6987 69.2432 19.1616 69.2422 18.6125C69.2422 18.2477 69.1639 17.8865 69.012 17.5496C68.86 17.2127 68.6372 16.9067 68.3565 16.6492C68.0757 16.3917 67.7425 16.1878 67.376 16.0491C67.0094 15.9103 66.6167 15.8396 66.2204 15.8408ZM66.2204 19.8689C65.9504 19.8689 65.6865 19.7952 65.462 19.6571C65.2375 19.5191 65.0626 19.3229 64.9593 19.0933C64.8559 18.8637 64.8289 18.6111 64.8816 18.3674C64.9342 18.1237 65.0642 17.8998 65.2552 17.7241C65.4461 17.5484 65.6893 17.4288 65.9541 17.3803C66.2189 17.3318 66.4933 17.3567 66.7427 17.4518C66.9922 17.5469 67.2054 17.7079 67.3553 17.9145C67.5053 18.1211 67.5854 18.364 67.5854 18.6125C67.5854 18.9457 67.4416 19.2653 67.1856 19.5009C66.9296 19.7365 66.5824 19.8689 66.2204 19.8689Z" fill="white"/>
<path opacity="0.3" d="M66.2208 12.887C64.9904 12.887 63.7877 13.2228 62.7647 13.8519C61.7417 14.481 60.9444 15.3752 60.4735 16.4214C60.0027 17.4676 59.8795 18.6189 60.1195 19.7295C60.3596 20.8402 60.952 21.8603 61.822 22.6611C62.692 23.4618 63.8004 24.0071 65.0071 24.228C66.2139 24.449 67.4646 24.3356 68.6013 23.9022C69.738 23.4689 70.7096 22.735 71.3931 21.7934C72.0767 20.8519 72.4415 19.7449 72.4415 18.6125C72.4401 17.0944 71.7843 15.6388 70.618 14.5653C69.4517 13.4919 67.8702 12.8882 66.2208 12.887ZM66.2208 22.8659C65.3082 22.865 64.4165 22.6151 63.6582 22.1479C62.8999 21.6807 62.309 21.0171 61.9603 20.241C61.6115 19.4648 61.5206 18.611 61.6988 17.7873C61.8771 16.9636 62.3167 16.207 62.9619 15.6131C63.6072 15.0192 64.4292 14.6147 65.3241 14.4506C66.2191 14.2865 67.1468 14.3702 67.9901 14.6912C68.8333 15.0122 69.5543 15.556 70.0619 16.2539C70.5695 16.9519 70.841 17.7726 70.842 18.6125C70.842 19.7406 70.3552 20.8224 69.4885 21.6201C68.6218 22.4178 67.4464 22.8659 66.2208 22.8659Z" fill="white"/>
<path opacity="0.3" d="M66.2204 15.8408C65.6237 15.8418 65.0408 16.0055 64.5453 16.3114C64.0498 16.6173 63.664 17.0515 63.4366 17.5592C63.2093 18.0669 63.1506 18.6253 63.268 19.1637C63.3854 19.702 63.6736 20.1963 64.0962 20.5839C64.5188 20.9716 65.0568 21.2351 65.6422 21.3413C66.2275 21.4475 66.834 21.3916 67.3848 21.1806C67.9356 20.9695 68.4061 20.6129 68.7367 20.1558C69.0673 19.6987 69.2432 19.1616 69.2422 18.6125C69.2422 18.2477 69.1639 17.8865 69.012 17.5496C68.86 17.2127 68.6372 16.9067 68.3565 16.6492C68.0757 16.3917 67.7425 16.1878 67.376 16.0491C67.0094 15.9103 66.6167 15.8396 66.2204 15.8408ZM66.2204 19.8689C65.9504 19.8689 65.6865 19.7952 65.462 19.6571C65.2375 19.5191 65.0626 19.3229 64.9593 19.0933C64.8559 18.8637 64.8289 18.6111 64.8816 18.3674C64.9342 18.1237 65.0642 17.8998 65.2552 17.7241C65.4461 17.5484 65.6893 17.4288 65.9541 17.3803C66.2189 17.3318 66.4933 17.3567 66.7427 17.4518C66.9922 17.5469 67.2054 17.7079 67.3553 17.9145C67.5053 18.1211 67.5854 18.364 67.5854 18.6125C67.5854 18.9457 67.4416 19.2653 67.1856 19.5009C66.9296 19.7365 66.5824 19.8689 66.2204 19.8689Z" fill="white"/>
<path opacity="0.3" d="M66.2204 15.8408C65.6237 15.8418 65.0408 16.0055 64.5453 16.3114C64.0498 16.6173 63.664 17.0515 63.4366 17.5592C63.2093 18.0669 63.1506 18.6253 63.268 19.1637C63.3854 19.702 63.6736 20.1963 64.0962 20.5839C64.5188 20.9716 65.0568 21.2351 65.6422 21.3413C66.2275 21.4475 66.834 21.3916 67.3848 21.1806C67.9356 20.9695 68.4061 20.6129 68.7367 20.1558C69.0673 19.6987 69.2432 19.1616 69.2422 18.6125C69.2422 18.2477 69.1639 17.8865 69.012 17.5496C68.86 17.2127 68.6372 16.9067 68.3565 16.6492C68.0757 16.3917 67.7425 16.1878 67.376 16.0491C67.0094 15.9103 66.6167 15.8396 66.2204 15.8408ZM66.2204 19.8689C65.9504 19.8689 65.6865 19.7952 65.462 19.6571C65.2375 19.5191 65.0626 19.3229 64.9593 19.0933C64.8559 18.8637 64.8289 18.6111 64.8816 18.3674C64.9342 18.1237 65.0642 17.8998 65.2552 17.7241C65.4461 17.5484 65.6893 17.4288 65.9541 17.3803C66.2189 17.3318 66.4933 17.3567 66.7427 17.4518C66.9922 17.5469 67.2054 17.7079 67.3553 17.9145C67.5053 18.1211 67.5854 18.364 67.5854 18.6125C67.5854 18.9457 67.4416 19.2653 67.1856 19.5009C66.9296 19.7365 66.5824 19.8689 66.2204 19.8689Z" fill="white"/>
<path opacity="0.3" d="M72.1635 12.7129L66.1191 18.5264L66.3224 18.7054L72.3668 12.892L72.1635 12.7129Z" fill="white"/>
<path opacity="0.3" d="M65.9518 18.3083L65.8574 18.4043L66.4831 18.9257L66.5775 18.8297L65.9518 18.3083Z" fill="white"/>
<path opacity="0.3" d="M66.4375 18.2834L65.8711 18.8594L65.9754 18.9463L66.5418 18.3703L66.4375 18.2834Z" fill="white"/>
<path opacity="0.3" d="M73.2232 12.9349H72.2697C72.231 12.9344 72.1939 12.9207 72.1655 12.8965C72.1403 12.8682 72.1273 12.8324 72.1291 12.7958L72.2176 11.8367C72.2176 11.8024 72.2325 11.7695 72.2588 11.7452C72.2852 11.7209 72.321 11.7073 72.3583 11.7073C72.3956 11.7073 72.4314 11.7209 72.4578 11.7452C72.4841 11.7695 72.499 11.8024 72.499 11.8367L72.426 12.6567H73.2232C73.2416 12.6567 73.2599 12.6601 73.277 12.6666C73.2941 12.6731 73.3096 12.6826 73.3226 12.6947C73.3357 12.7067 73.3461 12.721 73.3531 12.7367C73.3602 12.7524 73.3638 12.7692 73.3638 12.7862C73.3638 12.8032 73.3602 12.82 73.3531 12.8358C73.3461 12.8515 73.3357 12.8657 73.3226 12.8778C73.3096 12.8898 73.2941 12.8993 73.277 12.9058C73.2599 12.9123 73.2416 12.9157 73.2232 12.9157V12.9349Z" fill="white"/>
<path opacity="0.3" d="M72.6912 13.4288H71.7326C71.7129 13.4284 71.6936 13.4244 71.6757 13.417C71.6578 13.4096 71.6417 13.3989 71.6284 13.3856C71.6035 13.359 71.5905 13.3248 71.5919 13.2897L71.6805 12.3307C71.6818 12.3132 71.6869 12.2962 71.6955 12.2806C71.7042 12.265 71.7162 12.2512 71.7308 12.24C71.7454 12.2288 71.7623 12.2204 71.7805 12.2154C71.7987 12.2104 71.8179 12.2088 71.8368 12.2108C71.8551 12.212 71.8729 12.2166 71.8892 12.2243C71.9055 12.232 71.92 12.2427 71.9317 12.2557C71.9433 12.2687 71.952 12.2837 71.9572 12.2999C71.9624 12.3161 71.964 12.3331 71.9618 12.3499L71.8889 13.1698H72.6912C72.7285 13.1698 72.7643 13.1835 72.7907 13.2078C72.8171 13.2321 72.8319 13.265 72.8319 13.2993C72.8319 13.3337 72.8171 13.3666 72.7907 13.3909C72.7643 13.4152 72.7285 13.4288 72.6912 13.4288Z" fill="white"/>
<g opacity="0.7">
<path opacity="0.3" d="M311.905 57.2066C311.226 57.2051 310.562 57.3891 309.997 57.7353C309.432 58.0814 308.992 58.5741 308.731 59.1509C308.471 59.7277 308.402 60.3627 308.534 60.9754C308.666 61.5882 308.993 62.151 309.473 62.5927C309.953 63.0344 310.564 63.335 311.23 63.4565C311.896 63.5781 312.586 63.515 313.212 63.2753C313.839 63.0355 314.374 62.63 314.75 62.1101C315.126 61.5901 315.326 60.9791 315.325 60.3544C315.325 59.5196 314.964 58.7189 314.323 58.1285C313.682 57.5382 312.812 57.2066 311.905 57.2066ZM311.905 61.7793C311.591 61.7865 311.281 61.7075 311.017 61.5521C310.752 61.3968 310.543 61.1724 310.417 60.9074C310.292 60.6424 310.255 60.349 310.311 60.0646C310.368 59.7802 310.515 59.5178 310.734 59.3108C310.953 59.1038 311.235 58.9616 311.542 58.9025C311.85 58.8434 312.169 58.87 312.46 58.9789C312.751 59.0878 313 59.2741 313.176 59.5139C313.351 59.7537 313.445 60.0362 313.445 60.3253C313.437 60.6997 313.272 61.0568 312.985 61.3222C312.698 61.5876 312.311 61.741 311.905 61.7502V61.7793Z" fill="white"/>
<path opacity="0.3" d="M311.903 53.8623C310.508 53.8623 309.144 54.2431 307.984 54.9564C306.824 55.6698 305.92 56.6837 305.387 57.8699C304.853 59.0562 304.713 60.3615 304.985 61.6209C305.257 62.8802 305.929 64.037 306.916 64.9449C307.902 65.8528 309.159 66.4711 310.527 66.7216C311.895 66.9721 313.314 66.8435 314.602 66.3522C315.891 65.8608 316.993 65.0287 317.768 63.9611C318.543 62.8935 318.957 61.6383 318.957 60.3543C318.957 58.6325 318.214 56.9813 316.891 55.7638C315.568 54.5463 313.774 53.8623 311.903 53.8623ZM311.903 65.1743C310.866 65.18 309.851 64.9022 308.985 64.3761C308.12 63.85 307.444 63.0993 307.042 62.2191C306.641 61.3389 306.533 60.3688 306.732 59.432C306.93 58.4951 307.426 57.6335 308.157 56.9565C308.888 56.2795 309.822 55.8176 310.838 55.6292C311.855 55.4409 312.909 55.5346 313.868 55.8986C314.827 56.2625 315.647 56.8803 316.224 57.6735C316.8 58.4668 317.108 59.3998 317.108 60.3543C317.108 61.6276 316.561 62.8492 315.586 63.7523C314.61 64.6554 313.287 65.1666 311.903 65.1743Z" fill="white"/>
<path opacity="0.3" d="M311.905 57.2066C311.226 57.2051 310.562 57.3891 309.997 57.7353C309.432 58.0814 308.992 58.5741 308.731 59.1509C308.471 59.7277 308.402 60.3627 308.534 60.9754C308.666 61.5882 308.993 62.151 309.473 62.5927C309.953 63.0344 310.564 63.335 311.23 63.4565C311.896 63.5781 312.586 63.515 313.212 63.2753C313.839 63.0355 314.374 62.63 314.75 62.1101C315.126 61.5901 315.326 60.9791 315.325 60.3544C315.325 59.5196 314.964 58.7189 314.323 58.1285C313.682 57.5382 312.812 57.2066 311.905 57.2066ZM311.905 61.7793C311.591 61.7865 311.281 61.7075 311.017 61.5521C310.752 61.3968 310.543 61.1724 310.417 60.9074C310.292 60.6424 310.255 60.349 310.311 60.0646C310.368 59.7802 310.515 59.5178 310.734 59.3108C310.953 59.1038 311.235 58.9616 311.542 58.9025C311.85 58.8434 312.169 58.87 312.46 58.9789C312.751 59.0878 313 59.2741 313.176 59.5139C313.351 59.7537 313.445 60.0362 313.445 60.3253C313.437 60.6997 313.272 61.0568 312.985 61.3222C312.698 61.5876 312.311 61.741 311.905 61.7502V61.7793Z" fill="white"/>
<path opacity="0.3" d="M311.905 57.2066C311.226 57.2051 310.562 57.3891 309.997 57.7353C309.432 58.0814 308.992 58.5741 308.731 59.1509C308.471 59.7277 308.402 60.3627 308.534 60.9754C308.666 61.5882 308.993 62.151 309.473 62.5927C309.953 63.0344 310.564 63.335 311.23 63.4565C311.896 63.5781 312.586 63.515 313.212 63.2753C313.839 63.0355 314.374 62.63 314.75 62.1101C315.126 61.5901 315.326 60.9791 315.325 60.3544C315.325 59.5196 314.964 58.7189 314.323 58.1285C313.682 57.5382 312.812 57.2066 311.905 57.2066ZM311.905 61.7793C311.591 61.7865 311.281 61.7075 311.017 61.5521C310.752 61.3968 310.543 61.1724 310.417 60.9074C310.292 60.6424 310.255 60.349 310.311 60.0646C310.368 59.7802 310.515 59.5178 310.734 59.3108C310.953 59.1038 311.235 58.9616 311.542 58.9025C311.85 58.8434 312.169 58.87 312.46 58.9789C312.751 59.0878 313 59.2741 313.176 59.5139C313.351 59.7537 313.445 60.0362 313.445 60.3253C313.437 60.6997 313.272 61.0568 312.985 61.3222C312.698 61.5876 312.311 61.741 311.905 61.7502V61.7793Z" fill="white"/>
<path opacity="0.3" d="M318.628 53.6505L311.775 60.2434L312.009 60.4495L318.862 53.8566L318.628 53.6505Z" fill="white"/>
<path opacity="0.3" d="M311.585 60.006L311.479 60.1138L312.187 60.7042L312.293 60.5964L311.585 60.006Z" fill="white"/>
<path opacity="0.3" d="M312.159 59.9933L311.518 60.6455L311.635 60.7431L312.276 60.0909L312.159 59.9933Z" fill="white"/>
<path opacity="0.3" d="M319.842 53.9132H318.76C318.715 53.9131 318.673 53.8975 318.641 53.8696C318.615 53.8355 318.602 53.7949 318.602 53.7533L318.704 52.6701C318.708 52.6309 318.729 52.5946 318.761 52.5689C318.793 52.5431 318.835 52.5299 318.878 52.5319C318.899 52.5338 318.919 52.5394 318.937 52.5484C318.956 52.5574 318.972 52.5697 318.985 52.5846C318.999 52.5995 319.008 52.6166 319.014 52.635C319.02 52.6535 319.022 52.6728 319.02 52.6919L318.933 53.6224H319.842C319.884 53.6224 319.924 53.6378 319.953 53.665C319.983 53.6923 320 53.7293 320 53.7678C320 53.8064 319.983 53.8434 319.953 53.8706C319.924 53.8979 319.884 53.9132 319.842 53.9132Z" fill="white"/>
<path opacity="0.3" d="M319.232 54.4802H318.15C318.106 54.48 318.064 54.4644 318.032 54.4365C318.006 54.4024 317.992 54.3618 317.992 54.3202L318.095 53.237C318.096 53.2173 318.101 53.1979 318.111 53.1801C318.12 53.1623 318.133 53.1464 318.149 53.1335C318.166 53.1206 318.185 53.1108 318.205 53.1049C318.226 53.0989 318.247 53.0969 318.269 53.0989C318.289 53.1007 318.31 53.1063 318.328 53.1153C318.346 53.1244 318.363 53.1367 318.376 53.1516C318.389 53.1664 318.399 53.1836 318.405 53.202C318.411 53.2204 318.413 53.2397 318.411 53.2588L318.332 54.1894H319.232C319.274 54.1894 319.314 54.2047 319.344 54.232C319.374 54.2592 319.39 54.2962 319.39 54.3348C319.39 54.3733 319.374 54.4103 319.344 54.4376C319.314 54.4648 319.274 54.4802 319.232 54.4802Z" fill="white"/>
</g>
<g opacity="0.3">
<path opacity="0.3" d="M78.3778 3.65239C78.3212 3.65336 78.2648 3.64392 78.2122 3.62462C78.1595 3.60533 78.1116 3.57656 78.0711 3.54001C78.0307 3.50346 77.9985 3.45986 77.9766 3.41175C77.9547 3.36364 77.9434 3.31199 77.9434 3.25982V0.453637C77.9351 0.397104 77.94 0.339582 77.9578 0.284937C77.9756 0.230291 78.0059 0.179787 78.0467 0.136817C78.0875 0.0938469 78.1378 0.059406 78.1942 0.0358076C78.2506 0.0122093 78.3119 0 78.3739 0C78.4359 0 78.4971 0.0122093 78.5536 0.0358076C78.61 0.059406 78.6603 0.0938469 78.7011 0.136817C78.7419 0.179787 78.7722 0.230291 78.79 0.284937C78.8078 0.339582 78.8127 0.397104 78.8044 0.453637V3.25982C78.8044 3.31137 78.7933 3.36242 78.7719 3.41005C78.7505 3.45768 78.719 3.50096 78.6794 3.53741C78.6398 3.57386 78.5928 3.60278 78.5411 3.62251C78.4893 3.64224 78.4338 3.65239 78.3778 3.65239Z" fill="white"/>
<path opacity="0.3" d="M79.9011 2.24945H76.8522C76.7411 2.24574 76.6358 2.20298 76.5579 2.12995C76.48 2.05692 76.4355 1.95919 76.4336 1.85688C76.4336 1.75083 76.4794 1.64913 76.5608 1.57414C76.6423 1.49916 76.7528 1.45703 76.868 1.45703H79.9169C80.0308 1.45894 80.1392 1.5019 80.219 1.57668C80.2988 1.65146 80.3435 1.75208 80.3434 1.85688C80.3435 1.90968 80.332 1.96194 80.3095 2.01054C80.2871 2.05915 80.2543 2.10309 80.213 2.13974C80.1717 2.17639 80.1228 2.20499 80.0692 2.22385C80.0156 2.2427 79.9584 2.25141 79.9011 2.24945Z" fill="white"/>
</g>
<g opacity="0.7">
<path d="M2.98166 45.4084C2.8063 45.4084 2.63812 45.3443 2.51412 45.2302C2.39012 45.1161 2.32047 44.9613 2.32047 44.7999V40.5288C2.30777 40.4428 2.31523 40.3552 2.34234 40.2721C2.36945 40.1889 2.41559 40.112 2.47765 40.0466C2.53972 39.9812 2.61627 39.9288 2.70217 39.8929C2.78806 39.857 2.88131 39.8384 2.97565 39.8384C3.07 39.8384 3.16325 39.857 3.24914 39.8929C3.33504 39.9288 3.41159 39.9812 3.47365 40.0466C3.53572 40.112 3.58185 40.1889 3.60896 40.2721C3.63607 40.3552 3.64354 40.4428 3.63084 40.5288V44.7999C3.63087 44.9594 3.56286 45.1125 3.44145 45.2263C3.32004 45.3401 3.15493 45.4055 2.98166 45.4084Z" fill="white"/>
<path d="M5.30164 43.2728H0.661197C0.485836 43.2728 0.317656 43.2087 0.193657 43.0946C0.0696572 42.9804 0 42.8256 0 42.6642C0 42.5028 0.0696572 42.348 0.193657 42.2339C0.317656 42.1198 0.485836 42.0557 0.661197 42.0557H5.30164C5.477 42.0557 5.64518 42.1198 5.76918 42.2339C5.89318 42.348 5.96285 42.5028 5.96285 42.6642C5.96285 42.8256 5.89318 42.9804 5.76918 43.0946C5.64518 43.2087 5.477 43.2728 5.30164 43.2728Z" fill="white"/>
</g>
<g opacity="0.3">
<path opacity="0.3" d="M273.45 102.276C273.336 102.274 273.228 102.231 273.148 102.156C273.068 102.081 273.023 101.981 273.023 101.876V99.0772C273.015 99.0206 273.02 98.9631 273.038 98.9085C273.056 98.8538 273.086 98.8033 273.127 98.7604C273.168 98.7174 273.218 98.6829 273.274 98.6593C273.331 98.6357 273.392 98.6235 273.454 98.6235C273.516 98.6235 273.577 98.6357 273.634 98.6593C273.69 98.6829 273.74 98.7174 273.781 98.7604C273.822 98.8033 273.852 98.8538 273.87 98.9085C273.888 98.9631 273.893 99.0206 273.884 99.0772V101.883C273.882 101.988 273.836 102.088 273.754 102.161C273.673 102.235 273.564 102.276 273.45 102.276Z" fill="white"/>
<path opacity="0.3" d="M274.973 100.873H271.932C271.875 100.873 271.819 100.863 271.766 100.843C271.714 100.822 271.666 100.793 271.625 100.756C271.585 100.719 271.553 100.675 271.531 100.626C271.509 100.578 271.498 100.526 271.498 100.473C271.498 100.421 271.509 100.369 271.531 100.32C271.553 100.272 271.585 100.227 271.625 100.19C271.666 100.153 271.714 100.124 271.766 100.104C271.819 100.084 271.875 100.073 271.932 100.073H274.973C275.089 100.073 275.199 100.115 275.281 100.19C275.362 100.265 275.408 100.367 275.408 100.473C275.408 100.579 275.362 100.681 275.281 100.756C275.199 100.831 275.089 100.873 274.973 100.873Z" fill="white"/>
</g>
<g opacity="0.3">
<path d="M310.153 48.2938C310.04 48.2938 309.932 48.2524 309.852 48.1788C309.772 48.1051 309.727 48.0053 309.727 47.9012V45.095C309.718 45.0385 309.723 44.9809 309.741 44.9263C309.759 44.8716 309.789 44.8211 309.83 44.7782C309.871 44.7352 309.921 44.7008 309.977 44.6772C310.034 44.6536 310.095 44.6414 310.157 44.6414C310.219 44.6414 310.28 44.6536 310.337 44.6772C310.393 44.7008 310.444 44.7352 310.484 44.7782C310.525 44.8211 310.555 44.8716 310.573 44.9263C310.591 44.9809 310.596 45.0385 310.588 45.095V47.9012C310.588 47.9533 310.576 48.005 310.554 48.0531C310.532 48.1012 310.5 48.1448 310.46 48.1814C310.419 48.2179 310.371 48.2467 310.319 48.266C310.266 48.2853 310.21 48.2947 310.153 48.2938Z" fill="white"/>
<path d="M311.679 46.9125H308.638C308.522 46.9125 308.412 46.8704 308.33 46.7954C308.249 46.7204 308.203 46.6187 308.203 46.5126C308.203 46.4066 308.249 46.3049 308.33 46.2299C308.412 46.1549 308.522 46.1128 308.638 46.1128H311.679C311.794 46.1128 311.904 46.1549 311.986 46.2299C312.067 46.3049 312.113 46.4066 312.113 46.5126C312.113 46.6187 312.067 46.7204 311.986 46.7954C311.904 46.8704 311.794 46.9125 311.679 46.9125Z" fill="white"/>
</g>
<g opacity="0.3">
<path d="M294.874 13.7655C294.704 13.7655 294.54 13.7034 294.42 13.5927C294.3 13.4821 294.232 13.332 294.232 13.1756V8.95835C294.22 8.87339 294.227 8.78695 294.254 8.70482C294.281 8.6227 294.326 8.5468 294.388 8.48222C294.449 8.41764 294.525 8.36589 294.609 8.33042C294.694 8.29496 294.786 8.27661 294.879 8.27661C294.973 8.27661 295.065 8.29496 295.15 8.33042C295.234 8.36589 295.31 8.41764 295.371 8.48222C295.432 8.5468 295.478 8.6227 295.505 8.70482C295.532 8.78695 295.539 8.87339 295.526 8.95835V13.1756C295.526 13.254 295.509 13.3316 295.477 13.4039C295.444 13.4762 295.395 13.5417 295.334 13.5966C295.274 13.6516 295.202 13.6948 295.122 13.7238C295.043 13.7528 294.959 13.767 294.874 13.7655Z" fill="white"/>
<path d="M297.164 11.6896H292.594C292.421 11.6896 292.255 11.6263 292.133 11.5136C292.01 11.4009 291.941 11.2481 291.941 11.0887C291.941 10.9293 292.01 10.7765 292.133 10.6638C292.255 10.5511 292.421 10.4878 292.594 10.4878H297.164C297.337 10.4878 297.504 10.5511 297.626 10.6638C297.748 10.7765 297.817 10.9293 297.817 11.0887C297.817 11.2481 297.748 11.4009 297.626 11.5136C297.504 11.6263 297.337 11.6896 297.164 11.6896Z" fill="white"/>
</g>
<g opacity="0.3">
<path opacity="0.3" d="M38.1103 79.3902C38.0529 79.3912 37.9959 79.3815 37.9427 79.3618C37.8896 79.342 37.8412 79.3126 37.8007 79.2753C37.7601 79.2379 37.7282 79.1935 37.7067 79.1445C37.6853 79.0956 37.6748 79.0431 37.6758 78.9903V76.1914C37.6675 76.1349 37.6724 76.0774 37.6902 76.0227C37.708 75.9681 37.7383 75.9176 37.7791 75.8746C37.8199 75.8316 37.8702 75.7972 37.9266 75.7736C37.983 75.75 38.0443 75.7378 38.1063 75.7378C38.1683 75.7378 38.2296 75.75 38.286 75.7736C38.3424 75.7972 38.3927 75.8316 38.4335 75.8746C38.4743 75.9176 38.5046 75.9681 38.5224 76.0227C38.5402 76.0774 38.5451 76.1349 38.5368 76.1914V78.9903C38.5378 79.0425 38.5276 79.0943 38.5066 79.1428C38.4856 79.1913 38.4544 79.2354 38.4147 79.2726C38.375 79.3099 38.3276 79.3394 38.2753 79.3596C38.2231 79.3798 38.1669 79.3902 38.1103 79.3902Z" fill="white"/>
<path opacity="0.3" d="M39.6336 77.9943H36.5847C36.5232 78.002 36.4607 77.9975 36.4014 77.9811C36.342 77.9647 36.2871 77.9368 36.2404 77.8992C36.1938 77.8617 36.1563 77.8154 36.1307 77.7635C36.1051 77.7115 36.0918 77.6551 36.0918 77.5981C36.0918 77.541 36.1051 77.4846 36.1307 77.4327C36.1563 77.3808 36.1938 77.3345 36.2404 77.2969C36.2871 77.2594 36.342 77.2315 36.4014 77.2151C36.4607 77.1987 36.5232 77.1942 36.5847 77.2019H39.6336C39.7377 77.2149 39.8332 77.2622 39.9023 77.3351C39.9715 77.4079 40.0095 77.5014 40.0095 77.5981C40.0095 77.6948 39.9715 77.7883 39.9023 77.8611C39.8332 77.934 39.7377 77.9813 39.6336 77.9943Z" fill="white"/>
</g>
</svg>
