<svg xmlns="http://www.w3.org/2000/svg" xmlns:xlink="http://www.w3.org/1999/xlink" width="78" height="71" viewBox="0 0 78 71">
    <defs>
        <path id="a" d="M0 .66V39.5h77.81V.66H0z"/>
    </defs>
    <g fill="none" fill-rule="evenodd">
        <path fill="#2E3844" d="M58.982 44.007L63.33 41.9c.023-.05.044-.1.064-.148V30.767l-4.319 2.091-.093 11.15z"/>
        <path fill="#4A4A4A" d="M13.283 30.767v11.1l23.203 11.169c1.327.488 2.614.399 3.884 0l14.262-6.918V35.009l-16.293 7.885-25.056-12.127z"/>
        <path fill="#FFE63F" d="M57.997 29.85l-.379-.254-15.271-8.461a3.59 3.59 0 0 0-3.443-4.592 3.591 3.591 0 0 0-3.581 3.597 3.59 3.59 0 0 0 3.58 3.6c.945 0 1.803-.366 2.442-.965l15.108 8.416 1.544-1.342z"/>
        <g transform="translate(0 .01)">
            <mask id="b" fill="#fff">
                <use xlink:href="#a"/>
            </mask>
            <path fill="#4A4A4A" d="M77.81 20.13L38.34.66 0 19.215v1.73L38.34 39.5l16.292-7.996v-.509l-13.177-6.97a4.598 4.598 0 0 1-2.551.766c-2.56 0-4.638-2.086-4.638-4.661 0-2.574 2.078-4.66 4.638-4.66 2.563 0 4.641 2.086 4.641 4.66 0 .14-.006.279-.018.415l15.575 8.766 18.707-9.181z" mask="url(#b)"/>
        </g>
        <path fill="#FFE63F" d="M57.997 29.85l.288 16.572h-1.593l-.239-15.23z"/>
        <path fill="#FFE63F" d="M57.49 48.123a2.127 2.127 0 0 0 0-4.253 2.127 2.127 0 0 0 0 4.253"/>
        <path fill="#F5A623" d="M55.552 47.926h3.875l1.938 22.414h-7.754z"/>
    </g>
</svg>
