<?xml version="1.0" encoding="utf-8"?>
<!-- Generator: Adobe Illustrator 21.0.2, SVG Export Plug-In . SVG Version: 6.00 Build 0)  -->
<svg version="1.1" id="Layer_1" xmlns="http://www.w3.org/2000/svg" xmlns:xlink="http://www.w3.org/1999/xlink" x="0px" y="0px"
	 viewBox="0 0 260 260" style="enable-background:new 0 0 260 260;" xml:space="preserve">
<style type="text/css">
	.st0{fill:#F2F2F2;}
	.st1{fill:#F5F5F5;}
	.st2{fill:#FFFFFF;}
	.st3{fill:#574939;}
	.st4{fill:#5C3B1F;}
	.st5{fill:#FCFCF5;}
	.st6{fill:#FFDEBF;}
	.st7{fill:#FA8A8A;}
	.st8{fill:#8C5B30;}
	.st9{fill:#FFBF57;}
	.st10{fill:#E6E6E6;}
	.st11{filter:url(#Adobe_OpacityMaskFilter);}
	.st12{mask:url(#mask10_outline_2_);}
	.st13{filter:url(#Adobe_OpacityMaskFilter_1_);}
	.st14{mask:url(#mask11_outline_2_);}
	.st15{fill:#FDDCBE;}
	.st16{filter:url(#Adobe_OpacityMaskFilter_2_);}
	.st17{mask:url(#mask15_outline_1_);}
	.st18{filter:url(#Adobe_OpacityMaskFilter_3_);}
	.st19{mask:url(#mask16_outline_1_);}
	.st20{filter:url(#Adobe_OpacityMaskFilter_4_);}
	.st21{mask:url(#mask17_outline_1_);}
	.st22{fill:#282725;}
	.st23{fill:#FFD400;}
	.st24{fill:#EB7D86;}
</style>
<path id="path269_fill" class="st0" d="M220.3,251.9c0,4.1-30.3,7.5-67.7,7.5c-37.4,0-67.7-3.3-67.7-7.5c0-4.1,30.3-7.5,67.7-7.5
	C190,244.4,220.3,247.8,220.3,251.9z"/>
<path id="path277_fill" class="st1" d="M186.6,130l4,59.7c0,0-36.8,10.7-89.8,9.3l-13.2-58.6C87.6,140.4,148.9,145.8,186.6,130z"/>
<g id="Clip_9_1_">
	<g transform="translate(9250 1787.17)">
		<path id="path103_fill_1_" class="st2" d="M4,149.5V18.2h100.3v131.3H4L4,149.5z"/>
	</g>
</g>
<g id="Clip_2_1_">
	<g transform="translate(9287.44 1960.32)">
		<path id="path99_fill_1_" class="st2" d="M41.4,255.4h108.8v-64.1H41.4V255.4L41.4,255.4z"/>
	</g>
</g>
<path id="path276_fill" class="st3" d="M100.8,199.1l3.3,25.1l-2.1,27.7c0,0,35.2,9.4,26.4-4.3c-8.2-12.7-21-2.2-21-2.2l5-22.4
	l0.8-17.2c0,0,35.7,2.2,66.4-6.6l1.8,20.1l-4.6,28.9c0,0,32.6,10.8,23.6-4.2c-5-8.3-17.3-3.1-17.3-3.1l6.5-21.7l1-29.4L100.8,199.1z
	"/>
<g id="illustration">
	<g id="FIND">
		<g id="Group_3">
			<g id="Fill_1_1_">
				<g transform="translate(9287.44 1960.32)">
					<path id="path100_fill" class="st4" d="M41.4,206.9l5.5,22l-1.7,26.4c0,0,31.4,2,20.2-8.5c-8.7-8.2-16.2,3.8-16.2,3.8l5.5-25.2
						l-1-12.9c0,0,35-0.5,63.8-11.3l12.9,13.4l-4.8,24.8c0,0,32.8,4.5,22.6-7c-6.8-7.7-17.7,2.8-17.7,2.8l7.7-21.2l-11.7-22.6
						L41.4,206.9z"/>
				</g>
			</g>
		</g>
		<g id="Fill_4">
			<g transform="translate(9270.44 1900.66)">
				<path id="path101_fill" class="st5" d="M117.8,131.7l8.9,59.7c0,0-34.4,13.1-85.2,15.6l-17-57.4
					C24.4,149.5,82.9,149.7,117.8,131.7z"/>
			</g>
		</g>
		<g id="Fill_6">
			<g transform="translate(9268.63 1830.59)">
				<path id="path102_fill" class="st6" d="M117.8,131.7c0,0-6.8-104.5-79.9-58.3c0,0-21.5,24.9-13.5,76.1
					C97.3,151,117.8,131.7,117.8,131.7z"/>
			</g>
		</g>
		<g id="Group_10">
			<g id="Fill_8">
				<g transform="translate(9250 1787.17)">
					<path id="path104_fill" class="st4" d="M91.6,18.2c0,0,51.2,57-52.1,68.9l2.4,22.3c0,0-9.8-7.1-10.8,2.4s9.7,4.6,9.7,4.6
						s-6.1,25.3-16.4,33.3c0,0-42.7-82.6-4.7-86.7c0,0-0.7-14.7,19-24.8C66.8,23.5,85.1,54.1,91.6,18.2z"/>
				</g>
			</g>
		</g>
		<g id="Fill_11_1_">
			<g transform="translate(9341.51 1857.23)">
				<path id="path105_fill" class="st4" d="M96,95.5c1,3.5,3.2,5.9,4.8,5.4c1.6-0.5,2.1-3.7,1.1-7.2s-3.2-5.9-4.8-5.4
					C95.5,88.8,95,92,96,95.5z"/>
			</g>
		</g>
		<g id="Fill_13_1_">
			<g transform="translate(9300.13 1871.17)">
				<path id="path106_fill" class="st4" d="M54.7,109.4c1,3.5,3.2,5.9,4.8,5.4s2.1-3.7,1.1-7.2s-3.2-5.9-4.8-5.4
					C54.1,102.7,53.6,105.9,54.7,109.4z"/>
			</g>
		</g>
		<g id="Fill_15_1_">
			<g transform="translate(9316.13 1885.65)">
				<path id="path107_fill" class="st7" d="M97.6,116.7c0,0-17.5,2.8-27.4,8.2c0,0,1.8,14.4,17.9,10.1
					C104,130.6,97.6,116.7,97.6,116.7z"/>
			</g>
		</g>
		<g id="Fill_21">
			<g transform="translate(9363.77 1850.11)">
				<path id="path108_fill" class="st6" d="M154.5,81.2c-1.2,0.4-1.2,1.9-1.1,2.9c-0.2-0.9-0.8-2.5-2.3-2.1
					c-1.8,0.5-1.5,2.8-1.4,3.6l0,0c-0.2-0.7-1-2.7-2.4-2.3c-1.5,0.4-1.1,2.5-0.9,3.3c-0.3-0.8-1.1-3-2.9-2.5
					c-1.3,0.4-0.2,3.4-0.2,3.4c20,51.5-25.5,44.1-25.5,44.1l1.6,11c59.9,2.2,39.1-53.5,37.1-58.9C156.5,83.8,155.8,80.7,154.5,81.2z
					"/>
			</g>
		</g>
		<g id="Fill_23">
			<g transform="translate(9363.77 1900.66)">
				<path id="path109_fill" class="st5" d="M117.8,131.7l1.6,11c3.1,0.1,5.9,0.1,8.6-0.1l-1.8-10.6
					C121.4,132.2,117.8,131.7,117.8,131.7z"/>
			</g>
		</g>
		<g id="Fill_25_1_">
			<g transform="translate(9255.1 1918.51)">
				<path id="path110_fill" class="st6" d="M46.8,216.7c0.5-1.2-0.6-2.2-1.4-2.7c0.8,0.4,2.4,1,3.1-0.4c0.8-1.6-1.1-3-1.8-3.4l0,0
					c0.7,0.3,2.6,1.1,3.3-0.3c0.7-1.4-1.1-2.5-1.8-2.9c0.8,0.4,3,1.2,3.7-0.5c0.6-1.3-2.4-2.4-2.4-2.4
					c-51.6-19.2-15.9-48.5-15.9-48.5l-9.2-6.1c-41.5,43.4,13.8,64.9,19.1,67C43.5,216.5,46.3,218,46.8,216.7z"/>
			</g>
		</g>
		<g id="Fill_27">
			<g transform="translate(9264.83 1918.51)">
				<path id="path111_fill" class="st5" d="M33.7,155.6l-9.2-6.1c-2.1,2.2-4,4.4-5.6,6.5l9,5.7C30.8,157.9,33.7,155.6,33.7,155.6z"
					/>
			</g>
		</g>
		<g id="Group_4">
			<g id="Fill_29">
				<g transform="matrix(0.990268 -0.139173 0.139173 0.990268 9370.4 1843.5)">
					<path id="path112_fill" class="st8" d="M132.3,73.4l-6.2,3.5c0,0-2.1,2.9,0.8,9.9c2.8,7,5.9,7.3,5.9,7.3l6.2-1.4L132.3,73.4z"
						/>
				</g>
			</g>
			<g id="Fill_31">
				<g transform="matrix(0.990268 -0.139173 0.139173 0.990268 9374.42 1842.86)">
					<path id="path113_fill" class="st9" d="M140,80.5c0,0-4-8.7-7.7-7.1c-3.8,1.6-3.5,5.8-2.2,9.5c1.6,4.8,4.4,11.3,8.9,9.7
						C143.4,91,140,80.5,140,80.5z"/>
				</g>
			</g>
			<g id="Fill_33_1_">
				<g transform="matrix(0.990268 -0.139173 0.139173 0.990268 9377.4 1837.04)">
					<path id="path114_fill" class="st8" d="M156,64.6l-22.7,13.3c-1.1,2.9,2.3,10.4,4.4,10.2l24.6-9L156,64.6z"/>
				</g>
			</g>
			<g id="Fill_35_1_">
				<g transform="matrix(0.990268 -0.139173 0.139173 0.990268 9390.45 1814.45)">
					<path id="path115_fill" class="st9" d="M175.7,41.1l-29,17.1c0,0-0.9,19.3,14.1,32l29.2-9.9L175.7,41.1z"/>
				</g>
			</g>
			<g id="Fill_37_1_">
				<g transform="matrix(0.990268 -0.139173 0.139173 0.990268 9409.26 1782.82)">
					<path id="path116_fill" class="st8" d="M205.9,7.8L170,31.4c-8.7,17.6,9.1,55.4,26,59.5l41.6-11.2L205.9,7.8z"/>
				</g>
			</g>
			<g id="Fill_39_1_">
				<g transform="matrix(0.990268 -0.139173 0.139173 0.990268 9434.65 1777)">
					<path id="path117_fill" class="st9" d="M252.9,30.7c8.3,20.2,2.5,41.8-13,48.2s-34.8-4.7-43.1-24.9s-2.5-41.8,13-48.2
						S244.6,10.5,252.9,30.7z"/>
				</g>
			</g>
			<g id="Fill_41_1_">
				<g transform="matrix(0.990268 -0.139173 0.139173 0.990268 9438.42 1780.57)">
					<path id="path118_fill" class="st5" d="M250,31.9c-7.4-18.1-24.7-28.1-38.6-22.3c-13.9,5.8-19.1,25.1-11.7,43.2
						c7.4,18.1,24.7,28.1,38.6,22.3C252.2,69.3,257.4,50,250,31.9z"/>
				</g>
			</g>
			<g id="Fill_43_1_">
				<g transform="matrix(0.990268 -0.139173 0.139173 0.990268 9455.42 1778.19)">
					<path id="path119_fill" class="st10" d="M250,31.9c-7.4-18.1-24.7-28.1-38.6-22.3c-0.6,0.2-1.2,0.5-1.7,0.8
						c13.4-3.5,28.9,6.3,35.9,23.2c7.1,17.3,2.6,35.7-9.9,42.3c0.9-0.2,1.8-0.5,2.7-0.9C252.2,69.3,257.4,50,250,31.9z"/>
				</g>
			</g>
		</g>
	</g>
</g>
<g>
	<g id="Group_3_1_">
		<defs>
			<filter id="Adobe_OpacityMaskFilter" filterUnits="userSpaceOnUse">
				<feColorMatrix  type="matrix" values="1 0 0 0 0  0 1 0 0 0  0 0 1 0 0  0 0 0 1 0"/>
			</filter>
		</defs>
		<mask maskUnits="userSpaceOnUse" id="mask10_outline_2_">
			<g id="Clip_2_2_" class="st11">
				<g transform="translate(9287.44 1960.32)">
					<path id="path99_fill_2_" class="st2" d="M41.4,255.4h108.8v-64.1H41.4V255.4L41.4,255.4z"/>
				</g>
			</g>
		</mask>
		<g id="Fill_1_2_" class="st12">
			<g transform="translate(9287.44 1960.32)">
			</g>
		</g>
	</g>
	<g id="Fill_4_1_">
		<g transform="translate(9270.44 1900.66)">
		</g>
	</g>
	<g id="Fill_6_1_">
		<g transform="translate(9268.63 1830.59)">
		</g>
	</g>
	<g id="Group_10_1_">
		<defs>
			<filter id="Adobe_OpacityMaskFilter_1_" filterUnits="userSpaceOnUse">
				<feColorMatrix  type="matrix" values="1 0 0 0 0  0 1 0 0 0  0 0 1 0 0  0 0 0 1 0"/>
			</filter>
		</defs>
		<mask maskUnits="userSpaceOnUse" id="mask11_outline_2_">
			<g id="Clip_9_2_" class="st13">
				<g transform="translate(9250 1787.17)">
					<path id="path103_fill_2_" class="st2" d="M4,149.5V18.2h100.3v131.3H4L4,149.5z"/>
				</g>
			</g>
		</mask>
		<g id="Fill_8_1_" class="st14">
			<g transform="translate(9250 1787.17)">
			</g>
		</g>
	</g>
	<g id="Fill_11_2_">
		<g transform="translate(9341.51 1857.23)">
		</g>
	</g>
	<g id="Fill_13_2_">
		<g transform="translate(9300.13 1871.17)">
		</g>
	</g>
	<g id="Fill_15_2_">
		<g transform="translate(9316.13 1885.65)">
		</g>
	</g>
	<g id="Fill_21_1_">
		<g transform="translate(9363.77 1850.11)">
		</g>
	</g>
	<g id="Fill_23_1_">
		<g transform="translate(9363.77 1900.66)">
		</g>
	</g>
	<g id="Fill_25_2_">
		<g transform="translate(9255.1 1918.51)">
		</g>
	</g>
	<g id="Fill_27_1_">
		<g transform="translate(9264.83 1918.51)">
		</g>
	</g>
	<g id="Group_4_1_">
		<g id="Fill_29_1_">
			<g transform="matrix(0.990268 -0.139173 0.139173 0.990268 9370.4 1843.5)">
			</g>
		</g>
		<g id="Fill_31_1_">
			<g transform="matrix(0.990268 -0.139173 0.139173 0.990268 9374.42 1842.86)">
			</g>
		</g>
		<g id="Fill_33_2_">
			<g transform="matrix(0.990268 -0.139173 0.139173 0.990268 9377.4 1837.04)">
			</g>
		</g>
		<g id="Fill_35_2_">
			<g transform="matrix(0.990268 -0.139173 0.139173 0.990268 9390.45 1814.45)">
			</g>
		</g>
		<g id="Fill_37_2_">
			<g transform="matrix(0.990268 -0.139173 0.139173 0.990268 9409.26 1782.82)">
			</g>
		</g>
		<g id="Fill_39_2_">
			<g transform="matrix(0.990268 -0.139173 0.139173 0.990268 9434.65 1777)">
			</g>
		</g>
		<g id="Fill_41_2_">
			<g transform="matrix(0.990268 -0.139173 0.139173 0.990268 9438.42 1780.57)">
			</g>
		</g>
		<g id="Fill_43_2_">
			<g transform="matrix(0.990268 -0.139173 0.139173 0.990268 9455.42 1778.19)">
			</g>
		</g>
	</g>
</g>
<path id="path271_fill" class="st15" d="M179.6,125.9c2.6-11.4,9-60.6,10.2-76.3c0.2-2.6-2.3-4.4-1.9-6.8c0.2-1,3-2,3.1-3.1
	c0,0,0.5-10.3,1.8-10c1.9,0,1.3,9.9,1.1,10.7c0.2-0.7,3.8-9.6,5.3-8.6c1.4,0.4-1.9,8.7-2.1,9.4l0,0c0.3-0.7,1.2-2.7,2.8-2.2
	c1.2,0.3,1.1,1.9,0.9,2.7c0,0.1,0-0.1,0,0c0-0.1,0.1-0.2,0.1-0.4c0.3-0.8,1.6-0.9,2.3,0c1.1,0.3,0.3,3.5,0.3,3.5
	c-0.9,4.8-3.3,37.8-13.4,83.2L179.6,125.9z"/>
<path id="path272_fill" class="st10" d="M179.6,125.9c1-4.6,2.3-11.9,3.7-21c1.7,4.2,4.8,12.4,7.3,20.4c-0.2,0.9-0.4,1.9-0.6,2.8
	c-0.9,3.9-1.8,7.9-2.8,12.2l-10.8-2C176.5,138.3,177.8,134.1,179.6,125.9z"/>
<path id="path270_fill" class="st1" d="M187.3,140.3l-10.8-2c0,0,1.3-4.3,3.1-12.4l10.4,2.2C189.2,132,188.3,136.1,187.3,140.3z"/>
<path id="path273_fill" class="st15" d="M186.6,130c0,0-3.6-113.4-88.7-71.4c0,0-14.3,28.4-10.3,81.9
	C155.3,148.3,186.6,130,186.6,130z"/>
<path id="path275_fill" class="st3" d="M166.4,12.1c0,0,47,64.2-58.4,67.5l0.2,20.4c0,0-9.8-7.8-11.4,1.9
	c-1.5,9.7,11.1,5.2,11.1,5.2s-8.8,25.7-19.9,33.3c0,0-40.2-85.3-0.5-87.6c0,0,4.8-0.8,25.9-10.2C143.5,20.6,157.8,48.7,166.4,12.1z"
	/>
<g id="illustration_3_">
	<g id="Win">
		<g id="Page_1">
			<g id="Group_3_2_">
				<defs>
					<filter id="Adobe_OpacityMaskFilter_2_" filterUnits="userSpaceOnUse">
						<feColorMatrix  type="matrix" values="1 0 0 0 0  0 1 0 0 0  0 0 1 0 0  0 0 0 1 0"/>
					</filter>
				</defs>
				<mask maskUnits="userSpaceOnUse" id="mask15_outline_1_">
					<g id="Clip_2_3_" class="st16">
						<g transform="translate(9652.51 2660.35)">
							<path id="path268_fill_1_" class="st2" d="M220.3,244.4v15H84.9v-15H220.3z"/>
						</g>
					</g>
				</mask>
				<g id="Fill_1_5_" class="st17">
					<g transform="translate(9652.51 2660.35)">
					</g>
				</g>
			</g>
			<g id="Fill_4_3_">
				<g transform="translate(9750.7 2533.27)">
				</g>
			</g>
			<g id="Fill_6_3_">
				<g transform="translate(9754.07 2438.1)">
				</g>
			</g>
			<g id="Fill_8_3_">
				<g transform="translate(9750.7 2510.79)">
				</g>
			</g>
			<g id="Fill_10_2_">
				<g transform="translate(9654.59 2451.06)">
				</g>
			</g>
			<g id="Group_14">
				<defs>
					<filter id="Adobe_OpacityMaskFilter_3_" filterUnits="userSpaceOnUse">
						<feColorMatrix  type="matrix" values="1 0 0 0 0  0 1 0 0 0  0 0 1 0 0  0 0 0 1 0"/>
					</filter>
				</defs>
				<mask maskUnits="userSpaceOnUse" id="mask16_outline_1_">
					<g id="Clip_13_1_" class="st18">
						<g transform="translate(9636.46 2411.24)">
							<path id="path274_fill_1_" class="st2" d="M70,12.1h106.9v128.3H70V12.1L70,12.1z"/>
						</g>
					</g>
				</mask>
				<g id="Fill_12_1_" class="st19">
					<g transform="translate(9636.46 2411.24)">
					</g>
				</g>
			</g>
			<g id="Fill_15_3_">
				<g transform="translate(9669.5 2601.67)">
				</g>
			</g>
			<g id="Fill_17_1_">
				<g transform="translate(9655.36 2537.65)">
				</g>
			</g>
			<g id="Fill_23_2_">
				<g transform="translate(9707.99 2517.06)">
				</g>
			</g>
			<g id="Group_29">
				<defs>
					<filter id="Adobe_OpacityMaskFilter_4_" filterUnits="userSpaceOnUse">
						<feColorMatrix  type="matrix" values="1 0 0 0 0  0 1 0 0 0  0 0 1 0 0  0 0 0 1 0"/>
					</filter>
				</defs>
				<mask maskUnits="userSpaceOnUse" id="mask17_outline_1_">
					<g id="Clip_28_1_" class="st20">
						<g transform="translate(9595.04 2469.03)">
							<path id="path280_fill_1_" class="st2" d="M47.7,219.8l63.4-20.1l-18.7-59L29,160.8L47.7,219.8L47.7,219.8z"/>
						</g>
					</g>
				</mask>
				<g id="Fill_27_2_" class="st21">
					<g transform="translate(9595.04 2469.03)">
					</g>
				</g>
			</g>
			<g id="Fill_25_3_">
				<g transform="translate(9649.8 2545.57)">
				</g>
			</g>
			<g id="Fill_30_1_">
				<g transform="translate(9694.59 2499.29)">
				</g>
			</g>
			<g id="Fill_32_1_">
				<g transform="translate(9739.62 2490.69)">
					<path id="path283_fill" class="st3" d="M173.1,92.1c0.7,3.6-0.2,6.8-2.1,7.1c-1.9,0.4-3.9-2.3-4.6-5.8
						c-0.7-3.6,0.2-6.8,2.1-7.1C170.3,85.9,172.4,88.5,173.1,92.1z"/>
				</g>
			</g>
			<g>
				<polygon class="st22" points="82.2,1.7 35.5,39.9 96.6,46.4 147.9,11.5 84.5,1.7 				"/>
				<path class="st22" d="M96.6,47.5l-28.1-3l4.9,13.6c0,0,13.1,5.8,31.7-0.8c18.5-6.6,20.5-16.1,20.5-16.1l-2-12.1L96.6,47.5z"/>
				
					<rect x="75.6" y="16.6" transform="matrix(0.7071 0.7071 -0.7071 0.7071 45.2356 -44.5675)" class="st23" width="1.6" height="31.5"/>
				<rect x="64.6" y="42.9" class="st23" width="1.9" height="11.8"/>
				<ellipse class="st23" cx="65.5" cy="56.5" rx="3.1" ry="1.9"/>
				<path class="st23" d="M63.2,69.7L63.2,69.7c-0.4,0-0.8-0.4-0.8-0.8v-9.6c0-0.4,0.4-0.8,0.8-0.8h0c0.4,0,0.8,0.4,0.8,0.8V69
					C63.9,69.4,63.6,69.7,63.2,69.7z"/>
				<path class="st23" d="M65.7,70.7L65.7,70.7c-0.4,0-0.8-0.4-0.8-0.8v-9.6c0-0.4,0.4-0.8,0.8-0.8h0c0.4,0,0.8,0.4,0.8,0.8v9.6
					C66.4,70.3,66.1,70.7,65.7,70.7z"/>
				<path class="st23" d="M67.9,69.7L67.9,69.7c-0.4,0-0.8-0.4-0.8-0.8v-9.6c0-0.4,0.4-0.8,0.8-0.8h0c0.4,0,0.8,0.4,0.8,0.8V69
					C68.7,69.4,68.3,69.7,67.9,69.7z"/>
			</g>
		</g>
	</g>
</g>
<path id="path282_fill" class="st3" d="M131.1,100.1c0.7,3.6-0.2,6.8-2.1,7.1c-1.9,0.4-3.9-2.3-4.6-5.8c-0.7-3.6,0.2-6.8,2.1-7.1
	C128.4,93.9,130.4,96.5,131.1,100.1z"/>
<path id="path283_fill_1_" class="st3" d="M173.1,92.1c0.7,3.6-0.2,6.8-2.1,7.1c-1.9,0.4-3.9-2.3-4.6-5.8c-0.7-3.6,0.2-6.8,2.1-7.1
	C170.3,85.9,172.4,88.5,173.1,92.1z"/>
<path id="path278_fill" class="st24" d="M165.8,110.8c0,0-18.4,1.5-29.1,6.4c0,0,0.7,14.9,17.8,11.6
	C171.4,125.6,165.8,110.8,165.8,110.8z"/>
<path id="path281_fill" class="st15" d="M87,142.4c-3.4,6.7-18.6,16.4-27.5,30.6c-6.6,10.6-6.2,24.9-13.8,35.8c0,0-1.4,2.3-0.4,3.1
	c1.3,1,2.3-0.7,2.6-1.4c-0.3,0.7-0.9,2.4,0.2,3.2c1.1,0.8,2-0.7,2.3-1.3l0,0c-0.2,0.7-0.8,2.7,0.5,3.7c1,0.7,1.7-0.1,2-0.9
	c0-0.1,0.1-0.2,0.1-0.3c0,0.1-0.1,0.2-0.1,0.3c-0.3,0.8-0.4,1.9,0.4,2.5c0.9,0.7,2.2-1.7,2.2-1.7c1.5-2.6,1.7-17.3,13-36.5
	c5.5-9.4,19.8-17.8,26.3-30.6L87,142.4z"/>
<path id="path279_fill" class="st1" d="M98.2,150.1l-8.8-10.2c0,0-4.9,2.6-11.1,10.4L89,161.8C91.9,158.1,95,154.2,98.2,150.1z"/>
</svg>
