<svg xmlns="http://www.w3.org/2000/svg" xmlns:xlink="http://www.w3.org/1999/xlink" width="273" height="244" viewBox="0 0 273 244">
    <defs>
        <path id="a" d="M241.248.105v18.85H.203V.104h241.045z"/>
    </defs>
    <g fill="none" fill-rule="evenodd">
        <g transform="translate(31.25 224.523)">
            <mask id="b" fill="#fff">
                <use xlink:href="#a"/>
            </mask>
            <path fill="#E6E6E6" d="M120.726.105C54.163.105.203 4.325.203 9.529c0 5.206 53.96 9.425 120.523 9.425 66.563 0 120.522-4.22 120.522-9.425 0-5.205-53.96-9.424-120.522-9.424" mask="url(#b)"/>
        </g>
        <path fill="#422A1D" d="M132.14 195.805c-5.756-4.809-10.827 3.289-10.827 3.289l-8.005-29.526c-41.34 11.278-62.899 26.675-62.899 26.675l9.624 32.465s-7.139-4.174-12.569 2.211c-7.261 8.542 18.406 2.128 18.406 2.128l-4.159-32.995c28.82-7.225 47.333-22.04 47.333-22.04l9.73 27.632s21.473-3.065 13.365-9.84"/>
        <path fill="#FDDCBE" d="M98.481 119.876S77.398 37.886 25.336 86.91c0 0-14.177 21.575.258 62.035 64.432-10.29 72.887-29.07 72.887-29.07"/>
        <path fill="#422A1D" d="M79.746 39.943S97.878 90.952 32.272 99.1l1.515 16.31s-8.787-3.657-8.138 4.244c.647 7.903 8.352 1.573 8.352 1.573s-1.28 19.657-8.407 27.719c.523.48-46.554-69.589-12.055-70.537 0 0-.502-15.908 19.282-24.031 20.504-8.419 38.131 14.372 46.925-14.435"/>
        <path fill="#F6F6F6" d="M98.481 119.876l14.826 49.692s-22.557 16.01-62.898 26.675l-24.815-47.298s51.43-11.394 72.887-29.07"/>
        <path fill="#E6E6E6" d="M88.027 94.673a84.638 84.638 0 0 0-1.286-2.158L79.07 194.451a143.479 143.479 0 0 0 8.957-3.908v-95.87z"/>
        <path fill="#F6F6F6" d="M102.822 236.815c-9.114 0-16.53-7.478-16.53-16.67V16.672C86.292 7.479 93.708 0 102.822 0h141.006c9.115 0 16.53 7.479 16.53 16.672v203.472c0 9.192-7.416 16.67-16.53 16.67H102.822z"/>
        <path fill="#333" d="M243.828 1.75H102.823c-8.159 0-14.796 6.693-14.796 14.922v203.473c0 8.227 6.637 14.92 14.795 14.92h141.006c8.158 0 14.795-6.694 14.795-14.921V16.672c0-8.228-6.637-14.922-14.795-14.922"/>
        <path fill="#FFF" d="M107.407 214.792H239.24V22.024H107.409z"/>
        <path fill="#F6F6F6" d="M175.195 219.476h-3.737c-2.73 0-3.953 1.233-3.953 3.985v3.1c0 2.753 1.223 3.987 3.953 3.987h3.737c2.726 0 3.95-1.234 3.95-3.987v-3.1c0-2.752-1.224-3.985-3.95-3.985"/>
        <path fill="#E6E6E6" d="M125.96 127.103c-.666-.279-1.18.042-1.628.586.318-.71.428-1.775-.29-2.069-.549-.23-1.423.208-1.727.77.268-.691.16-1.958-.435-2.21-.67-.28-1.706.098-2.156.64.4-.966 4.61-7.804 3.182-8.423-1.428-.619-6.04 8.51-6.792 9.976-.753 1.465-16.036 35.77-66.97 26.737-4.76-.676-7.85-1.006-13.487-3.082l-.274 9.32c4.461 1.602 8.58 2.567 12.392 3.015 55.948 9.278 76.01-29.213 76.987-30.695.978-1.483 2.597-3.984 1.198-4.565"/>
        <path fill="#FDDCBE" d="M122.057 123.983c.846-1.563 2.245-4.196.802-4.653-.688-.22-1.172.145-1.572.726.256-.734.274-1.805-.467-2.036-.623-.2-1.58.443-1.72 1.098.31-.655.114-2.127-.556-2.343-.691-.221-1.69.246-2.094.824.316-.997 3.924-8.176 2.449-8.668-1.476-.492-5.288 9.005-5.912 10.53-.624 1.526-12.911 37.035-64.429 32.473l-.571 9.338c56.534 4.367 73.223-35.728 74.07-37.29"/>
        <path fill="#F6F6F6" d="M35.383 159.348c4.582 1.208 8.767 1.81 12.604 1.924l.57-9.338c-4.799-.258-7.943-.755-13.737-2.33l.563 9.744z"/>
        <path fill="#422A1D" d="M80.6 98.456c-.803-1.994-2.285-3.264-3.31-2.84-1.025.425-1.206 2.388-.404 4.382.804 1.992 2.285 3.263 3.31 2.837 1.024-.425 1.205-2.385.405-4.379M45.931 112.947c-.802-1.993-2.285-3.266-3.308-2.84-1.026.425-1.208 2.388-.406 4.383.803 1.991 2.284 3.262 3.31 2.837 1.025-.426 1.206-2.386.404-4.38M77.193 107.995s4.938 11.91-6.436 17.332c-12.702 6.056-18.411-6.547-18.411-6.547s9.925-7.632 24.847-10.785z"/>
        <path fill="#F3F3F3" fill-opacity=".5" d="M107.407 202.359v12.433H239.24V43.6z"/>
        <path fill="#FCCB1F" d="M189.788 113.924c2.263-1.596 4.245-3.46 6.025-5.543 2.753-3.222 4.334-7.08 5.794-10.993 1.846-4.951 3.034-10.078 3.752-15.31.296-2.162.51-4.338.544-6.527.007-.483-.087-.71-.626-.675-.71.046-1.426.02-2.14.007-.298-.006-.508.049-.65.36-1.393 3.041-3.663 5.127-6.775 6.276-.274.101-.368.252-.395.541-.394 4.181-.767 8.365-1.283 12.533-.445 3.589-.972 7.162-1.744 10.694-.64 2.929-1.326 5.848-2.502 8.637m20.55-43.509v6.157c-.15.07-.16.209-.162.348-.016 1.247-.195 2.48-.312 3.718-.47 4.96-1.394 9.833-2.843 14.593-1.476 4.85-3.27 9.576-6.303 13.687-3.031 4.11-6.921 7.302-11.008 10.285-3.555 2.594-7.566 4.46-11.017 7.229-1.046.84-1.55 1.734-1.572 2.978-.011.658.113 1.319.187 1.977.105.931.538 1.618 1.322 2.174 1.237.877 1.262 2.574.118 3.584-.212.187-.401.358-.488.634-.53 1.685-1.159 3.358-.197 5.11.336.611.2 1.133-.483 1.413-.366.15-.425.332-.207.68 2.374 3.803 5.053 7.322 8.91 9.732 1.588.993 3.261 1.822 5.138 2.085 1.405.197 1.446.204 1.438 1.619-5.542.007-11.084.02-16.626.021-3.511.001-7.022-.016-10.534-.024-.132-.728.143-1.282.677-1.763 2.819-2.536 4.315-5.802 5.014-9.476.173-.912.378-1.853.165-2.794-.144-.635-.158-1.254.025-1.88.623-2.13.418-4.184-.516-6.187-.26-.556-.28-1.14-.078-1.765.211-.653.826-1.051.974-1.709.476-2.113.822-4.227.068-6.361-1.887-5.337-3.42-10.77-4.425-16.353-.912-5.063-1.365-10.16-1.429-15.3-.007-.553.005-1.109-.044-1.66-.313-3.54.1-7.07.155-10.604.016-.993-.01-1.993.076-2.985.263-3.047.543-6.092.817-9.138 9.418-.008 18.836-.013 28.253-.034.585-.002.582.195.478.69-.387 1.838-.728 3.686-.745 5.577-.004.488.067.67.583.397 1.34-.709 2.364-1.695 2.882-3.156.287-.808.527-1.633.538-2.499.01-.772.288-1.041 1.122-1.026 3.349.063 6.7.026 10.05.026"/>
        <path fill="#FCCC21" d="M155.887 114.094l.176.054a33.528 33.528 0 0 1-.07-.164c-.285-.745-.604-1.48-.849-2.239-2.1-6.52-3.048-13.266-3.785-20.048a436.6 436.6 0 0 1-.878-9.163c-.053-.609-.305-.912-.857-1.121-2.405-.91-4.553-2.289-5.67-4.66-.814-1.73-1.947-2.072-3.598-1.891-.567.062-.742.18-.72.76.087 2.35.321 4.685.644 7.015.83 5.989 2.44 11.752 4.643 17.374 2.28 5.815 5.93 10.485 10.964 14.083zm-3.03 44.325c-.011-1.33.026-1.431 1.034-1.56 2.669-.344 4.932-1.601 7.032-3.191 3.079-2.332 5.324-5.404 7.369-8.645.243-.386.167-.57-.226-.73-.654-.268-.784-.812-.468-1.358 1.027-1.776.252-3.483-.103-5.213-.053-.258-.26-.333-.427-.467-1.3-1.042-1.283-2.742.032-3.762 1.387-1.074 2.036-4.383 1.15-5.919a1.807 1.807 0 0 0-.495-.546c-2.03-1.456-4.035-2.934-6.216-4.178-4.768-2.72-9.166-5.965-13.143-9.79-4.411-4.24-7.083-9.515-9.046-15.222-1.746-5.077-2.881-10.296-3.504-15.633-.205-1.758-.422-3.514-.482-5.285-.005-.139-.012-.278-.162-.348v-6.157h9.554c1.501 0 1.468.004 1.654 1.5.321 2.575 1.523 4.504 4.135 5.459v-.864c-.008-1.892-.366-3.737-.757-5.574-.092-.434-.007-.53.401-.526 1.922.02 3.843.022 5.764.03l.01 1.975c-1.093-.212-2.053-.9-3.34-1.016 1.102 1.233 2.066 2.36 3.09 3.43.437.456.46.86.227 1.401-.491 1.14-.94 2.298-1.46 3.577.806-.219 1.154-.886 1.774-1.097.074 3.563.37 7.11.673 10.657.201 2.363.427 4.723.715 7.073.415 3.388.942 6.763 1.626 10.109.693 3.383 1.465 6.743 2.99 9.874 1.855 3.81 4.35 7.154 7.275 10.178.525.542.73 1.133.76 1.842.051 1.197-.178 2.36-.402 3.526-.1.524-.319.967-.655 1.399-.742.954-.858 2.027-.252 3.1.994 1.76 1.233 3.602.72 5.556-.203.773-.472 1.556.16 2.285.09.106.116.32.092.471-.446 2.754-1.426 5.277-3.267 7.396-1.735 1.997-3.961 3.388-6.078 4.91-.466.335-.853.699-.856 1.327l-6.898.006z"/>
        <path fill="#FEFEFE" d="M157.233 72.95l-1.27-.535c-1.092-.212-2.053-.9-3.34-1.016 1.103 1.233 2.066 2.36 3.09 3.43.437.456.46.86.227 1.401-.492 1.14-.94 2.298-1.46 3.577.806-.219 1.154-.886 1.774-1.097.487-.646 1.207-1.026 1.773-1.582.28-.276.518-.147.799.027a184.07 184.07 0 0 0 3.177 1.912c.2.118.372.327.766.24-.712-1.156-1.327-2.323-2.104-3.366-.725-.973-.85-1.892-.362-2.985.13-.29 1.364-2.552 1.364-2.552l-1.483.036c-.852.93-1.588 1.748-2.342 2.547-.182.194-.41.046-.609-.037"/>
        <path fill="#252525" d="M196.037 165.582c.08.107.137.266.243.313 1.58.695 1.37 2.035 1.206 3.362H148.22c-.016-.327-.043-.655-.047-.982-.01-.957.045-1.875 1.143-2.278.157-.058.26-.263.388-.4 8.038 0 16.076.001 24.114-.001 7.407-.003 14.814-.01 22.22-.014"/>
        <path fill="#FDDA5F" d="M156.254 78.71c.487-.646 1.207-1.026 1.773-1.582.28-.276.518-.147.8.027 1.05.651 2.113 1.282 3.176 1.912.2.118.372.327.766.24-.712-1.156-1.327-2.322-2.104-3.366-.724-.973-.85-1.892-.362-2.984.28-.626 1.364-2.553 1.364-2.553 1.837.036 3.674.028 5.511.036-.274 3.046-.554 6.091-.817 9.138-.086.992-.06 1.992-.076 2.985-.056 3.534-.468 7.065-.155 10.605.049.55.037 1.106.044 1.66.064 5.139.517 10.236 1.429 15.298 1.006 5.585 2.538 11.017 4.425 16.354.754 2.134.408 4.248-.068 6.361-.148.657-.763 1.056-.974 1.71-.202.624-.182 1.208.078 1.764.934 2.003 1.14 4.058.516 6.186-.183.627-.169 1.246-.025 1.88.213.942.008 1.883-.165 2.795-.699 3.674-2.195 6.94-5.014 9.476-.534.481-.81 1.035-.677 1.763l-5.944-.001c.003-.629.39-.993.856-1.328 2.116-1.522 4.343-2.913 6.078-4.91 1.841-2.119 2.822-4.642 3.267-7.396.024-.15-.001-.365-.093-.47-.63-.73-.362-1.513-.159-2.286.513-1.954.274-3.796-.72-5.556-.607-1.073-.49-2.146.252-3.1a3.2 3.2 0 0 0 .655-1.4c.224-1.164.453-2.328.402-3.525-.03-.71-.235-1.3-.76-1.842-2.925-3.024-5.42-6.367-7.276-10.178-1.524-3.131-2.297-6.49-2.989-9.875a128.427 128.427 0 0 1-1.626-10.108 193.42 193.42 0 0 1-.715-7.072c-.303-3.549-.6-7.096-.673-10.658"/>
        <path fill="#363636" d="M159.755 158.413l5.944.002c3.511.008 7.023.025 10.534.024 5.542 0 11.084-.013 16.625-.021.382.013.763.029 1.145.039 1.269.032 1.99.717 2.013 1.99.03 1.712.017 3.424.021 5.135-7.406.005-14.813.012-22.22.014-8.038.002-16.076 0-24.114.001 0-1.63-.003-3.259 0-4.888.002-1.562.69-2.244 2.255-2.254.3-.001.6-.024.9-.036l6.897-.006z"/>
        <path fill="#FDDA5F" d="M155.953 70.44h4.23c-.851.93-1.586 1.748-2.34 2.547-.183.194-.41.046-.61-.037-.423-.177-.846-.357-1.27-.535l-.01-1.975"/>
        <path fill="#FEFEFE" d="M156.018 113.984l.087.202a18.544 18.544 0 0 0-.219-.066 1.98 1.98 0 0 1 .132-.136"/>
    </g>
</svg>
