<?xml version="1.0" encoding="utf-8"?>
<!-- Generator: Adobe Illustrator 21.0.2, SVG Export Plug-In . SVG Version: 6.00 Build 0)  -->
<svg version="1.1" id="Layer_1" xmlns="http://www.w3.org/2000/svg" xmlns:xlink="http://www.w3.org/1999/xlink" x="0px" y="0px"
	 viewBox="0 0 260 260" style="enable-background:new 0 0 260 260;" xml:space="preserve">
<style type="text/css">
	.st0{fill:#FFFFFF;}
	.st1{fill:#5C3B1F;}
	.st2{fill:#FCFCF5;}
	.st3{fill:#FFDEBF;}
	.st4{fill:#FA8A8A;}
	.st5{fill:#8C5B30;}
	.st6{fill:#FFBF57;}
	.st7{fill:#E6E6E6;}
	.st8{filter:url(#Adobe_OpacityMaskFilter);}
	.st9{mask:url(#mask10_outline_2_);}
	.st10{filter:url(#Adobe_OpacityMaskFilter_1_);}
	.st11{mask:url(#mask11_outline_2_);}
	.st12{filter:url(#Adobe_OpacityMaskFilter_2_);}
	.st13{mask:url(#mask10_outline_3_);}
	.st14{filter:url(#Adobe_OpacityMaskFilter_3_);}
	.st15{mask:url(#mask11_outline_3_);}
	.st16{fill:#5A7191;}
</style>
<g id="Clip_9_1_">
	<g transform="translate(9250 1787.17)">
		<path id="path103_fill_1_" class="st0" d="M4,149.5V18.2h100.3v131.3H4L4,149.5z"/>
	</g>
</g>
<g id="Clip_2_1_">
	<g transform="translate(9287.44 1960.32)">
		<path id="path99_fill_1_" class="st0" d="M41.4,255.4h108.8v-64.1H41.4V255.4L41.4,255.4z"/>
	</g>
</g>
<g id="illustration">
	<g id="FIND">
		<g id="Group_3">
			<g id="Fill_1_1_">
				<g transform="translate(9287.44 1960.32)">
					<path id="path100_fill" class="st1" d="M41.4,206.9l5.5,22l-1.7,26.4c0,0,31.4,2,20.2-8.5c-8.7-8.2-16.2,3.8-16.2,3.8l5.5-25.2
						l-1-12.9c0,0,35-0.5,63.8-11.3l12.9,13.4l-4.8,24.8c0,0,32.8,4.5,22.6-7c-6.8-7.7-17.7,2.8-17.7,2.8l7.7-21.2l-11.7-22.6
						L41.4,206.9z"/>
				</g>
			</g>
		</g>
		<g id="Fill_4">
			<g transform="translate(9270.44 1900.66)">
				<path id="path101_fill" class="st2" d="M117.8,131.7l8.9,59.7c0,0-34.4,13.1-85.2,15.6l-17-57.4
					C24.4,149.5,82.9,149.7,117.8,131.7z"/>
			</g>
		</g>
		<g id="Fill_6">
			<g transform="translate(9268.63 1830.59)">
				<path id="path102_fill" class="st3" d="M117.8,131.7c0,0-6.8-104.5-79.9-58.3c0,0-21.5,24.9-13.5,76.1
					C97.3,151,117.8,131.7,117.8,131.7z"/>
			</g>
		</g>
		<g id="Group_10">
			<g id="Fill_8">
				<g transform="translate(9250 1787.17)">
					<path id="path104_fill" class="st1" d="M91.6,18.2c0,0,51.2,57-52.1,68.9l2.4,22.3c0,0-9.8-7.1-10.8,2.4s9.7,4.6,9.7,4.6
						s-6.1,25.3-16.4,33.3c0,0-42.7-82.6-4.7-86.7c0,0-0.7-14.7,19-24.8C66.8,23.5,85.1,54.1,91.6,18.2z"/>
				</g>
			</g>
		</g>
		<g id="Fill_11_1_">
			<g transform="translate(9341.51 1857.23)">
				<path id="path105_fill" class="st1" d="M96,95.5c1,3.5,3.2,5.9,4.8,5.4c1.6-0.5,2.1-3.7,1.1-7.2s-3.2-5.9-4.8-5.4
					C95.5,88.8,95,92,96,95.5z"/>
			</g>
		</g>
		<g id="Fill_13_1_">
			<g transform="translate(9300.13 1871.17)">
				<path id="path106_fill" class="st1" d="M54.7,109.4c1,3.5,3.2,5.9,4.8,5.4s2.1-3.7,1.1-7.2s-3.2-5.9-4.8-5.4
					C54.1,102.7,53.6,105.9,54.7,109.4z"/>
			</g>
		</g>
		<g id="Fill_15_1_">
			<g transform="translate(9316.13 1885.65)">
				<path id="path107_fill" class="st4" d="M97.6,116.7c0,0-17.5,2.8-27.4,8.2c0,0,1.8,14.4,17.9,10.1
					C104,130.6,97.6,116.7,97.6,116.7z"/>
			</g>
		</g>
		<g id="Fill_21">
			<g transform="translate(9363.77 1850.11)">
				<path id="path108_fill" class="st3" d="M154.5,81.2c-1.2,0.4-1.2,1.9-1.1,2.9c-0.2-0.9-0.8-2.5-2.3-2.1
					c-1.8,0.5-1.5,2.8-1.4,3.6l0,0c-0.2-0.7-1-2.7-2.4-2.3c-1.5,0.4-1.1,2.5-0.9,3.3c-0.3-0.8-1.1-3-2.9-2.5
					c-1.3,0.4-0.2,3.4-0.2,3.4c20,51.5-25.5,44.1-25.5,44.1l1.6,11c59.9,2.2,39.1-53.5,37.1-58.9C156.5,83.8,155.8,80.7,154.5,81.2z
					"/>
			</g>
		</g>
		<g id="Fill_23">
			<g transform="translate(9363.77 1900.66)">
				<path id="path109_fill" class="st2" d="M117.8,131.7l1.6,11c3.1,0.1,5.9,0.1,8.6-0.1l-1.8-10.6
					C121.4,132.2,117.8,131.7,117.8,131.7z"/>
			</g>
		</g>
		<g id="Fill_25_1_">
			<g transform="translate(9255.1 1918.51)">
				<path id="path110_fill" class="st3" d="M46.8,216.7c0.5-1.2-0.6-2.2-1.4-2.7c0.8,0.4,2.4,1,3.1-0.4c0.8-1.6-1.1-3-1.8-3.4l0,0
					c0.7,0.3,2.6,1.1,3.3-0.3c0.7-1.4-1.1-2.5-1.8-2.9c0.8,0.4,3,1.2,3.7-0.5c0.6-1.3-2.4-2.4-2.4-2.4
					c-51.6-19.2-15.9-48.5-15.9-48.5l-9.2-6.1c-41.5,43.4,13.8,64.9,19.1,67C43.5,216.5,46.3,218,46.8,216.7z"/>
			</g>
		</g>
		<g id="Fill_27">
			<g transform="translate(9264.83 1918.51)">
				<path id="path111_fill" class="st2" d="M33.7,155.6l-9.2-6.1c-2.1,2.2-4,4.4-5.6,6.5l9,5.7C30.8,157.9,33.7,155.6,33.7,155.6z"
					/>
			</g>
		</g>
		<g id="Group_4">
			<g id="Fill_29">
				<g transform="matrix(0.990268 -0.139173 0.139173 0.990268 9370.4 1843.5)">
					<path id="path112_fill" class="st5" d="M132.3,73.4l-6.2,3.5c0,0-2.1,2.9,0.8,9.9c2.8,7,5.9,7.3,5.9,7.3l6.2-1.4L132.3,73.4z"
						/>
				</g>
			</g>
			<g id="Fill_31">
				<g transform="matrix(0.990268 -0.139173 0.139173 0.990268 9374.42 1842.86)">
					<path id="path113_fill" class="st6" d="M140,80.5c0,0-4-8.7-7.7-7.1c-3.8,1.6-3.5,5.8-2.2,9.5c1.6,4.8,4.4,11.3,8.9,9.7
						C143.4,91,140,80.5,140,80.5z"/>
				</g>
			</g>
			<g id="Fill_33_1_">
				<g transform="matrix(0.990268 -0.139173 0.139173 0.990268 9377.4 1837.04)">
					<path id="path114_fill" class="st5" d="M156,64.6l-22.7,13.3c-1.1,2.9,2.3,10.4,4.4,10.2l24.6-9L156,64.6z"/>
				</g>
			</g>
			<g id="Fill_35_1_">
				<g transform="matrix(0.990268 -0.139173 0.139173 0.990268 9390.45 1814.45)">
					<path id="path115_fill" class="st6" d="M175.7,41.1l-29,17.1c0,0-0.9,19.3,14.1,32l29.2-9.9L175.7,41.1z"/>
				</g>
			</g>
			<g id="Fill_37_1_">
				<g transform="matrix(0.990268 -0.139173 0.139173 0.990268 9409.26 1782.82)">
					<path id="path116_fill" class="st5" d="M205.9,7.8L170,31.4c-8.7,17.6,9.1,55.4,26,59.5l41.6-11.2L205.9,7.8z"/>
				</g>
			</g>
			<g id="Fill_39_1_">
				<g transform="matrix(0.990268 -0.139173 0.139173 0.990268 9434.65 1777)">
					<path id="path117_fill" class="st6" d="M252.9,30.7c8.3,20.2,2.5,41.8-13,48.2s-34.8-4.7-43.1-24.9s-2.5-41.8,13-48.2
						S244.6,10.5,252.9,30.7z"/>
				</g>
			</g>
			<g id="Fill_41_1_">
				<g transform="matrix(0.990268 -0.139173 0.139173 0.990268 9438.42 1780.57)">
					<path id="path118_fill" class="st2" d="M250,31.9c-7.4-18.1-24.7-28.1-38.6-22.3c-13.9,5.8-19.1,25.1-11.7,43.2
						c7.4,18.1,24.7,28.1,38.6,22.3C252.2,69.3,257.4,50,250,31.9z"/>
				</g>
			</g>
			<g id="Fill_43_1_">
				<g transform="matrix(0.990268 -0.139173 0.139173 0.990268 9455.42 1778.19)">
					<path id="path119_fill" class="st7" d="M250,31.9c-7.4-18.1-24.7-28.1-38.6-22.3c-0.6,0.2-1.2,0.5-1.7,0.8
						c13.4-3.5,28.9,6.3,35.9,23.2c7.1,17.3,2.6,35.7-9.9,42.3c0.9-0.2,1.8-0.5,2.7-0.9C252.2,69.3,257.4,50,250,31.9z"/>
				</g>
			</g>
		</g>
	</g>
</g>
<g>
	<g id="Group_3_1_">
		<defs>
			<filter id="Adobe_OpacityMaskFilter" filterUnits="userSpaceOnUse">
				<feColorMatrix  type="matrix" values="1 0 0 0 0  0 1 0 0 0  0 0 1 0 0  0 0 0 1 0"/>
			</filter>
		</defs>
		<mask maskUnits="userSpaceOnUse" id="mask10_outline_2_">
			<g id="Clip_2_2_" class="st8">
				<g transform="translate(9287.44 1960.32)">
					<path id="path99_fill_2_" class="st0" d="M41.4,255.4h108.8v-64.1H41.4V255.4L41.4,255.4z"/>
				</g>
			</g>
		</mask>
		<g id="Fill_1_2_" class="st9">
			<g transform="translate(9287.44 1960.32)">
			</g>
		</g>
	</g>
	<g id="Fill_4_1_">
		<g transform="translate(9270.44 1900.66)">
		</g>
	</g>
	<g id="Fill_6_1_">
		<g transform="translate(9268.63 1830.59)">
		</g>
	</g>
	<g id="Group_10_1_">
		<defs>
			<filter id="Adobe_OpacityMaskFilter_1_" filterUnits="userSpaceOnUse">
				<feColorMatrix  type="matrix" values="1 0 0 0 0  0 1 0 0 0  0 0 1 0 0  0 0 0 1 0"/>
			</filter>
		</defs>
		<mask maskUnits="userSpaceOnUse" id="mask11_outline_2_">
			<g id="Clip_9_2_" class="st10">
				<g transform="translate(9250 1787.17)">
					<path id="path103_fill_2_" class="st0" d="M4,149.5V18.2h100.3v131.3H4L4,149.5z"/>
				</g>
			</g>
		</mask>
		<g id="Fill_8_1_" class="st11">
			<g transform="translate(9250 1787.17)">
			</g>
		</g>
	</g>
	<g id="Fill_11_2_">
		<g transform="translate(9341.51 1857.23)">
		</g>
	</g>
	<g id="Fill_13_2_">
		<g transform="translate(9300.13 1871.17)">
		</g>
	</g>
	<g id="Fill_15_2_">
		<g transform="translate(9316.13 1885.65)">
		</g>
	</g>
	<g id="Fill_21_1_">
		<g transform="translate(9363.77 1850.11)">
		</g>
	</g>
	<g id="Fill_23_1_">
		<g transform="translate(9363.77 1900.66)">
		</g>
	</g>
	<g id="Fill_25_2_">
		<g transform="translate(9255.1 1918.51)">
		</g>
	</g>
	<g id="Fill_27_1_">
		<g transform="translate(9264.83 1918.51)">
		</g>
	</g>
	<g id="Group_4_1_">
		<g id="Fill_29_1_">
			<g transform="matrix(0.990268 -0.139173 0.139173 0.990268 9370.4 1843.5)">
			</g>
		</g>
		<g id="Fill_31_1_">
			<g transform="matrix(0.990268 -0.139173 0.139173 0.990268 9374.42 1842.86)">
			</g>
		</g>
		<g id="Fill_33_2_">
			<g transform="matrix(0.990268 -0.139173 0.139173 0.990268 9377.4 1837.04)">
			</g>
		</g>
		<g id="Fill_35_2_">
			<g transform="matrix(0.990268 -0.139173 0.139173 0.990268 9390.45 1814.45)">
			</g>
		</g>
		<g id="Fill_37_2_">
			<g transform="matrix(0.990268 -0.139173 0.139173 0.990268 9409.26 1782.82)">
			</g>
		</g>
		<g id="Fill_39_2_">
			<g transform="matrix(0.990268 -0.139173 0.139173 0.990268 9434.65 1777)">
			</g>
		</g>
		<g id="Fill_41_2_">
			<g transform="matrix(0.990268 -0.139173 0.139173 0.990268 9438.42 1780.57)">
			</g>
		</g>
		<g id="Fill_43_2_">
			<g transform="matrix(0.990268 -0.139173 0.139173 0.990268 9455.42 1778.19)">
			</g>
		</g>
	</g>
</g>
<path id="path108_fill_1_" class="st3" d="M37.1,121.2c1.5-0.5,2.5,0.8,3,1.7c-0.4-1-0.8-2.8,1-3.6c2.1-0.9,3.4,1.3,3.8,2.1l0,0
	c-0.3-0.8-0.8-3.1,1-3.9c1.8-0.8,2.8,1.3,3.1,2.2c-0.3-0.9-0.9-3.5,1.3-4.4c1.6-0.6,2.4,2.8,2.4,2.8c13.9,60.6,55.3,19.2,55.3,19.2
	l5.6,10.9c-59.4,48.1-75.3-16.9-76.9-23.1C36.8,125.1,35.4,121.8,37.1,121.2z"/>
<path id="path102_fill_1_" class="st3" d="M110.4,132.1c0,0-8.2-102.6,72.7-68.7c0,0,25.5,20.9,24.7,71.9
	C134,147.8,110.4,132.1,110.4,132.1z"/>
<g id="illustration_1_">
	<g id="FIND_1_">
		<g id="Group_3_2_">
			<defs>
				<filter id="Adobe_OpacityMaskFilter_2_" filterUnits="userSpaceOnUse">
					<feColorMatrix  type="matrix" values="1 0 0 0 0  0 1 0 0 0  0 0 1 0 0  0 0 0 1 0"/>
				</filter>
			</defs>
			<mask maskUnits="userSpaceOnUse" id="mask10_outline_3_">
				<g id="Clip_2_3_" class="st12">
					<g transform="translate(9287.44 1960.32)">
						<path id="path99_fill_3_" class="st0" d="M205.9,240.9L95.3,257.3L86,195l110.6-16.5L205.9,240.9L205.9,240.9z"/>
					</g>
				</g>
			</mask>
			<g id="Fill_1_3_" class="st13">
				<g transform="translate(9287.44 1960.32)">
				</g>
			</g>
		</g>
		<g id="Fill_4_2_">
			<g transform="translate(9270.44 1900.66)">
			</g>
		</g>
		<g id="Fill_6_2_">
			<g transform="translate(9268.63 1830.59)">
			</g>
		</g>
		<g id="Group_10_2_">
			<defs>
				<filter id="Adobe_OpacityMaskFilter_3_" filterUnits="userSpaceOnUse">
					<feColorMatrix  type="matrix" values="1 0 0 0 0  0 1 0 0 0  0 0 1 0 0  0 0 0 1 0"/>
				</filter>
			</defs>
			<mask maskUnits="userSpaceOnUse" id="mask11_outline_3_">
				<g id="Clip_9_3_" class="st14">
					<g transform="translate(9250 1787.17)">
						<path id="path103_fill_3_" class="st0" d="M228.6,132.2l-19-127.7L107.6,19.8l19,127.7L228.6,132.2L228.6,132.2z"/>
					</g>
				</g>
			</mask>
			<g id="Fill_8_2_" class="st15">
				<g transform="translate(9250 1787.17)">
				</g>
			</g>
		</g>
		<g id="Fill_11_3_">
			<g transform="translate(9341.51 1857.23)">
			</g>
		</g>
		<g id="Fill_13_3_">
			<g transform="translate(9300.13 1871.17)">
			</g>
		</g>
		<g id="Fill_15_3_">
			<g transform="translate(9316.13 1885.65)">
			</g>
		</g>
		<g id="Fill_21_2_">
			<g transform="translate(9363.77 1850.11)">
			</g>
		</g>
		<g id="Fill_25_3_">
			<g transform="translate(9255.1 1918.51)">
			</g>
		</g>
		<g id="Fill_27_2_">
			<g transform="translate(9264.83 1918.51)">
			</g>
		</g>
		<g>
			<path class="st16" d="M57,106.8C43.3,95,41.7,74.2,53.6,60.4S86.3,45.2,100,57s15.3,32.7,3.4,46.4S70.7,118.7,57,106.8z
				 M94.5,63.4c-10.2-8.8-25.7-7.7-34.5,2.5s-7.7,25.7,2.5,34.5s25.7,7.7,34.5-2.5S104.7,72.2,94.5,63.4z"/>
			<path class="st16" d="M39.1,135.8c0,0-3,1.5-5.8-0.9c-3-2.6-1.8-5.6-1.8-5.6l24.5-26l4.6,4L39.1,135.8z"/>
		</g>
		<g id="Fill_23_2_">
			<g transform="translate(9363.77 1900.66)">
			</g>
		</g>
	</g>
</g>
<path id="path104_fill_1_" class="st1" d="M120.5,17.8c0,0-43.7,63.2,63,59l0.8,22c0,0,8.9-8.4,11.3,0.7c2.4,9.1-9.2,5.9-9.2,5.9
	s9.9,23.7,21.5,29.9c0,0,31.4-86.8-7.8-85c0,0-1.4-14.4-22.9-21.2C146.5,19.3,132.4,51.8,120.5,17.8z"/>
<path id="path105_fill_1_" class="st1" d="M127.2,93.6c-0.5,3.5-2.4,6.2-4.1,6c-1.7-0.2-2.7-3.3-2.2-6.8c0.5-3.5,2.4-6.2,4.1-6
	C126.8,87.1,127.7,90.1,127.2,93.6z"/>
<path id="path100_fill_1_" class="st1" d="M198.8,193.7l-2.4,22.2l5.5,25.4c0,0-31.6,6.7-21.8-5.2c7.6-9.3,17,1.3,17,1.3l-9.3-23.7
	l-0.9-12.7c0,0-35.7,4.8-66.5-1.3l-11.2,14.9l8.5,23.4c0,0-32.6,9.3-24-3.3c5.8-8.5,18.4,0,18.4,0l-10.9-19.5l8.6-23.7L198.8,193.7z
	"/>
<path id="path106_fill_1_" class="st1" d="M171.3,100.9c-0.5,3.5-2.4,6.2-4.1,6c-1.7-0.2-2.7-3.3-2.2-6.8c0.5-3.5,2.4-6.2,4.1-6
	C170.8,94.3,171.8,97.4,171.3,100.9z"/>
<path id="path107_fill_1_" class="st4" d="M128.7,114.5c0,0,18.2,0.1,29.1,3.8c0,0,0.3,14.3-16.7,12.5
	C124.2,129,128.7,114.5,128.7,114.5z"/>
<path id="path101_fill_1_" class="st2" d="M110.4,132.1l-0.4,59.3c0,0,36.8,7.5,88.9,2.2l8.9-58.4
	C207.8,135.3,148.4,144.4,110.4,132.1z"/>
<path id="path111_fill_1_" class="st2" d="M107.7,154.9l8.2-7.8c-1.5-2.6-4-8.9-5.5-11l-10.2,5.1C102.9,145,107.7,154.9,107.7,154.9
	z"/>
<path id="path110_fill_1_" class="st3" d="M194.8,204c-0.6-1.1,0.3-2.2,1-2.9c-0.8,0.6-2.3,1.4-3.2,0.1c-1.1-1.5,0.6-3.1,1.3-3.6
	l0,0c-0.7,0.4-2.5,1.4-3.4,0.2c-0.9-1.2,0.8-2.6,1.5-3.1c-0.8,0.5-2.9,1.6-3.9,0.1c-0.8-1.2,2.1-2.7,2.1-2.7
	c49.6-26.5,9.1-49.5,9.1-49.5l8.5-7.3c48.5,35.9-4.6,65.2-9.7,68C198.1,203.3,195.5,205.2,194.8,204z"/>
<path id="path109_fill_1_" class="st2" d="M206.8,134.5l10.6,5.6c-2.3,2.6-9.7,9.1-12,11.1l-6.1-8.7
	C203.3,138.9,206.8,134.5,206.8,134.5z"/>
</svg>
