<svg xmlns="http://www.w3.org/2000/svg" xmlns:xlink="http://www.w3.org/1999/xlink" width="253" height="253" viewBox="0 0 253 253">
    <defs>
        <path id="a" d="M.428 64.765h108.805V.655H.428v64.11z"/>
        <path id="c" d="M0 131.908V.568h100.262v131.34H0z"/>
    </defs>
    <g fill="none" fill-rule="evenodd">
        <g transform="translate(37.008 187.668)">
            <mask id="b" fill="#fff">
                <use xlink:href="#a"/>
            </mask>
            <path fill="#5C3B1F" d="M.428 16.231l5.483 22.007-1.663 26.369s31.4 2.04 20.211-8.497c-8.69-8.187-16.202 3.846-16.202 3.846l5.522-25.241-.967-12.884s35.02-.532 63.788-11.314L89.502 23.88l-4.834 24.78s32.76 4.498 22.617-6.961c-6.815-7.698-17.71 2.78-17.71 2.78l7.735-21.232L85.65.656.429 16.23z" mask="url(#b)"/>
        </g>
        <path fill="#FCFCF6" d="M113.768 128.662l8.89 59.66s-34.385 13.09-85.22 15.576l-16.994-57.385s58.44.214 93.324-17.85"/>
        <path fill="#FFDEBF" d="M113.768 128.662s-6.846-104.508-79.862-58.258c0 0-21.543 24.858-13.462 76.109 72.81 1.448 93.324-17.85 93.324-17.85"/>
        <g transform="translate(0 14.606)">
            <mask id="d" fill="#fff">
                <use xlink:href="#c"/>
            </mask>
            <path fill="#5C3B1F" d="M87.59.567s51.162 57.026-52.122 68.87l2.425 22.253s-9.785-7.136-10.793 2.376c-1.005 9.514 9.737 4.568 9.737 4.568s-6.096 25.34-16.393 33.274c0 0-42.662-82.611-4.732-86.71 0 0-.724-14.665 18.98-24.797C62.797 5.946 81.067 36.496 87.591.567" mask="url(#d)"/>
        </g>
        <path fill="#5C3B1F" d="M92.05 92.47c1.03 3.473 3.196 5.895 4.84 5.41 1.643-.487 2.142-3.7 1.112-7.172-1.034-3.476-3.201-5.897-4.842-5.412-1.645.485-2.14 3.7-1.11 7.173M50.67 106.407c1.03 3.476 3.196 5.903 4.843 5.414 1.64-.488 2.14-3.703 1.106-7.177-1.03-3.477-3.196-5.901-4.842-5.414-1.643.486-2.14 3.7-1.107 7.177"/>
        <path fill="#FA8A8A" d="M93.574 113.65s-17.483 2.783-27.447 8.24c0 0 1.752 14.396 17.906 10.051 15.987-4.3 9.54-18.291 9.54-18.291"/>
        <path fill="#FFDEBF" d="M150.452 78.164c-1.201.447-1.21 1.948-1.088 2.863-.219-.92-.817-2.46-2.347-2.054-1.764.466-1.52 2.791-1.378 3.602l-.017.005c-.223-.742-.96-2.684-2.442-2.27-1.471.414-1.094 2.491-.893 3.284-.262-.848-1.11-3.021-2.874-2.45-1.32.428-.16 3.377-.16 3.377 20.026 51.465-25.485 44.142-25.485 44.142l1.633 10.959c59.906 2.227 39.093-53.493 37.1-58.863 0 0-.707-3.093-2.049-2.595"/>
        <path fill="#FCFCF6" d="M113.768 128.662l1.633 10.96a83.03 83.03 0 0 0 8.556-.106l-1.76-10.594c-4.778.327-8.429-.26-8.429-.26"/>
        <path fill="#FFDEBF" d="M42.82 213.677c.468-1.197-.642-2.203-1.404-2.721.83.447 2.372 1.023 3.09-.393.826-1.632-1.065-2.996-1.764-3.43l.009-.017c.7.328 2.634 1.069 3.31-.319.673-1.377-1.121-2.477-1.847-2.854.807.368 2.987 1.178 3.737-.524.56-1.274-2.408-2.368-2.408-2.368C-6.044 181.825 29.68 152.58 29.68 152.58l-9.236-6.067c-41.51 43.428 13.765 64.894 19.084 66.973 0 0 2.771 1.528 3.293.191"/>
        <path fill="#FCFCF6" d="M29.68 152.58l-9.235-6.067a83.532 83.532 0 0 0-5.614 6.485l9.048 5.728c2.935-3.798 5.8-6.146 5.8-6.146"/>
        <path fill="#8C5B30" d="M128.275 70.398l-6.232 3.491s-2.061 2.872.773 9.874c2.835 7 5.935 7.28 5.935 7.28l6.167-1.444-6.643-19.201z"/>
        <path fill="#FFBF57" d="M136.001 77.5s-3.964-8.673-7.726-7.103c-3.761 1.57-3.543 5.813-2.25 9.55 1.646 4.756 4.41 11.288 8.894 9.653 4.484-1.635 1.082-12.1 1.082-12.1"/>
        <path fill="#8C5B30" d="M151.992 61.587L129.257 74.89c-1.074 2.923 2.289 10.358 4.393 10.24l24.624-8.981-6.282-14.562z"/>
        <path fill="#FFBF57" d="M171.696 38.059l-29.01 17.128s-.866 19.315 14.112 31.975l29.227-9.856-14.33-39.247z"/>
        <path fill="#8C5B30" d="M201.922 4.82l-35.914 23.568c-8.732 17.586 9.102 55.432 26.033 59.51l41.6-11.221L201.92 4.82z"/>
        <path fill="#FFBF57" d="M248.887 27.717c8.31 20.185 2.474 41.753-13.034 48.173-15.507 6.42-34.815-4.739-43.124-24.923-8.31-20.184-2.476-41.752 13.034-48.172 15.507-6.42 34.815 4.738 43.124 24.922"/>
        <path fill="#FCFCF6" d="M245.963 28.928C238.52 10.844 221.221.848 207.328 6.6c-13.893 5.752-19.12 25.073-11.675 43.156 7.443 18.084 24.74 28.08 38.635 22.329 13.892-5.752 19.12-25.074 11.675-43.157"/>
        <path fill="#E6E6E6" d="M245.963 28.928C238.52 10.844 221.221.848 207.328 6.6c-.597.248-1.173.529-1.737.826 13.355-3.508 28.94 6.33 35.903 23.244 7.124 17.305 2.638 35.735-9.938 42.332a21.56 21.56 0 0 0 2.732-.917c13.892-5.752 19.12-25.074 11.675-43.157"/>
    </g>
</svg>
