<svg width="14" height="14" viewBox="0 0 14 14" fill="none" xmlns="http://www.w3.org/2000/svg">
<path d="M12.6484 1.86609H11.1085C11.1141 1.69553 11.1172 1.52396 11.1172 1.35156C11.1172 1.15738 10.9597 1 10.7657 1H3.23434C3.04025 1 2.88278 1.15738 2.88278 1.35156C2.88278 1.52396 2.88589 1.69553 2.89148 1.86609H1.35156C1.15738 1.86609 1 2.02347 1 2.21765C1 3.79291 1.41171 5.27908 2.15924 6.40253C2.89816 7.51315 3.88245 8.15018 4.94574 8.21216C5.1868 8.47446 5.44159 8.68832 5.707 8.85147V10.414H5.11722C4.40421 10.414 3.82422 10.9941 3.82422 11.707V12.2968H3.79922C3.60504 12.2968 3.44766 12.4543 3.44766 12.6483C3.44766 12.8425 3.60504 12.9999 3.79922 12.9999H10.2008C10.395 12.9999 10.5523 12.8425 10.5523 12.6483C10.5523 12.4543 10.395 12.2968 10.2008 12.2968H10.1758V11.707C10.1758 10.9941 9.59579 10.414 8.88278 10.414H8.293V8.85147C8.55841 8.68842 8.81329 8.47446 9.05435 8.21216C10.1176 8.15018 11.1018 7.51315 11.8409 6.40253C12.5884 5.27908 13 3.79291 13 2.21765C13 2.02347 12.8426 1.86609 12.6484 1.86609ZM2.74463 6.01306C2.12802 5.08646 1.76575 3.87448 1.71054 2.56921H2.93076C3.05756 4.17377 3.4342 5.65692 4.02289 6.8342C4.11664 7.0217 4.21469 7.19885 4.31641 7.36566C3.73166 7.14484 3.19049 6.68323 2.74463 6.01306ZM9.47266 11.707V12.2969H4.52734V11.707C4.52734 11.3818 4.79193 11.1171 5.11722 11.1171H8.88278C9.20807 11.1171 9.47266 11.3818 9.47266 11.707ZM7.58987 10.414H6.41013V9.15698C6.60339 9.20789 6.80032 9.23434 7 9.23434C7.19968 9.23434 7.39661 9.20789 7.58987 9.15698V10.414ZM7.80759 8.32056C7.79175 8.32706 7.77655 8.33493 7.76199 8.34363C7.51352 8.46722 7.25818 8.53122 7 8.53122C6.74191 8.53122 6.48666 8.46722 6.23828 8.34381C6.22354 8.33493 6.20825 8.32706 6.19223 8.32037C5.91656 8.17462 5.64987 7.95453 5.39764 7.66531C5.38437 7.64636 5.36945 7.62888 5.35287 7.61295C5.10248 7.31567 4.86691 6.95001 4.65176 6.51971C4.00568 5.22763 3.63251 3.52869 3.59003 1.70312H10.41C10.3674 3.52869 9.99423 5.22772 9.34824 6.51971C9.13309 6.95001 8.89752 7.31567 8.64722 7.61295C8.63055 7.62888 8.61545 7.64645 8.60226 7.66541C8.35004 7.95471 8.08325 8.17471 7.80759 8.32056ZM11.2554 6.01306C10.8095 6.68323 10.2683 7.14484 9.68359 7.36566C9.78531 7.19885 9.88336 7.0217 9.97711 6.8342C10.5658 5.65692 10.9424 4.17377 11.0692 2.56921H12.2895C12.2343 3.87448 11.872 5.08646 11.2554 6.01306Z" fill="#919DAF" stroke="#919DAF" stroke-width="0.3"/>
</svg>
