<svg width="81" height="18" viewBox="0 0 81 18" fill="none" xmlns="http://www.w3.org/2000/svg">
<path d="M7.56 14.72L2.952 11.12L7.56 7.544L7.008 5.72L0.72 10.496V11.768L7.008 16.544L7.56 14.72ZM10.6071 3.272C11.0071 3.272 11.3511 3.136 11.6391 2.864C11.9271 2.576 12.0711 2.232 12.0711 1.832C12.0711 1.432 11.9271 1.096 11.6391 0.823999C11.3511 0.535999 11.0071 0.391999 10.6071 0.391999C10.2071 0.391999 9.87106 0.535999 9.59906 0.823999C9.32706 1.096 9.19106 1.432 9.19106 1.832C9.19106 2.232 9.32706 2.576 9.59906 2.864C9.87106 3.136 10.2071 3.272 10.6071 3.272ZM11.8071 17V5.36H9.47906V17H11.8071ZM15.3782 7.256V17H17.6822V7.256H20.5862L19.8422 5.504H17.6822V4.208C17.6822 3.584 17.8102 3.096 18.0662 2.744C18.3382 2.376 18.7462 2.192 19.2902 2.192C19.5942 2.192 19.9782 2.28 20.4422 2.456L21.0182 0.68C20.8102 0.536 20.5142 0.415999 20.1302 0.319999C19.7622 0.207999 19.4102 0.151999 19.0742 0.151999C17.9222 0.151999 17.0182 0.503999 16.3622 1.208C15.7062 1.896 15.3782 2.824 15.3782 3.992V5.504H13.6022L13.6262 7.256H15.3782ZM24.7674 9.296C25.3754 8.72 26.0634 8.232 26.8314 7.832C27.5994 7.416 28.2874 7.208 28.8954 7.208L28.3914 5.36C27.8314 5.36 27.1754 5.56 26.4234 5.96C25.6874 6.36 25.0474 6.792 24.5034 7.256L23.7594 5.36H22.4634V17H24.7674V9.296ZM31.6048 7.904C32.7888 7.376 33.9088 7.112 34.9648 7.112C35.8288 7.112 36.4288 7.368 36.7648 7.88C37.1168 8.376 37.2928 9.096 37.2928 10.04H34.5328C33.2368 10.04 32.1968 10.36 31.4128 11C30.6448 11.624 30.2608 12.504 30.2608 13.64C30.2608 14.744 30.6048 15.632 31.2928 16.304C31.9808 16.96 32.9888 17.288 34.3168 17.288C34.9088 17.288 35.5168 17.152 36.1408 16.88C36.7648 16.608 37.2928 16.28 37.7248 15.896L38.0128 17H39.6208V9.104C39.6208 8.368 39.4128 7.688 38.9968 7.064C38.5968 6.44 38.0368 5.952 37.3168 5.6C36.5968 5.232 35.7968 5.048 34.9168 5.048C34.3728 5.048 33.6768 5.152 32.8288 5.36C31.9968 5.552 31.3728 5.792 30.9568 6.08L31.6048 7.904ZM32.3248 13.64C32.3248 13.064 32.5168 12.576 32.9008 12.176C33.2848 11.776 33.8128 11.576 34.4848 11.576H37.3168V13.928C36.9008 14.392 36.4288 14.768 35.9008 15.056C35.3728 15.328 34.8288 15.464 34.2688 15.464C33.6448 15.464 33.1648 15.288 32.8288 14.936C32.4928 14.568 32.3248 14.136 32.3248 13.64ZM56.1848 4.976C57.4008 4.976 58.3128 5.376 58.9208 6.176C59.5288 6.96 59.8328 8.008 59.8328 9.32V17H57.5288V9.536C57.5288 8.704 57.3848 8.064 57.0968 7.616C56.8248 7.168 56.3608 6.944 55.7048 6.944C55.2408 6.944 54.7128 7.104 54.1208 7.424C53.5288 7.728 52.9368 8.136 52.3448 8.648C52.3608 8.792 52.3688 9.016 52.3688 9.32V17H50.0648V9.536C50.0648 8.704 49.9208 8.064 49.6328 7.616C49.3608 7.168 48.8968 6.944 48.2408 6.944C47.7448 6.944 47.1848 7.12 46.5608 7.472C45.9528 7.808 45.3368 8.248 44.7128 8.792V17H42.4088V5.36H44.0168L44.4248 6.896C45.0328 6.336 45.7208 5.88 46.4888 5.528C47.2728 5.16 48.0168 4.976 48.7208 4.976C49.4888 4.976 50.1368 5.144 50.6648 5.48C51.2088 5.816 51.6168 6.288 51.8888 6.896C52.4968 6.336 53.1848 5.88 53.9528 5.528C54.7368 5.16 55.4808 4.976 56.1848 4.976ZM72.5479 11.072C72.5479 9.312 72.1159 7.872 71.2519 6.752C70.4039 5.616 69.1399 5.048 67.4599 5.048C66.3239 5.048 65.3319 5.304 64.4839 5.816C63.6519 6.328 63.0119 7.048 62.5639 7.976C62.1159 8.904 61.8919 9.968 61.8919 11.168C61.8919 13.04 62.4359 14.528 63.5239 15.632C64.6119 16.736 66.1719 17.288 68.2039 17.288C69.6119 17.288 71.0199 16.864 72.4279 16.016L71.7079 14.336C70.8919 14.72 70.2519 14.992 69.7879 15.152C69.3399 15.296 68.8119 15.368 68.2039 15.368C66.9559 15.368 66.0119 15.04 65.3719 14.384C64.7479 13.728 64.3879 12.832 64.2919 11.696H72.5479V11.072ZM64.3399 10.136C64.4519 9.16 64.7639 8.4 65.2759 7.856C65.8039 7.296 66.5079 7.016 67.3879 7.016C69.0359 7.016 70.0119 8.056 70.3159 10.136H64.3399ZM80.5856 10.496L74.2976 5.72L73.7456 7.544L78.3536 11.12L73.7456 14.72L74.2976 16.544L80.5856 11.768V10.496Z" fill="#172135"/>
</svg>
