<svg width="11" height="11" viewBox="0 0 11 11" fill="none" xmlns="http://www.w3.org/2000/svg">
<path d="M0.5 5.5C0.5 2.74344 2.74344 0.5 5.5 0.5C8.25656 0.5 10.5 2.74344 10.5 5.5C10.5 8.25656 8.25656 10.5 5.5 10.5C2.74344 10.5 0.5 8.25656 0.5 5.5ZM0.670194 5.5C0.670194 8.16365 2.83651 10.3297 5.5 10.3297C8.16349 10.3297 10.3298 8.16365 10.3298 5.5C10.3298 2.83635 8.16349 0.670307 5.5 0.670307C2.83651 0.670307 0.670194 2.83635 0.670194 5.5Z" fill="#656565" stroke="#919DAF"/>
<mask id="path-2-inside-1" fill="white">
<path d="M8.3667 5.33004H5.89498V2.35814C5.89498 2.10804 5.69221 1.90527 5.44212 1.90527C5.19203 1.90527 4.98926 2.10804 4.98926 2.35814V5.7829C4.98926 6.033 5.19203 6.23576 5.44212 6.23576H8.3667C8.61679 6.23576 8.81956 6.033 8.81956 5.7829C8.81956 5.53281 8.61679 5.33004 8.3667 5.33004Z"/>
</mask>
<path d="M8.3667 5.33004H5.89498V2.35814C5.89498 2.10804 5.69221 1.90527 5.44212 1.90527C5.19203 1.90527 4.98926 2.10804 4.98926 2.35814V5.7829C4.98926 6.033 5.19203 6.23576 5.44212 6.23576H8.3667C8.61679 6.23576 8.81956 6.033 8.81956 5.7829C8.81956 5.53281 8.61679 5.33004 8.3667 5.33004Z" fill="#656565"/>
<path d="M5.89498 5.33004H4.89498V6.33004H5.89498V5.33004ZM8.3667 4.33004H5.89498V6.33004H8.3667V4.33004ZM6.89498 5.33004V2.35814H4.89498V5.33004H6.89498ZM6.89498 2.35814C6.89498 1.55576 6.2445 0.905273 5.44212 0.905273V2.90527C5.13993 2.90527 4.89498 2.66033 4.89498 2.35814H6.89498ZM5.44212 0.905273C4.63974 0.905273 3.98926 1.55576 3.98926 2.35814H5.98926C5.98926 2.66033 5.74431 2.90527 5.44212 2.90527V0.905273ZM3.98926 2.35814V5.7829H5.98926V2.35814H3.98926ZM3.98926 5.7829C3.98926 6.58528 4.63974 7.23576 5.44212 7.23576V5.23576C5.74431 5.23576 5.98926 5.48071 5.98926 5.7829H3.98926ZM5.44212 7.23576H8.3667V5.23576H5.44212V7.23576ZM8.3667 7.23576C9.16908 7.23576 9.81956 6.58528 9.81956 5.7829H7.81956C7.81956 5.48071 8.0645 5.23576 8.3667 5.23576V7.23576ZM9.81956 5.7829C9.81956 4.98053 9.16908 4.33004 8.3667 4.33004V6.33004C8.0645 6.33004 7.81956 6.08509 7.81956 5.7829H9.81956Z" fill="#919DAF" mask="url(#path-2-inside-1)"/>
</svg>
