<svg width="12" height="12" viewBox="0 0 12 12" fill="none" xmlns="http://www.w3.org/2000/svg">
<circle cx="6" cy="6" r="5.5" stroke="#919DAF"/>
<path fill-rule="evenodd" clip-rule="evenodd" d="M5.31949 3.9161L5.31949 3.9161C5.31617 3.90282 5.31185 3.88953 5.30712 3.87503C5.29625 3.84163 5.28326 3.80178 5.27562 3.7406C5.26465 3.69672 5.26465 3.64188 5.26465 3.59801V3.598V3.598C5.26465 3.55413 5.26465 3.51025 5.27562 3.45541C5.28659 3.41153 5.29756 3.36766 5.31949 3.32378L5.31949 3.32378C5.34143 3.27991 5.36337 3.23603 5.38531 3.20312C5.40724 3.17022 5.44015 3.13731 5.47306 3.10441L5.47306 3.1044C5.4991 3.07837 5.52514 3.0592 5.55661 3.03602C5.56491 3.02991 5.57359 3.02352 5.58275 3.01665C5.61565 2.99472 5.65953 2.97278 5.70341 2.95084H5.71437C5.75825 2.9289 5.80212 2.91793 5.846 2.90697L5.846 2.90697C5.88988 2.896 5.94472 2.896 5.9886 2.896C6.03247 2.896 6.07635 2.896 6.13119 2.90697C6.17507 2.91793 6.21894 2.9289 6.26282 2.95084C6.28476 2.96181 6.30395 2.97278 6.32315 2.98375C6.34234 2.99472 6.36154 3.00568 6.38348 3.01665C6.39264 3.02352 6.40132 3.02991 6.40962 3.03602C6.44109 3.0592 6.46713 3.07837 6.49317 3.1044L6.51511 3.12634C6.56995 3.18119 6.61383 3.247 6.64673 3.32378C6.66867 3.37863 6.67964 3.4225 6.69061 3.46638C6.70158 3.51025 6.70158 3.5651 6.70158 3.60897V3.60897V3.60897C6.70158 3.65285 6.70158 3.70769 6.69061 3.75157C6.68883 3.75869 6.68705 3.7661 6.68522 3.7737C6.67579 3.81295 6.66511 3.85741 6.64673 3.89416C6.63576 3.90513 6.63576 3.90513 6.63576 3.9161C6.62479 3.95998 6.60286 3.99288 6.58092 4.02579C6.55898 4.0587 6.53704 4.0916 6.50414 4.12451L6.49317 4.13548C6.46026 4.16839 6.42735 4.20129 6.39445 4.22323C6.35057 4.25614 6.3067 4.27807 6.26282 4.30001H6.25185C6.21894 4.32195 6.17507 4.33292 6.13119 4.34389C6.08732 4.35486 6.03247 4.35486 5.9886 4.35486C5.94472 4.35486 5.90085 4.35486 5.846 4.34389C5.79116 4.33292 5.74728 4.32195 5.70341 4.30001C5.65444 4.29022 5.61423 4.26294 5.58275 4.2416C5.57896 4.23903 5.57531 4.23655 5.57178 4.2342C5.5279 4.20129 5.495 4.16839 5.46209 4.13548C5.45112 4.11903 5.43741 4.10257 5.4237 4.08612C5.40999 4.06967 5.39628 4.05321 5.38531 4.03676C5.36337 4.00385 5.34143 3.95998 5.31949 3.9161ZM6.59224 7.93108H6.84452C6.99809 7.93108 7.12971 8.06271 7.12971 8.22724V8.81957C7.12971 8.9841 6.99809 9.10476 6.84452 9.10476H5.15531C4.99078 9.10476 4.87012 8.97313 4.87012 8.81957V8.22724C4.87012 8.06271 5.00174 7.94205 5.15531 7.94205H5.38566V6.12121H5.15531C4.99078 6.12121 4.87012 5.98958 4.87012 5.83601V5.24369C4.87012 5.07915 5.00174 4.9585 5.15531 4.9585H6.30705C6.47158 4.9585 6.59224 5.09012 6.59224 5.24369V7.93108Z" fill="#919DAF"/>
</svg>
