<svg width="33" height="33" viewBox="0 0 33 33" fill="none" xmlns="http://www.w3.org/2000/svg">
<path d="M16.4422 0.0693359C17.3772 0.0693359 18.0451 0.727526 18.0451 1.64899V7.83597C18.0451 8.75744 17.3772 9.48145 16.4422 9.48145C15.5071 9.48145 14.7725 8.75744 14.7725 7.83597V1.64899C14.7725 0.727526 15.5071 0.0693359 16.4422 0.0693359Z" fill="#597CE1" fill-opacity="0.1"/>
<path d="M8.8946 3.55757L12.568 8.55981C13.3695 9.61292 12.568 11.1268 11.2322 11.1268C10.6979 11.1268 10.2972 10.9293 9.96323 10.4686L6.28984 5.46632C5.75553 4.74231 5.88911 3.75503 6.62378 3.22848C7.35846 2.70193 8.36029 2.83356 8.8946 3.55757Z" fill="#597CE1"/>
<path d="M1.61433 13.4965C0.746073 13.2332 0.278551 12.3118 0.545707 11.4561C0.812862 10.6005 1.74791 10.1397 2.61616 10.403L8.56037 12.3118C9.42863 12.575 9.89615 13.4965 9.62899 14.3522C9.42863 15.0103 8.69395 15.4711 8.02606 15.4711C7.82569 15.4711 7.7589 15.4053 7.55854 15.3394L1.61433 13.4965Z" fill="#597CE1"/>
<path d="M9.62899 18.6964C9.89615 19.552 9.42863 20.4735 8.56037 20.7367L2.61616 22.6455C2.41579 22.7113 2.28222 22.7113 2.08185 22.7113C1.41396 22.7113 0.746073 22.2506 0.545707 21.5924C0.278551 20.7367 0.746073 19.8153 1.61433 19.552L7.55854 17.6433C8.42679 17.38 9.36184 17.8407 9.62899 18.6964Z" fill="#597CE1"/>
<path d="M12.2338 22.2509C12.9685 22.7775 13.1021 23.7648 12.5678 24.4888L8.89438 29.491C8.56043 29.9518 8.09291 30.1492 7.5586 30.1492C6.22282 30.1492 5.48815 28.6354 6.28961 27.5823L9.963 22.58C10.4973 21.856 11.4991 21.7244 12.2338 22.2509Z" fill="#597CE1" fill-opacity="0.78"/>
<path d="M16.4422 23.5674C17.3772 23.5674 18.0451 24.2914 18.0451 25.2129V31.334C18.0451 32.2555 17.3772 32.9795 16.4422 32.9795C15.5071 32.9795 14.7725 32.2555 14.7725 31.334V25.2129C14.7725 24.2914 15.5071 23.5674 16.4422 23.5674Z" fill="#597CE1" fill-opacity="0.68"/>
<path d="M22.92 22.58L26.5934 27.5823C27.3948 28.6354 26.5934 30.1492 25.2576 30.1492C24.7233 30.1492 24.3226 29.9518 23.9886 29.491L20.3152 24.4888C19.7809 23.7648 19.9145 22.7775 20.6492 22.2509C21.3839 21.7244 22.3857 21.856 22.92 22.58Z" fill="#597CE1" fill-opacity="0.58"/>
<path d="M31.2684 19.552C32.1366 19.8153 32.6042 20.7367 32.337 21.5924C32.1366 22.2506 31.402 22.7113 30.7341 22.7113C30.5337 22.7113 30.4669 22.7113 30.2665 22.6455L24.3223 20.7367C23.4541 20.4735 22.9866 19.552 23.2537 18.6964C23.5209 17.8407 24.4559 17.38 25.3242 17.6433L31.2684 19.552Z" fill="#597CE1" fill-opacity="0.48"/>
<path d="M23.2537 14.3522C22.9866 13.4965 23.4541 12.575 24.3223 12.3118L30.2665 10.403C31.1348 10.1397 32.0698 10.6005 32.337 11.4561C32.6042 12.3118 32.1366 13.2332 31.2684 13.4965L25.3242 15.3394C25.1238 15.4053 24.9902 15.4711 24.7899 15.4711C24.122 15.4711 23.4541 15.0103 23.2537 14.3522Z" fill="#597CE1" fill-opacity="0.38"/>
<path d="M21.584 11.1268C20.2482 11.1268 19.5135 9.61292 20.315 8.55981L23.9884 3.55757C24.5227 2.83356 25.5245 2.70193 26.2592 3.22848C26.9939 3.75503 27.1275 4.74231 26.5932 5.46632L22.9198 10.4686C22.5858 10.9293 22.1183 11.1268 21.584 11.1268Z" fill="#597CE1" fill-opacity="0.28"/>
</svg>
