<svg width="71" height="43" viewBox="0 0 71 43" version="1.1" xmlns="http://www.w3.org/2000/svg" xmlns:xlink="http://www.w3.org/1999/xlink">
<title>logo NSPA</title>
<desc>Created using Figma</desc>
<g id="Canvas" transform="translate(-4762 2067)">
<g id="logo NSPA">
<g id="Group">
<g id="Vector">
<use xlink:href="#path0_fill" transform="translate(4762.53 -2052.75)" fill="#7E99C0"/>
</g>
<g id="Vector">
<use xlink:href="#path1_fill" transform="translate(4817.16 -2026.53)" fill="#7E99C0"/>
</g>
<g id="Vector">
<use xlink:href="#path2_fill" transform="translate(4810.08 -2026.53)" fill="#7E99C0"/>
</g>
<g id="Vector">
<use xlink:href="#path3_fill" transform="translate(4801.19 -2026.38)" fill="#7E99C0"/>
</g>
<g id="Vector">
<use xlink:href="#path4_fill" transform="translate(4821.35 -2026.53)" fill="#7E99C0"/>
</g>
<g id="Vector">
<use xlink:href="#path5_fill" transform="translate(4826.1 -2027.16)" fill="#7E99C0"/>
</g>
<g id="Vector">
<use xlink:href="#path6_fill" transform="translate(4831 -2026.43)" fill="#7E99C0"/>
</g>
<g id="Vector">
<use xlink:href="#path7_fill" transform="translate(4797.82 -2026.49)" fill="#7E99C0"/>
</g>
<g id="Vector">
<use xlink:href="#path8_fill" transform="translate(4808.84 -2026.49)" fill="#7E99C0"/>
</g>
<g id="Vector">
<use xlink:href="#path9_fill" transform="translate(4827.78 -2026.36)" fill="#7E99C0"/>
</g>
<g id="Vector">
<use xlink:href="#path10_fill" transform="translate(4823.34 -2026.38)" fill="#7E99C0"/>
</g>
<g id="Vector">
<use xlink:href="#path11_fill" transform="translate(4803.5 -2026.38)" fill="#7E99C0"/>
</g>
<g id="Vector">
<use xlink:href="#path12_fill" transform="translate(4777.11 -2052.76)" fill="#7E99C0"/>
</g>
<g id="Vector">
<use xlink:href="#path13_fill" transform="translate(4792.65 -2052.73)" fill="#7E99C0"/>
</g>
<g id="Vector">
<use xlink:href="#path14_fill" transform="translate(4789.61 -2052.22)" fill="#7E99C0"/>
</g>
<g id="Vector">
<use xlink:href="#path15_fill" transform="translate(4808.39 -2059.46)" fill="#7E99C0"/>
</g>
<g id="Vector">
<use xlink:href="#path16_fill" transform="translate(4807.36 -2062.4)" fill="#7E99C0"/>
</g>
<g id="Vector">
<use xlink:href="#path17_fill" transform="translate(4763.12 -2058.68)" fill="#7E99C0"/>
</g>
<g id="Vector">
<use xlink:href="#path18_fill" transform="translate(4772.48 -2058.66)" fill="#7E99C0"/>
</g>
<g id="Vector">
<use xlink:href="#path19_fill" transform="translate(4792.96 -2060.12)" fill="#7E99C0"/>
</g>
<g id="Vector">
<use xlink:href="#path20_fill" transform="translate(4795.4 -2032.32)" fill="#7E99C0"/>
</g>
<g id="Vector">
<use xlink:href="#path21_fill" transform="translate(4811.13 -2032.31)" fill="#7E99C0"/>
</g>
<g id="Vector">
<use xlink:href="#path22_fill" transform="translate(4785.74 -2058.6)" fill="#7E99C0"/>
</g>
<g id="Vector">
<use xlink:href="#path23_fill" transform="translate(4815.41 -2032.4)" fill="#7E99C0"/>
</g>
<g id="Vector">
<use xlink:href="#path24_fill" transform="translate(4826.56 -2032.44)" fill="#7E99C0"/>
</g>
<g id="Vector">
<use xlink:href="#path25_fill" transform="translate(4804.31 -2063.22)" fill="#7E99C0"/>
</g>
<g id="Vector">
<use xlink:href="#path26_fill" transform="translate(4804.75 -2031.62)" fill="#7E99C0"/>
</g>
<g id="Vector">
<use xlink:href="#path27_fill" transform="translate(4824.45 -2031.54)" fill="#7E99C0"/>
</g>
<g id="Vector">
<use xlink:href="#path28_fill" transform="translate(4813.4 -2031.52)" fill="#7E99C0"/>
</g>
<g id="Vector">
<use xlink:href="#path29_fill" transform="translate(4800.01 -2032.25)" fill="#7E99C0"/>
</g>
<g id="Vector">
<use xlink:href="#path30_fill" transform="translate(4823.2 -2031.56)" fill="#7E99C0"/>
</g>
<g id="Vector">
<use xlink:href="#path31_fill" transform="translate(4809.45 -2032.38)" fill="#7E99C0"/>
</g>
<g id="Vector">
<use xlink:href="#path32_fill" transform="translate(4820.18 -2032.42)" fill="#7E99C0"/>
</g>
<g id="Vector">
<use xlink:href="#path33_fill" transform="translate(4828.84 -2031.5)" fill="#7E99C0"/>
</g>
<g id="Vector">
<use xlink:href="#path34_fill" transform="translate(4801.64 -2031.5)" fill="#7E99C0"/>
</g>
<g id="Vector">
<use xlink:href="#path35_fill" transform="translate(4801.54 -2032.28)" fill="#7E99C0"/>
</g>
<g id="Vector">
<use xlink:href="#path36_fill" transform="translate(4823.36 -2027.16)" fill="#7E99C0"/>
</g>
<g id="Vector">
<use xlink:href="#path37_fill" transform="translate(4803.38 -2027.16)" fill="#7E99C0"/>
</g>
<g id="Vector">
<use xlink:href="#path38_fill" transform="translate(4828.75 -2032.29)" fill="#7E99C0"/>
</g>
<g id="Vector">
<use xlink:href="#path39_fill" transform="translate(4827.82 -2027.11)" fill="#7E99C0"/>
</g>
<g id="Vector">
<use xlink:href="#path40_fill" transform="translate(4802.75 -2067)" fill="#7E99C0"/>
</g>
<g id="Vector">
<use xlink:href="#path41_fill" transform="translate(4812.82 -2027.22)" fill="#7E99C0"/>
</g>
<g id="Vector">
<use xlink:href="#path42_fill" transform="translate(4795.4 -2027.32)" fill="#7E99C0"/>
</g>
<g id="Vector">
<use xlink:href="#path43_fill" transform="translate(4804.24 -2027.29)" fill="#7E99C0"/>
</g>
<g id="Vector">
<use xlink:href="#path44_fill" transform="translate(4806.52 -2026.53)" fill="#7E99C0"/>
</g>
<g id="Vector">
<use xlink:href="#path45_fill" transform="translate(4824.27 -2026.52)" fill="#7E99C0"/>
</g>
<g id="Vector">
<use xlink:href="#path46_fill" transform="translate(4799.09 -2026.49)" fill="#7E99C0"/>
</g>
<g id="Vector">
<use xlink:href="#path47_fill" transform="translate(4828.68 -2026.52)" fill="#7E99C0"/>
</g>
<g id="Vector">
<use xlink:href="#path48_fill" transform="translate(4819.05 -2026.53)" fill="#7E99C0"/>
</g>
<g id="Vector">
<use xlink:href="#path49_fill" transform="translate(4804.21 -2052.77)" fill="#7E99C0"/>
</g>
<g id="Vector">
<use xlink:href="#path50_fill" transform="translate(4778.41 -2060)" fill="#7E99C0"/>
</g>
<g id="Vector">
<use xlink:href="#path51_fill" transform="translate(4782.05 -2058.67)" fill="#7E99C0"/>
</g>
<g id="Vector">
<use xlink:href="#path52_fill" transform="translate(4768.92 -2058.65)" fill="#7E99C0"/>
</g>
<g id="Vector">
<use xlink:href="#path53_fill" transform="translate(4789.4 -2058.64)" fill="#7E99C0"/>
</g>
<g id="Vector">
<use xlink:href="#path54_fill" transform="translate(4829.63 -2031.53)" fill="#7E99C0"/>
</g>
<g id="Vector">
<use xlink:href="#path55_fill" transform="translate(4807.04 -2031.55)" fill="#7E99C0"/>
</g>
<g id="Vector">
<use xlink:href="#path56_fill" transform="translate(4797.99 -2031.55)" fill="#7E99C0"/>
</g>
<g id="Vector">
<use xlink:href="#path57_fill" transform="translate(4820.89 -2031.55)" fill="#7E99C0"/>
</g>
<g id="Vector">
<use xlink:href="#path58_fill" transform="translate(4802.45 -2031.52)" fill="#7E99C0"/>
</g>
<g id="Vector">
<use xlink:href="#path59_fill" transform="translate(4817.71 -2031.52)" fill="#7E99C0"/>
</g>
</g>
</g>
</g>
<defs>
<path id="path0_fill" d="M 0.0421536 0.524553C 0.273998 0.524553 0.505843 0.524553 0.737688 0.524553C 2.2763 0.524553 2.27629 0.524553 2.33953 2.13544C 2.33953 2.35022 2.23414 2.65092 2.48706 2.75831C 2.82429 2.88718 2.78214 2.50057 2.9086 2.35022C 4.10998 0.932644 5.60643 0.202376 7.44011 0.0305483C 8.30426 -0.0553654 9.10518 0.0520274 9.92718 0.202377C 11.9927 0.610467 12.8358 2.54353 12.8569 4.21884C 12.899 8.08496 12.8569 11.9511 12.8779 15.8172C 12.8779 16.2683 12.8147 16.483 12.3089 16.4401C 11.6555 16.3756 10.7913 16.7193 10.3909 16.3112C 9.99041 15.9031 10.2644 15.044 10.2644 14.3781C 10.2433 11.2853 10.2855 8.21383 10.2433 5.12094C 10.2223 3.48858 9.61102 2.45761 8.28319 1.92065C 6.32304 1.10447 4.04675 2.39318 3.22475 4.24032C 2.86645 5.0565 2.76106 5.93712 2.76106 6.83921C 2.73998 9.82472 2.73998 12.8102 2.76106 15.7742C 2.76106 16.3112 2.6346 16.4616 2.0866 16.4616C 0.295075 16.4401 0.295075 16.4616 0.295075 14.6144C 0.295075 11.3712 0.273998 8.12792 0.316152 4.88468C 0.337229 3.57449 0.126461 2.26431 0.147538 0.954122C 0.147538 0.84673 0.126461 0.760815 2.51256e-09 0.717858C 0.0421536 0.631944 0.0421536 0.588988 0.0421536 0.524553Z"/>
<path id="path1_fill" d="M 0.0849943 2.48247C -0.210081 1.79516 0.337915 1.92403 0.590836 2.05291C 0.864835 2.18178 1.05453 2.18177 1.11776 1.92403C 1.18099 1.68777 0.970221 1.60186 0.738377 1.5589C 0.0849956 1.45151 -0.104694 0.957505 0.12715 0.442022C 0.316842 -0.0090249 0.801608 -0.137896 1.28637 0.162802C 1.39176 0.227237 1.64468 0.119845 1.58145 0.377586C 1.5393 0.527936 1.41284 0.74272 1.18099 0.592371C 0.906992 0.420543 0.632995 0.463499 0.569765 0.742719C 0.485457 1.04342 0.843759 1.02194 1.03345 1.10786C 1.85545 1.43003 1.91868 1.60186 1.45499 2.52543C 1.01237 2.48247 0.548684 2.48247 0.0849943 2.48247Z"/>
<path id="path2_fill" d="M 0.145367 2.48255C 0.12429 2.3322 -0.107557 2.2248 0.0610574 2.01002C 0.250749 1.79524 0.377209 2.0315 0.524746 2.0315C 0.735515 2.01002 1.03059 2.35368 1.15705 1.96706C 1.28351 1.60193 0.946285 1.62341 0.71444 1.5375C 0.398288 1.4301 0.103212 1.25828 0.124288 0.78575C 0.145365 0.420617 0.271827 0.248788 0.566903 0.0769608C 0.946285 -0.137824 1.24136 0.162875 1.57859 0.184353C 1.70505 0.205831 1.6629 0.356179 1.59966 0.420614C 1.51536 0.549484 1.40997 0.656878 1.22028 0.549486C 0.988437 0.420615 0.693363 0.313222 0.609056 0.635398C 0.524748 1.02201 0.861977 1.02201 1.13598 1.08645C 1.68397 1.21532 1.78936 1.68784 1.49428 2.46107C 1.05167 2.48254 0.609056 2.48255 0.145367 2.48255Z"/>
<path id="path3_fill" d="M 0.800919 2.34115C 0.547997 1.5894 0.295075 0.837661 -6.43213e-07 1.31094e-06C 1.13815 0.0214798 0.569073 1.11688 1.05384 1.48201C 1.32784 1.20279 1.26461 0.751744 1.41214 0.386611C 1.51753 0.128869 1.62292 -0.064436 1.87584 0.0214778C 2.25522 0.150348 1.89691 0.365132 1.85476 0.494003C 1.68614 1.11688 1.4543 1.71828 1.26461 2.34115C 1.09599 2.34115 0.948456 2.34115 0.800919 2.34115Z"/>
<path id="path4_fill" d="M 0.487139 2.48862C -0.0187041 1.86575 -0.18732 1.19992 0.255293 0.469649C 0.550368 -0.0243551 0.971903 -0.11027 1.49882 0.125993C 1.68851 0.211906 1.73067 0.3193 1.68851 0.469649C 1.62528 0.705912 1.47774 0.577041 1.35128 0.512605C 0.655749 0.233386 0.571441 0.856259 0.508211 1.24287C 0.466057 1.62948 0.529289 2.12349 1.16159 2.03757C 1.49882 1.99462 1.77282 2.03758 1.68851 2.5101C 1.28805 2.48862 0.887599 2.48862 0.487139 2.48862Z"/>
<path id="path5_fill" d="M 0.779843 3.11437C 0.505845 2.64185 0.632303 2.10489 0.632303 1.61088C 0.632303 1.24575 0.569072 1.03096 -1.28643e-06 1.05244C 0.379381 0.773223 0.758764 0.665833 0.632303 0.236264C 0.590149 0.0859151 0.695535 0 0.864149 0C 1.01169 0 1.11707 0.0859151 1.07492 0.236264C 0.99061 0.622876 1.22245 0.794704 1.60184 0.880617C 1.07492 1.18132 0.885227 2.06193 1.20138 2.66333C 1.30676 2.83515 1.32784 2.96402 1.24353 3.11437C 1.07491 3.11437 0.927381 3.11437 0.779843 3.11437Z"/>
<path id="path6_fill" d="M 1.98949 1.999C 1.92626 1.46204 1.96841 0.903601 1.96841 0.366639C 1.71549 0.0874197 0.282266 -0.127365 0.0504209 0.0874191C 0.00826725 0.130376 -0.0128057 0.237768 0.00827111 0.302203C 0.28227 0.989514 0.0504196 1.6983 0.134727 2.40709C 0.282264 2.40709 0.429805 2.40709 0.598419 2.40709C 0.598419 1.93457 0.598419 1.48352 0.598419 1.01099C 0.598419 0.645859 0.809188 0.409594 1.14642 0.388116C 1.54688 0.366637 1.5258 0.710294 1.5258 1.01099C 1.5258 1.48352 1.5258 1.93457 1.5258 2.40709C 1.77872 2.38561 2.05272 2.493 1.98949 1.999Z"/>
<path id="path7_fill" d="M 0.0377423 2.4509C 0.0377423 1.9569 0.0798978 1.46289 0.0166674 0.990367C -0.0676398 0.324535 0.164204 0.0667959 0.796509 0.00236053C 1.07051 -0.0191179 1.07051 0.109751 1.15481 0.238621C 1.21804 0.346014 1.32343 0.517843 1.15481 0.539322C 0.185281 0.711149 0.564664 1.48437 0.480356 2.06429C 0.45928 2.19316 0.480356 2.32203 0.480356 2.4509C 0.332819 2.4509 0.18528 2.4509 0.0377423 2.4509Z"/>
<path id="path8_fill" d="M 0.0228497 2.44897C 0.0228497 2.10532 0.0228497 1.78314 0.0228497 1.43949C 0.0439265 0.730699 -0.293304 -0.214352 1.05561 0.0433892C 1.39284 0.623307 0.423307 0.558871 0.465461 1.05288C 0.507614 1.50392 0.465461 1.97645 0.465461 2.44897C 0.317923 2.44897 0.170387 2.44897 0.0228497 2.44897Z"/>
<path id="path9_fill" d="M 0.153669 2.31967C -0.078176 1.65384 0.0272055 0.966531 0.00612869 0.3007C 0.00612869 0.15035 0.00612997 -6.5547e-07 0.237975 -6.5547e-07C 0.448743 -6.5547e-07 0.469821 0.15035 0.469821 0.3007C 0.406591 0.98801 0.554124 1.65384 0.617355 2.31967C 0.469817 2.31967 0.322283 2.31967 0.153669 2.31967Z"/>
<path id="path10_fill" d="M 0.170896 2.34115C -0.145256 1.65384 0.0865863 0.945051 0.0233558 0.236262C 0.00227903 0.0859131 0.0865875 1.31094e-06 0.255202 1.31094e-06C 0.46597 1.31094e-06 0.487048 0.150349 0.487048 0.300698C 0.508125 0.988008 0.402737 1.67532 0.634582 2.31967C 0.487044 2.34115 0.339511 2.34115 0.170896 2.34115Z"/>
<path id="path11_fill" d="M -6.43213e-07 2.34115C -6.43213e-07 1.67532 -6.43213e-07 0.98801 -6.43213e-07 0.322178C -6.43213e-07 0.171829 6.28138e-07 1.31094e-06 0.231846 1.31094e-06C 0.46369 1.31094e-06 0.463688 0.15035 0.463688 0.322178C 0.463688 0.98801 0.463688 1.67532 0.463688 2.34115C 0.295074 2.34115 0.147537 2.34115 -6.43213e-07 2.34115Z"/>
<path id="path12_fill" d="M 5.14633 16.8803C 3.52342 16.9662 2.00589 16.5152 0.509436 15.9353C -0.523327 15.5272 0.319745 14.9687 0.404052 14.4962C 0.509436 13.8518 0.888819 14.174 1.22605 14.3244C 2.61712 14.9687 4.05034 15.4842 5.61002 15.3124C 6.62171 15.205 7.52801 14.8613 8.03386 13.8304C 8.56078 12.7779 8.51862 11.7255 7.88632 10.7589C 7.46478 10.1146 6.8114 9.83537 6.11587 9.55615C 4.85126 9.06215 3.52342 8.82589 2.30096 8.18153C 0.0879001 7.00022 -0.481174 3.60662 1.24712 1.78096C 2.27989 0.685556 3.52342 0.191553 4.9988 0.0412035C 6.95894 -0.152102 8.68724 0.341901 10.3523 1.37287C 10.7738 1.63061 10.8581 1.75948 10.5209 2.21053C 9.86754 3.11262 9.93077 3.09114 9.00339 2.55418C 7.48586 1.65209 5.88402 0.986256 4.11357 1.93131C 3.18619 2.42531 2.7225 3.17706 2.70142 4.2295C 2.70142 5.34638 3.2705 6.07665 4.15572 6.61361C 5.3571 7.36535 6.72709 7.60162 8.01278 8.1171C 10.2891 9.01919 11.1321 10.673 10.9425 12.6705C 10.6895 15.0761 9.29846 16.2145 7.16971 16.73C 6.49525 16.9018 5.82079 16.9018 5.14633 16.8803Z"/>
<path id="path13_fill" d="M 0.0814058 14.213C 0.903401 14.5566 1.7254 14.9432 2.61062 14.9862C 5.32953 15.158 6.69952 13.6116 7.31075 11.206C 7.85875 9.14404 7.77444 7.03915 7.03675 4.9987C 6.34122 3.04416 4.7183 1.88433 2.69493 1.77693C 1.8097 1.73398 0.945555 1.77693 0.0814058 2.0132C 0.060329 1.97024 0.0181748 1.94876 0.0181748 1.90581C -0.0450556 0.0801378 -0.0450557 0.144572 1.8097 0.03718C 3.1797 -0.0487338 4.52861 -0.0057772 5.85645 0.380835C 8.23813 1.06814 9.43951 2.82938 9.92427 5.17053C 10.1983 6.43776 10.3458 7.74794 10.2404 9.05813C 10.0718 10.8408 9.81889 12.5591 8.91259 14.1915C 7.56367 16.6185 4.4443 17.3703 1.97832 16.64C 1.76755 16.5756 1.55678 16.4897 1.34601 16.4252C 0.0181754 15.9527 -0.108285 15.7164 0.0814058 14.213Z"/>
<path id="path14_fill" d="M 2.57137 11.4409C 2.57137 15.0707 2.55029 18.7006 2.59245 22.3305C 2.59245 22.9104 2.46599 23.0607 1.87584 23.0607C 0.0210761 23.0392 0.0210755 23.0607 0.0210755 21.1706C 0.0210755 14.5338 0.0210775 7.89695 6.43213e-07 1.28159C 6.43213e-07 0.680195 0.105383 0.379497 0.758764 0.229147C 2.57137 -0.178943 2.55029 -0.2219 2.55029 1.64672C 2.57137 4.91145 2.57137 8.17617 2.57137 11.4409Z"/>
<path id="path15_fill" d="M -1.28643e-06 2.6615C 2.42383 1.11505 4.9952 0.29887 7.73519 0.0196506C 7.88273 -0.00182784 8.11457 -0.044785 8.13565 0.148521C 8.1778 0.749917 8.19888 1.32984 8.15673 1.93123C 8.13565 2.31784 7.73519 2.33932 7.48227 2.46819C 6.34412 3.06959 5.1849 3.67099 4.02567 4.27238C 3.7306 4.42273 3.49875 4.48717 3.1826 4.31534C 2.17091 3.73542 1.13815 3.24142 -1.28643e-06 2.6615Z"/>
<path id="path16_fill" d="M 0 4.05943C 0 2.70628 0 1.3961 0 -8.19338e-08C 1.34892 0.386612 2.65568 0.751746 3.96244 1.13836C 4.38398 1.26723 4.78444 1.28871 5.22705 1.15984C 6.3652 0.816181 7.52442 0.515483 8.66257 0.150349C 9.10518 0.0214785 9.23164 0.107392 9.25272 0.579918C 9.29487 2.21228 9.31595 2.21228 7.73519 2.27671C 5.33243 2.36263 3.01398 2.85663 0.779841 3.78021C 0.505843 3.86612 0.273998 3.95203 0 4.05943Z"/>
<path id="path17_fill" d="M 0.0883013 2.07379C 0.0672245 1.5583 0.0461477 1.04282 0.00399404 0.527338C -0.0170828 0.334032 0.0461477 0.0333332 0.172609 0.119247C 0.720605 0.570294 1.1843 -0.159972 1.62691 0.0333337C 2.4489 0.376989 3.18659 0.22664 4.00859 0.0333337C 4.57766 -0.095537 5.02027 0.291074 5.12566 0.935427C 5.25212 1.79457 5.16781 2.63222 5.18889 3.49136C 5.18889 3.70615 5.0835 3.81354 4.87274 3.81354C 4.59874 3.81354 4.64089 3.59875 4.64089 3.42693C 4.64089 2.80405 4.64089 2.18118 4.64089 1.5583C 4.64089 1.0643 4.64089 0.527337 3.94536 0.505859C 3.35521 0.48438 2.95475 0.892471 2.93367 1.60126C 2.91259 2.20266 2.93367 2.78257 2.93367 3.38397C 2.93367 3.59875 2.95475 3.81354 2.6386 3.81354C 2.30137 3.81354 2.38567 3.5558 2.38567 3.36249C 2.38567 2.73962 2.38567 2.11674 2.38567 1.49387C 2.38567 0.956906 2.30137 0.484381 1.62691 0.484381C 0.973527 0.505859 0.678452 0.892471 0.678452 1.53682C 0.678452 2.13822 0.678452 2.71814 0.678452 3.31954C 0.678452 3.5558 0.699529 3.79206 0.341223 3.79206C 0.00399403 3.79206 0.0883013 3.53432 0.0883013 3.34101C 0.0883013 2.91144 0.0883013 2.4604 0.0883013 2.00935C 0.0672245 2.07379 0.0883013 2.07379 0.0883013 2.07379Z"/>
<path id="path18_fill" d="M 0 1.84372C 0 1.41415 0 0.963102 0 0.533533C 0 0.361705 0.0421534 0.0180508 0.168614 0.125443C 0.716611 0.57649 1.20138 -0.175256 1.62291 0.0395289C 2.44491 0.447619 3.20367 0.189878 4.02567 0.0395289C 4.57367 -0.0678633 4.97413 0.29727 5.10059 0.920145C 5.2692 1.80076 5.14274 2.68138 5.18489 3.56199C 5.18489 3.7553 5.10059 3.84121 4.9109 3.84121C 4.65797 3.84121 4.61582 3.69086 4.61582 3.49756C 4.61582 2.78877 4.59474 2.10146 4.59474 1.39267C 4.59474 0.898666 4.44721 0.512054 3.85706 0.533533C 3.28798 0.555011 2.95075 0.85571 2.9086 1.43563C 2.86645 2.0585 2.9086 2.68138 2.88752 3.30425C 2.88752 3.51904 3.05614 3.88417 2.59245 3.86269C 2.17091 3.84121 2.31845 3.49756 2.31845 3.28277C 2.29737 2.68138 2.31845 2.10146 2.31845 1.50006C 2.31845 0.98458 2.21306 0.555012 1.58076 0.555012C 0.969533 0.57649 0.653381 0.920145 0.632304 1.52154C 0.611227 2.14442 0.632304 2.76729 0.632304 3.39017C 0.632304 3.60495 0.737688 3.88417 0.337229 3.86269C -0.0210771 3.84121 0.0632306 3.56199 0.0421538 3.34721C 0.0421538 2.8532 0.0421538 2.3592 0.0421538 1.8652C 0.021077 1.84372 0.0210768 1.84372 0 1.84372Z"/>
<path id="path19_fill" d="M 0.635012 3.6691C 0.635012 3.3684 0.635012 3.04623 0.635012 2.74553C 0.635012 2.44483 0.740397 2.14413 0.234553 2.10117C -0.0815987 2.0797 -0.0605213 1.67161 0.1924 1.65013C 0.698244 1.58569 0.550705 1.26352 0.592859 0.984296C 0.656089 0.296986 1.11978 -0.0896264 1.70993 0.0177658C 1.85747 0.0392442 2.04716 0.0607232 2.04716 0.254029C 2.04716 0.447335 1.96285 0.576205 1.70993 0.554727C 1.28839 0.51177 1.0987 0.769512 1.11978 1.15612C 1.11978 1.54274 1.35162 1.62865 1.68885 1.60717C 1.83639 1.58569 2.005 1.60717 2.005 1.84343C 2.02608 2.10117 1.87855 2.16561 1.66778 2.14413C 1.20409 2.05822 1.20408 2.38039 1.20408 2.70257C 1.20408 3.43284 1.20408 4.16311 1.20408 4.87189C 1.20408 5.08668 1.22516 5.30146 0.909011 5.30146C 0.592859 5.30146 0.635012 5.0652 0.635012 4.85042C 0.635012 4.4638 0.635012 4.07719 0.635012 3.6691Z"/>
<path id="path20_fill" d="M 0.472704 0.885439C 0.472704 1.61571 0.472704 2.17414 0.472704 2.73258C 0.472704 2.90441 0.535934 3.1192 0.261936 3.1192C -0.0331395 3.1192 0.0300896 2.90441 0.0300896 2.73258C 0.0300896 1.98084 0.00901283 1.22909 0.0300896 0.477347C 0.0300896 0.305519 -0.117448 0.0263001 0.240858 0.00482169C 0.472703 -0.0166568 0.662395 0.0263008 0.788856 0.284042C 1.08393 0.842481 1.42116 1.40092 1.86377 2.15267C 1.86377 1.44388 1.86377 0.949874 1.86377 0.45587C 1.86377 0.284043 1.75839 0.00482169 2.09562 0.00482169C 2.39069 0.00482169 2.30639 0.241083 2.30639 0.412911C 2.30639 1.18613 2.30639 1.95936 2.30639 2.73258C 2.30639 2.90441 2.36962 3.1192 2.07454 3.1192C 1.90593 3.1192 1.77947 3.1192 1.65301 2.90441C 1.31578 2.28154 0.936394 1.68014 0.472704 0.885439Z"/>
<path id="path21_fill" d="M 0.0901964 2.48903C 0.343118 2.59643 0.596038 2.68234 0.84896 2.78973C 1.22834 2.9186 1.56557 2.74677 1.64988 2.4246C 1.73419 2.14538 1.43911 1.97355 1.14404 1.88764C 0.785731 1.78024 0.427424 1.71581 0.174502 1.37215C -0.14165 0.942583 -0.0151883 0.319709 0.448501 0.104925C 0.848961 -0.0669029 1.29157 0.0190102 1.71311 0.0404887C 1.83957 0.0404887 2.00819 0.190838 1.94496 0.362665C 1.9028 0.491536 1.8185 0.555972 1.6288 0.534494C 1.24942 0.491537 0.65927 0.190838 0.553885 0.792234C 0.469578 1.28624 1.08081 1.26476 1.41804 1.39363C 1.92388 1.58694 2.19788 1.93059 2.13465 2.48903C 2.07142 3.06895 1.6288 3.2193 1.16511 3.26225C 0.364193 3.36965 0.0269659 3.13339 0.0901964 2.48903Z"/>
<path id="path22_fill" d="M 0.295076 0.0232187C 0.632305 0.732007 1.01169 -0.0412171 1.41215 0.00173974C 1.53861 0.00173974 1.68614 -0.0197385 1.70722 0.152089C 1.7283 0.302438 1.77045 0.538701 1.60184 0.56018C 0.379382 0.796443 0.674458 1.76297 0.653381 2.57915C 0.632304 2.87985 0.653381 3.20203 0.653381 3.50273C 0.653381 3.69603 0.569073 3.78195 0.379382 3.78195C 0.210767 3.78195 0.0632298 3.73899 0.0632298 3.54568C 0.042153 2.47176 0.0210771 1.37636 3.21607e-07 0.302438C 0.0210771 0.130611 0.0843079 0.0446971 0.295076 0.0232187Z"/>
<path id="path23_fill" d="M 0.464187 1.31094e-06C 0.400957 0.579919 0.464189 1.03097 1.22295 0.902095C 1.60234 0.83766 1.83418 1.11688 1.83418 1.50349C 1.85526 1.97602 1.83418 2.42707 1.83418 2.89959C 1.83418 3.04994 1.83418 3.20029 1.60233 3.22177C 1.37049 3.22177 1.37049 3.07142 1.37049 2.92107C 1.37049 2.55593 1.37049 2.1908 1.37049 1.84715C 1.37049 1.63236 1.47587 1.3961 1.07541 1.35314C 0.717108 1.33166 0.527419 1.48201 0.485265 1.78271C 0.422035 2.12636 0.464189 2.4915 0.443113 2.85663C 0.443113 3.02846 0.485265 3.24324 0.211266 3.24324C -0.0205786 3.24324 0.000498216 3.07142 0.000498216 2.92107C 0.000498216 2.10489 0.021575 1.26723 0.000498216 0.451047C 0.000498216 0.0859131 0.211266 0.0859151 0.464187 1.31094e-06Z"/>
<path id="path24_fill" d="M 0.464833 -1.31094e-06C 0.338372 0.751744 0.570222 1.05244 1.28683 0.945052C 1.66622 0.880617 1.7716 1.26723 1.79268 1.50349C 1.87698 2.01897 1.83483 2.53446 1.83483 3.04994C 1.83483 3.20029 1.7716 3.2862 1.60299 3.2862C 1.43437 3.2862 1.39222 3.20029 1.39222 3.04994C 1.39222 2.66333 1.39222 2.27671 1.39222 1.8901C 1.39222 1.56793 1.24468 1.41758 0.928526 1.41758C 0.612373 1.41758 0.464833 1.56793 0.464833 1.8901C 0.464833 2.25524 0.464833 2.62037 0.464833 2.96402C 0.464833 3.11437 0.464838 3.26472 0.232993 3.26472C 0.00114856 3.26472 0.00114728 3.11438 0.00114728 2.94255C 0.00114728 2.12637 0.0222241 1.28871 0.00114728 0.472527C -0.0199295 0.128872 0.254065 0.171826 0.464833 -1.31094e-06Z"/>
<path id="path25_fill" d="M 0.442614 8.19338e-08C 0.590152 0.0644354 0.821994 0.150349 0.821994 0.171827C 0.65338 0.794702 1.30676 1.31018 1.05384 1.95454C 0.969533 2.16932 0.990609 2.4915 1.09599 2.70628C 1.34892 3.30768 1.09599 3.39359 0.569073 3.39359C 0.0632298 3.39359 -0.105383 3.35064 0.0632311 2.72776C 0.316153 1.86862 0.33723 0.945052 0.442614 8.19338e-08Z"/>
<path id="path26_fill" d="M 1.96312 1.49958C 1.83666 1.75732 2.21604 2.40167 1.73127 2.40167C 1.26758 2.40167 1.60481 1.7788 1.52051 1.43514C 1.47835 1.30627 1.49943 1.1774 1.52051 1.04853C 1.54158 0.747836 1.5205 0.554527 1.12004 0.576005C 0.782815 0.597484 0.593124 0.683398 0.593124 1.07001C 0.593124 1.34923 0.614201 1.64993 0.593124 1.92915C 0.572047 2.12245 0.740664 2.46611 0.361281 2.44463C -0.0181015 2.42315 0.192667 2.0795 0.150513 1.88619C 0.0662057 1.39219 0.276973 0.855225 0.0240508 0.361221C -0.0391796 0.23235 0.0240515 0.146437 0.192666 0.10348C 1.54158 -0.197218 1.96312 0.124959 1.96312 1.49958Z"/>
<path id="path27_fill" d="M 1.67338 0.388314C 1.33615 0.646055 0.724926 0.259446 0.640619 0.646058C 0.556312 1.07563 1.18861 0.925275 1.44153 1.14006C 1.6523 1.33337 1.86307 1.50519 1.79984 1.84885C 1.73661 2.21398 1.52585 2.45024 1.18862 2.4932C 0.893542 2.53616 0.598465 2.57912 0.324467 2.36433C 0.219083 2.27842 -0.0970682 2.42877 0.0293927 2.10659C 0.0926231 1.95624 0.219084 1.84885 0.450929 1.95624C 0.724927 2.10659 1.08323 2.17102 1.33615 1.78441C 0.956768 1.31189 -0.0970681 1.46224 0.134777 0.431273C 0.198007 0.109096 0.450929 0.0231807 0.661697 0.0231807C 1.02 0.0446592 1.48369 -0.170126 1.67338 0.388314Z"/>
<path id="path28_fill" d="M 1.08362 0.00050771C 1.18901 0.00050771 1.29439 0.00050771 1.3787 0.00050771C 1.52623 0.00050771 1.69485 -0.0209707 1.71593 0.215292C 1.737 0.51599 1.52624 0.451554 1.35762 0.473033C 0.556703 0.580425 0.409166 0.838167 0.619934 1.61139C 0.746394 2.04096 0.978239 2.06244 1.29439 2.01948C 1.44193 1.998 1.61054 1.6973 1.69485 2.04096C 1.75808 2.32018 1.58946 2.44905 1.31547 2.49201C 0.704238 2.5994 0.219472 2.27722 0.0508572 1.63287C -0.159911 0.773733 0.303781 0.00050771 1.08362 0.00050771Z"/>
<path id="path29_fill" d="M 0.858879 6.5547e-07C 1.00642 0.257742 0.711343 0.773224 1.30149 0.794702C 1.40688 0.794702 1.40688 1.07392 1.32257 1.11688C 0.542727 1.54645 0.964265 2.14784 1.04857 2.70628C 1.06965 2.85663 1.25934 3.00698 1.02749 3.15733C 0.79565 3.2862 0.711342 3.0929 0.605958 2.96403C 0.310883 2.66333 0.521652 2.27672 0.458421 1.93306C 0.395191 1.63236 0.669189 1.18131 0.079038 1.11688C -0.0474228 1.0954 0.015807 0.945052 0.015807 0.859138C 0.52165 0.859138 0.310882 0.0429575 0.858879 6.5547e-07Z"/>
<path id="path30_fill" d="M 0.52055 0.131045C 0.815625 0.0666092 1.1107 -0.126698 1.21608 0.216957C 1.34254 0.603569 0.921007 0.453219 0.794546 0.58209C 0.43624 0.947223 0.478394 1.41975 0.478394 1.8708C 0.478394 2.0641 0.625935 2.40776 0.225476 2.3648C -0.0906761 2.34332 0.0568564 2.04262 0.0357796 1.8708C 0.0147028 1.48418 0.0147028 1.09757 0.0357796 0.710962C 0.0357796 0.367307 -0.196061 -0.277046 0.52055 0.131045Z"/>
<path id="path31_fill" d="M 0.463691 -6.5547e-07C 0.463691 0.966529 0.463691 1.86863 0.463691 2.77072C 0.463691 2.92107 0.547996 3.15733 0.273998 3.20029C -0.0632311 3.24325 0.0210768 2.96403 0.0210768 2.77072C 0.0210768 2.01898 0.0421523 1.26723 -1.28643e-06 0.515484C -1.28643e-06 0.171829 0.126462 0.0429562 0.463691 -6.5547e-07Z"/>
<path id="path32_fill" d="M 0.443846 0C 0.443846 1.03097 0.443846 1.95454 0.443846 2.87811C 0.443846 3.02846 0.486002 3.20029 0.275234 3.24325C 0.0855431 3.26472 0.00123201 3.17881 0.00123201 2.9855C 0.00123201 2.10489 0.00123201 1.22427 0.00123201 0.343656C -0.0198448 0.0644366 0.233078 0.128871 0.443846 0Z"/>
<path id="path33_fill" d="M 0.487908 1.28871C 0.340371 1.56793 0.74083 2.25524 0.27714 2.25524C -0.228703 2.25524 0.129601 1.58941 0.0452939 1.24575C -0.0179366 0.945053 0.0242158 0.622875 0.0242158 0.322177C 0.0242158 0.171828 0.0242158 6.5547e-07 0.234984 6.5547e-07C 0.466829 6.5547e-07 0.46683 0.12887 0.46683 0.300698C 0.487907 0.601396 0.487908 0.902095 0.487908 1.28871Z"/>
<path id="path34_fill" d="M 0.496694 1.26872C 0.370233 1.56942 0.728539 2.25673 0.285926 2.25673C -0.240994 2.23525 0.13839 1.54794 0.0540829 1.18281C -0.00914755 0.903587 0.0330061 0.624367 0.0540829 0.323669C 0.0540829 0.17332 0.0330061 0.00149243 0.264851 0.00149243C 0.559926 -0.019986 0.517772 0.194798 0.517772 0.366625C 0.496695 0.645845 0.496694 0.925064 0.496694 1.26872Z"/>
<path id="path35_fill" d="M 0.574127 0.264468C 0.574127 0.457774 0.447664 0.457776 0.321203 0.457776C 0.194742 0.457776 -0.0371029 0.522209 0.00505075 0.264468C 0.00505075 0.157075 0.152591 0.0282055 0.257975 0.00672706C 0.42659 -0.0362298 0.510897 0.135597 0.574127 0.264468Z"/>
<path id="path36_fill" d="M 0.592486 0.238623C 0.487102 0.303059 0.402789 0.431928 0.297405 0.431928C 0.128791 0.453406 0.0234081 0.303057 0.00233132 0.152708C -0.0187455 0.00235857 0.107714 0.00235922 0.192021 0.00235922C 0.402789 -0.0191192 0.487102 0.109753 0.592486 0.238623Z"/>
<path id="path37_fill" d="M 0.569074 0.173465C 0.526921 0.323814 0.442612 0.474164 0.273997 0.452686C 0.168613 0.431207 0.0843085 0.302337 1.28643e-06 0.237901C 0.105385 0.173466 0.189691 0.0660738 0.295075 0.023117C 0.400459 -0.0198399 0.547998 -0.0198406 0.569074 0.173465Z"/>
<path id="path38_fill" d="M 0.217422 1.31094e-06C 0.407114 1.31094e-06 0.491422 0.128871 0.554653 0.257742C 0.596806 0.365134 0.533572 0.429568 0.386034 0.451047C 0.21742 0.472525 0.0698847 0.408091 0.00665431 0.257742C -0.0354993 0.128871 0.133115 0.0859151 0.217422 1.31094e-06Z"/>
<path id="path39_fill" d="M 0.150276 0.622876C 0.087046 0.451049 -0.0183342 0.322176 0.00274264 0.214784C 0.0238194 0.12887 0.171353 -6.5547e-07 0.25566 -6.5547e-07C 0.361044 -6.5547e-07 0.445357 0.128872 0.550741 0.193307C 0.466434 0.279221 0.382121 0.365135 0.150276 0.622876Z"/>
<path id="path40_fill" d="M 13.5102 1.24575C 12.1613 0.816181 10.7492 0.622875 9.46349 0C 9.31595 0 9.16841 0 8.9998 0C 6.95535 0.773224 4.82659 1.20279 2.73999 1.86862C 1.83368 2.14784 0.885227 2.29819 1.28643e-06 2.72776C 0.0843085 2.83515 0.12646 2.89959 0.168613 2.89959C 2.57137 3.56542 4.95305 4.27421 7.35581 4.89708C 8.15672 5.11187 8.91549 5.56292 9.84287 5.2837C 11.8241 4.66082 13.8264 4.1883 15.8076 3.56542C 16.6718 3.2862 17.5991 3.20029 18.5054 2.68481C 16.7771 2.16932 15.1331 1.73975 13.5102 1.24575ZM 8.59934 2.70628C 9.04195 2.57741 9.46349 2.53446 9.88502 2.72776C 9.44241 2.96403 9.04195 3.00698 8.59934 2.70628Z"/>
<path id="path41_fill" d="M 3.62521 1.80556C 3.33014 1.74112 2.99291 1.74112 3.09829 1.35451C 3.1826 1.03233 3.47767 1.13973 3.70952 1.2686C 3.89921 1.37599 3.98352 1.29007 4.00459 1.09677C 4.02567 1.03233 4.17321 0.903462 4.00459 0.881983C 3.68844 0.839027 3.41444 0.559805 3.01398 0.796068C 2.71891 0.967895 2.50814 1.20416 2.48706 1.4619C 2.48706 1.78408 2.69783 2.0633 3.05614 2.17069C 3.1826 2.21365 3.30906 2.21365 3.41444 2.27808C 3.5409 2.34252 3.70952 2.44991 3.64629 2.62174C 3.60414 2.72913 3.35121 2.87948 3.28798 2.858C 2.84537 2.60026 2.06553 2.90096 2.02337 1.95591C 2.0023 1.41894 1.68614 0.92494 1.53861 0.387979C 1.49645 0.216151 1.4543 -0.0201124 1.28569 0.00136601C 1.11707 0.0228445 0.843072 0.0872798 0.800918 0.323543C 0.59015 1.31155 0.0421523 2.19217 -1.28643e-06 3.20166C 0.147536 3.20166 0.295077 3.20166 0.463691 3.20166C 0.547998 2.81504 0.526919 2.40695 1.15922 2.40695C 1.79153 2.40695 1.74937 2.81504 1.85476 3.20166C 2.57137 3.20166 3.28798 3.20166 3.98351 3.20166C 4.25751 2.38548 4.17321 1.93443 3.62521 1.80556ZM 0.821996 2.08477C 0.92738 1.67668 1.03276 1.29007 1.13815 0.839027C 1.28569 1.2686 1.41215 1.65521 1.55968 2.08477C 1.24353 2.08477 1.05384 2.08477 0.821996 2.08477Z"/>
<path id="path42_fill" d="M 1.90703 0.307859C 1.50657 -0.0357964 0.473805 -0.100231 0.136576 0.15751C -0.0531148 0.307859 0.0101175 0.479686 0.0101175 0.630035C 0.0101175 1.51065 0.0101175 2.39127 0.0101175 3.27188C 0.220886 3.27188 0.410576 3.27188 0.621344 3.27188C 0.621344 3.25041 0.621344 3.22893 0.621344 3.18597C 0.452729 2.4557 0.789959 2.13353 1.48549 2.17648C 1.75949 2.19796 1.92811 2.06909 2.05457 1.87579C 2.37072 1.44622 2.30749 0.651514 1.90703 0.307859ZM 0.895343 1.83283C 0.347346 1.85431 0.684575 1.33883 0.642422 1.08108C 0.621345 0.887778 0.431654 0.436731 0.916421 0.501167C 1.2958 0.544124 1.73841 0.630035 1.67518 1.20995C 1.75949 1.81135 1.19042 1.83283 0.895343 1.83283Z"/>
<path id="path43_fill" d="M 1.79153 0.000649725C 1.28568 -0.0208287 1.66507 0.494656 1.53861 0.730919C 1.51753 0.773876 1.49645 0.816831 1.47538 0.859787C 0.442612 0.623525 0.0210762 0.967182 -6.43213e-07 2.01963C -6.43213e-07 2.47067 0.147537 2.85728 0.316151 3.2439C 0.885225 3.2439 1.43322 3.2439 2.0023 3.2439C 2.0023 2.42772 2.02338 1.59006 1.98122 0.773875C 1.98122 0.516134 2.23414 0.0221282 1.79153 0.000649725ZM 0.969534 2.90024C 0.590151 2.92172 0.484768 2.44919 0.505845 2.08406C 0.526922 1.67597 0.590152 1.2464 1.13815 1.22492C 1.64399 1.22492 1.55968 1.61154 1.58076 1.97667C 1.58076 2.40624 1.43322 2.87876 0.969534 2.90024Z"/>
<path id="path44_fill" d="M 1.55813 1.56243C 1.78998 1.56243 2.00075 1.47652 2.00075 1.24026C 1.97967 0.767732 1.93752 0.252251 1.38952 0.0804231C 0.883678 -0.0914044 0.441064 -0.00549069 0.167066 0.509992C -0.149087 1.11139 -0.00154884 2.03496 0.483218 2.50749C 0.883677 2.50749 1.30521 2.50749 1.70567 2.50749C 2.0429 2.03496 1.70567 1.92757 1.38952 2.05644C 0.841524 2.2927 0.693985 2.01348 0.525371 1.56243C 0.904753 1.56243 1.24198 1.54096 1.55813 1.56243ZM 0.483218 1.004C 0.588602 0.724777 0.736139 0.467036 1.05229 0.467036C 1.4106 0.467036 1.43167 0.78921 1.49491 1.06843C 1.15768 1.06843 0.841523 1.15435 0.483218 1.004Z"/>
<path id="path45_fill" d="M 1.84865 1.06018C 1.82757 0.158084 1.19527 -0.228525 0.394349 0.136608C 0.204657 0.222522 0.162504 0.286957 0.183581 0.458785C 0.225734 0.673569 0.415422 0.652089 0.541883 0.587654C 1.0688 0.286955 1.23742 0.609133 1.40603 1.0387C -0.0271901 1.18905 -0.216879 1.42531 0.183581 2.49924C 0.794808 2.49924 1.40603 2.49924 2.01726 2.49924C 1.78541 2.02671 1.84865 1.5327 1.84865 1.06018ZM 0.794807 2.1341C 0.626192 2.19854 0.436501 2.00523 0.478655 1.81192C 0.584039 1.44679 0.963419 1.61862 1.17419 1.48975C 1.40603 1.36088 1.34281 1.55419 1.36388 1.6401C 1.36388 2.00523 1.02665 2.04819 0.794807 2.1341Z"/>
<path id="path46_fill" d="M 2.04992 0.710742C 1.90238 0.130824 1.50192 -0.0195224 1.10146 0.00195604C 0.658846 0.00195604 0.216234 0.0663887 0.0686968 0.710742C -0.0999177 1.39805 0.0476174 1.93501 0.448077 2.4505C 0.848536 2.4505 1.27007 2.4505 1.67053 2.4505C 2.07099 1.93501 2.21853 1.39805 2.04992 0.710742ZM 1.05931 2.10684C 0.553463 2.12832 0.49023 1.61284 0.448077 1.2477C 0.427 0.861091 0.57454 0.517437 0.911769 0.410045C 1.523 0.453002 1.62838 0.861092 1.62838 1.20475C 1.62838 1.59136 1.54407 2.08536 1.05931 2.10684Z"/>
<path id="path47_fill" d="M 2.0131 0.974635C 2.05525 0.308803 1.63371 0.0725402 1.10679 0.00810484C 0.516641 -0.0563305 0.0951039 0.265847 0.0318735 0.888722C -0.0313569 1.44716 -0.0313518 2.0056 0.326954 2.49961C 0.790644 2.49961 1.23326 2.49961 1.69695 2.49961C 2.13956 2.04856 1.97095 1.49012 2.0131 0.974635ZM 1.06464 2.13447C 0.68526 2.15595 0.432334 1.83377 0.474488 1.33977C 0.495565 0.910199 0.53772 0.502108 1.02249 0.48063C 1.48618 0.459151 1.67587 0.781329 1.54941 1.18942C 1.61264 1.66194 1.52833 2.11299 1.06464 2.13447Z"/>
<path id="path48_fill" d="M 2.01094 0.964129C 2.01094 0.255341 1.46294 -0.131268 0.809562 0.0405591C 0.409103 0.147951 0.0929559 0.341255 0.0508023 0.749345C 0.00864867 1.35074 -0.159971 2.01657 0.49341 2.46762C 0.89387 2.46762 1.31541 2.46762 1.71587 2.46762C 2.15848 2.05953 2.01094 1.50109 2.01094 0.964129ZM 1.08356 2.14544C 0.662028 2.14544 0.493415 1.73736 0.472338 1.26483C 0.472338 0.856739 0.598799 0.513083 0.999259 0.491604C 1.46295 0.470126 1.63156 0.813781 1.52618 1.24335C 1.61049 1.67292 1.52618 2.12397 1.08356 2.14544Z"/>
<path id="path49_fill" d="M 13.522 15.3223C 13.4587 15.129 13.5009 14.9142 13.5009 14.6994C 13.5009 10.3823 13.4798 6.04363 13.522 1.72646C 13.522 1.12507 13.3323 0.824368 12.7843 0.716976C 12.6157 0.674019 12.447 0.674019 12.2784 0.631062C 10.1497 0.0296653 7.99984 -0.228075 5.80785 0.244451C 3.61586 0.716976 1.97187 2.00568 1.06557 4.02466C -0.135808 6.68798 -0.262272 9.54462 0.391109 12.3798C 1.14987 15.623 2.87817 16.8043 5.85 16.8688C 8.10522 16.9332 9.91783 15.9022 11.3089 13.8833C 11.3721 14.4417 11.4354 14.9142 11.5618 15.3223C 11.6672 15.6875 11.4564 16.2674 11.7937 16.3748C 12.3417 16.5251 12.995 16.5466 13.522 16.3533C 13.8381 16.2459 13.6273 15.6875 13.522 15.3223ZM 10.9084 7.11755C 10.9084 8.44921 10.9506 9.7594 10.9084 11.0911C 10.8031 13.9047 8.37922 15.666 5.7657 15.1505C 3.93201 14.7854 3.19433 13.3678 2.89925 11.7139C 2.49879 9.54462 2.47771 7.33234 3.15217 5.20597C 3.93201 2.73595 5.63923 1.44724 8.08414 1.53316C 8.77968 1.55464 9.45414 1.72646 10.1286 1.87681C 10.7187 2.02716 10.9927 2.39229 10.9506 3.10108C 10.8452 4.41127 10.9084 5.76441 10.9084 7.11755Z"/>
<path id="path50_fill" d="M 2.66431 1.84805C 2.11631 1.07483 1.37863 1.35405 0.577707 1.56883C 0.577707 1.18222 0.598784 0.860045 0.577707 0.559346C 0.55663 0.344562 0.725245 -0.020572 0.282632 0.000906463C -0.0756742 0.0223849 0.00863242 0.323083 0.00863242 0.537867C 0.00863242 1.89101 0.00863242 3.22267 0.00863242 4.57582C 0.00863242 4.74764 -0.0335199 4.94095 0.135095 5.06982C 0.598784 5.45643 2.17954 5.2846 2.58 4.81208C 3.06477 4.23216 3.128 2.51388 2.66431 1.84805ZM 2.39031 3.56633C 2.34816 4.08181 2.30601 4.61877 1.63155 4.72616C 0.725245 4.87651 0.598784 4.72616 0.598784 3.45894C 0.598784 2.25614 0.872783 1.8051 1.61047 1.84805C 2.2217 1.86953 2.4957 2.44945 2.39031 3.56633Z"/>
<path id="path51_fill" d="M 1.22276 2.27578C 1.66538 2.23283 2.12907 2.21135 2.59276 2.16839C 2.78245 2.14691 2.99322 2.14691 2.99322 1.84621C 2.97214 1.2663 2.95106 0.686377 2.4663 0.299765C 1.96045 -0.0868467 1.34923 -0.0653688 0.801229 0.170894C 0.0424636 0.514549 0.0635414 1.26629 0.000310933 1.88917C -0.0207659 3.60744 1.03307 4.38067 2.4663 3.77927C 2.61383 3.71484 2.84568 3.69336 2.78245 3.43562C 2.69814 3.17788 2.5506 3.19935 2.31876 3.28527C 1.93938 3.43562 1.51784 3.47857 1.11738 3.32823C 0.759075 3.19935 0.590462 2.87718 0.611539 2.53352C 0.632615 2.18987 0.99092 2.29726 1.22276 2.27578ZM 0.569384 1.56699C 0.485077 1.05151 0.92769 0.557506 1.47569 0.51455C 2.02368 0.471593 2.38199 0.750813 2.40307 1.30925C 2.42414 2.14691 1.68646 1.54551 1.39138 1.84621C 1.11738 1.65291 0.653691 2.16839 0.569384 1.56699Z"/>
<path id="path52_fill" d="M 1.20138 2.25563C 1.4543 2.21267 1.70722 2.21267 1.96014 2.21267C 3.05614 2.14823 3.22475 1.89049 2.84537 0.838048C 2.67675 0.344044 2.3606 0.0863024 1.83368 0.0218671C 0.611227 -0.128482 8.04016e-08 0.494393 8.04016e-08 1.95493C 8.04016e-08 3.58729 1.09599 4.40347 2.50814 3.75912C 2.65568 3.69468 2.88752 3.6732 2.78214 3.39398C 2.69783 3.1792 2.55029 3.1792 2.3606 3.26511C 1.96014 3.43694 1.51753 3.4799 1.09599 3.30807C 0.779842 3.1792 0.632304 2.8785 0.632304 2.55632C 0.611227 2.16971 0.969533 2.29858 1.20138 2.25563ZM 0.569074 1.50388C 0.653381 0.94544 0.843073 0.494393 1.49645 0.494393C 2.06553 0.494393 2.44491 0.795091 2.3606 1.33205C 2.23414 2.21267 1.41215 1.4824 1.11707 1.7831C 0.779842 1.82606 0.505843 1.89049 0.569074 1.50388Z"/>
<path id="path53_fill" d="M 3.11937 1.22127C 3.01398 0.491005 2.61353 0.0829151 1.85476 0.0184798C 0.547998 -0.110391 6.43213e-07 0.42657 6.43213e-07 1.8871C 6.43213e-07 1.97302 6.43213e-07 2.03745 6.43213e-07 2.12337C 0.0210775 3.32616 0.484767 3.8846 1.51753 3.90608C 2.57137 3.92756 3.11937 3.34764 3.16152 2.14485C 3.1826 1.84415 3.16152 1.52197 3.11937 1.22127ZM 1.66507 3.49799C 0.864148 3.49799 0.526921 3.04694 0.526921 1.95154C 0.526921 0.856139 0.864148 0.405092 1.66507 0.405092C 2.46599 0.405092 2.78214 0.834661 2.78214 1.95154C 2.80322 3.04694 2.46599 3.49799 1.66507 3.49799Z"/>
<path id="path54_fill" d="M 1.60709 0.0781371C 1.12233 -0.0507336 0.595411 0.0137024 0.0895673 0.0351808C -0.0158167 0.0351808 -0.0158206 0.185529 0.026333 0.292921C 0.258178 0.72249 0.0684866 1.19502 0.131717 1.58163C 0.131717 1.98972 0.131717 2.31189 0.131717 2.65555C 0.131717 2.8059 0.0263356 3.04216 0.279257 3.1066C 0.595409 3.17103 0.595408 2.93477 0.574331 2.71999C 0.574331 2.56964 0.65864 2.52668 0.806178 2.48372C 1.94433 2.18302 1.94432 2.16155 1.94432 1.06615C 1.98648 0.701013 2.04971 0.207008 1.60709 0.0781371ZM 0.97479 2.05415C 0.258178 2.05415 0.7851 1.49571 0.574331 1.34536C 0.595408 0.937273 0.46895 0.486226 1.03802 0.486226C 1.6071 0.486226 1.50171 0.915796 1.50171 1.25945C 1.52279 1.64606 1.58602 2.05415 0.97479 2.05415Z"/>
<path id="path55_fill" d="M 1.96212 1.51336C 1.9832 1.42744 1.96212 1.363 1.96212 1.27709C 1.96212 0.267604 1.49844 -0.119008 0.549979 0.0313408C 0.381365 0.0528192 0.170596 0.0742983 0.212749 0.310561C 0.254903 0.546824 0.360286 0.568302 0.613207 0.525346C 0.908283 0.46091 1.3509 0.33204 1.45628 1.01935C 1.05582 0.804566 0.760746 1.06231 0.423517 1.12674C 0.107365 1.19118 0.0230579 1.51335 0.00198113 1.79257C -0.0190957 2.07179 0.128442 2.28658 0.423517 2.43693C 0.887207 2.67319 1.37197 2.4584 1.81459 2.39397C 2.13074 2.37249 1.89889 1.81405 1.96212 1.51336ZM 0.697516 2.05032C 0.592132 2.02884 0.423518 1.92144 0.486748 1.81405C 0.67644 1.42744 1.01367 1.38448 1.4352 1.49188C 1.3509 1.89997 1.16121 2.15771 0.697516 2.05032Z"/>
<path id="path56_fill" d="M 1.84667 1.02184C 1.9099 0.291569 1.6359 -0.0735638 0.898214 0.01235C 0.7296 0.0338284 0.539908 0.0123473 0.371294 0.0767827C 0.286987 0.11974 0.202677 0.270091 0.181601 0.377483C 0.181601 0.484875 0.308064 0.635224 0.434525 0.592267C 0.792831 0.463397 1.25652 0.334527 1.31975 0.764095C 1.3619 1.08627 0.771751 0.978878 0.497753 1.10775C 0.11837 1.27958 -0.0502417 1.53732 0.0129887 1.94541C 0.0762192 2.37498 0.350216 2.52533 0.771752 2.50385C 1.84667 2.48237 1.84667 2.50385 1.84667 1.4514C 1.84667 1.34401 1.82559 1.17219 1.84667 1.02184ZM 0.687446 2.03132C 0.582062 1.98837 0.413446 1.83802 0.497753 1.7521C 0.729598 1.47288 1.02467 1.34401 1.42513 1.53732C 1.23544 1.83802 1.10898 2.16019 0.687446 2.03132Z"/>
<path id="path57_fill" d="M 1.85527 1.40695C 1.87635 1.32104 1.85527 1.19217 1.85527 1.10625C 1.85527 0.139724 1.5602 -0.0965385 0.590666 0.0323321C 0.358821 0.075289 0.169131 0.139726 0.190208 0.375988C 0.232361 0.676687 0.464208 0.590771 0.632822 0.504857C 0.927897 0.504857 1.30728 0.418946 1.34943 0.762601C 1.39159 1.17069 0.927892 0.848512 0.759278 1.04182C 0.696047 1.12773 0.527438 1.08477 0.422054 1.14921C 0.105902 1.32104 -0.0627178 1.60026 0.0215895 1.96539C 0.105897 2.33053 0.316669 2.50235 0.717128 2.52383C 1.07543 2.54531 1.47589 2.52383 1.77097 2.43792C 2.34004 2.30905 1.72881 1.77209 1.85527 1.40695ZM 1.39158 1.68617C 1.37051 1.96539 1.18082 2.07278 0.927896 2.07278C 0.696051 2.07278 0.464206 1.98687 0.50636 1.77209C 0.56959 1.53582 0.843586 1.47139 1.09651 1.44991C 1.2862 1.42843 1.41266 1.44991 1.39158 1.68617Z"/>
<path id="path58_fill" d="M 2.12876 1.13836C 2.10768 0.343655 1.79153 -6.5547e-07 1.05384 -6.5547e-07C 0.295075 -6.5547e-07 -6.43213e-07 0.365132 -6.43213e-07 1.22427C -6.43213e-07 2.10489 0.295077 2.47002 1.03277 2.4915C 1.77045 2.51298 2.14984 2.04045 2.12876 1.13836ZM 1.09599 2.01897C 0.526919 2.01897 0.547998 1.54645 0.442614 1.18131C 0.526921 0.837659 0.484765 0.472526 0.990609 0.451048C 1.60184 0.408091 1.60184 0.945053 1.62291 1.26723C 1.62291 1.50349 1.62291 2.04045 1.09599 2.01897Z"/>
<path id="path59_fill" d="M 0.948458 -6.5547e-07C 0.0843086 -6.5547e-07 1.28643e-06 0.0859151 1.28643e-06 1.15984C 1.28643e-06 2.23376 0.168612 2.47002 0.885223 2.4915C 1.68614 2.51298 2.0023 2.12637 1.98122 1.13836C 1.98122 0.322177 1.70722 -6.5547e-07 0.948458 -6.5547e-07ZM 0.948458 2.01897C 0.463691 2.06193 0.421534 1.73976 0.463687 1.37462C 0.505841 1.00949 0.274 0.515481 0.948458 0.472524C 1.51753 0.429568 1.47537 0.859138 1.51753 1.03097C 1.55968 1.65384 1.41215 1.97602 0.948458 2.01897Z"/>
</defs>
</svg>
