<svg width="131" height="17" viewBox="0 0 131 17" version="1.1" xmlns="http://www.w3.org/2000/svg" xmlns:xlink="http://www.w3.org/1999/xlink">
<title>Logo Scholarshipowl</title>
<desc>Created using Figma</desc>
<g id="Canvas" transform="translate(-4635 2477)">
<g id="Logo Scholarshipowl">
<use xlink:href="#path0_fill" transform="translate(4635 -2477)" fill="#8094B0"/>
<use xlink:href="#path1_fill" transform="translate(4635 -2477)" fill="#8094B0"/>
<use xlink:href="#path2_fill" transform="translate(4635 -2477)" fill="#8094B0"/>
<use xlink:href="#path3_fill" transform="translate(4635 -2477)" fill="#8094B0"/>
<use xlink:href="#path4_fill" transform="translate(4635 -2477)" fill="#8094B0"/>
<use xlink:href="#path5_fill" transform="translate(4635 -2477)" fill="#8094B0"/>
<use xlink:href="#path6_fill" transform="translate(4635 -2477)" fill="#8094B0"/>
<use xlink:href="#path7_fill" transform="translate(4635 -2477)" fill="#8094B0"/>
<use xlink:href="#path8_fill" transform="translate(4635 -2477)" fill="#8094B0"/>
<use xlink:href="#path9_fill" transform="translate(4635 -2477)" fill="#8094B0"/>
<use xlink:href="#path10_fill" transform="translate(4635 -2477)" fill="#8094B0"/>
<use xlink:href="#path11_fill" transform="translate(4635 -2477)" fill="#8094B0"/>
<use xlink:href="#path12_fill" transform="translate(4635 -2477)" fill="#8094B0"/>
<use xlink:href="#path13_fill" transform="translate(4635 -2477)" fill="#8094B0"/>
<use xlink:href="#path14_fill" transform="translate(4635 -2477)" fill="#8094B0"/>
</g>
</g>
<defs>
<path id="path0_fill" d="M 7.86992 9.8032C 7.86992 10.51 7.67479 11.0883 7.34959 11.6667C 7.02439 12.1807 6.50406 12.6305 5.78861 12.8876C 5.13821 13.2088 4.35772 13.3374 3.44715 13.3374C 2.66666 13.3374 2.0813 13.2731 1.56097 13.2088C 1.04065 13.0803 0.520325 12.9518 0 12.6948L 0 9.99597C 0.585366 10.3173 1.17073 10.51 1.82114 10.7028C 2.47154 10.8956 3.05691 10.9598 3.57724 10.9598C 4.03252 10.9598 4.35772 10.8956 4.55285 10.7028C 4.74797 10.5743 4.87805 10.3173 4.87805 10.1245C 4.87805 9.99597 4.81301 9.86746 4.74797 9.73894C 4.68292 9.61043 4.55284 9.48191 4.35772 9.41766C 4.1626 9.28914 3.64227 9.03211 2.86178 8.71083C 2.14634 8.38954 1.56097 8.06825 1.23577 7.74696C 0.845525 7.42568 0.585365 7.10439 0.390243 6.65459C 0.195121 6.20479 0.130079 5.75499 0.130079 5.24093C 0.130079 4.21281 0.520321 3.44172 1.23577 2.8634C 2.01626 2.28509 3.05691 2.02806 4.35772 2.02806C 5.52845 2.02806 6.69919 2.28509 7.93496 2.79915L 6.95935 4.9839C 5.9187 4.5341 5.00813 4.27707 4.22764 4.27707C 3.8374 4.27707 3.51219 4.34132 3.38211 4.46984C 3.12195 4.59835 3.05691 4.79113 3.05691 4.9839C 3.05691 5.17667 3.18699 5.36944 3.38211 5.56221C 3.64227 5.75499 4.22764 6.07627 5.26829 6.52608C 6.2439 6.97588 6.89431 7.42568 7.28455 7.93974C 7.6748 8.38954 7.86992 9.03211 7.86992 9.8032Z"/>
<path id="path1_fill" d="M 13.3984 13.3373C 11.9675 13.3373 10.8618 12.9518 10.1463 12.1807C 9.4309 11.4096 9.04065 10.3172 9.04065 8.90357C 9.04065 7.48991 9.4309 6.33328 10.2114 5.56219C 10.9919 4.7911 12.1626 4.40556 13.5935 4.40556C 14.6341 4.40556 15.5447 4.59833 16.4553 5.04813L 15.5447 7.23288C 15.1545 7.10437 14.8293 6.97585 14.5041 6.84734C 14.1789 6.71882 13.8537 6.71882 13.5285 6.71882C 13.0081 6.71882 12.6829 6.9116 12.4228 7.29714C 12.1626 7.68268 12.0325 8.19674 12.0325 8.90357C 12.0325 10.3172 12.5528 10.9598 13.5935 10.9598C 14.5041 10.9598 15.3496 10.7028 16.1301 10.1887L 16.1301 12.5662C 15.4146 13.0803 14.5041 13.3373 13.3984 13.3373Z"/>
<path id="path2_fill" d="M 23.4797 8.45377C 23.4797 7.29714 23.1545 6.71882 22.439 6.71882C 21.9187 6.71882 21.5935 6.91159 21.3333 7.36139C 21.0732 7.74694 21.0081 8.45377 21.0081 9.41763L 21.0081 13.2088L 18.0162 13.2088L 18.0162 1.3212L 21.0081 1.3212L 21.0081 2.99189C 21.0081 3.76298 20.9431 4.59833 20.878 5.62645L 21.0081 5.62645C 21.2683 5.17664 21.6585 4.85536 22.0488 4.66259C 22.439 4.46981 22.8943 4.40556 23.4146 4.40556C 24.3902 4.40556 25.1707 4.66259 25.691 5.2409C 26.2114 5.81922 26.5366 6.59031 26.5366 7.55417L 26.5366 13.2088L 23.4797 13.2088L 23.4797 8.45377Z"/>
<path id="path3_fill" d="M 36.9431 8.8393C 36.9431 10.253 36.5529 11.3453 35.7724 12.1164C 34.9919 12.8875 33.9513 13.2731 32.5204 13.2731C 31.2196 13.2731 30.1139 12.8875 29.3334 12.0522C 28.5529 11.2168 28.1626 10.1244 28.1626 8.77504C 28.1626 7.36138 28.5529 6.269 29.3334 5.49791C 30.1139 4.72683 31.1545 4.34128 32.5854 4.34128C 33.4309 4.34128 34.2114 4.53405 34.8618 4.85534C 35.5122 5.24089 36.0326 5.75494 36.3578 6.39752C 36.748 7.16861 36.9431 7.9397 36.9431 8.8393ZM 31.2196 8.8393C 31.2196 9.61039 31.3496 10.1244 31.5448 10.51C 31.7399 10.8955 32.0651 11.0883 32.5854 11.0883C 33.0407 11.0883 33.3659 10.8955 33.561 10.51C 33.7561 10.1244 33.8212 9.54613 33.8212 8.8393C 33.8212 8.13247 33.6911 7.55415 33.496 7.16861C 33.3009 6.78306 32.9757 6.59029 32.5204 6.59029C 32.0651 6.59029 31.7399 6.78306 31.5448 7.16861C 31.3496 7.55415 31.2196 8.06821 31.2196 8.8393Z"/>
<path id="path4_fill" d="M 41.626 13.1446L 38.6342 13.1446L 38.6342 1.3212L 41.626 1.3212L 41.626 13.1446Z"/>
<path id="path5_fill" d="M 49.4309 13.1445L 48.8455 11.9879L 48.7805 11.9879C 48.3902 12.5019 47.935 12.8232 47.5447 13.016C 47.1545 13.2088 46.5691 13.273 45.9187 13.273C 45.0732 13.273 44.4228 13.016 43.9675 12.5662C 43.5122 12.0521 43.252 11.4096 43.252 10.51C 43.252 9.61037 43.5772 8.90354 44.2276 8.45374C 44.878 8.00393 45.7886 7.7469 47.0244 7.68265L 48.4553 7.61839L 48.4553 7.48987C 48.4553 6.78304 48.1301 6.3975 47.4146 6.3975C 46.7642 6.3975 45.9837 6.59027 45.0081 7.04007L 44.1626 5.04809C 45.2032 4.53404 46.439 4.27701 48 4.27701C 49.1057 4.27701 50.0163 4.53404 50.6016 5.11235C 51.187 5.69067 51.5122 6.46176 51.5122 7.42562L 51.5122 13.0803L 49.4309 13.0803L 49.4309 13.1445ZM 47.2195 11.2168C 47.6097 11.2168 47.8699 11.0883 48.1301 10.8955C 48.3902 10.6385 48.5203 10.3815 48.5203 9.99591L 48.5203 9.35334L 47.8049 9.35334C 46.8293 9.4176 46.3089 9.73888 46.3089 10.4457C 46.374 10.9598 46.6341 11.2168 47.2195 11.2168Z"/>
<path id="path6_fill" d="M 58.8618 4.34128C 59.122 4.34128 59.3822 4.34128 59.6423 4.40554L 59.8374 4.40554L 59.5773 7.23286C 59.3171 7.16861 58.9919 7.16861 58.5366 7.16861C 57.8862 7.16861 57.3659 7.29712 57.1057 7.61841C 56.7805 7.9397 56.6504 8.32524 56.6504 8.90356L 56.6504 13.1445L 53.6586 13.1445L 53.6586 4.53405L 55.935 4.53405L 56.3903 5.88346L 56.5204 5.88346C 56.7805 5.43366 57.1057 5.04811 57.561 4.79108C 57.9513 4.53405 58.4065 4.34128 58.8618 4.34128Z"/>
<path id="path7_fill" d="M 67.7723 10.51C 67.7723 11.4096 67.4471 12.1164 66.7967 12.6305C 66.1463 13.0803 65.2357 13.3373 64.065 13.3373C 63.4146 13.3373 62.8292 13.2731 62.3739 13.2088C 61.9187 13.1446 61.3983 13.016 60.878 12.8233L 60.878 10.4457C 61.3333 10.6385 61.8536 10.8313 62.439 10.9598C 63.0244 11.0883 63.4796 11.1526 63.9349 11.1526C 64.5853 11.1526 64.9105 11.0241 64.9105 10.7028C 64.9105 10.5743 64.8455 10.4458 64.6504 10.3172C 64.4552 10.1887 63.9349 9.99595 63.0244 9.6104C 62.2439 9.28912 61.6585 8.90357 61.3333 8.51803C 61.0081 8.13249 60.878 7.55417 60.878 6.9116C 60.878 6.07625 61.2032 5.49793 61.7886 5.04813C 62.439 4.59833 63.2845 4.40556 64.4552 4.40556C 65.0406 4.40556 65.5609 4.46982 66.0813 4.59833C 66.6016 4.72684 67.1219 4.91962 67.6423 5.11239L 66.7967 7.04011C 66.4065 6.84734 65.9512 6.71882 65.4959 6.59031C 65.0406 6.46179 64.6504 6.39754 64.3902 6.39754C 63.8699 6.39754 63.6748 6.52605 63.6748 6.78308C 63.6748 6.91159 63.7398 7.04011 63.9349 7.16862C 64.1301 7.29714 64.5853 7.48991 65.4309 7.8112C 66.0162 8.06823 66.4715 8.32526 66.7967 8.51803C 67.1219 8.7108 67.317 9.03209 67.4471 9.35337C 67.7073 9.67466 67.7723 10.0602 67.7723 10.51Z"/>
<path id="path8_fill" d="M 74.9919 8.45377C 74.9919 7.29714 74.6667 6.71882 73.9513 6.71882C 73.4309 6.71882 73.1057 6.91159 72.8456 7.36139C 72.5854 7.74694 72.5204 8.45377 72.5204 9.41763L 72.5204 13.2088L 69.5285 13.2088L 69.5285 1.3212L 72.5204 1.3212L 72.5204 2.99189C 72.5204 3.76298 72.4553 4.59833 72.3903 5.62645L 72.5204 5.62645C 72.7805 5.17664 73.1708 4.85536 73.561 4.66259C 73.9513 4.46981 74.4065 4.40556 74.9269 4.40556C 75.9025 4.40556 76.683 4.66259 77.2033 5.2409C 77.7236 5.81922 78.0488 6.59031 78.0488 7.55417L 78.0488 13.2088L 74.9919 13.2088L 74.9919 8.45377Z"/>
<path id="path9_fill" d="M 80 2.3494C 80 1.8996 80.1301 1.57832 80.3902 1.32129C 80.6504 1.06426 81.0407 1 81.626 1C 82.2114 1 82.6016 1.12851 82.8618 1.32129C 83.122 1.51406 83.252 1.8996 83.252 2.28515C 83.252 3.18475 82.7317 3.57029 81.626 3.57029C 80.5203 3.69881 80 3.24901 80 2.3494ZM 83.122 13.1446L 80.1301 13.1446L 80.1301 4.53415L 83.122 4.53415L 83.122 13.1446Z"/>
<path id="path10_fill" d="M 90.4715 13.3373C 90.0163 13.3373 89.626 13.2731 89.3008 13.1446C 88.9756 13.016 88.5854 12.759 88.2602 12.3735L 88.1301 12.3735C 88.1951 12.9518 88.2602 13.3373 88.2602 13.5301L 88.2602 17L 85.2683 17L 85.2683 4.53407L 87.7398 4.53407L 88.1951 5.62645L 88.3252 5.62645C 88.9106 4.7911 89.6911 4.40556 90.6667 4.40556C 91.6423 4.40556 92.4228 4.7911 92.9431 5.62645C 93.4634 6.39754 93.7886 7.48991 93.7886 8.90357C 93.7886 10.3172 93.5285 11.4096 92.9431 12.1807C 92.2276 12.8875 91.4471 13.3373 90.4715 13.3373ZM 89.4309 6.71882C 88.9756 6.71882 88.6504 6.84734 88.5203 7.16862C 88.3902 7.48991 88.2602 7.93971 88.2602 8.58229L 88.2602 8.83932C 88.2602 9.6104 88.3902 10.1245 88.5854 10.4457C 88.7805 10.767 89.1057 10.9598 89.561 10.9598C 89.9512 10.9598 90.2114 10.767 90.4065 10.4457C 90.6016 10.1245 90.6667 9.54615 90.6667 8.83932C 90.6667 8.06823 90.6016 7.55417 90.4065 7.23288C 90.1463 6.84734 89.8211 6.71882 89.4309 6.71882Z"/>
<path id="path11_fill" d="M 105.431 7.5543C 105.431 9.3535 104.976 10.7029 104.065 11.731C 103.154 12.7591 101.919 13.2732 100.358 13.2732C 98.7968 13.2732 97.561 12.7591 96.6504 11.731C 95.7398 10.7029 95.2846 9.28924 95.2846 7.49004C 95.2846 5.69083 95.7398 4.34143 96.6504 3.31331C 97.561 2.28519 98.7968 1.77113 100.358 1.77113C 101.919 1.77113 103.154 2.28519 104.065 3.31331C 104.976 4.40569 105.431 5.81935 105.431 7.5543ZM 96.1951 7.5543C 96.1951 9.16073 96.5854 10.3816 97.3008 11.2812C 98.0163 12.1808 99.0569 12.5664 100.423 12.5664C 101.789 12.5664 102.829 12.1166 103.545 11.2812C 104.26 10.4459 104.65 9.16073 104.65 7.5543C 104.65 5.94786 104.26 4.72697 103.545 3.82737C 102.829 2.99202 101.789 2.54222 100.423 2.54222C 99.0569 2.54222 98.0163 2.99202 97.3008 3.82737C 96.5203 4.72697 96.1951 6.01212 96.1951 7.5543Z"/>
<path id="path12_fill" d="M 114.537 13.1447L 112.716 7.61856C 112.585 7.23301 112.455 6.71895 112.26 5.94786L 112.195 5.94786L 112 6.52618L 111.675 7.61856L 109.789 13.1447L 109.073 13.1447L 106.667 4.85549L 107.512 4.85549L 108.878 9.67479C 109.203 10.8957 109.398 11.731 109.463 12.3093L 109.529 12.3093C 109.854 11.0885 110.049 10.3174 110.179 9.93182L 111.935 4.85549L 112.65 4.85549L 114.276 9.86756C 114.667 11.0885 114.862 11.8595 114.927 12.2451L 114.992 12.2451C 115.057 11.9238 115.252 11.0242 115.642 9.61053L 116.943 4.85549L 117.724 4.85549L 115.447 13.1447L 114.537 13.1447Z"/>
<path id="path13_fill" d="M 120 13.1446L 119.22 13.1446L 119.22 1.3212L 120 1.3212L 120 13.1446Z"/>
<path id="path14_fill" d="M 126.9 3.35572L 127.402 3.35572C 127.65 3.35572 127.849 3.29211 127.998 3.16489C 128.15 3.03457 128.226 2.87012 128.226 2.67154C 128.226 2.43883 128.159 2.27283 128.026 2.17354C 127.893 2.07114 127.682 2.01995 127.393 2.01995L 126.9 2.01995L 126.9 3.35572ZM 128.92 2.65293C 128.92 2.90115 128.853 3.12145 128.719 3.31383C 128.589 3.5031 128.404 3.64428 128.166 3.73737L 129.273 5.5758L 128.491 5.5758L 127.528 3.92819L 126.9 3.92819L 126.9 5.5758L 126.211 5.5758L 126.211 1.42886L 127.426 1.42886C 127.941 1.42886 128.318 1.5297 128.557 1.73138C 128.799 1.93307 128.92 2.24025 128.92 2.65293ZM 124 3.5C 124 2.87943 124.155 2.29765 124.465 1.75465C 124.776 1.21166 125.202 0.783466 125.745 0.47008C 126.288 0.156693 126.873 0 127.5 0C 128.121 0 128.702 0.155142 129.245 0.465426C 129.788 0.775709 130.217 1.20235 130.53 1.74535C 130.843 2.28834 131 2.87323 131 3.5C 131 4.11126 130.85 4.68528 130.549 5.22207C 130.248 5.75887 129.826 6.18861 129.283 6.5113C 128.74 6.834 128.145 6.99535 127.5 6.99535C 126.858 6.99535 126.265 6.83555 125.722 6.51596C 125.179 6.19326 124.756 5.76352 124.451 5.22673C 124.15 4.68994 124 4.11436 124 3.5ZM 124.489 3.5C 124.489 4.03679 124.624 4.53945 124.894 5.00798C 125.164 5.4734 125.531 5.84109 125.997 6.11104C 126.465 6.37788 126.966 6.5113 127.5 6.5113C 128.04 6.5113 128.541 6.37633 129.003 6.10638C 129.466 5.83644 129.832 5.47185 130.102 5.01263C 130.375 4.55031 130.511 4.0461 130.511 3.5C 130.511 2.96011 130.376 2.459 130.106 1.99668C 129.836 1.53435 129.47 1.16822 129.008 0.898271C 128.549 0.625222 128.046 0.488697 127.5 0.488697C 126.96 0.488697 126.459 0.62367 125.997 0.893617C 125.534 1.16356 125.167 1.5297 124.894 1.99202C 124.624 2.45124 124.489 2.9539 124.489 3.5Z"/>
</defs>
</svg>
