<svg width="87" height="28" viewBox="0 0 87 28" version="1.1" xmlns="http://www.w3.org/2000/svg" xmlns:xlink="http://www.w3.org/1999/xlink">
<title>logo SSL</title>
<desc>Created using Figma</desc>
<g id="Canvas" transform="translate(-4567 2056)">
<g id="logo SSL">
<g id="Group">
<g id="Group">
<g id="Vector">
<use xlink:href="#path0_fill" transform="translate(4577.3 -2046.92)" fill="#7E99C0"/>
</g>
<g id="Vector">
<use xlink:href="#path1_fill" transform="translate(4578.49 -2041.07)" fill="#7E99C0"/>
</g>
<g id="Group">
<g id="Vector">
<use xlink:href="#path2_fill" transform="translate(4567 -2055.11)" fill="#7E99C0"/>
</g>
<g id="Vector">
<use xlink:href="#path3_fill" transform="translate(4620.56 -2042.56)" fill="#7E99C0"/>
</g>
<g id="Vector">
<use xlink:href="#path4_fill" transform="translate(4638.74 -2042.55)" fill="#7E99C0"/>
</g>
<g id="Vector">
<use xlink:href="#path5_fill" transform="translate(4643.71 -2042.57)" fill="#7E99C0"/>
</g>
</g>
</g>
</g>
</g>
</g>
<defs>
<path id="path0_fill" d="M 5.06369 2.38005C 4.98432 1.06964 3.93669 0.0504245 2.65097 0.00189073C 1.28587 -0.0466431 0.238243 0.843143 0.0477644 2.20209C -0.0474746 2.83303 0.0318917 3.48015 0.0160186 4.11109C 0.000145384 4.467 0.222369 4.467 0.460467 4.467C 1.14301 4.467 1.82556 4.467 2.52398 4.467C 3.23827 4.467 3.93669 4.45082 4.65099 4.467C 4.96845 4.467 5.11131 4.38611 5.09544 4.04637C 5.06369 3.48015 5.09543 2.9301 5.06369 2.38005Z"/>
<path id="path1_fill" d="M 1.70429 0.147284C 1.21222 -0.0953846 0.720154 -0.0468503 0.323324 0.357598C -0.0576322 0.745869 -0.136997 1.40916 0.275705 1.79743C 0.751901 2.23424 0.751901 2.71958 0.736028 3.26963C 0.720155 3.56083 0.751901 3.86821 0.736028 4.15941C 0.704281 4.53151 0.815393 4.74182 1.2281 4.64475C 1.59318 4.74182 1.68842 4.56386 1.70429 4.22412C 1.76778 3.2858 1.52969 2.31513 2.19636 1.44152C 2.49795 1.03707 2.18049 0.389953 1.70429 0.147284Z"/>
<path id="path2_fill" d="M 85.731 5.3549L 23.4606 5.3549C 21.0955 2.10313 17.3018 0 13.016 0C 5.82546 0 1.89223e-09 5.9373 1.89223e-09 13.2659C 1.89223e-09 20.5945 5.82546 26.5318 13.016 26.5318C 17.3018 26.5318 21.0955 24.4287 23.4606 21.1769L 85.731 21.1769C 86.2866 21.1769 86.731 20.7239 86.731 20.1577L 86.731 6.37411C 86.731 5.82406 86.2866 5.3549 85.731 5.3549ZM 17.3335 20.2224C 15.8414 20.2224 14.3335 20.2224 12.8414 20.2224C 11.3493 20.2224 9.84137 20.2224 8.34929 20.2224C 7.49214 20.2224 7.17468 19.8989 7.17468 19.0414C 7.17468 17.2942 7.19055 15.5632 7.17468 13.816C 7.17468 13.1365 7.44452 12.7159 8.11119 12.6188C 8.42866 12.5703 8.4604 12.4085 8.4604 12.1496C 8.44453 11.5187 8.41278 10.8716 8.49215 10.2406C 8.76199 7.86248 10.6509 6.22851 13.0478 6.3094C 15.2382 6.37411 17.0795 8.21839 17.2224 10.4995C 17.2541 11.0495 17.2541 11.5996 17.2383 12.1496C 17.2383 12.4408 17.2859 12.6026 17.6192 12.6511C 18.2542 12.7482 18.5081 13.1688 18.5081 13.816C 18.4923 15.5632 18.5081 17.2942 18.5081 19.0414C 18.5081 19.8665 18.1589 20.2224 17.3335 20.2224ZM 34.1591 15.094C 34.048 16.1294 33.3495 16.7118 32.1591 16.7927C 31.9686 16.8089 31.7781 16.7927 31.413 16.7927C 31.1432 16.7603 30.6828 16.6633 30.2225 16.6309C 29.8257 16.6147 29.7463 16.453 29.7781 16.0647C 29.8098 15.6117 30.0638 15.6926 30.3336 15.7088C 30.8733 15.7411 31.413 15.822 31.9527 15.822C 32.6353 15.822 32.9845 15.4985 33.0638 14.9322C 33.1591 14.2689 32.7622 14.0263 32.2384 13.8645C 31.7622 13.7189 31.2702 13.6056 30.8098 13.4115C 29.8892 13.0394 29.54 12.3923 29.667 11.3893C 29.7781 10.548 30.3654 9.96561 31.2543 9.83619C 32.0956 9.72294 32.921 9.85236 33.7464 9.96561C 34.0638 10.0141 34.0321 10.2083 33.9845 10.4348C 33.9369 10.6451 34.0003 10.9363 33.6194 10.8878C 33.2226 10.8392 32.8257 10.823 32.4289 10.7907C 32.0321 10.7583 31.6352 10.7583 31.2543 10.9039C 30.9368 11.0334 30.7463 11.276 30.7463 11.6319C 30.7305 11.9879 30.8575 12.2629 31.1908 12.3923C 31.667 12.5703 32.1432 12.7159 32.6194 12.8615C 33.921 13.2983 34.3019 13.8483 34.1591 15.094ZM 39.5242 15.0131C 39.3814 16.1456 38.6829 16.7442 37.4607 16.7927C 37.3178 16.7927 37.175 16.7927 37.0162 16.7927C 37.0162 16.8089 37.0162 16.8089 37.0162 16.8251C 36.4924 16.7603 35.9845 16.6795 35.4607 16.6309C 35.1115 16.5986 35.0797 16.4368 35.1273 16.1132C 35.175 15.822 35.2067 15.6764 35.5718 15.7088C 36.175 15.7735 36.7623 15.9029 37.3813 15.8382C 37.9369 15.7897 38.3496 15.5632 38.429 14.9484C 38.5242 14.3013 38.1115 14.0424 37.5877 13.8807C 37.1115 13.7351 36.6194 13.6218 36.1591 13.4439C 35.2543 13.0718 34.9369 12.5055 35.0321 11.4863C 35.1115 10.6289 35.6035 10.0789 36.4766 9.88472C 37.3655 9.69058 38.2544 9.85236 39.1433 9.99796C 39.556 10.0627 39.3179 10.3377 39.3337 10.548C 39.3496 10.7907 39.2861 10.9525 38.9845 10.9039C 38.4607 10.8392 37.9528 10.8069 37.429 10.7745C 37.1591 10.7583 36.8893 10.7907 36.6353 10.8878C 36.302 11.0172 36.1432 11.2598 36.1273 11.6158C 36.1115 11.9555 36.2385 12.2629 36.5718 12.3761C 37.0321 12.5541 37.5242 12.6997 38.0004 12.8453C 39.2226 13.2497 39.6671 13.8645 39.5242 15.0131ZM 44.0322 16.7118C 43.0798 16.6956 42.1115 16.6795 41.1591 16.7118C 40.7464 16.728 40.683 16.5339 40.6988 16.1779C 40.7147 15.2234 40.6988 14.2689 40.6988 13.3144C 40.6988 12.3761 40.7147 11.454 40.683 10.5157C 40.6671 10.0789 40.7782 9.91708 41.2385 9.93325C 41.6512 9.94943 41.8258 10.0141 41.81 10.4833C 41.7782 12.0526 41.81 13.6218 41.7941 15.1911C 41.7941 15.5955 41.8734 15.7573 42.302 15.725C 42.8893 15.6926 43.4608 15.7411 44.0481 15.7088C 44.4449 15.6926 44.4766 15.8867 44.4766 16.2103C 44.4608 16.55 44.4132 16.728 44.0322 16.7118ZM 51.6513 14.9646C 51.5243 16.0647 50.9053 16.6633 49.81 16.7603C 49.0481 16.8251 48.318 16.7118 47.5719 16.6147C 47.2703 16.5662 47.191 16.4368 47.2544 16.1456C 47.3021 15.8867 47.2862 15.6441 47.683 15.7088C 48.2386 15.7897 48.81 15.8382 49.3656 15.8382C 50.1434 15.8382 50.5084 15.5146 50.5719 14.9161C 50.6354 14.2204 50.1434 14.0101 49.6196 13.8645C 49.1592 13.7189 48.683 13.6218 48.2545 13.4439C 47.3973 13.088 47.064 12.4732 47.1592 11.5187C 47.2544 10.6451 47.7148 10.095 48.6037 9.91708C 48.9211 9.85236 49.2703 9.85236 49.6354 9.82001C 50.0799 9.88472 50.5561 9.96561 51.0323 9.99796C 51.445 10.0141 51.4926 10.2083 51.4767 10.5642C 51.4608 10.9525 51.2545 10.9363 50.9846 10.9201C 50.4291 10.8716 49.8576 10.8069 49.3021 10.823C 48.9053 10.823 48.4926 10.9039 48.318 11.3569C 48.1275 11.8584 48.2703 12.2467 48.7624 12.4408C 49.2862 12.6511 49.8259 12.7806 50.3656 12.9747C 51.3815 13.3144 51.7783 13.9454 51.6513 14.9646ZM 56.6037 14.4954C 56.5244 14.7381 56.3815 14.7057 56.2228 14.7057C 55.826 14.7057 55.4291 14.7057 55.0323 14.7057C 54.6513 14.7057 54.2863 14.7219 53.9053 14.7057C 53.5244 14.6734 53.4926 14.8675 53.5878 15.1587C 53.7148 15.5794 53.9847 15.8544 54.445 15.8544C 54.9847 15.8544 55.5244 15.8544 56.0641 15.822C 56.3022 15.8058 56.4768 15.822 56.4609 16.1294C 56.445 16.3559 56.5244 16.5824 56.1752 16.6309C 55.4768 16.728 54.7783 16.8412 54.064 16.7603C 53.2704 16.6633 52.7466 16.2265 52.5878 15.4499C 52.4291 14.7219 52.3974 13.9777 52.572 13.2336C 52.8736 11.9717 54.0164 11.3569 55.3498 11.7614C 56.3498 12.0849 56.953 13.4115 56.6037 14.4954ZM 58.8895 15.547C 59.2704 16.0485 59.9371 15.8867 60.4768 15.822C 60.9371 15.7573 61.0006 15.9514 60.9847 16.3397C 60.9847 16.5986 60.8736 16.6795 60.6514 16.7118C 60.0324 16.8089 59.4133 16.8736 58.7943 16.7603C 58.0958 16.6147 57.7307 16.1294 57.5879 15.4499C 57.4292 14.6734 57.4133 13.8968 57.572 13.1041C 57.7466 12.2467 58.3022 11.7614 59.1911 11.6805C 59.5879 11.6481 59.9847 11.7128 60.3657 11.7452C 60.7625 11.7937 61.0324 11.8422 60.9689 12.3761C 60.9054 12.9262 60.5403 12.6026 60.3181 12.6673C 60.2387 12.6835 60.1593 12.6673 60.0006 12.6511C 59.5403 12.6835 58.9054 12.5541 58.699 13.2336C 58.4768 14.0101 58.3657 14.8513 58.8895 15.547ZM 66.08 12.2467C 66.0483 12.9262 66.0642 13.6056 66.0642 14.2851C 66.0642 14.8513 66.0642 15.4338 66.0642 16C 66.0642 16.6956 65.715 16.9707 65.1118 16.6471C 64.8261 16.5015 64.6515 16.5824 64.4451 16.6471C 62.953 17.1324 62.1276 16.5986 62.0324 15.0293C 61.9689 14.0748 62.0165 13.1203 61.9848 12.1658C 61.9689 11.6481 62.334 11.8099 62.5879 11.7937C 62.8737 11.7614 63.0959 11.7775 63.08 12.1982C 63.0483 13.0718 63.0641 13.9454 63.08 14.8028C 63.08 15.1911 63.08 15.6117 63.4927 15.7735C 63.9689 15.9676 64.4451 15.8382 64.8737 15.6279C 65.0959 15.5308 65.0007 15.2882 65.0007 15.1102C 65.0007 14.1557 65.0165 13.2012 64.9689 12.2467C 64.9372 11.729 65.2229 11.7937 65.5562 11.7775C 65.9213 11.7452 66.1118 11.8099 66.08 12.2467ZM 69.6039 12.8938C 68.4134 13.1688 68.4293 13.2174 68.4293 14.4145C 68.4293 15.0293 68.3975 15.6441 68.4451 16.2588C 68.4769 16.7118 68.2229 16.728 67.9054 16.7118C 67.6039 16.7118 67.334 16.7442 67.3499 16.275C 67.3816 15.5794 67.3658 14.8675 67.3658 14.1719C 67.3658 13.5086 67.3658 12.8615 67.3658 12.1982C 67.3658 12.0202 67.2864 11.7452 67.588 11.7937C 67.8737 11.8422 68.3182 11.5187 68.4293 12.0202C 68.5086 12.3599 68.6197 12.2629 68.7943 12.1658C 68.9848 12.0687 69.1594 11.9555 69.3658 11.907C 69.6039 11.8584 69.9531 11.5025 70.0642 11.8746C 70.1436 12.2305 70.2864 12.732 69.6039 12.8938ZM 74.7944 14.4307C 74.7309 14.6734 74.5881 14.7057 74.3817 14.7057C 73.9849 14.7057 73.5881 14.7057 73.1912 14.7057C 72.842 14.7057 72.4769 14.7219 72.1277 14.7057C 71.6674 14.6734 71.6515 14.8837 71.7944 15.2396C 71.9372 15.6441 72.2071 15.8706 72.6357 15.8706C 73.1753 15.8706 73.715 15.8706 74.2547 15.822C 74.5246 15.8058 74.6516 15.8544 74.6516 16.1456C 74.6516 16.3721 74.715 16.5986 74.3658 16.6471C 73.6833 16.7442 73.0007 16.8574 72.3182 16.7765C 71.4293 16.6795 70.9055 16.2265 70.7467 15.3367C 70.6198 14.6572 70.6198 13.9777 70.7626 13.3144C 71.0166 12.0526 72.1277 11.4054 73.4452 11.7614C 74.4769 12.0202 75.1119 13.2659 74.7944 14.4307ZM 79.858 10.2406C 79.8421 11.2437 79.858 12.2305 79.858 13.2336C 79.858 14.1719 79.858 15.094 79.858 16.0323C 79.858 16.728 79.5881 16.9545 78.9691 16.6795C 78.6992 16.5662 78.5087 16.5986 78.2865 16.6633C 76.7151 17.1324 75.842 16.55 75.6516 14.8837C 75.6039 14.4631 75.5881 14.0424 75.6516 13.6218C 75.8738 12.0849 76.6516 11.454 78.1437 11.7128C 78.731 11.8099 78.8262 11.6319 78.7786 11.1142C 78.7468 10.8554 78.7944 10.5965 78.7786 10.3539C 78.731 9.88472 78.8738 9.69058 79.3976 9.70676C 79.8103 9.72294 79.8738 9.86854 79.858 10.2406Z"/>
<path id="path3_fill" d="M 0.232209 0.363383C 0.0576044 0.606052 -0.0693829 0.913433 0.0417293 1.18846C 0.136968 1.4473 0.454431 1.26935 0.660782 1.3017C 0.787768 1.31788 0.914756 1.3017 1.02587 1.3017C 1.15285 1.3017 1.27984 1.31788 1.39095 1.3017C 1.5973 1.26935 1.91476 1.43113 1.99413 1.17228C 2.08937 0.864899 2.01 0.541341 1.78778 0.282494C 1.43857 -0.121955 0.5338 -0.0895987 0.232209 0.363383Z"/>
<path id="path4_fill" d="M 1.46941 0.0782771C 1.0567 -0.0511464 0.675747 -0.0349684 0.34241 0.240056C 0.0566927 0.466548 -0.0544196 0.822463 0.0249463 1.1622C 0.104312 1.46958 0.453523 1.27545 0.675748 1.32398C 0.770987 1.34016 0.882099 1.32398 0.993211 1.32398C 1.21544 1.32398 1.45353 1.3078 1.67576 1.32398C 2.04084 1.35633 2.08846 1.17838 2.02497 0.854819C 1.9456 0.482726 1.83449 0.191523 1.46941 0.0782771Z"/>
<path id="path5_fill" d="M 2.05713 0.469632C 2.05713 0.324031 2.05713 0.194608 1.86665 0.129896C 0.819023 -0.258374 0.0571139 0.243141 0.00949434 1.3756C -0.00637884 1.73151 -0.00638174 2.1036 0.0412378 2.45952C 0.136477 3.10664 0.501564 3.36548 1.13649 3.31695C 1.9619 3.25224 2.05713 3.15517 2.05713 2.33009C 2.05713 2.1036 2.05713 1.86093 2.05713 1.63444C 2.05713 1.24617 2.07301 0.857903 2.05713 0.469632Z"/>
</defs>
</svg>
