<svg width="65" height="29" viewBox="0 0 65 29" version="1.1" xmlns="http://www.w3.org/2000/svg" xmlns:xlink="http://www.w3.org/1999/xlink">
<title>logo DMCA</title>
<desc>Created using Figma</desc>
<g id="Canvas" transform="translate(-4676 2057)">
<g id="logo DMCA">
<g id="Group">
<g id="Vector">
<use xlink:href="#path0_fill" transform="translate(4676.32 -2049.28)" fill="#7E99C0"/>
</g>
<g id="Vector">
<use xlink:href="#path1_fill" transform="translate(4677.91 -2056.94)" fill="#7E99C0"/>
</g>
<g id="Group">
<g id="Vector">
<use xlink:href="#path2_fill" transform="translate(4693.68 -2045.55)" fill="#7E99C0"/>
</g>
<g id="Vector">
<use xlink:href="#path3_fill" transform="translate(4704 -2045.55)" fill="#7E99C0"/>
</g>
<g id="Vector">
<use xlink:href="#path4_fill" transform="translate(4719.48 -2045.25)" fill="#7E99C0"/>
</g>
<g id="Vector">
<use xlink:href="#path5_fill" transform="translate(4730.37 -2045.57)" fill="#7E99C0"/>
</g>
<g id="Vector">
<use xlink:href="#path6_fill" transform="translate(4716.55 -2048.08)" fill="#7E99C0"/>
</g>
</g>
<g id="Group">
<g id="Vector">
<use xlink:href="#path7_fill" transform="translate(4676.72 -2031.15)" fill="#7E99C0"/>
</g>
<g id="Vector">
<use xlink:href="#path8_fill" transform="translate(4679.78 -2031.13)" fill="#7E99C0"/>
</g>
<g id="Vector">
<use xlink:href="#path9_fill" transform="translate(4683.04 -2031.18)" fill="#7E99C0"/>
</g>
<g id="Vector">
<use xlink:href="#path10_fill" transform="translate(4686.5 -2031.12)" fill="#7E99C0"/>
</g>
<g id="Vector">
<use xlink:href="#path11_fill" transform="translate(4690 -2031.13)" fill="#7E99C0"/>
</g>
<g id="Vector">
<use xlink:href="#path12_fill" transform="translate(4693.02 -2031.16)" fill="#7E99C0"/>
</g>
<g id="Vector">
<use xlink:href="#path13_fill" transform="translate(4696.23 -2031.12)" fill="#7E99C0"/>
</g>
<g id="Vector">
<use xlink:href="#path14_fill" transform="translate(4701.46 -2031.15)" fill="#7E99C0"/>
</g>
<g id="Vector">
<use xlink:href="#path15_fill" transform="translate(4704.74 -2031.18)" fill="#7E99C0"/>
</g>
<g id="Vector">
<use xlink:href="#path16_fill" transform="translate(4708.65 -2031.13)" fill="#7E99C0"/>
</g>
<g id="Vector">
<use xlink:href="#path17_fill" transform="translate(4712.22 -2031.13)" fill="#7E99C0"/>
</g>
<g id="Vector">
<use xlink:href="#path18_fill" transform="translate(4717.59 -2031.16)" fill="#7E99C0"/>
</g>
<g id="Vector">
<use xlink:href="#path19_fill" transform="translate(4721.01 -2031.18)" fill="#7E99C0"/>
</g>
<g id="Vector">
<use xlink:href="#path20_fill" transform="translate(4724.94 -2031.13)" fill="#7E99C0"/>
</g>
<g id="Vector">
<use xlink:href="#path21_fill" transform="translate(4728.19 -2031.12)" fill="#7E99C0"/>
</g>
<g id="Vector">
<use xlink:href="#path22_fill" transform="translate(4731.69 -2031.13)" fill="#7E99C0"/>
</g>
<g id="Vector">
<use xlink:href="#path23_fill" transform="translate(4734.86 -2031.13)" fill="#7E99C0"/>
</g>
<g id="Vector">
<use xlink:href="#path13_fill" transform="translate(4738.1 -2031.12)" fill="#7E99C0"/>
</g>
</g>
</g>
</g>
</g>
<defs>
<path id="path0_fill" d="M 14.2646 2.4395e-07L 1.22706 2.4395e-07C 0.552179 2.4395e-07 1.82847e-09 0.575549 1.82847e-09 1.279L 1.82847e-09 14.8683C 1.82847e-09 15.5718 0.552179 16.1473 1.22706 16.1473L 14.2646 16.1473C 14.9395 16.1473 15.4917 15.5718 15.4917 14.8683L 15.4917 1.279C 15.4917 0.575549 14.9395 2.4395e-07 14.2646 2.4395e-07ZM 5.67517 11.543L 6.97893 8.26552C 6.35006 7.96176 5.90524 7.29029 5.90524 6.52289C 5.90524 5.46772 6.73351 4.60439 7.74584 4.60439C 8.75817 4.60439 9.58644 5.46772 9.58644 6.52289C 9.58644 7.33825 9.11095 8.02571 8.42073 8.31349L 9.81651 11.543L 5.67517 11.543Z"/>
<path id="path1_fill" d="M 1.18105 6.69875C 1.31909 3.70909 3.48179 1.34295 6.13532 1.34295C 8.78884 1.34295 10.9515 3.70909 11.0896 6.69875L 12.2706 6.69875C 12.1326 2.97367 9.43305 0 6.13532 0C 2.83758 0 0.138045 2.97367 -2.92555e-08 6.69875L 1.18105 6.69875Z"/>
<path id="path2_fill" d="M 8.98824 4.82822C 8.98824 5.83543 8.78885 6.73073 8.37471 7.49813C 7.97592 8.26552 7.39306 8.87305 6.64148 9.28872C 5.88991 9.7044 5.01562 9.91223 4.03397 9.91223L 2.1797e-15 9.91223L 2.1797e-15 -4.87899e-07L 3.94194 -4.87899e-07C 7.30103 -4.87899e-07 8.98824 1.59875 8.98824 4.82822ZM 5.93592 4.86019C 5.93592 4.38057 5.84389 3.93292 5.65983 3.54922C 5.47577 3.16552 5.19968 2.86176 4.8469 2.65392C 4.49412 2.44608 4.07999 2.33417 3.61984 2.33417L 2.8836 2.33417L 2.8836 7.57806L 3.68119 7.57806C 4.37141 7.57806 4.90825 7.33825 5.32239 6.84264C 5.73652 6.34703 5.93592 5.69154 5.93592 4.86019Z"/>
<path id="path3_fill" d="M 8.71216 9.91223L 8.71216 4.47649C 8.71216 3.96489 8.72749 3.40533 8.75817 2.78182L 8.77351 2.31818L 8.69682 2.31818C 8.55877 3.10157 8.4514 3.64514 8.37471 3.93292L 6.97893 9.89625L 4.27939 9.89625L 2.80691 3.99687C 2.7609 3.85298 2.66887 3.29342 2.50014 2.3022L 2.42345 2.3022C 2.48481 3.85298 2.51548 4.82822 2.51548 5.21192L 2.51548 9.89625L 4.68088e-07 9.89625L 4.68088e-07 -4.87899e-07L 4.29472 -4.87899e-07L 5.59848 5.38778C 5.62916 5.49969 5.67517 5.72352 5.72119 6.05925C 5.7672 6.39499 5.79788 6.66678 5.81322 6.84264L 5.85923 6.84264C 5.90525 6.42696 5.98194 5.93135 6.0893 5.3558L 7.31637 -4.87899e-07L 11.5497 -4.87899e-07L 11.5497 9.92822L 8.71216 9.92822L 8.71216 9.91223Z"/>
<path id="path4_fill" d="M 6.70284 8.64922C 6.01261 8.90502 5.21502 9.03292 4.29473 9.03292C 3.4051 9.03292 2.63819 8.85706 1.99398 8.50534C 1.34977 8.15361 0.858945 7.64201 0.506164 6.98653C 0.168721 6.33104 1.87235e-06 5.57963 1.87235e-06 4.7163C 1.87235e-06 3.78903 0.184059 2.97367 0.567516 2.25423C 0.950974 1.5348 1.48782 0.975237 2.19338 0.591537C 2.8836 0.19185 3.69653 -2.4395e-07 4.60149 -2.4395e-07C 5.32239 -2.4395e-07 6.02795 0.0959253 6.70284 0.271788L 6.70284 2.70188C 6.47276 2.558 6.19667 2.44608 5.87457 2.36615C 5.55246 2.28621 5.23036 2.23825 4.89292 2.23825C 4.20269 2.23825 3.66585 2.44608 3.26706 2.84577C 2.86826 3.26145 2.66886 3.80502 2.66886 4.50847C 2.66886 5.21192 2.86826 5.75549 3.26706 6.15518C 3.66585 6.55486 4.18735 6.7627 4.8469 6.7627C 5.46043 6.7627 6.07397 6.60283 6.70284 6.28308L 6.70284 8.64922Z"/>
<path id="path5_fill" d="M 6.79487 9.92822L 6.38073 8.10565L 3.54314 8.10565L 3.09834 9.92822L 1.87235e-06 9.92822L 3.2824 -2.4395e-07L 6.84088 -2.4395e-07L 9.92388 9.92822L 6.79487 9.92822ZM 5.00028 2.1743L 4.93893 2.1743C 4.92359 2.28621 4.89291 2.46207 4.8469 2.71787C 4.80089 2.97367 4.5248 4.06082 4.04931 5.97932L 5.87457 5.97932L 5.18434 3.27743C 5.09231 2.89373 5.03096 2.51003 5.00028 2.1743Z"/>
<path id="path6_fill" d="M 7.05562 2.43949e-07C 3.15969 2.43949e-07 9.36176e-07 3.29342 9.36176e-07 7.35424C 9.36176e-07 11.4151 3.15969 14.7085 7.05562 14.7085C 10.9515 14.7085 14.1112 11.4151 14.1112 7.35424C 14.1112 3.29342 10.9515 2.43949e-07 7.05562 2.43949e-07ZM 7.05562 12.9499C 4.07999 12.9499 1.68721 10.4398 1.68721 7.35424C 1.68721 4.26866 4.09533 1.75862 7.05562 1.75862C 10.0312 1.75862 12.424 4.26866 12.424 7.35424C 12.424 10.4398 10.0159 12.9499 7.05562 12.9499Z"/>
<path id="path7_fill" d="M 1.82526 0.7674C 1.82526 0.879312 1.80992 0.975236 1.7639 1.07116C 1.71789 1.16709 1.65654 1.24702 1.57984 1.31097C 1.48782 1.39091 1.36511 1.45486 1.2424 1.50282C 1.10436 1.55078 0.950975 1.56677 0.751577 1.56677L 0.368119 1.56677L 0.368119 2.49405L 1.46277e-08 2.49405L 1.46277e-08 4.87899e-07L 0.751577 4.87899e-07C 0.920298 4.87899e-07 1.05834 0.0159875 1.18105 0.031975C 1.30376 0.0639499 1.39579 0.0959244 1.48782 0.143887C 1.59518 0.207837 1.67187 0.287774 1.73323 0.383699C 1.79458 0.479624 1.82526 0.623513 1.82526 0.7674ZM 1.4418 0.783386C 1.4418 0.703448 1.42646 0.623512 1.39579 0.559562C 1.36511 0.495612 1.30376 0.44765 1.2424 0.399687C 1.18105 0.367712 1.1197 0.335737 1.043 0.31975C 0.966313 0.303763 0.874283 0.303762 0.751577 0.303762L 0.368119 0.303762L 0.368119 1.29498L 0.674885 1.29498C 0.828268 1.29498 0.950975 1.279 1.043 1.26301C 1.13503 1.23104 1.21173 1.19906 1.27308 1.1511C 1.33443 1.10314 1.38045 1.03919 1.39579 0.975235C 1.42646 0.927273 1.4418 0.847336 1.4418 0.783386Z"/>
<path id="path8_fill" d="M 2.30075 2.49405L 1.82526 2.49405L 0.889621 1.50282L 0.368119 1.50282L 0.368119 2.49405L -5.8511e-08 2.49405L -5.8511e-08 -9.75798e-07L 0.782253 -9.75798e-07C 0.950975 -9.75798e-07 1.08902 0.0159885 1.19639 0.0319759C 1.30376 0.0479634 1.41112 0.0799379 1.50315 0.143888C 1.61052 0.207838 1.68721 0.271788 1.73323 0.351725C 1.79458 0.431663 1.82526 0.543574 1.82526 0.687461C 1.82526 0.863323 1.77924 1.0232 1.67187 1.13511C 1.56451 1.24702 1.42646 1.34295 1.25774 1.4069L 2.30075 2.49405ZM 1.4418 0.703449C 1.4418 0.6395 1.42646 0.57555 1.39579 0.5116C 1.36511 0.463638 1.31909 0.415674 1.25774 0.367711C 1.21173 0.335737 1.13503 0.31975 1.07368 0.303763C 1.01233 0.287775 0.920298 0.287774 0.81293 0.287774L 0.383457 0.287774L 0.383457 1.23104L 0.751577 1.23104C 0.874283 1.23104 0.966313 1.21505 1.05834 1.19906C 1.15037 1.18307 1.21173 1.1511 1.27308 1.10314C 1.33443 1.05517 1.36511 1.00721 1.39579 0.943262C 1.42646 0.879312 1.4418 0.799374 1.4418 0.703449Z"/>
<path id="path9_fill" d="M 2.23939 0.335736C 2.34676 0.447649 2.43879 0.57555 2.50014 0.751412C 2.5615 0.911287 2.59217 1.10314 2.59217 1.29498C 2.59217 1.50282 2.5615 1.67869 2.50014 1.83856C 2.43879 1.99844 2.34676 2.14232 2.23939 2.23825C 2.13202 2.35016 1.99398 2.4301 1.8406 2.49405C 1.68721 2.558 1.50315 2.57398 1.30375 2.57398C 1.10436 2.57398 0.935636 2.54201 0.766915 2.49405C 0.613532 2.4301 0.475487 2.35016 0.352781 2.23825C 0.245413 2.12633 0.153383 1.99844 0.0920299 1.83856C 0.0306767 1.67869 -2.34044e-07 1.50282 -2.34044e-07 1.29498C -2.34044e-07 1.08715 0.0306767 0.911287 0.0920299 0.751412C 0.153383 0.591537 0.245413 0.447649 0.352781 0.335736C 0.460149 0.223824 0.598193 0.143888 0.766915 0.0799383C 0.935636 0.0159884 1.10436 9.75798e-07 1.30375 9.75798e-07C 1.50315 9.75798e-07 1.68721 0.0319759 1.8406 0.0799383C 1.99398 0.127901 2.13202 0.223824 2.23939 0.335736ZM 2.20871 1.29498C 2.20871 0.975235 2.13202 0.719436 1.9633 0.543574C 1.79458 0.367712 1.57984 0.287774 1.30375 0.287774C 1.02767 0.287774 0.797591 0.367712 0.644208 0.543574C 0.490825 0.719436 0.398796 0.975235 0.398796 1.29498C 0.398796 1.61473 0.475487 1.87053 0.644208 2.0464C 0.81293 2.22226 1.02767 2.3022 1.30375 2.3022C 1.57984 2.3022 1.79458 2.22226 1.9633 2.0464C 2.11669 1.87053 2.20871 1.61473 2.20871 1.29498Z"/>
<path id="path10_fill" d="M 2.3621 0.287775L 1.36511 0.287775L 1.36511 2.47806L 0.996989 2.47806L 0.996989 0.287775L -4.68088e-07 0.287775L -4.68088e-07 0L 2.34676 0L 2.34676 0.287775L 2.3621 0.287775Z"/>
<path id="path11_fill" d="M 1.82526 2.49405L 0 2.49405L 0 -9.75798e-07L 1.82526 -9.75798e-07L 1.82526 0.287774L 0.368119 0.287774L 0.368119 0.975236L 1.82526 0.975236L 1.82526 1.26301L 0.368119 1.26301L 0.368119 2.19029L 1.82526 2.19029L 1.82526 2.49405Z"/>
<path id="path12_fill" d="M 2.30074 2.35016C 2.23939 2.38213 2.17804 2.39812 2.11669 2.4301C 2.05533 2.44608 1.99398 2.47806 1.90195 2.51003C 1.82526 2.52602 1.74857 2.54201 1.65654 2.558C 1.56451 2.57398 1.47248 2.57398 1.36511 2.57398C 1.16571 2.57398 0.981651 2.54201 0.81293 2.49405C 0.644209 2.44608 0.506163 2.36615 0.383457 2.25423C 0.260751 2.14232 0.168722 2.01442 0.107368 1.85455C 0.0460151 1.69467 -4.68088e-07 1.50282 -4.68088e-07 1.279C -4.68088e-07 1.07116 0.0306771 0.895299 0.0920303 0.735424C 0.153383 0.57555 0.245413 0.431661 0.368119 0.319749C 0.490825 0.207837 0.628871 0.127899 0.797592 0.0799369C 0.966313 0.015987 1.15037 -4.87899e-07 1.34977 -4.87899e-07C 1.50315 -4.87899e-07 1.6412 0.0159875 1.79458 0.0479624C 1.94796 0.0799374 2.10135 0.143888 2.28541 0.223826L 2.28541 0.623512L 2.25473 0.623512C 2.10135 0.5116 1.94796 0.431662 1.79458 0.367712C 1.6412 0.319749 1.48782 0.287775 1.31909 0.287775C 1.18105 0.287775 1.05834 0.303761 0.935637 0.351723C 0.81293 0.399686 0.720901 0.44765 0.628871 0.543575C 0.536841 0.623512 0.475487 0.735425 0.429472 0.863325C 0.383457 0.991224 0.352781 1.13511 0.352781 1.31097C 0.352781 1.48683 0.383457 1.63072 0.429472 1.75862C 0.475487 1.88652 0.552179 1.98245 0.628871 2.06239C 0.720901 2.14232 0.81293 2.20627 0.935637 2.23825C 1.05834 2.27022 1.18105 2.3022 1.30376 2.3022C 1.48781 2.3022 1.6412 2.27022 1.80992 2.22226C 1.9633 2.1743 2.11669 2.07837 2.23939 1.98245L 2.27007 1.98245L 2.27007 2.35016L 2.30074 2.35016Z"/>
<path id="path13_fill" d="M 2.3621 0.287775L 1.36511 0.287775L 1.36511 2.47806L 0.996991 2.47806L 0.996991 0.287775L 9.36176e-07 0.287775L 9.36176e-07 0L 2.3621 0L 2.3621 0.287775Z"/>
<path id="path14_fill" d="M 2.33142 0.0159865L 1.34977 1.4069L 1.34977 2.49405L 0.981652 2.49405L 0.981652 1.43887L -4.68088e-07 4.87899e-07L 0.414133 4.87899e-07L 1.16571 1.11912L 1.93263 4.87899e-07L 2.33142 4.87899e-07L 2.33142 0.0159865Z"/>
<path id="path15_fill" d="M 2.23939 0.335736C 2.34676 0.447649 2.43879 0.57555 2.50014 0.751412C 2.56149 0.911287 2.59217 1.10314 2.59217 1.29498C 2.59217 1.50282 2.56149 1.67869 2.50014 1.83856C 2.43879 1.99844 2.34676 2.14232 2.23939 2.23825C 2.13202 2.35016 1.99398 2.4301 1.8406 2.49405C 1.68721 2.558 1.50315 2.57398 1.30376 2.57398C 1.10436 2.57398 0.935637 2.54201 0.766916 2.49405C 0.613533 2.4301 0.475486 2.35016 0.35278 2.23825C 0.245412 2.12633 0.153382 1.99844 0.0920293 1.83856C 0.0306761 1.67869 9.36175e-07 1.50282 9.36175e-07 1.29498C 9.36175e-07 1.08715 0.0306761 0.911287 0.0920293 0.751412C 0.153382 0.591537 0.245412 0.447649 0.35278 0.335736C 0.460148 0.223824 0.598195 0.143888 0.766916 0.0799383C 0.935637 0.0159884 1.10436 9.75798e-07 1.30376 9.75798e-07C 1.50315 9.75798e-07 1.68721 0.0319759 1.8406 0.0799383C 1.99398 0.127901 2.11668 0.223824 2.23939 0.335736ZM 2.19338 1.29498C 2.19338 0.975235 2.11669 0.719436 1.94796 0.543574C 1.77924 0.367712 1.56451 0.287774 1.28842 0.287774C 1.01233 0.287774 0.782253 0.367712 0.62887 0.543574C 0.475487 0.719436 0.383458 0.975235 0.383458 1.29498C 0.383458 1.61473 0.460148 1.87053 0.62887 2.0464C 0.797591 2.22226 1.01233 2.3022 1.28842 2.3022C 1.56451 2.3022 1.77924 2.22226 1.94796 2.0464C 2.11669 1.87053 2.19338 1.61473 2.19338 1.29498Z"/>
<path id="path16_fill" d="M 2.11668 1.48683C 2.11668 1.6627 2.10135 1.82257 2.05533 1.96646C 2.00932 2.09436 1.93263 2.20627 1.8406 2.3022C 1.74857 2.38213 1.62586 2.44608 1.50315 2.49405C 1.38045 2.52602 1.22706 2.558 1.05834 2.558C 0.889621 2.558 0.736238 2.54201 0.598194 2.49405C 0.475487 2.44608 0.35278 2.39812 0.276088 2.31818C 0.16872 2.22226 0.107368 2.11035 0.0613532 1.98245C 0.0153383 1.85455 9.36175e-07 1.69467 9.36175e-07 1.50282L 9.36175e-07 0.0159875L 0.368119 0.0159875L 0.368119 1.51881C 0.368119 1.64671 0.383457 1.75862 0.398795 1.83856C 0.414134 1.9185 0.460148 1.98245 0.506163 2.0464C 0.567516 2.12633 0.628869 2.1743 0.736237 2.20627C 0.843605 2.23825 0.935637 2.25423 1.07368 2.25423C 1.21173 2.25423 1.31909 2.23825 1.41112 2.20627C 1.50315 2.1743 1.57985 2.11035 1.6412 2.0464C 1.68721 1.98245 1.71789 1.90251 1.74857 1.82257C 1.7639 1.74264 1.77924 1.64671 1.77924 1.51881L 1.77924 -9.75798e-07L 2.14736 -9.75798e-07L 2.14736 1.48683L 2.11668 1.48683Z"/>
<path id="path17_fill" d="M 2.30074 2.49405L 1.82526 2.49405L 0.889621 1.50282L 0.36812 1.50282L 0.36812 2.49405L -9.36176e-07 2.49405L -9.36176e-07 -9.75798e-07L 0.782253 -9.75798e-07C 0.950975 -9.75798e-07 1.08902 0.0159885 1.19639 0.0319759C 1.30376 0.0479634 1.41112 0.0799379 1.50315 0.143888C 1.61052 0.207838 1.68721 0.271788 1.73323 0.351725C 1.79458 0.431663 1.82526 0.543574 1.82526 0.687461C 1.82526 0.863323 1.77924 1.0232 1.67188 1.13511C 1.56451 1.24702 1.42646 1.34295 1.25774 1.4069L 2.30074 2.49405ZM 1.4418 0.703449C 1.4418 0.6395 1.42646 0.57555 1.39579 0.5116C 1.36511 0.463638 1.31909 0.415674 1.25774 0.367711C 1.21173 0.335737 1.13503 0.31975 1.07368 0.303763C 0.996989 0.287775 0.920298 0.287774 0.812929 0.287774L 0.383457 0.287774L 0.383457 1.23104L 0.751577 1.23104C 0.874284 1.23104 0.966313 1.21505 1.05834 1.19906C 1.15037 1.18307 1.21173 1.1511 1.27308 1.10314C 1.33443 1.05517 1.36511 1.00721 1.39579 0.943262C 1.42646 0.879312 1.4418 0.799374 1.4418 0.703449Z"/>
<path id="path18_fill" d="M 2.30074 2.35016C 2.23939 2.38213 2.17804 2.39812 2.11669 2.4301C 2.05533 2.44608 1.99398 2.47806 1.90195 2.51003C 1.82526 2.52602 1.74857 2.54201 1.65654 2.558C 1.56451 2.57398 1.47247 2.57398 1.36511 2.57398C 1.16571 2.57398 0.981653 2.54201 0.812932 2.49405C 0.64421 2.44608 0.506163 2.36615 0.383457 2.25423C 0.26075 2.14232 0.168722 2.01442 0.107369 1.85455C 0.0460158 1.69467 -9.36176e-07 1.50282 -9.36176e-07 1.279C -9.36176e-07 1.07116 0.0306766 0.895299 0.0920298 0.735424C 0.153383 0.57555 0.245411 0.431661 0.368117 0.319749C 0.490824 0.207837 0.628871 0.127899 0.797593 0.0799369C 0.966314 0.0319745 1.15037 -4.87899e-07 1.34977 -4.87899e-07C 1.50316 -4.87899e-07 1.6412 0.0159875 1.79458 0.0479624C 1.94797 0.0799374 2.10135 0.143888 2.2854 0.223826L 2.2854 0.623512L 2.25473 0.623512C 2.10135 0.5116 1.94797 0.431662 1.79458 0.367712C 1.6412 0.319749 1.48782 0.287775 1.31909 0.287775C 1.18105 0.287775 1.05834 0.303761 0.935636 0.351723C 0.81293 0.399686 0.7209 0.44765 0.62887 0.543575C 0.53684 0.623512 0.475489 0.735425 0.429474 0.863325C 0.383459 0.991224 0.352783 1.13511 0.352783 1.31097C 0.352783 1.48683 0.383459 1.63072 0.429474 1.75862C 0.475489 1.88652 0.552179 1.98245 0.62887 2.06239C 0.7209 2.14232 0.81293 2.20627 0.935636 2.23825C 1.05834 2.27022 1.18105 2.3022 1.30375 2.3022C 1.48781 2.3022 1.6412 2.27022 1.80992 2.22226C 1.9633 2.1743 2.11669 2.07837 2.23939 1.98245L 2.27007 1.98245L 2.27007 2.35016L 2.30074 2.35016Z"/>
<path id="path19_fill" d="M 2.23939 0.335736C 2.34676 0.447649 2.43879 0.57555 2.50014 0.751412C 2.5615 0.911287 2.59217 1.10314 2.59217 1.29498C 2.59217 1.50282 2.5615 1.67869 2.50014 1.83856C 2.43879 1.99844 2.34676 2.14232 2.23939 2.23825C 2.13202 2.35016 1.99398 2.4301 1.8406 2.49405C 1.68721 2.558 1.50315 2.57398 1.30376 2.57398C 1.10436 2.57398 0.935638 2.54201 0.766917 2.49405C 0.613534 2.4301 0.475487 2.35016 0.352781 2.23825C 0.245413 2.12633 0.153381 1.99844 0.0920279 1.83856C 0.0306747 1.67869 1.87235e-06 1.50282 1.87235e-06 1.29498C 1.87235e-06 1.08715 0.0306747 0.911287 0.0920279 0.751412C 0.153381 0.591537 0.245413 0.447649 0.352781 0.335736C 0.460149 0.223824 0.598195 0.143888 0.766917 0.0799383C 0.935638 0.0159884 1.10436 9.75798e-07 1.30376 9.75798e-07C 1.50315 9.75798e-07 1.68721 0.0319759 1.8406 0.0799383C 1.99398 0.127901 2.13202 0.223824 2.23939 0.335736ZM 2.20872 1.29498C 2.20872 0.975235 2.13202 0.719436 1.9633 0.543574C 1.79458 0.367712 1.57985 0.287774 1.30376 0.287774C 1.02767 0.287774 0.797591 0.367712 0.644208 0.543574C 0.490825 0.719436 0.398794 0.975235 0.398794 1.29498C 0.398794 1.61473 0.475486 1.87053 0.644208 2.0464C 0.812929 2.22226 1.02767 2.3022 1.30376 2.3022C 1.57985 2.3022 1.79458 2.22226 1.9633 2.0464C 2.11668 1.87053 2.20872 1.61473 2.20872 1.29498Z"/>
<path id="path20_fill" d="M 2.13203 2.49405L 1.67188 2.49405L 0.352782 0.271788L 0.352782 2.49405L -1.87235e-06 2.49405L -1.87235e-06 -9.75798e-07L 0.567517 -9.75798e-07L 1.7639 2.03041L 1.7639 -9.75798e-07L 2.10135 -9.75798e-07L 2.10135 2.49405L 2.13203 2.49405Z"/>
<path id="path21_fill" d="M 2.3621 0.287775L 1.36511 0.287775L 1.36511 2.47806L 0.99699 2.47806L 0.99699 0.287775L 0 0.287775L 0 0L 2.34676 0L 2.34676 0.287775L 2.3621 0.287775Z"/>
<path id="path22_fill" d="M 1.82526 2.49405L -1.87235e-06 2.49405L -1.87235e-06 -9.75798e-07L 1.82526 -9.75798e-07L 1.82526 0.287774L 0.368121 0.287774L 0.368121 0.975236L 1.82526 0.975236L 1.82526 1.26301L 0.368121 1.26301L 0.368121 2.19029L 1.82526 2.19029L 1.82526 2.49405Z"/>
<path id="path23_fill" d="M 2.11668 2.49405L 1.65653 2.49405L 0.337444 0.271788L 0.337444 2.49405L 0 2.49405L 0 -9.75798e-07L 0.567519 -9.75798e-07L 1.7639 2.03041L 1.7639 -9.75798e-07L 2.10135 -9.75798e-07L 2.10135 2.49405L 2.11668 2.49405Z"/>
</defs>
</svg>
