<svg width="31" height="31" viewBox="0 0 31 31" fill="none" xmlns="http://www.w3.org/2000/svg">
<path d="M7.44033 22.0095C6.66515 22.0095 6.00643 22.2807 5.46388 22.8232C4.92154 23.3661 4.65016 24.0247 4.65016 24.7999C4.65016 25.5751 4.92133 26.2337 5.46388 26.7767C6.00663 27.3192 6.66536 27.5904 7.44033 27.5904C8.20247 27.5904 8.85787 27.3192 9.40694 26.7767C9.95579 26.2344 10.2302 25.5751 10.2302 24.7999C10.2302 24.0247 9.95586 23.3666 9.40694 22.8232C8.85781 22.2812 8.20247 22.0095 7.44033 22.0095Z" fill="white"/>
<path d="M6.82035 16.1198C6.82035 15.2673 6.51694 14.5378 5.90979 13.9301C5.30271 13.3231 4.5728 13.0196 3.72033 13.0196C2.86779 13.0196 2.13802 13.3231 1.53087 13.9301C0.92385 14.5373 0.620377 15.2671 0.620377 16.1198C0.620377 16.9722 0.923783 17.7016 1.53087 18.3089C2.13802 18.9162 2.86779 19.2197 3.72033 19.2197C4.5728 19.2197 5.30271 18.9162 5.90979 18.3089C6.51694 17.702 6.82035 16.9722 6.82035 16.1198Z" fill="white"/>
<path d="M24.8 8.99018C25.2259 8.99018 25.5914 8.83818 25.8946 8.53477C26.1981 8.23109 26.3502 7.86607 26.3502 7.4399C26.3502 7.01353 26.1981 6.64878 25.8946 6.34531C25.5912 6.04163 25.2259 5.88989 24.8 5.88989C24.3737 5.88989 24.0086 6.0419 23.705 6.34531C23.4017 6.64885 23.2499 7.01353 23.2499 7.4399C23.2499 7.86627 23.4017 8.23109 23.705 8.53477C24.0086 8.83845 24.3737 8.99018 24.8 8.99018Z" fill="white"/>
<path d="M7.44052 4.03015C6.49745 4.03015 5.69344 4.36281 5.0282 5.02791C4.36289 5.69301 4.03044 6.4971 4.03044 7.43996C4.03044 8.38316 4.36289 9.1869 5.0282 9.85228C5.69364 10.5176 6.49766 10.8502 7.44052 10.8502C8.38338 10.8502 9.18746 10.5174 9.85256 9.85228C10.5177 9.1869 10.8503 8.38295 10.8503 7.43996C10.8503 6.4971 10.5177 5.69301 9.85256 5.02791C9.18746 4.36281 8.38338 4.03015 7.44052 4.03015Z" fill="white"/>
<path d="M29.8373 14.8022C29.4758 14.4405 29.0366 14.2598 28.5202 14.2598C28.0032 14.2598 27.5641 14.4405 27.2025 14.8022C26.8411 15.1639 26.6605 15.6031 26.6605 16.1201C26.6605 16.6365 26.8411 17.0764 27.2025 17.4373C27.5643 17.7991 28.0032 17.9798 28.5202 17.9798C29.0366 17.9798 29.476 17.7991 29.8373 17.4373C30.1992 17.076 30.3796 16.6365 30.3796 16.1201C30.3796 15.6034 30.1994 15.1641 29.8373 14.8022Z" fill="white"/>
<path d="M24.8 22.6298C24.2055 22.6298 23.6953 22.8428 23.2689 23.2691C22.843 23.695 22.6298 24.2055 22.6298 24.8C22.6298 25.3941 22.843 25.9045 23.2689 26.331C23.6953 26.7573 24.2056 26.97 24.8 26.97C25.3941 26.97 25.9042 26.7568 26.3306 26.331C26.757 25.9046 26.97 25.3943 26.97 24.8C26.97 24.2055 26.757 23.6956 26.3306 23.2691C25.9043 22.8427 25.3941 22.6298 24.8 22.6298Z" fill="white"/>
<path d="M16.1201 26.0394C15.4356 26.0394 14.851 26.282 14.3663 26.7665C13.8822 27.251 13.6399 27.8352 13.6399 28.5198C13.6399 29.2045 13.8819 29.7888 14.3663 30.2731C14.851 30.7576 15.4353 31.0001 16.1201 31.0001C16.8048 31.0001 17.3891 30.7576 17.8735 30.2731C18.358 29.7888 18.6002 29.2045 18.6002 28.5198C18.6002 27.8352 18.358 27.251 17.8735 26.7665C17.3891 26.282 16.8048 26.0394 16.1201 26.0394Z" fill="white"/>
<path d="M16.1201 0C15.087 0 14.2082 0.361495 13.4848 1.08482C12.7616 1.80822 12.4 2.68675 12.4 3.72C12.4 4.75332 12.7615 5.63144 13.4848 6.3549C14.2082 7.07809 15.0868 7.43979 16.1201 7.43979C17.1538 7.43979 18.0319 7.0783 18.755 6.3549C19.4782 5.63177 19.8398 4.75332 19.8398 3.72C19.8398 2.68682 19.4782 1.80849 18.755 1.08482C18.0319 0.361698 17.1538 0 16.1201 0Z" fill="white"/>
</svg>
