<svg xmlns="http://www.w3.org/2000/svg" xmlns:xlink="http://www.w3.org/1999/xlink" width="355" height="310" viewBox="0 0 355 310">
    <defs>
        <path id="a" d="M145.322.165v16.04H.176V.164z"/>
        <path id="c" d="M.5.607h114.635v137.62H.5V.607z"/>
        <path id="e" d="M0 .058v83.643h63.638V.058H0z"/>
    </defs>
    <g fill="none" fill-rule="evenodd">
        <g transform="translate(143.33 293.188)">
            <mask id="b" fill="#fff">
                <use xlink:href="#a"/>
            </mask>
            <path fill="#F2F2F2" d="M145.323 8.184c0 4.43-32.492 8.02-72.574 8.02-40.081 0-72.573-3.59-72.573-8.02C.176 3.756 32.668.165 72.749.165c40.082 0 72.574 3.59 72.574 8.02" mask="url(#b)"/>
        </g>
        <path fill="#F6F6F6" d="M253.267 181.715l-11.568-2.138s1.386-4.568 3.37-13.305l11.159 2.355c-.922 4.175-1.902 8.52-2.96 13.088"/>
        <path fill="#FDDCBE" d="M245.07 166.273c3.33-14.663 9.208-56.05 12.197-92.374 0 0 .503-3.086 1.855-2.782 1.807.408 1.43 2.678 1.224 3.53.229-.774.963-2.725 2.437-2.33 1.486.398 1.129 2.415.942 3.157l.02.004c.29-.76 1.262-2.853 3.015-2.356 1.321.374 1.29 1.636 1.076 2.545-.043.13-.078.258-.105.381.037-.116.072-.244.105-.381.293-.877.981-1.796 2.078-1.595 1.216.286.65 3.336.65 3.336-.938 5.117-3.591 42.542-14.336 91.218l-11.158-2.353z"/>
        <path fill="#E6E6E6" d="M245.07 166.273c1.112-4.902 2.51-12.799 3.99-22.484 1.822 4.537 5.191 13.248 7.819 21.842-.216.996-.43 1.99-.651 2.995-.922 4.176-1.901 8.522-2.96 13.09l-11.569-2.14s1.386-4.567 3.37-13.303"/>
        <path fill="#FDDCBE" d="M252.564 170.65s-3.878-121.565-95.15-76.624c0 0-15.383 30.435-11.053 87.787 72.625 8.391 106.203-11.162 106.203-11.162"/>
        <g transform="translate(126.96 43.632)">
            <mask id="d" fill="#fff">
                <use xlink:href="#c"/>
            </mask>
            <path fill="#574939" d="M103.951.607s50.368 68.81-62.677 72.428l.193 21.856s-10.54-8.387-12.183 2.033c-1.64 10.419 11.856 5.554 11.856 5.554s-9.414 27.57-21.344 35.75c0 0-43.08-90.483-.499-92.948 0 0-.01-16.185 22.544-26.277C74.014 4.608 94.713 39.813 103.95.607" mask="url(#d)"/>
        </g>
        <path fill="#574939" d="M160.497 244.691l3.525 26.898-2.217 29.653s37.799 10.118 28.272-4.644c-8.799-13.633-22.53-2.306-22.53-2.306l5.396-23.986.894-18.427s38.275 2.336 71.257-7.12l1.93 21.503-4.985 30.986s34.988 11.627 25.3-4.477c-5.369-8.927-18.565-3.325-18.565-3.325l7.008-23.228 1.054-31.546-96.34 10.019z"/>
        <path fill="#F6F6F6" d="M252.564 170.65l4.272 64.022s-39.444 11.524-96.339 10.02l-14.136-62.88s65.788 5.79 106.203-11.161"/>
        <path fill="#EC7D86" d="M230.225 150.06s-19.697 1.646-31.236 6.837c0 0 .784 15.95 19.127 12.48 18.155-3.432 12.11-19.316 12.11-19.316"/>
        <path fill="#F6F6F6" d="M149.426 196.014l9.337-7.093s-3.325-3.451-9.09-10.351l-8.873 7.1c2.733 3.31 5.593 6.746 8.626 10.344"/>
        <g transform="translate(86.036 101.97)">
            <mask id="f" fill="#fff">
                <use xlink:href="#e"/>
            </mask>
            <path fill="#FDDCBE" d="M63.638 76.6C53.962 65.019 30.743 32.94 11.465 1.892c0 0-1.86-2.527-2.926-1.648-1.425 1.173-.05 3.028.523 3.694-.559-.585-2.105-1.997-3.24-.984-1.141 1.02.099 2.66.605 3.237l-.015.012c-.607-.548-2.432-1.977-3.767-.75-1.007.927-.402 2.04.205 2.753.098.096.188.194.268.293a5.238 5.238 0 0 1-.268-.293c-.662-.65-1.695-1.162-2.582-.492-.954.801.946 3.267.946 3.267 3.177 4.142 21.708 34.134 53.55 72.72l8.874-7.101z" mask="url(#f)"/>
        </g>
        <path fill="#574939" d="M193.047 138.567c.747 3.83-.262 7.243-2.254 7.623-1.991.381-4.21-2.415-4.958-6.246-.747-3.83.263-7.243 2.254-7.623 1.992-.38 4.212 2.416 4.958 6.246M238.073 129.966c.747 3.83-.262 7.243-2.254 7.623-1.991.381-4.21-2.415-4.958-6.246-.746-3.829.263-7.243 2.254-7.623 1.992-.38 4.212 2.416 4.958 6.246"/>
        <g>
            <path fill="#FCCB1F" d="M74.036 123.735c3.473-1.108 6.692-2.656 9.739-4.557 4.711-2.94 8.181-7.122 11.517-11.421 4.22-5.44 7.674-11.352 10.572-17.58 1.196-2.571 2.295-5.194 3.17-7.902.192-.598.159-.915-.537-1.08-.918-.219-1.814-.527-2.713-.82-.375-.123-.663-.137-.961.194-2.92 3.242-6.588 4.955-10.968 5.178-.385.02-.562.172-.706.52-2.088 5.045-4.15 10.1-6.389 15.083-1.926 4.288-3.953 8.526-6.272 12.617-1.923 3.394-3.902 6.757-6.452 9.768m42.568-46.126l-2.34 7.653c-.217.029-.282.198-.337.37-.494 1.544-1.19 3.007-1.809 4.501-2.48 5.985-5.503 11.683-9.147 17.04-3.713 5.456-7.781 10.636-13.186 14.573-5.403 3.934-11.544 6.396-17.855 8.52-5.488 1.848-11.28 2.613-16.703 4.72-1.645.639-2.623 1.556-3.123 3.093-.265.813-.358 1.683-.515 2.53-.221 1.198.067 2.22.849 3.215 1.234 1.568.62 3.688-1.213 4.5-.339.15-.644.29-.86.6-1.31 1.89-2.743 3.725-2.19 6.276.192.889-.178 1.485-1.149 1.569-.521.045-.665.248-.522.766 1.563 5.645 3.619 11.057 7.588 15.547 1.635 1.85 3.44 3.529 5.718 4.582 1.704.79 1.754.813 1.206 2.57-7.023-2.138-14.048-4.268-21.07-6.413-4.448-1.36-8.89-2.74-13.334-4.11.108-.957.667-1.539 1.527-1.93 4.534-2.06 7.671-5.54 9.953-9.837.566-1.066 1.182-2.157 1.27-3.41.06-.845.277-1.62.748-2.327 1.598-2.405 2.119-5.038 1.696-7.89-.117-.793.08-1.525.573-2.224.515-.73 1.445-.988 1.882-1.748 1.407-2.442 2.649-4.936 2.504-7.88-.362-7.366-.238-14.712.61-22.043.768-6.646 2.132-13.158 4.004-19.57.201-.691.427-1.378.575-2.082.95-4.522 2.813-8.75 4.227-13.122.397-1.228.745-2.481 1.23-3.681 1.491-3.686 3.004-7.363 4.508-11.043 11.934 3.637 23.866 7.28 35.804 10.9.742.225.663.468.343 1.043-1.188 2.135-2.323 4.3-3.063 6.645-.19.605-.17.859.588.719 1.966-.363 3.639-1.191 4.85-2.807.67-.894 1.289-1.826 1.632-2.898.306-.956.76-1.184 1.81-.841 4.22 1.374 8.478 2.627 12.721 3.924"/>
            <path fill="#FCCC21" d="M31.025 110.816l.203.135-.027-.23c-.077-1.037-.202-2.074-.224-3.112-.183-8.92 1.18-17.671 2.824-26.388.739-3.92 1.547-7.827 2.37-11.73.164-.777-.04-1.251-.66-1.726-2.7-2.062-4.898-4.608-5.41-7.988-.374-2.466-1.68-3.33-3.84-3.744-.743-.143-1.009-.064-1.201.665-.783 2.957-1.374 5.949-1.85 8.97-1.225 7.766-1.377 15.554-.721 23.396.678 8.111 3.526 15.33 8.536 21.752zm-20.683 53.926c.49-1.658.577-1.769 1.902-1.54 3.512.607 6.856-.08 10.12-1.242 4.788-1.706 8.799-4.655 12.621-7.893.455-.385.428-.642-.008-.995-.727-.585-.684-1.313-.076-1.869 1.975-1.81 1.641-4.231 1.85-6.52.03-.341-.202-.514-.364-.746-1.25-1.798-.583-3.905 1.47-4.663 2.165-.8 4.246-4.66 3.706-6.913a2.365 2.365 0 0 0-.419-.87c-2.017-2.596-3.996-5.21-6.286-7.601-5.007-5.227-9.345-10.965-12.93-17.26-3.976-6.98-5.357-14.571-5.674-22.426-.282-6.987.263-13.915 1.502-20.79.409-2.265.801-4.531 1.399-6.756.046-.175.09-.35-.073-.496l2.34-7.653 12.103 3.7c1.902.58 1.858.573 1.525 2.504-.572 3.327.218 6.19 3.163 8.388.125-.41.228-.741.328-1.074.709-2.354.957-4.786 1.16-7.221.048-.576.193-.663.709-.5 2.426.77 4.859 1.516 7.29 2.27l-.738 2.46c-1.304-.688-2.26-1.914-3.846-2.557.929 1.96 1.72 3.735 2.611 5.46.38.737.257 1.247-.245 1.83-1.055 1.227-2.065 2.493-3.208 3.882 1.103.04 1.798-.655 2.664-.677-1.261 4.457-2.234 8.98-3.198 13.508a246.98 246.98 0 0 0-1.782 9.069c-.762 4.372-1.377 8.771-1.782 13.195-.408 4.475-.707 8.95.035 13.433.902 5.455 2.792 10.577 5.348 15.47.458.877.495 1.69.263 2.583-.39 1.508-1.123 2.866-1.85 4.228-.327.612-.771 1.078-1.36 1.485-1.304.898-1.859 2.187-1.499 3.757.591 2.572.193 4.954-1.2 7.185-.55.882-1.188 1.751-.666 2.902.076.167.026.443-.062.622-1.61 3.25-3.811 6.007-6.949 7.928-2.956 1.81-6.305 2.677-9.566 3.75-.716.235-1.346.537-1.589 1.317l-8.74-2.664z"/>
            <path fill="#FEFEFE" d="M48.367 60.193l-1.405-1.157c-1.303-.687-2.26-1.914-3.846-2.557.929 1.96 1.72 3.735 2.612 5.46.38.737.256 1.247-.246 1.83-1.056 1.227-2.065 2.493-3.208 3.882 1.103.04 1.798-.655 2.664-.677.863-.615 1.92-.808 2.847-1.281.459-.234.712.018 1.002.343a244.82 244.82 0 0 0 3.299 3.608c.207.224.346.55.878.595-.463-1.713-.799-3.401-1.386-5-.548-1.489-.357-2.68.676-3.85.274-.31 2.698-2.644 2.698-2.644l-1.893-.53c-1.433.827-2.675 1.558-3.934 2.26-.305.17-.537-.102-.758-.282"/>
            <path fill="#252525" d="M62.32 190.37c.06.163.072.384.188.482 1.738 1.476.962 3.062.25 4.648L.348 176.418c.104-.413.194-.83.314-1.24.35-1.192.77-2.312 2.314-2.388.22-.01.429-.226.643-.347 10.183 3.113 20.364 6.228 30.548 9.338 9.384 2.866 18.77 5.726 28.154 8.589"/>
            <path fill="#FDDA5F" d="M44.938 66.974c.862-.615 1.919-.808 2.847-1.28.458-.235.713.017 1.003.342a247.688 247.688 0 0 0 3.297 3.608c.208.224.347.55.88.595-.464-1.713-.8-3.401-1.388-5-.547-1.489-.356-2.68.676-3.85.592-.67 2.7-2.644 2.7-2.644 2.312.756 4.642 1.457 6.966 2.18-1.504 3.68-3.017 7.356-4.508 11.042-.485 1.2-.833 2.453-1.23 3.681-1.414 4.372-3.278 8.6-4.227 13.123-.148.702-.374 1.39-.575 2.08-1.872 6.413-3.236 12.925-4.005 19.57-.847 7.332-.971 14.678-.609 22.043.145 2.945-1.097 5.44-2.504 7.881-.437.76-1.367 1.017-1.882 1.748-.494.698-.69 1.431-.573 2.223.423 2.852-.098 5.486-1.696 7.89-.47.709-.688 1.483-.747 2.328-.088 1.253-.705 2.343-1.272 3.41-2.281 4.296-5.418 7.776-9.952 9.837-.86.391-1.419.973-1.528 1.93l-7.53-2.304c.243-.78.872-1.083 1.59-1.319 3.26-1.072 6.609-1.939 9.565-3.75 3.138-1.92 5.339-4.677 6.95-7.928.088-.178.137-.454.06-.621-.521-1.15.117-2.02.668-2.902 1.392-2.23 1.79-4.613 1.2-7.185-.361-1.57.194-2.859 1.497-3.757.59-.406 1.034-.873 1.36-1.486.728-1.36 1.46-2.719 1.851-4.227.231-.893.195-1.706-.263-2.584-2.557-4.892-4.447-10.014-5.349-15.47-.74-4.482-.443-8.957-.034-13.432.405-4.424 1.02-8.823 1.782-13.196.528-3.033 1.14-6.053 1.782-9.068.964-4.528 1.937-9.052 3.198-13.508"/>
            <path fill="#363636" d="M19.081 167.406l7.53 2.304c4.445 1.371 8.887 2.752 13.336 4.111 7.02 2.145 14.046 4.275 21.069 6.412.478.164.955.331 1.434.492 1.596.532 2.25 1.663 1.794 3.254-.611 2.14-1.28 4.261-1.924 6.39-9.385-2.862-18.77-5.722-28.154-8.588-10.183-3.11-20.365-6.225-30.548-9.338.619-2.025 1.235-4.052 1.857-6.077.597-1.94 1.727-2.521 3.714-1.927.38.114.768.202 1.153.303l8.74 2.664z"/>
            <path fill="#FDDA5F" d="M47.7 56.577l5.359 1.638c-1.433.827-2.675 1.559-3.934 2.26-.305.17-.536-.101-.757-.283-.47-.384-.938-.77-1.406-1.156l.738-2.46"/>
            <path fill="#FEFEFE" d="M31.232 110.73l.034.285c-.083-.056-.167-.112-.252-.167.07-.042.144-.082.218-.117"/>
        </g>
        <g>
            <path fill="#FCCB1F" d="M321.18 62.28c2.158-2.938 3.853-6.082 5.2-9.41 2.085-5.147 2.433-10.569 2.606-16.007.217-6.88-.464-13.691-1.779-20.431-.543-2.784-1.196-5.55-2.08-8.255-.195-.597-.41-.834-1.069-.559-.87.363-1.778.64-2.676.931-.377.122-.618.28-.664.722-.457 4.339-2.418 7.88-5.83 10.635-.3.242-.354.469-.266.835 1.276 5.308 2.58 10.609 3.696 15.954.961 4.602 1.813 9.22 2.341 13.892.438 3.876.814 7.759.52 11.693m7.33-62.327l2.606 7.566c-.16.15-.112.325-.056.497.508 1.54.805 3.131 1.182 4.703 1.511 6.299 2.414 12.684 2.614 19.159.203 6.595-.044 13.177-2.103 19.537-2.058 6.357-5.58 11.958-9.437 17.386-3.354 4.72-7.59 8.742-10.74 13.634-.955 1.483-1.207 2.8-.709 4.337.264.813.7 1.572 1.071 2.35.525 1.098 1.359 1.756 2.576 2.1 1.92.544 2.67 2.619 1.664 4.353-.187.32-.352.613-.344.99.05 2.3-.03 4.626 1.917 6.364.678.606.728 1.306-.008 1.944-.395.343-.392.591.029.926 4.581 3.649 9.426 6.817 15.276 8.116 2.41.535 4.856.832 7.319.346 1.842-.364 1.897-.374 2.485 1.369-6.938 2.4-13.873 4.805-20.814 7.196-4.398 1.515-8.803 3.01-13.204 4.513-.475-.837-.365-1.636.101-2.458 2.458-4.332 2.95-8.99 2.27-13.806-.168-1.196-.31-2.44-.974-3.505-.45-.719-.729-1.473-.765-2.322-.12-2.884-1.246-5.32-3.264-7.379-.56-.571-.832-1.28-.844-2.135-.012-.894.589-1.648.496-2.52-.297-2.802-.759-5.549-2.606-7.846-4.622-5.744-8.839-11.758-12.462-18.186-3.284-5.828-6.008-11.896-8.262-18.183-.243-.677-.464-1.366-.758-2.021-1.89-4.216-2.867-8.73-4.292-13.098-.4-1.227-.856-2.445-1.169-3.7-.96-3.858-1.897-7.721-2.843-11.582 11.793-4.072 23.587-8.14 35.373-12.227.732-.254.812-.01.89.642.294 2.425.648 4.843 1.428 7.175.201.601.367.795.898.236 1.377-1.449 2.244-3.102 2.274-5.12.017-1.118-.03-2.235-.383-3.304-.314-.953-.08-1.404.97-1.745 4.222-1.367 8.403-2.857 12.599-4.302"/>
            <path fill="#FCCC21" d="M278.79 77.11l.243-.01a43.144 43.144 0 0 1-.157-.17c-.672-.794-1.383-1.56-2.01-2.386-5.39-7.107-9.43-14.987-13.225-23.003-1.705-3.605-3.348-7.24-4.976-10.88-.324-.726-.767-.99-1.548-1.009-3.397-.081-6.671-.849-9.072-3.281-1.752-1.776-3.315-1.706-5.308-.772-.684.321-.853.541-.58 1.244 1.104 2.851 2.385 5.619 3.775 8.343 3.573 7.001 8.028 13.389 13.167 19.347 5.316 6.162 11.862 10.326 19.69 12.576zm14.96 55.772c-.578-1.63-.573-1.77.633-2.363 3.198-1.573 5.501-4.094 7.458-6.953 2.87-4.193 4.383-8.936 5.572-13.8.142-.58-.031-.772-.592-.8-.931-.048-1.325-.66-1.16-1.468.535-2.625-1.158-4.387-2.335-6.36-.176-.295-.465-.298-.733-.39-2.068-.72-2.766-2.817-1.55-4.637 1.282-1.918.695-6.264-1.065-7.769a2.365 2.365 0 0 0-.85-.457c-3.159-.915-6.296-1.865-9.554-2.453-7.123-1.286-14.004-3.377-20.604-6.362-7.32-3.309-12.898-8.637-17.771-14.804-4.335-5.485-7.965-11.41-11.004-17.699-1-2.072-2.015-4.135-2.84-6.286-.064-.169-.131-.337-.35-.358l-2.604-7.565 11.966-4.122c1.88-.647 1.84-.627 2.706 1.13 1.492 3.027 3.814 4.878 7.488 4.925-.139-.404-.25-.733-.365-1.06-.81-2.322-2.04-4.435-3.306-6.523-.3-.494-.233-.65.28-.82 2.415-.805 4.822-1.63 7.232-2.45l.849 2.424c-1.46.21-2.953-.22-4.614.192 1.902 1.039 3.587 2.01 5.321 2.881.741.373.941.858.877 1.625-.133 1.612-.205 3.23-.314 5.025.916-.617 1.07-1.587 1.758-2.114 1.599 4.346 3.47 8.577 5.351 12.806a246.881 246.881 0 0 0 3.888 8.382c1.954 3.984 4.042 7.904 6.314 11.72 2.3 3.86 4.688 7.655 7.923 10.845 3.936 3.882 8.475 6.914 13.418 9.369.887.44 1.395 1.077 1.732 1.935.57 1.45.776 2.978.988 4.507.096.687.01 1.326-.228 2-.527 1.493-.218 2.862.996 3.92 1.99 1.733 3.068 3.894 3.252 6.516.073 1.038.068 2.116 1.167 2.74.159.09.281.342.315.539.607 3.576.447 7.099-.962 10.496-1.328 3.202-3.529 5.872-5.536 8.655-.442.612-.773 1.227-.511 2l-8.637 2.981z"/>
            <path fill="#FEFEFE" d="M263.068 25.97l-1.818-.108c-1.458.21-2.952-.22-4.614.192 1.904 1.039 3.588 2.01 5.322 2.881.74.373.94.858.878 1.625-.134 1.612-.206 3.23-.315 5.025.916-.617 1.07-1.587 1.758-2.113.336-1.005 1.077-1.782 1.55-2.71.234-.459.587-.404 1.012-.311 1.593.347 3.19.664 4.79.98.299.058.603.241 1.06-.036-1.381-1.113-2.645-2.281-4.06-3.229-1.319-.882-1.864-1.958-1.716-3.51.04-.413.629-3.726.629-3.726l-1.843.684c-.673 1.511-1.248 2.833-1.855 4.14-.147.316-.493.233-.778.217"/>
            <path fill="#252525" d="M350.864 123.062c.145.097.283.269.436.28 2.273.172 2.577 1.91 2.933 3.612L292.525 148.2c-.158-.395-.33-.786-.474-1.187-.418-1.17-.736-2.323.468-3.292.172-.138.214-.435.317-.659 10.068-3.467 20.136-6.931 30.202-10.4 9.276-3.198 18.55-6.4 27.826-9.601"/>
            <path fill="#FDDA5F" d="M264.279 33.472c.336-1.005 1.077-1.782 1.55-2.71.234-.458.587-.404 1.013-.311a247.7 247.7 0 0 0 4.788.98c.3.059.604.241 1.061-.035-1.381-1.114-2.645-2.282-4.06-3.23-1.318-.882-1.865-1.958-1.716-3.51.085-.89.629-3.726.629-3.726 2.315-.747 4.613-1.55 6.918-2.332.945 3.861 1.882 7.724 2.842 11.58.313 1.257.768 2.475 1.169 3.702 1.425 4.367 2.403 8.883 4.292 13.098.294.655.515 1.344.758 2.02 2.254 6.288 4.978 12.356 8.262 18.183 3.623 6.429 7.84 12.443 12.462 18.187 1.847 2.297 2.31 5.045 2.606 7.847.093.87-.508 1.625-.496 2.52.011.854.283 1.563.844 2.134 2.018 2.059 3.144 4.495 3.265 7.38.035.848.315 1.603.763 2.321.665 1.065.807 2.31.976 3.505.679 4.816.187 9.474-2.27 13.806-.467.822-.577 1.621-.103 2.458l-7.446 2.562c-.262-.773.07-1.388.51-2 2.008-2.783 4.209-5.452 5.537-8.655 1.409-3.397 1.57-6.92.962-10.497-.034-.195-.156-.448-.316-.538-1.098-.624-1.093-1.702-1.166-2.74-.184-2.622-1.262-4.783-3.252-6.516-1.214-1.058-1.523-2.427-.996-3.919.238-.675.323-1.314.228-2.001-.212-1.529-.417-3.058-.988-4.507-.338-.858-.845-1.495-1.732-1.935-4.943-2.454-9.483-5.487-13.419-9.369-3.234-3.19-5.623-6.985-7.922-10.845-2.272-3.816-4.36-7.736-6.314-11.72a246.759 246.759 0 0 1-3.888-8.382c-1.881-4.23-3.752-8.46-5.351-12.805"/>
            <path fill="#363636" d="M302.386 129.901l7.446-2.562c4.402-1.503 8.807-2.997 13.205-4.513 6.94-2.39 13.877-4.797 20.814-7.196.483-.149.967-.294 1.45-.446 1.603-.507 2.797.023 3.364 1.579.762 2.089 1.469 4.198 2.199 6.3-9.275 3.2-18.55 6.402-27.825 9.6-10.067 3.47-20.136 6.934-30.203 10.4-.69-2.001-1.383-4.003-2.069-6.006-.658-1.92-.085-3.054 1.872-3.742.374-.131.74-.288 1.11-.433l8.637-2.98z"/>
            <path fill="#FDDA5F" d="M260.403 23.439l5.298-1.825c-.673 1.512-1.248 2.833-1.854 4.14-.148.317-.494.233-.78.216-.605-.034-1.21-.072-1.817-.109l-.847-2.422"/>
            <path fill="#FEFEFE" d="M278.907 76.918l.194.21c-.1.004-.2.008-.301.014.032-.076.068-.15.107-.224"/>
        </g>
    </g>
</svg>
