<svg xmlns="http://www.w3.org/2000/svg" width="719" height="1075" viewBox="0 0 719 1075">
    <path fill="#DFEAFD" fill-rule="evenodd" d="M269.293 903.51v.913h236.498c3.48 0 7.145.094 10.896.18l12.6.093c29.753 0 109.004 0 109.004-110.484 0-65.02-35.606-101.55-106-108.847v-1.022h-13.526a294.534 294.534 0 0 0-14.41-.343H217v.343h-26.064c-61.743 0-84.792-16.452-84.792-60.859 0-57.12 22.6-61.24 59.86-61.24 4.023 0 7.958.09 11.883.179 3.932 0 7.865.087 11.613.087h37.396v.178h295.326c3.516 0 7.143 0 10.87.104 4.153 0 8.418.107 12.682.107 29.833 0 109.226 0 109.226-110.508 0-73.103-45.183-110.188-134.164-110.188l-315.58.106v.136h-71.32c-61.743 0-84.792-16.453-84.792-60.86 0-57.12 22.6-61.24 59.86-61.24 4.023 0 7.958.09 11.883.18 3.932 0 7.865.087 11.613.087h196.193v-.127h256.6c3.517 0 7.144 0 10.87.104 4.154 0 8.419.107 12.683.107 29.833 0 109.226 0 109.226-110.508C718.072 37.086 672.889 0 583.908 0L319.663.107v49.207h264.245c61.808 0 84.827 16.546 84.827 60.874 0 57.12-22.593 61.273-59.889 61.273-4.051 0-7.991-.104-11.832-.21-4.051 0-7.991-.105-11.72-.105H178.327v.228H132.5c-3.48 0-7.145-.094-10.896-.18l-12.6-.093C79.251 171.101 0 171.101 0 281.586c0 73.122 45.033 110.211 133.936 110.211h300.81v-.28h86.09c61.808 0 84.827 16.545 84.827 60.874 0 57.12-22.593 61.273-59.889 61.273-4.051 0-7.991-.105-11.832-.211-4.051 0-7.991-.104-11.72-.104h-26.224v-.076H189.5c-3.48 0-7.145-.094-10.896-.18l-12.6-.093C136.251 513 57 513 57 623.484c0 73.123 45.033 110.212 133.936 110.212h327.935c50.878 2.565 70.277 19.777 70.277 60.516 0 57.12-22.6 61.24-59.861 61.24-4.023 0-7.958-.09-11.883-.179-3.932 0-7.865-.087-11.613-.087h-19.793v-.913H269.5c-3.48 0-7.145-.094-10.896-.18l-12.6-.093C216.251 854 137 854 137 964.484c0 73.123 45.033 110.212 133.936 110.212h117.355v-49.353H270.936c-61.743 0-84.792-16.452-84.792-60.859 0-57.12 22.6-61.24 59.86-61.24 4.023 0 7.958.09 11.883.179 3.86 0 7.72.084 11.406.087z" opacity=".501"/>
</svg>
