<svg xmlns="http://www.w3.org/2000/svg" xmlns:xlink="http://www.w3.org/1999/xlink" width="234" height="230" viewBox="0 0 234 230">
    <defs>
        <path id="a" d="M22.415.103H.033v17.21h22.382V.104z"/>
        <path id="c" d="M.403.579H0V.172h.403V.58z"/>
    </defs>
    <g fill="none" fill-rule="evenodd">
        <path fill="#FDDCBE" d="M67.831 90.091l20.942 8.987-2.2 6.984-22.88-9.952z"/>
        <path fill="#E0B062" d="M166.7 27.95L29.957 132.085s-.701-5.418-2.665-8.043l134.607-102.51 4.8 6.418z"/>
        <path fill="#F9C36C" d="M157.097 15.114l4.802 6.418-134.607 102.51c-1.964-2.626-6.937-4.792-6.937-4.792L157.097 15.114z"/>
        <path fill="#EFA734" d="M20.355 119.25s.143-2.61-1.15-4.338c-1.13-1.51-3.207-2.142-3.708-2.276.226-.242.454-.459.668-.622L152.128 8.471l4.97 6.643L20.354 119.25z"/>
        <path fill="#F1F2F2" d="M101.298 47.181l29.358-22.357c6.633-1.51 14.019-2.487 21.485.535 8.674 3.511 13.354 8.047 15.878 12.012l-79.601 60.62c.4-2.583 4.892-29.658 19.33-43.796-2.83-2.203-4.929-4.57-6.45-7.014"/>
        <path fill="#2A180C" d="M1.79 142.434l4.063-9.155 3.38 4.516-7.434 5.66c-.178-.237-.195-.597-.01-1.02"/>
        <path fill="#130B06" d="M12.61 142.312l-9.84 1.433c-.455.064-.794-.051-.971-.29l7.433-5.66 3.379 4.517z"/>
        <g transform="matrix(-1 0 0 1 179.88 .153)">
            <mask id="b" fill="#fff">
                <use xlink:href="#a"/>
            </mask>
            <path fill="#E15E18" d="M22.415 4.253l-1.802-1.372C13.463-2.563 5.43.496.033 7.71l12.611 9.604 9.77-13.06z" mask="url(#b)"/>
        </g>
        <path fill="#C95514" d="M179.847 7.863c5.397 7.213 6.11 15.847-1.039 21.292l-1.801 1.372-9.77-13.06 12.61-9.604z"/>
        <path fill="#D1CEC0" d="M161.899 21.532l5.337-4.065 9.77 13.06-5.337 4.065-4.97-6.642-4.8-6.418z"/>
        <path fill="#EFECDA" d="M161.899 21.532l-4.801-6.418-4.97-6.643 5.338-4.064 9.77 13.06-5.337 4.065z"/>
        <path fill="#F9D2A7" d="M20.355 119.25s4.972 2.166 6.937 4.792l-18.06 13.753-3.379-4.516 8.302-18.705c.264-.601.795-1.351 1.342-1.938.501.134 2.577.766 3.708 2.276 1.293 1.728 1.15 4.338 1.15 4.338"/>
        <path fill="#E3BE97" d="M27.292 124.042c1.964 2.625 2.665 8.043 2.665 8.043s2.528.578 3.82 2.306c1.131 1.511 1.163 3.698 1.154 4.221-.71.37-1.57.68-2.215.771l-20.105 2.929-3.379-4.517 18.06-13.753z"/>
        <path fill="#C98213" d="M29.957 132.085L166.7 27.95l4.969 6.642L35.706 138.135a5.579 5.579 0 0 1-.775.477c.01-.523-.023-2.71-1.154-4.221-1.293-1.728-3.82-2.306-3.82-2.306"/>
        <path fill="#3B2918" d="M53.67 144.369c3.37-7.329 9.654 6.058 9.654 6.058s-.812-10.576 2.3-13.65c2.98-2.944 8.587 2.43 10.079 3.796l65.669 24.582-4.163 10.59 7.927.175s4.01 12.933-2.148 12.867c-6.158-.066-.9-8.417-.9-8.417s-6.217 2.413-10.215.596c-3.117-1.416.778-10.524 1.63-13.389-44.137-9.02-63.206-24.113-63.757-24.668 0 0-2.643 10.89-4.585 16.234 0 0-14.86-7.446-11.49-14.774"/>
        <path fill="#FDDCBE" d="M89.928 95.41s18.049-81.712 71.11-35.078c0 0 14.725 20.823 1.84 61.286-63.967-7.951-72.95-26.209-72.95-26.209"/>
        <path fill="#3B2918" d="M113.156 11.867s-37.994 44.285 40.941 57.008l-.27 17.994s8.769-4.543 8.397 3.283c-.373 7.827-8.41 2.47-8.41 2.47s1.757 21.276 9.064 28.996c0 0 45.935-65.188 13.243-71.549 0 0 1.748-13.059-17.192-22.45-21.523-10.673-44.987 14.15-45.773-15.752"/>
        <path fill="#F6F6F6" d="M89.928 95.41l-14.225 45.163s25.476 15.433 65.668 24.582l21.507-43.537s-51.167-9.486-72.95-26.209"/>
        <path fill="#E6E6E6" d="M79.637 128.081l1.188-3.771 70.13 6.083z"/>
        <path fill="#F6F6F6" d="M151.382 123.067l-.428 7.326-14.01-1.216.928-7.213z"/>
        <path fill="#FDDCBE" d="M58.22 115.459l79.652 6.505-.928 7.214-79.61-6.487s-2.184.037-2.17-.992c.013-1.03 1.843-.605 1.843-.605s-2.21-.165-2.054-1.288c.168-1.213 2.262-.744 2.262-.744s-2.044.007-1.93-1.216c.123-1.32 2.094-.854 2.094-.854s-1.812.025-1.795-1.02c.013-.786 2.635-.513 2.635-.513"/>
        <path fill="#3B2918" d="M134.844 83.152c-1.01 3.054-.524 5.075.756 5.506 1.28.43 2.87-.893 3.88-3.946 1.008-3.054.523-5.075-.757-5.506-1.28-.43-2.87.893-3.88 3.946M105.007 73.118c-1.009 3.054-.523 5.075.757 5.506 1.28.43 2.87-.893 3.879-3.946 1.01-3.054.524-5.075-.756-5.506-1.28-.43-2.87.893-3.88 3.946"/>
        <path fill="#EC7D86" d="M129.715 94.583c-2.219 5.938-8.79 8.938-14.675 6.698-5.886-2.239-8.859-8.868-6.64-14.806l21.315 8.108z"/>
        <g transform="matrix(-1 0 0 1 234 228.82)">
            <mask id="d" fill="#fff">
                <use xlink:href="#c"/>
            </mask>
            <path fill="#3B2918" d="M.269.185C-.171.304.073.511.024.579.727.285.227.124.269.185" mask="url(#d)"/>
        </g>
        <path fill="#3B2918" d="M228.213 226.55l.072.123-.772-.506zM222.859 224.703c.63-.192 1.919.73 2.917.93l.185-.03.33.446c-1.143-.448-2.582-1.166-3.432-1.346M219.735 224.542c.224-.103-.575-.428.68.236-.07-.009-.092-.005-.133-.007a8.35 8.35 0 0 0-.547-.23M220.207 224.688c.795.328-.583-.014 0 0M217.709 223.699l.698.4c-.184.033-.851-.187-.627-.035-.737-.348-.552-.378-.071-.365M217.06 223.185l.403.299c-.088.018-.204-.019-.403-.299M218.24 223.772l-.777-.399c.128-.022.18-.137.36.172-.03-.132.096.029.416.227M218.72 223.876c.444.066.998.203.297-.184 1.402.546 1.105.731-.297.184M222.715 224.228l.593.092.44.315c-.22-.157-1.107-.295-1.033-.407M213.022 222.365c-.02-.137.32-.175.41-.291l.517.407c-.3-.064-.85-.265-.927-.116M213.432 222.074l-.773-.422c.737.241.85.352.773.422M217.104 222.731l1.25.752-1.508-.846zM209.89 221.186l.401.344-.733-.563zM207.824 220.426c.292.27-.558.088-.227.307-.554-.225-.991-.522-1.385-.79.438.227.935.382 1.612.483M205.542 219.52c.218.116.434.264.67.423a4.06 4.06 0 0 1-.67-.424M211.25 221.266c-.08.04-.244.167-.721-.006l.398-.169.323.175"/>
        <path fill="#3B2918" d="M210.94 221.222l-.013.006-.7-.37.713.364M211.332 221.248a24.113 24.113 0 0 1-.13-.043c.062-.017.095-.018.13.043M214.887 222.18c-.44-.29-1.398-.772-.362-.62.293.27-.3.183.362.62M211.827 221.094l.887.256c-.037.051-.223.08-.006.226l-.881-.482zM211.424 220.875l.403.348-.33-.15zM207.104 219.837c-.343-.227-.751-.38-1.21-.558.512.132 1.035.289 1.524.461.045.093.217.292-.314.097M208.972 220.45l-.126-.066c.092 0 .16.013.126.066M201.27 217.677l.138-.023.006.07-.144-.047z"/>
        <path fill="#3B2918" d="M207.515 219.73c.39.091.594.227.784.374a12.572 12.572 0 0 0-.881-.363c-.02-.043-.02-.066.097-.012M204.302 218.968c.21.037.445.098.69.17-.215.005-.64-.04-.69-.17M208.718 220.4l.083.047c-.22.007-.183-.021-.083-.047"/>
        <path fill="#3B2918" d="M208.749 220.499c-.182-.13-.315-.273-.45-.407.222.129.425.258.597.385a.472.472 0 0 0-.147.022M200.427 215.77c-.004.227.913.762 1.837.844.783.447.005.924-.854 1.04.005-.097.033-.18-.784-.603.34-.005 1.997.413 1.335-.027-1.102-.507-.957-.258-1.548-.345.558-.088-1.32-.881-.943-1.166l.953.484c.039-.052-.291-.272.004-.227M203.055 218.212l.344.15c-.415-.107-.732-.127-1.318-.156-.554-.307-.65-.426-.667-.508l1.751.587-.11-.073zM204.987 218.923c-.2-.318-1.016-.712-.413-.768 1.032.38.663.44 1.25.755-1.656-.644.439.292-.815-.007.316.153.608.268.885.376-.311-.08-.614-.148-.902-.203h.043l.008.003v-.004c.081-.002.11-.01.024-.023-.005-.005-.025-.013-.034-.017 0-.035-.022-.073-.047-.11-.5-.125-.096.03.047.11.002.012.012.028.01.04h-.008l-1.636-.713c.366.095.808.259 1.588.561M213.793 220.79c-.093.002-.098.028-.113.052-.157-.103-.212-.156.113-.052"/>
        <path fill="#3B2918" d="M213.057 220.66c.111.075.182.199.587.315.367.054.035-.106.078-.173.219.143.782.453-.005.297l-.108-.071c-.702-.162-1.666-.19-1.558-.118.266-.13.489-.212 1.006-.25M208.993 219.719l-1.36-.6.778.059-.076.102c.81.234.59.316.658.439M201.125 217.722l.104.3-.692-.616zM199.32 217.078l-.004.316-.437-.406zM98.023 177.826l-.403-.328c.194.14.316.243.403.328M100.965 178.78l.059.2c-.186-.166-.252-.263-.059-.2M154.8 201.209c-.664-.032-1.435.035-1.282-.214l.262-.193c.403.234.731.345 1.02.407M124.824 188.792l.198-.005.327.407-.525-.402M124.732 187.802l-.837-.225c.195.022.464.092.837.225M81.948 171.56l-.395-.407c.745.28.376.272.395.407M180.766 210.458a8.16 8.16 0 0 1-1.333-.407c.666.118 1.234.102 1.333.407M98.337 180.63c-.292-.203-.404-.334-.373-.406.302.205.463.353.373.407M177.946 209.518c.098.01.191.03.29.045.364.172.732.337 1.197.488-.491-.069-1.037-.198-1.487-.533M23.328 150.165c-.073-.009-.157-.032-.225-.036-.003-.055.091-.023.225.036M5.465 146.053c.163.112.437.262.694.407-.132-.047-.342-.164-.694-.407M191.877 214.566c.602.24.083.073 0 0M194.16 214.445c-.115-.086-.196-.171-.183-.258.02.102.087.187.184.258M174.568 206.77l-.053-.018c.205-.005.17-.002.053.018M192.597 214.734a3.691 3.691 0 0 1-.515-.172c.086.017.243.067.515.172M192.433 214.748l.392.155c.04.087-.018.1-.392-.155"/>
        <path fill="#3B2918" d="M191.451 214.363c.219.13.428.229.631.315-.08-.019-.117-.017-.1.007l-.53-.322M54.478 162.423c-.038-.004-.081-.014-.125-.014-.488-.373-.26-.25.125.014M145.599 195.219c.027.014.039.028.063.042l-.094-.02.03-.022z"/>
        <path fill="#3B2918" d="M144.302 194.554c.49.49.835.576 1.3.679l-.683.476-.617-1.155z"/>
        <path fill="#3B2918" d="M49.786 162.48l.275.029c-.543-.28-.407-.158-.275-.028m139.39 50.74c.118.08.097.111.03.126-.069-.095-.36-.203-.699-.304.115-.032.3-.017.669.177m-1.34-.355a.194.194 0 0 1-.025-.023c-.66-.126-.425-.085.026.023m-60.715-23.774c-.179-.158-.516-.234-.913-.273.257.116.56.216.913.273m-21.767-8.597c-.262-.154-.763-.518-1.02-.448.218.4.513.355 1.02.448M90.96 175.05l1.04.154c-1.05-.755-1.935-.95-.927-.899-.112.745 3.733 1.446 3.618 2.19l.69.086c-.184-.06-.199-.112-.382-.17 1.36.12.74.839 2.373 1.324.576.15 1.001.191.65-.03l1.18.625c.365.119.32-.034-.044-.152l1.872.747-.006-.025c.23.207.782.6 1.055.78.516.076-.215-.161-.061-.203l.987.551c.492-.024-.314-.516-1.047-.755 1.228-.336.807.493 3.064.86l-.958-.45c.779-.162 1.5.264 2.706.427-.311.031-2.46-.2-1.386.39.34.064.77.193 1.334.558.094-.245.671.034 1.416.322l.066-.346c.776.39.652.535 1.076.856.915.296 1.194.11 1.483-.026 1.465.474-1.145.043.545.728 1.249.313 2.046.754 3.415 1.473.883.194-.075-.254.26-.238l.654.534c.185.06.154-.042.139-.094.593.33-.066.347.892.795.137.458 2.218.212 3.296 1.067.335.016-.074-.254.064-.347 1.583.88 1.37.719 2.62 1.582l1.251.213c-.95-.068.048.624.929 1.214-.349.008-.647.017-.84.002l1.478.737c.206.014.09-.155-.113-.384.094.067.184.13.254.182.595.079.376-.214.047-.541h-.628c-.31-.337-.587-.687-.44-.85.087.074.269.177.474.272-.08-.09-.126-.162-.068-.177.064-.016.199.115.421.29l.481-.237.033.175 2.099.506c1.311.893 2.374 1.89 4.613 2.87-.474-.474.033-.482.115-.811-.745.11-1.724-.785-2.936-1.147.633.19.55-.011.411-.121l2.01 1.072c.044-.277.519-.032 1.11.061-.6.362 1.458.913 2.264 1.382.115-.153-.03-.403-1.096-.742 1.298.033 1.285 1.145 2.54 1.229-.255-.098-.403-.121-.473-.245.546.37 2.055.779 1.763.504l-.255-.096c1.727.556 5.191 1.873 5.29 2.402.038-.05-.036-.607-.108-.732l2.521 2.567c-.135-.471 1.21-.99-.129-1.713.425.093.95.212 1.758.654-.296-.047-.882.292-.516.463 1.187-.041.8.038 2.207.145-.444-.07-.191.685.472.902-.071-.124.26-.56.042-.707l1.429 1.164c-.37-.25.101-.514.524-.546-.21.052 1.416.498 1.831.712l-.74-.116c1.876.576 1.536 1.466 3.376 2.094-.18-.198-.288-.93.668-.667.322.449 1.387 2.1 2.926 2.91l.37-.057 1.174.639c-.617-.723-2.457-2.44-3.514-3.23.738.115.263-.13 1.291.258.42-.027-.479-.443-.78-.561l2.443.763c-.229.307 1.718 1.008 1.525 1.262l-2.487-1.297c-.228.305 1.165 1.522 2.892 2.074.482.02-.108-.73-.032-.832.18.198 1.539.809 1.725.78l-.658-.443c.995.211 1.387 1.014 2.644 1.095.402.12 1.333-.023 1.33.205-.782.164-1.337 1.336-1.012 1.785.147.023 2.201.364 2.72.33.757-.076-.716-1.083-.07-1.15-.01.102.308.346.444.437.442.067-.069-.353.815.011.027.404 1.84.625.322.448.844.414.96.262 1.987.647-.409.108.657 1.1 1.503 1.516-.02-.108.218-.153.332-.171 1.814.613 2.837.8 4.52 1.398.184-.029 1.031.159.738-.115.22.148.401.346.917.54 1.11.057-1.14-.46-.248-.55-.006.227 1.243.76 1.938 1.149-.337.233-1.729-.547-2.423-.94-.156.433.973 1.347 2.661 2.172 1.36.604.704-.065.925.083 2.652.858 1.972 1.552 4.261 2.014.961.032.231-.535.492-.666-1.102-.51-1.809-.446-2.576-.732l.995.207c-.33-.22-1.065-.56-1.507-.627.811.01 4.45 1.53 6.556 2.02.327.22.915.537.582.544l-.627-.267c-.667.014 1.099.737.251.553.805.462 1.683 1.051 2.938 1.352l.337-.234c-.058.083-.857-.092-1.164-.309.457.319 2.005.23 2.415.838l-.925-.082c.81.464 1.76 1.176 2.868 1.455-.596.139-.235-.123-1.124-.028.819-.22-2.752-.952-1.525-1.052-.93.146-1.416-.3-2.565-.301.068-.093.432-.07-.487-.34a1.081 1.081 0 0 0-.165-.16c-.03-.007-.04-.01-.064-.014l.054.005c-.034-.03-.036-.034.02.002.23.031.423.038.514.005-.364-.397-1.799-.899-2.24-1.194-.551-.14.182.198-.148.205l-.659-.441c-.152.205-1.553-.122-.341.46l-1.137-.392c-.712-.108-1.647-.382-2.18-.68-.551-.14-1.26-.736-.857-.39l-1.727-.774-.037.051c-1.763-.594-3.475-1.663-5.623-1.965-.569-.27-1.153-.559-2.163-.846l-.262.13c-.733-.34-2.344-.613-2.597-.937-1.005.244-3.716-1.198-5.08-1.58l.04-.277c-.921-.314-1.774-.702-2.875-1.214l.15-.204c-.913-.542-2.577-.744-4.12-1.325.075.126.477.244.774.291-2.036-.147-3.775-1.784-5.589-2.01a2.59 2.59 0 0 0-1.016-.363.5.5 0 0 1 .1.05l-.174-.06c-.199-.026-.405-.049-.624-.086.195.007.379.021.532.053-.32-.121-.8-.326-1.26-.556l-.292.173-.108-.047c-.504-.078-.338-.253-.02-.348a4.395 4.395 0 0 1-.583-.378c-.523.26-1.212-.587-1.884-.35-.25-.324-2.358-1.024-2.46-1.552-.036.05-.187.027.07.124-.552-.143-1.103-.288-1.54-.584l-.338.232-1.018-.845c-.777-.065-1.11-.06-.492.436-1.569-.987-1.33-.64-2.646-1.53l-.001.228c-.515-.195-1.245-.766-1.616-.71-1.294-.034-5.742-2.018-8.838-2.734.789-.389-1.475-.232-1.428-.737-.223.078-.665.009-.228.305-1.466-.686-2.356-.602-3.263-1.372-.223.079.25.325.067.353-.11-.075-.437-.298-.625-.271-.184.028.18.2.397.348-1.538-.586-1.54-1.079-1.506-1.528-.853-.092-1.234-.261-1.705-.735-.32.034-.826.008.118.406-.547-.177-3.373-1.006-3.31-1.353-.2.022-.765-.25-.894-.34-1.22-.422-1.337-.431-2.518-.895l.35.066c-.33-.566-.96-.448-1.903-.845l.013.05c-2.304-.516-.901-.482-3.19-.947l.206-.203c-.014-.602-2.037-.388-3.225-1.049l.505.025c-.624-.431-2.182.019-2.897-.169-.167-.009.212.161.41.272-1.921-.35-.12-.408-1.44-.975-.312.082.161.558-.758.258-.502-.024-2.43-1.525-3.788-1.645.321-.034.64-.069.05-.398-.944-.399-2.777-.444-3.493-1.182-.135-.008-.194.01-.21.041-.696-.377-2.32-1.053-2.68-1.442-.984.6-4.415-2.081-4.68-1.293l-2.242-.867.03.101c-1.461-.476-1.904-.85-2.344-1.223-.352-.068-.135.093-.122.145-2.165-.613-2.362-.726-3.988-1.764l-.275.186c-.426-.323-3.19-.722-5.15-1.777.01.036.035.101.186.197-2.217-1.152-5.82-1.342-6.338-2.578l-1.452-.792c2.01.658-.151-.51.72-.362-.76-.341-2.118-.463-1.176-.063l.167.008c.178.611-2.528-.735-2.593-.388-3.898-1.459-7.802-2.59-11.465-3.923l.557-.218-1.284-.45c-.366-.036-.555.127.36.448-.555.035-1.461-.741-1.458-.832-1.836-.507.538.693-.011.5l-.732-.302.183.018c-.546-.375-.54-.556-1.641-.942-.72-.18-.439.1-.716.014-.009.027-.105.005-.422-.144l-1.619-.561.75-.059c-.66-.408-1.517-.542-.654-.603-1.275.114-6.062-2.028-6.788-2.115-.92-.583-1.906-.943-3.135-1.368.326.051.628-.214-.439-.562.136.827-2.034-.414-3.064-.235.879-.046-2.961-1.185-1.6-1.209-.898-.269-.147.237-.872.152-1.993-1.037-4.665-1.534-7.214-2.58-.007-.105.475-.082-.03-.422l-1.527-.056c-.493-.233-.28-.693-1.325-.727.159-.026.397-.067.065-.223-5.216-1.438-10.202-4.192-15.637-5.275.759.084.301-.105-.227-.308.36.086.073-.225.185-.322l-2.273-.46c-.269-.483-2.297-.877-2.404-1.284l.66.311c-.766-.717 1.577-.377 1.623-.916.855.81 2.907.35 4.344 1.587.403.037-.256-.273-.018-.314.345.367.838.599 1.816.855l-.088-.092c2.632 1.035 3.844 1.25 6.873 2.217l-.31.16c.652.205.815.179 1.136.23.601.639-1.804-.646-1.283.006 1.029-.177 4.516 1.667 5.293 1.32.986.363-.39.173.595.535l.316-.055.178.288c.657.207 1.051.139 1.122.02-.162-.043-.432-.202-.596-.275.902.132 2.338.936 2.646.985l-.98-.258c2.636 1.137 5.987 2.16 8.472 3.425l-.238.041c1.906.944 1.634.461 3.776 1.363l-.07-.056c.395.275.956.547 1.557.754-.502-.337 1.128.122.461-.292 2.068 1.02 1 .57 2.265 1.52l.397-.069c.422.35.43.456 1.499.906-.833-.492.799-.032-.122-.616 2.432.428 3.236 1.67 4.503 1.45.857.911-2.08-.438-1.534-.11-.554-.01.722.712 1.458.924.733.258 1.483-.213 3.313.474-.184-.065-.182-.11-.365-.174.735.12 1.28.678 2.2.77.357.492 1.1.386 1.089.84l-1.648-.714c.915.458 1.638 1.262 3.292 1.612-.093-.127-.522-.406-.821-.585.502.05.856.406 1.376.46.011-.456-2.012-.844-2.922-1.53.555.011 1.826 1.007 1.472.379.536.83 1.832.597 2.92 1.481l.006-.273c.182.11.548.376.912.503l-.541-.556c.909.64 2.023.482 2.935.982-2.017-.75-.56.125-1.477-.012 2.373 1.242 1.662-.108 4.41 1.034-.366-.173-1.47-.375-.921-.046.55.145 1.284.31 1.656.302 1.83.73-.374.145.359.584.736-.065.864.454 1.64.846l.095-.244c2.163.615.372.72 2.338 1.224l-.678-.636.957.452-.103-.356c1 .603 1.354.672 2.437.981-.308.084-.024.498.906.85.689.086-.272-.366 1.038.155-.243-.264-.5-.578-1.158-.562-.03-.103-.238-.264-.27-.365.746.083 1.735.594 2.213.772-.187-.058-.412-.126-.538-.132l1.793 1.046c.335.018.123-.144-.088-.304.379.17.607.381 1.17.612-.076-.255.034-.449-.74-.84l1.747.893c.153-.042 1.023.105.813-.056 1.055.255 2.343 1.302 3.742 1.64.055.065.182.153.457.287 1.278.417 2.484.584 3.881 1.406l.978-.05c1.143.51-1.312.034.59.883 1.34.62.626-.119 1.147-.042.621.433 1.683 1.239 3.057 1.41-.395-.222-.744-.289-1.127-.459"/>
        <path fill="#3B2918" d="M124.75 187.854a.382.382 0 0 0-.266.144c-.15-.13-.127-.207.266-.144M82.022 171.672l-.072-.021a.188.188 0 0 1-.044-.097l.116.118zM169.761 203.992c-.28-.095-.445-.109-.561-.09.007-.105.146-.117.561.09M195.928 216.136l-.812-.406c.4.175.562.171.78.208-.04.059-.227.09.032.198M203.701 217.127c.111.094.257.121.367.216l-.073.133c-.517-.246-.848-.53-.294-.35M196.986 215.538c.14-.185.638.07 1.209.316-.035-.013-.068-.027-.104-.036.071.352-.518.035-1.105-.28M198.328 215.909c.177.117.358.229.538.312.028.223-.227-.085-.538-.312M190.778 213.945c.296.045.081.329.267.3.217.375-1.734-.978-.267-.3M197.698 215.055l-.299.23-.255-.406zM193.02 213.576l.957.26c-.029.038.081.106.22.176-.578-.195-1.226-.368-1.177-.436M194.197 214.012c.301.133.585.274.737.407a7.23 7.23 0 0 1-.737-.407M196.449 214.64l-.295-.07-.666-.337zM182.972 210.059l-.992-.436c-.073-.125.224-.08.59.09.223.148.588.316.402.346M186.298 210.518c-.294-.055-.332.008-.517.044l.08-.406.437.362zM183.355 209.32c-.07-.125-1.389-.78-.105-.301.072.124 1.066.56.105.3M167.735 204.242l.403.097-.346.509zM154.816 198.137c1.25.309.172.425 1.316.661.24.225-.935-.193-.682.018-.681-.392-1.09-.456-.634-.679M155.39 198.816c.129.1.263.21.403.338a2.693 2.693 0 0 1-.403-.338M2.534 145.387l-.812-.282.562.016zM1.192 144.347l-.303.264-.354-.472c.17.08.498.234.657.208M107.743 180.63l.03.161c-.15.068-.333-.026-.701-.216l.671.055zM97.165 177.023l.183.094-.445.281zM88.5 173.422c.364.119.762.34 1.127.46-.763-.341-1.36-.121-1.127-.46"/>
    </g>
</svg>
