<svg xmlns="http://www.w3.org/2000/svg" width="1135" height="667" viewBox="0 0 1135 667">
    <path fill="#CADDFF" fill-rule="evenodd" d="M747.205 511.427h264.71c3.26 0 6.622 0 10.077.094 3.85 0 7.803.097 11.756.097 27.655 0 101.252 0 101.252-100.355 0-66.386-41.885-100.065-124.37-100.065l-524.21.097v.123H124.514c-57.236 0-78.602-14.94-78.602-55.268 0-51.872 20.95-55.614 55.49-55.614 3.73 0 7.377.082 11.016.163 3.644 0 7.29.08 10.765.08h181.87v-.116H720.24c3.26 0 6.622 0 10.077.095 3.85 0 7.803.097 11.756.097 27.656 0 101.252 0 101.252-100.355 0-66.387-41.885-100.065-124.37-100.065L344.223.532v44.686h374.733c57.296 0 78.635 15.026 78.635 55.282 0 51.872-20.943 55.643-55.517 55.643-3.755 0-7.408-.094-10.968-.191-3.755 0-7.408-.095-10.865-.095H231.745v.207h-108.56c-3.227 0-6.625-.085-10.101-.162l-11.68-.085c-27.582 0-101.047 0-101.047 100.333 0 66.405 41.746 100.087 124.158 100.087h399.359v-.256h486.756c57.296 0 78.635 15.026 78.635 55.282 0 51.872-20.943 55.644-55.517 55.644-3.755 0-7.408-.095-10.968-.192-3.756 0-7.408-.094-10.865-.094H747.15v.207H415.083c-3.226 0-6.623-.085-10.1-.163l-11.68-.085c-27.582 0-101.047 0-101.047 100.334 0 66.404 41.746 100.086 124.159 100.086H843.11v-44.819H416.415c-57.237 0-78.603-14.94-78.603-55.267 0-51.873 20.95-55.614 55.49-55.614 3.73 0 7.377.08 11.016.162 3.644 0 7.29.08 10.765.08h332.122v-.115z"/>
</svg>
