<svg xmlns="http://www.w3.org/2000/svg" width="943" height="746" viewBox="0 0 943 746">
    <g fill="none" fill-rule="evenodd">
        <path fill="#DFEAFD" d="M612.7 524.55h227.174c2.705 0 5.496 0 8.364.08 3.195 0 6.476.083 9.757.083 22.954 0 84.038 0 84.038-85.061 0-56.27-34.764-84.815-103.225-84.815l-404.378.082v.104H103.346c-47.505 0-65.24-12.664-65.24-46.845 0-43.967 17.39-47.139 46.057-47.139 3.095 0 6.123.07 9.143.138 3.025 0 6.05.067 8.935.067H253.19v-.097h320.53c2.705 0 5.496 0 8.363.08 3.196 0 6.477.082 9.758.082 22.953 0 84.037 0 84.037-85.061 0-56.27-34.763-84.815-103.225-84.815l-311.023.082v37.876h311.023c47.555 0 65.266 12.736 65.266 46.857 0 43.967-17.383 47.164-46.078 47.164-3.117 0-6.149-.08-9.104-.163-3.117 0-6.148-.08-9.017-.08H168.276v.176H102.24c-2.678 0-5.498-.072-8.383-.138l-9.695-.072c-22.892 0-83.867 0-83.867 85.043 0 56.285 34.649 84.833 103.05 84.833h331.461v-.216h404c47.556 0 65.267 12.736 65.267 46.857 0 43.966-17.383 47.163-46.079 47.163-3.117 0-6.148-.08-9.103-.162-3.117 0-6.149-.08-9.018-.08H612.653v.175h-235.77c-2.678 0-5.498-.072-8.384-.138l-9.694-.072c-22.893 0-83.867 0-83.867 85.044 0 56.284 34.648 84.833 103.05 84.833h344.19v-37.988h-344.19c-47.506 0-65.24-12.664-65.24-46.845 0-43.968 17.389-47.14 46.057-47.14 3.095 0 6.122.07 9.142.139 3.025 0 6.051.067 8.935.067H612.7v-.097z" opacity=".5"/>
        <g fill="#FFF" stroke="#DFEAFD" stroke-width="6" transform="translate(206.229 3.63)">
            <ellipse cx="115.98" cy="95.634" rx="95.611" ry="95.634"/>
            <ellipse cx="115.98" cy="95.634" rx="95.611" ry="95.634"/>
            <ellipse cx="480.063" cy="228.907" rx="95.611" ry="95.634"/>
            <ellipse cx="95.611" cy="463.196" rx="95.611" ry="95.634"/>
            <ellipse cx="454.602" cy="643.158" rx="95.611" ry="95.634"/>
        </g>
    </g>
</svg>
