<svg width="43" height="40" viewBox="0 0 43 40" version="1.1" xmlns="http://www.w3.org/2000/svg" xmlns:xlink="http://www.w3.org/1999/xlink">
<title>Group</title>
<desc>Created using Figma</desc>
<g id="Canvas" transform="translate(-978 6008)">
<g id="Group">
<path d="M 978 -6008L 1021 -6008L 1021 -5968L 978 -5968L 978 -6008Z" fill="#FFFFFF"/>
<g id="Group">
<g id="Group">
<g id="Vector">
<use xlink:href="#path0_fill" transform="translate(985.202 -6003.01)" fill="#F8F3ED"/>
</g>
<g id="Vector">
<use xlink:href="#path1_fill" transform="translate(985.202 -5991.71)" fill="#EEE0CF"/>
</g>
<g id="Vector">
<use xlink:href="#path2_fill" transform="translate(988.944 -5980.4)" fill="#F8F3ED"/>
</g>
<g id="Vector">
<use xlink:href="#path3_fill" transform="translate(1011.54 -5983.9)" fill="#EEE0CF"/>
</g>
</g>
<g id="Group">
<g id="Vector">
<use xlink:href="#path4_fill" transform="translate(985.131 -6002.94)" fill="#E66932"/>
</g>
<g id="Vector">
<use xlink:href="#path5_fill" transform="translate(985.512 -6002.74)" fill="#F87B4A"/>
</g>
<g id="Vector">
<use xlink:href="#path6_fill" transform="translate(1007.16 -5998.97)" fill="#FC9C5F"/>
</g>
<g id="Vector">
<use xlink:href="#path7_fill" transform="translate(985.131 -6002.95)" fill="#D66432"/>
</g>
</g>
<g id="Vector">
<use xlink:href="#path8_fill" transform="translate(1007.3 -5973.1)" fill="#FDE386"/>
</g>
<g id="Vector">
<use xlink:href="#path9_fill" transform="translate(1006.03 -5977.28)" fill="#FDE386"/>
</g>
<g id="Vector">
<use xlink:href="#path10_fill" transform="translate(1009.77 -5977.64)" fill="#FDE386"/>
</g>
<g id="Vector">
<use xlink:href="#path11_fill" transform="translate(994.663 -5993.51)" fill="#2F2F2F"/>
</g>
<g id="Vector">
<use xlink:href="#path12_fill" transform="translate(1019.16 -5976.29)" fill="#F8F3ED"/>
</g>
<g id="Vector">
<use xlink:href="#path13_fill" transform="translate(985.484 -5981.25)" fill="#F8F3ED"/>
</g>
<g id="Vector">
<use xlink:href="#path14_fill" transform="translate(986.826 -5977.85)" fill="#F8F3ED"/>
</g>
<g id="Vector">
<use xlink:href="#path15_fill" transform="translate(984.355 -5996.42)" fill="#9E8677"/>
</g>
<g id="Vector">
<use xlink:href="#path16_fill" transform="translate(1010.27 -5996.71)" fill="#2F2F2F"/>
</g>
<g id="Group">
<g id="Vector">
<use xlink:href="#path17_fill" transform="translate(996.398 -5987.28)" fill="#FFFFFF"/>
</g>
<g id="Group">
<g id="Group">
<g id="Vector">
<use xlink:href="#path18_fill" transform="translate(998.688 -5983.59)" fill="#3A57B5"/>
</g>
</g>
<g id="Group">
<g id="Vector">
<use xlink:href="#path19_fill" transform="translate(997.982 -5982.9)" fill="#2F2F2F"/>
</g>
</g>
<g id="Group">
<g id="Vector">
<use xlink:href="#path20_fill" transform="translate(999.242 -5985.01)" fill="#2F2F2F"/>
</g>
</g>
<g id="Group">
<g id="Vector">
<use xlink:href="#path21_fill" transform="translate(998.547 -5982.6)" fill="#B9D5FF"/>
</g>
</g>
</g>
<g id="Vector">
<use xlink:href="#path22_fill" transform="translate(998.027 -5983.48)" fill="#F5F9FF"/>
</g>
<g id="Group">
<g id="Vector">
<use xlink:href="#path23_fill" transform="translate(997.629 -5988.12)" fill="#CCB6A8"/>
</g>
<g id="Vector">
<use xlink:href="#path24_fill" transform="translate(996.07 -5987.65)" fill="#9E8677"/>
</g>
</g>
</g>
<g id="Group">
<g id="Vector">
<use xlink:href="#path25_fill" transform="translate(1009.84 -5990.34)" fill="#FFFFFF"/>
</g>
<g id="Group">
<g id="Group">
<g id="Vector">
<use xlink:href="#path26_fill" transform="translate(1009.84 -5985.65)" fill="#3A57B5"/>
</g>
</g>
<g id="Group">
<g id="Vector">
<use xlink:href="#path27_fill" transform="translate(1010.2 -5987.42)" fill="#2F2F2F"/>
</g>
</g>
<g id="Group">
<g id="Vector">
<use xlink:href="#path28_fill" transform="translate(1009.78 -5984.87)" fill="#B9D5FF"/>
</g>
</g>
</g>
<g id="Vector">
<use xlink:href="#path29_fill" transform="translate(1010.27 -5986.35)" fill="#F5F9FF"/>
</g>
<g id="Group">
<g id="Vector">
<use xlink:href="#path30_fill" transform="translate(1012.1 -5991.03)" fill="#CCB6A8"/>
</g>
<g id="Vector">
<use xlink:href="#path31_fill" transform="translate(1009.66 -5991.17)" fill="#9E8677"/>
</g>
</g>
</g>
<g id="Group">
<g id="Group">
<g id="Vector">
<use xlink:href="#path32_fill" transform="translate(978.353 -6007.9)" fill="#8BA4EC"/>
</g>
<g id="Vector">
<use xlink:href="#path33_fill" transform="translate(994.169 -6007.61)" fill="#597CE1"/>
</g>
<g id="Group">
<g id="Vector">
<use xlink:href="#path34_fill" transform="translate(982.448 -6001.66)" fill="#597CE1"/>
</g>
<g id="Vector">
<use xlink:href="#path35_fill" transform="translate(978.212 -6002.8)" fill="#597CE1"/>
</g>
</g>
<g id="Vector">
<use xlink:href="#path36_fill" transform="translate(991.486 -6001.24)" fill="#426BD1"/>
</g>
<g id="Vector">
<use xlink:href="#path37_fill" transform="translate(991.666 -6003.5)" fill="#5D80E7"/>
</g>
<g id="Vector">
<use xlink:href="#path38_fill" transform="translate(982.236 -6005.39)" fill="#3B5CD6"/>
</g>
<g id="Vector">
<use xlink:href="#path39_fill" transform="translate(978 -6008)" fill="#3A57B5"/>
</g>
</g>
<g id="Group">
<g id="Group">
<g id="Vector">
<use xlink:href="#path40_fill" transform="translate(981.453 -5991.1)" fill="#FEF19F"/>
</g>
<g id="Vector">
<use xlink:href="#path41_fill" transform="translate(980.036 -5991.6)" fill="#FBD162"/>
</g>
<g id="Vector">
<use xlink:href="#path42_fill" transform="translate(997.866 -6005.65)" fill="#FCE59C"/>
</g>
<g id="Vector">
<use xlink:href="#path43_fill" transform="translate(982.59 -5984.23)" fill="#FBD162"/>
</g>
<g id="Vector">
<use xlink:href="#path44_fill" transform="translate(981.248 -5982.6)" fill="#EFB25C"/>
</g>
<g id="Vector">
<use xlink:href="#path45_fill" transform="translate(997.971 -6005.51)" fill="#FBD162"/>
</g>
<g id="Vector">
<use xlink:href="#path46_fill" transform="translate(979.746 -6005.73)" fill="#CC905E"/>
</g>
</g>
<g id="Group">
<g id="Vector">
<use xlink:href="#path47_fill" transform="translate(982.378 -6004.64)" fill="#FCE59C"/>
</g>
</g>
</g>
</g>
<g id="Group">
<g id="Vector">
<use xlink:href="#path48_fill" transform="translate(1005.47 -5977.68)" fill="#FEF19F"/>
</g>
<g id="Vector">
<use xlink:href="#path49_fill" transform="translate(1009.07 -5977.68)" fill="#FBD162"/>
</g>
<g id="Vector">
<use xlink:href="#path50_fill" transform="translate(1006.07 -5977.5)" fill="#2F2F2F"/>
</g>
<g id="Vector">
<use xlink:href="#path51_fill" transform="translate(1006.67 -5975.88)" fill="#E66932"/>
</g>
<g id="Vector">
<use xlink:href="#path52_fill" transform="translate(1004.9 -5981.54)" fill="#FFCF5A"/>
</g>
<g id="Vector">
<use xlink:href="#path53_fill" transform="translate(1006.95 -5972.78)" fill="#FBD162"/>
</g>
<g id="Vector">
<use xlink:href="#path54_fill" transform="translate(1007.44 -5972.73)" fill="#FBD162"/>
</g>
<g id="Vector">
<use xlink:href="#path55_fill" transform="translate(1007.51 -5981.89)" fill="#FEF19F"/>
</g>
<g id="Vector">
<use xlink:href="#path56_fill" transform="translate(1004.76 -5981.81)" fill="#CC905E"/>
</g>
</g>
</g>
</g>
</g>
<defs>
<path id="path0_fill" d="M 33.468 20.0551C 33.0443 19.7717 32.6207 19.4882 32.1264 19.2047C 31.9146 19.063 31.7028 18.9921 31.491 18.8504C 31.491 18.8504 31.491 18.8504 31.491 18.7795C 31.7028 18.8504 31.9146 18.9213 32.1264 18.9921C 32.197 18.9921 32.2677 19.063 32.3383 18.9921C 32.7619 18.8504 33.1856 18.7795 33.6798 18.7795C 33.468 18.4961 33.1856 18.2126 32.9031 18.1417C 32.6207 18 32.2677 17.9291 31.9146 17.8583C 32.0558 17.7165 32.197 17.5039 32.3383 17.3622C 32.3383 17.3622 32.3383 17.3622 32.3383 17.2913C 32.1264 17.2913 31.9146 17.2913 31.7028 17.3622C 31.2085 17.5039 30.7849 17.5748 30.2906 17.7165C 30.22 17.7165 30.1494 17.7874 30.1494 17.9291C 30.1494 18.2126 30.0788 18.4961 30.0082 18.7087C 30.0082 17.9291 30.0082 17.1496 29.9376 16.3701C 29.9376 15.4488 29.9376 14.5276 29.867 13.6772C 29.7964 12.7559 29.7964 11.7638 29.5846 10.8425C 29.3021 9.28347 28.5961 8.07874 27.3251 7.15748C 27.3957 7.01575 27.5369 6.80315 27.6076 6.66142C 27.6076 6.59055 27.6076 6.59055 27.6076 6.51969C 27.89 6.80315 28.1724 7.08662 28.4548 7.29921C 29.0903 7.93701 29.514 8.64567 29.7258 9.49607C 29.6552 9.28347 29.6552 9.07087 29.5846 8.85827C 29.514 8.43307 29.4434 8.07874 29.3727 7.65354C 29.3021 7.29921 29.2315 7.01575 29.0197 6.73229C 28.7373 6.37795 28.3136 6.23622 27.89 6.37795C 27.6782 6.51969 27.4663 6.44882 27.3251 6.30709C 27.1839 6.09449 26.9721 6.02362 26.7603 5.88189C 25.8424 5.2441 24.9245 4.67717 23.936 4.1811C 23.0887 3.75591 22.312 3.33071 21.4647 2.97638C 20.4762 2.48032 19.4171 2.05512 18.358 1.62992C 17.4401 1.27559 16.4516 0.92126 15.4631 0.637796C 14.6864 0.425197 13.8391 0.212598 13.0624 0.0708661C 12.78 -6.86392e-08 12.4975 -3.14709e-15 12.2151 -3.14709e-15C 12.1445 -3.14709e-15 12.0739 -3.14709e-15 12.0739 -3.14709e-15L 11.7209 -3.14709e-15C 11.5796 0.0708662 11.3678 -6.86392e-08 11.2266 0.0708661C 10.6617 0.141732 10.2381 0.354331 9.74384 0.637796C 8.89655 1.13386 8.19048 1.70079 7.4844 2.33858C 6.91954 2.83465 6.42529 3.33071 5.93103 3.82677C 5.29557 4.46457 4.6601 5.17323 4.09524 5.88189C 3.60099 6.51969 3.03612 7.15748 2.54187 7.79528C 1.69458 8.92914 0.988506 10.1339 0.56486 11.4803C 0.28243 12.3307 0.141215 13.1811 0.0706074 14.1024C 0.0706074 14.8819 0.141215 15.6614 0.28243 16.441C 0.423645 17.2205 0.56486 18 0.776683 18.7795C 1.05911 19.6299 1.34154 20.4803 1.76519 21.2598C 1.76519 21.3307 1.8358 21.3307 1.76519 21.4016C 1.76519 21.4016 1.76519 21.4016 1.8358 21.4724C 3.03612 21.3307 4.44828 21.4724 5.08374 21.8268C 4.80131 21.8268 4.58949 21.7559 4.30706 21.7559C 3.53038 21.685 2.8243 21.7559 2.04762 21.8976C 2.54187 22.1102 2.96552 22.3937 3.45977 22.6063C 3.38916 22.6772 3.31856 22.6772 3.24795 22.6772C 2.40066 23.0315 1.55337 23.4567 0.776683 24.0236C 0.494253 24.2362 0.28243 24.4488 0.0706074 24.8032C 0.0706074 24.874 0.0706078 24.874 2.69346e-07 24.9449C 2.69346e-07 24.9449 2.69346e-07 24.9449 2.69346e-07 25.0158C 0.0706078 25.0158 0.141215 24.9449 0.211822 24.9449C 0.84729 24.6614 1.48276 24.4488 2.11823 24.5197C 2.18883 24.5197 2.25944 24.5197 2.25944 24.5906C 1.97701 25.1575 1.69458 25.7244 1.55337 26.3622C 1.48276 26.7165 1.55337 27 1.62397 27.3543C 1.97701 28.4882 2.47126 29.6221 2.96552 30.685C 3.31856 31.5354 3.7422 32.315 4.09524 33.1654C 4.16585 33.378 4.30706 33.378 4.44828 33.2362C 4.51888 33.1654 4.58949 33.0945 4.6601 33.0236C 5.43678 32.1732 6.35468 31.3937 7.20197 30.6142C 7.20197 30.6142 7.20197 30.6142 7.27258 30.6142C 6.91954 31.0394 6.5665 31.5354 6.21346 31.9606C 6.28407 31.9606 6.28407 31.9606 6.35468 31.8898C 6.99015 31.5354 7.62562 31.3937 8.33169 31.3228C 9.03777 31.252 9.81445 31.1811 10.5911 31.252C 11.509 31.3228 12.4269 31.5354 13.3448 31.748C 14.6864 32.1024 16.0279 32.3858 17.3695 32.6693C 17.9343 32.811 18.5698 32.811 19.1346 32.8819C 19.6289 32.8819 20.1938 32.8819 20.688 32.8819C 22.2414 32.811 23.7947 32.4567 25.1363 31.5354C 25.7718 31.1102 26.3366 30.5433 26.7603 29.8347C 27.8194 28.1339 28.8785 26.5039 29.9376 24.8032C 30.0788 24.5906 30.22 24.378 30.3612 24.1654C 30.3612 24.1654 30.3613 24.1654 30.4319 24.1654C 30.22 24.5906 30.0082 25.0866 29.7258 25.5827C 29.7964 25.5827 29.7964 25.5118 29.867 25.5118C 30.22 25.2284 30.5731 25.0866 30.9967 24.9449C 31.2792 24.874 31.491 24.874 31.7734 24.9449C 32.3383 25.0866 32.8325 25.3701 33.3268 25.6536C 33.5386 25.7953 33.6798 25.8661 33.8916 26.0079C 33.8916 25.7244 33.9622 25.5118 33.9622 25.2284C 33.9622 24.7323 34.0328 24.2362 34.0328 23.811C 34.0328 23.0315 34.1035 22.252 34.1035 21.5433C 34.2447 20.9764 33.9622 20.4803 33.468 20.0551Z"/>
<path id="path1_fill" d="M 23.6535 19.3888C 23.5829 19.3888 23.5829 19.4597 23.5123 19.4597C 23.4417 19.4597 23.3711 19.5306 23.3711 19.5306C 23.2299 19.6014 23.0887 19.6014 22.9475 19.6014C 22.8768 19.6014 22.8768 19.6014 22.8768 19.6014C 22.4532 19.6014 22.0296 19.3888 21.7471 18.8928C 21.6059 18.6802 21.5353 18.5384 21.4647 18.3258C 21.2529 17.8298 21.1117 17.2629 20.9704 16.7668C 20.7586 15.9873 20.5468 14.9243 20.5468 14.0739L 19.6995 13.6487C 19.6995 13.6487 20.688 12.1605 20.9704 11.3101C 21.1823 10.5306 21.8177 10.1054 22.5944 9.82191C 22.5238 8.05026 22.5238 6.20774 22.5238 4.36522C 22.5238 3.16049 22.5238 2.02664 22.5944 0.892778C 22.1002 1.10538 21.5353 1.24711 20.9704 1.24711C 20.9704 1.24711 20.9704 1.24711 20.8998 1.24711C 20.4762 1.24711 20.1231 1.24711 19.8407 1.17624C 18.7816 1.03451 17.7931 0.680178 16.8046 0.325848C 16.6634 0.254982 16.5222 0.254982 16.3103 0.184116C 16.0985 0.11325 15.8161 0.113249 15.6043 0.0423834C 14.8982 -0.0284828 14.1921 -0.0284823 13.5566 0.184116C 12.8506 0.396715 12.2151 0.680179 11.5796 1.10538C 11.0148 1.45971 10.4499 1.74317 9.95566 2.16837C 9.95566 2.16837 9.88506 2.23923 9.95566 2.16837C 10.0263 2.0975 9.95566 2.16837 9.95566 2.16837L 9.81445 2.38097C 9.24959 3.44396 9.10837 3.51482 8.82594 4.29435C 8.47291 5.28648 8.19047 6.9164 8.11987 8.05026C 8.11987 9.18412 8.11987 10.8849 7.97865 10.7432C 7.90804 10.7432 7.90804 10.7432 7.69622 10.6723C 6.77832 10.5306 4.30706 10.1762 3.81281 10.1762C 3.24795 10.1762 2.61248 10.2471 2.04762 10.3888C 2.54187 10.6014 2.96552 10.8849 3.45977 11.0975C 3.38916 11.1684 3.31855 11.1684 3.24795 11.1684C 2.40066 11.5227 1.55337 11.9479 0.776683 12.5148C 0.494253 12.7274 0.28243 12.94 0.0706074 13.2944C 0.0706074 13.3652 0.0706078 13.3652 2.69346e-07 13.4361C 2.69346e-07 13.4361 2.69346e-07 13.4361 2.69346e-07 13.507C 0.0706078 13.507 0.141215 13.4361 0.211822 13.4361C 0.776683 13.2235 1.27094 13.0109 1.9064 13.0109C 1.97701 13.0109 2.04762 13.0109 2.18883 13.0109C 2.25944 13.0109 2.33005 13.0109 2.33005 13.0818C 2.04762 13.6487 1.76519 14.2156 1.62397 14.8534C 1.55337 15.2077 1.62397 15.4912 1.69458 15.8455C 2.04762 16.9794 2.54187 18.1132 3.03612 19.1762C 3.38916 20.0266 3.81281 20.8062 4.16584 21.6566C 4.16584 22.0109 4.23645 22.0109 4.30706 22.0109C 4.37767 22.0109 4.37767 22.0109 4.44827 21.94C 4.51888 21.8692 4.58949 21.7983 4.6601 21.7274C 5.22496 21.0188 5.93103 20.4518 6.63711 19.8849C 6.84893 19.7432 7.06075 19.5306 7.20197 19.3888C 7.20197 19.3888 7.20197 19.3888 7.27258 19.3888C 6.91954 19.814 6.5665 20.3101 6.21346 20.7353C 6.21346 20.7353 6.28407 20.7353 6.28407 20.6644C 6.91954 20.3101 7.55501 20.1684 8.26108 20.0975C 8.75533 20.0266 9.17898 20.0266 9.67323 20.0266C 9.95566 20.0266 10.2381 20.0266 10.5205 20.0266C 11.4384 20.0975 12.3563 20.3101 13.2742 20.5227C 14.6158 20.877 15.9573 21.1605 17.2988 21.444C 17.8637 21.5857 18.4992 21.5857 19.064 21.6566C 19.3465 21.6566 19.5583 21.6566 19.8407 21.6566C 20.1231 21.6566 20.335 21.6566 20.6174 21.6566C 21.8177 21.5857 22.9475 21.3731 24.0066 20.877C 24.1478 20.381 23.7947 19.3888 23.6535 19.3888Z"/>
<path id="path2_fill" d="M 15.7455 5.0315C 15.7455 4.11024 14.9688 3.40158 13.9097 3.18898C 13.3448 3.04725 12.3563 3.04724 11.3678 3.11811C 10.3793 3.18898 9.95567 2.83465 9.60263 2.76378C 9.39081 2.69291 7.62562 1.77165 7.62562 1.77165L 6.14286 0.779528C 5.50739 0.354331 4.6601 1.08133e-06 3.7422 1.08133e-06C 1.69458 1.08133e-06 -2.69346e-07 1.27559 -2.69346e-07 2.90551C -2.69346e-07 3.75591 0.423646 4.53543 1.20033 5.0315C 2.68309 6.37795 5.578 6.16535 6.99015 6.09449C 8.33169 6.02362 8.47291 5.88189 9.81445 6.44882C 10.803 6.87402 12.4269 6.94488 13.2036 6.94488L 13.2742 6.94488C 13.5567 6.94488 13.6979 6.87402 13.6979 6.87402C 14.8982 6.73228 15.7455 5.95276 15.7455 5.0315Z"/>
<path id="path3_fill" d="M 6.77833 4.98182C 6.5665 3.9897 6.42529 3.06844 6.00164 2.14718C 5.78982 1.72198 5.50739 1.29678 5.08374 1.01332C 4.44827 0.588122 3.7422 0.304657 3.03612 0.162924C 2.8243 0.0920584 2.33005 -0.120542 2.25944 0.0920567C 2.11823 0.58812 1.8358 1.36765 1.55336 1.86371C 1.34154 2.21804 0.917897 2.7141 0.494252 2.9267C 0.282429 2.99757 0.0706086 3.06844 1.07739e-06 2.99757C 0.211824 3.28103 1.05911 3.91883 1.12972 4.27316C 1.20033 4.69836 1.12972 5.12355 0.917899 5.54875C 0.917899 5.61962 0.84729 5.61962 0.84729 5.69048C 0.917897 5.69048 0.917898 5.76135 0.988505 5.76135C 1.69458 6.11568 2.33005 6.47001 2.96552 6.89521L 3.10673 6.68261C 3.17734 6.68261 3.45977 6.11568 3.45977 6.11568C 3.60098 5.90308 3.7422 5.69048 3.88342 5.47789C 3.95402 5.33615 3.95402 5.33615 4.09524 5.19442C 4.09524 5.33615 4.02463 5.40702 4.02463 5.47789C 3.88341 5.76135 3.31855 6.68261 3.24795 6.89521C 3.67159 6.54088 4.80131 6.25741 5.36617 6.25741C 5.86043 6.25741 6.63711 6.61174 7.06076 6.89521C 7.4844 7.24954 6.84893 5.26529 6.77833 4.98182Z"/>
<path id="path4_fill" d="M 27.5369 6.37795C 26.7603 5.74016 25.8424 5.17323 24.9951 4.67717C 24.0066 4.11024 22.9475 3.61417 21.8883 3.11811C 19.6995 2.05512 17.4401 1.13386 15.0394 0.496063C 14.1215 0.283465 13.2036 0.0708661 12.2857 -6.75832e-08L 11.3678 -6.75832e-08C 11.2266 -6.75832e-08 11.0854 -1.37278e-07 10.9442 0.070866C 10.3793 0.141732 9.88506 0.425197 9.46141 0.708662C 8.47291 1.34646 7.55501 2.12598 6.70772 2.90551C 5.43678 4.1811 4.23645 5.52756 3.10673 6.87402C 2.33005 7.79528 1.69458 8.7874 1.12972 9.85039C 0.494253 11.126 0.0706076 12.4724 -1.25424e-15 13.8898C -1.25424e-15 14.2441 -1.25424e-15 14.5276 -1.25424e-15 14.8819C -1.25424e-15 14.9528 -1.25424e-15 15.0236 -1.25424e-15 15.0945C 0.141215 16.0866 0.28243 17.1496 0.564861 18.1417C 0.847291 19.2756 1.20033 20.3386 1.76519 21.4016L 1.8358 21.4724C 3.03612 21.3307 4.44828 21.4016 5.08374 21.8268C 5.08374 21.8268 5.578 21.8976 5.71921 21.9685C 6.42529 22.1102 7.06076 22.3228 7.76683 22.4646C 7.97865 22.5354 7.97865 22.5354 7.97865 22.252C 7.90805 21.1181 7.90805 19.9843 7.97865 18.8504C 8.04926 17.7874 8.26108 16.7244 8.61412 15.7323C 9.24959 13.9606 10.3087 12.5433 12.0033 11.622C 12.9212 11.126 13.8391 10.9134 14.8276 11.126C 15.5337 11.2677 16.3103 11.5512 16.9458 11.7638C 18.0755 12.1181 18.9934 12.4016 20.1938 12.5433C 21.1117 12.6142 22.0296 12.5433 22.8768 12.0472C 23.5829 11.622 24.2184 11.0551 24.7832 10.4173C 25.3481 9.77953 25.8424 9.14173 26.3366 8.50394C 26.6897 8.14961 26.9721 7.72441 27.1839 7.22835C 27.2545 7.08661 27.3957 6.87402 27.4663 6.73228C 27.4663 6.66142 27.4663 6.66142 27.4663 6.59055C 27.6782 6.44882 27.6076 6.44882 27.5369 6.37795Z"/>
<path id="path5_fill" d="M 27.4387 6.39138C 26.662 5.75359 25.8147 5.25752 24.8968 4.69059C 23.9083 4.12367 22.8492 3.6276 21.7901 3.13154C 19.7425 2.13941 17.6242 1.28902 15.4354 0.651225C 14.3057 0.296894 13.176 0.0842954 11.9756 0.0134292C 11.1283 -0.0574369 10.281 0.155161 9.57497 0.580358C 8.51585 1.21815 7.52735 1.99768 6.68006 2.91894C 5.12669 4.40713 3.78515 5.96619 2.51421 7.66697C 1.73753 8.72997 1.10206 9.86382 0.607807 11.0685C 0.113554 12.415 -0.0982678 13.8323 0.0429473 15.3205C 0.184162 16.3126 0.325377 17.3048 0.607807 18.226C 0.890237 19.289 1.24328 20.352 1.80814 21.2733C 1.87874 21.415 1.80814 21.415 1.87874 21.415C 2.09057 21.415 2.23178 21.4859 2.4436 21.415C 2.58482 21.3441 3.3615 21.3441 3.85575 21.415C 3.71454 21.0607 3.64393 20.9189 3.50272 20.5646C 3.3615 20.1394 3.22029 19.7851 3.07907 19.3599C 2.86725 18.793 2.72603 18.226 2.58482 17.6591C 2.4436 17.0922 2.30239 16.4544 2.30239 15.8874C 2.23178 15.3914 2.23178 14.9662 2.16117 14.4701C 2.16117 14.1867 2.16117 13.9032 2.16117 13.6197C 2.16117 13.4071 2.16117 13.1237 2.23178 12.9111C 2.30239 12.3441 2.373 11.8481 2.4436 11.2811C 2.51421 10.8559 2.65543 10.4308 2.79664 9.93469C 3.00846 9.22603 3.29089 8.51737 3.64393 7.87957C 3.99697 7.24178 4.35001 6.60398 4.70305 5.96619C 5.55034 4.69059 7.03309 3.34414 7.1037 3.27327C 7.24492 3.13154 7.31553 3.06067 7.45674 2.91894C 7.80978 2.56461 8.23342 2.21028 8.65707 1.92682C 9.08071 1.64335 9.50436 1.28902 9.92801 1.00556C 10.3517 0.722091 10.8459 0.580359 11.3402 0.509492C 12.0462 0.438626 12.6817 0.509492 13.3878 0.651225C 13.9526 0.722091 14.5175 0.863823 15.0824 1.00556C 15.4354 1.14729 15.859 1.35989 16.2827 1.50162C 17.4124 1.99768 18.6127 2.49374 19.6718 3.06067C 20.4485 3.48587 21.1546 3.8402 21.9313 4.33626C 21.3664 4.0528 20.1661 3.48587 20.0955 3.415C 19.1776 4.61973 20.3073 7.24178 20.1661 7.87957C 19.7425 8.94256 18.6127 10.5016 17.9067 11.8481C 18.5421 12.0607 19.1776 12.2024 19.8837 12.2024C 20.8016 12.2733 21.7195 12.2024 22.5668 11.7063C 23.2728 11.2811 23.9083 10.7142 24.4732 10.0764C 25.038 9.43863 25.5323 8.80083 26.0265 8.16304C 26.0971 8.09217 26.1677 8.0213 26.1677 7.95044C 26.2383 8.0213 26.309 8.0213 26.309 8.09217C 26.3796 7.95044 26.4502 7.87957 26.662 7.87957L 26.7326 7.87957C 27.015 7.52524 27.2269 7.10004 27.4387 6.67485C 27.5799 6.53311 27.5799 6.46225 27.4387 6.39138Z"/>
<path id="path6_fill" d="M 4.02463 3.9685C 3.53038 3.54331 3.17734 3.11811 2.68309 2.69291C 2.25944 2.33858 0.917898 1.41732 0.423645 1.13386C 0.28243 1.06299 0.141216 0.354331 5.38693e-07 0.283465C 5.38693e-07 0.212599 5.38693e-07 0.141732 5.38693e-07 -1.35166e-07C 0.423646 0.212598 1.20033 0.637795 1.62397 0.850393C 2.25944 1.20472 2.96552 1.62992 3.60098 1.98425C 4.02463 2.19685 4.37767 2.48032 4.80131 2.76378L 4.87192 2.83465C 4.6601 3.11811 4.23645 4.11024 4.02463 3.9685Z"/>
<path id="path7_fill" d="M 28.0312 6.74586C 27.89 6.81673 27.8194 6.88759 27.6782 6.95846C 27.5369 7.02933 27.3251 7.02933 27.1839 6.95846C 25.8424 6.0372 24.5008 5.25767 23.0887 4.54901C 20.8998 3.34429 18.6404 2.28129 16.3103 1.36003C 15.2512 0.934838 14.1921 0.651374 13.0624 0.509641C 11.7209 0.297043 10.4499 0.651373 9.3202 1.36003C 8.33169 1.99783 7.4844 2.84822 6.70772 3.69862C 5.6486 4.83248 4.58949 5.96633 3.60098 7.10019C 2.68309 8.16318 1.9064 9.36791 1.34154 10.7144C 0.988505 11.6356 0.776683 12.5569 0.706075 13.4781C 0.56486 14.8955 0.776683 16.3128 1.12972 17.6592C 1.34154 18.7222 1.69458 19.7144 2.18883 20.7065C 2.33005 20.99 2.47126 21.2026 2.61248 21.486C 2.33005 21.486 2.11823 21.486 1.9064 21.486C 1.8358 21.486 1.8358 21.4152 1.76519 21.3443C 1.34154 20.7065 1.12972 19.9978 0.84729 19.36C 0.494253 18.2262 0.211823 17.0215 0.0706078 15.8167C 0.0706078 15.3207 0 14.8246 0 14.2577C 0 12.9112 0.28243 11.6356 0.84729 10.4309C 1.27094 9.43877 1.8358 8.44665 2.54187 7.59625C 3.95402 5.75374 5.50739 3.98208 7.20197 2.42303C 7.97865 1.71437 8.82594 1.07657 9.74384 0.509641C 10.4499 0.15531 11.156 -0.0572881 11.9327 0.013578C 13.2036 0.013578 14.4039 0.297043 15.6043 0.651373C 18.1461 1.36003 20.4762 2.42303 22.8768 3.55689C 24.2184 4.26555 25.6305 4.97421 26.8309 5.8246C 27.1839 6.10807 27.6075 6.39153 28.0312 6.74586Z"/>
<path id="path8_fill" d="M 0.988505 0.496064C 0.706075 0.496064 0.423645 0.35433 0.0706075 0.0708656C 0.0706075 0.0708656 0.0706086 0.0708667 1.07739e-06 5.40666e-07C 1.07739e-06 5.40666e-07 0 -5.43834e-07 0.0706075 0.0708656C 0.353038 0.425196 0.635467 0.56693 0.988505 0.496064Z"/>
<path id="path9_fill" d="M -1.07739e-06 -5.40666e-07L 0.211824 0.0708672L -1.07739e-06 -5.40666e-07Z"/>
<path id="path10_fill" d="M 0.28243 -5.40666e-07C 0.211822 0.0708656 0.0706086 0.0708661 1.07739e-06 0.141732C 0.141216 0.0708661 0.211822 -5.40666e-07 0.28243 -5.40666e-07Z"/>
<path id="path11_fill" d="M 5.15435 -2.70333e-07C 5.43678 0.0708659 5.71921 0.212598 5.93103 0.354331C 6.5665 0.779527 7.06075 1.27559 7.62561 1.77165C 7.83744 1.98425 8.11987 2.12599 8.33169 2.33858C 8.4023 2.40945 8.4729 2.40945 8.4729 2.48032C 8.4729 2.48032 8.54351 2.55118 8.54351 2.62205C 8.54351 2.69291 8.47291 2.62205 8.4023 2.62205C 7.90805 2.48032 7.41379 2.26772 6.91954 2.19685C 5.86042 1.91339 4.73071 1.84252 3.67159 2.26772C 2.8243 2.55118 2.04762 2.97638 1.34154 3.40158C 0.917898 3.68504 0.494253 3.9685 0.141216 4.32284C 0.0706081 4.32284 0.0706075 4.3937 -2.50848e-15 4.3937C 0.917898 3.04725 1.8358 1.70079 3.17734 0.708661C 3.60098 0.354331 4.09524 0.0708662 4.6601 0.0708662C 4.73071 0 5.08374 -2.70333e-07 5.15435 -2.70333e-07Z"/>
<path id="path12_fill" d="M 0.142619 0.141733C 0.142619 0.141733 0.142619 0.212599 0.142619 0.141733C 0.142619 0.141733 0.0713095 0.0708667 5.44044e-07 5.40666e-07C 5.44044e-07 0.0708667 0.07131 0.141733 0.142619 0.141733Z"/>
<path id="path13_fill" d="M 0 0.141733C 0.0706075 0.0708672 0.141215 0.0708667 0.28243 5.40666e-07C 0.141215 0.0708667 0.0706075 0.0708672 0 0.141733Z"/>
<path id="path14_fill" d="M -2.72926e-07 0L 0.0715458 0L -2.72926e-07 0Z"/>
<path id="path15_fill" d="M 35.3038 14.2441C 35.3038 13.9606 35.2332 13.748 34.9507 13.6063C 34.5977 13.3937 34.2447 13.1102 33.8916 12.8976C 33.8916 12.8976 33.821 12.8268 33.7504 12.8268C 34.2447 12.6142 34.7389 12.6142 35.2332 12.5433C 34.6683 11.9055 34.0328 11.3386 33.1856 11.126C 33.3268 10.8425 33.468 10.6299 33.6798 10.3465C 32.7619 10.4882 31.844 10.6299 30.9261 10.8425C 30.9261 10.5591 30.9967 10.2756 30.9967 9.99213C 30.9967 9.07087 31.0673 8.14961 31.0673 7.22835C 31.0673 6.09449 30.9261 4.96063 30.7849 3.82677C 30.5731 2.62205 30.1494 1.62992 29.3021 0.779527C 29.0197 0.496063 28.7373 0.283464 28.4548 -5.40666e-07C 28.4548 -5.40666e-07 28.4548 0.0708661 28.4548 0.141732C 28.3842 0.283465 28.3136 0.496064 28.1724 0.637796C 29.3727 1.55906 30.1494 2.83465 30.4319 4.32283C 30.5731 5.24409 30.6437 6.23622 30.7143 7.15748C 30.7849 8.07874 30.7849 9 30.7849 9.85039C 30.7849 10.6299 30.8555 11.4094 30.8555 12.189C 30.9261 11.9055 30.9261 11.622 30.9967 11.4094C 30.9967 11.3386 31.0673 11.2677 31.1379 11.1968C 31.6322 11.0551 32.0558 10.9134 32.5501 10.8425C 32.7619 10.7717 32.9737 10.7717 33.1856 10.7717C 33.1856 10.7717 33.1856 10.7717 33.1856 10.8425C 33.0443 10.9843 32.9031 11.1968 32.7619 11.3386C 33.1149 11.4094 33.468 11.4803 33.7504 11.622C 34.1034 11.7638 34.3153 11.9764 34.5271 12.2598C 34.0328 12.2598 33.6092 12.3307 33.1856 12.4724C 33.1149 12.4724 33.0443 12.4724 32.9737 12.4724C 32.7619 12.4016 32.5501 12.3307 32.3383 12.2598C 32.3383 12.2598 32.3383 12.2598 32.3383 12.3307C 32.5501 12.4724 32.7619 12.5433 32.9737 12.685C 33.3974 12.9685 33.8916 13.252 34.3153 13.5354C 34.8095 13.8898 35.092 14.4567 35.0213 15.0945C 34.9507 15.874 34.9507 16.6535 34.9507 17.3622C 34.9507 17.8583 34.8801 18.3543 34.8801 18.7795C 34.8801 18.9921 34.8095 19.2756 34.8095 19.5591C 34.5977 19.4173 34.3859 19.3465 34.2447 19.2047C 33.7504 18.9213 33.2562 18.6378 32.6913 18.4961C 32.4089 18.4252 32.197 18.4252 31.9146 18.4961C 31.491 18.6378 31.1379 18.7795 30.7849 19.063C 30.7849 19.063 30.7143 19.063 30.6437 19.1339C 30.8555 18.6378 31.1379 18.2126 31.3498 17.7165C 31.3498 17.7165 31.3498 17.7165 31.2791 17.7165C 31.1379 17.9291 30.9967 18.1417 30.8555 18.3543C 29.7964 20.0551 28.7373 21.685 27.6782 23.3858C 27.2545 24.0945 26.6897 24.5906 26.0542 25.0866C 24.7126 26.0079 23.2299 26.3622 21.6059 26.4331C 21.1117 26.4331 20.5468 26.4331 20.0525 26.4331C 19.4877 26.3622 18.8522 26.3622 18.2874 26.2205C 16.9458 25.937 15.6043 25.5827 14.2627 25.2992C 13.3448 25.0866 12.4269 24.874 11.509 24.8031C 10.7323 24.7323 10.0263 24.7323 9.24959 24.874C 8.54351 24.9449 7.90805 25.0866 7.27258 25.4409C 7.27258 25.4409 7.20197 25.4409 7.13136 25.5118C 7.4844 25.0866 7.83744 24.5906 8.19048 24.1654L 8.11987 24.1654C 7.27258 24.9449 6.35468 25.6535 5.578 26.5748C 5.50739 26.6457 5.43678 26.7165 5.36617 26.7874C 5.22496 26.9291 5.08374 26.9291 5.01314 26.7165C 4.6601 25.8661 4.23645 25.0866 3.88341 24.2362C 3.38916 23.1024 2.89491 22.0394 2.54187 20.9055C 2.47126 20.5512 2.40066 20.2677 2.47126 19.9134C 2.54187 19.2756 2.8243 18.7087 3.17734 18.1417C 3.24795 18.0709 3.10673 18.0709 3.03612 18.0709C 2.33005 18 1.69458 18.2126 1.12972 18.4961C 1.05911 18.4961 0.988506 18.5669 0.917898 18.5669C 0.917898 18.4961 0.917898 18.4961 0.917898 18.4961C 0.917898 18.4252 0.917898 18.4252 0.988506 18.3543C 1.12972 18.0709 1.41215 17.7874 1.69458 17.5748C 2.47126 17.0079 3.31856 16.5827 4.16585 16.2283C 4.23645 16.2283 4.30706 16.1575 4.37767 16.1575C 3.88342 15.874 3.45977 15.6614 2.96552 15.4488C 3.67159 15.2362 4.44828 15.2362 5.22496 15.3071C 5.50739 15.3071 5.71921 15.378 6.00164 15.378C 5.36617 14.9528 3.88342 14.8819 2.68309 15.0236C 2.04762 15.0945 1.48276 15.2362 1.20033 15.5197C 1.76519 15.8032 2.33005 16.0157 2.96552 16.2992C 2.18883 16.5827 1.48276 17.0079 0.917898 17.6457C 0.353038 18.2835 0.0706073 18.9921 -2.69346e-07 19.8425C 0.776683 19.2047 1.55337 18.7087 2.61248 18.7087C 2.54187 18.8504 2.47126 18.9921 2.33005 19.1339C 2.11823 19.4882 1.97701 19.9134 1.97701 20.3386C 2.04762 21.1181 2.18883 21.8976 2.47126 22.6063C 3.10673 24.5906 4.02463 26.4331 4.94253 28.3465C 4.94253 28.3465 4.94253 28.4173 5.01314 28.4173C 5.01314 28.1339 5.01314 28.1339 5.08374 28.063C 5.43678 27.6378 5.78982 27.2126 6.07225 26.7165C 6.42529 26.2205 6.77833 25.937 7.41379 25.8661L 7.4844 25.8661C 8.4023 25.6535 9.3202 25.5118 10.2381 25.4409C 10.9442 25.3701 11.6502 25.3701 12.2857 25.5118C 12.8506 25.5827 13.4154 25.7244 14.0509 25.8661C 15.6043 26.1496 17.2282 26.5039 18.7816 26.7874C 19.7701 27 20.7586 27.0709 21.8177 27.0709C 22.665 27.0709 23.4417 26.9291 24.2184 26.7165C 25.4187 26.3622 26.4778 25.7953 27.2545 24.874C 27.6782 24.378 28.0312 23.8819 28.3842 23.3858C 29.1609 22.252 29.7964 20.9764 30.4319 19.7717C 30.4319 19.7008 30.5025 19.6299 30.5731 19.6299C 30.9261 19.4173 31.3498 19.2756 31.7028 19.063C 32.1264 18.8504 32.6207 18.9213 32.9737 19.1339C 33.6092 19.4882 34.1741 19.9134 34.8095 20.2677C 34.8801 20.3386 34.9507 20.4094 35.092 20.4803C 35.092 20.4094 35.092 20.4094 35.1626 20.3386C 35.3038 19.063 35.445 17.7874 35.445 16.5827C 35.3744 15.7323 35.3038 14.9528 35.3038 14.2441Z"/>
<path id="path16_fill" d="M -1.07739e-06 3.76933C -1.07739e-06 3.76933 0.070607 3.415 0.141215 3.34414C 0.211822 3.20241 0.353037 2.91894 0.494252 2.56461C 0.706075 2.13941 0.917897 1.71422 1.20033 1.28902C 1.48276 0.863823 1.8358 0.509493 2.33005 0.226028C 2.54187 0.0842958 2.75369 0.0134289 2.96552 0.0134289C 3.45977 -0.0574372 3.7422 0.155162 3.95402 0.580359C 4.16585 1.00556 4.23645 1.43075 4.30706 1.85595C 4.37767 2.28115 4.44827 2.63548 4.58949 3.06067L 4.58949 3.13154C 4.51888 3.13154 4.51888 3.06067 4.51888 3.06067C 4.37767 2.77721 4.23645 2.56461 4.02463 2.28115C 3.7422 1.92682 3.31855 1.71422 2.89491 1.71422C 2.40066 1.71422 1.97701 1.92682 1.55337 2.28115C 1.12972 2.63548 0.635468 2.98981 0.28243 3.415C 0.211823 3.55674 -1.07739e-06 3.76933 -1.07739e-06 3.76933Z"/>
<path id="path17_fill" d="M 7.7973 9.07357C 7.7973 9.0027 7.86791 8.93183 7.86791 8.93183C 8.50338 7.72711 8.64459 6.38065 8.50338 5.0342C 8.43277 4.25467 8.29156 3.54601 7.93852 2.83735C 7.37366 1.63262 6.45576 0.711362 5.18482 0.215299C 4.0551 -0.209898 2.99599 0.00269987 2.00748 0.782228C 1.58384 1.06569 1.30141 1.49089 1.01898 1.91609C 0.242292 3.26254 -0.110746 4.75073 0.0304695 6.30979C 0.101077 6.94758 0.312899 7.51451 0.595329 8.01057C 0.948367 8.64837 1.37201 9.2153 1.93687 9.71136C 2.00748 9.78223 2.2193 9.8531 2.28991 9.92396C 2.28991 9.92396 3.20781 10.7035 4.83178 10.5618C 6.10272 10.4909 7.09123 9.92396 7.7973 9.07357C 7.7973 9.07357 7.86791 9.07357 7.7973 9.07357Z"/>
<path id="path18_fill" d="M 1.48276 1.08133e-06C 1.34154 0.496064 0.776682 0.850393 0.070607 0.850393L 5.38693e-07 0.850393L 5.38693e-07 0.92126C 5.38693e-07 1.48819 0.494253 1.98425 1.05911 1.98425C 1.62397 1.98425 2.11823 1.48819 2.11823 0.92126C 2.11823 0.496064 1.8358 0.141733 1.48276 1.08133e-06Z"/>
<path id="path19_fill" d="M 0.84729 0.726379C 0.84729 0.726379 0.917898 0.726379 0.84729 0.726379C 0.776683 0.584647 0.706076 0.372048 0.706076 0.230316L 0.706076 0.159448C 0.494253 0.159448 0.28243 0.0885838 0.141215 0.0177176C 0.0706073 0.0177176 5.38693e-07 -0.0531496 5.38693e-07 0.0885827C 5.38693e-07 0.159449 5.38693e-07 0.230316 5.38693e-07 0.230316C 5.38693e-07 0.938977 0.211823 1.5059 0.56486 1.9311C 0.56486 1.5059 0.56486 1.08071 0.84729 0.726379Z"/>
<path id="path20_fill" d="M 0.575783 1.08133e-06C 0.434568 1.08133e-06 0.293353 0 0.0815308 0.0708661C 0.0109233 0.0708661 -0.0596843 0.141733 0.0815308 0.212599C 0.575784 0.425197 0.928821 0.779526 0.928821 1.20472C 0.928821 1.41732 0.928821 1.41732 0.928821 1.41732C 1.28186 1.55906 1.56429 1.91339 1.56429 2.33858L 1.56429 2.40945C 1.91733 2.48031 2.12915 2.69291 2.34097 3.04724C 2.41158 2.83465 2.41158 2.55118 2.41158 2.33858C 2.41158 1.06299 1.56429 1.08133e-06 0.575783 1.08133e-06Z"/>
<path id="path21_fill" d="M 2.25944 -5.40666e-07L 2.25944 0.0708672C 2.18883 0.354332 2.11823 0.566929 1.9064 0.708661C 1.69458 0.850393 1.48276 0.921259 1.27094 0.921259C 1.12972 0.921259 0.917898 0.850395 0.776683 0.779529C 0.635468 0.708663 0.423645 0.56693 0.353038 0.425198C 0 0.779529 0 1.20472 0 1.62992C 0.353038 2.05512 0.776682 2.26772 1.27094 2.26772C 2.11823 2.26772 2.75369 1.55906 3.03612 0.637796C 2.8243 0.283465 2.54187 0.0708656 2.25944 -5.40666e-07Z"/>
<path id="path22_fill" d="M 5.81529 0.17491C 5.81529 0.245776 5.81529 0.387509 5.81529 0.458375C 5.67407 2.23003 3.97949 3.64735 1.93187 3.64735C 1.36701 3.64735 0.80215 3.50562 0.307897 3.36389C 0.0254673 3.29302 -0.0451414 3.43475 0.0254662 3.57648C 0.307896 5.06467 1.22579 6.19853 2.49673 6.34026C 4.19131 6.55286 5.88589 4.78121 6.16832 2.37176C 6.23893 1.6631 6.23893 0.954438 6.09772 0.316643C 5.9565 -0.0376881 5.81529 -0.108555 5.81529 0.17491Z"/>
<path id="path23_fill" d="M 7.83744 5.23387C 7.62562 3.67482 6.91954 2.25749 5.71921 1.1945C 5.15435 0.627574 4.44828 0.202377 3.67159 0.0606443C 2.96552 -0.0810879 2.25944 0.0606446 1.97701 0.131511C 1.20033 0.414975 0.494253 0.911038 5.38693e-07 1.54883C 0.0706081 1.54883 0.211823 1.4071 0.282431 1.33623C 0.847291 0.911037 1.41215 0.627574 2.11823 0.485841C 2.25944 0.485841 2.40066 0.485841 2.61248 0.485841C 2.8243 0.485841 3.03613 0.556706 3.31856 0.556706C 3.38916 0.556706 3.45977 0.627573 3.53038 0.627573C 3.67159 0.698439 3.81281 0.69844 3.95402 0.769306C 4.44828 0.981904 4.87192 1.26537 5.29557 1.6197L 5.36617 1.69056L 5.36617 1.76143C 5.36617 1.76143 5.64861 1.97403 5.64861 2.0449C 6.28407 2.68269 6.77833 3.39135 7.06076 4.31261C 7.34319 5.23387 7.41379 6.226 7.34319 7.14726C 7.27258 8.06852 7.06076 8.98978 6.5665 9.84017C 6.5665 9.84017 6.4959 9.91104 6.5665 9.91104C 6.5665 9.91104 6.5665 9.91104 6.63711 9.91104L 6.70772 9.84017C 7.27258 9.13151 7.55501 8.28112 7.83744 7.35986C 7.90805 6.79293 7.83744 5.44647 7.83744 5.23387Z"/>
<path id="path24_fill" d="M 1.55913 1.08143C 1.62974 1.08143 1.77095 0.939694 1.84156 0.868828C 2.40642 0.443631 2.97128 0.160167 3.67736 0.0184349C 4.31283 -0.0524312 4.87768 0.0893008 5.51315 0.301899C 6.00741 0.514498 6.43105 0.797961 6.8547 1.15229C 6.9253 1.22316 6.99591 1.22316 6.9253 1.29402C 6.43105 0.939694 5.9368 0.656229 5.37194 0.514497C 4.17161 0.231033 3.1831 0.514498 2.33581 1.36489C 1.48852 2.14442 1.06488 3.13654 0.782447 4.19954C 0.641232 4.9082 0.500016 5.61686 0.570624 6.39639C 0.641231 7.31765 0.99427 8.16804 1.48852 8.8767C 1.84156 9.37276 2.1946 9.79796 2.68885 10.1523C 2.75946 10.1523 2.75946 10.2232 2.75946 10.294C 2.68885 10.294 2.61824 10.294 2.61824 10.2232C 1.41792 9.51449 0.641232 8.52237 0.288194 7.17591C -0.0648439 6.04206 0.00576388 4.97906 0.00576388 4.9082C 0.00576388 4.19954 0.146979 3.56174 0.358802 2.92395C 0.641232 2.28615 0.99427 1.64836 1.55913 1.08143Z"/>
<path id="path25_fill" d="M 2.1954 9.37469C 3.1133 8.45343 3.60755 7.2487 3.74877 5.97311C 3.96059 4.41406 3.67816 2.855 3.25451 1.29595C 3.18391 1.08335 3.1133 0.941616 3.04269 0.729018C 2.97209 0.587285 2.90148 0.445553 2.83087 0.303821C 2.54844 -0.0505101 2.26601 -0.121375 1.91297 0.232956C 1.84237 0.303822 1.77176 0.374687 1.70115 0.51642C 0.430215 2.21721 -0.0640389 4.13059 0.00656863 6.18571C 0.0771762 6.96524 0.218392 7.6739 0.500822 8.38256C 0.57143 8.52429 0.57143 8.59516 0.642038 8.73689C 0.642038 8.73689 1.06568 9.44555 1.48933 9.44555C 1.77176 9.44555 2.12479 9.37469 2.1954 9.37469Z"/>
<path id="path26_fill" d="M 0.635469 1.62992C 1.05911 1.62992 1.48276 1.27559 1.48276 0.779527C 1.48276 0.425196 1.27094 0.141732 0.988507 5.03534e-15C 0.776684 0.212598 0.423644 0.354331 0.0706065 0.354331L 0 0.354331C 0 0.637795 0 0.921259 0 1.13386C 0.0706076 1.41732 0.282431 1.62992 0.635469 1.62992Z"/>
<path id="path27_fill" d="M 1.62397 3.18898C 1.69458 2.90551 1.76519 2.62205 1.76519 2.26772C 1.76519 1.13386 1.05911 0.141732 0.211822 -2.51767e-15C 0.141215 -2.51767e-15 0 0.141733 0 0.141733C 0.0706076 0.141733 0.282431 0.212598 0.494253 0.354331C 0.776684 0.566929 0.917898 0.779528 0.917898 1.13386C 0.917898 1.41732 0.776683 1.70079 0.56486 1.91339C 0.84729 2.05512 1.05911 2.33858 1.05911 2.69291C 1.34154 2.62205 1.55337 2.90551 1.62397 3.18898Z"/>
<path id="path28_fill" d="M 0.706076 0.850393C 0.423646 0.850393 0.141216 0.708662 1.07739e-06 0.425197C 1.07739e-06 0.992127 0.0706081 1.48819 0.211823 1.98425C 0.282431 1.98425 0.353039 1.98425 0.353039 1.98425C 1.12972 1.98425 1.76519 1.41732 2.04762 0.637795C 2.04762 0.354331 1.83579 0.141731 1.55336 -1.08133e-06C 1.48276 0.425196 1.12972 0.850393 0.706076 0.850393Z"/>
<path id="path29_fill" d="M 2.68309 0C 2.54187 0 2.54187 0.141732 2.54187 0.212598C 2.54187 0.35433 2.54187 0.496063 2.54187 0.708661C 2.54187 2.55118 1.55337 4.03937 0.353037 4.03937C 0.282429 4.03937 0.141216 4.03937 0.0706081 3.9685L -1.07739e-06 3.9685C 0.0706065 4.11024 0.070607 4.25197 0.141215 4.3937C 0.141215 4.46457 0.141216 4.46457 0.211824 4.53543L 0.211824 4.67716C 0.282431 4.8189 0.353038 4.88976 0.423646 5.0315C 0.494253 5.0315 0.635468 5.0315 0.635468 5.10236C 0.847291 5.17323 1.05911 5.24409 1.20033 5.38583C 1.20033 5.38583 1.27094 5.38583 1.27094 5.45669C 2.04762 4.67717 2.47126 3.7559 2.75369 2.55118C 2.89491 1.84252 2.89491 0.566929 2.8243 0.212598C 2.8243 0.141732 2.89491 0 2.68309 0Z"/>
<path id="path30_fill" d="M 1.69458 2.97638C 1.48276 2.19685 1.27093 1.48819 0.988504 0.779528C 0.917897 0.566929 0.776682 0.354331 0.635467 0.212599C 0.494252 0.0708667 0.353038 -2.70333e-07 0.211823 -2.70333e-07C 0.353038 0.283464 0.423646 0.56693 0.494254 0.92126C 0.564861 0.992127 0.564859 1.06299 0.635467 1.13386C 0.706074 1.27559 0.776684 1.41732 0.847292 1.55906C 0.917899 1.77165 0.988506 1.91339 1.05911 2.12598C 1.48276 3.61417 1.69458 5.17323 1.55337 6.80315C 1.41215 8.07874 0.988505 9.14173 0.070607 10.063L 5.38693e-07 10.1339C 0.494253 9.92126 0.84729 9.49606 1.12972 9.07087C 1.62397 8.22047 1.9064 7.29921 1.97701 6.37795C 1.97701 5.10236 1.9064 4.03937 1.69458 2.97638Z"/>
<path id="path31_fill" d="M 2.3071 0.212598C 2.16589 0.283465 2.09528 0.425197 1.95406 0.496063C 1.81285 0.708661 1.67163 0.850394 1.53042 1.06299C 0.330091 2.97638 -0.164163 5.10236 0.0476595 7.29921C 0.118267 7.79528 0.188876 8.29134 0.330091 8.7874C 0.400698 9.07086 0.61252 9.56693 0.753735 9.77953C 0.824343 9.92126 0.89495 9.77953 0.965557 9.85039C 0.89495 9.70866 0.683128 9.28346 0.683128 9.14173C 0.400698 8.43307 0.259483 7.72441 0.188875 6.94488C 0.0476601 4.8189 0.612521 2.90551 1.88346 1.27559C 1.95406 1.20472 2.02467 1.06299 2.09528 0.992126C 2.37771 0.779528 2.58953 0.708661 2.80135 0.92126C 2.73075 0.566929 2.66014 0.283465 2.51892 5.40666e-07C 2.51892 0.141733 2.44832 0.141732 2.3071 0.212598Z"/>
<path id="path32_fill" d="M 42.4351 2.40945C 42.4351 2.19685 42.4351 1.98425 42.4351 1.77165C 42.4351 1.70079 42.4351 1.62992 42.2939 1.62992C 41.6585 1.55906 40.9524 1.55906 40.3169 1.48819C 39.3284 1.41732 38.4105 1.34646 37.422 1.27559C 36.5747 1.20472 35.798 1.13386 34.9507 1.06299C 33.9622 0.992126 32.9737 0.92126 31.9852 0.850394C 31.1379 0.779528 30.3612 0.708661 29.514 0.637795C 28.9491 0.566929 28.4548 0.566929 27.89 0.496063C 27.3957 0.425197 26.8309 0.425197 26.3366 0.354331C 25.6305 0.283465 24.9245 0.212598 24.2184 0.141732C 24.1478 0.141732 24.0772 0.141732 24.0066 0.141732L 24.0066 0.0708661C 23.6535 0 23.3005 1.05599e-09 22.9475 1.05599e-09C 22.8769 1.05599e-09 22.8062 0.0708661 22.8062 0.0708661C 22.7356 0.0708661 22.7356 0.0708661 22.665 0.0708661C 22.665 0.141732 22.5238 1.05599e-09 22.4532 1.05599e-09C 21.4647 0.212598 20.4762 0.425197 19.4877 0.637795C 17.9343 0.992126 16.381 1.34646 14.8276 1.70079C 13.9803 1.91339 13.0624 2.05512 12.2151 2.26772C 10.3087 2.69291 8.47291 3.11811 6.5665 3.54331C 5.50739 3.75591 4.44828 4.03937 3.38916 4.25197C 2.33005 4.46457 1.20033 4.74803 0.141215 4.96063C 1.05213e-08 4.96063 4.20854e-09 5.0315 4.20854e-09 5.17323C 0.353038 5.24409 0.706076 5.31496 1.05911 5.45669C 1.97701 5.66929 2.89491 5.95276 3.81281 6.16535L 3.88342 6.16535C 4.02463 6.16535 4.16585 6.23622 4.23645 6.23622C 4.80131 6.37795 5.36617 6.44882 5.86043 6.66142C 6.4959 6.80315 7.06076 6.94488 7.69622 7.08661C 8.47291 7.29921 9.24959 7.51181 10.0263 7.65354C 11.5796 8.07874 13.133 8.43307 14.6864 8.85827C 14.8276 8.85827 14.8276 8.92913 14.8276 9.07087C 14.8276 9.6378 14.8276 10.1339 14.8276 10.7008C 14.9688 10.7008 15.11 10.6299 15.1806 10.6299C 15.7455 10.4882 16.2397 10.3465 16.8046 10.1339C 18.0755 9.77953 19.3465 9.4252 20.6174 9.07087C 22.2414 8.5748 23.8654 8.14961 25.4893 7.65354C 26.266 7.44094 27.1133 7.22835 27.89 6.94488L 27.9606 6.94488C 28.0312 6.87402 28.1724 6.87402 28.243 6.80315C 28.3136 6.80315 28.3136 6.80315 28.3136 6.80315C 23.7947 8.07874 19.3465 9.4252 14.8276 10.7008C 14.6864 10.7717 14.5452 10.7717 14.4039 10.7008C 14.1215 10.6299 13.8391 10.5591 13.5567 10.4882C 13.6273 11.0551 13.6273 11.622 13.6979 12.189C 18.2168 11.3386 22.665 11.1968 27.0427 12.5433C 27.1839 12.189 27.3251 11.8346 27.4663 11.5512C 27.5369 11.4094 27.6782 11.1969 27.7488 11.0551C 27.8194 11.126 27.8194 11.2677 27.9606 11.3386C 27.9606 11.3386 28.0312 11.1969 28.1018 11.1969C 28.4548 10.7008 28.6667 10.4173 29.1609 10.1339C 29.2315 10.063 29.2315 9.99213 29.2315 9.92126C 29.2315 9.56693 29.2315 9.14173 29.1609 8.71654C 29.1609 8.3622 29.1609 7.86614 29.0903 7.51181C 29.0903 7.22835 29.0903 7.01575 29.0197 6.73228C 29.0197 6.59055 29.1609 6.59055 29.3021 6.59055C 29.867 6.44882 30.5025 6.23622 31.0673 6.09449C 33.2562 5.45669 35.3744 4.88976 37.5632 4.25197C 38.0575 4.11024 38.4811 3.9685 38.9754 3.82677C 39.1166 3.82677 39.2578 3.68504 39.4696 3.68504C 39.7521 3.61417 40.0345 3.54331 40.3169 3.47244C 40.9524 3.25984 41.5879 3.11811 42.2939 2.90551C 42.2939 2.90551 42.2939 2.90551 42.2939 2.97638C 42.3645 2.97638 42.4351 2.90551 42.5764 2.90551C 42.4351 2.69291 42.4351 2.55118 42.4351 2.40945ZM 13.8391 4.6063C 13.6979 4.6063 12.6388 4.8189 12.3563 4.8189C 11.9327 4.88976 11.509 4.96063 11.0148 5.0315C 10.4499 5.10236 9.81445 5.24409 9.24959 5.31496C 8.54352 5.45669 7.83744 5.52756 7.13136 5.66929C 6.63711 5.74016 6.00164 5.81102 5.43678 5.95276C 5.29557 5.95276 5.15435 6.02362 5.08374 6.02362C 4.80131 6.09449 4.51888 6.02362 4.23645 5.95276C 4.44828 5.88189 4.44828 5.88189 4.6601 5.88189C 5.29557 5.74016 5.86043 5.59843 6.5665 5.45669C 7.13136 5.38583 7.69622 5.31496 8.26109 5.17323C 8.89655 5.10236 9.53202 4.96063 10.0969 4.88976C 10.7323 4.8189 11.3678 4.67717 12.0033 4.6063C 12.3563 4.53543 12.7094 4.46457 13.0624 4.3937C 13.133 4.3937 13.133 4.3937 13.2036 4.3937L 13.2742 4.3937L 13.3448 4.3937C 13.6979 4.32283 14.0509 4.25197 14.4039 4.1811C 14.6158 4.1811 14.8276 4.11024 15.0394 4.03937C 15.3924 4.03937 15.8161 3.89764 16.1691 3.89764C 16.734 3.82677 17.2989 3.68504 17.8637 3.61417C 18.358 3.54331 18.8522 3.47244 19.3465 3.40158C 19.4171 3.40158 19.4877 3.40158 19.4877 3.33071C 19.5583 3.04724 19.8407 2.90551 20.0525 2.76378C 20.7586 2.40945 21.5353 2.33858 22.312 2.69291C 22.665 2.83465 22.8062 3.04724 22.8062 3.33071C 22.8062 3.61417 22.5944 3.75591 22.3826 3.89764C 22.0296 4.03937 21.6059 4.1811 21.2529 4.1811C 20.8292 4.25197 20.4056 4.1811 19.9819 3.9685C 19.8407 3.89764 19.7701 3.82677 19.6995 3.75591C 19.5583 3.61417 19.4171 3.68504 19.2053 3.68504C 18.4992 3.82677 17.7931 3.89764 17.087 4.03937C 16.381 4.1811 15.6043 4.25197 14.8982 4.3937C 14.8982 4.46457 14.1921 4.53543 13.8391 4.6063Z"/>
<path id="path33_fill" d="M 24.642 1.27559C 24.5714 1.27559 7.97865 0.141732 6.84893 1.57354e-16C 6.77832 1.57354e-16 6.77832 1.57354e-16 6.70772 1.57354e-16C 6.07225 0.141732 3.88341 0.566929 3.17734 0.708661C 3.17734 0.708661 0.84729 1.13386 -5.38693e-07 1.34646L -5.38693e-07 1.48819C -5.38693e-07 1.48819 -5.38693e-07 1.84252 -5.38693e-07 2.40945C -5.38693e-07 2.69291 -2.68294e-07 3.04724 0.0706073 3.40157L 0.141215 3.89764C 0.211823 5.74016 0.282431 7.93701 0.282431 7.93701C 0.282431 8.07874 0.423645 8.07874 0.706075 8.07874C 1.41215 7.86614 2.33005 7.65354 3.31855 7.37008C 7.41379 6.30709 26.1954 1.41732 26.1954 1.41732C 26.7603 1.27559 24.8539 1.27559 24.642 1.27559Z"/>
<path id="path34_fill" d="M 10.7323 2.83465C 10.7323 2.69291 10.6617 2.62205 10.5911 2.62205C 9.03777 2.19685 7.4844 1.84252 5.93103 1.41732C 5.15435 1.20472 4.37767 0.992126 3.60099 0.850394C 2.96552 0.708662 2.40066 0.566929 1.76519 0.425197C 1.27094 0.212598 0.706076 0.141732 0.211823 -2.70333e-07C 0.0706076 0.0708659 -1.34673e-07 0.283465 -1.34673e-07 0.425197C 0.0706074 0.779528 0.141215 1.13386 0.141215 1.48819C 0.141215 1.55906 0.0706074 1.55906 -1.34673e-07 1.55906C 0.494253 1.70079 0.917898 1.84252 1.41215 1.98425C 1.62397 2.05512 1.76519 2.05512 1.97701 2.12598C 3.67159 2.62205 5.36617 3.04724 7.13136 3.54331C 7.76683 3.75591 8.4023 3.89764 9.03777 4.11024C 9.53202 4.25197 10.0263 4.3937 10.5911 4.53543C 10.6617 4.53543 10.7323 4.6063 10.803 4.53543C 10.7323 3.89764 10.803 3.40157 10.7323 2.83465Z"/>
<path id="path35_fill" d="M 1.27094 0.283464C 0.917898 0.212598 0.353038 0.0708663 2.10427e-09 1.35166e-07C 2.10427e-09 0.496063 0.141215 0.992126 0.211823 1.41732C 0.211823 1.55906 0.353038 1.62992 0.494253 1.62992C 1.27094 1.84252 2.04762 2.05512 2.8243 2.26772C 3.24795 2.40945 3.67159 2.48032 4.09524 2.62205C 4.09524 2.12598 4.09524 1.55906 4.09524 1.06299L 4.02463 1.06299C 3.03612 0.779528 2.11823 0.496063 1.27094 0.283464Z"/>
<path id="path36_fill" d="M 10.5911 0.992126C 8.96716 1.48819 7.34319 1.91339 5.71921 2.40945C 4.44828 2.76378 3.17734 3.11811 1.9064 3.47244C 1.62397 3.54331 0.776683 3.54331 -2.50848e-15 3.61417C 0.0706076 3.68504 0.0706078 3.7559 0.0706078 3.82677C 0.0706078 4.3937 0.211822 5.0315 0.28243 5.59842C 1.20033 5.52756 2.25944 5.38583 2.47126 5.38583C 2.96552 5.31496 3.88342 5.17323 4.37767 5.17323C 5.22496 5.17323 5.86043 4.96063 6.70772 5.0315C 7.34319 5.10236 7.62562 5.17323 8.26108 5.17323C 8.47291 5.17323 10.1675 5.24409 10.3793 5.24409C 10.803 5.31496 15.1806 0.141732 15.1806 1.25884e-15C 15.11 0.0708661 11.4384 0.779527 10.5911 0.992126Z"/>
<path id="path37_fill" d="M 0.0328439 1.38238e-07C 0.0328439 1.38238e-07 0.0328439 0.0724769 0.0328439 1.38238e-07C -0.0410561 1.38238e-07 0.0328439 1.38238e-07 0.0328439 1.38238e-07Z"/>
<path id="path38_fill" d="M 18.4286 0.180453C 17.6519 -0.103011 16.8752 -0.032145 16.1691 0.251319C 15.9573 0.393052 15.6749 0.534784 15.6043 0.818249C 15.6043 0.889115 15.4631 0.889115 15.4631 0.889115C 14.9688 0.959981 14.4745 1.03085 13.9803 1.10171C 13.4154 1.17258 12.8506 1.31431 12.2857 1.38518C 11.9327 1.45604 11.509 1.52691 11.156 1.52691C 10.9442 1.59778 10.7323 1.66864 10.5205 1.66864C 10.1675 1.73951 9.81445 1.81037 9.46141 1.88124C 9.46141 1.95211 9.46141 1.95211 9.3908 1.88124L 9.3202 1.88124C 9.24959 1.88124 9.24959 1.88124 9.17898 1.88124C 8.82594 1.95211 8.47291 2.02297 8.11987 2.09384C 7.4844 2.16471 6.84893 2.30644 6.21346 2.3773C 5.578 2.44817 4.94253 2.5899 4.37767 2.66077C 3.81281 2.73163 3.24795 2.87337 2.68309 2.94423C 1.97701 3.0151 1.34154 3.15683 0.706075 3.29856C 0.211823 3.36943 6.73366e-08 3.4403 6.73366e-08 3.65289L 6.73366e-08 4.00723C 6.73366e-08 4.00723 6.73366e-08 4.71589 6.73366e-08 5.21195C 0.0706076 5.21195 0.141215 5.28282 0.211822 5.28282C 0.28243 5.28282 0.353038 5.28282 0.353038 5.21195C 0.353038 4.85762 0.353038 3.93636 0.353038 3.72376C 0.494253 3.72376 1.41215 3.4403 1.55337 3.4403C 2.11823 3.36943 2.68309 3.29856 3.31855 3.15683C 4.02463 3.0151 4.73071 2.94423 5.43678 2.8025C 6.00164 2.73163 6.63711 2.5899 7.20197 2.51904C 7.62562 2.44817 8.11987 2.3773 8.54351 2.30644C 8.82594 2.23557 9.88506 2.09384 10.0263 2.09384C 10.3793 2.02297 11.0854 1.95211 11.0854 1.95211C 11.7915 1.81037 12.5681 1.73951 13.2742 1.59778C 13.9803 1.45604 14.6864 1.38518 15.3924 1.24345C 15.5337 1.24345 15.6749 1.17258 15.8161 1.38518C 15.8867 1.45604 15.9573 1.52691 16.0985 1.59778C 16.5222 1.66864 16.9458 1.73951 17.3695 1.66864C 17.7931 1.59778 18.1461 1.52691 18.4992 1.31431C 18.711 1.17258 18.9228 1.03085 18.9228 0.747382C 18.9228 0.534784 18.7816 0.322186 18.4286 0.180453Z"/>
<path id="path39_fill" d="M 27.6076 13.2126C 27.3251 13.1417 27.0427 13 26.6897 12.9291C 25.3481 12.5748 23.936 12.3622 22.5238 12.2205C 21.041 12.0787 19.6289 12.0079 18.1461 12.0787C 16.6634 12.1496 15.1806 12.3622 13.7685 12.6457C 13.6979 12.6457 13.6979 12.6457 13.6273 12.6457C 13.5567 12.0787 13.4154 11.5118 13.3448 10.874C 13.3448 10.8031 13.3448 10.7323 13.3448 10.6614C 13.2742 10.3071 13.2036 10.2362 12.8506 10.1654C 8.68473 9.0315 4.51888 7.82677 0.28243 6.69291C 0.141215 6.69291 0.0706076 6.62205 0.0706076 6.48032C 0.0706076 6.05512 -1.05214e-09 5.70079 -1.05214e-09 5.27559C 0.0706076 5.34646 0.0706076 5.20472 0.0706076 5.13386C 0.141215 5.06299 0.353038 5.06299 0.423645 4.99213C 2.04762 4.6378 3.60099 4.28346 5.22496 3.92913C 7.27258 3.50394 9.24959 3.00787 11.2972 2.58268C 13.9803 2.01575 16.734 1.37795 19.4171 0.811024C 20.5468 0.527559 21.6765 0.314961 22.8062 0.0314961C 23.0887 -0.0393701 23.4417 0.0314961 23.7241 0.0314961C 24.289 0.102362 24.9245 0.102362 25.4893 0.173228C 26.1954 0.244094 26.9721 0.314961 27.6782 0.385827C 28.3842 0.456693 29.0903 0.527559 29.7964 0.527559C 30.5025 0.598425 31.2085 0.669291 31.9852 0.740157C 32.6913 0.811024 33.3974 0.88189 34.1034 0.88189C 34.8095 0.952756 35.5862 1.02362 36.2923 1.09449C 36.9984 1.16535 37.7044 1.23622 38.4105 1.23622C 39.1166 1.30709 39.8933 1.37795 40.5993 1.44882C 41.1642 1.51969 41.7291 1.51969 42.3645 1.59055C 42.5057 1.59055 42.7176 1.59055 42.8588 1.66142C 42.9294 1.66142 43 1.73228 43 1.80315C 43 2.15748 43 2.44095 43 2.79528C 43 2.86614 42.9294 2.86614 42.8588 2.93701C 42.1527 3.14961 41.376 3.3622 40.6699 3.5748C 36.9984 4.6378 33.3268 5.70079 29.6552 6.76378C 29.514 6.76378 29.514 6.83465 29.514 6.97638C 29.5846 7.61417 29.5846 8.32283 29.5846 8.96063C 29.5846 9.38583 29.5846 9.74016 29.6552 10.1654C 29.6552 10.2362 29.5846 10.3071 29.5846 10.378C 28.5254 11.0157 27.89 12.0079 27.6076 13.2126C 27.6782 13.2126 27.6782 13.2126 27.6076 13.2126C 27.6076 13.2126 27.6782 13.2126 27.6076 13.2126ZM 42.0115 1.73228C 41.023 1.59055 40.1051 1.59055 39.1166 1.51969C 38.5517 1.51969 38.0575 1.44882 37.4926 1.44882C 36.5747 1.37795 35.6568 1.30709 34.8095 1.23622C 34.1034 1.16535 33.3974 1.16535 32.7619 1.09449C 31.844 1.02362 30.9261 0.952756 30.0788 0.88189C 29.3727 0.811024 28.6667 0.811024 28.0312 0.740157C 27.1133 0.669291 26.266 0.598425 25.3481 0.527559C 24.642 0.456693 23.936 0.456693 23.3005 0.385827C 23.2299 0.385827 23.0887 0.385827 23.0181 0.385827C 21.7471 0.669291 20.4056 0.952756 19.1346 1.23622C 17.4401 1.59055 15.7455 1.94488 14.1215 2.29921C 12.0033 2.72441 9.95566 3.22047 7.83744 3.64567C 5.86043 4.07087 4.02463 4.4252 2.25944 4.85039C 1.62397 4.99213 1.05911 5.13386 0.423645 5.27559C 0.353038 5.27559 0.28243 5.34646 0.28243 5.41732C 0.28243 5.62992 0.353038 5.91339 0.353038 6.12598C 0.353038 6.26772 0.423645 6.33858 0.56486 6.33858C 5.36617 7.61417 10.1675 8.88976 14.9688 10.1654C 15.0394 10.1654 15.1806 10.1654 15.2512 10.1654C 19.064 9.10236 22.8062 8.03937 26.619 6.97638C 31.2085 5.70079 35.8686 4.35433 40.4581 3.07874C 41.1642 2.86614 41.8703 2.65354 42.5764 2.44095C 42.647 2.44095 42.7176 2.37008 42.7176 2.37008C 42.7176 2.15748 42.7176 1.94488 42.7176 1.73228C 41.7291 2.01575 40.7406 2.22835 39.7521 2.51181L 40.3169 2.29921C 41.023 2.08661 41.1642 2.01575 42.0115 1.73228ZM 27.3957 12.7165C 27.5369 12.3622 27.6782 12.0079 27.8194 11.7244C 28.1018 11.0866 28.5254 10.5906 29.0903 10.1654C 29.2315 10.0945 29.3021 9.95276 29.2315 9.81102C 29.1609 9.24409 29.1609 8.6063 29.0903 8.03937C 29.0903 7.68504 29.0197 7.40157 29.0197 7.04724C 29.0197 6.97638 28.9491 6.90551 28.8785 6.97638C 28.8079 6.97638 28.8079 6.97638 28.7373 6.97638C 24.2184 8.25197 19.6289 9.59842 15.11 10.874C 14.9688 10.9449 14.8276 10.9449 14.6864 10.874C 14.4039 10.8031 14.1215 10.7323 13.8391 10.6614C 13.9097 11.2283 13.9097 11.7953 13.9803 12.3622C 18.4992 11.4409 23.0181 11.2992 27.3957 12.7165Z"/>
<path id="path40_fill" d="M 1.06598 8.85827C 1.06598 9 1.06598 9.14173 1.06598 9.2126C 0.995368 9.2126 0.995368 9.2126 0.995368 9.14173C 0.783545 8.85827 0.642331 8.5748 0.430508 8.3622C 0.3599 8.29134 0.289293 8.22047 0.3599 8.1496C 0.3599 8.07874 0.3599 8.00787 0.3599 8.00787C 0.430508 8.00787 0.430508 8.07874 0.501115 8.07874C 0.571723 8.22047 0.712938 8.29134 0.783546 8.43307C 0.783546 8.50394 0.854153 8.50394 0.854153 8.43307C 0.854153 8.29134 0.854153 8.1496 0.854153 8.00787C 0.854153 7.72441 0.854153 7.65354 0.924761 7.37008C 0.995368 7.08661 0.995368 6.87401 0.995368 6.51968C 0.995368 6.51968 0.995368 6.37795 0.995368 6.30709C 0.995368 6.30709 0.924761 6.23622 0.854153 6.23622C 0.854153 6.30708 0.854153 6.37795 0.854153 6.37795C 0.854153 6.59055 0.783546 6.80315 0.712938 7.01575C 0.501116 7.44094 0.289293 7.86614 0.00686273 8.22047C -0.0637448 8.29134 0.430508 6.87401 0.571723 6.59055C 0.712938 6.37795 0.712938 6.09449 0.712938 5.81102C 0.712938 5.74016 0.712938 5.66929 0.64233 5.59842C 0.289293 5.10236 0.218685 4.53543 0.148078 3.89764C 0.148078 3.54331 0.148078 3.11811 0.218685 2.76378C 0.289293 2.48032 0.3599 2.12598 0.501115 1.84252C 0.642331 1.55905 0.924761 1.34646 1.13658 1.20472C 1.20719 1.13386 1.2778 1.13386 1.34841 1.06299C 1.41901 1.06299 1.41901 0.992126 1.34841 0.92126C 1.34841 0.850394 1.2778 0.92126 1.2778 0.92126C 1.20719 0.992126 1.13658 0.992126 1.06598 0.992126C 1.2778 0.708662 1.41901 0.35433 1.34841 -5.40666e-07C 1.34841 -5.40666e-07 1.34841 -5.40666e-07 1.41901 -5.40666e-07C 1.41901 -5.40666e-07 1.41901 -2.69277e-07 1.41901 0.0708659C 1.48962 0.283464 1.48962 0.425197 1.41901 0.637796C 1.41901 0.708662 1.34841 0.850394 1.41901 0.850394C 1.56023 0.92126 1.70144 0.992126 1.84266 0.992126C 2.12509 1.27559 2.2663 1.70079 2.40752 2.12598C 2.68995 3.25984 2.40752 4.3937 2.05448 5.45669C 1.91327 5.88189 1.77205 6.30709 1.70144 6.73228C 1.63084 7.15748 1.63084 7.58268 1.70144 8.07874L 1.70144 8.1496C 1.63084 8.1496 1.56023 8.07874 1.56023 8.07874C 1.48962 7.72441 1.41901 7.37008 1.41901 6.94488C 1.41901 6.94488 1.41901 7.08661 1.34841 7.01575C 1.34841 7.08661 0.995368 8.85827 1.06598 8.85827Z"/>
<path id="path41_fill" d="M 3.25909 1.41732C 3.18848 1.34646 3.18848 1.27559 3.18848 1.20472C 3.3297 0.779527 3.11788 0.354331 2.76484 0.0708667C 2.62362 0.0708667 2.48241 0.0708667 2.34119 0.0708667C 2.05876 0.0708667 1.4939 0.0708664 1.4939 2.70333e-07C 1.14087 0.141733 0.929043 0.425197 0.787828 0.779528C 0.787828 0.992127 0.858436 1.20472 0.858436 1.34646C 0.929043 1.41732 0.787828 1.41732 0.787828 1.55905C 0.787828 1.77165 0.505398 2.19685 0.434791 2.33858C 0.15236 3.04724 -0.483108 4.3937 0.646613 6.51968C 1.07026 7.29921 0.787828 9.28347 1.14087 9.07087C 1.28208 8.85827 1.84694 8.00787 2.05876 7.58268C 1.84694 8.00787 1.63512 8.3622 1.35269 8.7874C 1.28208 8.85827 1.28208 8.92913 1.28208 9C 1.35269 8.85827 1.4939 8.85827 1.56451 9C 1.56451 9.07087 1.63512 9.07087 1.63512 9.14173C 1.91755 9.4252 2.12937 9.77953 2.4118 10.063C 2.48241 9.99213 2.4118 9.92126 2.4118 9.85039C 2.34119 9.85039 2.34119 9.85039 2.34119 9.77953C 2.12937 9.49606 1.98816 9.2126 1.77633 9C 1.70573 8.92913 1.63512 8.85827 1.70573 8.7874C 1.70573 8.71654 1.70573 8.64567 1.70573 8.64567C 1.77633 8.64567 1.70573 8.7874 1.77633 8.7874C 1.84694 8.92913 2.05876 9.28346 2.12937 9.35433C 2.12937 9.4252 2.19998 9.14173 2.19998 9C 2.19998 8.85827 2.4118 7.22835 2.4118 6.94488L 2.4118 6.87401C 2.4118 6.87401 2.34119 6.80315 2.27059 6.80315C 2.27059 6.80315 2.27059 6.80315 2.19998 6.80315C 2.19998 6.73228 2.19998 6.59055 2.19998 6.51968C 2.19998 6.44882 2.05876 6.23622 1.98816 6.16535C 1.63512 5.66929 1.56451 5.10236 1.4939 4.46457C 1.4939 4.11024 1.4939 3.68504 1.56451 3.33071C 1.63512 3.04724 1.70573 2.69291 1.84694 2.40945C 1.98816 2.12598 2.27059 1.91339 2.48241 1.77165C 2.55302 1.70079 2.62362 1.70079 2.69423 1.62992C 2.76484 1.62992 2.76484 1.41732 2.83545 1.41732C 2.97666 1.48819 3.11788 1.55905 3.25909 1.55905C 3.40031 1.55905 3.3297 1.48819 3.25909 1.41732Z"/>
<path id="path42_fill" d="M 3.2224 0.796637C 2.86937 1.36357 2.30451 1.5053 1.73965 1.64703C 1.38661 1.7179 1.10418 1.64703 0.751142 1.57616C 0.539319 1.5053 0.327496 1.43443 0.18628 1.2927C -0.0961497 1.0801 -0.0255422 0.796637 0.18628 0.513173C 0.468711 0.229708 0.821748 0.0879758 1.24539 0.0171096C 2.44572 -0.0537565 3.01058 0.0879757 3.2224 0.584039C 3.2224 0.654905 3.2224 0.725771 3.2224 0.796637Z"/>
<path id="path43_fill" d="M 0.0706076 2.05512C 0 1.98425 6.73366e-08 1.91338 6.73366e-08 1.84252C 0.0706076 1.34646 0.0706077 0.779528 0.28243 0.354331C 0.28243 0.283465 0.353038 0.0708661 0.353038 0C 0.353038 0 0.564861 0.921259 0.635468 1.27559C 0.494253 1.20472 0.423645 1.13386 0.353038 1.06299C 0.211823 0.992126 0.141215 0.992125 0.141215 1.13386C 0.0706075 1.41732 0.0706076 1.70079 0.0706076 2.05512Z"/>
<path id="path44_fill" d="M 0 -7.62939e-07C 0.0731719 -7.62939e-07 0 -7.62939e-07 0 -7.62939e-07L 0 -7.62939e-07Z"/>
<path id="path45_fill" d="M 0.293346 0.301899C 0.575776 0.0893006 0.858205 -0.0524318 1.21124 0.0184344C 1.35246 0.0184344 1.42307 0.0893005 1.42307 0.231033C 1.35246 0.585364 1.63489 0.727096 1.84671 0.797962C 1.98793 0.868828 2.12914 0.868828 2.27036 1.01056C 2.41157 1.08143 2.41157 1.15229 2.27036 1.29403C 2.19975 1.36489 2.12914 1.36489 2.05853 1.36489C 1.63489 1.43576 1.21124 1.50662 0.787598 1.43576C 0.505167 1.43576 0.293345 1.29403 0.15213 1.08143C -0.200908 0.797962 0.15213 0.443631 0.293346 0.301899Z"/>
<path id="path46_fill" d="M 0.160459 17.1102C 0.301674 16.5433 0.654712 16.0472 1.00775 15.622C 1.07836 15.5512 1.14896 15.4094 1.14896 15.4094C 1.00775 14.7008 1.502 14.1339 2.20808 14.063C 2.4199 14.063 2.4199 14.063 2.4199 13.7795C 2.4199 10.5906 2.4199 7.40157 2.4199 4.14173C 2.4199 4.07087 2.4199 4 2.4199 3.92913C 2.4199 3.64567 2.49051 3.5748 2.77294 3.5748C 4.74995 3.22047 6.79757 2.93701 8.77458 2.58268C 10.1161 2.37008 11.4577 2.15748 12.7992 1.94488C 14.4938 1.66142 16.1178 1.37795 17.8123 1.16535C 17.9536 1.16535 18.0948 1.09449 18.0948 0.88189C 18.0948 0.740158 18.3066 0.598425 18.3772 0.456693C 18.6596 0.244094 19.0127 0.102362 19.3657 0.0314961C 19.86 -0.03937 20.3542 0.0314961 20.4248 0.0314961C 20.8485 0.102362 21.2015 0.244095 21.3427 0.598425C 21.4839 1.02362 21.0603 1.30709 20.7779 1.44882C 20.0718 1.80315 19.3657 1.87402 18.589 1.59055C 18.4478 1.51969 18.3066 1.37795 18.1654 1.30709C 18.1654 1.37795 18.0242 1.30709 17.9536 1.30709C 16.1884 1.59055 14.4938 1.87402 12.7992 2.15748C 10.9634 2.44094 9.05701 2.72441 7.22121 3.07874C 5.80906 3.29134 4.3263 3.50394 2.91415 3.7874C 2.63172 3.7874 2.56112 3.7874 2.56112 4C 2.56112 7.25984 2.56112 10.5906 2.56112 13.8504C 2.56112 13.9921 2.63172 14.063 2.77294 14.063C 3.3378 14.1339 3.69084 14.6299 3.69084 15.1969C 3.69084 15.4094 3.76144 15.5512 3.90266 15.6929C 4.3263 16.189 4.46752 16.7559 4.53813 17.3937C 4.53813 18.4567 4.3263 19.4488 3.97327 20.4409C 3.62023 21.2205 3.54962 22.0709 3.69084 22.9213C 3.69084 22.9921 3.69084 22.9921 3.69084 23.063C 3.69084 23.063 3.69084 23.063 3.69084 23.1339C 3.40841 22.9213 3.26719 22.7795 2.98476 22.5669C 2.91415 23.2047 2.91415 23.7717 2.84355 24.3386C 2.56112 23.9843 2.20808 23.5591 1.85504 23.2047C 1.78443 23.1339 1.71382 23.1339 1.64322 23.2047C 1.43139 23.3465 1.14896 23.4882 0.937142 23.7008C 0.937142 23.4173 1.00775 23.2047 1.07836 22.9921C 1.14896 22.6378 1.14896 22.2835 1.14896 22C 1.14896 21.5748 0.937142 21.2205 0.795927 20.8661C 0.654712 20.4409 0.442889 20.0866 0.301674 19.7323C 0.160459 19.378 0.0898512 19.1654 0.0192436 18.6693C -0.0513639 17.9606 0.089851 17.3228 0.160459 17.1102ZM 3.40841 22.6378C 3.47901 22.6378 3.47901 22.6378 3.40841 22.6378C 3.47901 22.5669 3.47901 22.4961 3.47901 22.4252C 3.47901 22.1417 3.40841 21.7874 3.47901 21.5039C 3.54962 21.0079 3.69084 20.5827 3.83205 20.0866C 4.04387 19.3071 4.2557 18.4567 4.18509 17.6063C 4.11448 16.9685 3.90266 16.4016 3.47901 15.8346C 3.40841 15.7638 3.3378 15.7638 3.26719 15.7638C 3.12598 15.8346 2.98476 15.8346 2.84355 15.8346C 2.84355 15.8346 2.84355 15.8346 2.84355 15.7638C 2.91415 15.7638 2.91415 15.6929 2.98476 15.6929C 3.19658 15.6929 3.26719 15.4803 3.3378 15.2677C 3.3378 14.9134 3.26719 14.6299 2.98476 14.4173C 2.91415 14.3465 2.84355 14.3465 2.77294 14.2756C 2.77294 14.3465 2.77294 14.4173 2.70233 14.4173C 2.63172 14.4882 2.4199 14.4882 2.34929 14.4173C 2.34929 14.4173 2.27869 14.3465 2.27869 14.2756C 1.99626 14.2047 1.71382 14.4882 1.57261 14.8425C 1.43139 15.3386 1.502 15.5512 1.99625 15.8346C 1.99625 15.8346 2.06686 15.8346 2.13747 15.9055C 1.85504 15.9055 1.502 15.7638 1.29018 15.6929C 1.21957 15.7638 1.14896 15.8346 1.14896 15.9764C 1.00775 16.3307 0.795927 16.685 0.654712 17.1102C 0.442889 17.8189 0.372281 18.5276 0.584104 19.3071C 0.725319 19.7323 0.866534 20.0866 1.07836 20.4409C 1.36079 21.0787 1.64322 21.7165 1.57261 22.4252C 1.57261 22.6378 1.502 22.7795 1.502 22.9921C 2.4199 22.1417 2.77294 21.0787 2.77294 19.874C 2.84355 20.0157 2.84355 20.1575 2.84355 20.2992C 2.84355 21.1496 2.70233 21.9291 2.27869 22.6378C 2.27869 22.7087 2.20808 22.7795 2.27869 22.7795C 2.49051 23.1339 2.63172 23.4882 2.84355 23.8425C 2.84355 23.4882 2.91415 23.2047 2.91415 22.9213C 2.98476 22.6378 2.98476 22.3543 3.05537 22C 3.12598 21.7165 3.19658 21.4331 3.26719 21.1496C 3.26719 21.1496 3.19658 21.7165 3.19658 22C 3.19658 22.0709 3.19658 22.2126 3.19658 22.2835C 3.19658 22.4252 3.3378 22.5669 3.40841 22.6378ZM 19.0833 0.244095C 18.8009 0.314961 18.5184 0.456693 18.3066 0.669291C 18.236 0.811024 18.1654 0.952756 18.236 1.09449C 18.3772 1.30709 18.5184 1.37795 18.7302 1.44882C 19.1539 1.51969 19.5775 1.59055 20.0012 1.51969C 20.2836 1.44882 20.566 1.37795 20.8485 1.23622C 21.0603 1.16535 21.2015 0.952756 21.2015 0.669291C 21.2015 0.456693 20.9897 0.314961 20.7779 0.244095C 20.213 0.102362 19.3657 0.173228 19.0833 0.244095Z"/>
<path id="path47_fill" d="M 0.0706074 2.55118L -6.73366e-08 2.55118L 15.3924 -1.35166e-07L 15.3924 0.141732L 0.0706074 2.55118Z"/>
<path id="path48_fill" d="M 2.25944 5.64432C 1.97701 5.57345 1.76519 5.43172 1.55337 5.21912C 1.48276 5.14825 1.48276 5.07739 1.41215 5.00652L 1.41215 4.93566C 1.48276 4.93566 1.55336 4.86479 1.62397 4.86479C 1.69458 4.86479 1.8358 4.93566 1.9064 4.93566L 1.97701 4.93566C 1.97701 5.00652 2.04762 5.00652 2.04762 5.00652C 2.18883 5.07739 2.40066 5.00652 2.54187 4.93566C 2.89491 4.79392 3.24795 4.65219 3.53038 4.51046C 3.67159 4.43959 3.7422 4.43959 3.7422 4.22699C 3.7422 4.15613 3.67159 4.08526 3.60099 4.08526C 3.31856 4.08526 3.10673 4.22699 2.8243 4.08526C 2.8243 4.08526 2.68309 4.01439 2.61248 3.94353C 2.04762 3.66006 1.76519 3.8018 1.34154 3.30574C 1.05911 2.9514 0.706075 2.31361 0.494253 1.88841C 0.353038 1.60495 -5.38693e-07 0.329356 -5.38693e-07 0.045891C -5.38693e-07 -0.0249752 0.28243 0.25849 0.353037 0.187624C 0.423645 0.116758 0.494252 0.258489 0.564859 0.258489C 0.494252 0.400221 0.564861 0.541955 0.635468 0.683687C 0.776684 1.10888 0.917899 1.46321 1.12972 1.81754C 1.76519 2.80967 2.61248 3.44747 3.81281 3.66007C 4.09524 3.66007 4.16584 3.5892 4.09524 3.30574C 4.02463 3.02227 3.95402 2.66794 3.95402 2.38447C 3.95402 2.10101 3.95402 1.74668 3.95402 1.46321C 3.95402 1.10888 4.02463 0.683687 4.09524 0.329357C 4.16584 0.116758 4.37767 -0.0958413 4.51888 0.045891C 4.37767 0.541954 4.37767 1.25062 4.37767 1.74668C 4.37767 2.31361 4.44827 2.9514 4.80131 3.3766L 4.87192 3.44747C 4.80131 3.51833 4.80131 3.5892 4.80131 3.73093C 4.80131 3.8018 4.73071 3.87266 4.73071 3.94353C 4.6601 4.01439 4.6601 4.0144 4.6601 4.08526C 4.16585 4.58132 3.67159 5.07739 3.03612 5.36085C 2.89491 5.43172 2.68309 5.50258 2.47126 5.57345C 2.54187 5.64432 2.40066 5.64432 2.25944 5.64432Z"/>
<path id="path49_fill" d="M 1.07739e-06 0.400879C 0.211824 0.259147 0.494254 0.18828 0.706077 0.0465482C 0.776684 -0.024318 0.917898 -0.0243163 0.988505 0.117416C 0.988505 0.188282 0.847289 0.117416 0.847289 0.117416C 0.635467 0.0465498 0.635468 0.259147 0.564861 0.400879C 0.423646 0.75521 0.282431 2.31427 0.564861 3.37726L 0.564861 3.44812C 0.564861 3.58985 0.635467 3.87332 0.635467 3.87332C 0.635467 3.94419 0.494252 3.80245 0.28243 3.73159C 0.28243 3.58986 0.211823 3.44812 0.211823 3.37726C 0.141216 3.02293 0.0706075 2.66859 0.0706075 2.38513C 0.0706075 2.31426 0.0706075 2.2434 0.0706075 2.10167C 0.0706075 1.6056 0.0706065 1.10954 0.141214 0.613477C 0.141214 0.542611 0.282431 0.40088 0.211823 0.330014C 0.211823 0.40088 0.0706086 0.400879 1.07739e-06 0.400879Z"/>
<path id="path50_fill" d="M 2.99477 0.212598C 3.06537 0.212598 3.3478 0.0708667 3.3478 0.141733C 3.13598 0.637796 3.13598 2.19685 3.13598 2.26772C 3.06537 2.26772 2.92416 2.33858 2.92416 2.19685C 2.92416 2.19685 2.92416 2.12598 2.85355 2.12598C 2.64173 2.05512 2.57112 1.91338 2.3593 1.84252C 1.93565 1.62992 1.4414 1.48819 0.947145 1.62992C 0.80593 1.62992 0.735322 1.77165 0.594107 1.70079C 0.382284 1.34646 0.170461 0.992126 0.0998536 0.566929C 0.0292461 0.425196 -0.0413604 0.283465 0.0292471 0.141733C 0.0292471 0.0708667 0.170461 5.03534e-15 0.311676 5.03534e-15C 0.805929 0.0708661 1.37079 0.141732 1.86504 0.212598C 2.21808 0.283464 2.57112 0.283464 2.99477 0.212598Z"/>
<path id="path51_fill" d="M 0 0.0897167C 0.141215 0.160583 0.211823 0.0188489 0.353038 0.0188489C 0.847291 -0.0520173 1.27094 0.0897145 1.76519 0.231447C 1.97701 0.302313 2.40066 0.585779 2.54187 0.656645C 2.54187 1.01098 2.7537 1.93224 2.7537 2.07397C 1.55337 1.86137 0.706075 1.08184 0 0.0897167Z"/>
<path id="path52_fill" d="M 7.69622 1.91339C 7.41379 1.91339 7.27258 2.05512 7.27258 2.26772C 7.27258 2.69291 7.20197 3.04724 7.13136 3.47244C 6.99015 3.89764 6.84893 4.25197 6.5665 4.6063C 6.5665 4.67716 6.49589 4.74803 6.42529 4.67717C 6.35468 4.6063 6.35468 4.53543 6.42529 4.53543C 6.49589 4.46457 6.49589 4.32283 6.5665 4.25197C 6.77832 3.68504 6.91954 3.11811 6.99015 2.55118C 6.99015 2.26772 6.77833 2.05512 6.49589 2.12598C 6.21346 2.19685 6.00164 2.12598 5.78982 2.26772C 5.71921 2.33858 5.6486 2.33858 5.578 2.26772C 5.50739 2.19685 5.578 2.26772 5.6486 2.19685C 5.71921 2.12599 5.78982 2.05512 5.86043 1.98425C 6.00164 1.91338 6.00164 1.77165 5.86043 1.70079C 5.71921 1.55906 4.23645 0.708662 4.09524 0.637796C 3.67159 0.496063 3.24795 0.35433 2.89491 0.212597C 2.75369 0.212597 2.68309 0.141732 2.68309 -5.40666e-07C 2.61248 -5.40666e-07 2.54187 0.0708672 2.54187 0.0708672C 2.18883 0.212599 1.8358 0.425198 1.62397 0.779529C 1.48276 0.921261 1.41215 1.13386 1.34154 1.34646C 1.27094 1.70079 1.12972 1.98425 0.988507 2.33858C 0.776684 2.83464 0.423645 3.33071 0 3.7559C 0.141215 3.89764 0.353037 3.9685 0.56486 4.03937C 0.706075 4.11024 0.776682 4.1811 0.776682 4.32284C 0.776682 4.53543 0.776684 4.67717 0.847291 4.88976C 0.917899 5.66929 1.05911 6.37795 1.27094 7.08661C 1.41215 7.72441 1.62397 8.29134 1.97701 8.85827C 2.04762 8.92913 2.04762 9.07086 2.18883 9.07086L 2.18883 9C 2.18883 8.92913 2.25944 8.85827 2.40066 8.92913C 2.47127 8.92913 2.8243 9.14173 2.8243 9.14173C 2.96552 9.2126 3.17734 9.14173 3.31856 9.07086C 3.67159 8.92913 4.02463 8.7874 4.30706 8.64567C 4.44827 8.5748 4.51888 8.5748 4.51888 8.3622C 4.51888 8.29134 4.44828 8.22047 4.37767 8.22047C 4.09524 8.22047 3.7422 8.14961 3.53038 8.07874C 2.96552 7.86614 2.61248 7.58268 2.18883 7.08661C 1.9064 6.73228 1.62397 6.30709 1.41215 5.81102C 1.27094 5.52756 0.917898 4.3937 0.917898 4.32284C 0.917898 4.25197 1.12972 4.3937 1.20033 4.3937C 1.27094 4.32283 1.34154 4.46457 1.41215 4.46457C 1.41215 4.3937 1.55337 4.32284 1.69458 4.32284C 2.18884 4.3937 2.75369 4.46457 3.24795 4.53543C 3.67159 4.53543 4.02463 4.53543 4.37767 4.46457C 4.58949 4.32283 4.87192 4.25197 5.08374 4.11023C 5.15435 4.03937 5.29557 4.03937 5.36617 4.1811C 5.43678 4.1811 5.43678 4.25197 5.43678 4.25197C 5.71921 4.74803 6.14286 5.10236 6.5665 5.45669C 6.63711 5.52756 6.63711 5.52756 6.70772 5.45669C 7.06075 4.8189 7.4844 4.11023 7.76683 3.40157C 7.76683 2.76378 7.83744 2.33858 7.69622 1.91339Z"/>
<path id="path53_fill" d="M 1.07739e-06 0.100219C 1.07739e-06 0.0293532 0.0706081 -0.0415119 0.211823 0.0293543C 0.141216 0.0293543 0.0706086 0.100219 1.07739e-06 0.100219Z"/>
<path id="path54_fill" d="M -1.52588e-06 0.0531491C -1.52588e-06 -0.0177171 -1.52588e-06 -0.0177171 -1.52588e-06 0.0531491L -1.52588e-06 0.0531491Z"/>
<path id="path55_fill" d="M 5.08375 2.26772C 5.08375 2.19685 5.08374 2.19685 5.01314 2.12598C 4.73071 1.62992 4.37767 1.27559 3.88342 1.06299C 3.10673 0.637795 2.33005 0.425196 1.48276 0.212597C 1.20033 0.141731 0.917897 0.0708656 0.635467 -5.40666e-07L 0.56486 -5.40666e-07C 0.353038 0.0708656 0.211823 0.141732 5.38693e-07 0.141732C 5.38693e-07 0.283465 0.0706076 0.35433 0.211823 0.35433C 0.353038 0.425196 0.423645 0.425197 0.56486 0.496063C 1.27094 0.992126 2.33005 2.05512 2.75369 2.48031C 2.89491 2.62205 3.24795 2.69291 3.53038 2.55118C 3.67159 2.48032 3.7422 2.40945 3.88342 2.33858C 4.16585 2.26772 4.37767 2.48032 4.37767 2.76378C 4.37767 3.33071 4.16584 3.89764 3.95402 4.46457C 3.95402 4.53543 3.88341 4.67717 3.81281 4.74803C 3.81281 4.8189 3.7422 4.88976 3.81281 4.88976C 3.88341 4.96063 3.88341 4.88976 3.95402 4.8189C 4.23645 4.46457 4.37767 4.11024 4.51888 3.68504C 4.6601 3.33071 4.73071 2.90551 4.6601 2.48031C 4.6601 2.33858 4.80131 2.26772 5.08375 2.26772Z"/>
<path id="path56_fill" d="M -5.38693e-07 3.88742C 0.635468 3.17876 1.05911 2.39923 1.27094 1.54883C 1.48276 0.698438 2.11823 0.273242 2.96552 0.0606441C 3.31856 -0.0810882 3.67159 0.060643 4.02463 0.131509C 4.94253 0.344108 5.78982 0.556706 6.63711 0.981903C 6.91954 1.12364 7.20197 1.33624 7.4844 1.6197C 7.97866 2.18663 8.11987 2.75356 7.83744 3.39135C 7.4844 4.10001 7.13136 4.80868 6.70772 5.51734C 6.70772 5.51734 6.70772 5.51734 6.63711 5.5882C 6.14286 5.23387 5.64861 4.87954 5.36618 4.38348C 5.36618 4.52521 5.36617 4.52521 5.29557 4.66694C 5.22496 5.3756 5.22496 6.08427 5.36618 6.79293C 5.43678 7.14726 5.6486 7.50159 5.86043 7.85592C 5.93103 7.92678 5.93103 7.99765 5.86043 8.06852C 5.29557 8.70631 4.73071 9.27324 4.02463 9.69844C 3.17734 10.1945 2.54187 9.9819 1.97701 9.20238C 1.8358 8.98978 1.76519 8.84804 1.69458 8.63545C 1.48276 8.13938 1.34154 7.57245 1.20033 7.00552C 0.988506 6.15513 0.847292 5.3756 0.776684 4.52521C 0.776684 4.38348 0.706076 4.38348 0.635469 4.31261C 0.494254 4.24175 0.353038 4.10001 0.141215 4.02915C 0.564861 4.17088 1.05911 4.24175 1.48276 4.38348C 2.54187 4.59608 3.60099 4.59608 4.58949 4.17088C 4.73071 4.10001 4.87192 4.02915 4.94253 3.95828C 5.08374 3.88742 5.15435 3.88742 5.22496 3.95828C 5.578 4.24175 6.00164 4.59608 6.42529 4.87954C 6.4959 4.87954 6.4959 4.95041 6.5665 4.95041L 6.63711 4.87954C 6.99015 4.24175 7.27258 3.60395 7.41379 2.89529C 7.4844 2.39923 7.34319 1.97403 6.99015 1.54883C 6.5665 1.12364 6.00164 0.840171 5.43678 0.627573C 4.80131 0.414974 4.09524 0.273243 3.45977 0.202377C 3.38916 0.202377 3.31856 0.202377 3.24795 0.202377C 2.40066 0.485841 1.69458 0.981903 1.41215 1.90316C 1.20033 2.75356 0.776683 3.39135 -5.38693e-07 3.88742ZM 5.08375 8.13938C 4.94253 8.13938 4.87192 8.13938 4.73071 8.13938C 4.23645 8.13938 3.81281 7.92679 3.38916 7.64332C 2.25944 6.93466 1.55337 5.94253 1.20033 4.66694C 1.12972 4.45434 1.05911 4.38348 0.847291 4.38348L 0.847291 4.45435C 0.847291 4.52521 0.847291 4.52521 0.847291 4.59608C 0.988506 5.5882 1.27094 6.58033 1.62397 7.50159C 1.8358 8.06852 2.11823 8.56458 2.54187 8.98978C 3.03613 9.48584 3.45977 9.55671 4.09524 9.27324C 4.58949 8.98978 5.08374 8.63545 5.50739 8.28111C 5.578 8.21025 5.64861 8.13938 5.578 7.99765C 5.15435 6.93466 5.01314 5.87167 5.29557 4.73781C 5.29557 4.59608 5.36618 4.52521 5.36618 4.38348C 4.09524 5.02127 2.7537 5.02127 1.48276 4.66694L 1.48276 4.73781L 1.48276 4.80868C 1.62398 5.51734 1.97701 6.15513 2.54187 6.72206C 3.17734 7.35986 4.09524 7.78505 5.08375 8.13938Z"/>
</defs>
</svg>
