<svg width="130" height="32" viewBox="0 0 130 32" fill="none" xmlns="http://www.w3.org/2000/svg">
<circle cx="16" cy="16" r="14" stroke="#E08385" stroke-width="4"/>
<circle cx="16" cy="16" r="12" fill="url(#paint0_linear)" stroke="white" stroke-width="4"/>
<path d="M40 22.2728C40.6746 22.8029 41.5862 23.1958 42.7349 23.4517C43.9018 23.7076 44.8772 23.8355 45.6612 23.8355C47.4845 23.8355 48.8611 23.4517 49.7909 22.6841C50.7208 21.8982 51.1857 20.8016 51.1857 19.3943C51.1857 18.2976 50.7481 17.4112 49.873 16.735C49.016 16.0405 47.9038 15.4556 46.5364 14.9804C46.117 14.8342 45.7797 14.688 45.5245 14.5418C45.2692 14.3956 45.1416 14.2676 45.1416 14.158C45.1416 13.9752 45.2692 13.829 45.5245 13.7193C45.7797 13.6097 46.1079 13.5548 46.509 13.5548C46.9831 13.5548 47.5027 13.6279 48.0679 13.7742C48.6514 13.9204 49.2166 14.1123 49.7636 14.3499L51.1584 11.1971C50.4838 10.6671 49.6724 10.3016 48.7243 10.1005C47.7944 9.8812 46.9375 9.77154 46.1535 9.77154C44.312 9.77154 42.8716 10.1645 41.8324 10.9504C40.7931 11.7363 40.2735 12.8238 40.2735 14.2128C40.2735 15.3094 40.7111 16.1958 41.5862 16.8721C42.4796 17.5483 43.6192 18.1332 45.0049 18.6266C45.3877 18.7546 45.6977 18.9008 45.9347 19.0653C46.19 19.2115 46.3176 19.3394 46.3176 19.4491C46.3176 19.6319 46.2082 19.7781 45.9894 19.8877C45.7706 19.9974 45.4971 20.0522 45.1689 20.0522C44.6949 20.0522 44.075 19.9608 43.3092 19.7781C42.5617 19.5953 41.9235 19.376 41.3948 19.1201L40 22.2728Z" fill="#061C2E"/>
<path d="M62.0753 19.2023C61.6377 19.4034 61.1545 19.5862 60.6258 19.7507C60.097 19.8969 59.6868 19.97 59.3951 19.97C58.8846 19.97 58.5199 19.8238 58.3011 19.5313C58.0823 19.2206 57.9729 18.8368 57.9729 18.3799V10.265H52.9954V18.846C52.9954 20.3995 53.3966 21.6514 54.1988 22.6018C55.001 23.5339 56.2044 24 57.8089 24C59.4863 24 61.2913 23.3969 63.2239 22.1906L64.6461 23.5614H67.0528V10.265H62.0753V19.2023Z" fill="#061C2E"/>
<path d="M74.7748 14.5966C75.2124 14.3956 75.6956 14.2219 76.2243 14.0757C76.753 13.9112 77.1633 13.829 77.455 13.829C77.9655 13.829 78.3302 13.9843 78.549 14.295C78.7678 14.5875 78.8772 14.9621 78.8772 15.4191V23.5339H83.8547V14.953C83.8547 13.3995 83.4535 12.1567 82.6513 11.2245C81.8491 10.2741 80.6457 9.79895 79.0412 9.79895C77.3638 9.79895 75.5588 10.4021 73.6262 11.6084L72.751 10.2376H69.7973V23.5339H74.7748V14.5966Z" fill="#061C2E"/>
<path d="M91.4673 15.7206C92.0325 15.282 92.7071 14.9256 93.4911 14.6514C94.2751 14.3773 94.9953 14.2402 95.6517 14.2402L94.6398 10.2376C93.9469 10.2376 93.1903 10.4021 92.3698 10.7311C91.5493 11.0601 90.82 11.4439 90.1819 11.8825L88.9785 10.265H86.4898V23.5339H91.4673V15.7206Z" fill="#061C2E"/>
<path d="M99.7412 8.4282C100.489 8.4282 101.127 8.16319 101.656 7.63316C102.203 7.10313 102.476 6.47258 102.476 5.74151C102.476 4.99217 102.203 4.35248 101.656 3.82245C101.127 3.27415 100.489 3 99.7412 3C99.0119 3 98.3829 3.27415 97.8541 3.82245C97.3254 4.35248 97.061 4.99217 97.061 5.74151C97.061 6.47258 97.3254 7.10313 97.8541 7.63316C98.3829 8.16319 99.0119 8.4282 99.7412 8.4282ZM102.257 23.5339V10.2376H97.2798V23.5339H102.257Z" fill="#061C2E"/>
<path d="M104.233 22.2728C104.907 22.8029 105.819 23.1958 106.967 23.4517C108.134 23.7076 109.11 23.8355 109.894 23.8355C111.717 23.8355 113.094 23.4517 114.024 22.6841C114.953 21.8982 115.418 20.8016 115.418 19.3943C115.418 18.2976 114.981 17.4112 114.106 16.735C113.249 16.0405 112.136 15.4556 110.769 14.9804C110.35 14.8342 110.012 14.688 109.757 14.5418C109.502 14.3956 109.374 14.2676 109.374 14.158C109.374 13.9752 109.502 13.829 109.757 13.7193C110.012 13.6097 110.341 13.5548 110.742 13.5548C111.216 13.5548 111.735 13.6279 112.301 13.7742C112.884 13.9204 113.449 14.1123 113.996 14.3499L115.391 11.1971C114.716 10.6671 113.905 10.3016 112.957 10.1005C112.027 9.8812 111.17 9.77154 110.386 9.77154C108.545 9.77154 107.104 10.1645 106.065 10.9504C105.026 11.7363 104.506 12.8238 104.506 14.2128C104.506 15.3094 104.944 16.1958 105.819 16.8721C106.712 17.5483 107.852 18.1332 109.237 18.6266C109.62 18.7546 109.93 18.9008 110.167 19.0653C110.423 19.2115 110.55 19.3394 110.55 19.4491C110.55 19.6319 110.441 19.7781 110.222 19.8877C110.003 19.9974 109.73 20.0522 109.402 20.0522C108.927 20.0522 108.308 19.9608 107.542 19.7781C106.794 19.5953 106.156 19.376 105.627 19.1201L104.233 22.2728Z" fill="#061C2E"/>
<path d="M130 16.6802C130 15.4008 129.754 14.2402 129.262 13.1984C128.788 12.1567 128.076 11.3251 127.128 10.7037C126.18 10.0822 125.022 9.77154 123.655 9.77154C122.306 9.77154 121.084 10.064 119.99 10.6488C118.915 11.2154 118.067 12.0379 117.447 13.1162C116.827 14.1945 116.517 15.4556 116.517 16.8995C116.517 18.3616 116.854 19.6227 117.529 20.6828C118.203 21.7245 119.133 22.5104 120.318 23.0405C121.522 23.5705 122.898 23.8355 124.448 23.8355C125.524 23.8355 126.572 23.6984 127.593 23.4243C128.633 23.1501 129.426 22.812 129.973 22.4099L128.578 19.0379C127.411 19.641 126.198 19.9426 124.94 19.9426C124.12 19.9426 123.454 19.7872 122.944 19.4765C122.452 19.1475 122.114 18.6997 121.932 18.1332H130V16.6802ZM121.795 15.6658C121.777 15.1723 121.941 14.7337 122.288 14.3499C122.652 13.9661 123.062 13.7742 123.518 13.7742C124.084 13.7742 124.512 13.9752 124.804 14.3773C125.095 14.7794 125.241 15.2089 125.241 15.6658H121.795Z" fill="#061C2E"/>
<defs>
<linearGradient id="paint0_linear" x1="16" y1="2" x2="16" y2="30" gradientUnits="userSpaceOnUse">
<stop stop-color="#EB6568"/>
<stop offset="1" stop-color="#D73148"/>
</linearGradient>
</defs>
</svg>
