<svg width="14" height="14" viewBox="0 0 14 14" fill="none" xmlns="http://www.w3.org/2000/svg">
<path d="M10.7159 7.4228V1.12753H1.31991V12.8725H5.64205C5.95212 12.8725 6.2058 13.1262 6.2058 13.4363C6.2058 13.7463 5.95212 14 5.64205 14H0.756132C0.446059 14 0.192383 13.7463 0.192383 13.4363V0.56375C0.192383 0.253676 0.446091 0 0.756132 0H11.2796C11.5897 0 11.8434 0.253676 11.8434 0.56375V7.4228C11.8434 7.73288 11.5897 7.98655 11.2796 7.98655C10.9695 7.98655 10.7159 7.73288 10.7159 7.4228ZM13.6192 8.79463C13.3843 8.5879 13.0273 8.6067 12.8206 8.84161L9.7293 12.2805L8.17897 10.7866C7.95347 10.5705 7.59642 10.5798 7.38031 10.8054C7.1642 11.0309 7.17358 11.3879 7.39911 11.604L9.37225 13.502C9.47559 13.6053 9.61654 13.6617 9.76687 13.6617C9.77625 13.6617 9.77625 13.6617 9.78567 13.6617C9.936 13.6524 10.0863 13.5866 10.1803 13.4738L13.6568 9.60267C13.8729 9.35838 13.8541 9.00136 13.6192 8.79463ZM8.64875 3.2886H3.57494C3.26487 3.2886 3.01119 3.54227 3.01119 3.85235C3.01119 4.16242 3.26487 4.4161 3.57494 4.4161H8.64875C8.95883 4.4161 9.2125 4.16242 9.2125 3.85235C9.2125 3.54227 8.95883 3.2886 8.64875 3.2886ZM9.21254 6.95302C9.21254 6.64294 8.95886 6.38927 8.64879 6.38927H3.57494C3.26487 6.38927 3.01119 6.64294 3.01119 6.95302C3.01119 7.26309 3.26487 7.51677 3.57494 7.51677H8.64875C8.95883 7.51677 9.21254 7.26309 9.21254 6.95302ZM3.57494 9.39598C3.26487 9.39598 3.01119 9.64965 3.01119 9.95973C3.01119 10.2698 3.26487 10.5235 3.57494 10.5235H5.0783C5.38837 10.5235 5.64205 10.2698 5.64205 9.95973C5.64205 9.64965 5.38837 9.39598 5.0783 9.39598H3.57494Z" fill="#1B2942"/>
</svg>
