<svg width="9" height="9" viewBox="0 0 9 9" fill="none" xmlns="http://www.w3.org/2000/svg">
<path d="M4.5 0C2.0187 0 0 2.0187 0 4.5C0 6.9813 2.0187 9 4.5 9C6.9813 9 9 6.9813 9 4.5C9 2.0187 6.9813 0 4.5 0ZM4.5 8.04248C2.5467 8.04248 0.957431 6.4534 0.957431 4.5C0.957431 2.5466 2.5467 0.957524 4.5 0.957524C6.4533 0.957524 8.04257 2.5466 8.04257 4.5C8.04257 6.4534 6.4533 8.04248 4.5 8.04248Z" fill="#656565"/>
<path d="M6.84521 4.36104H4.82289V1.92948C4.82289 1.72486 4.65699 1.55896 4.45237 1.55896C4.24775 1.55896 4.08185 1.72486 4.08185 1.92948V4.73157C4.08185 4.93619 4.24775 5.10209 4.45237 5.10209H6.84521C7.04983 5.10209 7.21573 4.93619 7.21573 4.73157C7.21573 4.52694 7.04983 4.36104 6.84521 4.36104Z" fill="#656565"/>
</svg>
