<svg width="12" height="12" viewBox="0 0 12 12" fill="none" xmlns="http://www.w3.org/2000/svg">
<path d="M6 0C2.6916 0 0 2.6916 0 6C0 9.3084 2.6916 12 6 12C9.3084 12 12 9.3084 12 6C12 2.6916 9.3084 0 6 0ZM6 10.7233C3.3956 10.7233 1.27657 8.60453 1.27657 6C1.27657 3.39547 3.3956 1.2767 6 1.2767C8.60441 1.2767 10.7234 3.39547 10.7234 6C10.7234 8.60453 8.60441 10.7233 6 10.7233Z" fill="#656565"/>
<path d="M9.12696 5.81475H6.43054V2.57267C6.43054 2.29985 6.20934 2.07864 5.93651 2.07864C5.66368 2.07864 5.44248 2.29985 5.44248 2.57267V6.30878C5.44248 6.58161 5.66368 6.80282 5.93651 6.80282H9.12696C9.39979 6.80282 9.62099 6.58161 9.62099 6.30878C9.62099 6.03596 9.39979 5.81475 9.12696 5.81475Z" fill="#656565"/>
</svg>
