<svg width="18" height="18" viewBox="0 0 18 18" fill="none" xmlns="http://www.w3.org/2000/svg">
<circle cx="9" cy="9" r="9" fill="#8C8C8C"/>
<path d="M9.45232 9.16682L12.205 6.41404C12.376 6.24316 12.376 5.9659 12.205 5.79502C12.034 5.62399 11.757 5.62399 11.586 5.79502L8.83332 8.5478L6.08052 5.79502C5.9095 5.62399 5.63254 5.62399 5.46152 5.79502C5.2905 5.9659 5.2905 6.24316 5.46152 6.41404L8.21433 9.16682L5.46152 11.9196C5.2905 12.0905 5.2905 12.3677 5.46152 12.5386C5.54703 12.624 5.65909 12.6667 5.77102 12.6667C5.88294 12.6667 5.99501 12.624 6.08052 12.5385L8.83332 9.7857L11.586 12.5385C11.6715 12.624 11.7836 12.6667 11.8955 12.6667C12.0074 12.6667 12.1195 12.624 12.205 12.5385C12.376 12.3676 12.376 12.0903 12.205 11.9195L9.45232 9.16682Z" fill="white"/>
</svg>
