<svg width="16" height="16" viewBox="0 0 16 16" fill="none" xmlns="http://www.w3.org/2000/svg">
<path d="M11.0001 5.06409L7.12808 9.00808L5.14407 7.01608L4.08008 8.0801L7.20807 11.2001L12.2321 6.3281L11.0001 5.06409Z" fill="#00D208"/>
<path d="M8 0C3.58174 0 0 3.58174 0 8C0 12.4183 3.58174 16 8 16C12.4183 16 16 12.4183 16 8C16 3.58174 12.4183 0 8 0ZM8 14.552C4.38143 14.552 1.44799 11.6186 1.44799 8C1.44799 4.38143 4.38143 1.44799 8 1.44799C11.6167 1.45238 14.5476 4.38323 14.552 8C14.552 11.6186 11.6186 14.552 8 14.552Z" fill="#00D208"/>
</svg>
