<svg width="14" height="14" viewBox="0 0 14 14" fill="none" xmlns="http://www.w3.org/2000/svg">
<g clip-path="url(#clip0)">
<path d="M13.5989 6.83805C13.3761 6.83805 13.1978 7.01632 13.1978 7.23915V10.8877C13.1978 11.8801 12.3896 12.6852 11.4003 12.6852H2.59975C1.60739 12.6852 0.802207 11.8771 0.802207 10.8877V7.17973C0.802207 6.95689 0.623939 6.77863 0.401104 6.77863C0.178268 6.77863 0 6.95689 0 7.17973V10.8877C0 12.3228 1.16766 13.4875 2.59975 13.4875H11.4003C12.8353 13.4875 14 12.3198 14 10.8877V7.23915C14 7.01929 13.8217 6.83805 13.5989 6.83805Z" fill="#61676F" stroke="#61676F" stroke-width="0.25"/>
<path d="M6.71816 10.3023C6.79541 10.3796 6.8994 10.4212 7.00042 10.4212C7.10144 10.4212 7.20543 10.3826 7.28268 10.3023L9.83191 7.75311C9.98938 7.59564 9.98938 7.3431 9.83191 7.18563C9.67444 7.02816 9.4219 7.02816 9.26443 7.18563L7.40152 9.0515V0.913555C7.40152 0.690719 7.22325 0.512451 7.00042 0.512451C6.77758 0.512451 6.59932 0.690719 6.59932 0.913555V9.0515L4.73344 7.18563C4.57597 7.02816 4.32342 7.02816 4.16595 7.18563C4.00848 7.3431 4.00848 7.59564 4.16595 7.75311L6.71816 10.3023Z" fill="#61676F" stroke="#61676F" stroke-width="0.25"/>
</g>
<defs>
<clipPath id="clip0">
<rect width="14" height="14" fill="white"/>
</clipPath>
</defs>
</svg>
