<svg width="16" height="16" viewBox="0 0 16 16" fill="none" xmlns="http://www.w3.org/2000/svg">
<mask id="path-1-inside-1" fill="white">
<path d="M15.181 6.32139L14.058 6.13087C13.941 5.75319 13.7906 5.38887 13.6068 5.04126L14.2686 4.11543C14.5493 3.72103 14.5059 3.18291 14.1616 2.84199L13.1656 1.84596C12.9784 1.65879 12.7311 1.55518 12.467 1.55518C12.2598 1.55518 12.0626 1.61868 11.8955 1.73901L10.9663 2.40079C10.6053 2.21028 10.2276 2.05319 9.83658 1.93621L9.64941 0.826541C9.56919 0.348583 9.15808 0.000976562 8.67344 0.000976562H7.2663C6.78166 0.000976562 6.37055 0.348583 6.29033 0.826541L6.09647 1.96295C5.72213 2.07993 5.35781 2.23368 5.0102 2.42085L4.09105 1.75906C3.92394 1.63874 3.72339 1.57523 3.51617 1.57523C3.25212 1.57523 3.00144 1.67884 2.81761 1.86602L1.81825 2.86204C1.47733 3.20296 1.43053 3.74108 1.71129 4.13548L2.37976 5.07469C2.19593 5.42564 2.04887 5.78995 1.93523 6.16764L0.825564 6.35481C0.347606 6.43503 0 6.84614 0 7.33078V8.73792C0 9.22256 0.347606 9.63367 0.825564 9.71389L1.96197 9.90775C2.07895 10.2821 2.2327 10.6464 2.41987 10.994L1.76143 11.9098C1.48067 12.3042 1.52412 12.8423 1.86838 13.1833L2.86441 14.1793C3.05158 14.3665 3.29891 14.4701 3.56296 14.4701C3.77019 14.4701 3.96739 14.4066 4.1345 14.2862L5.07371 13.6178C5.41129 13.7949 5.76558 13.9386 6.1299 14.0523L6.31707 15.1753C6.39729 15.6533 6.8084 16.0009 7.29304 16.0009H8.70352C9.18816 16.0009 9.59927 15.6533 9.67949 15.1753L9.87 14.0523C10.2477 13.9353 10.612 13.7849 10.9596 13.6011L11.8854 14.2628C12.0526 14.3832 12.2531 14.4467 12.4603 14.4467C12.7244 14.4467 12.9717 14.3431 13.1589 14.1559L14.1549 13.1599C14.4958 12.8189 14.5426 12.2808 14.2619 11.8864L13.6001 10.9573C13.7839 10.6063 13.9377 10.242 14.0513 9.86764L15.1743 9.68047C15.6523 9.60025 15.9999 9.18914 15.9999 8.7045V7.29736C16.0066 6.81272 15.659 6.40161 15.181 6.32139ZM15.1041 8.7045C15.1041 8.74795 15.0741 8.78471 15.0306 8.7914L13.6268 9.02536C13.4497 9.05544 13.3093 9.1858 13.2658 9.35626C13.1388 9.84758 12.945 10.3189 12.6843 10.7567C12.594 10.9105 12.6007 11.101 12.7043 11.248L13.5299 12.4112C13.5533 12.4446 13.5499 12.4947 13.5199 12.5248L12.5238 13.5208C12.5004 13.5442 12.477 13.5476 12.4603 13.5476C12.4403 13.5476 12.4236 13.5409 12.4102 13.5309L11.2504 12.7053C11.1067 12.6017 10.9128 12.595 10.7591 12.6853C10.3212 12.946 9.84995 13.1398 9.35862 13.2668C9.18482 13.3103 9.05447 13.454 9.02773 13.6278L8.79042 15.0316C8.78373 15.075 8.74697 15.1051 8.70352 15.1051H7.29638C7.25293 15.1051 7.21616 15.075 7.20948 15.0316L6.97551 13.6278C6.94543 13.4507 6.81508 13.3103 6.64462 13.2668C6.16666 13.1432 5.70542 12.9526 5.27425 12.7053C5.20406 12.6652 5.12384 12.6451 5.04697 12.6451C4.95673 12.6451 4.86314 12.6719 4.78627 12.7287L3.61644 13.561C3.59973 13.571 3.58301 13.5777 3.5663 13.5777C3.55293 13.5777 3.52619 13.5743 3.5028 13.5509L2.50677 12.5549C2.47669 12.5248 2.47335 12.478 2.49675 12.4413L3.31897 11.2881C3.42258 11.1411 3.42927 10.9472 3.33902 10.7935C3.07832 10.359 2.87778 9.88769 2.75077 9.39637C2.70397 9.22591 2.56359 9.09555 2.38979 9.06547L0.97597 8.82482C0.93252 8.81814 0.902438 8.78137 0.902438 8.73792V7.33078C0.902438 7.28733 0.93252 7.25057 0.97597 7.24388L2.36974 7.00992C2.54688 6.97984 2.6906 6.84948 2.73405 6.67568C2.85772 6.18435 3.04824 5.70974 3.3056 5.27189C3.39584 5.11814 3.38581 4.92762 3.2822 4.7839L2.44995 3.61407C2.42656 3.58065 2.4299 3.53051 2.45998 3.50043L3.456 2.50441C3.4794 2.48101 3.5028 2.47767 3.51951 2.47767C3.53956 2.47767 3.55628 2.48435 3.56965 2.49438L4.72276 3.3166C4.86982 3.42022 5.06368 3.4269 5.21743 3.33666C5.65194 3.07595 6.12321 2.87541 6.61454 2.7484C6.785 2.70161 6.91535 2.56123 6.94543 2.38743L7.18608 0.973605C7.19277 0.930154 7.22953 0.900073 7.27298 0.900073H8.68012C8.72357 0.900073 8.76034 0.930154 8.76702 0.973605L9.00099 2.36737C9.03107 2.54452 9.16142 2.68824 9.33522 2.73169C9.83992 2.8587 10.3212 3.0559 10.7691 3.31995C10.9228 3.41019 11.1134 3.4035 11.2604 3.29989L12.4135 2.47098C12.4303 2.46096 12.447 2.45427 12.4637 2.45427C12.477 2.45427 12.5038 2.45762 12.5272 2.48101L13.5232 3.47704C13.5533 3.50712 13.5566 3.55391 13.5332 3.59068L12.7077 4.75048C12.6041 4.8942 12.5974 5.08806 12.6876 5.24181C12.9483 5.67966 13.1422 6.15093 13.2692 6.64226C13.3126 6.81606 13.4564 6.94641 13.6302 6.97315L15.034 7.21046C15.0774 7.21714 15.1075 7.25391 15.1075 7.29736V8.7045H15.1041Z"/>
</mask>
<path d="M15.181 6.32139L14.058 6.13087C13.941 5.75319 13.7906 5.38887 13.6068 5.04126L14.2686 4.11543C14.5493 3.72103 14.5059 3.18291 14.1616 2.84199L13.1656 1.84596C12.9784 1.65879 12.7311 1.55518 12.467 1.55518C12.2598 1.55518 12.0626 1.61868 11.8955 1.73901L10.9663 2.40079C10.6053 2.21028 10.2276 2.05319 9.83658 1.93621L9.64941 0.826541C9.56919 0.348583 9.15808 0.000976562 8.67344 0.000976562H7.2663C6.78166 0.000976562 6.37055 0.348583 6.29033 0.826541L6.09647 1.96295C5.72213 2.07993 5.35781 2.23368 5.0102 2.42085L4.09105 1.75906C3.92394 1.63874 3.72339 1.57523 3.51617 1.57523C3.25212 1.57523 3.00144 1.67884 2.81761 1.86602L1.81825 2.86204C1.47733 3.20296 1.43053 3.74108 1.71129 4.13548L2.37976 5.07469C2.19593 5.42564 2.04887 5.78995 1.93523 6.16764L0.825564 6.35481C0.347606 6.43503 0 6.84614 0 7.33078V8.73792C0 9.22256 0.347606 9.63367 0.825564 9.71389L1.96197 9.90775C2.07895 10.2821 2.2327 10.6464 2.41987 10.994L1.76143 11.9098C1.48067 12.3042 1.52412 12.8423 1.86838 13.1833L2.86441 14.1793C3.05158 14.3665 3.29891 14.4701 3.56296 14.4701C3.77019 14.4701 3.96739 14.4066 4.1345 14.2862L5.07371 13.6178C5.41129 13.7949 5.76558 13.9386 6.1299 14.0523L6.31707 15.1753C6.39729 15.6533 6.8084 16.0009 7.29304 16.0009H8.70352C9.18816 16.0009 9.59927 15.6533 9.67949 15.1753L9.87 14.0523C10.2477 13.9353 10.612 13.7849 10.9596 13.6011L11.8854 14.2628C12.0526 14.3832 12.2531 14.4467 12.4603 14.4467C12.7244 14.4467 12.9717 14.3431 13.1589 14.1559L14.1549 13.1599C14.4958 12.8189 14.5426 12.2808 14.2619 11.8864L13.6001 10.9573C13.7839 10.6063 13.9377 10.242 14.0513 9.86764L15.1743 9.68047C15.6523 9.60025 15.9999 9.18914 15.9999 8.7045V7.29736C16.0066 6.81272 15.659 6.40161 15.181 6.32139ZM15.1041 8.7045C15.1041 8.74795 15.0741 8.78471 15.0306 8.7914L13.6268 9.02536C13.4497 9.05544 13.3093 9.1858 13.2658 9.35626C13.1388 9.84758 12.945 10.3189 12.6843 10.7567C12.594 10.9105 12.6007 11.101 12.7043 11.248L13.5299 12.4112C13.5533 12.4446 13.5499 12.4947 13.5199 12.5248L12.5238 13.5208C12.5004 13.5442 12.477 13.5476 12.4603 13.5476C12.4403 13.5476 12.4236 13.5409 12.4102 13.5309L11.2504 12.7053C11.1067 12.6017 10.9128 12.595 10.7591 12.6853C10.3212 12.946 9.84995 13.1398 9.35862 13.2668C9.18482 13.3103 9.05447 13.454 9.02773 13.6278L8.79042 15.0316C8.78373 15.075 8.74697 15.1051 8.70352 15.1051H7.29638C7.25293 15.1051 7.21616 15.075 7.20948 15.0316L6.97551 13.6278C6.94543 13.4507 6.81508 13.3103 6.64462 13.2668C6.16666 13.1432 5.70542 12.9526 5.27425 12.7053C5.20406 12.6652 5.12384 12.6451 5.04697 12.6451C4.95673 12.6451 4.86314 12.6719 4.78627 12.7287L3.61644 13.561C3.59973 13.571 3.58301 13.5777 3.5663 13.5777C3.55293 13.5777 3.52619 13.5743 3.5028 13.5509L2.50677 12.5549C2.47669 12.5248 2.47335 12.478 2.49675 12.4413L3.31897 11.2881C3.42258 11.1411 3.42927 10.9472 3.33902 10.7935C3.07832 10.359 2.87778 9.88769 2.75077 9.39637C2.70397 9.22591 2.56359 9.09555 2.38979 9.06547L0.97597 8.82482C0.93252 8.81814 0.902438 8.78137 0.902438 8.73792V7.33078C0.902438 7.28733 0.93252 7.25057 0.97597 7.24388L2.36974 7.00992C2.54688 6.97984 2.6906 6.84948 2.73405 6.67568C2.85772 6.18435 3.04824 5.70974 3.3056 5.27189C3.39584 5.11814 3.38581 4.92762 3.2822 4.7839L2.44995 3.61407C2.42656 3.58065 2.4299 3.53051 2.45998 3.50043L3.456 2.50441C3.4794 2.48101 3.5028 2.47767 3.51951 2.47767C3.53956 2.47767 3.55628 2.48435 3.56965 2.49438L4.72276 3.3166C4.86982 3.42022 5.06368 3.4269 5.21743 3.33666C5.65194 3.07595 6.12321 2.87541 6.61454 2.7484C6.785 2.70161 6.91535 2.56123 6.94543 2.38743L7.18608 0.973605C7.19277 0.930154 7.22953 0.900073 7.27298 0.900073H8.68012C8.72357 0.900073 8.76034 0.930154 8.76702 0.973605L9.00099 2.36737C9.03107 2.54452 9.16142 2.68824 9.33522 2.73169C9.83992 2.8587 10.3212 3.0559 10.7691 3.31995C10.9228 3.41019 11.1134 3.4035 11.2604 3.29989L12.4135 2.47098C12.4303 2.46096 12.447 2.45427 12.4637 2.45427C12.477 2.45427 12.5038 2.45762 12.5272 2.48101L13.5232 3.47704C13.5533 3.50712 13.5566 3.55391 13.5332 3.59068L12.7077 4.75048C12.6041 4.8942 12.5974 5.08806 12.6876 5.24181C12.9483 5.67966 13.1422 6.15093 13.2692 6.64226C13.3126 6.81606 13.4564 6.94641 13.6302 6.97315L15.034 7.21046C15.0774 7.21714 15.1075 7.25391 15.1075 7.29736V8.7045H15.1041Z" fill="#61676F" stroke="#61676F" stroke-width="2" mask="url(#path-1-inside-1)"/>
<mask id="path-2-inside-2" fill="white">
<path d="M8.00149 4.54565C6.09634 4.54565 4.54883 6.09317 4.54883 7.99832C4.54883 9.90347 6.09634 11.451 8.00149 11.451C9.90664 11.451 11.4542 9.90347 11.4542 7.99832C11.4542 6.09317 9.90664 4.54565 8.00149 4.54565ZM8.00149 10.5485C6.59436 10.5485 5.45127 9.40545 5.45127 7.99832C5.45127 6.59118 6.59436 5.44809 8.00149 5.44809C9.40863 5.44809 10.5517 6.59118 10.5517 7.99832C10.5517 9.40545 9.40863 10.5485 8.00149 10.5485Z"/>
</mask>
<path d="M8.00149 4.54565C6.09634 4.54565 4.54883 6.09317 4.54883 7.99832C4.54883 9.90347 6.09634 11.451 8.00149 11.451C9.90664 11.451 11.4542 9.90347 11.4542 7.99832C11.4542 6.09317 9.90664 4.54565 8.00149 4.54565ZM8.00149 10.5485C6.59436 10.5485 5.45127 9.40545 5.45127 7.99832C5.45127 6.59118 6.59436 5.44809 8.00149 5.44809C9.40863 5.44809 10.5517 6.59118 10.5517 7.99832C10.5517 9.40545 9.40863 10.5485 8.00149 10.5485Z" fill="#61676F"/>
<path d="M8.00149 3.54565C5.54406 3.54565 3.54883 5.54088 3.54883 7.99832H5.54883C5.54883 6.64545 6.64863 5.54565 8.00149 5.54565V3.54565ZM3.54883 7.99832C3.54883 10.4557 5.54406 12.451 8.00149 12.451V10.451C6.64863 10.451 5.54883 9.35118 5.54883 7.99832H3.54883ZM8.00149 12.451C10.4589 12.451 12.4542 10.4557 12.4542 7.99832H10.4542C10.4542 9.35118 9.35436 10.451 8.00149 10.451V12.451ZM12.4542 7.99832C12.4542 5.54088 10.4589 3.54565 8.00149 3.54565V5.54565C9.35436 5.54565 10.4542 6.64545 10.4542 7.99832H12.4542ZM8.00149 9.54854C7.14664 9.54854 6.45127 8.85317 6.45127 7.99832H4.45127C4.45127 9.95774 6.04207 11.5485 8.00149 11.5485V9.54854ZM6.45127 7.99832C6.45127 7.14347 7.14664 6.44809 8.00149 6.44809V4.44809C6.04207 4.44809 4.45127 6.0389 4.45127 7.99832H6.45127ZM8.00149 6.44809C8.85634 6.44809 9.55172 7.14347 9.55172 7.99832H11.5517C11.5517 6.0389 9.96091 4.44809 8.00149 4.44809V6.44809ZM9.55172 7.99832C9.55172 8.85317 8.85634 9.54854 8.00149 9.54854V11.5485C9.96091 11.5485 11.5517 9.95774 11.5517 7.99832H9.55172Z" fill="#61676F" mask="url(#path-2-inside-2)"/>
</svg>
