<svg width="12" height="12" viewBox="0 0 12 12" fill="none" xmlns="http://www.w3.org/2000/svg">
<g clip-path="url(#clip0)">
<path d="M11.0678 5.43696L8.81517 7.6889C7.57187 8.93294 5.55493 8.93294 4.31142 7.6889C4.11554 7.49358 3.96231 7.2735 3.82775 7.04654L4.87444 5.99993C4.92419 5.94975 4.98563 5.921 5.04434 5.88713C5.1167 6.13436 5.24302 6.36841 5.43745 6.56287C6.05837 7.18428 7.06872 7.18341 7.68926 6.56287L9.94123 4.31098C10.5626 3.68965 10.5626 2.67954 9.94123 2.05867C9.32066 1.43781 8.31057 1.43781 7.68926 2.05867L6.88847 2.86034C6.23862 2.6073 5.53849 2.53927 4.85692 2.63915L6.56336 0.93277C7.80739 -0.311025 9.82381 -0.311025 11.0678 0.93277C12.3113 2.17651 12.3113 4.19325 11.0678 5.43696ZM5.11277 9.13992L4.31139 9.94158C3.69053 10.5621 2.68013 10.5621 2.05916 9.94158C1.43825 9.32017 1.43825 8.31005 2.05916 7.6889L4.31139 5.43696C4.93275 4.81568 5.94247 4.81568 6.56333 5.43696C6.75731 5.631 6.88377 5.865 6.95681 6.11191C7.01586 6.0776 7.07654 6.04971 7.12627 5.9999L8.17288 4.95371C8.03918 4.72586 7.88516 4.50657 7.68921 4.31103C6.44602 3.06724 4.42889 3.06724 3.18509 4.31103L0.933206 6.563C-0.310458 7.80716 -0.310458 9.82332 0.933206 11.0674C2.177 12.3108 4.19366 12.3108 5.43743 11.0674L7.14431 9.36063C6.46238 9.46109 5.76206 9.39248 5.11277 9.13992Z" fill="#61676F"/>
</g>
<defs>
<clipPath id="clip0">
<rect width="12" height="12" fill="white"/>
</clipPath>
</defs>
</svg>
