<svg width="10" height="10" viewBox="0 0 10 10" fill="none" xmlns="http://www.w3.org/2000/svg">
<path d="M7.8125 3.67188H7.10865V2.06582C7.10865 0.926719 6.16238 0 4.99928 0C3.83617 0 2.8899 0.926719 2.8899 2.06582V3.67188H2.1875C1.54133 3.67188 1.01562 4.19758 1.01562 4.84375V8.82812C1.01562 9.4743 1.54133 10 2.1875 10H7.8125C8.45867 10 8.98438 9.4743 8.98438 8.82812V4.84375C8.98438 4.19758 8.45867 3.67188 7.8125 3.67188ZM3.67115 2.06582C3.67115 1.3575 4.26695 0.78125 4.99928 0.78125C5.7316 0.78125 6.3274 1.3575 6.3274 2.06582V3.67188H3.67115V2.06582ZM8.20312 8.82812C8.20312 9.04352 8.02789 9.21875 7.8125 9.21875H2.1875C1.97211 9.21875 1.79688 9.04352 1.79688 8.82812V4.84375C1.79688 4.62836 1.97211 4.45312 2.1875 4.45312H7.8125C8.02789 4.45312 8.20312 4.62836 8.20312 4.84375V8.82812Z" fill="#B6BECA"/>
<path d="M5 5.58594C4.60088 5.58594 4.27734 5.90947 4.27734 6.30859C4.27734 6.56344 4.40937 6.7873 4.60865 6.91598V7.77344C4.60865 7.98916 4.78354 8.16406 4.99928 8.16406C5.215 8.16406 5.3899 7.98916 5.3899 7.77344V6.91689C5.58998 6.78838 5.72266 6.56406 5.72266 6.30859C5.72266 5.90947 5.39912 5.58594 5 5.58594Z" fill="#B6BECA"/>
</svg>
