<svg width="14" height="14" viewBox="0 0 14 14" fill="none" xmlns="http://www.w3.org/2000/svg">
<path d="M7.02324 1.16664L12.2558 1.16664C12.5768 1.16664 12.8372 1.42799 12.8372 1.74996L12.8372 12.25C12.8372 12.572 12.5767 12.8333 12.2558 12.8333L7.02324 12.8333C6.70173 12.8333 6.44186 13.094 6.44186 13.4166C6.44186 13.7392 6.70173 14 7.02324 14L12.2558 14C13.2174 14 14 13.2148 14 12.25L14 1.74999C14 0.785159 13.2175 -6.84128e-08 12.2558 -1.52481e-07L7.02324 -6.09928e-07C6.70174 -6.38035e-07 6.44186 0.260741 6.44186 0.58332C6.44186 0.905899 6.70174 1.16664 7.02324 1.16664Z" fill="#5C5C5C"/>
<path d="M0.173056 7.41506L3.70795 10.9151C3.93586 11.1414 4.30445 11.1385 4.53004 10.9092C4.75562 10.68 4.7533 10.3107 4.52421 10.0844L1.99806 7.58307L8.76725 7.58307C9.08876 7.58307 9.34863 7.32233 9.34863 6.99975C9.34863 6.67717 9.08876 6.41641 8.76725 6.41641L1.99806 6.41641L4.52421 3.91508C4.75327 3.68875 4.75502 3.3195 4.53004 3.09025C4.4161 2.97475 4.26609 2.91643 4.11608 2.91643C3.9684 2.91643 3.82074 2.97242 3.70795 3.08444L0.173056 6.58444C0.0625872 6.6941 -0.000194179 6.84346 -0.000194193 6.99978C-0.000194206 7.15605 0.062013 7.3048 0.173056 7.41506Z" fill="#5C5C5C"/>
</svg>
