<svg width="14" height="10" viewBox="0 0 14 10" fill="none" xmlns="http://www.w3.org/2000/svg">
<path d="M13.8438 4.46105C13.1145 3.26834 12.134 2.31001 10.9023 1.58608C9.67051 0.862114 8.3698 0.500092 7 0.500092C5.6302 0.500092 4.32944 0.861977 3.09766 1.58608C1.86585 2.31001 0.885354 3.26834 0.156192 4.46105C0.0520732 4.64332 0 4.82302 0 5.00014C0 5.17727 0.0520732 5.35696 0.156192 5.53918C0.885354 6.73194 1.86585 7.69035 3.09766 8.41412C4.32944 9.13817 5.6302 9.49992 7 9.49992C8.36983 9.49992 9.67054 9.13937 10.9023 8.41806C12.134 7.69673 13.1147 6.73705 13.8438 5.53918C13.948 5.35696 14 5.17735 14 5.00014C14 4.82302 13.948 4.64332 13.8438 4.46105ZM5.32411 2.3243C5.79022 1.85818 6.3488 1.62504 6.99992 1.62504C7.10404 1.62504 7.19264 1.6616 7.26559 1.73447C7.33844 1.80737 7.37505 1.89594 7.37505 2.00009C7.37505 2.10432 7.33843 2.19284 7.26576 2.26563C7.19291 2.33861 7.10426 2.37505 7.00011 2.37505C6.55222 2.37505 6.16929 2.53398 5.85163 2.85162C5.53385 3.16945 5.37506 3.55222 5.37506 4.00011C5.37506 4.10439 5.3385 4.19286 5.26563 4.26581C5.19265 4.33881 5.10416 4.37523 5.00001 4.37523C4.89578 4.37523 4.80726 4.33873 4.73431 4.26581C4.66133 4.19286 4.62488 4.10428 4.62488 4.00011C4.62488 3.34912 4.85802 2.79044 5.32411 2.3243ZM10.3946 7.55104C9.35027 8.18369 8.21878 8.50021 7 8.50021C5.78125 8.50021 4.64976 8.18389 3.6055 7.55104C2.56125 6.9182 1.69275 6.06793 1.00006 5.00014C1.79172 3.77093 2.7839 2.85159 3.97661 2.24234C3.65892 2.78392 3.50001 3.36992 3.50001 4.00008C3.50001 4.96372 3.84253 5.78772 4.52736 6.47272C5.21219 7.15772 6.0365 7.50006 7 7.50006C7.96359 7.50006 8.78765 7.15753 9.47264 6.47272C10.1576 5.78792 10.5 4.96372 10.5 4.00008C10.5 3.36992 10.3411 2.78384 10.0234 2.24234C11.216 2.85159 12.2082 3.77102 12.9999 5.00014C12.3073 6.06793 11.4389 6.9182 10.3946 7.55104Z" fill="#5C5C5C"/>
</svg>
