<svg width="14" height="14" viewBox="0 0 14 14" fill="none" xmlns="http://www.w3.org/2000/svg">
<path d="M11.9498 9.05048C11.1873 8.28808 10.2799 7.72368 9.28974 7.38202C10.3502 6.65164 11.0469 5.42929 11.0469 4.04712C11.0469 1.81568 9.23144 0.000244141 7 0.000244141C4.76856 0.000244141 2.95312 1.81568 2.95312 4.04712C2.95312 5.42929 3.64982 6.65164 4.71029 7.38202C3.72017 7.72368 2.81269 8.28808 2.05026 9.05048C0.728137 10.3726 0 12.1305 0 14.0002H1.09375C1.09375 10.7435 3.74328 8.09399 7 8.09399C10.2567 8.09399 12.9062 10.7435 12.9062 14.0002H14C14 12.1305 13.2719 10.3726 11.9498 9.05048ZM7 7.00024C5.37165 7.00024 4.04688 5.67549 4.04688 4.04712C4.04688 2.41874 5.37165 1.09399 7 1.09399C8.62835 1.09399 9.95312 2.41874 9.95312 4.04712C9.95312 5.67549 8.62835 7.00024 7 7.00024Z" fill="#1B2942"/>
</svg>
