<svg width="14" height="14" viewBox="0 0 14 14" fill="none" xmlns="http://www.w3.org/2000/svg">
<circle cx="7" cy="7" r="7" fill="#91BD7D"/>
<g clip-path="url(#clip0)">
<path d="M3.58077 7.26923C3.52692 7.21539 3.5 7.13462 3.5 7.08077C3.5 7.02692 3.52692 6.94616 3.58077 6.89231L3.95769 6.51539C4.06538 6.40769 4.22692 6.40769 4.33462 6.51539L4.36154 6.54231L5.84231 8.13077C5.89615 8.18462 5.97692 8.18462 6.03077 8.13077L9.63846 4.38846H9.66538C9.77308 4.28077 9.93462 4.28077 10.0423 4.38846L10.4192 4.76539C10.5269 4.87308 10.5269 5.03462 10.4192 5.14231L6.11154 9.61154C6.05769 9.66539 6.00385 9.69231 5.92308 9.69231C5.84231 9.69231 5.78846 9.66539 5.73462 9.61154L3.63462 7.35L3.58077 7.26923Z" fill="white"/>
</g>
<defs>
<clipPath id="clip0">
<rect width="7" height="7" fill="white" transform="translate(3.5 3.5)"/>
</clipPath>
</defs>
</svg>
