<svg width="12" height="12" viewBox="0 0 12 12" fill="none" xmlns="http://www.w3.org/2000/svg">
<g clip-path="url(#clip0)">
<path d="M10.2857 0C10.049 0 9.85715 0.191878 9.85715 0.428579V1.99414C7.65069 -0.142031 4.13032 -0.0850279 1.99416 2.1214C0.987433 3.16125 0.425812 4.55266 0.428599 5.99999C0.428599 6.23669 0.620477 6.42857 0.857179 6.42857C1.09388 6.42857 1.28573 6.23669 1.28573 5.99999C1.28626 3.39637 3.39732 1.28612 6.00096 1.28664C7.32326 1.28689 8.58464 1.84249 9.47746 2.81785L7.5789 3.45083C7.35405 3.52564 7.23238 3.76855 7.30719 3.9934C7.382 4.21825 7.6249 4.33991 7.84975 4.2651L10.4212 3.40797C10.5967 3.34951 10.7149 3.18498 10.7143 2.99998V0.428554C10.7143 0.191878 10.5224 0 10.2857 0Z" fill="#D9374C" stroke="#D9374C" stroke-width="0.25"/>
<path d="M11.1428 5.57141C10.9061 5.57141 10.7142 5.76329 10.7142 5.99999C10.7137 8.60361 8.60266 10.7139 5.99902 10.7133C4.67672 10.7131 3.41534 10.1575 2.52252 9.18213L4.42108 8.54914C4.64593 8.47433 4.76759 8.23143 4.69279 8.00658C4.61798 7.78173 4.37508 7.66006 4.15023 7.73487L1.5788 8.592C1.40327 8.65046 1.28507 8.815 1.28565 8.99999V11.5714C1.28565 11.8081 1.47752 12 1.71423 12C1.95093 12 2.14281 11.8081 2.14281 11.5714V10.0058C4.34926 12.142 7.86965 12.085 10.0058 9.87857C11.0125 8.83873 11.5741 7.44732 11.5714 5.99999C11.5714 5.76329 11.3795 5.57141 11.1428 5.57141Z" fill="#D9374C" stroke="#D9374C" stroke-width="0.25"/>
</g>
<defs>
<clipPath id="clip0">
<rect width="12" height="12"/>
</clipPath>
</defs>
</svg>
