<svg width="21" height="21" viewBox="0 0 21 21" fill="none" xmlns="http://www.w3.org/2000/svg">
<rect width="21" height="21" rx="2" fill="#B4BFD1"/>
<path d="M8.87342 14.067L8.25823 14.6779C7.72496 15.2065 6.85764 15.2069 6.32467 14.6779C6.06845 14.4237 5.92772 14.086 5.92772 13.727C5.92772 13.368 6.0686 13.0302 6.32452 12.776L8.58893 10.5293C9.05822 10.064 9.94104 9.37874 10.5845 10.0169C10.8798 10.3102 11.3567 10.3082 11.6498 10.0131C11.9431 9.71795 11.9413 9.2409 11.646 8.94789C10.5523 7.8625 8.93573 8.0631 7.52785 9.46005L5.26329 11.7068C4.71998 12.2462 4.4209 12.9635 4.4209 13.727C4.4209 14.4905 4.71998 15.2077 5.26344 15.747C5.82255 16.3017 6.55674 16.5789 7.29123 16.5789C8.02587 16.5789 8.76036 16.3017 9.31977 15.7467L9.93542 15.1357C10.2305 14.8426 10.2322 14.3658 9.93891 14.0705C9.64606 13.7755 9.16871 13.7738 8.87342 14.067ZM15.7359 5.33958C14.5612 4.17395 12.9187 4.11072 11.8311 5.18974L11.0643 5.95097C10.769 6.24413 10.7672 6.72087 11.0605 7.01616C11.3538 7.31144 11.8307 7.31311 12.126 7.01996L12.8925 6.25918C13.4559 5.69976 14.1936 5.93167 14.6747 6.40902C14.9312 6.66327 15.0721 7.00111 15.0721 7.36007C15.0721 7.71919 14.9311 8.05702 14.675 8.31128L12.2591 10.7079C11.1544 11.8039 10.6362 11.2895 10.415 11.0701C10.1198 10.7769 9.64302 10.7787 9.34971 11.0739C9.0564 11.369 9.05822 11.846 9.35351 12.139C9.86064 12.6424 10.4395 12.8919 11.0463 12.8919C11.7893 12.8919 12.5741 12.5178 13.3203 11.7769L15.7363 9.38026C16.2794 8.8409 16.5788 8.12344 16.5788 7.35992C16.5788 6.59671 16.2794 5.87924 15.7359 5.33958Z" fill="white"/>
</svg>
