<svg width="19" height="19" viewBox="0 0 19 19" fill="none" xmlns="http://www.w3.org/2000/svg">
<rect width="19" height="19" rx="2" fill="#B4BFD1"/>
<path d="M9.15031 8.96282C9.28674 8.82639 9.28674 8.60468 9.15031 8.46825C9.01387 8.33181 8.79217 8.33181 8.65573 8.46825L6.80535 10.3186C6.48984 10.6341 6.3193 11.0434 6.3193 11.4869C6.3193 11.9303 6.48984 12.3396 6.80535 12.6551C7.45341 13.3031 8.50225 13.3031 9.14178 12.6551L13.3201 8.47678C13.755 8.04189 13.9937 7.46205 13.9937 6.84809C13.9937 6.23414 13.755 5.65429 13.3201 5.21941C12.4162 4.31553 10.9581 4.31553 10.0542 5.21941L5.88442 9.38918C5.32163 9.95197 5.01465 10.6938 5.01465 11.4869C5.01465 12.2799 5.32163 13.0303 5.88442 13.5845C6.44721 14.1473 7.18907 14.4543 7.98209 14.4543C8.77511 14.4543 9.5255 14.1473 10.0798 13.5845L11.9302 11.7341C12.0666 11.5977 12.0666 11.376 11.9302 11.2396C11.7937 11.1031 11.572 11.1031 11.4356 11.2396L9.58519 13.09C9.15883 13.5163 8.58752 13.7551 7.98209 13.7551C7.37666 13.7551 6.80535 13.5163 6.37899 13.09C5.95263 12.6636 5.71387 12.0923 5.71387 11.4869C5.71387 10.8814 5.95263 10.3101 6.37899 9.88375L10.5488 5.71398C10.8557 5.40701 11.2565 5.24499 11.6829 5.24499C12.1092 5.24499 12.5185 5.41554 12.817 5.71398C13.124 6.02096 13.286 6.42174 13.286 6.84809C13.286 7.27445 13.1154 7.68375 12.817 7.9822L8.63868 12.1605C8.27201 12.5272 7.66659 12.5272 7.29139 12.1605C7.11232 11.9814 7.01 11.7427 7.01 11.4869C7.01 11.231 7.11232 10.9923 7.29139 10.8132L9.15031 8.96282Z" fill="white"/>
</svg>
