<svg width="19" height="19" viewBox="0 0 19 19" fill="none" xmlns="http://www.w3.org/2000/svg">
<rect width="19" height="19" rx="2" fill="#B4BFD1"/>
<path d="M5.09153 5H13.9161L14 7.56827H13.6263C13.4432 6.76138 13.2093 6.23739 12.9246 5.99631C12.6449 5.75031 12.0525 5.62731 11.1475 5.62731H10.278V13.3616C10.278 13.9471 10.372 14.3112 10.5602 14.4539C10.7483 14.5916 11.1602 14.6827 11.7958 14.7269V15H7.24237V14.7269C7.90339 14.6777 8.31525 14.572 8.47797 14.4096C8.64068 14.2472 8.72203 13.8389 8.72203 13.1845V5.62731H7.85254C6.98814 5.62731 6.39831 5.74785 6.08305 5.98893C5.77288 6.23001 5.53898 6.75646 5.38136 7.56827H5L5.09153 5Z" fill="white"/>
</svg>
