<svg width="19" height="19" viewBox="0 0 19 19" fill="none" xmlns="http://www.w3.org/2000/svg">
<rect width="19" height="19" rx="2" fill="#B4BFD1"/>
<path d="M15.4261 4.13892H3.57393C3.25746 4.13892 3 4.39638 3 4.71285V14.2871C3 14.6036 3.25746 14.8611 3.57393 14.8611H15.4261C15.7425 14.8611 16 14.6036 16 14.2871V4.71285C16 4.39638 15.7425 4.13892 15.4261 4.13892ZM15.4261 14.2871L3.57396 14.2875C3.57396 14.2875 3.57393 14.2874 3.57393 14.2871V4.71285H15.4261V14.2871Z" fill="white"/>
<path d="M14.3487 5.50293H4.65073C4.49227 5.50293 4.36377 5.63143 4.36377 5.78989V12.1325C4.36377 12.2909 4.49227 12.4194 4.65073 12.4194H14.3487C14.5071 12.4194 14.6357 12.2909 14.6357 12.1325V5.78989C14.6357 5.63143 14.5072 5.50293 14.3487 5.50293ZM4.9377 6.07686H14.0617V10.935L12.2532 9.12663C12.1412 9.01461 11.9595 9.01461 11.8474 9.12663L10.7449 10.2291L8.217 7.70123C8.10495 7.58925 7.92326 7.5892 7.81118 7.70123L4.93772 10.5744V6.07686H4.9377ZM4.9377 11.8455V11.386L8.01408 8.30994L11.5496 11.8455H4.9377ZM14.0618 11.8455H12.3613V11.8455L11.1508 10.6349L12.0503 9.73535L13.9958 11.6806C14.0158 11.7006 14.0381 11.7169 14.0617 11.7297V11.8455H14.0618Z" fill="white"/>
<path d="M10.7275 6.62134C10.1293 6.62134 9.64258 7.10803 9.64258 7.70625C9.64258 8.30448 10.1293 8.79117 10.7275 8.79117C11.3257 8.79117 11.8124 8.30448 11.8124 7.70625C11.8124 7.10803 11.3257 6.62134 10.7275 6.62134ZM10.7275 8.21724C10.4457 8.21724 10.2165 7.98804 10.2165 7.70625C10.2165 7.42449 10.4457 7.19529 10.7275 7.19529C11.0092 7.19529 11.2384 7.42449 11.2384 7.70625C11.2384 7.98804 11.0092 8.21724 10.7275 8.21724Z" fill="white"/>
<path d="M7.14683 13.0664H4.65073C4.49227 13.0664 4.36377 13.1949 4.36377 13.3534C4.36377 13.5119 4.49227 13.6403 4.65073 13.6403H7.14683C7.30532 13.6403 7.4338 13.5118 7.4338 13.3534C7.4338 13.1949 7.30532 13.0664 7.14683 13.0664Z" fill="white"/>
<path d="M9.1111 13.0664H8.4564C8.29794 13.0664 8.16943 13.1949 8.16943 13.3534C8.16943 13.5118 8.29794 13.6403 8.4564 13.6403H9.1111C9.26958 13.6403 9.39806 13.5118 9.39806 13.3534C9.39806 13.1949 9.26956 13.0664 9.1111 13.0664Z" fill="white"/>
</svg>
