<svg width="12" height="11" viewBox="0 0 12 11" fill="none" xmlns="http://www.w3.org/2000/svg">
<path d="M8.28689 3.13748L7.34756 3.10303L7.14391 8.66437L8.08324 8.69868L8.28689 3.13748Z" fill="white"/>
<path d="M6.46997 3.12012H5.53003V8.68148H6.46997V3.12012Z" fill="white"/>
<path d="M4.85592 8.6644L4.65227 3.10303L3.71294 3.1375L3.91662 8.69885L4.85592 8.6644Z" fill="white"/>
<path d="M0.407318 0.801758V1.7417H1.38675L2.16375 10.5714C2.18505 10.8141 2.38826 11.0002 2.63184 11.0002H9.35231C9.59592 11.0002 9.79927 10.8139 9.82041 10.5713L10.5974 1.7417H11.5927V0.801758H0.407318ZM8.92184 10.0602H3.0622L2.3303 1.7417H9.65391L8.92184 10.0602Z" fill="white"/>
</svg>
