<svg width="21" height="13" viewBox="0 0 21 13" fill="none" xmlns="http://www.w3.org/2000/svg">
<path d="M20.1158 6.80589C19.9372 7.04556 15.6801 12.6743 10.243 12.6743C4.80595 12.6743 0.548672 7.04555 0.370198 6.80612C0.200982 6.57874 0.200982 6.27035 0.370198 6.04298C0.548672 5.80331 4.80595 0.17455 10.243 0.17455C15.6801 0.17455 19.9372 5.80335 20.1158 6.04279C20.2853 6.27012 20.2853 6.57874 20.1158 6.80589ZM10.243 1.46762C6.23804 1.46762 2.7693 5.20354 1.74248 6.42487C2.76797 7.64727 6.22944 11.3812 10.243 11.3812C14.2478 11.3812 17.7163 7.64597 18.7435 6.42399C17.7181 5.20163 14.2566 1.46762 10.243 1.46762Z" fill="#B6BECA"/>
<circle cx="10.5" cy="6.5" r="2.5" fill="#B6BECA"/>
</svg>
