<svg width="146" height="44" viewBox="0 0 146 44" version="1.1" xmlns="http://www.w3.org/2000/svg" xmlns:xlink="http://www.w3.org/1999/xlink">
<title>Group</title>
<desc>Created using Figma</desc>
<g id="Canvas" transform="translate(-1367 -765)">
<g id="Group">
<g id="Vector">
<use xlink:href="#path0_fill" transform="translate(1413.34 791.719)" fill="#26485A"/>
</g>
<g id="Vector">
<use xlink:href="#path1_fill" transform="translate(1398.12 791.641)" fill="#234658"/>
</g>
<g id="Vector">
<use xlink:href="#path2_fill" transform="translate(1367 786.915)" fill="#234658"/>
</g>
<g id="Vector">
<use xlink:href="#path3_fill" transform="translate(1490.83 791.421)" fill="#26485A"/>
</g>
<g id="Vector">
<use xlink:href="#path4_fill" transform="translate(1374.99 769.869)" fill="#234658"/>
</g>
<g id="Vector">
<use xlink:href="#path5_fill" transform="translate(1475.69 791.415)" fill="#26485A"/>
</g>
<g id="Vector">
<use xlink:href="#path6_fill" transform="translate(1384.8 791.805)" fill="#26485A"/>
</g>
<g id="Vector">
<use xlink:href="#path7_fill" transform="translate(1429.16 791.669)" fill="#26485A"/>
</g>
<g id="Vector">
<use xlink:href="#path8_fill" transform="translate(1442.64 791.919)" fill="#26485A"/>
</g>
<g id="Vector">
<use xlink:href="#path9_fill" transform="translate(1462.09 791.417)" fill="#26485A"/>
</g>
<g id="Vector">
<use xlink:href="#path10_fill" transform="translate(1457.02 801.481)" fill="#26485A"/>
</g>
<g id="Vector">
<use xlink:href="#path11_fill" transform="translate(1396.82 765.223)" fill="#F29220"/>
</g>
<g id="Vector">
<use xlink:href="#path12_fill" transform="translate(1400.22 769.961)" fill="#F29220"/>
</g>
<g id="Vector">
<use xlink:href="#path13_fill" transform="translate(1392.01 765)" fill="#F29220"/>
</g>
<g id="Vector">
<use xlink:href="#path14_fill" transform="translate(1379.22 784.466)" fill="#26485A"/>
</g>
<g id="Vector">
<use xlink:href="#path15_fill" transform="translate(1386.23 769.824)" fill="#26485A"/>
</g>
<g id="Vector">
<use xlink:href="#path16_fill" transform="translate(1388.39 769.873)" fill="#26485A"/>
</g>
<g id="Vector">
<use xlink:href="#path17_fill" transform="translate(1375 779.169)" fill="#26485A"/>
</g>
<g id="Vector">
<use xlink:href="#path18_fill" transform="translate(1394.88 772.17)" fill="#26485A"/>
</g>
<g id="Vector">
<use xlink:href="#path19_fill" transform="translate(1381.11 771.057)" fill="#F29220"/>
</g>
<g id="Vector">
<use xlink:href="#path20_fill" transform="translate(1383.52 782.071)" fill="#01A6D8"/>
</g>
<g id="Vector">
<use xlink:href="#path21_fill" transform="translate(1376.16 772.182)" fill="#F29220"/>
</g>
<g id="Vector">
<use xlink:href="#path22_fill" transform="translate(1400.93 785.4)" fill="#01A6D8"/>
</g>
<g id="Vector">
<use xlink:href="#path23_fill" transform="translate(1402.76 785.021)" fill="#26485A"/>
</g>
<g id="Vector">
<use xlink:href="#path24_fill" transform="translate(1381.89 771.942)" fill="#26485A"/>
</g>
<g id="Vector">
<use xlink:href="#path25_fill" transform="translate(1388.64 773.023)" fill="#FBFBFC"/>
</g>
</g>
</g>
<defs>
<path id="path0_fill" d="M 1.59783 17.2384C 1.59783 12.7146 1.59783 8.19083 1.59783 3.70975C 1.59783 2.94156 1.76994 2.08802 0.522088 2.21605C 0.048763 2.25873 0.00573412 1.91731 0.0487636 1.5759C 0.0917932 1.14913 -0.209414 0.637 0.30694 0.380938C 1.46874 -0.259217 3.53415 0.594325 3.83536 1.78928C 5.90078 -0.0885076 8.2674 -0.51528 10.3328 0.637C 12.3552 1.7466 13.56 4.60596 13.1297 7.29461C 12.5273 11.1782 9.60132 13.3974 6.28804 12.5012C 5.42745 12.2451 4.78201 11.733 3.92142 10.9648C 3.92142 12.7573 3.92142 14.3363 3.92142 15.8727C 3.92142 16.4275 3.96445 16.9396 3.44809 17.281C 2.84568 17.2384 2.24327 17.2384 1.59783 17.2384ZM 10.8061 6.27037C 10.8492 5.4595 10.634 4.69132 10.2898 3.92313C 9.73041 2.72818 8.74073 2.04534 7.44984 1.95999C 6.28804 1.91731 5.21231 2.38676 4.60989 3.41101C 3.70627 4.94738 3.62021 6.61178 4.26565 8.27619C 5.12625 10.5381 7.44984 11.2636 9.30011 9.89791C 10.4619 9.0017 10.8061 7.72139 10.8061 6.27037Z"/>
<path id="path1_fill" d="M 1.66739 17.3159C 1.66739 12.8774 1.62436 8.48172 1.62436 4.04331C 1.62436 3.18977 1.88254 2.16552 0.376507 2.25087C -0.225906 2.29355 0.0753017 1.61072 0.0753017 1.2693C 0.0322721 0.970561 -0.139847 0.586467 0.376507 0.373082C 1.66739 -0.0963649 3.38857 0.543791 3.94796 1.73875C 5.58308 -0.0536875 7.60547 -0.395103 9.71391 0.41576C 11.9514 1.22662 12.812 3.14709 13.0702 5.36629C 13.5435 8.99384 11.7793 11.8959 8.76726 12.5787C 6.91699 13.0055 5.36793 12.408 3.81887 10.9143C 3.81887 12.7921 3.81887 14.3711 3.81887 15.9502C 3.81887 16.4196 3.8619 16.9318 3.51766 17.3585C 2.91525 17.3159 2.26981 17.3159 1.66739 17.3159ZM 3.81887 6.39054C 3.81887 6.6466 3.77584 6.94534 3.81887 7.20141C 4.07705 9.16455 5.36793 10.5729 6.96002 10.7009C 8.59515 10.8289 10.0151 9.84738 10.4884 8.18297C 10.9187 6.73196 10.8757 5.23826 10.1442 3.8726C 8.93938 1.61072 5.92732 1.44001 4.50734 3.57386C 3.99099 4.4274 3.77584 5.36629 3.81887 6.39054Z"/>
<path id="path2_fill" d="M 0 6.72081C 0.688472 5.4405 1.03271 4.03216 2.02239 2.87988C 4.94839 -0.491601 9.98285 -0.704985 13.3822 1.21548C 14.7591 1.98367 15.0173 3.26398 14.8882 4.67232C 14.8452 5.18444 14.63 5.39783 14.1997 5.31247C 13.7264 5.22712 12.9089 5.65389 12.7798 4.97106C 12.6076 4.03216 12.3925 3.2213 11.4459 2.83721C 10.2841 2.36776 9.07923 2.06902 7.78834 2.23973C 5.20657 2.62382 3.48539 4.03216 2.79692 6.50743C 2.02239 9.1534 2.58177 11.6287 4.64719 13.5065C 6.62655 15.3416 8.99317 15.5123 11.4459 14.5307C 12.0052 14.3173 12.6076 14.0186 13.081 13.6345C 13.6834 13.165 14.0707 12.7809 14.7161 13.6772C 15.3185 14.488 15.0603 14.8294 14.3719 15.3842C 9.38044 19.3105 2.32359 17.262 0.344236 11.2446C 0.258177 11.0312 0.430295 10.6471 0 10.5191C 0 9.23876 0 8.00112 0 6.72081Z"/>
<path id="path3_fill" d="M 4.09521 2.34354C 6.28971 -0.558495 10.4205 -1.07062 12.0987 2.55693C 13.3035 0.80717 14.8956 -0.217079 17.1332 0.038983C 19.1986 0.252368 20.4464 1.53268 20.5325 3.66653C 20.6185 5.54432 20.5755 7.4221 20.5755 9.29989C 20.5755 10.0254 20.5325 10.6656 21.5652 10.6229C 22.5118 10.5802 22.0385 11.3911 22.1246 11.8178C 22.2106 12.33 22.0816 12.7141 21.4361 12.6287C 21.0919 12.586 20.7046 12.6287 20.3604 12.6287C 18.5101 12.6287 18.1659 12.2873 18.1659 10.4095C 18.1659 8.53171 18.1659 6.65392 18.1659 4.77613C 18.1659 3.75188 18.0368 2.68496 16.918 2.30087C 15.7562 1.8741 14.5944 2.17283 13.7338 3.11173C 12.8302 4.05062 12.3569 5.2029 12.3569 6.52589C 12.3139 8.19029 12.2708 9.8547 12.3569 11.4764C 12.3999 12.5433 11.9266 12.6287 11.066 12.6287C 10.2484 12.6287 9.86116 12.5007 9.90419 11.5191C 9.99025 9.38525 9.99025 7.20872 9.90419 5.07487C 9.86116 3.92259 9.94723 2.64228 8.48422 2.21551C 7.19334 1.83142 5.77337 2.47157 4.91278 3.79456C 4.35339 4.69078 4.00916 5.62967 4.00916 6.6966C 4.00916 8.361 3.96613 10.0254 4.00916 11.6471C 4.05219 12.586 3.57886 12.6287 2.84735 12.586C 2.20191 12.5433 1.51344 12.7994 1.55647 11.6471C 1.64253 8.9158 1.55647 6.18447 1.5995 3.45314C 1.5995 2.68496 1.55647 2.13016 0.566794 2.17283C -0.293796 2.21551 0.0934642 1.49 0.0504347 1.06323C 0.0074052 0.636462 0.00741308 0.252368 0.609826 0.252368C 1.38436 0.252368 2.15888 0.20969 2.89039 0.295044C 4.00915 0.465752 3.83703 1.49 4.09521 2.34354Z"/>
<path id="path4_fill" d="M 12.8791 0.0386523C 13.0512 0.0386523 13.2234 0.0386525 13.3955 0.0813295C 13.6967 0.593454 14.0839 0.508099 14.4712 0.20936C 16.5366 0.252037 18.3869 0.892192 19.8929 2.30053C 20.022 2.38589 20.1081 2.47124 20.2372 2.5566C 22.4317 4.43438 23.2492 6.90965 23.3783 9.64098C 23.4213 10.7079 23.6795 11.3054 24.7122 11.8175C 26.7346 12.8418 28.714 13.9087 30.7794 14.8049C 31.683 15.189 32.3285 15.7865 32.1563 16.8534C 32.0273 17.9203 31.2097 18.4751 30.22 18.6032C 28.1976 18.8592 26.2183 18.6885 24.9274 16.8107C 24.4971 16.1706 24.1098 16.3839 23.5935 16.5973C 21.7432 17.4082 19.936 18.2617 17.9136 18.5178C 13.7397 19.0726 9.91008 18.5178 7.15619 14.8903C 6.16651 14.3354 5.17683 14.5062 4.18715 14.8049C 1.30417 14.6769 -0.330948 12.671 0.0563175 9.72633C 0.400554 9.5983 0.486612 9.42759 0.142376 9.17153C 0.271465 4.94651 3.62777 1.31896 8.31799 0.337391C 9.26464 0.124006 10.2543 -0.0893787 11.244 0.0386523C 11.8034 0.508099 12.3628 0.63613 12.8791 0.0386523ZM 27.7673 15.5304C 27.4661 15.5731 27.1649 15.6158 26.8207 15.7011C 26.4764 15.7438 26.0031 15.6158 25.9171 16.0852C 25.788 16.5547 26.2183 16.8107 26.5625 16.9814C 27.3801 17.4082 28.1976 17.6643 29.1443 17.6216C 29.9188 17.5789 30.9085 17.6643 30.9515 16.6827C 30.9945 15.7865 30.0049 15.7865 29.3164 15.6158C 29.2303 15.6158 29.1443 15.5304 29.0582 15.5304C 28.6279 15.0183 28.1976 15.0183 27.7673 15.5304ZM 6.94104 2.5566C 7.15619 2.51392 7.45739 2.47124 7.28528 2.1725C 7.15619 1.95912 6.98407 2.12983 6.89801 2.30053C 6.33863 2.21518 5.95136 2.51392 5.52107 2.7273C 2.72415 4.39171 1.26114 6.86697 1.17508 10.1104C 1.13205 12.543 2.46597 13.9514 4.91865 14.0367C 6.51075 14.0794 6.46772 14.0794 5.90833 12.671C 4.48836 9.17153 4.53139 5.75737 6.94104 2.5566ZM 13.3524 1.19093C 9.43675 1.10558 6.98407 3.06872 6.25257 6.73894C 5.82227 8.91547 6.38166 10.9213 7.11316 12.8844C 7.3283 13.4819 7.80163 14.1647 8.79131 13.6099C 9.30766 13.3112 9.99614 13.3539 10.5985 13.1832C 14.17 12.2016 17.6984 11.1774 21.399 11.1347C 22.4317 11.1347 22.3456 10.4092 22.3456 9.72633C 22.0874 4.56242 18.6881 1.31896 13.3524 1.19093ZM 27.251 14.5488C 24.6262 12.5857 22.862 12.0309 19.936 12.2443C 16.0203 12.543 12.3628 13.866 8.53313 14.7622C 9.22161 15.7865 9.2216 15.7438 9.99614 16.2132C 13.4815 18.1764 17.053 18.0057 20.6675 16.64C 22.7759 15.8291 24.7983 14.8476 27.251 14.5488Z"/>
<path id="path5_fill" d="M 6.84587 0.00197709C 10.7185 0.0873311 13.5585 2.94669 13.4724 6.61691C 13.3433 10.2445 10.2882 13.0185 6.4586 12.8904C 2.75806 12.7624 -0.124915 9.81769 0.00417375 6.23282C 0.0902328 2.60527 3.05927 -0.0833769 6.84587 0.00197709ZM 11.0197 6.40353C 10.9767 3.97094 9.04038 2.0078 6.71678 2.0078C 4.39319 2.0078 2.45685 4.01362 2.45685 6.44621C 2.45685 8.96415 4.43621 10.97 6.84587 10.8846C 9.12643 10.7993 11.0628 8.79344 11.0197 6.40353Z"/>
<path id="path6_fill" d="M 7.93352 10.4945C 6.42748 12.3296 4.74933 12.927 2.68392 12.3296C 1.09182 11.8601 0.145176 10.7505 0.0160873 9.29949C -0.113001 7.67777 0.53244 6.44013 2.03847 5.71462C 3.32936 5.07447 4.74933 4.86108 6.21234 4.81841C 6.77172 4.77573 7.67534 5.2025 7.7614 4.30628C 7.84746 3.36739 7.54625 2.38582 6.51354 2.00172C 5.82507 1.74566 5.09357 1.83102 4.36207 1.87369C 3.54451 1.91637 3.28633 2.38582 3.02815 3.11133C 2.76998 3.79416 1.90939 3.45274 1.30697 3.41007C 0.70456 3.36739 0.876678 2.81259 0.876678 2.47117C 0.876678 1.44692 1.43606 0.806769 2.38271 0.465353C 3.88874 -0.0894483 5.48084 -0.132125 7.0299 0.251968C 8.96623 0.678738 9.9559 1.95905 10.042 4.00754C 10.1711 5.58659 10.128 7.33635 10.1711 9.08611C 10.1711 9.55555 10.042 10.2384 10.7735 10.1957C 12.0213 10.1104 11.7201 10.9639 11.7201 11.6041C 11.7201 12.6283 10.9026 12.2015 10.4292 12.2015C 9.26743 12.3296 8.06261 12.3722 7.93352 10.4945ZM 6.38446 6.44013C 5.39478 6.44013 4.4051 6.56816 3.50148 6.99493C 2.64089 7.4217 2.21059 8.10454 2.38271 9.04343C 2.5118 9.93965 3.11421 10.4091 4.01783 10.5798C 5.5669 10.9212 7.07293 9.89697 7.63231 8.14721C 8.19169 6.52549 8.06261 6.39746 6.38446 6.44013Z"/>
<path id="path7_fill" d="M 6.90096 6.57631C 5.78219 6.57631 4.6204 6.66167 3.50163 6.57631C 2.2968 6.49096 2.33983 7.08844 2.59801 7.85662C 3.41557 10.4599 6.55673 11.4842 9.18153 9.86244C 10.1282 9.26496 10.4294 9.60638 10.8597 10.3319C 11.1179 10.8013 10.9888 11.0147 10.6445 11.3135C 8.10579 13.362 3.75981 13.0205 1.52227 10.5026C -0.629205 8.07001 -0.500119 3.84499 1.90953 1.62578C 3.71677 -0.0813 5.91128 -0.38004 8.19185 0.430823C 10.4724 1.24169 11.2039 3.20483 11.376 5.46671C 11.4621 6.27758 11.2469 6.70434 10.2573 6.61899C 9.18153 6.49096 8.06276 6.57631 6.90096 6.57631ZM 5.69613 4.95459C 6.47066 4.95459 7.2452 4.91191 7.9767 4.95459C 8.96638 5.03994 9.0094 4.52782 8.79426 3.80231C 8.40699 2.522 7.28822 1.75381 5.78219 1.88184C 4.31919 1.9672 2.85619 3.16215 2.64104 4.39979C 2.51195 4.99726 2.89922 4.95459 3.24345 4.95459C 4.06101 4.95459 4.87857 4.95459 5.69613 4.95459Z"/>
<path id="path8_fill" d="M 5.4721 4.27784C 6.07451 3.29627 6.67693 2.40005 7.23631 1.50384C 8.0969 0.180849 9.04355 -0.203243 10.5496 0.0954956C 10.9799 0.18085 11.0659 0.394236 11.0229 0.735652C 10.9799 1.16242 11.2381 1.93061 10.8508 1.93061C 9.08658 1.84525 8.91446 3.46698 8.05387 4.32052C 6.9351 5.43012 7.10722 6.45437 8.05387 7.64933C 9.12961 9.01499 9.9902 10.5087 10.9799 12.0024C 8.65629 12.4292 8.65629 12.4292 7.45146 10.594C 6.84905 9.65515 6.2036 8.71625 5.60119 7.82004C 5.60119 7.77736 5.51513 7.77736 5.42907 7.73468C 4.78363 8.71625 4.05213 9.61247 3.5788 10.6794C 2.8473 12.2584 1.6855 12.4292 0.00735233 12.0877C 1.21218 10.2953 2.33095 8.50287 3.53577 6.79579C 3.92304 6.24099 4.0091 5.85689 3.5788 5.25941C 2.97639 4.49123 2.46003 3.63769 1.90065 2.82682C 1.64247 2.44273 1.34127 2.05864 0.867943 2.10132C -0.207795 2.18667 0.0503819 1.46116 0.00735233 0.906358C -0.0787067 0.0101407 0.609766 0.266204 1.08309 0.18085C 2.37398 0.0101419 3.19153 0.564943 3.83698 1.67455C 4.26727 2.48541 4.86969 3.29627 5.4721 4.27784Z"/>
<path id="path9_fill" d="M 6.75872 6.51199e-07C 7.87749 0.0426777 8.99626 0.170708 9.98594 0.768187C 10.6744 1.15228 11.2338 1.74976 11.2338 2.56062C 11.2338 2.98739 11.6641 3.79825 10.8465 3.88361C 10.2441 3.92629 9.29746 4.56644 8.99626 3.1581C 8.78111 2.09117 7.57628 2.00582 6.62963 2.0485C 4.13392 2.09117 2.24062 4.31038 2.4988 6.871C 2.75698 9.43162 4.95148 11.2241 7.4472 10.84C 8.39385 10.7119 9.25444 10.3278 10.029 9.77304C 10.3302 9.60233 10.6744 8.91949 11.0617 9.68768C 11.3199 10.2425 12.0514 10.6266 11.2338 11.3521C 7.79143 14.4675 1.50912 12.8031 0.261268 8.40737C -0.943558 3.96896 2.15456 6.51199e-07 6.75872 6.51199e-07Z"/>
<path id="path10_fill" d="M 2.49841 1.24573C 2.67053 2.18463 2.45538 2.65407 1.33661 2.6114C 0.432992 2.56872 -0.0403352 2.48337 0.00269429 1.41644C 0.0457238 0.520224 0.0457278 -0.0772557 1.25055 0.00809828C 2.24023 0.0507753 2.75658 0.221484 2.49841 1.24573Z"/>
<path id="path11_fill" d="M 1.31316e-06 2.46578C 0.344237 1.61224 0.602412 1.01476 0.81756 0.417286C 0.946648 0.0758702 1.11877 -0.180192 1.463 0.161224C 1.67815 0.374609 2.1945 0.545317 1.85027 0.972087C 1.37694 1.52689 0.98968 2.20972 1.31316e-06 2.46578Z"/>
<path id="path12_fill" d="M -1.31316e-06 1.355C 0.731501 0.928225 1.24786 0.586809 1.80724 0.28807C 2.02239 0.160039 2.23754 -0.1387 2.49571 0.0746849C 2.66783 0.245393 2.75389 0.544132 2.75389 0.800194C 2.79692 1.22696 2.40965 1.31232 2.15147 1.31232C 1.50603 1.355 0.860589 1.65373 -1.31316e-06 1.355Z"/>
<path id="path13_fill" d="M 0.296145 2.38991C 0.210086 1.83511 0.124027 1.28031 0.0809971 0.725509C 0.0379676 0.42677 -0.177179 0 0.339175 0C 0.76947 0 1.11371 0.256062 0.984618 0.768186C 0.855529 1.32299 0.726441 1.83511 0.554323 2.38991C 0.468264 2.38991 0.382204 2.38991 0.296145 2.38991Z"/>
<path id="path14_fill" d="M -1.64145e-07 0.293594C 0.989679 -0.0478222 1.97936 -0.175853 2.96904 0.378948C 1.93633 0.464302 0.946649 0.677687 -1.64145e-07 0.293594Z"/>
<path id="path15_fill" d="M 1.63512 0.0840977C 1.11877 0.681576 0.559384 0.553545 3.28289e-07 0.212129C 0.516355 -0.0439332 1.07574 -0.0439333 1.63512 0.0840977Z"/>
<path id="path16_fill" d="M 1.07574 0.162389C 0.688473 0.503805 0.301207 0.589159 3.28289e-07 0.0343576C 0.387266 -0.0509964 0.731502 0.0343577 1.07574 0.162389Z"/>
<path id="path17_fill" d="M 0.130832 3.256e-07C 0.475068 0.256062 0.38901 0.384093 0.0447733 0.554801C -0.0412857 0.341416 0.00174332 0.170708 0.130832 3.256e-07Z"/>
<path id="path18_fill" d="M 0.344236 0.256062C 0.215147 0.170708 0.12909 0.0853537 1.31316e-06 -3.256e-07C 0.12909 0.0853537 0.258176 0.170708 0.344236 0.256062Z"/>
<path id="path19_fill" d="M 7.23212 0.00272604C 12.5678 0.130757 15.9671 3.37421 16.2253 8.53813C 16.2683 9.22096 16.3114 9.94647 15.2786 9.94647C 11.5351 9.98915 8.00665 11.0134 4.47823 11.995C 3.87582 12.1657 3.18735 12.123 2.67099 12.4217C 1.68131 12.9765 1.25102 12.3364 0.99284 11.6962C 0.261338 9.73308 -0.255016 7.68459 0.13225 5.55074C 0.863752 1.83784 3.31643 -0.082628 7.23212 0.00272604ZM 10.3302 1.96587C 9.89995 2.05122 9.51269 2.13658 9.12542 2.17925C 7.57636 2.43532 7.27515 2.94744 7.70545 4.48381C 7.87756 5.16664 8.09271 5.84948 8.26483 6.53231C 8.91027 8.83687 10.1581 9.47702 12.3526 8.49545C 12.955 8.23939 13.2993 7.68459 13.1702 6.95908C 13.0841 6.57499 13.0841 5.97751 12.4387 6.02018C 11.8793 6.06286 11.1908 5.97751 11.3199 6.9164C 11.363 7.25782 11.1048 7.38585 10.8036 7.38585C 10.5024 7.38585 10.2872 7.25782 10.2012 6.95908C 9.98601 6.19089 9.72783 5.42271 9.55572 4.65452C 9.46966 4.27043 9.12542 3.7583 9.72783 3.50224C 10.2012 3.28886 10.3733 3.67295 10.6315 4.05704C 11.0187 4.65452 11.6211 4.3131 12.0945 4.1424C 12.6969 3.92901 12.2235 3.41689 12.1375 3.11815C 11.8363 2.30728 11.1478 2.00855 10.3302 1.96587Z"/>
<path id="path20_fill" d="M 18.7178 2.34743C 16.2652 2.64617 14.2428 3.67042 12.1343 4.43861C 8.51985 5.80427 4.94839 5.97498 1.463 4.01184C 0.688472 3.58507 0.688473 3.58507 6.56578e-07 2.56082C 3.82963 1.6646 7.48714 0.341612 11.4028 0.0428732C 14.3288 -0.170512 16.1361 0.38429 18.7178 2.34743Z"/>
<path id="path21_fill" d="M 5.76694 0.244013C 3.35728 3.40211 3.31425 6.85895 4.73423 10.4011C 5.29361 11.8095 5.29361 11.8095 3.74455 11.7668C 1.33489 11.6815 -0.0420506 10.2731 0.000978967 7.84052C 0.087038 4.59707 1.55004 2.1218 4.34696 0.457398C 4.77726 0.201336 5.16452 -0.0974035 5.72391 0.0306276C 5.72391 0.115982 5.76694 0.158659 5.76694 0.244013Z"/>
<path id="path22_fill" d="M 3.1646 -3.256e-07C 3.25066 0.0426767 3.33672 0.085354 3.42278 0.085354C 4.11125 0.256062 5.10093 0.213385 5.0579 1.15228C 5.01487 2.13385 4.02519 2.0485 3.25066 2.09117C 2.30401 2.17653 1.48645 1.87779 0.668892 1.45102C 0.324656 1.28031 -0.105639 0.981571 0.0234491 0.554801C 0.109508 0.12803 0.582832 0.256062 0.927068 0.170708C 1.22828 0.128031 1.52948 0.0853537 1.87372 -3.256e-07C 2.26098 0.170708 2.73431 0.170708 3.1646 -3.256e-07Z"/>
<path id="path23_fill" d="M 1.33391 0.378918C 0.903619 0.549626 0.430295 0.549627 -6.56578e-07 0.421596C 0.430295 -0.133205 0.860589 -0.133206 1.33391 0.378918Z"/>
<path id="path24_fill" d="M 0.0430298 0.483673C 0.0430298 0.398319 -6.56578e-07 0.312964 -6.56578e-07 0.22761C 0.0860584 0.0569024 0.258177 -0.113805 0.387266 0.0995797C 0.559384 0.440996 0.258177 0.440996 0.0430298 0.483673Z"/>
<path id="path25_fill" d="M 2.79655 -3.256e-07C 3.61411 0.0853537 4.30259 0.341416 4.56076 1.15228C 4.64682 1.45102 5.16317 1.92047 4.51773 2.17653C 4.04441 2.34724 3.44199 2.68865 3.05473 2.09117C 2.83958 1.70708 2.62443 1.32299 2.15111 1.53637C 1.59172 1.79243 1.93596 2.30456 2.02202 2.68865C 2.23717 3.45684 2.45231 4.22502 2.66746 4.99321C 2.75352 5.29195 2.96867 5.41998 3.26988 5.41998C 3.57108 5.41998 3.82926 5.29195 3.78623 4.95053C 3.65714 4.01164 4.34561 4.09699 4.905 4.05432C 5.55044 4.01164 5.55044 4.60912 5.6365 4.99321C 5.76559 5.67604 5.42135 6.23084 4.81894 6.52958C 2.62443 7.51115 1.33355 6.871 0.731134 4.56644C 0.559016 3.88361 0.343869 3.20078 0.171751 2.51794C -0.258545 0.981572 0.0856913 0.469447 1.59172 0.213385C 1.97899 0.128031 2.36626 0.0426767 2.79655 -3.256e-07Z"/>
</defs>
</svg>
