<svg class="bg" width="856" height="867" viewBox="0 0 856 867" fill="none" xmlns="http://www.w3.org/2000/svg">
  <mask id="mask0" mask-type="alpha" maskUnits="userSpaceOnUse" x="0" y="0" width="840" height="847">
  <rect x="-0.5" y="0.5" width="839" height="846" rx="19.5" transform="matrix(-1 0 0 1 839 0)" fill="white" stroke="#E8E8E8"/>
  </mask>
  <g mask="url(#mask0)">
  <path d="M651.859 804.692C610.674 857.294 586.412 926.216 587.011 991.35C587.76 1064.93 626.249 1142.45 681.663 1191.85C709.519 1216.77 744.265 1235.42 782.455 1238.48C833.974 1242.7 869.469 1220.41 916.046 1202.34C924.882 1198.99 933.718 1195.93 943.004 1193.74C1002.76 1179.9 1063.86 1203.94 1124.07 1215.31C1146.24 1219.54 1169.45 1221.87 1191.02 1215.6C1213.48 1209.04 1232.5 1193.45 1245.98 1174.66C1267.85 1144.35 1276.53 1106.61 1276.98 1069.6C1277.58 1026.17 1263.8 984.647 1263.8 941.662C1263.8 896.199 1262.9 850.737 1261.26 805.42C1258.11 715.807 1251.37 626.34 1239.09 537.455C1237.89 529.003 1236.39 520.115 1230.55 513.849C1225.46 508.458 1217.97 505.981 1210.78 503.941C1144.44 483.687 1075.4 472.758 1005.76 469.553C939.26 466.493 858.236 458.916 801.775 501.172C787.098 512.101 775.266 527.546 771.522 545.323C766.58 569.366 777.962 589.62 783.803 612.205C789.494 634.354 787.996 658.105 778.262 678.942C756.845 725.133 707.273 745.97 672.827 780.795C665.488 788.081 658.449 796.24 651.859 804.692Z" fill="url(#paint0_linear)"/>
  </g>
  <defs>
  <linearGradient id="paint0_linear" x1="679.08" y1="1150.94" x2="1126.19" y2="541.37" gradientUnits="userSpaceOnUse">
  <stop stop-color="#D5806E"/>
  <stop offset="1" stop-color="#F7455E"/>
  </linearGradient>
  </defs>
</svg>
