<svg width="1101" height="1152" viewBox="0 0 1101 1152" fill="none" xmlns="http://www.w3.org/2000/svg">
<path d="M122.199 522.453C44.6028 621.593 -1.10824 751.492 0.0204239 874.25C1.43126 1012.94 73.9482 1159.04 178.35 1252.14C230.833 1299.1 296.296 1334.25 368.248 1340.02C465.314 1347.98 532.188 1305.96 619.942 1271.91C636.589 1265.59 653.237 1259.83 670.732 1255.71C783.316 1229.62 898.44 1274.93 1011.87 1296.35C1053.63 1304.32 1097.37 1308.71 1138 1296.9C1180.33 1284.54 1216.16 1255.16 1241.56 1219.73C1282.75 1162.61 1299.12 1091.48 1299.96 1021.72C1301.09 939.885 1275.13 861.617 1275.13 780.602C1275.13 694.918 1273.44 609.235 1270.34 523.826C1264.41 354.93 1251.71 186.31 1228.58 18.7872C1226.32 2.85889 1223.5 -13.8933 1212.49 -25.7023C1202.9 -35.8635 1188.79 -40.5321 1175.25 -44.3769C1050.25 -82.55 920.167 -103.147 788.96 -109.189C663.677 -114.956 511.025 -129.237 404.648 -49.5948C376.996 -28.9978 354.704 0.112625 347.65 33.6171C338.339 78.9305 359.783 117.104 370.788 159.671C381.51 201.414 378.689 246.178 360.348 285.45C319.998 372.507 226.601 411.778 161.702 477.414C147.876 491.145 134.614 506.524 122.199 522.453Z" fill="#CE818C"/>
<path d="M122.199 522.453C44.6028 621.593 -1.10824 751.492 0.0204239 874.25C1.43126 1012.94 73.9482 1159.04 178.35 1252.14C230.833 1299.1 296.296 1334.25 368.248 1340.02C465.314 1347.98 532.188 1305.96 619.942 1271.91C636.589 1265.59 653.237 1259.83 670.732 1255.71C783.316 1229.62 898.44 1274.93 1011.87 1296.35C1053.63 1304.32 1097.37 1308.71 1138 1296.9C1180.33 1284.54 1216.16 1255.16 1241.56 1219.73C1282.75 1162.61 1299.12 1091.48 1299.96 1021.72C1301.09 939.885 1275.13 861.617 1275.13 780.602C1275.13 694.918 1273.44 609.235 1270.34 523.826C1264.41 354.93 1251.71 186.31 1228.58 18.7872C1226.32 2.85889 1223.5 -13.8933 1212.49 -25.7023C1202.9 -35.8635 1188.79 -40.5321 1175.25 -44.3769C1050.25 -82.55 920.167 -103.147 788.96 -109.189C663.677 -114.956 511.025 -129.237 404.648 -49.5948C376.996 -28.9978 354.704 0.112625 347.65 33.6171C338.339 78.9305 359.783 117.104 370.788 159.671C381.51 201.414 378.689 246.178 360.348 285.45C319.998 372.507 226.601 411.778 161.702 477.414C147.876 491.145 134.614 506.524 122.199 522.453Z" fill="url(#paint0_linear)"/>
<path d="M122.199 522.453C44.6028 621.593 -1.10824 751.492 0.0204239 874.25C1.43126 1012.94 73.9482 1159.04 178.35 1252.14C230.833 1299.1 296.296 1334.25 368.248 1340.02C465.314 1347.98 532.188 1305.96 619.942 1271.91C636.589 1265.59 653.237 1259.83 670.732 1255.71C783.316 1229.62 898.44 1274.93 1011.87 1296.35C1053.63 1304.32 1097.37 1308.71 1138 1296.9C1180.33 1284.54 1216.16 1255.16 1241.56 1219.73C1282.75 1162.61 1299.12 1091.48 1299.96 1021.72C1301.09 939.885 1275.13 861.617 1275.13 780.602C1275.13 694.918 1273.44 609.235 1270.34 523.826C1264.41 354.93 1251.71 186.31 1228.58 18.7872C1226.32 2.85889 1223.5 -13.8933 1212.49 -25.7023C1202.9 -35.8635 1188.79 -40.5321 1175.25 -44.3769C1050.25 -82.55 920.167 -103.147 788.96 -109.189C663.677 -114.956 511.025 -129.237 404.648 -49.5948C376.996 -28.9978 354.704 0.112625 347.65 33.6171C338.339 78.9305 359.783 117.104 370.788 159.671C381.51 201.414 378.689 246.178 360.348 285.45C319.998 372.507 226.601 411.778 161.702 477.414C147.876 491.145 134.614 506.524 122.199 522.453Z" fill="url(#paint1_linear)"/>
<defs>
<linearGradient id="paint0_linear" x1="173.485" y1="1175.04" x2="1016.25" y2="26.4464" gradientUnits="userSpaceOnUse">
<stop stop-color="#CE818C"/>
<stop offset="1" stop-color="#DF3C53"/>
</linearGradient>
<linearGradient id="paint1_linear" x1="173.485" y1="1175.04" x2="1016.25" y2="26.4465" gradientUnits="userSpaceOnUse">
<stop stop-color="#FFA183"/>
<stop offset="1" stop-color="#F7455E"/>
</linearGradient>
</defs>
</svg>
