<svg width="57" height="20" viewBox="0 0 57 20" fill="none" xmlns="http://www.w3.org/2000/svg">
<path d="M4.88574 4.88563H6.87622L5.88098 2.35229L4.88574 4.88563Z" fill="#2FABF7"/>
<path d="M29.5856 2.71425C29.4046 2.62378 29.1332 2.62378 28.8618 2.62378H27.0522V4.0714H28.8618C29.1332 4.0714 29.4046 4.0714 29.5856 3.98092C29.7665 3.89044 29.857 3.61902 29.857 3.34759C29.9475 2.98568 29.7665 2.80473 29.5856 2.71425Z" fill="#228FE0"/>
<path d="M48.9476 0V1.08572L48.4048 0H44.1524V1.08572L43.6096 0H37.8191C36.8238 0 36.0095 0.180953 35.2857 0.542858V0H31.2143V0.542858C30.7619 0.180953 30.2191 0 29.4953 0H14.9286L13.9333 2.26191L12.9381 0H8.32381V1.08572L7.78096 0H3.89048L2.08095 4.25238L0 8.95715H2.08095H4.61429L5.15715 7.50953H6.42381L6.96667 8.95715H12.2143V7.87143L12.6667 8.95715H15.2905L15.7429 7.87143V8.95715H28.3191V6.60477H28.5C28.681 6.60477 28.681 6.60477 28.681 6.87619V8.86667H35.1953V8.32381C35.7381 8.59524 36.5524 8.86667 37.6381 8.86667H40.3524L40.8953 7.41905H42.1619L42.7048 8.86667H47.9524V7.50953L48.7667 8.86667H53.0191V0H48.9476ZM18.3667 7.6H16.8286V2.62381L14.6572 7.6H13.3L11.1286 2.62381V7.6H8.05239L7.41905 6.24286H4.34286L3.8 7.69048H2.08095L4.79524 1.26667H7.05715L9.59048 7.32858V1.26667H12.0333L14.0238 5.60953L15.8333 1.26667H18.3667V7.6ZM24.5191 2.62381H20.9905V3.8H24.4286V5.06667H20.9905V6.33334H24.5191V7.69048H19.4524V1.26667H24.5191V2.62381ZM31.3048 5.24762C31.4857 5.60953 31.5762 5.88096 31.5762 6.42381V7.69048H30.0381V6.87619C30.0381 6.51429 30.0381 5.97143 29.7667 5.60953C29.4953 5.3381 29.2238 5.3381 28.681 5.3381H27.0524V7.69048H25.5143V1.26667H28.9524C29.7667 1.26667 30.3095 1.26667 30.7619 1.5381C31.2143 1.80953 31.4857 2.26191 31.4857 2.98572C31.4857 3.98096 30.8524 4.52381 30.4 4.70476C30.8524 4.79524 31.1238 5.06667 31.3048 5.24762ZM34.0191 7.6H32.481V1.17619H34.0191V7.6ZM51.8429 7.6H49.6715L46.7762 2.80476V7.6H43.7L43.1572 6.24286H39.9905L39.4476 7.69048H37.7286C37.0048 7.69048 36.1 7.50953 35.5572 6.96667C35.0143 6.42381 34.7429 5.7 34.7429 4.52381C34.7429 3.61905 34.9238 2.71429 35.5572 1.99048C36.0095 1.44762 36.8238 1.26667 37.8191 1.26667H39.2667V2.62381H37.8191C37.2762 2.62381 37.0048 2.71429 36.6429 2.98572C36.3715 3.25715 36.1905 3.8 36.1905 4.43334C36.1905 5.15715 36.281 5.60953 36.6429 5.97143C36.9143 6.24286 37.2762 6.33334 37.7286 6.33334H38.3619L40.4429 1.35714H42.7048L45.2381 7.41905V1.35714H47.5L50.1238 5.79048V1.35714H51.6619V7.6H51.8429Z" fill="#0571C1"/>
<path d="M40.5332 4.88563H42.6142L41.6189 2.35229L40.5332 4.88563Z" fill="#228FE0"/>
<path d="M25.1522 17.9142V12.7571L22.7998 15.2904L25.1522 17.9142Z" fill="#228FE0"/>
<path d="M15.4712 13.3904V14.5666H18.8188V15.8332H15.4712V17.1904H19.1807L20.8998 15.2904L19.2712 13.3904H15.4712Z" fill="#2FABF7"/>
<path d="M28.5904 13.3904H26.6904V15.019H28.6809C29.2238 15.019 29.5857 14.7475 29.5857 14.2047C29.4952 13.6618 29.1333 13.3904 28.5904 13.3904Z" fill="#228FE0"/>
<path d="M56.5476 14.9286V10.8572H55.4619H52.7476C51.9333 10.8572 51.3 11.0381 50.8476 11.4V10.8572H46.6857C46.0524 10.8572 45.2381 11.0381 44.8762 11.4V10.8572H37.5476V11.4C37.0048 10.9477 36.0095 10.8572 35.5571 10.8572H30.6714V11.4C30.219 10.9477 29.1333 10.8572 28.5905 10.8572H23.1619L21.8952 12.2143L20.719 10.8572H12.5762V19.7238H20.5381L21.8047 18.3667L22.9809 19.7238H27.8667V17.6429H28.5C29.1333 17.6429 29.9476 17.6429 30.5809 17.3715V19.8143H34.6524V17.4619H34.8333C35.1048 17.4619 35.1048 17.4619 35.1048 17.7334V19.8143H47.4095C48.2238 19.8143 49.0381 19.6334 49.4905 19.2715V19.8143H53.381C54.1952 19.8143 55.0095 19.7238 55.5524 19.3619C56.4571 18.8191 57 17.8238 57 16.6477C57 16.0143 56.8191 15.381 56.5476 14.9286ZM28.5 16.3762H26.6905V18.5477H23.7952L21.9857 16.4667L20.0857 18.5477H14.1143V12.1238H20.1762L21.9857 14.2048L23.8857 12.1238H28.6809C29.8571 12.1238 31.2143 12.4858 31.2143 14.2048C31.1238 16.0143 29.8571 16.3762 28.5 16.3762ZM37.5476 16.0143C37.7286 16.2858 37.819 16.6477 37.819 17.1905V18.4572H36.2809V17.6429C36.2809 17.281 36.2809 16.6477 36.0095 16.3762C35.8286 16.1048 35.4667 16.1048 34.9238 16.1048H33.2952V18.4572H31.7571V12.0334H35.1952C35.919 12.0334 36.5524 12.0334 37.0048 12.3048C37.4571 12.5762 37.819 13.0286 37.819 13.7524C37.819 14.7477 37.1857 15.2905 36.7333 15.4715C37.1857 15.6524 37.4571 15.8334 37.5476 16.0143ZM43.7905 13.3905H40.2619V14.5667H43.7V15.8334H40.2619V17.1H43.7905V18.4572H38.7238V12.0334H43.7905V13.3905ZM47.5905 18.4572H44.6952V17.1H47.5905C47.8619 17.1 48.0429 17.1 48.2238 16.9191C48.3143 16.8286 48.4048 16.6477 48.4048 16.4667C48.4048 16.2858 48.3143 16.1048 48.2238 16.0143C48.1333 15.9238 47.9524 15.8334 47.681 15.8334C46.2333 15.7429 44.5143 15.8334 44.5143 13.8429C44.5143 12.9381 45.0571 11.9429 46.6857 11.9429H49.6714V13.481H46.8667C46.5952 13.481 46.4143 13.481 46.2333 13.5715C46.0524 13.6619 46.0524 13.8429 46.0524 14.0238C46.0524 14.2953 46.2333 14.3858 46.4143 14.4762C46.5952 14.5667 46.7762 14.5667 46.9571 14.5667H47.7714C48.5857 14.5667 49.1286 14.7477 49.4905 15.1096C49.7619 15.381 49.9429 15.8334 49.9429 16.4667C49.9429 17.8238 49.1286 18.4572 47.5905 18.4572ZM55.3714 17.8238C55.0095 18.1858 54.3762 18.4572 53.4714 18.4572H50.5762V17.1H53.4714C53.7429 17.1 53.9238 17.1 54.1048 16.9191C54.1952 16.8286 54.2857 16.6477 54.2857 16.4667C54.2857 16.2858 54.1952 16.1048 54.1048 16.0143C54.0143 15.9238 53.8333 15.8334 53.5619 15.8334C52.1143 15.7429 50.3952 15.8334 50.3952 13.8429C50.3952 12.9381 50.9381 11.9429 52.5667 11.9429H55.5524V13.481H52.8381C52.5667 13.481 52.3857 13.481 52.2048 13.5715C52.0238 13.6619 52.0238 13.8429 52.0238 14.0238C52.0238 14.2953 52.1143 14.3858 52.3857 14.4762C52.5667 14.5667 52.7476 14.5667 52.9286 14.5667H53.7429C54.5571 14.5667 55.1 14.7477 55.4619 15.1096C55.5524 15.1096 55.5524 15.2 55.5524 15.2C55.8238 15.5619 55.9143 16.0143 55.9143 16.4667C55.9143 17.0096 55.7333 17.4619 55.3714 17.8238Z" fill="#0571C1"/>
<path d="M35.9191 13.5714C35.7381 13.481 35.4667 13.481 35.1953 13.481H33.3857V14.9286H35.1953C35.4667 14.9286 35.7381 14.9286 35.9191 14.8381C36.1 14.7476 36.1905 14.4762 36.1905 14.2048C36.281 13.8429 36.1 13.6619 35.9191 13.5714Z" fill="#228FE0"/>
<path d="M29.5856 2.71425C29.4046 2.62378 29.1332 2.62378 28.8618 2.62378H27.0522V4.0714H28.8618C29.1332 4.0714 29.4046 4.0714 29.5856 3.98092C29.7665 3.89045 29.857 3.61902 29.857 3.34759C29.9475 2.98568 29.7665 2.80473 29.5856 2.71425Z" fill="#228FE0"/>
<path d="M40.5332 4.88563H42.6142L41.6189 2.35229L40.5332 4.88563Z" fill="#228FE0"/>
<path d="M25.1522 17.9142V12.7571L22.7998 15.2904L25.1522 17.9142Z" fill="#228FE0"/>
<path d="M28.5904 13.3904H26.6904V15.019H28.6809C29.2238 15.019 29.5857 14.7475 29.5857 14.2047C29.4952 13.6618 29.1333 13.3904 28.5904 13.3904Z" fill="#228FE0"/>
<path d="M35.9191 13.5714C35.7381 13.481 35.4667 13.481 35.1953 13.481H33.3857V14.9286H35.1953C35.4667 14.9286 35.7381 14.9286 35.9191 14.8381C36.1 14.7476 36.1905 14.4762 36.1905 14.2048C36.281 13.8429 36.1 13.6619 35.9191 13.5714Z" fill="#228FE0"/>
<path d="M27.9571 18.276L26.6905 16.9188V18.4569H23.7048L21.8952 16.376L19.9047 18.4569H13.9333V12.1236H19.9952L21.8952 14.2046L22.8 13.1188L20.5381 10.8569H12.5762V19.7236H20.5381L21.8952 18.3665L23.0714 19.7236H27.9571V18.276Z" fill="#2FABF7"/>
<path d="M18.5476 8.86667L17.3714 7.60001H16.8286V7.05715L15.4714 5.7L14.5667 7.60001H13.3L11.1286 2.62381V7.60001H8.05239L7.41905 6.24286H4.34286L3.70953 7.60001H2.08095L4.79524 1.26667H7.05715L9.59048 7.32858V1.26667H10.9476L9.68096 0H8.32381V1.08572L7.87143 0H3.89048L2.08095 4.25238L0 8.86667H2.08095H4.70476L5.24762 7.50953H6.51429L7.14762 8.86667H12.2143V7.78096L12.6667 8.86667H15.2905L15.7429 7.78096V8.86667H18.5476Z" fill="#2FABF7"/>
<path d="M14.3856 4.7047L12.938 3.25708L14.0237 5.60946L14.3856 4.7047Z" fill="#2FABF7"/>
<path d="M55.5527 19.2714C56.367 18.7286 56.9098 17.8238 57.0003 16.8286L55.7337 15.5619C55.8241 15.8333 55.9146 16.1047 55.9146 16.4666C55.9146 17.0095 55.7337 17.4619 55.3718 17.8238C55.0098 18.1857 54.3765 18.4571 53.4718 18.4571H50.5765V17.1H53.4718C53.7432 17.1 53.9241 17.1 54.1051 16.919C54.1956 16.8286 54.286 16.6476 54.286 16.4666C54.286 16.2857 54.1956 16.1047 54.1051 16.0143C54.0146 15.9238 53.8337 15.8333 53.5622 15.8333C52.1146 15.7428 50.3956 15.8333 50.3956 13.8428C50.3956 12.9381 50.9384 12.1238 52.2956 11.9428L51.3003 10.9476C51.1194 11.0381 51.0289 11.1285 50.9384 11.1285V10.5857H46.7765C46.1432 10.5857 45.3289 10.7666 44.967 11.1285V10.5857H37.5479V11.1285C37.0051 10.6762 36.0098 10.5857 35.5575 10.5857H30.6717V11.1285C30.2194 10.6762 29.1336 10.5857 28.5908 10.5857H23.1622L21.8956 11.9428L20.7194 10.5857H19.7241L22.4384 13.3L23.7956 11.8524H28.5908C29.767 11.8524 31.1241 12.2143 31.1241 13.9333C31.1241 15.7428 29.8575 16.1047 28.5003 16.1047H26.6908V17.4619L28.0479 18.819V17.4619H28.5003C29.1336 17.4619 29.9479 17.4619 30.5813 17.1905V19.6333H34.6527V17.2809H34.8337C35.1051 17.2809 35.1051 17.2809 35.1051 17.5524V19.6333H47.4098C48.2241 19.6333 49.0384 19.4524 49.4908 19.0905V19.6333H53.3813C54.1051 19.7238 54.9194 19.6333 55.5527 19.2714ZM37.5479 16.0143C37.7289 16.2857 37.8194 16.6476 37.8194 17.1905V18.4571H36.2813V17.6428C36.2813 17.2809 36.2813 16.6476 36.0098 16.3762C35.8289 16.1047 35.467 16.1047 34.9241 16.1047H33.2956V18.4571H31.7575V12.0333H35.1956C35.9194 12.0333 36.5527 12.0333 37.0051 12.3047C37.4575 12.5762 37.8194 13.0286 37.8194 13.7524C37.8194 14.7476 37.186 15.2905 36.7336 15.4714C37.186 15.6524 37.4575 15.8333 37.5479 16.0143ZM43.7908 13.3905H40.2622V14.5666H43.7003V15.8333H40.2622V17.1H43.7908V18.4571H38.7241V12.0333H43.7908V13.3905ZM47.5908 18.4571H44.6956V17.1H47.5908C47.8622 17.1 48.0432 17.1 48.2241 16.919C48.3146 16.8286 48.4051 16.6476 48.4051 16.4666C48.4051 16.2857 48.3146 16.1047 48.2241 16.0143C48.1337 15.9238 47.9527 15.8333 47.6813 15.8333C46.2337 15.7428 44.5146 15.8333 44.5146 13.8428C44.5146 12.9381 45.0575 11.9428 46.686 11.9428H49.6718V13.4809H46.867C46.5956 13.4809 46.4146 13.4809 46.2337 13.5714C46.0527 13.6619 46.0527 13.8428 46.0527 14.0238C46.0527 14.2952 46.2337 14.3857 46.4146 14.4762C46.5956 14.5666 46.7765 14.5666 46.9575 14.5666H47.7717C48.586 14.5666 49.1289 14.7476 49.4908 15.1095C49.7622 15.3809 49.9432 15.8333 49.9432 16.4666C49.9432 17.8238 49.1289 18.4571 47.5908 18.4571Z" fill="#228FE0"/>
<path d="M51.9336 14.0241C51.9336 14.2955 52.0241 14.386 52.2955 14.4764C52.4764 14.5669 52.6574 14.5669 52.8384 14.5669H53.6526C54.1955 14.5669 54.5574 14.6574 54.9193 14.8383L53.5622 13.4812H52.7479C52.4764 13.4812 52.2955 13.4812 52.1145 13.5717C52.0241 13.6622 51.9336 13.8431 51.9336 14.0241Z" fill="#228FE0"/>
<path d="M48.7666 8.59546L48.9475 8.86689H49.038L48.7666 8.59546Z" fill="#228FE0"/>
<path d="M43.7905 3.61914L45.3286 7.32867V5.15724L43.7905 3.61914Z" fill="#228FE0"/>
<path d="M28.3189 6.60487H28.4999C28.6809 6.60487 28.6809 6.60487 28.6809 6.87629V8.86677H35.1951V8.32392C35.738 8.59534 36.5523 8.86677 37.638 8.86677H40.3523L40.8951 7.41915H42.1618L42.7047 8.86677H47.9523V7.96201L46.6856 6.69534V7.69058H43.6094L43.157 6.24296H39.9904L39.4475 7.69058H37.7285C37.0047 7.69058 36.0999 7.50963 35.557 6.96677C35.0142 6.42391 34.7428 5.7001 34.7428 4.52391C34.7428 3.61915 34.9237 2.71439 35.557 1.99058C36.0094 1.44772 36.8237 1.26677 37.8189 1.26677H39.2666V2.62391H37.8189C37.2761 2.62391 37.0047 2.71439 36.6428 2.98582C36.3713 3.25725 36.1904 3.8001 36.1904 4.43344C36.1904 5.15725 36.2809 5.60963 36.6428 5.97153C36.9142 6.24296 37.2761 6.33344 37.7285 6.33344H38.3618L40.4428 1.35724H41.3475L40.0809 0.0905762H37.7285C36.7332 0.0905762 35.919 0.271529 35.1951 0.633434V0.0905762H31.2142V0.633434C30.7618 0.271529 30.2189 0.0905762 29.4951 0.0905762H14.9285L13.9332 2.35248L12.938 0.0905762H8.95703L10.2237 1.35724H12.0332L13.5713 4.70487L14.1142 5.24772L15.7427 1.26677H18.2761V7.69058H16.738V2.71439L15.1999 6.33344L17.8237 8.95725H28.2285L28.3189 6.60487ZM32.4809 1.26677H34.0189V7.69058H32.4809V1.26677ZM24.5189 2.62391H20.9904V3.8001H24.4285V5.06677H20.9904V6.33344H24.5189V7.69058H19.4523V1.26677H24.5189V2.62391ZM27.0523 7.60011H25.5142V1.17629H28.9523C29.7666 1.17629 30.3094 1.17629 30.7618 1.44772C31.2142 1.71915 31.4856 2.17153 31.4856 2.89534C31.4856 3.89058 30.8523 4.43344 30.3999 4.61439C30.7618 4.70486 31.0332 4.97629 31.1237 5.15725C31.3047 5.51915 31.3951 5.79058 31.3951 6.33344V7.60011H29.857V6.78582C29.857 6.42391 29.857 5.88106 29.5856 5.51915C29.4951 5.3382 29.2237 5.3382 28.6809 5.3382H27.0523V7.60011Z" fill="#228FE0"/>
</svg>
