<svg width="81" height="17" viewBox="0 0 81 17" fill="none" xmlns="http://www.w3.org/2000/svg">
<path d="M25.823 7.71023C25.823 8.6281 26.4655 8.71989 27.108 8.71989C29.6781 8.71989 30.5959 6.79235 30.5959 4.9566C30.5959 2.66191 29.1273 1.10153 26.8327 1.10153C26.3737 1.10153 26.0984 1.10152 25.9148 1.19331V7.71023H25.823ZM24.6298 2.0194C24.6298 0.917951 24.079 1.00974 23.5283 1.00974V0.734375C23.9872 0.734375 24.4462 0.734375 24.9051 0.734375C25.4558 0.734375 26.0984 0.734375 27.0162 0.734375C30.137 0.734375 31.7892 2.84549 31.7892 4.9566C31.7892 6.14984 31.0549 9.17882 26.8327 9.17882C26.1901 9.17882 25.6394 9.17882 25.0887 9.17882C24.538 9.17882 23.9872 9.17882 23.4365 9.17882V8.90346C24.1708 8.81168 24.538 8.81168 24.538 7.98559V2.0194H24.6298V2.0194Z" fill="#004A97"/>
<path d="M33.6249 1.74402C33.3495 1.74402 33.0741 1.46866 33.0741 1.10151C33.0741 0.826146 33.3495 0.550781 33.6249 0.550781C33.9002 0.550781 34.1756 0.826146 34.1756 1.10151C34.1756 1.46866 33.9002 1.74402 33.6249 1.74402ZM32.3398 8.81166H32.6152C32.9824 8.81166 33.1659 8.81166 33.1659 8.44451V5.14016C33.1659 4.58943 32.9824 4.49765 32.5234 4.31407V4.13049C33.0741 3.94692 33.7167 3.76334 33.8084 3.67156C33.9002 3.57977 33.992 3.57977 33.992 3.57977C34.0838 3.57977 34.0838 3.67156 34.0838 3.76334V8.35272C34.0838 8.71987 34.3592 8.71987 34.7263 8.71987H34.9099V8.99523C34.5427 8.99523 34.0838 8.99523 33.6249 8.99523C33.1659 8.99523 32.7988 8.99523 32.3398 8.99523C32.3398 8.99523 32.3398 8.81166 32.3398 8.81166Z" fill="#004A97"/>
<path d="M36.0116 5.23202C36.0116 4.77308 35.9198 4.68129 35.2773 4.40593V4.22235C35.8281 4.03878 36.287 3.85521 36.8377 3.67163C36.8377 3.67163 36.9295 3.67163 36.9295 3.76342V4.58951C37.572 4.13057 38.2145 3.67163 39.0406 3.67163C40.0503 3.67163 40.4174 4.40593 40.4174 5.32381V8.44458C40.4174 8.81173 40.6928 8.81173 41.0599 8.81173H41.2435V9.08709C40.7846 9.08709 40.4174 9.08709 39.9585 9.08709C39.4996 9.08709 39.1324 9.08709 38.6735 9.08709V8.81173H38.857C39.2242 8.81173 39.4078 8.81173 39.4078 8.44458V5.32381C39.4078 4.68129 38.9488 4.31414 38.3063 4.31414C37.9392 4.31414 37.2967 4.58951 36.9295 4.86487V8.44458C36.9295 8.81173 37.2049 8.81173 37.572 8.81173H37.7556V9.08709C37.2967 9.08709 36.9295 9.08709 36.4706 9.08709C36.0116 9.08709 35.6445 9.08709 35.1855 9.08709V8.81173H35.4609C35.8281 8.81173 36.0116 8.81173 36.0116 8.44458V5.23202Z" fill="#004A97"/>
<path d="M44.2722 5.41559C44.5475 5.41559 44.6393 5.23202 44.6393 5.14023C44.6393 4.49772 44.2722 4.03878 43.6296 4.03878C42.8953 4.03878 42.3446 4.58951 42.2528 5.41559H44.2722ZM42.161 5.78274C42.161 5.87453 42.161 6.0581 42.161 6.51704C42.2528 7.61849 42.9871 8.62816 43.905 8.62816C44.5475 8.62816 45.0982 8.26101 45.5572 7.80207L45.7408 7.98564C45.19 8.71994 44.4557 9.36246 43.5379 9.36246C41.6103 9.36246 41.2432 7.5267 41.2432 6.70062C41.2432 4.31414 42.8036 3.67163 43.6296 3.67163C44.6393 3.67163 45.649 4.31414 45.649 5.59917C45.649 5.69095 45.649 5.78274 45.649 5.78274H45.5572H42.161Z" fill="#004A97"/>
<path d="M45.9243 8.81173H46.2914C46.6586 8.81173 46.8422 8.81173 46.8422 8.44458V5.04844C46.8422 4.68129 46.3832 4.58951 46.1997 4.49772V4.31414C47.1175 3.94699 47.5765 3.67163 47.6683 3.67163C47.76 3.67163 47.76 3.67163 47.76 3.85521V4.95666C48.0354 4.49772 48.5861 3.76342 49.3204 3.76342C49.5958 3.76342 49.9629 3.94699 49.9629 4.40593C49.9629 4.77308 49.7794 5.04844 49.4122 5.04844C49.0451 5.04844 49.0451 4.77308 48.5861 4.77308C48.4026 4.77308 47.6683 5.04844 47.6683 5.78274V8.62816C47.6683 8.99531 47.9436 8.9953 48.219 8.9953H48.8615V9.27067C48.219 9.27067 47.6683 9.27067 47.2093 9.27067C46.7504 9.27067 46.1997 9.27067 45.7407 9.27067V8.81173H45.9243Z" fill="#004A97"/>
<path d="M50.6055 7.43466C50.789 8.26075 51.248 8.90326 52.1658 8.90326C52.9001 8.90326 53.1755 8.44432 53.1755 8.07717C53.1755 6.70036 50.5137 7.1593 50.5137 5.13997C50.5137 4.49746 51.0644 3.57959 52.3494 3.57959C52.7166 3.57959 53.2673 3.67138 53.7262 3.94674L53.818 5.13997H53.5426C53.4509 4.40567 52.9919 3.94674 52.2576 3.94674C51.7987 3.94674 51.3397 4.2221 51.3397 4.77283C51.3397 6.14964 54.0934 5.78249 54.0934 7.61824C54.0934 8.44432 53.4509 9.27041 51.9823 9.27041C51.5233 9.27041 50.9726 9.08684 50.5137 8.90326L50.4219 7.52645L50.6055 7.43466Z" fill="#004A97"/>
<path d="M64.9245 2.84547H64.6492C64.4656 1.46866 63.4559 0.917933 62.0791 0.917933C60.7023 0.917933 58.683 1.83581 58.683 4.77301C58.683 7.15948 60.4269 8.90344 62.2627 8.90344C63.4559 8.90344 64.4656 8.07736 64.6492 6.79233L64.9245 6.88412L64.6492 8.62808C64.0984 8.90345 62.8134 9.27059 61.9873 9.27059C59.1419 9.27059 57.3979 7.43484 57.3979 4.77301C57.3979 2.29475 59.6008 0.550781 61.9873 0.550781C62.997 0.550781 63.9149 0.826144 64.8327 1.19329L64.9245 2.84547Z" fill="#004A97"/>
<path d="M65.3833 8.8116H65.5669C65.934 8.8116 66.1176 8.8116 66.1176 8.44445V1.74396C66.1176 0.917876 65.934 0.917876 65.4751 0.826089V0.642513C65.934 0.458938 66.4848 0.275361 66.7601 0.0917861C66.8519 -1.40193e-06 66.9437 0 67.0355 0C67.1273 0 67.1273 0.0917882 67.1273 0.183576V8.53624C67.1273 8.90339 67.4026 8.90339 67.7698 8.90339H67.9533V9.17875C67.5862 9.17875 67.1273 9.17875 66.6683 9.17875C66.2094 9.17875 65.8422 9.17875 65.3833 9.17875V8.8116Z" fill="#004A97"/>
<path d="M73.0937 8.44435C73.0937 8.62792 73.1855 8.62792 73.4609 8.62792C73.6444 8.62792 73.828 8.62792 73.9198 8.62792V8.90328C73.3691 8.99507 72.4512 9.17865 72.1758 9.27043H72.0841V8.26077C71.3498 8.8115 70.799 9.27043 69.9729 9.27043C69.3304 9.27043 68.6879 8.8115 68.6879 7.80183V4.68106C68.6879 4.4057 68.5961 4.03855 67.9536 4.03855V3.85497C68.4126 3.85497 69.3304 3.76318 69.514 3.76318C69.6058 3.76318 69.6058 3.85497 69.6058 4.13033V7.25111C69.6058 7.61826 69.6058 8.62792 70.6155 8.62792C70.9826 8.62792 71.5333 8.35256 72.0841 7.89362V4.68106C72.0841 4.4057 71.5333 4.31391 71.0744 4.22212V4.03855C72.1758 3.94676 72.8184 3.85497 72.9101 3.85497C73.0019 3.85497 73.0019 3.94676 73.0019 4.03855V8.44435H73.0937V8.44435Z" fill="#004A97"/>
<path d="M75.4803 7.71016C75.4803 8.1691 75.9392 8.9034 76.7653 8.9034C78.0504 8.9034 78.6011 7.61837 78.6011 6.60871C78.6011 5.32369 77.5914 4.22223 76.6735 4.22223C76.2146 4.22223 75.8475 4.4976 75.5721 4.77296V7.71016H75.4803ZM75.4803 4.4976C75.9392 4.13045 76.5818 3.67151 77.3161 3.67151C78.6929 3.67151 79.519 4.86475 79.519 6.24156C79.519 7.80195 78.3257 9.36234 76.6735 9.36234C75.7557 9.36234 75.2967 9.08697 75.0214 8.9034L74.6542 9.17876L74.3789 9.08697C74.4706 8.35267 74.5624 7.71016 74.5624 6.97586V1.83576C74.5624 1.00967 74.3789 1.00967 73.9199 0.917886V0.73431C74.3789 0.550735 74.9296 0.367161 75.2049 0.183586C75.2967 0.091799 75.3885 0.0917969 75.4803 0.0917969C75.5721 0.0917969 75.5721 0.183585 75.5721 0.275373V4.4976H75.4803Z" fill="#004A97"/>
<path d="M23.5283 16.0625H23.6201C23.8955 16.0625 24.079 16.0625 24.079 15.6954V12.2993C24.079 11.9321 23.8037 11.9321 23.6201 11.9321H23.5283V11.7485C23.8037 11.7485 24.1708 11.7485 24.538 11.7485C24.9051 11.7485 25.2723 11.7485 25.5476 11.7485V11.9321H25.4559C25.1805 11.9321 24.9969 11.9321 24.9969 12.2993V15.6954C24.9969 16.0625 25.1805 16.0625 25.4559 16.0625H25.5476V16.2461C25.2723 16.2461 24.8133 16.2461 24.538 16.2461C24.2626 16.2461 23.8037 16.2461 23.6201 16.2461V16.0625H23.5283Z" fill="#006AC9"/>
<path d="M25.5476 16.2461V16.0625H25.4559C25.1805 16.0625 24.9051 16.0625 24.9051 15.6954V12.2993C24.9051 11.9321 25.1805 11.9321 25.4559 11.9321H25.5476V11.7485C25.2723 11.7485 24.9051 11.7485 24.538 11.7485C24.2626 11.7485 23.8955 11.7485 23.6201 11.7485V11.9321H23.7119C23.9873 11.9321 24.2626 11.9321 24.2626 12.2993V15.6954C24.2626 16.0625 23.9873 16.0625 23.7119 16.0625H23.6201V16.2461C23.8955 16.2461 24.2626 16.2461 24.538 16.2461C24.8133 16.2461 25.1805 16.2461 25.5476 16.2461ZM25.5476 16.3379C25.2723 16.3379 24.8133 16.3379 24.538 16.3379C24.2626 16.3379 23.8037 16.3379 23.6201 16.3379V16.0625H23.7119C23.9873 16.0625 24.1708 16.0625 24.1708 15.6954V12.2993C24.1708 11.9321 23.9873 11.9321 23.7119 11.9321H23.5283V11.7485C23.8037 11.7485 24.1708 11.7485 24.538 11.7485C24.9051 11.7485 25.2723 11.7485 25.5476 11.7485V11.9321H25.4559C25.1805 11.9321 24.9969 11.9321 24.9969 12.2993V15.6954C24.9969 16.0625 25.1805 16.0625 25.4559 16.0625H25.5476V16.3379V16.3379Z" fill="#006AC9"/>
<path d="M30.0455 14.9611V12.4828C30.0455 11.9321 29.6783 11.8403 29.4947 11.8403H29.3112V11.6567C29.5865 11.6567 29.9537 11.6567 30.229 11.6567C30.5044 11.6567 30.7798 11.6567 31.0551 11.6567V11.8403H30.9633C30.688 11.8403 30.4126 11.9321 30.4126 12.6664V15.6036C30.4126 15.7872 30.4126 16.0625 30.4126 16.2461H30.1372L26.7411 12.4828V15.1447C26.7411 15.6954 26.8329 15.879 27.3836 15.879H27.4754V16.0625C27.2 16.0625 26.9247 16.0625 26.6493 16.0625C26.374 16.0625 26.0986 16.0625 25.7314 16.0625H25.8232C26.2822 16.0625 26.374 15.7872 26.374 15.2364V12.4828C26.374 12.1157 26.0986 11.9321 25.8232 11.9321V11.7485C26.0986 11.7485 26.374 11.7485 26.5575 11.7485C26.7411 11.7485 26.9247 11.7485 27.1083 11.7485L30.0455 14.9611Z" fill="#006AC9"/>
<path d="M30.1372 16.3379H30.3208C30.3208 16.1543 30.3208 15.879 30.3208 15.6954V12.7582C30.3208 11.9321 30.688 11.9321 30.9633 11.9321H31.0551V11.7485C30.7798 11.7485 30.5044 11.7485 30.3208 11.7485C30.0455 11.7485 29.7701 11.7485 29.4029 11.7485V11.9321H29.4947C29.6783 11.9321 30.1372 12.0239 30.1372 12.5746V15.0529L27.2 11.7485C27.0165 11.7485 26.8329 11.7485 26.6493 11.7485C26.374 11.7485 26.1904 11.7485 25.915 11.7485V11.9321H26.0068C26.2822 11.9321 26.6493 12.2075 26.6493 12.5746V15.3282C26.6493 15.879 26.4657 16.1543 26.0068 16.1543H25.915V16.3379C26.1904 16.3379 26.4657 16.3379 26.7411 16.3379C27.0165 16.3379 27.2918 16.3379 27.5672 16.3379V16.1543H27.3836C26.8329 16.1543 26.7411 15.9708 26.7411 15.3282V12.5746L30.1372 16.3379ZM30.4126 16.4297H30.1372L26.8329 12.7582V15.42C26.8329 15.9708 26.9247 16.1543 27.3836 16.1543H27.5672V16.3379C27.2918 16.3379 27.0165 16.3379 26.7411 16.3379C26.4657 16.3379 26.1904 16.3379 25.8232 16.3379V16.0625H25.915C26.374 16.0625 26.4657 15.7872 26.4657 15.2365V12.4828C26.4657 12.1157 26.1904 11.9321 25.915 11.9321H25.7314V11.7485C26.0068 11.7485 26.2822 11.7485 26.4657 11.7485C26.6493 11.7485 26.8329 11.7485 27.1083 11.7485L29.9537 14.9611V12.5746C29.9537 12.0239 29.5865 12.0239 29.4029 12.0239H29.3112V11.8403C29.5865 11.8403 29.9537 11.8403 30.229 11.8403C30.5044 11.8403 30.7798 11.8403 31.0551 11.8403V12.0239H30.9633C30.688 12.0239 30.4126 12.0239 30.4126 12.85V15.7872C30.4126 15.9708 30.4126 16.1543 30.4126 16.4297Z" fill="#006AC9"/>
<path d="M32.0644 12.0239C31.6054 12.0239 31.5136 12.1157 31.4219 12.5746H31.2383C31.2383 12.391 31.3301 12.2074 31.3301 12.0239C31.3301 11.8403 31.3301 11.6567 31.3301 11.4731H31.5136C31.6054 11.6567 31.6972 11.6567 31.8808 11.6567H35.2769C35.4605 11.6567 35.6441 11.6567 35.6441 11.4731H35.8277C35.8277 11.6567 35.7359 11.8403 35.7359 12.0239C35.7359 12.2074 35.7359 12.391 35.7359 12.5746L35.5523 12.6664C35.5523 12.391 35.5523 12.0239 35.0934 12.0239H33.9919V15.5118C33.9919 15.9707 34.1755 16.0625 34.5426 16.0625H34.6344V16.2461C34.3591 16.2461 33.9001 16.2461 33.533 16.2461C33.1658 16.2461 32.7069 16.2461 32.4315 16.2461V16.0625H32.5233C32.8905 16.0625 33.074 16.0625 33.074 15.5118V12.0239H32.0644Z" fill="#006AC9"/>
<path d="M34.6344 16.3379C34.3591 16.3379 33.9001 16.3379 33.533 16.3379C33.1658 16.3379 32.7069 16.3379 32.4315 16.3379V16.0625H32.5233C32.8905 16.0625 33.074 16.0625 33.074 15.5118V12.0239H32.0644H33.1658V15.5118C33.1658 16.0625 32.9822 16.0625 32.6151 16.0625H32.5233V16.2461C32.7987 16.2461 33.2576 16.2461 33.6248 16.2461C33.9001 16.2461 34.3591 16.2461 34.6344 16.3379V16.1543H34.5426C34.2673 16.1543 33.9919 16.0625 33.9919 15.6036V12.1157H35.0934C35.5523 12.1157 35.5523 12.4828 35.6441 12.7582L35.8277 12.6664C35.8277 12.4828 35.8277 12.2993 35.8277 12.1157C35.8277 11.9321 35.8277 11.7485 35.9194 11.6567H35.8277C35.8277 11.8403 35.6441 11.8403 35.4605 11.8403H32.0644C31.8808 11.8403 31.6972 11.8403 31.6972 11.6567H31.4219C31.4219 11.8403 31.4219 12.0239 31.4219 12.2075C31.4219 12.391 31.3301 12.5746 31.3301 12.7582H31.5136C31.6054 12.2993 31.6972 12.1157 32.1562 12.2075C31.6972 12.2075 31.6972 12.2993 31.6054 12.7582H31.2383C31.2383 12.5746 31.3301 12.391 31.3301 12.2075C31.3301 12.0239 31.3301 11.8403 31.3301 11.6567H31.5136C31.5136 11.8403 31.6972 11.8403 31.8808 11.8403H35.2769C35.4605 11.8403 35.5523 11.8403 35.6441 11.6567H35.8277C35.8277 11.8403 35.7359 12.0239 35.7359 12.2075C35.7359 12.391 35.7359 12.5746 35.7359 12.7582H35.4605C35.4605 12.4828 35.4605 12.1157 35.0016 12.1157H33.9919V15.6036C33.9919 16.0625 34.1755 16.1543 34.5426 16.1543H34.7262L34.6344 16.3379Z" fill="#006AC9"/>
<path d="M36.0112 16.0625H36.103C36.3784 16.0625 36.562 16.0625 36.562 15.6954V12.2993C36.562 11.9321 36.2866 11.9321 36.103 11.9321H36.0112V11.7485C36.3784 11.7485 37.1127 11.7485 37.6634 11.7485C38.2141 11.7485 38.8566 11.7485 39.3156 11.7485C39.3156 12.0239 39.3156 12.4828 39.3156 12.7582H39.132C39.132 12.2993 39.0402 12.0239 38.3059 12.0239H37.388V13.7679H38.2141C38.5813 13.7679 38.6731 13.5843 38.7649 13.2171H38.9484C38.9484 13.4925 38.9484 13.7679 38.9484 13.9514C38.9484 14.2268 38.9484 14.4104 38.9484 14.6857H38.7649C38.7649 14.3186 38.6731 14.0432 38.2141 14.0432H37.388V15.6036C37.388 16.0625 37.7552 16.0625 38.2141 16.0625C39.0402 16.0625 39.3156 15.9708 39.5909 15.2365H39.7745C39.6827 15.6036 39.5909 15.9708 39.5909 16.2461C39.132 16.2461 38.3977 16.2461 37.847 16.2461C37.2963 16.2461 36.4702 16.2461 36.103 16.2461V16.0625H36.0112Z" fill="#006AC9"/>
<path d="M39.4992 16.2461C39.5909 15.879 39.5909 15.6036 39.6827 15.2365H39.5909C39.4074 15.9708 39.0402 16.0625 38.2141 16.0625C37.847 16.0625 37.388 16.0625 37.388 15.6036V14.0432H38.2141C38.6731 14.0432 38.6731 14.3186 38.7649 14.6857H38.9484C38.9484 14.4104 38.9484 14.2268 38.9484 13.9514C38.9484 13.6761 38.9484 13.4925 38.9484 13.2171H38.7649C38.7649 13.5843 38.5813 13.7679 38.2141 13.7679H37.388V12.0239H38.3059C38.9484 12.0239 39.132 12.391 39.132 12.7582H39.3156C39.3156 12.5746 39.3156 12.2993 39.3156 12.1157C39.3156 12.0239 39.3156 11.9321 39.3156 11.8403C38.8566 11.8403 38.2141 11.8403 37.6634 11.8403C37.1127 11.8403 36.4702 11.8403 36.103 11.8403V12.0239H36.1948C36.4702 12.0239 36.7455 12.0239 36.7455 12.391V15.7872C36.7455 16.1543 36.4702 16.1543 36.1948 16.1543H36.103V16.3379C36.4702 16.3379 37.2045 16.3379 37.847 16.3379C38.3059 16.2461 39.0402 16.2461 39.4992 16.2461ZM39.4992 16.3379C39.0402 16.3379 38.3059 16.3379 37.7552 16.3379C37.2045 16.3379 36.3784 16.3379 36.0112 16.3379V16.0625H36.103C36.3784 16.0625 36.562 16.0625 36.562 15.6954V12.2993C36.562 12.0239 36.3784 11.9321 36.103 11.9321H36.0112V11.7485C36.3784 11.7485 37.1127 11.7485 37.6634 11.7485C38.2141 11.7485 38.8566 11.7485 39.3156 11.7485C39.3156 11.8403 39.3156 11.9321 39.3156 12.1157C39.3156 12.2993 39.3156 12.5746 39.3156 12.7582L39.132 12.85C39.132 12.391 39.0402 12.1157 38.3977 12.1157H37.4798V13.7679H38.2141C38.5813 13.7679 38.6731 13.5843 38.6731 13.2171H38.8566C38.8566 13.4925 38.8566 13.7679 38.8566 13.9514C38.8566 14.2268 38.8566 14.4104 38.8566 14.6857H38.6731C38.6731 14.3186 38.5813 14.0432 38.2141 14.0432H37.4798V15.5118C37.4798 15.879 37.847 15.879 38.2141 15.879C39.0402 15.879 39.3156 15.879 39.4992 15.1447L39.6827 15.2365C39.6827 15.6036 39.5909 15.9708 39.4992 16.3379Z" fill="#006AC9"/>
<path d="M41.4271 13.9514H41.7025C42.345 13.9514 42.7121 13.6761 42.7121 12.9418C42.7121 12.391 42.345 12.0239 41.7942 12.0239C41.6107 12.0239 41.5189 12.0239 41.4271 12.0239V13.9514V13.9514ZM40.601 12.391C40.601 11.9321 40.3256 11.9321 40.1421 11.9321H40.0503V11.7485C40.2339 11.7485 40.6928 11.7485 41.0599 11.7485C41.4271 11.7485 41.7942 11.7485 42.0696 11.7485C42.8957 11.7485 43.63 11.9321 43.63 12.9418C43.63 13.4925 43.2628 13.8596 42.7121 14.135L43.8136 15.7872C43.9971 16.0625 44.0889 16.1543 44.4561 16.1543V16.3379C44.2725 16.3379 43.9971 16.3379 43.8136 16.3379C43.63 16.3379 43.3546 16.3379 43.1711 16.3379C42.7121 15.6954 42.2532 14.9611 41.7942 14.2268H41.3353V15.6036C41.3353 16.0625 41.6107 16.1543 41.886 16.1543H41.9778V16.3379C41.6107 16.3379 41.2435 16.3379 40.8764 16.3379C40.601 16.3379 40.2339 16.3379 39.9585 16.3379V16.0625H40.0503C40.3256 16.0625 40.5092 15.9708 40.5092 15.6954V12.391H40.601Z" fill="#006AC9"/>
<path d="M41.7943 13.9514C42.4368 13.9514 42.8039 13.7679 42.8039 12.9418C42.8039 12.391 42.4368 12.0239 41.886 12.0239C41.7025 12.0239 41.6107 12.0239 41.5189 12.0239V13.9514H41.7943ZM41.4271 13.9514V11.9321C41.5189 11.9321 41.6107 11.9321 41.7943 11.9321C42.345 11.9321 42.8039 12.2993 42.8039 12.9418C42.8039 13.7679 42.4368 13.9514 41.7943 13.9514H41.4271ZM41.4271 14.135H41.886C42.345 14.8693 42.7121 15.6036 43.2629 16.2461C43.4464 16.2461 43.63 16.2461 43.9054 16.2461C44.0889 16.2461 44.3643 16.2461 44.5479 16.2461V16.0625C44.2725 16.0625 44.0889 15.9708 43.9054 15.6954L42.8039 13.9514C43.3546 13.7679 43.7218 13.4007 43.7218 12.85C43.7218 11.9321 42.9875 11.7485 42.1614 11.7485C41.7943 11.7485 41.5189 11.7485 41.1517 11.7485C40.7846 11.7485 40.4174 11.7485 40.1421 11.7485V11.9321H40.2339C40.4174 11.9321 40.6928 11.9321 40.6928 12.4828V15.7872C40.6928 16.0625 40.4174 16.1543 40.2339 16.1543H40.0503V16.3379C40.3257 16.3379 40.6928 16.3379 40.9682 16.3379C41.3353 16.3379 41.7025 16.3379 42.0696 16.3379V16.1543H41.9778C41.7025 16.1543 41.4271 16.1543 41.4271 15.6036V14.135ZM44.5479 16.3379C44.3643 16.3379 44.0889 16.3379 43.9054 16.3379C43.7218 16.3379 43.5382 16.3379 43.2629 16.3379C42.8039 15.6954 42.345 14.9611 41.886 14.2268H41.5189V15.6036C41.5189 16.0625 41.7025 16.0625 42.0696 16.0625H42.2532V16.2461C41.886 16.2461 41.5189 16.2461 41.1517 16.2461C40.8764 16.2461 40.5092 16.2461 40.2339 16.2461V16.0625H40.3257C40.601 16.0625 40.7846 15.9708 40.7846 15.6954V12.391C40.7846 11.9321 40.5092 11.9321 40.3257 11.9321H40.0503V11.7485C40.2339 11.7485 40.6928 11.7485 41.06 11.7485C41.4271 11.7485 41.7943 11.7485 42.0696 11.7485C42.8957 11.7485 43.63 12.0239 43.63 12.9418C43.63 13.4925 43.2629 13.8596 42.7121 14.135L43.8136 15.7872C43.9972 16.0625 44.0889 16.1543 44.4561 16.1543L44.5479 16.3379Z" fill="#006AC9"/>
<path d="M48.9537 14.9611V12.4828C48.9537 11.9321 48.5865 11.8403 48.4029 11.8403H48.2194V11.6567C48.4947 11.6567 48.8619 11.6567 49.1372 11.6567C49.4126 11.6567 49.688 11.6567 49.9633 11.6567V11.8403H49.8715C49.5962 11.8403 49.3208 11.9321 49.3208 12.6664V15.6036C49.3208 15.7872 49.3208 16.0625 49.3208 16.2461H49.0454L45.6493 12.4828V15.1447C45.6493 15.6954 45.7411 15.879 46.2918 15.879H46.4754V16.0625C46.2 16.0625 45.9247 16.0625 45.6493 16.0625C45.3739 16.0625 45.0986 16.0625 44.7314 16.0625H44.8232C45.2822 16.0625 45.3739 15.7872 45.3739 15.2364V12.4828C45.3739 12.1157 45.0986 11.9321 44.7314 11.9321H44.6396V11.7485C44.915 11.7485 45.0986 11.7485 45.3739 11.7485C45.5575 11.7485 45.7411 11.7485 45.9247 11.7485L48.9537 14.9611Z" fill="#006AC9"/>
<path d="M49.0454 16.3379H49.229C49.229 16.1543 49.229 15.879 49.229 15.6954V12.7582C49.229 11.9321 49.5962 11.9321 49.8715 11.9321H49.9633V11.7485C49.688 11.7485 49.4126 11.7485 49.229 11.7485C48.9537 11.7485 48.6783 11.7485 48.3111 11.7485V11.9321H48.4029C48.5865 11.9321 49.0454 12.0239 49.0454 12.5746V15.0529L46.1082 11.7485C45.9247 11.7485 45.7411 11.7485 45.5575 11.7485C45.2822 11.7485 45.0986 11.7485 44.8232 11.7485V11.9321H44.915C45.1904 11.9321 45.5575 12.2075 45.5575 12.5746V15.3282C45.5575 15.879 45.3739 16.1543 44.915 16.1543H44.8232V16.3379C45.0986 16.3379 45.3739 16.3379 45.6493 16.3379C45.9247 16.3379 46.2 16.3379 46.4754 16.3379V16.1543H46.3836C45.8329 16.1543 45.7411 15.9708 45.7411 15.3282V12.5746L49.0454 16.3379ZM49.3208 16.4297H49.0454L45.7411 12.7582V15.42C45.7411 15.9708 45.8329 16.1543 46.2918 16.1543H46.4754V16.3379C46.2 16.3379 45.9247 16.3379 45.6493 16.3379C45.3739 16.3379 45.0986 16.3379 44.7314 16.3379V16.0625H44.8232C45.2822 16.0625 45.3739 15.7872 45.3739 15.2365V12.4828C45.3739 12.1157 45.0986 11.9321 44.8232 11.9321H44.6396V11.7485C44.915 11.7485 45.1904 11.7485 45.3739 11.7485C45.5575 11.7485 45.7411 11.7485 46.0165 11.7485L48.8619 14.9611V12.5746C48.8619 12.0239 48.4947 12.0239 48.3111 12.0239H48.1276V11.8403C48.4029 11.8403 48.7701 11.8403 49.0454 11.8403C49.3208 11.8403 49.5962 11.8403 49.8715 11.8403V12.0239H49.7797C49.5044 12.0239 49.229 12.0239 49.229 12.85V15.7872C49.3208 15.9708 49.3208 16.1543 49.3208 16.4297Z" fill="#006AC9"/>
<path d="M51.9822 12.4828L51.3397 14.3186H52.5329L51.9822 12.4828ZM51.0643 15.3282C50.9725 15.5118 50.8808 15.6954 50.8808 15.8789C50.8808 16.0625 51.1561 16.0625 51.3397 16.0625H51.4315V16.2461C51.1561 16.2461 50.8808 16.2461 50.6054 16.2461C50.33 16.2461 50.1465 16.2461 49.8711 16.2461V16.0625C50.1465 16.0625 50.33 15.8789 50.4218 15.6036L51.4315 12.5746C51.5233 12.2992 51.6151 12.0239 51.7068 11.7485C51.8904 11.6567 52.1658 11.5649 52.3494 11.4731C52.3494 11.4731 52.3494 11.4731 52.4411 11.4731C52.4411 11.5649 52.4411 11.5649 52.5329 11.6567L53.818 15.1446C53.9097 15.3282 54.0015 15.6036 54.0933 15.7872C54.1851 15.9707 54.2769 16.0625 54.5523 16.0625V16.2461C54.2769 16.2461 54.0015 16.2461 53.6344 16.2461C53.2672 16.2461 52.9919 16.2461 52.6247 16.2461V16.0625H52.7165C52.9001 16.0625 53.0837 16.0625 53.0837 15.8789C53.0837 15.7872 52.9919 15.6036 52.9919 15.42L52.7165 14.6857H51.2479L51.0643 15.3282Z" fill="#006AC9"/>
<path d="M51.4315 14.3186H52.6247L51.9822 12.4828L51.4315 14.3186ZM51.3397 14.3186L51.9822 12.391L52.6247 14.3186H51.3397ZM52.6247 16.2461C52.9919 16.2461 53.2672 16.2461 53.5426 16.2461C53.818 16.2461 54.0933 16.2461 54.4605 16.2461V16.0625C54.2769 16.0625 54.0933 15.9707 54.0015 15.7872C53.9097 15.6954 53.818 15.42 53.818 15.1447L52.6247 11.7485C52.6247 11.6567 52.6247 11.6567 52.5329 11.5649C52.4411 11.6567 52.1658 11.7485 51.9822 11.8403C51.9822 12.1157 51.7986 12.391 51.7068 12.6664L50.6972 15.6954C50.6054 15.9707 50.33 16.1543 50.0547 16.1543V16.3379C50.2382 16.3379 50.5136 16.3379 50.6972 16.3379C50.9725 16.3379 51.2479 16.3379 51.4315 16.3379V16.1543C51.2479 16.1543 50.8808 16.1543 50.8808 15.879C50.8808 15.7872 50.9725 15.6036 51.0643 15.3282L51.2479 14.5939H52.8083L53.0837 15.3282C53.1754 15.5118 53.1754 15.6954 53.1754 15.7872C53.1754 15.9707 52.9001 15.9707 52.7165 15.9707V16.2461H52.6247V16.2461ZM54.5523 16.3379C54.2769 16.3379 54.0015 16.3379 53.6344 16.3379C53.2672 16.3379 52.9919 16.3379 52.6247 16.3379V16.0625H52.7165C52.9001 16.0625 53.0837 16.0625 53.0837 15.879C53.0837 15.7872 52.9919 15.6036 52.9919 15.42L52.7165 14.6857H51.2479L51.0643 15.3282C50.9725 15.5118 50.8808 15.6954 50.8808 15.7872C50.8808 15.9707 51.1561 15.9707 51.3397 15.9707H51.4315V16.1543C51.1561 16.1543 50.8808 16.1543 50.6054 16.1543C50.33 16.1543 50.1465 16.1543 49.8711 16.1543V16.0625C50.1465 16.0625 50.33 15.879 50.4218 15.6954L51.4315 12.6664C51.5233 12.391 51.6151 12.1157 51.7068 11.8403C51.8904 11.7485 52.1658 11.6567 52.2576 11.5649C52.2576 11.5649 52.2576 11.5649 52.3494 11.5649H52.4411C52.4411 11.6567 52.4411 11.6567 52.5329 11.7485L53.818 15.1447C53.9097 15.42 54.0015 15.6036 54.0933 15.7872C54.1851 15.9707 54.2769 16.0625 54.4605 16.0625H54.5523V16.3379Z" fill="#006AC9"/>
<path d="M54.828 12.0239C54.3691 12.0239 54.2773 12.1157 54.1855 12.5746H54.002C54.002 12.391 54.0937 12.2074 54.0937 12.0239C54.0937 11.8403 54.0937 11.6567 54.0937 11.4731H54.2773C54.3691 11.6567 54.4609 11.6567 54.6445 11.6567H58.0406C58.2242 11.6567 58.4078 11.6567 58.4078 11.4731H58.5913C58.5913 11.6567 58.4995 11.8403 58.4995 12.0239C58.4995 12.2074 58.4995 12.391 58.4995 12.5746L58.316 12.6664C58.316 12.391 58.2242 12.0239 57.857 12.0239H56.7556V15.5118C56.7556 15.9707 56.9392 16.0625 57.3063 16.0625H57.3981V16.2461C57.1227 16.2461 56.6638 16.2461 56.2966 16.2461C55.9295 16.2461 55.4706 16.2461 55.1952 16.2461V16.0625H55.287C55.6541 16.0625 55.8377 16.0625 55.8377 15.5118V12.0239H54.828Z" fill="#006AC9"/>
<path d="M57.3976 16.3379C57.1223 16.3379 56.6633 16.3379 56.2962 16.3379C55.929 16.3379 55.4701 16.3379 55.1947 16.3379V16.0625H55.2865C55.6537 16.0625 55.7455 16.0625 55.8372 15.5118V12.0239H54.8276H55.929V15.5118C55.929 16.0625 55.7455 16.0625 55.3783 16.0625H55.2865V16.2461C55.5619 16.2461 56.0208 16.2461 56.388 16.2461C56.6633 16.2461 57.1223 16.2461 57.3976 16.3379V16.1543H57.3058C57.0305 16.1543 56.7551 16.0625 56.7551 15.6036V12.1157H57.8566C58.3155 12.1157 58.3155 12.4828 58.4073 12.7582L58.5909 12.6664C58.5909 12.4828 58.5909 12.2993 58.5909 12.1157C58.5909 11.9321 58.5909 11.7485 58.6827 11.6567H58.5909C58.5909 11.8403 58.4073 11.8403 58.2237 11.8403H54.8276C54.644 11.8403 54.5522 11.8403 54.4604 11.6567H54.3686C54.3686 11.8403 54.3686 12.0239 54.3686 12.2075C54.3686 12.391 54.2769 12.5746 54.2769 12.7582H54.4604C54.5522 12.2993 54.644 12.1157 55.1029 12.2075C54.644 12.2075 54.644 12.2993 54.5522 12.7582H54.2769C54.2769 12.5746 54.3686 12.391 54.3686 12.2075C54.3686 12.0239 54.3686 11.8403 54.3686 11.6567H54.5522C54.5522 11.8403 54.7358 11.8403 54.9194 11.8403H58.3155C58.4991 11.8403 58.5909 11.8403 58.6827 11.6567H58.8662C58.8662 11.8403 58.7744 12.0239 58.7744 12.2075C58.7744 12.391 58.7744 12.5746 58.7744 12.7582L58.4991 12.85C58.4991 12.5746 58.4991 12.2075 58.0401 12.2075H57.0305V15.6954C57.0305 16.1543 57.2141 16.2461 57.5812 16.2461H57.7648L57.3976 16.3379Z" fill="#006AC9"/>
<path d="M58.7749 16.0625C59.1421 16.0625 59.3256 16.0625 59.3256 15.6954V12.2993C59.3256 11.9321 59.0503 11.9321 58.8667 11.9321H58.7749V11.7485C59.0503 11.7485 59.4174 11.7485 59.7846 11.7485C60.1517 11.7485 60.5189 11.7485 60.7942 11.7485V11.9321H60.7024C60.4271 11.9321 60.2435 11.9321 60.2435 12.2993V15.6954C60.2435 16.0625 60.5189 16.0625 60.7024 16.0625H60.7942V16.2461C60.5189 16.2461 60.0599 16.2461 59.7846 16.2461C59.5092 16.2461 59.0503 16.2461 58.8667 16.2461V16.0625H58.7749Z" fill="#006AC9"/>
<path d="M60.7942 16.2461V16.0625H60.7024C60.4271 16.0625 60.1517 16.0625 60.1517 15.6954V12.2993C60.1517 11.9321 60.4271 11.9321 60.7024 11.9321H60.7942V11.7485C60.5189 11.7485 60.1517 11.7485 59.7846 11.7485C59.5092 11.7485 59.1421 11.7485 58.8667 11.7485V11.9321H58.9585C59.2339 11.9321 59.5092 11.9321 59.5092 12.2993V15.6954C59.5092 16.0625 59.2339 16.0625 58.9585 16.0625H58.8667V16.2461C59.1421 16.2461 59.5092 16.2461 59.7846 16.2461C60.0599 16.2461 60.4271 16.2461 60.7942 16.2461ZM60.7942 16.3379C60.5189 16.3379 60.0599 16.3379 59.7846 16.3379C59.5092 16.3379 59.0503 16.3379 58.8667 16.3379V16.0625H58.9585C59.2339 16.0625 59.4174 16.0625 59.4174 15.6954V12.2993C59.4174 12.0239 59.2339 11.9321 58.9585 11.9321H58.8667V11.7485C59.1421 11.7485 59.5092 11.7485 59.8764 11.7485C60.2435 11.7485 60.6107 11.7485 60.886 11.7485V11.9321H60.7942C60.5189 11.9321 60.3353 11.9321 60.3353 12.2993V15.6954C60.3353 15.9708 60.5189 16.0625 60.7942 16.0625H60.886L60.7942 16.3379Z" fill="#006AC9"/>
<path d="M63.5476 16.0625C64.8326 16.0625 65.0162 14.9611 65.0162 13.9514C65.0162 13.0336 64.4655 11.8403 63.4558 11.8403C62.2626 11.8403 61.9872 12.85 61.9872 13.7678C61.8954 14.9611 62.4461 16.0625 63.5476 16.0625ZM63.4558 11.6567C64.8326 11.6567 65.9341 12.4828 65.9341 13.9514C65.9341 15.42 64.8326 16.4297 63.4558 16.4297C62.079 16.4297 60.9775 15.5118 60.9775 14.0432C60.9775 12.6664 62.079 11.6567 63.4558 11.6567Z" fill="#006AC9"/>
<path d="M61.8954 13.7678C61.8954 12.85 62.2626 11.8403 63.4558 11.8403C64.5572 11.8403 65.108 13.0335 65.108 13.9514C65.108 14.8693 64.9244 16.0625 63.5476 16.0625C64.8326 16.0625 65.0162 14.9611 65.0162 14.0432C65.0162 13.1253 64.4655 11.9321 63.4558 11.9321C62.2626 11.9321 61.9872 12.9418 61.8954 13.7678C61.9872 14.9611 62.4461 16.0625 63.5476 16.0625C62.4461 16.1543 61.8954 14.9611 61.8954 13.7678ZM60.9775 14.0432C60.9775 12.6664 62.079 11.5649 63.4558 11.5649C62.079 11.6567 61.0693 12.6664 60.9775 14.0432C61.0693 15.42 62.079 16.3379 63.4558 16.3379C64.8326 16.3379 65.9341 15.3282 65.9341 13.8596C65.9341 12.4828 64.8326 11.6567 63.4558 11.6567C64.8326 11.6567 66.0259 12.5746 66.0259 13.9514C66.0259 15.5118 64.9244 16.5215 63.5476 16.5215C62.079 16.4297 60.9775 15.5118 60.9775 14.0432Z" fill="#006AC9"/>
<path d="M70.3399 14.9611V12.4828C70.3399 11.9321 69.9727 11.8403 69.7892 11.8403H69.6056V11.6567C69.881 11.6567 70.2481 11.6567 70.5235 11.6567C70.7988 11.6567 71.0742 11.6567 71.3496 11.6567V11.8403H71.2578C70.9824 11.8403 70.707 11.9321 70.707 12.6664V15.6036C70.707 15.7872 70.707 16.0625 70.707 16.2461H70.4317L67.0355 12.4828V15.1447C67.0355 15.6954 67.1273 15.879 67.6781 15.879H67.7698V16.0625C67.4945 16.0625 67.2191 16.0625 66.9438 16.0625C66.6684 16.0625 66.393 16.0625 66.0259 16.0625H66.1177C66.5766 16.0625 66.6684 15.7872 66.6684 15.2364V12.4828C66.6684 12.1157 66.393 11.9321 66.1177 11.9321H66.0259V11.7485C66.3012 11.7485 66.4848 11.7485 66.7602 11.7485C66.9438 11.7485 67.1273 11.7485 67.3109 11.7485L70.3399 14.9611Z" fill="#006AC9"/>
<path d="M70.4317 16.3379H70.6153C70.6153 16.1543 70.6153 15.879 70.6153 15.6954V12.7582C70.6153 11.9321 70.9824 11.9321 71.2578 11.9321H71.3496V11.7485C71.0742 11.7485 70.7988 11.7485 70.6153 11.7485C70.3399 11.7485 70.0645 11.7485 69.6974 11.7485V11.9321H69.7892C69.9728 11.9321 70.4317 12.0239 70.4317 12.5746V15.0529L67.4945 11.7485C67.3109 11.7485 67.1273 11.7485 66.9438 11.7485C66.6684 11.7485 66.4848 11.7485 66.2095 11.7485V11.9321H66.3013C66.5766 11.9321 66.9438 12.2075 66.9438 12.5746V15.3282C66.9438 15.879 66.7602 16.1543 66.3013 16.1543H66.2095V16.3379C66.4848 16.3379 66.7602 16.3379 67.0356 16.3379C67.3109 16.3379 67.5863 16.3379 67.8616 16.3379V16.1543H67.7698C67.2191 16.1543 67.1273 15.9708 67.1273 15.3282V12.5746L70.4317 16.3379ZM70.7071 16.4297H70.4317L67.1273 12.7582V15.42C67.1273 15.9708 67.2191 16.1543 67.6781 16.1543H67.8616V16.3379C67.5863 16.3379 67.3109 16.3379 67.0356 16.3379C66.7602 16.3379 66.4848 16.3379 66.1177 16.3379V16.0625H66.2095C66.6684 16.0625 66.7602 15.7872 66.7602 15.2365V12.4828C66.7602 12.1157 66.4848 11.9321 66.2095 11.9321H66.1177V11.7485C66.393 11.7485 66.6684 11.7485 66.852 11.7485C67.0355 11.7485 67.2191 11.7485 67.4945 11.7485L70.3399 14.9611V12.5746C70.3399 12.0239 69.9728 12.0239 69.7892 12.0239H69.6056V11.8403C69.881 11.8403 70.2481 11.8403 70.5235 11.8403C70.7988 11.8403 71.0742 11.8403 71.3496 11.8403V12.0239H71.2578C70.9824 12.0239 70.7071 12.0239 70.7071 12.85V15.7872C70.7071 15.9708 70.7071 16.1543 70.7071 16.4297Z" fill="#006AC9"/>
<path d="M73.3689 12.4828L72.7264 14.3186H74.0114L73.3689 12.4828ZM72.4511 15.3282C72.3593 15.5118 72.2675 15.6954 72.2675 15.8789C72.2675 16.0625 72.5428 16.0625 72.7264 16.0625H72.8182V16.2461C72.5428 16.2461 72.2675 16.2461 71.9921 16.2461C71.7168 16.2461 71.5332 16.2461 71.2578 16.2461V16.0625C71.5332 16.0625 71.7168 15.8789 71.8085 15.6036L72.8182 12.5746C72.91 12.2992 73.0018 12.0239 73.0936 11.7485C73.2771 11.6567 73.5525 11.5649 73.7361 11.4731C73.7361 11.4731 73.7361 11.4731 73.8279 11.4731C73.8279 11.5649 73.8279 11.5649 73.9197 11.6567L75.1129 15.0529C75.2047 15.2364 75.2965 15.5118 75.3882 15.6954C75.48 16.0625 75.6636 16.0625 75.8472 16.0625V16.2461C75.5718 16.2461 75.2965 16.2461 74.9293 16.2461C74.6539 16.2461 74.2868 16.2461 73.9197 16.2461V16.0625H74.0114C74.195 16.0625 74.3786 16.0625 74.3786 15.8789C74.3786 15.7872 74.2868 15.6036 74.2868 15.42L74.0114 14.6857H72.5428L72.4511 15.3282Z" fill="#006AC9"/>
<path d="M72.8182 14.3186H73.9197L73.3689 12.5746L72.8182 14.3186ZM72.7264 14.3186L73.3689 12.391L74.0114 14.3186H72.7264ZM74.0114 16.2461C74.3786 16.2461 74.6539 16.2461 74.9293 16.2461C75.2047 16.2461 75.48 16.2461 75.8472 16.2461V16.0625C75.6636 16.0625 75.48 15.9707 75.3882 15.7872C75.2965 15.6036 75.2047 15.3282 75.1129 15.1447L73.9197 11.7485C73.9197 11.6567 73.9197 11.6567 73.8279 11.5649C73.7361 11.6567 73.4607 11.7485 73.2771 11.8403C73.2771 12.1157 73.0936 12.391 73.0018 12.6664L71.9921 15.6954C71.9003 15.9707 71.625 16.1543 71.4414 16.1543V16.3379C71.625 16.3379 71.9003 16.3379 72.0839 16.3379C72.3593 16.3379 72.6346 16.3379 72.8182 16.3379V16.1543C72.6346 16.1543 72.2675 16.1543 72.2675 15.879C72.2675 15.7872 72.3593 15.6036 72.4511 15.3282L72.6346 14.5939H74.195L74.4704 15.3282C74.5622 15.5118 74.5622 15.6954 74.5622 15.7872C74.5622 15.9707 74.2868 15.9707 74.1032 15.9707V16.2461H74.0114V16.2461ZM75.939 16.3379C75.6636 16.3379 75.3883 16.3379 75.0211 16.3379C74.7457 16.3379 74.3786 16.3379 74.0114 16.3379V16.0625H74.1032C74.2868 16.0625 74.4704 16.0625 74.4704 15.879C74.4704 15.7872 74.3786 15.6036 74.3786 15.42L74.1032 14.6857H72.6346L72.4511 15.3282C72.3593 15.5118 72.2675 15.6954 72.2675 15.7872C72.2675 15.9707 72.5428 15.9707 72.7264 15.9707H72.8182V16.1543C72.5428 16.1543 72.2675 16.1543 71.9921 16.1543C71.7168 16.1543 71.5332 16.1543 71.2578 16.1543V16.0625C71.5332 16.0625 71.7168 15.879 71.8085 15.6954L72.8182 12.6664C72.91 12.391 73.0018 12.1157 73.0936 11.8403C73.2771 11.7485 73.5525 11.6567 73.7361 11.5649C73.7361 11.5649 73.7361 11.5649 73.8279 11.5649H73.9197C73.9197 11.6567 73.9196 11.6567 74.0114 11.7485L75.2047 15.1447C75.2965 15.42 75.3883 15.6036 75.48 15.7872C75.5718 15.9707 75.6636 16.0625 75.8472 16.0625H75.939V16.3379Z" fill="#006AC9"/>
<path d="M77.5911 15.6954C77.5911 15.9707 77.7747 16.0625 77.9583 16.0625C78.2337 16.0625 78.509 16.0625 78.7844 16.0625C79.0597 16.0625 79.3351 15.879 79.4269 15.6954C79.5187 15.5118 79.6105 15.3282 79.6105 15.2364H79.7941C79.7023 15.6036 79.6105 15.9707 79.5187 16.3379C78.968 16.3379 78.3255 16.3379 77.7747 16.3379C77.224 16.3379 76.5815 16.3379 76.0308 16.3379V16.0625H76.1226C76.3979 16.0625 76.5815 16.0625 76.5815 15.6036V12.2075C76.5815 11.8403 76.3061 11.8403 76.1226 11.8403H76.0308V11.6567C76.3979 11.6567 76.6733 11.6567 77.0404 11.6567C77.4076 11.6567 77.6829 11.6567 78.0501 11.6567V11.8403H77.8665C77.5911 11.8403 77.4076 11.8403 77.4076 12.2075V15.6954H77.5911V15.6954Z" fill="#006AC9"/>
<path d="M79.5187 16.2461C79.6105 15.879 79.7023 15.5118 79.7941 15.2365H79.7023C79.7023 15.42 79.6105 15.5118 79.5187 15.6954C79.4269 15.879 79.1515 16.0625 78.8762 16.0625C78.6926 16.0625 78.509 16.0625 78.4172 16.0625C78.3255 16.0625 78.1419 16.0625 78.0501 16.0625C77.8665 16.0625 77.5912 15.9708 77.5912 15.6954V12.2993C77.5912 11.9321 77.7747 11.9321 78.0501 11.9321H78.1419V11.7485C77.7747 11.7485 77.4994 11.7485 77.1322 11.7485C76.7651 11.7485 76.4897 11.7485 76.1226 11.7485V11.9321H76.2143C76.4897 11.9321 76.7651 11.9321 76.7651 12.2993V15.6954C76.7651 16.1543 76.4897 16.1543 76.2143 16.1543H76.1226V16.3379C76.6733 16.3379 77.224 16.3379 77.8665 16.3379C78.4172 16.2461 78.968 16.2461 79.5187 16.2461ZM79.6105 16.3379C79.0598 16.3379 78.4172 16.3379 77.8665 16.3379C77.3158 16.3379 76.6733 16.3379 76.1226 16.3379V16.0625H76.2143C76.4897 16.0625 76.6733 16.0625 76.6733 15.6954V12.2993C76.6733 12.0239 76.4897 11.9321 76.2143 11.9321H76.1226V11.7485C76.4897 11.7485 76.8569 11.7485 77.1322 11.7485C77.4994 11.7485 77.7747 11.7485 78.1419 11.7485V11.9321H77.9583C77.6829 11.9321 77.4994 11.9321 77.4994 12.2993V15.6954C77.4994 15.9708 77.6829 15.9708 77.8665 16.0625C77.9583 16.0625 78.1419 16.0625 78.2337 16.0625C78.4172 16.0625 78.6008 16.0625 78.6926 16.0625C78.968 16.0625 79.1515 15.879 79.3351 15.6954C79.4269 15.5118 79.5187 15.42 79.5187 15.2365H79.7023C79.7941 15.6036 79.7023 15.9708 79.6105 16.3379Z" fill="#006AC9"/>
<path d="M79.6103 12.2075C79.7939 12.2075 79.7939 12.1157 79.7939 12.0239C79.7939 11.9321 79.7021 11.8403 79.7021 11.8403H79.6103V12.2075ZM79.4267 12.5746C79.5185 12.5746 79.5185 12.5746 79.5185 12.4828V11.9321C79.5185 11.8403 79.5185 11.8403 79.4267 11.8403H79.7939C79.8856 11.8403 80.0692 11.9321 80.0692 12.0239C80.0692 12.1157 79.9774 12.2075 79.8856 12.2075L79.9774 12.391C80.0692 12.4828 80.0692 12.5746 80.161 12.5746H80.0692C79.9774 12.5746 79.9774 12.4828 79.7939 12.2992H79.7021V12.4828C79.7021 12.5746 79.7021 12.4828 79.7939 12.5746H79.4267ZM79.7021 12.7582C79.9774 12.7582 80.2528 12.4828 80.2528 12.2075C80.2528 11.9321 79.9774 11.6567 79.7021 11.6567C79.4267 11.6567 79.1513 11.9321 79.1513 12.2075C79.2431 12.4828 79.4267 12.7582 79.7021 12.7582ZM79.7021 11.5649C80.0692 11.5649 80.4364 11.8403 80.4364 12.2992C80.4364 12.7582 80.161 12.9418 79.7021 12.9418C79.2431 12.9418 78.9678 12.6664 78.9678 12.2992C78.9678 11.9321 79.3349 11.5649 79.7021 11.5649Z" fill="#006AC9"/>
<path d="M3.4834 8.14482C3.4834 10.1448 4.7092 11.8222 6.45112 12.4674V3.82227C4.7092 4.46742 3.4834 6.14483 3.4834 8.14482Z" fill="#006AC9"/>
<path d="M9.7417 3.82227V12.4674C11.4836 11.8222 12.7094 10.0803 12.7094 8.14482C12.7094 6.14483 11.4836 4.46742 9.7417 3.82227Z" fill="#004A97"/>
<path d="M9.7417 12.4673C11.4836 11.8222 12.7094 10.0802 12.7094 8.14478Z" fill="#023563"/>
<path d="M11.8708 0.144775H8.12892C3.67733 0.144775 0.0644531 3.43508 0.0644531 8.20924C0.0644531 12.5963 3.67733 16.1447 8.12892 16.1447H11.8708C16.2579 16.1447 20.2579 12.5963 20.2579 8.20924C20.1934 3.43508 16.1934 0.144775 11.8708 0.144775ZM8.12892 15.435C4.06443 15.435 0.838642 12.1447 0.838642 8.14472C0.838642 4.08023 4.12894 0.789932 8.12892 0.789932C12.1934 0.789932 15.4837 4.08023 15.4837 8.14472C15.4192 12.2092 12.1289 15.435 8.12892 15.435Z" fill="#023563"/>
<path d="M18.774 6.91892C18.774 4.85442 17.9353 2.98347 16.516 1.4996C15.1611 0.660901 13.5482 0.144775 11.8708 0.144775H8.12891C3.67733 0.144775 0.0644531 3.43508 0.0644531 8.20924C0.0644531 10.2092 0.838642 12.0157 2.06444 13.435C3.35475 14.3382 4.90313 14.9834 6.58054 15.2414C3.29024 14.5318 0.838642 11.6286 0.838642 8.08021C0.838642 4.01572 4.12894 0.725416 8.12891 0.725416C12.1934 0.725416 15.4837 4.01572 15.4837 8.08021C15.4837 12.0802 12.3224 15.306 8.32246 15.3705C8.45149 15.3705 8.51601 15.3705 8.64504 15.3705C14.1934 15.435 18.774 11.6286 18.774 6.91892Z" fill="#004A97"/>
<path d="M8.06446 0.144775C3.61288 0.144775 0 3.43508 0 8.20924C0 10.1447 0.709672 11.9511 1.93547 13.306C1.99999 13.3705 2.0645 13.435 2.12902 13.4995C3.41933 14.4027 4.90319 14.9834 6.5806 15.306C3.2903 14.5963 0.838704 11.6931 0.838704 8.14472C0.838704 4.08023 4.129 0.789932 8.12898 0.789932C12.1935 0.789932 15.4838 4.08023 15.4838 8.14472C15.4838 12.1447 12.3225 15.3705 8.32253 15.435C8.45156 15.435 8.51607 15.435 8.6451 15.435C8.96768 15.435 9.29026 15.435 9.61284 15.3705C13.8709 14.3382 16.5805 10.0157 15.8063 5.43506C15.4193 3.30604 14.387 1.4996 12.9031 0.209291C12.5806 0.144775 12.258 0.144775 11.9354 0.144775H8.06446V0.144775Z" fill="#006AC9"/>
</svg>
