<svg width="65" height="11" viewBox="0 0 65 11" fill="none" xmlns="http://www.w3.org/2000/svg">
<path d="M34.0821 10.8771C37.0572 10.8771 39.4689 8.46537 39.4689 5.49032C39.4689 2.51527 37.0572 0.103516 34.0821 0.103516C31.1071 0.103516 28.6953 2.51527 28.6953 5.49032C28.6953 8.46537 31.1071 10.8771 34.0821 10.8771Z" fill="#EF9122"/>
<path d="M28.6953 5.49032C28.6953 2.48614 31.0779 0.103516 34.0821 0.103516C37.0863 0.103516 39.4689 2.48614 39.4689 5.49032C39.4689 8.4945 37.0863 10.8771 34.0821 10.8771" fill="#F26E21"/>
<path d="M30.3525 1.6574C32.4244 -0.414447 35.8429 -0.414447 37.9148 1.6574C39.9866 3.72925 39.9866 7.1478 37.9148 9.21965" fill="#F44500"/>
<path d="M2.90059 0.414307H0V10.5664H2.90059C4.45447 10.5664 5.59399 10.152 6.52632 9.42685C7.66584 8.49452 8.39099 7.04422 8.39099 5.49034C8.39099 2.48616 6.21555 0.414307 2.90059 0.414307ZM5.28321 8.08015C4.66166 8.59811 3.83292 8.90889 2.58981 8.90889H1.96826V2.17538H2.48622C3.72933 2.17538 4.55807 2.38256 5.17962 3.00412C5.90477 3.62567 6.31914 4.55801 6.31914 5.49034C6.42273 6.42267 6.00836 7.45859 5.28321 8.08015Z" fill="#595A5B"/>
<path d="M11.2915 0.414307H9.32324V10.5664H11.2915V0.414307Z" fill="#595A5B"/>
<path d="M16.2643 4.35065C15.0212 3.93628 14.7104 3.62551 14.7104 3.10754C14.7104 2.48599 15.332 1.96802 16.1607 1.96802C16.7823 1.96802 17.3002 2.17521 17.8182 2.79677L18.8541 1.45006C18.0254 0.724915 16.9895 0.310547 15.8499 0.310547C14.0889 0.310547 12.6386 1.55366 12.6386 3.21114C12.6386 4.66143 13.2601 5.28299 15.1248 6.00813C15.9535 6.31891 16.2643 6.4225 16.4715 6.62969C16.8859 6.83687 17.093 7.25124 17.093 7.66561C17.093 8.49435 16.4715 9.11591 15.5392 9.11591C14.6068 9.11591 13.7781 8.59794 13.3637 7.7692L12.1206 9.01231C13.0529 10.359 14.1925 10.9806 15.6427 10.9806C17.7146 10.9806 19.1649 9.63387 19.1649 7.66561C19.1649 5.90454 18.5433 5.17939 16.2643 4.35065Z" fill="#595A5B"/>
<path d="M19.7861 5.4904C19.7861 8.49458 22.1688 10.7736 25.1729 10.7736C26.0017 10.7736 26.7268 10.5664 27.6592 10.1521V7.76944C26.8304 8.59817 26.1053 8.90895 25.2765 8.90895C23.3083 8.90895 21.858 7.45866 21.858 5.38681C21.858 3.41855 23.3083 1.86467 25.1729 1.86467C26.1053 1.86467 26.8304 2.17544 27.6592 3.00418V0.621555C26.8304 0.207185 26.1053 0 25.1729 0C22.2723 0.207185 19.7861 2.58981 19.7861 5.4904Z" fill="#3B3D3F"/>
<path d="M43.923 7.25141L41.2296 0.414307H39.0542L43.3015 10.8771H44.441L48.8955 0.414307H46.72L43.923 7.25141Z" fill="black"/>
<path d="M49.7241 10.5664H55.4217V8.90889H51.796V6.11189H55.3181V4.35082H51.796V2.17538H55.4217V0.414307H49.7241V10.5664Z" fill="black"/>
<path d="M61.0158 6.31908C62.5697 6.0083 63.3985 4.97238 63.3985 3.41849C63.3985 1.55383 62.0518 0.414307 59.7727 0.414307H56.7686V10.5664H58.7368V6.52626H59.0476L61.8446 10.5664H64.2272L61.0158 6.31908ZM59.3584 5.07597H58.7368V1.96819H59.3584C60.6015 1.96819 61.3266 2.48616 61.3266 3.52208C61.3266 4.558 60.6015 5.07597 59.3584 5.07597Z" fill="#595A5B"/>
<path d="M2.90059 0.414795H0V10.5669H2.90059C4.45447 10.5669 5.59399 10.1525 6.52632 9.42734C7.66584 8.49501 8.39099 7.04471 8.39099 5.49083C8.39099 2.48665 6.21555 0.414795 2.90059 0.414795ZM5.28321 8.08064C4.66166 8.5986 3.83292 8.90938 2.58981 8.90938H1.96826V2.17587H2.48622C3.72933 2.17587 4.55807 2.38305 5.17962 3.00461C5.90477 3.62616 6.31914 4.55849 6.31914 5.49083C6.42273 6.42316 6.00836 7.45908 5.28321 8.08064Z" fill="#595A5B"/>
<path d="M11.2915 0.414307H9.32324V10.5664H11.2915V0.414307Z" fill="#595A5B"/>
<path d="M16.2643 4.35065C15.0212 3.93628 14.7104 3.62551 14.7104 3.10754C14.7104 2.48599 15.332 1.96802 16.1607 1.96802C16.7823 1.96802 17.3002 2.17521 17.8182 2.79677L18.8541 1.45006C18.0254 0.724915 16.9895 0.310547 15.8499 0.310547C14.0889 0.310547 12.6386 1.55366 12.6386 3.21114C12.6386 4.66143 13.2601 5.28299 15.1248 6.00813C15.9535 6.31891 16.2643 6.4225 16.4715 6.62969C16.8859 6.83687 17.093 7.25124 17.093 7.66561C17.093 8.49435 16.4715 9.11591 15.5392 9.11591C14.6068 9.11591 13.7781 8.59794 13.3637 7.7692L12.1206 9.01231C13.0529 10.359 14.1925 10.9806 15.6427 10.9806C17.7146 10.9806 19.1649 9.63387 19.1649 7.66561C19.1649 5.90454 18.5433 5.17939 16.2643 4.35065Z" fill="#595A5B"/>
<path d="M25.2768 10.7735C26.1055 10.7735 26.8307 10.5663 27.763 10.152V7.76933C26.9343 8.59807 26.2091 8.90885 25.3804 8.90885C23.4121 8.90885 21.9618 7.45856 21.9618 5.38671C21.9618 4.35078 22.3762 3.52205 22.9977 2.7969L21.651 1.4502C20.6151 2.38253 19.89 3.83282 19.89 5.38671C19.7864 8.49448 22.169 10.7735 25.2768 10.7735Z" fill="#595A5B"/>
<path d="M61.0158 6.31908C62.5697 6.0083 63.3985 4.97238 63.3985 3.41849C63.3985 1.55383 62.0518 0.414307 59.7727 0.414307H56.7686V10.5664H58.7368V6.52626H59.0476L61.8446 10.5664H64.2272L61.0158 6.31908ZM59.3584 5.07597H58.7368V1.96819H59.3584C60.6015 1.96819 61.3266 2.48616 61.3266 3.52208C61.3266 4.558 60.6015 5.07597 59.3584 5.07597Z" fill="black"/>
</svg>
