<svg width="32" height="20" viewBox="0 0 32 20" fill="none" xmlns="http://www.w3.org/2000/svg">
<path d="M16.0001 17.0096C17.9302 15.2518 19.1493 12.6667 19.1493 9.77147C19.1493 6.87622 17.9302 4.34288 16.0001 2.53334C14.3239 0.982317 12.0381 0 9.60004 0C4.31748 0 0 4.39458 0 9.77147C0 15.1484 4.31748 19.4912 9.60004 19.4912C12.0381 19.5429 14.3239 18.5606 16.0001 17.0096Z" fill="#07A9E2"/>
<path d="M0 9.77147C0 15.1484 4.31748 19.4912 9.60004 19.4912C12.0889 19.4912 14.3239 18.5606 16.0001 16.9579C17.9302 15.2001 19.1493 12.615 19.1493 9.71977C19.1493 6.82452 17.9302 4.34287 16.0001 2.53334C14.3239 0.982317 12.0381 0 9.60004 0" fill="#009DDD"/>
<path d="M16.0005 2.53334C14.3243 0.982317 12.0386 0 9.60046 0C9.44808 0 9.29569 0 9.14331 0C6.14648 2.22314 4.21631 5.7905 4.21631 9.77147C4.21631 13.7524 6.14647 17.3198 9.09252 19.4912C9.2449 19.4912 9.39728 19.4912 9.54966 19.4912C12.0386 19.4912 14.2735 18.5606 15.9497 16.9579C17.8799 15.2001 19.0989 12.615 19.0989 9.71977C19.0989 6.82452 17.9307 4.34287 16.0005 2.53334Z" fill="#0284CC"/>
<path d="M22.4506 0C19.9617 0 17.7267 0.930616 15.9998 2.53334C15.6442 2.84355 15.3394 3.20545 15.0347 3.56736H16.9648C17.2188 3.87757 17.4728 4.23947 17.6759 4.60138H14.2728C14.0696 4.96329 13.8664 5.27349 13.714 5.6354H18.2347C18.3871 5.9973 18.5394 6.30751 18.641 6.66941H13.3585C13.2569 7.03132 13.1553 7.34153 13.0537 7.70343H18.9458C19.0982 8.37554 19.149 9.04766 19.149 9.77147C19.149 10.8572 18.9966 11.8912 18.641 12.8735H13.3585C13.4601 13.2354 13.6124 13.5456 13.7648 13.9075H18.2855C18.1331 14.2694 17.9299 14.6314 17.7267 14.9416H14.3236C14.5267 15.3035 14.7807 15.6654 15.0347 15.9756H16.9648C16.6601 16.3375 16.3553 16.6994 15.9998 17.0096C17.7267 18.5606 19.9617 19.5429 22.4506 19.5429C27.7331 19.5429 31.9998 15.2001 31.9998 9.82317C31.9998 4.39458 27.7331 0 22.4506 0Z" fill="#FF2957"/>
<path d="M22.4506 0C19.9617 0 17.7267 0.930616 15.9998 2.53334C15.6442 2.84355 15.3394 3.20545 15.0347 3.56736H16.9648C17.2188 3.87757 17.4728 4.23947 17.6759 4.60138H14.2728C14.0696 4.96329 13.8664 5.27349 13.714 5.6354H18.2347C18.3871 5.9973 18.5394 6.30751 18.641 6.66941H13.3585C13.2569 7.03132 13.1553 7.34153 13.0537 7.70343H18.9458C19.0982 8.37554 19.149 9.04766 19.149 9.77147C19.149 10.8572 18.9966 11.8912 18.641 12.8735H13.3585C13.4601 13.2354 13.6124 13.5456 13.7648 13.9075H18.2855C18.1331 14.2694 17.9299 14.6314 17.7267 14.9416H14.3236C14.5267 15.3035 14.7807 15.6654 15.0347 15.9756H16.9648C16.6601 16.3375 16.3553 16.6994 15.9998 17.0096C17.7267 18.5606 19.9617 19.5429 22.4506 19.5429C27.7331 19.5429 31.9998 15.2001 31.9998 9.82317" fill="#ED1C2E"/>
<path d="M16 17.0097C17.9302 15.2519 19.1492 12.6668 19.1492 9.77157C19.1492 6.87632 17.9302 4.34298 16 2.53345V17.0097V17.0097Z" fill="#0466B5"/>
<path d="M28.6987 11.8913C28.6987 11.7362 28.8511 11.5811 29.0035 11.5811C29.1559 11.5811 29.3083 11.7362 29.3083 11.8913C29.3083 12.0464 29.1559 12.2015 29.0035 12.2015C28.8511 12.2015 28.6987 12.0464 28.6987 11.8913ZM29.0035 12.1498C29.1559 12.1498 29.2067 12.0464 29.2067 11.8913C29.2067 11.7362 29.1051 11.6845 29.0035 11.6845C28.8511 11.6845 28.7495 11.7879 28.7495 11.8913C28.7495 11.9947 28.9019 12.1498 29.0035 12.1498ZM29.0035 11.9947H28.9527V11.7362H29.0543C29.1051 11.7362 29.1051 11.7362 29.1051 11.7362L29.1559 11.7879C29.1559 11.8396 29.1559 11.8396 29.1051 11.8396L29.1559 11.943H29.1051L29.0543 11.8396H29.0035V11.9947ZM29.0035 11.8396C29.0543 11.8396 29.0543 11.8396 29.0543 11.8396C29.0543 11.8396 29.0543 11.8396 29.0543 11.7879H29.0035V11.8396Z" fill="white"/>
<path d="M15.9998 2.53333C15.6442 2.84354 15.3394 3.20544 15.0347 3.56735H16.9648C17.2188 3.87755 17.4728 4.23946 17.676 4.60137H14.2728C14.0696 4.96327 13.8664 5.27348 13.714 5.63539H18.2347C18.3871 5.99729 18.5394 6.3075 18.641 6.6694H13.3585C13.2569 7.03131 13.1553 7.34151 13.0537 7.70342H18.9458C19.0982 8.37553 19.149 9.04764 19.149 9.77146C19.149 10.8572 18.9966 11.8912 18.641 12.8735H13.3585C13.4601 13.2354 13.6124 13.5456 13.7648 13.9075H18.2855C18.1331 14.2694 17.9299 14.6313 17.7267 14.9415H14.3236C14.5267 15.3035 14.7807 15.6654 15.0347 15.9756H16.9648C16.6601 16.3375 16.3553 16.6994 15.9998 17.0096C17.7267 18.5606 19.9617 19.5429 22.4506 19.5429C22.603 19.5429 22.7553 19.5429 22.9077 19.5429C25.8538 17.3715 27.7839 13.8041 27.7839 9.82316C27.7839 5.84219 25.8538 2.27483 22.9077 0.10339C22.7553 0.10339 22.603 0.10339 22.4506 0.10339C19.9617 -1.18756e-05 17.7267 0.982305 15.9998 2.53333Z" fill="#D1094B"/>
<path d="M8.38117 12.2016H7.16211L7.87323 8.4274L6.24783 12.2016H5.18115L4.97798 8.4274L4.26687 12.2016H3.2002L4.11448 7.23828H5.99386L6.09544 10.3403L7.41608 7.23828H9.34625L8.38117 12.2016Z" fill="white"/>
<path d="M7.2129 10.0299L7.92402 8.42721L7.36528 11.4259C7.41608 11.6844 7.46687 11.9946 7.56846 12.2531H8.38116L9.29545 7.28979H7.51767C7.31449 8.06531 7.16211 8.94422 7.16211 9.82314C7.2129 9.87484 7.2129 9.92654 7.2129 10.0299Z" fill="#DCE5E5"/>
<path d="M21.6889 12.1497C21.3334 12.2531 21.1302 12.3048 20.8254 12.3048C20.2159 12.3048 19.9111 11.9946 19.9111 11.4259C19.9111 11.3225 19.9111 11.2191 19.9619 11.064L20.0127 10.6504L20.0635 10.3401L20.6222 7.28979H21.7905L21.6381 8.22041H22.2476L22.0953 9.15103H21.4857L21.181 10.8055C21.181 10.8572 21.1302 10.9606 21.1302 10.9606C21.1302 11.1674 21.2826 11.2708 21.5365 11.2708C21.6889 11.2708 21.7905 11.2708 21.8413 11.2191L21.6889 12.1497Z" fill="#DCE5E5"/>
<path d="M25.1941 8.22035C25.0925 8.16864 25.0925 8.16864 25.0417 8.16864C24.991 8.16864 24.9402 8.16864 24.9402 8.11694C24.8894 8.11694 24.8894 8.11694 24.7878 8.11694C24.3814 8.11694 24.1275 8.27205 23.7719 8.78906L23.8735 8.16864H22.8068L22.0957 12.2013H23.3148C23.7211 9.71967 23.9243 9.30606 24.483 9.30606C24.5338 9.30606 24.5846 9.30606 24.6354 9.30606L24.7878 9.35777L25.1941 8.22035Z" fill="#DCE5E5"/>
<path d="M16.965 9.46117C16.965 9.97818 17.2697 10.3401 17.8792 10.5469C18.3872 10.7537 18.438 10.8054 18.438 11.0122C18.438 11.2707 18.2348 11.3741 17.7269 11.3741C17.3713 11.3741 17.0158 11.3224 16.6602 11.219L16.5078 12.1496H16.5586L16.7618 12.2013C16.8126 12.2013 16.965 12.2013 17.0665 12.2013C17.3713 12.253 17.5745 12.253 17.7269 12.253C18.9967 12.253 19.6062 11.8394 19.6062 10.9088C19.6062 10.3401 19.3523 10.0299 18.7427 9.77137C18.2348 9.56457 18.184 9.51287 18.184 9.35777C18.184 9.15096 18.3872 9.04756 18.7935 9.04756C18.9967 9.04756 19.3523 9.04756 19.657 9.09926L19.8094 8.16864C19.5046 8.11694 19.0475 8.11694 18.7427 8.11694C17.4221 8.11694 16.965 8.73735 16.965 9.46117Z" fill="#DCE5E5"/>
<path d="M12.2415 12.2015H11.2765V11.7879C10.9717 12.0981 10.5653 12.2532 10.0066 12.2532C9.34629 12.2532 8.93994 11.7879 8.93994 11.1675C8.93994 10.1852 9.70185 9.61646 11.0225 9.61646C11.1749 9.61646 11.3273 9.61646 11.5304 9.61646C11.5812 9.46135 11.5812 9.40965 11.5812 9.35795C11.5812 9.09945 11.378 8.99605 10.8193 8.99605C10.4638 8.99605 10.1082 9.04775 9.85423 9.09945L9.70185 9.15115H9.60026L9.75264 8.27223C10.3622 8.11713 10.7177 8.06543 11.1749 8.06543C12.1907 8.06543 12.7495 8.47904 12.7495 9.25455C12.7495 9.46135 12.7495 9.61646 12.6479 10.0818L12.3939 11.5294L12.3431 11.7879L12.2923 11.9947V12.1498L12.2415 12.2015ZM11.378 10.392C11.2257 10.392 11.1749 10.392 11.1241 10.392C10.4638 10.392 10.1082 10.5988 10.1082 11.0124C10.1082 11.2709 10.2606 11.426 10.5146 11.426C11.0225 11.426 11.378 11.0124 11.378 10.392Z" fill="#DCE5E5"/>
<path d="M16.1527 12.0981C15.7463 12.2015 15.34 12.2532 14.9336 12.2532C13.613 12.2532 12.9019 11.6328 12.9019 10.4437C12.9019 9.04775 13.7654 8.06543 14.9844 8.06543C15.9495 8.06543 16.559 8.63414 16.559 9.51306C16.559 9.82326 16.5082 10.0818 16.4066 10.4954H14.0193C14.0193 10.5471 14.0193 10.5988 14.0193 10.6505C14.0193 11.1158 14.3749 11.3743 15.0352 11.3743C15.4923 11.3743 15.8479 11.3226 16.2543 11.1158L16.1527 12.0981ZM15.5431 9.71986C15.5431 9.66816 15.5431 9.56476 15.5431 9.51306C15.5431 9.20285 15.34 8.99605 14.9844 8.99605C14.6289 8.99605 14.3241 9.25455 14.2225 9.71986H15.5431Z" fill="#DCE5E5"/>
<path d="M28.9014 10.392C28.6983 11.7362 27.784 12.3049 26.5649 12.3049C25.2443 12.3049 24.6855 11.4777 24.6855 10.4437C24.6855 9.04775 25.5998 8.06543 27.0221 8.06543C28.2411 8.06543 28.9014 8.89264 28.9014 9.87496C28.9014 10.1335 28.9014 10.1335 28.9014 10.392ZM27.6316 9.87496C27.6316 9.46135 27.4792 9.09945 26.9713 9.09945C26.3617 9.09945 26.0062 9.82326 26.0062 10.4954C26.0062 11.0124 26.2602 11.3743 26.6665 11.3743C26.9205 11.3743 27.4792 11.0124 27.5808 10.392C27.6316 10.1852 27.6316 10.0301 27.6316 9.87496Z" fill="white"/>
<path d="M24.7368 10.9088C24.7876 10.5469 24.8384 10.1333 24.8384 9.77137C24.8384 9.71967 24.8384 9.66797 24.8384 9.66797C24.7876 9.92647 24.7368 10.185 24.7368 10.4952C24.686 10.5986 24.686 10.7537 24.7368 10.9088Z" fill="white"/>
</svg>
