<svg width="35" height="21" viewBox="0 0 35 21" fill="none" xmlns="http://www.w3.org/2000/svg">
<path d="M34.9999 10.4999C34.9999 16.2777 30.3332 20.9999 24.4999 20.9999C18.7222 20.9999 14 16.2777 14 10.4999C14 4.72219 18.6666 0 24.4444 0C30.3332 0 34.9999 4.72219 34.9999 10.4999Z" fill="#FFB600"/>
<path d="M24.4999 0C30.2777 0 34.9999 4.72219 34.9999 10.4999C34.9999 16.2777 30.3332 20.9999 24.4999 20.9999C18.7222 20.9999 14 16.2777 14 10.4999" fill="#F7981D"/>
<path d="M24.4995 0C30.2773 0 34.9994 4.72219 34.9994 10.4999C34.9994 16.2777 30.3328 20.9999 24.4995 20.9999" fill="#FF8500"/>
<path d="M10.3888 0C4.66664 0.0555552 0 4.72219 0 10.4999C0 16.2777 4.66664 20.9999 10.4999 20.9999C13.2221 20.9999 15.6666 19.9443 17.5555 18.2777C17.9443 17.9443 18.2777 17.5554 18.611 17.1666H16.4443C16.1666 16.8332 15.8888 16.4443 15.6666 16.111H19.3888C19.611 15.7777 19.8332 15.3888 19.9999 14.9999H15.0555C14.8888 14.6666 14.7221 14.2777 14.611 13.8888H20.3888C20.7221 12.8333 20.9443 11.7222 20.9443 10.5555C20.9443 9.77772 20.8332 9.0555 20.7221 8.33328H14.2777C14.3332 7.9444 14.4444 7.61106 14.5555 7.22218H20.3332C20.2221 6.83329 20.0554 6.44441 19.8888 6.11107H14.9999C15.1666 5.72219 15.3888 5.38886 15.611 4.99997H19.3332C19.111 4.61108 18.8332 4.2222 18.4999 3.88887H16.4443C16.7777 3.49998 17.111 3.16665 17.4999 2.83332C15.6666 1.1111 13.1666 0.11111 10.4444 0.11111C10.4444 -1.07619e-07 10.4444 0 10.3888 0Z" fill="#FF5050"/>
<path d="M0 10.5002C0 16.2779 4.66664 21.0001 10.4999 21.0001C13.2221 21.0001 15.6666 19.9445 17.5555 18.2779C17.9443 17.9446 18.2777 17.5557 18.611 17.1668H16.4443C16.1666 16.8335 15.8888 16.4446 15.6666 16.1112H19.3888C19.611 15.7779 19.8332 15.389 19.9999 15.0001H15.0555C14.8888 14.6668 14.7221 14.2779 14.611 13.889H20.3888C20.7221 12.8335 20.9443 11.7224 20.9443 10.5557C20.9443 9.77794 20.8332 9.05572 20.7221 8.3335H14.2777C14.3332 7.94461 14.4444 7.61128 14.5555 7.2224H20.3332C20.2221 6.83351 20.0554 6.44462 19.8888 6.11129H14.9999C15.1666 5.72241 15.3888 5.38907 15.611 5.00019H19.3332C19.111 4.6113 18.8332 4.22241 18.4999 3.88908H16.4443C16.7777 3.5002 17.111 3.16687 17.4999 2.83353C15.6666 1.11132 13.1666 0.111328 10.4444 0.111328H10.3888" fill="#E52836"/>
<path d="M10.4998 21.0001C13.222 21.0001 15.6664 19.9445 17.5553 18.2779C17.9442 17.9446 18.2775 17.5557 18.6108 17.1668H16.4442C16.1664 16.8335 15.8886 16.4446 15.6664 16.1112H19.3886C19.6108 15.7779 19.8331 15.389 19.9997 15.0001H15.0553C14.8886 14.6668 14.722 14.2779 14.6109 13.889H20.3886C20.7219 12.8335 20.9442 11.7224 20.9442 10.5557C20.9442 9.77794 20.8331 9.05572 20.7219 8.3335H14.2775C14.3331 7.94461 14.4442 7.61128 14.5553 7.2224H20.3331C20.2219 6.83351 20.0553 6.44462 19.8886 6.11129H14.9998C15.1664 5.72241 15.3886 5.38907 15.6109 5.00019H19.3331C19.1108 4.6113 18.8331 4.22241 18.4997 3.88908H16.4442C16.7775 3.5002 17.1109 3.16687 17.4997 2.83353C15.6664 1.11132 13.1664 0.111328 10.4442 0.111328H10.3887" fill="#CB2026"/>
<path d="M14.2219 13.1667L14.3886 12.2223C14.3331 12.2223 14.2219 12.2778 14.1108 12.2778C13.7219 12.2778 13.6664 12.0556 13.7219 11.9445L14.0553 10H14.6664L14.833 8.9445H14.2775L14.3886 8.27783H13.2775C13.2775 8.27783 12.6108 11.9445 12.6108 12.3889C12.6108 13.0556 12.9997 13.3334 13.4997 13.3334C13.8331 13.3334 14.1108 13.2222 14.2219 13.1667Z" fill="white"/>
<path d="M14.6108 11.3889C14.6108 12.9444 15.6664 13.3333 16.5553 13.3333C17.3886 13.3333 17.7219 13.1666 17.7219 13.1666L17.9442 12.1111C17.9442 12.1111 17.333 12.3888 16.7775 12.3888C15.5553 12.3888 15.7775 11.5 15.7775 11.5H18.0553C18.0553 11.5 18.2219 10.7777 18.2219 10.5C18.2219 9.77775 17.833 8.88887 16.6108 8.88887C15.4442 8.77776 14.6108 9.99997 14.6108 11.3889ZM16.5553 9.77775C17.1664 9.77775 17.0553 10.5 17.0553 10.5555H15.8331C15.8331 10.5 15.9442 9.77775 16.5553 9.77775Z" fill="white"/>
<path d="M23.6112 13.1667L23.8334 11.9445C23.8334 11.9445 23.2779 12.2222 22.889 12.2222C22.1112 12.2222 21.7779 11.6111 21.7779 10.9445C21.7779 9.61115 22.4445 8.88894 23.2223 8.88894C23.7779 8.88894 24.2223 9.22227 24.2223 9.22227L24.389 8.05561C24.389 8.05561 23.7223 7.77783 23.1112 7.77783C21.8334 7.77783 20.5557 8.88894 20.5557 11C20.5557 12.3889 21.2223 13.3333 22.5557 13.3333C23.0001 13.3333 23.6112 13.1667 23.6112 13.1667Z" fill="white"/>
<path d="M8.1111 8.77783C7.33332 8.77783 6.77777 9.00005 6.77777 9.00005L6.61111 9.94449C6.61111 9.94449 7.1111 9.72227 7.83332 9.72227C8.22221 9.72227 8.55554 9.77782 8.55554 10.1112C8.55554 10.3334 8.49998 10.3889 8.49998 10.3889C8.49998 10.3889 8.16665 10.3889 7.99999 10.3889C7.05555 10.3889 6 10.7778 6 12.0556C6 13.0556 6.66666 13.2778 7.05555 13.2778C7.83332 13.2778 8.16665 12.7778 8.22221 12.7778L8.16665 13.2222H9.16664L9.61108 10.1667C9.61108 8.83339 8.49998 8.77783 8.1111 8.77783ZM8.33332 11.2778C8.33332 11.4445 8.22221 12.3334 7.55554 12.3334C7.22221 12.3334 7.1111 12.0556 7.1111 11.8889C7.1111 11.6111 7.27777 11.2223 8.1111 11.2223C8.27776 11.2778 8.33332 11.2778 8.33332 11.2778Z" fill="white"/>
<path d="M10.666 13.2777C10.9437 13.2777 12.3326 13.3332 12.3326 11.8333C12.3326 10.4444 10.9993 10.7222 10.9993 10.1666C10.9993 9.88883 11.2215 9.77772 11.6104 9.77772C11.7771 9.77772 12.3882 9.83327 12.3882 9.83327L12.5548 8.83328C12.5548 8.83328 12.1659 8.72217 11.4993 8.72217C10.666 8.72217 9.83263 9.0555 9.83263 10.1666C9.83263 11.4444 11.2215 11.3333 11.2215 11.8333C11.2215 12.1666 10.8326 12.2221 10.5548 12.2221C10.0548 12.2221 9.55485 12.0555 9.55485 12.0555L9.38818 13.0555C9.44374 13.1666 9.72152 13.2777 10.666 13.2777Z" fill="white"/>
<path d="M32.8332 7.88892L32.6109 9.38891C32.6109 9.38891 32.1665 8.83335 31.5554 8.83335C30.5554 8.83335 29.6665 10.0556 29.6665 11.5C29.6665 12.3889 30.1109 13.3333 31.0554 13.3333C31.722 13.3333 32.1109 12.8889 32.1109 12.8889L32.0554 13.2778H33.1665L33.9998 7.94447L32.8332 7.88892ZM32.3332 10.8333C32.3332 11.4444 32.0554 12.2222 31.4443 12.2222C31.0554 12.2222 30.8332 11.8889 30.8332 11.3333C30.8332 10.4445 31.222 9.8889 31.722 9.8889C32.1109 9.8889 32.3332 10.1667 32.3332 10.8333Z" fill="white"/>
<path d="M2.05555 13.2222L2.72221 9.22224L2.83332 13.2222H3.6111L5.05553 9.22224L4.44442 13.2222H5.61108L6.49997 7.88892H4.66664L3.55554 11.1667L3.49999 7.88892H1.88888L1 13.2222H2.05555Z" fill="white"/>
<path d="M19.2774 13.2222C19.6107 11.3889 19.6663 9.88891 20.444 10.1667C20.5552 9.44447 20.7218 9.16669 20.8329 8.88892C20.8329 8.88892 20.7774 8.88892 20.6107 8.88892C20.1107 8.88892 19.7218 9.55558 19.7218 9.55558L19.8329 8.94447H18.7774L18.0552 13.2778H19.2774V13.2222Z" fill="white"/>
<path d="M26.1663 8.77783C25.3885 8.77783 24.833 9.00005 24.833 9.00005L24.6663 9.94449C24.6663 9.94449 25.1663 9.72227 25.8885 9.72227C26.2774 9.72227 26.6107 9.77782 26.6107 10.1112C26.6107 10.3334 26.5552 10.3889 26.5552 10.3889C26.5552 10.3889 26.2218 10.3889 26.0552 10.3889C25.1107 10.3889 24.0552 10.7778 24.0552 12.0556C24.0552 13.0556 24.7218 13.2778 25.1107 13.2778C25.8885 13.2778 26.2218 12.7778 26.2774 12.7778L26.2218 13.2222H27.2218L27.6663 10.1667C27.7218 8.83339 26.5552 8.77783 26.1663 8.77783ZM26.4441 11.2778C26.4441 11.4445 26.3329 12.3334 25.6663 12.3334C25.3329 12.3334 25.2218 12.0556 25.2218 11.8889C25.2218 11.6111 25.3885 11.2223 26.2218 11.2223C26.3885 11.2778 26.3885 11.2778 26.4441 11.2778Z" fill="white"/>
<path d="M28.6109 13.2222C28.9442 11.3889 28.9998 9.88891 29.7775 10.1667C29.8887 9.44447 30.0553 9.16669 30.1664 8.88892C30.1664 8.88892 30.1109 8.88892 29.9442 8.88892C29.4442 8.88892 29.0553 9.55558 29.0553 9.55558L29.1664 8.94447H28.1109L27.3887 13.2778H28.6109V13.2222Z" fill="white"/>
<path d="M12.4995 12.3889C12.4995 13.0556 12.8884 13.3334 13.3884 13.3334C13.7773 13.3334 14.1106 13.2222 14.2217 13.1667L14.3884 12.2223C14.3328 12.2223 14.2217 12.2778 14.1106 12.2778C13.7217 12.2778 13.6662 12.0556 13.7217 11.9445L14.0551 10H14.6662L14.8328 8.9445H14.2773L14.3884 8.27783" fill="#DCE5E5"/>
<path d="M15.1665 11.3889C15.1665 12.9444 15.6665 13.3333 16.5554 13.3333C17.3887 13.3333 17.722 13.1666 17.722 13.1666L17.9443 12.1111C17.9443 12.1111 17.3332 12.3888 16.7776 12.3888C15.5554 12.3888 15.7776 11.5 15.7776 11.5H18.0554C18.0554 11.5 18.222 10.7777 18.222 10.5C18.222 9.77775 17.8332 8.88887 16.6109 8.88887C15.4443 8.77776 15.1665 9.99997 15.1665 11.3889ZM16.5554 9.77775C17.1665 9.77775 17.2776 10.5 17.2776 10.5555H15.8332C15.8332 10.5 15.9443 9.77775 16.5554 9.77775Z" fill="#DCE5E5"/>
<path d="M23.6108 13.1667L23.833 11.9445C23.833 11.9445 23.2775 12.2222 22.8886 12.2222C22.1108 12.2222 21.7775 11.6111 21.7775 10.9445C21.7775 9.61115 22.4442 8.88894 23.2219 8.88894C23.7775 8.88894 24.2219 9.22227 24.2219 9.22227L24.3886 8.05561C24.3886 8.05561 23.7219 7.77783 23.1108 7.77783C21.8331 7.77783 21.1108 8.88894 21.1108 11C21.1108 12.3889 21.2219 13.3333 22.5553 13.3333C22.9997 13.3333 23.6108 13.1667 23.6108 13.1667Z" fill="#DCE5E5"/>
<path d="M6.61111 10C6.61111 10 7.1111 9.7778 7.83332 9.7778C8.22221 9.7778 8.55554 9.83335 8.55554 10.1667C8.55554 10.3889 8.49998 10.4445 8.49998 10.4445C8.49998 10.4445 8.16665 10.4445 7.99999 10.4445C7.05555 10.4445 6 10.8333 6 12.1111C6 13.1111 6.66666 13.3333 7.05555 13.3333C7.83332 13.3333 8.16665 12.8333 8.22221 12.8333L8.16665 13.2778H9.16664L9.61108 10.2222C9.61108 8.94447 8.49998 8.88892 8.05554 8.88892L6.61111 10ZM8.88887 11.2778C8.88887 11.4445 8.22221 12.3333 7.55554 12.3333C7.22221 12.3333 7.1111 12.0556 7.1111 11.8889C7.1111 11.6111 7.27777 11.2222 8.1111 11.2222C8.27776 11.2778 8.88887 11.2778 8.88887 11.2778Z" fill="#DCE5E5"/>
<path d="M9.44434 13.1666C9.44434 13.1666 9.77767 13.2777 10.7221 13.2777C10.9999 13.2777 12.3888 13.3332 12.3888 11.8333C12.3888 10.4444 11.0554 10.7222 11.0554 10.1666C11.0554 9.88883 11.2777 9.77772 11.6665 9.77772C11.8332 9.77772 12.4443 9.83327 12.4443 9.83327L12.611 8.83328C12.611 8.83328 12.2221 8.72217 11.5554 8.72217C10.7221 8.72217 10.4443 9.0555 10.4443 10.1666C10.4443 11.4444 11.2777 11.3333 11.2777 11.8333C11.2777 12.1666 10.8888 12.2221 10.611 12.2221" fill="#DCE5E5"/>
<path d="M32.6112 9.38901C32.6112 9.38901 32.1667 8.83346 31.5556 8.83346C30.5556 8.83346 30.2223 10.0557 30.2223 11.5001C30.2223 12.389 30.1112 13.3334 31.0556 13.3334C31.7223 13.3334 32.1112 12.889 32.1112 12.889L32.0556 13.2779H33.1667L34 7.94458L32.6112 9.38901ZM32.5556 10.8334C32.5556 11.4446 32.0556 12.2223 31.4445 12.2223C31.0556 12.2223 30.8334 11.889 30.8334 11.3334C30.8334 10.4446 31.2223 9.88901 31.7223 9.88901C32.1112 9.88901 32.5556 10.1668 32.5556 10.8334Z" fill="#DCE5E5"/>
<path d="M2.05555 13.2222L2.72221 9.22224L2.83332 13.2222H3.6111L5.05553 9.22224L4.44442 13.2222H5.61108L6.49997 7.88892H5.11109L3.55554 11.1667L3.49999 7.88892H2.88888L1 13.2222H2.05555Z" fill="#DCE5E5"/>
<path d="M18.1108 13.2222H19.2775C19.6108 11.3889 19.6664 9.88891 20.4442 10.1667C20.5553 9.44447 20.7219 9.16669 20.833 8.88892C20.833 8.88892 20.7775 8.88892 20.6108 8.88892C20.1108 8.88892 19.7219 9.55558 19.7219 9.55558L19.8331 8.94447" fill="#DCE5E5"/>
<path d="M24.6663 10C24.6663 10 25.1663 9.7778 25.8885 9.7778C26.2774 9.7778 26.6107 9.83335 26.6107 10.1667C26.6107 10.3889 26.5552 10.4445 26.5552 10.4445C26.5552 10.4445 26.2218 10.4445 26.0552 10.4445C25.1107 10.4445 24.0552 10.8333 24.0552 12.1111C24.0552 13.1111 24.7218 13.3333 25.1107 13.3333C25.8885 13.3333 26.2218 12.8333 26.2774 12.8333L26.2218 13.2778H27.2218L27.6663 10.2222C27.6663 8.94447 26.5552 8.88892 26.1107 8.88892L24.6663 10ZM26.944 11.2778C26.944 11.4445 26.2774 12.3333 25.6107 12.3333C25.2774 12.3333 25.1663 12.0556 25.1663 11.8889C25.1663 11.6111 25.3329 11.2222 26.1663 11.2222C26.3885 11.2778 26.944 11.2778 26.944 11.2778Z" fill="#DCE5E5"/>
<path d="M27.4438 13.2222H28.6105C28.9438 11.3889 28.9994 9.88891 29.7772 10.1667C29.8883 9.44447 30.0549 9.16669 30.1661 8.88892C30.1661 8.88892 30.1105 8.88892 29.9438 8.88892C29.4438 8.88892 29.0549 9.55558 29.0549 9.55558L29.1661 8.94447" fill="#DCE5E5"/>
</svg>
