<svg width="53" height="16" viewBox="0 0 53 16" fill="none" xmlns="http://www.w3.org/2000/svg">
<path d="M19.3506 15.5812L22.0312 0.502686H26.2197L23.6228 15.5812H19.3506Z" fill="#3C58BF"/>
<path d="M19.3506 15.5812L22.7851 0.502686H26.2197L23.6228 15.5812H19.3506Z" fill="#293688"/>
<path d="M38.7855 0.670155C37.9478 0.335077 36.6075 0 34.9321 0C30.7436 0 27.7279 2.09423 27.7279 5.10993C27.7279 7.37171 29.8221 8.54448 31.4975 9.2984C33.1729 10.0523 33.6755 10.5549 33.6755 11.2251C33.6755 12.2303 32.3352 12.733 31.1625 12.733C29.4871 12.733 28.5656 12.4816 27.1415 11.8953L26.5551 11.6439L25.9688 15.0785C26.974 15.4973 28.8169 15.9162 30.7436 15.9162C35.1834 15.9162 38.1153 13.822 38.1153 10.6387C38.1153 8.87956 37.0263 7.53925 34.5132 6.45024C33.0054 5.69632 32.0839 5.27747 32.0839 4.52355C32.0839 3.85339 32.8378 3.18324 34.5132 3.18324C35.9373 3.18324 36.9425 3.43455 37.6965 3.76962L38.1153 3.93716L38.7855 0.670155Z" fill="#3C58BF"/>
<path d="M38.7855 0.670155C37.9478 0.335077 36.6075 0 34.9321 0C30.7436 0 28.4818 2.09423 28.4818 5.10993C28.4818 7.37171 29.8221 8.54448 31.4975 9.2984C33.1729 10.0523 33.6755 10.5549 33.6755 11.2251C33.6755 12.2303 32.3352 12.733 31.1625 12.733C29.4871 12.733 28.5656 12.4816 27.1415 11.8953L26.5551 11.6439L25.9688 15.0785C26.974 15.4973 28.8169 15.9162 30.7436 15.9162C35.1834 15.9162 38.1153 13.822 38.1153 10.6387C38.1153 8.87956 37.0263 7.53925 34.5132 6.45024C33.0054 5.69632 32.0839 5.27747 32.0839 4.52355C32.0839 3.85339 32.8378 3.18324 34.5132 3.18324C35.9373 3.18324 36.9425 3.43455 37.6965 3.76962L38.1153 3.93716L38.7855 0.670155Z" fill="#293688"/>
<path d="M45.9895 0.502686C44.9843 0.502686 44.2304 0.586456 43.8115 1.59169L37.5288 15.5812H42.0524L42.8901 13.0681H48.2513L48.7539 15.5812H52.7748L49.2565 0.502686H45.9895V0.502686ZM44.0628 10.555C44.3141 9.80109 45.7382 6.11524 45.7382 6.11524C45.7382 6.11524 46.0733 5.19377 46.3246 4.60739L46.5759 6.03147C46.5759 6.03147 47.4136 9.80109 47.5811 10.6388H44.0628V10.555Z" fill="#3C58BF"/>
<path d="M46.9948 0.502686C45.9895 0.502686 45.2356 0.586456 44.8168 1.59169L37.5288 15.5812H42.0524L42.8901 13.0681H48.2513L48.7539 15.5812H52.7748L49.2565 0.502686H46.9948V0.502686ZM44.0628 10.555C44.3979 9.71732 45.7382 6.11524 45.7382 6.11524C45.7382 6.11524 46.0733 5.19377 46.3246 4.60739L46.5759 6.03147C46.5759 6.03147 47.4136 9.80109 47.5811 10.6388H44.0628V10.555Z" fill="#293688"/>
<path d="M11.6435 11.0576L11.2247 8.8796C10.4708 6.36651 8.04146 3.60212 5.36084 2.26181L9.13046 15.6649H13.654L20.4393 0.586426H15.9158L11.6435 11.0576Z" fill="#3C58BF"/>
<path d="M11.6435 11.0576L11.2247 8.8796C10.4708 6.36651 8.04146 3.60212 5.36084 2.26181L9.13046 15.6649H13.654L20.4393 0.586426H16.7535L11.6435 11.0576Z" fill="#293688"/>
<path d="M0 0.502686L0.753925 0.670225C6.11517 1.92677 9.80102 5.11 11.2251 8.87963L9.71725 1.75923C9.46594 0.753994 8.71202 0.502686 7.79056 0.502686H0V0.502686Z" fill="#FFBC00"/>
<path d="M0 0.502686C5.36124 1.75923 9.80102 5.02624 11.2251 8.79586L9.80102 2.84823C9.54971 1.843 8.71202 1.25661 7.79056 1.25661L0 0.502686Z" fill="#F7981D"/>
<path d="M0 0.502686C5.36124 1.75923 9.80102 5.02624 11.2251 8.79586L10.2199 5.52885C9.96856 4.52362 9.63348 3.51839 8.46071 3.09954L0 0.502686Z" fill="#ED7C00"/>
<path d="M15.8322 10.5549L12.9841 7.70676L11.6438 10.89L11.3087 8.79576C10.5548 6.28268 8.12545 3.51829 5.44482 2.17798L9.21445 15.5811H13.738L15.8322 10.5549Z" fill="#051244"/>
<path d="M23.6228 15.5809L20.0207 11.895L19.3506 15.5809H23.6228Z" fill="#051244"/>
<path d="M33.2557 10.3875C33.5908 10.7225 33.7583 10.9738 33.6746 11.3089C33.6746 12.3141 32.3343 12.8168 31.1615 12.8168C29.4861 12.8168 28.5646 12.5655 27.1405 11.9791L26.5542 11.7278L25.9678 15.1623C26.973 15.5812 28.8159 16 30.7426 16C33.4233 16 35.6013 15.2461 36.8578 13.9058L33.2557 10.3875Z" fill="#051244"/>
<path d="M38.1147 15.5812H42.0519L42.8896 13.0681H48.2508L48.7535 15.5812H52.7744L51.3503 9.46605L46.3242 4.60742L46.5755 5.94773C46.5755 5.94773 47.4132 9.71735 47.5807 10.555H44.0624C44.3975 9.71735 45.7378 6.11527 45.7378 6.11527C45.7378 6.11527 46.0728 5.19381 46.3242 4.60742" fill="#051244"/>
</svg>
