<svg width="195" height="30" viewBox="0 0 195 30" fill="none" xmlns="http://www.w3.org/2000/svg">
<circle cx="15" cy="15" r="12.9687" stroke="#E08385" stroke-width="4.06251"/>
<circle cx="14.9995" cy="15.0005" r="11.0937" fill="url(#paint0_linear)" stroke="white" stroke-width="4.06251"/>
<path d="M37.497 20.2797C38.7967 21.5795 40.67 22.2294 42.4476 22.2294C45.6015 22.2294 47.3026 20.2606 47.3026 17.9669C47.3026 13.647 41.2625 14.1058 41.2625 12.1561C41.2625 11.6018 41.7021 11.1813 42.7152 11.1813C43.7856 11.1813 44.9707 11.7165 45.7353 12.3855L47.1497 9.65213C45.9646 8.60084 44.3973 8.10387 42.8681 8.10387C40.001 8.10387 37.9175 9.76681 37.9175 12.2899C37.9175 16.5715 43.9576 16.2657 43.9576 18.1962C43.9576 18.7314 43.4798 19.152 42.5432 19.152C41.3198 19.152 40.0201 18.4065 39.2555 17.7375L37.497 20.2797ZM48.4555 17.0685C48.4555 19.7827 50.4242 22.2294 53.9413 22.2294C55.5851 22.2294 57.1907 21.5986 58.1656 20.6047L56.9614 18.2918C56.2541 18.9035 55.222 19.4769 54.2662 19.4769C52.6033 19.4769 51.8005 18.1962 51.8005 17.0303C51.8005 15.8643 52.5842 14.6792 54.1515 14.6792C55.0117 14.6792 55.891 15.0806 56.4644 15.6349L57.8597 13.4177C56.8849 12.3664 55.3175 11.9267 53.9413 11.9267C50.4051 11.9267 48.4555 14.4307 48.4555 17.0685ZM59.5563 22H62.8631V17.5655C62.8631 16.0554 63.5703 14.9277 65.0039 14.9277C65.7302 14.9277 66.0934 15.31 66.0934 16.2275V22H69.4002V15.6158C69.4002 12.8442 67.8519 11.9267 65.864 11.9267C64.5642 11.9267 63.4174 12.5193 62.8631 13.4941H62.8248C62.8248 13.4941 62.8631 13.1501 62.8631 12.6531V8.33324H59.5563V22ZM70.9671 17.1067C70.9671 20.1841 73.452 22.2294 76.5485 22.2294C79.645 22.2294 82.1299 20.1841 82.1299 17.1067C82.1299 14.0102 79.645 11.9267 76.5294 11.9267C73.452 11.9267 70.9671 14.0102 70.9671 17.1067ZM74.3121 17.1067C74.3121 15.6158 75.3443 14.6792 76.5485 14.6792C77.7527 14.6792 78.7849 15.6158 78.7849 17.1067C78.7849 18.5785 77.7527 19.4769 76.5485 19.4769C75.3443 19.4769 74.3121 18.5785 74.3121 17.1067ZM83.7661 18.3683C83.7661 21.6751 85.6393 22.0956 87.3978 22.0956C87.8183 22.0956 88.1624 22.0573 88.3918 22.0382V19.1711C88.2389 19.1902 88.0859 19.1902 87.9904 19.1902C87.2449 19.1902 87.0729 18.8652 87.0729 17.9286V8.33324H83.7661V18.3683ZM89.2757 19.2284C89.2757 20.9296 90.5946 22.2294 92.4869 22.2294C93.6146 22.2294 94.7615 21.7133 95.4114 20.7958H95.4496C95.4496 20.7958 95.4114 21.0825 95.4114 21.4075V22H98.4314V15.9408C98.4314 13.4368 96.7494 11.9267 94.0351 11.9267C92.4295 11.9267 90.7092 12.5575 89.8682 13.2074L91.0151 15.5393C91.7988 15.0233 92.7736 14.6027 93.7293 14.6027C94.4556 14.6027 95.1247 14.8703 95.1247 15.6923V15.8643H94.8379C92.4104 15.8643 89.2757 16.5906 89.2757 19.2284ZM92.5442 18.9226C92.5442 18.0242 93.844 17.7566 94.8571 17.7566H95.1629V18.0242C95.1629 18.827 94.4365 19.7636 93.4808 19.7636C92.8692 19.7636 92.5442 19.3813 92.5442 18.9226ZM100.529 22H103.836V18.1771C103.836 16.3804 104.715 15.2144 106.55 15.2144C106.779 15.2144 107.104 15.2335 107.219 15.2717V12.0223C107.104 12.0032 106.97 11.9841 106.837 11.9841C105.365 11.9841 104.122 13.0927 103.702 14.4307H103.664C103.664 14.4307 103.702 14.144 103.702 13.8191V12.1561H100.529V22ZM107.922 20.7767C109.012 21.7515 110.522 22.2294 111.936 22.2294C114.459 22.2294 115.988 20.834 115.988 18.999C115.988 15.807 111.382 16.0554 111.382 15.0233C111.382 14.7557 111.592 14.5454 112.299 14.5454C113.14 14.5454 114.211 14.8895 114.784 15.3482L115.912 13.0545C114.918 12.2517 113.656 11.9267 112.395 11.9267C110.12 11.9267 108.304 13.0163 108.304 15.0424C108.304 18.2727 112.911 18.0433 112.911 19.0946C112.911 19.4004 112.681 19.6107 112.012 19.6107C111.076 19.6107 110.063 19.2284 109.336 18.6168L107.922 20.7767ZM117.665 22H120.971V17.5655C120.971 16.0554 121.679 14.9277 123.112 14.9277C123.839 14.9277 124.202 15.31 124.202 16.2275V22H127.509V15.6158C127.509 12.8442 125.96 11.9267 123.972 11.9267C122.673 11.9267 121.526 12.5193 120.971 13.4941H120.933C120.933 13.4941 120.971 13.1501 120.971 12.6531V8.33324H117.665V22ZM129.668 10.9137H132.898V8.33324H129.668V10.9137ZM129.63 22H132.937V12.1561H129.63V22ZM135.155 25.8229H138.462V22.1338C138.462 21.6368 138.424 21.2928 138.424 21.2928H138.462C139.169 21.9044 140.048 22.2294 140.966 22.2294C143.584 22.2294 145.553 20.2033 145.553 17.0876C145.553 14.0293 143.795 11.9267 141.119 11.9267C139.934 11.9267 138.806 12.3855 138.137 13.2839H138.099C138.099 13.2839 138.137 12.978 138.137 12.6531V12.1561H135.155V25.8229ZM138.366 17.145C138.366 15.4438 139.303 14.7174 140.297 14.7174C141.444 14.7174 142.227 15.6731 142.227 17.145C142.227 18.655 141.329 19.496 140.297 19.496C138.997 19.496 138.366 18.33 138.366 17.145Z" fill="#061C2E"/>
<path d="M146.085 22H149.525L150.347 19.1328H154.61L155.451 22H158.891L154.247 8.33324H150.73L146.085 22ZM151.131 16.4568L151.915 13.7999C152.163 12.9398 152.469 11.4489 152.469 11.4489H152.507C152.507 11.4489 152.813 12.9398 153.062 13.7999L153.826 16.4568H151.131ZM159.944 25.8229H163.251V22.1338C163.251 21.6368 163.213 21.2928 163.213 21.2928H163.251C163.958 21.9044 164.837 22.2294 165.755 22.2294C168.373 22.2294 170.342 20.2033 170.342 17.0876C170.342 14.0293 168.584 11.9267 165.908 11.9267C164.723 11.9267 163.595 12.3855 162.926 13.2839H162.888C162.888 13.2839 162.926 12.978 162.926 12.6531V12.1561H159.944V25.8229ZM163.155 17.145C163.155 15.4438 164.092 14.7174 165.086 14.7174C166.233 14.7174 167.016 15.6731 167.016 17.145C167.016 18.655 166.118 19.496 165.086 19.496C163.786 19.496 163.155 18.33 163.155 17.145ZM172.04 25.8229H175.347V22.1338C175.347 21.6368 175.308 21.2928 175.308 21.2928H175.347C176.054 21.9044 176.933 22.2294 177.851 22.2294C180.469 22.2294 182.438 20.2033 182.438 17.0876C182.438 14.0293 180.679 11.9267 178.003 11.9267C176.818 11.9267 175.691 12.3855 175.022 13.2839H174.983C174.983 13.2839 175.022 12.978 175.022 12.6531V12.1561H172.04V25.8229ZM175.251 17.145C175.251 15.4438 176.188 14.7174 177.182 14.7174C178.328 14.7174 179.112 15.6731 179.112 17.145C179.112 18.655 178.214 19.496 177.182 19.496C175.882 19.496 175.251 18.33 175.251 17.145Z" fill="#E14B58"/>
<defs>
<linearGradient id="paint0_linear" x1="14.9995" y1="1.87549" x2="14.9995" y2="28.1255" gradientUnits="userSpaceOnUse">
<stop stop-color="#EB6568"/>
<stop offset="1" stop-color="#D73148"/>
</linearGradient>
</defs>
</svg>
