<svg width="110" height="111" viewBox="0 0 110 111" version="1.1" xmlns="http://www.w3.org/2000/svg" xmlns:xlink="http://www.w3.org/1999/xlink">
<title>Logo</title>
<desc>Created using Figma</desc>
<g id="Canvas" transform="translate(-11043 -100)">
<g id="Logo">
<g id="Fill 13">
<use xlink:href="#path0_fill" transform="translate(11043 100)" fill="#5DC6F1"/>
</g>
<g id="Fill 15">
<use xlink:href="#path1_fill" transform="translate(11071.2 116.446)" fill="#775BA8"/>
</g>
<g id="&#194;&#174;">
<use xlink:href="#path2_fill" transform="translate(11136.5 189)"/>
</g>
</g>
</g>
<defs>
<path id="path0_fill" fill-rule="evenodd" d="M 55 4.85295C 27.3478 4.85295 4.85291 27.3479 4.85291 55C 4.85291 82.6503 27.3478 105.147 55 105.147C 82.6521 105.147 105.147 82.6503 105.147 55C 105.147 27.3479 82.6521 4.85295 55 4.85295ZM 54.9991 110C 24.6712 110 0 85.3284 0 55C 0 24.6716 24.6712 0 54.9991 0C 85.3269 0 110 24.6716 110 55C 110 85.3284 85.3269 110 54.9991 110Z"/>
<path id="path1_fill" fill-rule="evenodd" d="M 26.3294 9.12434L 34.0926 21.4112L 34.0361 21.4112C 32.3118 23.8095 29.5013 25.3757 26.3294 25.3757C 23.1575 25.3757 20.3471 23.8095 18.6228 21.4112L 18.5663 21.4112L 26.3294 9.12434ZM 52.646 63.7704C 52.3674 56.4307 46.05 50.5423 38.3188 50.5423C 33.3097 50.5423 28.8954 53.0159 26.3296 56.7545C 23.7657 53.0159 19.3495 50.5423 14.3404 50.5423C 10.632 50.5423 7.24737 51.8977 4.70044 54.1171L 4.70044 43.3814L 4.68538 43.3777L 15.7823 25.8161C 18.4253 28.6248 22.1751 30.383 26.3296 30.383C 30.4841 30.383 34.2339 28.6248 36.8769 25.8161L 47.9738 43.3795L 53.6042 43.3795L 26.3352 0L 26.3296 0.00752986L 26.3239 0L 0 41.8773L 0 64.2749L 0 66.2346L 0 69.3689L 4.70044 69.3689L 4.70044 66.2346L 4.70044 64.2749C 4.70044 59.2939 9.02439 55.241 14.3404 55.241C 19.6545 55.241 23.9803 59.2939 23.9803 64.2749L 23.9803 64.7794L 23.9803 69.3689L 28.6789 69.3689L 28.6789 64.7794L 28.6789 64.2749C 28.6789 59.2939 33.0047 55.241 38.3188 55.241C 43.6348 55.241 47.9588 59.2939 47.9588 64.2749L 47.9588 64.7794L 47.9588 69.3689L 52.6592 69.3689L 52.6592 64.7794L 52.6592 64.2749L 52.6592 63.7704L 52.646 63.7704Z"/>
<path id="path2_fill" d="M 11.2988 12.1621C 11.2988 13.2689 10.8333 14.0273 9.90234 14.4375L 12.2168 18.3438L 9.73633 18.3438L 7.99805 15.043L 7.53906 15.043L 7.53906 18.3438L 5.30273 18.3438L 5.30273 9.39844L 7.88086 9.39844C 9.05924 9.39844 9.92188 9.6263 10.4688 10.082C 11.0221 10.5378 11.2988 11.2311 11.2988 12.1621ZM 7.53906 13.4023L 7.8418 13.4023C 8.27148 13.4023 8.57747 13.3112 8.75977 13.1289C 8.94857 12.9401 9.04297 12.6309 9.04297 12.2012C 9.04297 11.778 8.95182 11.4785 8.76953 11.3027C 8.58724 11.127 8.27148 11.0391 7.82227 11.0391L 7.53906 11.0391L 7.53906 13.4023ZM 0.976562 13.8613C 0.976562 12.5592 1.30208 11.3385 1.95312 10.1992C 2.60417 9.0599 3.49935 8.16146 4.63867 7.50391C 5.77799 6.84635 7.00521 6.51758 8.32031 6.51758C 9.6224 6.51758 10.8431 6.8431 11.9824 7.49414C 13.1217 8.14518 14.0202 9.04036 14.6777 10.1797C 15.3353 11.319 15.6641 12.5462 15.6641 13.8613C 15.6641 15.1439 15.3483 16.3483 14.7168 17.4746C 14.0853 18.6009 13.1999 19.5026 12.0605 20.1797C 10.9212 20.8568 9.67448 21.1953 8.32031 21.1953C 6.97266 21.1953 5.72917 20.86 4.58984 20.1895C 3.45052 19.5124 2.56185 18.6107 1.92383 17.4844C 1.29232 16.3581 0.976562 15.1504 0.976562 13.8613ZM 2.36328 13.8613C 2.36328 14.929 2.63021 15.9251 3.16406 16.8496C 3.69792 17.7676 4.42708 18.4935 5.35156 19.0273C 6.27604 19.5547 7.26562 19.8184 8.32031 19.8184C 9.38802 19.8184 10.3809 19.5514 11.2988 19.0176C 12.2233 18.4837 12.9492 17.7546 13.4766 16.8301C 14.0104 15.9056 14.2773 14.916 14.2773 13.8613C 14.2773 12.7936 14.0104 11.8008 13.4766 10.8828C 12.9427 9.95833 12.2135 9.23242 11.2891 8.70508C 10.3646 8.17122 9.375 7.9043 8.32031 7.9043C 7.2526 7.9043 6.25651 8.17122 5.33203 8.70508C 4.41406 9.23893 3.68815 9.9681 3.1543 10.8926C 2.62695 11.8171 2.36328 12.8066 2.36328 13.8613Z"/>
</defs>
</svg>
