<svg width="70" height="70" viewBox="0 0 70 70" version="1.1" xmlns="http://www.w3.org/2000/svg" xmlns:xlink="http://www.w3.org/1999/xlink">
<title>Logo</title>
<desc>Created using Figma</desc>
<g id="Canvas" transform="translate(5475 423)">
<g id="Logo">
<g id="Fill 13">
<use xlink:href="#path0_fill" transform="translate(-5475 -423)" fill="#5DC6F1"/>
</g>
<g id="Fill 15">
<use xlink:href="#path1_fill" transform="translate(-5457.06 -412.535)" fill="#FFFFFF"/>
</g>
<g id="&#194;&#174;">
<use xlink:href="#path2_fill" transform="translate(-5413.94 -361.936)" fill="#FFFFFF"/>
</g>
</g>
</g>
<defs>
<path id="path0_fill" fill-rule="evenodd" d="M 34.9993 1.52255C 16.5395 1.52255 1.52246 16.5398 1.52246 35C 1.52246 53.4589 16.5395 68.4774 34.9993 68.4774C 53.4591 68.4774 68.4762 53.4589 68.4762 35C 68.4762 16.5398 53.4591 1.52255 34.9993 1.52255ZM 34.9994 70C 15.6998 70 0 54.2999 0 35C 0 15.7001 15.6998 0 34.9994 0C 54.299 0 70 15.7001 70 35C 70 54.2999 54.299 70 34.9994 70Z"/>
<path id="path1_fill" fill-rule="evenodd" d="M 16.7551 5.8064L 21.6953 13.6253L 21.6594 13.6253C 20.5621 15.1515 18.7736 16.1482 16.7551 16.1482C 14.7366 16.1482 12.9482 15.1515 11.8509 13.6253L 11.8149 13.6253L 16.7551 5.8064ZM 33.502 40.5812C 33.3247 35.9104 29.3045 32.1633 24.3847 32.1633C 21.1971 32.1633 18.388 33.7374 16.7552 36.1165C 15.1236 33.7374 12.3133 32.1633 9.1257 32.1633C 6.76581 32.1633 4.61196 33.0258 2.99119 34.4382L 2.99119 27.6064L 2.9816 27.604L 10.0433 16.4284C 11.7252 18.2158 14.1114 19.3346 16.7552 19.3346C 19.399 19.3346 21.7852 18.2158 23.4671 16.4284L 30.5288 27.6052L 34.1117 27.6052L 16.7588 0L 16.7552 0.00479173L 16.7516 0L 0 26.6492L 0 40.9022L 0 42.1493L 0 44.1438L 2.99119 44.1438L 2.99119 42.1493L 2.99119 40.9022C 2.99119 37.7325 5.74279 35.1533 9.1257 35.1533C 12.5074 35.1533 15.2602 37.7325 15.2602 40.9022L 15.2602 41.2233L 15.2602 44.1438L 18.2502 44.1438L 18.2502 41.2233L 18.2502 40.9022C 18.2502 37.7325 21.003 35.1533 24.3847 35.1533C 27.7676 35.1533 30.5192 37.7325 30.5192 40.9022L 30.5192 41.2233L 30.5192 44.1438L 33.5104 44.1438L 33.5104 41.2233L 33.5104 40.9022L 33.5104 40.5812L 33.502 40.5812Z"/>
<path id="path2_fill" d="M 3.70162 4.28675L 4.34331 4.28675C 4.6602 4.28675 4.91371 4.20549 5.10384 4.04298C 5.29793 3.8765 5.39498 3.66643 5.39498 3.41275C 5.39498 3.11547 5.30981 2.90341 5.13949 2.77657C 4.96916 2.64577 4.69981 2.58037 4.33143 2.58037L 3.70162 2.58037L 3.70162 4.28675ZM 6.28027 3.38897C 6.28027 3.70606 6.19511 3.98749 6.02479 4.23324C 5.85842 4.47502 5.62274 4.65537 5.31773 4.77428L 6.73184 7.12278L 5.73365 7.12278L 4.50374 5.01805L 3.70162 5.01805L 3.70162 7.12278L 2.82226 7.12278L 2.82226 1.82529L 4.37302 1.82529C 5.03056 1.82529 5.51183 1.95411 5.81683 2.21175C 6.12579 2.46939 6.28027 2.86179 6.28027 3.38897ZM 0 4.47106C 0 3.67832 0.198053 2.93512 0.59416 2.24147C 0.990267 1.54783 1.53491 1.00084 2.2281 0.600501C 2.92129 0.200167 3.66795 0 4.46809 0C 5.2603 0 6.003 0.198185 6.69619 0.594556C 7.38937 0.990926 7.936 1.53594 8.33607 2.22958C 8.73614 2.92323 8.93617 3.67039 8.93617 4.47106C 8.93617 5.25191 8.74406 5.98519 8.35983 6.67091C 7.97561 7.35663 7.43691 7.90561 6.74372 8.31783C 6.05053 8.73006 5.29199 8.93617 4.46809 8.93617C 3.64814 8.93617 2.89158 8.73204 2.19839 8.32378C 1.50521 7.91155 0.96452 7.36258 0.576335 6.67686C 0.192112 5.99114 0 5.25587 0 4.47106ZM 0.623868 4.47106C 0.623868 5.15678 0.796175 5.7989 1.14079 6.39742C 1.4854 6.99197 1.95479 7.46167 2.54895 7.80651C 3.14707 8.14739 3.78678 8.31783 4.46809 8.31783C 5.15731 8.31783 5.79702 8.14541 6.38722 7.80057C 6.97742 7.45573 7.44483 6.98999 7.78944 6.40336C 8.13802 5.81277 8.3123 5.16867 8.3123 4.47106C 8.3123 3.78137 8.14 3.14124 7.79538 2.55064C 7.45077 1.96005 6.98336 1.49233 6.39316 1.14749C 5.80693 0.798686 5.16523 0.624283 4.46809 0.624283C 3.77886 0.624283 3.13915 0.796704 2.54895 1.14155C 1.95875 1.48639 1.48936 1.95411 1.14079 2.5447C 0.796175 3.13133 0.623868 3.77345 0.623868 4.47106Z"/>
</defs>
</svg>
