<svg width="40" height="40" viewBox="0 0 40 40" version="1.1" xmlns="http://www.w3.org/2000/svg" xmlns:xlink="http://www.w3.org/1999/xlink">
<title>Group</title>
<desc>Created using Figma</desc>
<g id="Canvas" transform="translate(-9960 -3141)">
<g id="Group">
<g id="Vector">
<use xlink:href="#path0_fill" transform="translate(9976 3157)" fill="#D8C2FF"/>
</g>
<g id="Vector">
<use xlink:href="#path1_fill" transform="translate(9984.89 3152.25)" fill="#D8C2FF"/>
</g>
<g id="Vector">
<use xlink:href="#path2_fill" transform="translate(9960 3141)" fill="#D8C2FF"/>
</g>
<g id="Vector">
<use xlink:href="#path3_fill" transform="translate(9970.84 3158.67)" fill="#D8C2FF"/>
</g>
</g>
</g>
<defs>
<path id="path0_fill" d="M 4.00226 8.00773C 6.20882 8.00773 8.00774 6.21204 8.00774 4.00387C 8.00774 3.1322 7.72255 2.3274 7.25047 1.67002C 6.523 0.661404 5.34037 7.25263e-07 4.00467 7.25263e-07C 2.66817 7.25263e-07 1.48635 0.660597 0.757274 1.66922C 0.283577 2.32659 0.000808324 3.1314 2.71728e-06 4.00306C -0.0024141 6.21123 1.7949 8.00773 4.00226 8.00773Z"/>
<path id="path1_fill" d="M 3.85644 3.85564L 3.85644 0.499476L 3.85644 3.07315e-08L 3.35455 0.00161113L 6.02337e-07 0.0120844L 0.0128894 3.86852L 3.85644 3.85564Z"/>
<path id="path2_fill" d="M 20 0C 8.97205 0 0 8.97205 0 20C 0 31.0271 8.97205 40 20 40C 31.0271 40 40 31.0271 40 20C 40 8.97205 31.0288 0 20 0ZM 31.3744 17.6662L 31.3744 26.979C 31.3744 29.4047 29.4022 31.376 26.9782 31.376L 13.0218 31.376C 10.597 31.376 8.62563 29.4047 8.62563 26.979L 8.62563 17.6662L 8.62563 13.0226C 8.62563 10.5978 10.597 8.62644 13.0218 8.62644L 26.9774 8.62644C 29.4022 8.62644 31.3744 10.5978 31.3744 13.0226L 31.3744 17.6662Z"/>
<path id="path3_fill" d="M 15.3806 2.33384C 15.3806 5.76331 12.59 8.55555 9.15895 8.55555C 5.72787 8.55555 2.93805 5.76331 2.93805 2.33384C 2.93805 1.5089 3.10239 0.720213 3.39563 6.88385e-07L -1.78243e-07 6.88385e-07L -1.78243e-07 9.31282C -1.78243e-07 10.5164 0.977201 11.4912 2.17997 11.4912L 16.1355 11.4912C 17.3367 11.4912 18.3155 10.5164 18.3155 9.31282L 18.3155 6.88385e-07L 14.9182 6.88385e-07C 15.2139 0.720213 15.3806 1.5089 15.3806 2.33384Z"/>
</defs>
</svg>
