<svg width="40" height="40" viewBox="0 0 40 40" version="1.1" xmlns="http://www.w3.org/2000/svg" xmlns:xlink="http://www.w3.org/1999/xlink">
<title>Vector</title>
<desc>Created using Figma</desc>
<g id="Canvas" transform="translate(-9820 -3141)">
<g id="Vector">
<use xlink:href="#path0_fill" transform="translate(9820 3141)" fill="#D8C2FF"/>
</g>
</g>
<defs>
<path id="path0_fill" d="M 20 0C 8.95501 0 0 8.95501 0 20C 0 31.045 8.95501 40 20 40C 31.045 40 40 31.045 40 20C 40 8.95249 31.045 0 20 0ZM 21.56 25.4075C 20.0975 25.295 19.485 24.57 18.34 23.8725C 17.71 27.1775 16.94 30.3475 14.66 32C 13.9549 27.0075 15.6924 23.2575 16.5 19.275C 15.125 16.9575 16.665 12.3 19.5649 13.4475C 23.1325 14.86 16.4724 22.055 20.9449 22.955C 25.6124 23.8925 27.5199 14.8525 24.625 11.9125C 20.4399 7.66751 12.4499 11.815 13.4325 17.8926C 13.6725 19.3776 15.205 19.8276 14.045 21.88C 11.3675 21.29 10.5675 19.175 10.67 16.36C 10.8351 11.7525 14.81 8.52749 18.7975 8.08C 23.84 7.51499 28.57 9.92999 29.2225 14.6725C 29.96 20.025 26.9475 25.825 21.56 25.4075Z"/>
</defs>
</svg>
