<svg width="40" height="40" viewBox="0 0 40 40" version="1.1" xmlns="http://www.w3.org/2000/svg" xmlns:xlink="http://www.w3.org/1999/xlink">
<title>Vector</title>
<desc>Created using Figma</desc>
<g id="Canvas" transform="translate(-9890 -3141)">
<g id="Vector">
<use xlink:href="#path0_fill" transform="translate(9890 3141)" fill="#D8C2FF"/>
</g>
</g>
<defs>
<path id="path0_fill" d="M 20 0C 8.955 0 0 8.955 0 20C 0 31.045 8.955 40 20 40C 31.045 40 40 31.045 40 20C 40 8.95253 31.045 0 20 0ZM 29.95 15.51L 29.965 16.1475C 29.965 22.6574 25.0125 30.1575 15.955 30.1575C 13.175 30.1575 10.5874 29.3425 8.40746 27.945C 8.7925 27.9899 9.18494 28.0149 9.58248 28.0149C 11.89 28.0149 14.0125 27.2274 15.6975 25.9074C 13.5425 25.8674 11.7249 24.4424 11.0975 22.4875C 11.3999 22.5449 11.705 22.5725 12.025 22.5725C 12.475 22.5725 12.9099 22.515 13.3224 22.4025C 11.0699 21.9475 9.37244 19.96 9.37244 17.575L 9.37244 17.5125C 10.0374 17.8825 10.7949 18.1025 11.6024 18.1301C 10.2824 17.2476 9.41241 15.7401 9.41241 14.0325C 9.41241 13.1301 9.65493 12.2851 10.0774 11.5576C 12.5049 14.5376 16.1349 16.4976 20.2274 16.7026C 20.1424 16.3425 20.0999 15.9651 20.0999 15.5801C 20.0999 12.8626 22.3049 10.6576 25.0249 10.6576C 26.4399 10.6576 27.7199 11.255 28.6199 12.2125C 29.7399 11.99 30.7949 11.58 31.7474 11.0175C 31.3799 12.1676 30.5999 13.1325 29.5824 13.7425C 30.5749 13.625 31.5274 13.3575 32.4099 12.9675C 31.7499 13.9525 30.9124 14.82 29.95 15.51Z"/>
</defs>
</svg>
